<?xml version="1.0" encoding="UTF-8" standalone="no"?>
<svg width="80px" height="80px" viewBox="0 0 80 80" version="1.1" xmlns="http://www.w3.org/2000/svg" xmlns:xlink="http://www.w3.org/1999/xlink">
    <!-- Generator: sketchtool 39.1 (31720) - http://www.bohemiancoding.com/sketch -->
    <title>1C396E5E-C778-4C63-B2FB-36C29A45E3AF</title>
    <desc>Created with sketchtool.</desc>
    <defs></defs>
    <g id="Symbols" stroke="none" stroke-width="1" fill="none" fill-rule="evenodd">
        <g id="twitter">
            <g id="Group">
                <path d="M79.9284211,39.9642105 C79.9284211,62.0357895 62.0357895,79.9284211 39.9642105,79.9284211 C17.8926316,79.9284211 0,62.0357895 0,39.9642105 C0,17.8926316 17.8926316,0 39.9642105,0 C62.0357895,0 79.9284211,17.8926316 79.9284211,39.9642105" id="Twitter-Circle" fill="#24A9E6"></path>
                <path d="M58.3368421,23.7652632 C56.7726316,24.7147368 55.0442105,25.4052632 53.1968421,25.7747368 C51.7252632,24.1642105 49.6221053,23.1578947 47.2936842,23.1578947 C42.8305263,23.1578947 39.2084211,26.8715789 39.2084211,31.4515789 C39.2084211,32.1010526 39.2778947,32.7326316 39.4168421,33.34 C32.6947368,32.9936842 26.7357895,29.6957895 22.7442105,24.6715789 C22.0473684,25.9010526 21.6494737,27.3273684 21.6494737,28.8452632 C21.6494737,31.7221053 23.0768421,34.2610526 25.2484211,35.7484211 C23.9242105,35.7084211 22.6747368,35.3315789 21.5821053,34.7136842 L21.5821053,34.8157895 C21.5821053,38.8357895 24.3705263,42.1894737 28.0736842,42.9484211 C27.3957895,43.1431579 26.68,43.24 25.9421053,43.24 C25.4210526,43.24 24.9126316,43.1905263 24.42,43.0936842 C25.4494737,46.3873684 28.4347368,48.7863158 31.9747368,48.8494737 C29.2073684,51.0757895 25.7178947,52.4021053 21.9294737,52.4021053 C21.2768421,52.4021053 20.6315789,52.3642105 20,52.2884211 C23.5789474,54.6378947 27.8326316,56.0115789 32.3989474,56.0115789 C47.2778947,56.0115789 55.4115789,43.3757895 55.4115789,32.4147368 C55.4115789,32.0536842 55.4052632,31.6936842 55.3915789,31.34 C56.9715789,30.1694737 58.3442105,28.7105263 59.4242105,27.0473684 C57.9757895,27.7063158 56.4157895,28.1526316 54.78,28.3526316 C56.4505263,27.3273684 57.7326316,25.7010526 58.3368421,23.7652632" id="Twitter" fill="#FFFFFF"></path>
            </g>
        </g>
    </g>
</svg>