<?xml version="1.0" encoding="UTF-8" standalone="no"?>
<svg width="80px" height="80px" viewBox="0 0 80 80" version="1.1" xmlns="http://www.w3.org/2000/svg" xmlns:xlink="http://www.w3.org/1999/xlink">
    <!-- Generator: sketchtool 39.1 (31720) - http://www.bohemiancoding.com/sketch -->
    <title>350D95B0-E5EE-4366-81DE-E2E16B6CC699</title>
    <desc>Created with sketchtool.</desc>
    <defs></defs>
    <g id="Symbols" stroke="none" stroke-width="1" fill="none" fill-rule="evenodd">
        <g id="google" fill="#F24033">
            <g id="Group-3">
                <path d="M39.7090909,0.135064935 C17.9220779,0.135064935 0.25974026,17.7974026 0.25974026,39.5844156 C0.25974026,61.361039 17.9220779,79.0233766 39.7090909,79.0233766 C61.4857143,79.0233766 79.1480519,61.361039 79.1480519,39.5844156 C79.1480519,17.7974026 61.4857143,0.135064935 39.7090909,0.135064935 L39.7090909,0.135064935 Z M32.0519481,53.2363636 C24.6961039,53.2363636 18.7324675,47.2 18.7324675,39.8337662 C18.7324675,32.4675325 24.6961039,26.4519481 32.0519481,26.4519481 C35.5012987,26.4519481 38.6493506,27.761039 41.0077922,29.9116883 C38.2233766,32.5506494 38.3168831,32.6961039 37.2155844,33.7974026 C35.8545455,32.6545455 34.3584416,31.8337662 32.0519481,31.8337662 C27.6779221,31.8337662 24.2701299,35.387013 24.2701299,39.761039 C24.2701299,44.1350649 27.6779221,47.7922078 32.0519481,47.7922078 C36.3636364,47.7922078 38.1194805,45.7142857 39.2519481,42.5974026 L32.2077922,42.5974026 L32.2077922,37.4025974 L44.8415584,37.4025974 C45.7246753,43.6363636 43.0441558,53.2363636 32.0519481,53.2363636 L32.0519481,53.2363636 Z M60.2597403,40.5194805 L56.1038961,40.5194805 L56.1038961,45.7142857 L52.987013,45.7142857 L52.987013,40.5194805 L47.7922078,40.5194805 L47.7922078,37.4025974 L52.987013,37.4025974 L52.987013,33.2467532 L56.1038961,33.2467532 L56.1038961,37.4025974 L60.2597403,37.4025974 L60.2597403,40.5194805 L60.2597403,40.5194805 Z" id="Google+"></path>
            </g>
        </g>
    </g>
</svg>