<?xml version="1.0" encoding="UTF-8" standalone="no"?>
<svg width="42px" height="42px" viewBox="0 0 42 42" version="1.1" xmlns="http://www.w3.org/2000/svg" xmlns:xlink="http://www.w3.org/1999/xlink">
    <!-- Generator: sketchtool 39.1 (31720) - http://www.bohemiancoding.com/sketch -->
    <title>3EAACA3B-510B-44D5-850F-D75AE39BC265</title>
    <desc>Created with sketchtool.</desc>
    <defs></defs>
    <g id="Process" stroke="none" stroke-width="1" fill="none" fill-rule="evenodd" stroke-linecap="round" stroke-linejoin="round">
        <g id="Process-detail" transform="translate(-789.000000, -371.000000)" stroke="#000000">
            <g id="exchange_black" transform="translate(790.000000, 372.000000)">
                <g id="Page-1-Copy-66">
                    <path d="M34.9322051,39.7435897 L5.1465641,39.7435897 C2.44605128,39.7435897 0.256307692,37.5538462 0.256307692,34.8533333 L0.256307692,5.06769231 C0.256307692,2.36666667 2.44605128,0.177435897 5.1465641,0.177435897 L34.9322051,0.177435897 C37.6332308,0.177435897 39.8224615,2.36666667 39.8224615,5.06769231 L39.8224615,34.8533333 C39.8224615,37.5538462 37.6332308,39.7435897 34.9322051,39.7435897 L34.9322051,39.7435897 Z" id="Stroke-1"></path>
                    <path d="M25.0466154,16.3695897 L30.9712308,17.3095897 C29.7691795,12.5183077 25.4337949,8.97010256 20.2696923,8.97010256 C14.176359,8.97010256 9.23635897,13.9095897 9.23635897,20.0029231" id="Stroke-3"></path>
                    <path d="M32.7788205,11.0595385 L30.9711282,17.3097949" id="Stroke-5"></path>
                    <path d="M15.1801538,24.0058462 L9.25553846,23.0658462 C10.4575897,27.8571282 14.7929744,31.4053333 19.9570769,31.4053333 C26.0504103,31.4053333 30.9904103,26.4658462 30.9904103,20.3725128" id="Stroke-7"></path>
                    <path d="M7.44794872,29.3158974 L9.25564103,23.065641" id="Stroke-9"></path>
                </g>
            </g>
        </g>
    </g>
</svg>