<?xml version="1.0" encoding="UTF-8" standalone="no"?>
<svg width="80px" height="80px" viewBox="0 0 80 80" version="1.1" xmlns="http://www.w3.org/2000/svg" xmlns:xlink="http://www.w3.org/1999/xlink">
    <!-- Generator: sketchtool 39.1 (31720) - http://www.bohemiancoding.com/sketch -->
    <title>6BEBA1FE-1154-4ECD-9162-DC89757290D1</title>
    <desc>Created with sketchtool.</desc>
    <defs></defs>
    <g id="Symbols" stroke="none" stroke-width="1" fill="none" fill-rule="evenodd">
        <g id="facebook" fill="#43619C">
            <g id="Group-2">
                <path d="M40.0311688,0.135064935 C18.2441558,0.135064935 0.581818182,17.7974026 0.581818182,39.5844156 C0.581818182,61.361039 18.2441558,79.0233766 40.0311688,79.0233766 C61.8077922,79.0233766 79.4701299,61.361039 79.4701299,39.5844156 C79.4701299,17.7974026 61.8077922,0.135064935 40.0311688,0.135064935 L40.0311688,0.135064935 Z M59.2207792,56.2597403 C59.2207792,57.4233766 58.6493506,58.1818182 57.4961039,58.1818182 L47.7922078,58.1818182 L47.7922078,43.6363636 L52.7272727,43.6363636 L53.4753247,37.4025974 L47.7922078,37.4025974 L47.7922078,34.161039 C47.7922078,32.4987013 48.238961,31.1688312 50.6285714,31.1688312 L54.025974,31.1688312 L54.025974,26.212987 C52.987013,26.1402597 51.3766234,25.9844156 49.2675325,25.9844156 C44.8831169,25.9844156 41.5584416,28.6649351 41.5584416,33.5896104 L41.5584416,37.4025974 L36.3636364,37.4025974 L36.3636364,43.6363636 L41.5584416,43.6363636 L41.5584416,58.1818182 L23.5636364,58.1818182 C22.4,58.1818182 21.8181818,57.4233766 21.8181818,56.2597403 L21.8181818,22.3272727 C21.8181818,21.1636364 22.4,19.7402597 23.5636364,19.7402597 L57.4961039,19.7402597 C58.6493506,19.7402597 59.2207792,21.1636364 59.2207792,22.3272727 L59.2207792,56.2597403 L59.2207792,56.2597403 Z" id="Facebook"></path>
            </g>
        </g>
    </g>
</svg>