<?xml version="1.0" encoding="UTF-8" standalone="no"?>
<svg width="20px" height="20px" viewBox="0 0 20 20" version="1.1" xmlns="http://www.w3.org/2000/svg" xmlns:xlink="http://www.w3.org/1999/xlink">
    <!-- Generator: sketchtool 39.1 (31720) - http://www.bohemiancoding.com/sketch -->
    <title>7C7558EA-09F6-4E07-8EDA-66BD59890213</title>
    <desc>Created with sketchtool.</desc>
    <defs></defs>
    <g id="Symbols" stroke="none" stroke-width="1" fill="none" fill-rule="evenodd" stroke-linecap="round" stroke-linejoin="round">
        <g id="offerfromothers_items" stroke="#000000">
            <g id="Page-1">
                <path d="M19.4636092,19.9233793 L0.459701149,19.9233793 C0.206827586,19.9233793 -6.89655172e-05,19.7164828 -6.89655172e-05,19.4636092 L-6.89655172e-05,0.459701149 C-6.89655172e-05,0.206827586 0.206827586,-6.89655172e-05 0.459701149,-6.89655172e-05 L9.96177011,-6.89655172e-05 L19.4636092,-6.89655172e-05 C19.7164828,-6.89655172e-05 19.9233793,0.206827586 19.9233793,0.459701149 L19.9233793,19.4636092 C19.9233793,19.7164828 19.7164828,19.9233793 19.4636092,19.9233793 L19.4636092,19.9233793 Z" id="Stroke-1"></path>
                <polyline id="Stroke-3" points="4.51528736 10.8927816 9.96172414 16.3392184 15.4081609 10.8927816"></polyline>
                <polyline id="Stroke-5" points="9.96167816 16.3391954 9.96167816 2.93114943 9.96167816 0.000114942529"></polyline>
            </g>
        </g>
    </g>
</svg>