<?xml version="1.0" encoding="UTF-8" standalone="no"?>
<svg width="31px" height="26px" viewBox="0 0 31 26" version="1.1" xmlns="http://www.w3.org/2000/svg" xmlns:xlink="http://www.w3.org/1999/xlink">
    <!-- Generator: sketchtool 39.1 (31720) - http://www.bohemiancoding.com/sketch -->
    <title>7732F303-74CF-4177-8271-C66F46C624D7</title>
    <desc>Created with sketchtool.</desc>
    <defs></defs>
    <g id="Message" stroke="none" stroke-width="1" fill="none" fill-rule="evenodd">
        <g id="message" transform="translate(-492.000000, -1047.000000)" stroke="#858585">
            <g id="Sendimage" transform="translate(493.000000, 1048.000000)">
                <g id="Page-1-Copy-2">
                    <path d="M28.3648498,23.8333333 L1.18186874,23.8333333 C0.622338312,23.8333333 0.168838392,23.3856667 0.168838392,22.8333333 L0.168838392,1.26833333 C0.168838392,0.716 0.622338312,0.268333333 1.18186874,0.268333333 L28.3648498,0.268333333 C28.9243803,0.268333333 29.3778802,0.716 29.3778802,1.26833333 L29.3778802,22.8333333 C29.3778802,23.3856667 28.9243803,23.8333333 28.3648498,23.8333333 L28.3648498,23.8333333 Z" id="Stroke-1"></path>
                    <polyline id="Stroke-3" points="0.168838392 14.3238667 9.84158986 6.32386667 16.79942 15.0182 22.7931829 9.68486667 29.3778802 14.3238667"></polyline>
                    <path d="M23.8879986,4.35166667 C23.8879986,5.717 22.766574,6.824 21.3834499,6.824 C20.0003258,6.824 18.8792388,5.717 18.8792388,4.35166667 C18.8792388,2.98633333 20.0003258,1.87933333 21.3834499,1.87933333 C22.766574,1.87933333 23.8879986,2.98633333 23.8879986,4.35166667 L23.8879986,4.35166667 Z" id="Stroke-5"></path>
                </g>
            </g>
        </g>
    </g>
</svg>