<?xml version="1.0" encoding="UTF-8" standalone="no"?>
<svg width="50px" height="50px" viewBox="0 0 50 50" version="1.1" xmlns="http://www.w3.org/2000/svg" xmlns:xlink="http://www.w3.org/1999/xlink">
    <!-- Generator: sketchtool 39.1 (31720) - http://www.bohemiancoding.com/sketch -->
    <title>39D08D2E-EC1E-4AFB-9F43-4D68B555CBCC</title>
    <desc>Created with sketchtool.</desc>
    <defs>
        <polygon id="path-1" points="18.9161857 48.9091981 37.7514418 48.9091981 37.7514418 0.0158372642 0.0809296535 0.0158372642 0.0809296535 48.9091981 18.9161857 48.9091981"></polygon>
    </defs>
    <g id="Symbols" stroke="none" stroke-width="1" fill="none" fill-rule="evenodd">
        <g id="Karma">
            <g id="Page-1-Copy-5">
                <path d="M24.6725492,2.79434552 C24.4417935,2.79481132 24.3851663,2.79760613 24.3280673,2.80133255 C24.280878,2.80412736 24.2332168,2.80692217 24.1416695,2.80925118 L24.0605039,2.81670401 C11.8823607,3.20564858 2.35955949,12.9143573 2.35955949,24.9204009 C2.35955949,30.7303479 4.62417411,36.2179599 8.73624991,40.3729127 C10.5119834,42.16625 12.5467861,43.6270047 14.7590206,44.7188443 C12.9054248,42.4997642 11.8446093,39.6565094 11.8446093,36.5654481 C11.8446093,29.5160024 17.7484629,23.7782547 24.8268582,23.7558962 L24.8268582,23.7549646 C30.4895745,23.7358667 35.4024528,18.8388915 35.4024528,13.2753538 C35.4024528,7.68945755 30.9473107,3.09152712 25.2902572,2.80831958 L24.6725492,2.79434552 Z M24.1374225,49.3596285 C17.6545562,49.1975295 11.58554,46.5839151 7.04876046,42.0004245 C2.50348687,37.4080837 9.43786054e-05,31.3419458 9.43786054e-05,24.9204009 C9.43786054e-05,11.6497052 10.5256683,0.918561321 23.963294,0.489557783 L24.175174,0.476981132 C24.2558677,0.471857311 24.3356176,0.465801887 24.7008628,0.465801887 L25.3558503,0.481173349 C32.2992842,0.828195755 37.7406827,6.44809552 37.7406827,13.2753538 C37.7406827,20.1836616 31.9052536,26.0415861 24.8268582,26.0839741 L24.8268582,26.0849057 C18.6922489,26.0849057 14.1828392,30.7867099 14.1828392,36.5654481 C14.1828392,42.1518101 18.5936233,46.7497406 24.2402952,47.0324823 L24.1374225,49.3596285 Z" id="Fill-1" fill="#DDDDDD"></path>
                <g id="Group-5" transform="translate(11.797326, 0.465336)">
                    <mask id="mask-2" fill="white">
                        <use xlink:href="#path-1"></use>
                    </mask>
                    <g id="Clip-4"></g>
                    <path d="M13.0655381,25.6191038 L13.0655381,25.6218986 C7.20698619,25.6600943 2.44039477,30.3605012 2.44039477,36.100112 C2.44039477,41.6855425 6.8818519,46.2830071 12.5516466,46.5671462 C12.6002516,46.5680778 12.6498003,46.5704068 12.7007648,46.5727358 C12.7786271,46.5769281 12.8579051,46.5806545 13.1391534,46.5806545 L13.8696438,46.5503774 C25.9524646,46.064546 35.3922127,36.3600295 35.3922127,24.4550649 C35.3922127,18.6451179 33.1275981,13.1575059 29.0155223,9.00255307 C27.2397888,7.2092158 25.2049861,5.74846108 22.9922797,4.65662146 C24.8458755,6.87523585 25.9538803,9.71895637 25.9538803,12.8100177 C25.9538803,19.844092 20.1802692,25.571592 13.0655381,25.6191038 L13.0655381,25.6191038 Z M13.1282998,48.9091981 C12.7715487,48.9091981 12.6738669,48.9036085 12.5785445,48.8989505 L12.4624588,48.8942925 C5.50628374,48.5463384 0.0809296535,42.9269045 0.0809296535,36.100112 C0.0809296535,29.1084257 5.85925972,23.3785967 12.9772941,23.2938208 L12.9772941,23.2905601 C18.8315989,23.2905601 23.5944152,18.5887559 23.5944152,12.8100177 C23.5944152,7.22318986 19.1713619,2.62572524 13.52469,2.34298349 L13.6143497,0.0158372642 C20.097216,0.177936321 26.1667041,2.79155071 30.7030117,7.37504127 C35.2482853,11.9673821 37.7516778,18.03352 37.7516778,24.4550649 C37.7516778,37.6135024 27.3176512,48.3399882 13.9979987,48.8756604 L13.9493937,48.8803184 C13.8885195,48.8849764 13.8271734,48.8901002 13.7658273,48.8933608 L13.1721859,48.9091981 L13.1282998,48.9091981 Z" id="Fill-3" fill="#DDDDDD" mask="url(#mask-2)"></path>
                </g>
                <path d="M28.3136758,13.2705094 C28.3136758,15.1998608 26.729059,16.7640236 24.7744781,16.7640236 C22.8198972,16.7640236 21.2352804,15.1998608 21.2352804,13.2705094 C21.2352804,11.341158 22.8198972,9.77699528 24.7744781,9.77699528 C26.729059,9.77699528 28.3136758,11.341158 28.3136758,13.2705094" id="Fill-6" fill="#DDDDDD"></path>
                <path d="M24.7744781,40.0540713 C22.8198972,40.0540713 21.2352804,38.4899086 21.2352804,36.5605572 C21.2352804,34.6312058 22.8198972,33.067043 24.7744781,33.067043 C26.729059,33.067043 28.3136758,34.6312058 28.3136758,36.5605572 C28.3136758,38.4899086 26.729059,40.0540713 24.7744781,40.0540713 M25.3813325,1.64544517 C31.6150394,1.95753243 36.5718037,7.04502064 36.5718037,13.2755867 C36.5718037,19.7069133 31.2899051,24.9206338 24.7744781,24.9206338 C24.801376,24.9206338 24.8282739,24.9220312 24.8551718,24.9224971 C18.2868928,24.9653508 13.0583181,30.1609051 13.0583181,36.565681 C13.0583181,42.7957812 18.0556652,47.8832695 24.2889002,48.1953567 C24.4913423,48.2004805 24.4649163,48.2107282 24.9368093,48.2107282 C24.9368093,48.2107282 25.3011107,48.2004805 25.5030809,48.1953567 C25.5851903,48.1911645 25.665884,48.1827801 25.7475215,48.1771904 C38.3253581,47.6722612 48.3691292,37.4604864 48.3691292,24.9206338 C48.3691292,12.2587412 38.1309382,1.96451946 25.3813325,1.64544517" id="Fill-8" fill="#DDDDDD"></path>
            </g>
        </g>
    </g>
</svg>