<?xml version="1.0" encoding="utf-8"?>
<!-- Generator: Adobe Illustrator 19.2.1, SVG Export Plug-In . SVG Version: 6.00 Build 0)  -->
<svg version="1.1" id="Layer_1" xmlns="http://www.w3.org/2000/svg" xmlns:xlink="http://www.w3.org/1999/xlink" x="0px" y="0px"
	 viewBox="0 0 60 60" enable-background="new 0 0 60 60" xml:space="preserve">
<g>
	<path fill="none" d="M34.5,18V3.4H21.7V18c1.9-1,4.1-1.6,6.4-1.6S32.6,17,34.5,18z"/>
	<path fill="none" d="M21.7,42v14.5h12.8V42c-1.9,1-4.1,1.6-6.4,1.6S23.6,43,21.7,42z"/>
	<path fill="none" d="M28.1,18.7c-6.2,0-11.3,5.1-11.3,11.3s5.1,11.3,11.3,11.3S39.4,36.2,39.4,30S34.3,18.7,28.1,18.7z M32.3,32.8
		h-5.9c-0.8,0-1.5-0.7-1.5-1.5V24c0-0.8,0.7-1.5,1.5-1.5s1.5,0.7,1.5,1.5v5.9h4.4c0.8,0,1.5,0.7,1.5,1.5
		C33.8,32.1,33.1,32.8,32.3,32.8z"/>
	<path d="M32.3,29.8h-4.4V24c0-0.8-0.7-1.5-1.5-1.5S25,23.1,25,24v7.3c0,0.8,0.7,1.5,1.5,1.5h5.9c0.8,0,1.5-0.7,1.5-1.5
		C33.8,30.5,33.1,29.8,32.3,29.8z"/>
	<path d="M44.1,29.8h-2.4c-0.1-4.1-1.9-7.8-4.9-10.3V3.2c0-1.2-0.9-2.1-2.1-2.1H21.5c-1.2,0-2.1,0.9-2.1,2.1v16.4
		c-3,2.5-4.9,6.3-4.9,10.5s1.9,7.9,4.9,10.5v16.4c0,1.2,0.9,2.1,2.1,2.1h13.3c1.2,0,2.1-0.9,2.1-2.1V40.5c2.3-1.9,4-4.6,4.6-7.7h2.6
		c0.8,0,1.5-0.7,1.5-1.5C45.5,30.5,44.9,29.8,44.1,29.8z M21.7,3.4h12.8V18c-1.9-1-4.1-1.6-6.4-1.6S23.6,17,21.7,18V3.4z M34.5,56.6
		H21.7V42c1.9,1,4.1,1.6,6.4,1.6s4.5-0.6,6.4-1.6V56.6z M28.1,41.3c-6.2,0-11.3-5.1-11.3-11.3s5.1-11.3,11.3-11.3S39.4,23.8,39.4,30
		S34.3,41.3,28.1,41.3z"/>
</g>
</svg>
