<?xml version="1.0" encoding="utf-8"?>
<!-- Generator: Adobe Illustrator 19.2.1, SVG Export Plug-In . SVG Version: 6.00 Build 0)  -->
<svg version="1.1" id="Layer_1" xmlns="http://www.w3.org/2000/svg" xmlns:xlink="http://www.w3.org/1999/xlink" x="0px" y="0px"
	 viewBox="0 0 20 20" enable-background="new 0 0 20 20" xml:space="preserve">
<g>
	<path fill="none" d="M17.1,0.8H2.9c-1.1,0-2,0.9-2,2.1v14.2c0,1.1,0.9,2,2,2h14.2c1.1,0,2-0.9,2-2V2.9C19.2,1.7,18.3,0.8,17.1,0.8z
		 M10.8,16.3c-0.2,0-0.3-0.1-0.3-0.3s0.1-0.3,0.3-0.3c3.2,0,5.7-2.6,5.7-5.7S14,4.3,10.8,4.3c-2.9,0-5.4,2.2-5.7,5.1l1.8-1.3
		C7,8,7.2,8,7.3,8.1c0.1,0.1,0.1,0.3-0.1,0.4L5,10.2c-0.1,0.1-0.2,0.1-0.3,0c0,0-0.1-0.1-0.1-0.1c0,0,0,0-0.1,0
		c-0.1,0-0.2,0-0.2-0.1L2.7,7.9C2.6,7.8,2.6,7.6,2.7,7.5C2.8,7.4,3,7.4,3.1,7.6l1.4,1.9c0.3-3.2,3-5.8,6.3-5.8
		c3.5,0,6.3,2.8,6.3,6.3S14.3,16.3,10.8,16.3z"/>
	<path fill="#868686" d="M17.1,0.2H2.9c-1.4,0-2.6,1.2-2.6,2.6v14.2c0,1.4,1.2,2.6,2.6,2.6h14.2c1.4,0,2.6-1.2,2.6-2.6V2.9
		C19.8,1.4,18.6,0.2,17.1,0.2z M19.2,17.1c0,1.1-0.9,2-2,2H2.9c-1.1,0-2-0.9-2-2V2.9c0-1.1,0.9-2.1,2-2.1h14.2c1.1,0,2,0.9,2,2.1
		V17.1z"/>
	<path fill="#868686" d="M10.8,3.7c-3.3,0-6,2.5-6.3,5.8L3.1,7.6C3,7.4,2.8,7.4,2.7,7.5C2.6,7.6,2.6,7.8,2.7,7.9l1.6,2.2
		c0.1,0.1,0.1,0.1,0.2,0.1c0,0,0,0,0.1,0c0,0,0.1,0.1,0.1,0.1c0.1,0,0.2,0,0.3,0l2.3-1.7c0.1-0.1,0.2-0.3,0.1-0.4C7.2,8,7,8,6.9,8.1
		L5.1,9.4c0.3-2.9,2.7-5.1,5.7-5.1c3.2,0,5.7,2.6,5.7,5.7s-2.6,5.7-5.7,5.7c-0.2,0-0.3,0.1-0.3,0.3s0.1,0.3,0.3,0.3
		c3.5,0,6.3-2.8,6.3-6.3S14.3,3.7,10.8,3.7z"/>
</g>
</svg>
