<?xml version="1.0" encoding="utf-8"?>
<!-- Generator: Adobe Illustrator 19.2.1, SVG Export Plug-In . SVG Version: 6.00 Build 0)  -->
<svg version="1.1" id="Layer_1" xmlns="http://www.w3.org/2000/svg" xmlns:xlink="http://www.w3.org/1999/xlink" x="0px" y="0px"
	 viewBox="0 0 60 60" enable-background="new 0 0 60 60" xml:space="preserve">
<path d="M46.1,2.9L46.1,2.9c-0.2-1.1-1.2-2-2.3-2H16.3c-1.2,0-2.2,0.9-2.3,2L6,56.5c-0.1,0.7,0.1,1.4,0.5,1.9
	c0.4,0.5,1.1,0.8,1.8,0.8H19c1.1,0,2-0.7,2.3-1.7L30,25.6l8.8,31.8c0.3,1,1.2,1.7,2.3,1.7h10.6c0.7,0,1.3-0.3,1.8-0.8
	c0.4-0.5,0.6-1.2,0.5-1.9L46.1,2.9z M41,56.8l-9.8-35.4l-0.1-0.6c-0.1-0.6-0.6-1-1.1-1h0c-0.6,0-1.1,0.4-1.1,1l-0.1,0.6L19,56.9
	L8.2,56.8l8-53.7h12.6v9.6c0,0.6,0.5,1.1,1.1,1.1s1.1-0.5,1.1-1.1V3.1h12.6c0,0,0.1,0,0.1,0.1l7.9,53.7L41,56.8z"/>
</svg>
