<?xml version="1.0" encoding="utf-8"?>
<!-- Generator: Adobe Illustrator 19.2.1, SVG Export Plug-In . SVG Version: 6.00 Build 0)  -->
<svg version="1.1" id="Layer_1" xmlns="http://www.w3.org/2000/svg" xmlns:xlink="http://www.w3.org/1999/xlink" x="0px" y="0px"
	 viewBox="0 0 60 60" enable-background="new 0 0 60 60" xml:space="preserve">
<path d="M35.4,12l3.1-9c0.1-0.4,0.1-0.9-0.2-1.2c-0.3-0.4-0.7-0.6-1.1-0.6H23.1c-0.4,0-0.8,0.2-1.1,0.6c-0.3,0.4-0.3,0.8-0.2,1.2
	l3.3,9l-9.7,36.1c-0.2,0.6,0.1,1.2,0.6,1.5l12.8,8.3l0.1,0.1c0.1,0.2,0.3,0.4,0.6,0.6l0.2,0.1c0.2,0.1,0.4,0.1,0.6,0.1
	c0.3,0,0.5-0.1,0.8-0.2l13.1-9c0.5-0.3,0.7-0.9,0.5-1.4L35.4,12z M21.4,49.9l16.7-16.4l1.7,6.7L26.2,53L21.4,49.9z M27.6,13.3H31
	l-4.1,2.4L27.6,13.3z M26.6,16.9l6.3-3.6l0.8,3.1l-9.5,9.2L26.6,16.9z M23.8,27.4L34,17.5l1.7,6.7L20.5,39.3L23.8,27.4z M35.3,3.9
	L33,10.6h-5.5L25,3.9H35.3z M20.1,41.2L36,25.3l1.8,7.2l-17.2,17l-2.3-1.5L20.1,41.2z M30.3,55.7L27,53.5l13.1-12.3l1.7,6.7
	L30.3,55.7z"/>
</svg>
