<?xml version="1.0" encoding="utf-8"?>
<!-- Generator: Adobe Illustrator 19.2.1, SVG Export Plug-In . SVG Version: 6.00 Build 0)  -->
<svg version="1.1" id="Layer_1" xmlns="http://www.w3.org/2000/svg" xmlns:xlink="http://www.w3.org/1999/xlink" x="0px" y="0px"
	 viewBox="0 0 60 60" enable-background="new 0 0 60 60" xml:space="preserve">
<path d="M46.6,3c-0.1-0.8-0.7-1.7-1.7-1.9c-1.3-0.2-2.5,0.8-4.1,3.5L30.1,22.2L19.2,4.6c-1.6-2.7-2.8-3.7-4.1-3.5
	c-1,0.2-1.6,1.1-1.7,1.8c-2.2,8.1-2.9,17.1-3,19.2c-1.6,1.9-9,11.3-7.1,19.8c0,0.1,0.1,0.2,0.1,0.3l1.1,1.9c0,3,0,7.2-0.2,8
	c-0.1,0.7,0.3,1.2,0.5,1.4c0,0,0,0,0.1,0.1c0,0.3,0,0.7,0.1,1C5,55.3,5,55.9,5,56.4c0,0.5,0.2,1.1,0.7,1.6c0.6,0.6,1.5,0.9,2.6,0.9
	c0.2,0,0.4,0,0.6,0c0.2,0,15.7-0.6,21-0.4c0,0,0,0,0.1,0c0,0,0,0,0.1,0c5.3-0.2,20.8,0.4,20.9,0.4c0.2,0,0.5,0,0.7,0
	c1.2,0,2.1-0.3,2.7-0.9c0.5-0.5,0.7-1.1,0.7-1.6c0-0.5,0.1-1.1,0.1-1.7c0-0.3,0-0.7,0.1-1c0,0,0,0,0.1-0.1c0.2-0.2,0.6-0.8,0.5-1.5
	c-0.2-0.8-0.2-5-0.2-8l1.1-1.9c0.1-0.1,0.1-0.2,0.1-0.3c1.9-8.5-5.5-17.9-7.1-19.8C49.5,20,48.8,11,46.6,3z M43,5.8
	c0.6-1,1.1-1.6,1.3-1.9c2,7.5,2.7,15.9,2.8,18.2c-1.2,1.2-6.5,6.7-12.2,7.9l-3.4-5.4L43,5.8z M30.4,29.9c-0.2,0-0.3,0-0.5,0
	l-1.4,0.3c-0.1,0-0.3,0-0.4,0l2-3.3l2.1,3.3c-0.2,0-0.3,0-0.5,0L30.4,29.9z M15.7,3.9c0.3,0.3,0.8,0.9,1.4,2l11.6,18.7L25.4,30
	c-5.8-1.2-11.3-6.7-12.5-7.9C13,19.8,13.7,11.3,15.7,3.9z M54.3,41.2l-1.2,2c-0.1,0.2-0.2,0.4-0.2,0.6c0,1.1,0,6.1,0.2,8.2
	c-0.3,0.2-0.4,0.5-0.5,0.9c-0.1,0.6-0.1,1.2-0.1,1.8c0,0.6,0,1.1-0.1,1.6c0,0,0,0,0,0.1c-0.1,0.1-0.5,0.2-1.4,0.1
	c-0.6,0-15.7-0.6-21.1-0.4c-5.4-0.2-20.5,0.4-21.2,0.4c-0.8,0.1-1.2-0.1-1.3-0.1c0,0,0,0,0-0.1c0-0.5-0.1-1.1-0.1-1.6
	c0-0.6-0.1-1.2-0.1-1.8c0-0.3-0.2-0.6-0.5-0.8C7,49.9,7,44.9,7,43.8c0-0.2-0.1-0.4-0.2-0.6l-1.2-2c-1.3-6.6,4-14.1,6-16.8
	c2.2,2.2,7.8,7.2,13.9,8.1c0.1,0,0.2,0.1,0.3,0.1c0.6,0.1,1.1,0.1,1.7,0.1c0.4,0,0.8,0,1.2-0.1l1.2-0.2l1.2,0.3
	c0.4,0,0.8,0.1,1.2,0.1c0.6,0,1.3-0.1,1.9-0.2c0.1,0,0.1,0,0.2,0c6-1,11.5-6,13.7-8.1C50.4,27.1,55.7,34.6,54.3,41.2z"/>
</svg>
