<?xml version="1.0" encoding="utf-8"?>
<!-- Generator: Adobe Illustrator 19.2.1, SVG Export Plug-In . SVG Version: 6.00 Build 0)  -->
<svg version="1.1" id="Layer_1" xmlns="http://www.w3.org/2000/svg" xmlns:xlink="http://www.w3.org/1999/xlink" x="0px" y="0px"
	 viewBox="0 0 60 60" enable-background="new 0 0 60 60" xml:space="preserve">
<g>
	<path fill="none" d="M30,25.3c-6.5,0-11.9-2.6-14.8-7c0.2,8,6.8,14.5,14.8,14.5c8.1,0,14.7-6.5,14.8-14.5
		C41.9,22.7,36.5,25.3,30,25.3z"/>
	<path fill="none" d="M30,22.9c7.1,0,12.6-3.4,14.3-8.9C42.5,7.7,36.8,3.2,30,3.2c-6.8,0-12.5,4.6-14.3,10.8
		C17.4,19.5,22.9,22.9,30,22.9z M40.4,10.5c0.7,0,1.3,0.6,1.3,1.3S41.1,13,40.4,13c-0.7,0-1.3-0.6-1.3-1.3S39.7,10.5,40.4,10.5z
		 M30,5.5c0.1-0.7,0.8-1.1,1.4-1c2.6,0.5,5.1,1.7,7.3,3.4c0.5,0.4,0.6,1.2,0.2,1.7c-0.2,0.3-0.6,0.5-1,0.5c-0.3,0-0.5-0.1-0.8-0.3
		c-1.8-1.4-4-2.4-6.2-2.9C30.3,6.8,29.9,6.1,30,5.5z"/>
	<path d="M46.8,13.8c0-0.1,0-0.2-0.1-0.2C44.7,6.2,38,0.7,30,0.7c-8,0-14.8,5.5-16.7,12.9c0,0.1,0,0.1-0.1,0.2
		c-0.3,1.3-0.5,2.7-0.5,4.2c0,9.1,7.1,16.6,16.1,17.2v22.8c0,0.7,0.5,1.2,1.2,1.2s1.2-0.5,1.2-1.2V35.2c9-0.6,16.1-8.1,16.1-17.2
		C47.3,16.6,47.1,15.2,46.8,13.8z M30,3.2c6.8,0,12.5,4.6,14.3,10.8c-1.7,5.5-7.1,8.9-14.3,8.9c-7.1,0-12.6-3.4-14.3-8.9
		C17.5,7.7,23.2,3.2,30,3.2z M30,32.8c-8.1,0-14.7-6.5-14.8-14.5c3,4.3,8.4,7,14.8,7c6.5,0,11.9-2.6,14.8-7
		C44.7,26.4,38.1,32.8,30,32.8z"/>
	<path d="M31,6.9c2.3,0.5,4.4,1.5,6.2,2.9c0.2,0.2,0.5,0.3,0.8,0.3c0.4,0,0.7-0.2,1-0.5c0.4-0.5,0.3-1.3-0.2-1.7
		c-2.1-1.7-4.6-2.9-7.3-3.4c-0.7-0.1-1.3,0.3-1.4,1C29.9,6.1,30.3,6.8,31,6.9z"/>
	<circle cx="40.4" cy="11.7" r="1.3"/>
</g>
</svg>
