<?xml version="1.0" encoding="utf-8"?>
<!-- Generator: Adobe Illustrator 19.2.1, SVG Export Plug-In . SVG Version: 6.00 Build 0)  -->
<svg version="1.1" id="Layer_1" xmlns="http://www.w3.org/2000/svg" xmlns:xlink="http://www.w3.org/1999/xlink" x="0px" y="0px"
	 viewBox="0 0 60 60" enable-background="new 0 0 60 60" xml:space="preserve">
<g>
	<path fill="none" d="M25.9,17.6c1.5,4.3,3.1,8.1,4.3,10.6c1.1-2.2,2.9-5.9,4.5-10.6c0.6-1.7,1-3.6,1.5-5.5c0.4-1.8,0.8-3.6,1.4-5.3
		c-0.1-0.1-0.3-0.2-0.4-0.4c-1.9-1.8-3.7-3.5-7-3.3c0,0-0.1,0-0.1,0c0,0-0.1,0-0.1,0c-3.4-0.2-5.2,1.5-7,3.3c0,0-0.1,0.1-0.1,0.1
		c0.5,1.6,1,3.3,1.4,4.9C24.7,13.6,25.3,15.8,25.9,17.6z"/>
	<path fill="none" d="M22.8,21.6l3.7,4c-0.7-1.6-1.4-3.5-2.2-5.5L22.8,21.6z"/>
	<path fill="none" d="M23.6,17.9c-0.6-1.8-1.2-3.8-1.7-5.8c-0.4-1.3-0.7-2.6-1.1-3.9c-0.2,0.2-0.5,0.3-0.7,0.5l1.6,8.4L23.6,17.9z"
		/>
	<path fill="none" d="M34.2,25.2l3.5-3.5l-1.5-1.5C35.6,22,34.9,23.7,34.2,25.2z"/>
	<path fill="none" d="M28.2,46.8L28.2,46.8c0.1-0.1,0-0.2,0-0.2V46.8z"/>
	<path fill="none" d="M39,17.1L40.5,9c-0.4-0.2-0.7-0.4-1-0.6c-0.4,1.4-0.8,2.8-1.1,4.2c-0.4,1.8-0.8,3.6-1.4,5.3L39,17.1z"/>
	<path fill="none" d="M28.2,37.2c-1.3,0-2.4-1.1-2.4-2.4c0-1.3,1.1-2.4,2.4-2.4c0.6,0,1.1,0.2,1.5,0.5c0-0.2-0.1-0.3-0.1-0.4
		l-9.3-10c-0.4-0.5-0.4-1.2,0-1.6l1.2-1.2l-1.4-0.6c-0.4-0.1-0.6-0.5-0.7-0.9l-1.6-8.4l-6.7,2.7c-0.1,0-1.1,0.5-1.4,3.3L6.1,49.6
		C6,50,6,51.3,7.3,51.6L12,53l2.1-30.4c0-0.6,0.6-1.2,1.3-1.1c0.6,0,1.1,0.6,1.1,1.3l-2.3,33.2c0,0.2,0.3,0.5,0.6,0.5h16
		c1.4-8.6,0.5-16.2-0.4-20.5C30,36.6,29.2,37.2,28.2,37.2z M28.2,49.2c-1.3,0-2.4-1.1-2.4-2.4s1.1-2.4,2.4-2.4
		c1.3,0,2.4,1.1,2.4,2.4S29.6,49.2,28.2,49.2z M28.2,43.2c-1.3,0-2.4-1.1-2.4-2.4s1.1-2.4,2.4-2.4c1.3,0,2.4,1.1,2.4,2.4
		S29.6,43.2,28.2,43.2z"/>
	<path fill="none" d="M50.3,15.7c-0.3-2.8-1.4-3.3-1.4-3.3L42.7,10l-1.5,8.2c-0.1,0.4-0.3,0.7-0.7,0.9l-1.4,0.6l1.2,1.2
		c0.2,0.2,0.3,0.5,0.3,0.8c0,0.3-0.1,0.6-0.3,0.8l-8.6,8.7c0.1,0.1,0.1,0.2,0.1,0.2c0,0,0,0.1,0,0.1c0,0,0,0.1,0,0.1
		c0.1,0.5,3.4,11.4,1.3,24.9h12.1c0.3,0,0.5-0.3,0.5-0.5l-2.1-33.1c0-0.6,0.5-1.2,1.1-1.2c0.7-0.1,1.2,0.5,1.2,1.1L47.9,53l4.7-1.4
		c1.5-0.3,1.3-1.8,1.3-2L50.3,15.7z"/>
	<path fill="none" d="M28.2,34.8L28.2,34.8c0.1-0.1,0-0.2,0-0.2V34.8z"/>
	<path fill="none" d="M28.2,40.8L28.2,40.8c0.1-0.1,0-0.2,0-0.2V40.8z"/>
	<path d="M56.3,49.3l-3.7-33.8c-0.5-4.4-2.7-5.2-2.9-5.2l-7.4-3c-1.3-0.5-2.4-1.5-3.5-2.6c-2.1-2-4.4-4.2-8.8-3.9
		c-4.4-0.3-6.7,1.9-8.8,3.9c-1.1,1.1-2.2,2.1-3.6,2.6l-7.2,3c-0.3,0.1-2.5,0.8-3,5.2L3.7,49.3c-0.2,1.3,0.2,4,2.9,4.6l5.1,1.5l0,0.5
		c0,1.6,1.3,2.9,2.9,2.9h16c0.2,0.2,0.4,0.4,0.8,0.5c0.1,0,0.1,0,0.2,0c0.4,0,0.7-0.2,1-0.5h12.6c1.6,0,2.9-1.3,2.9-3l0-0.4l5.1-1.5
		C56.1,53.3,56.5,50.6,56.3,49.3z M39.5,8.4c0.3,0.2,0.7,0.4,1,0.6L39,17.1l-2,0.8c0.6-1.7,1-3.5,1.4-5.3
		C38.8,11.2,39.1,9.8,39.5,8.4z M37.8,21.6l-3.5,3.5c0.7-1.5,1.4-3.2,2-5L37.8,21.6z M22.8,6.4c1.9-1.8,3.7-3.5,7-3.3
		c0,0,0.1,0,0.1,0c0,0,0.1,0,0.1,0c3.4-0.2,5.2,1.5,7,3.3c0.1,0.1,0.3,0.2,0.4,0.4c-0.6,1.8-1,3.6-1.4,5.3c-0.4,2-0.9,3.8-1.5,5.5
		c-1.6,4.6-3.3,8.3-4.5,10.6c-1.1-2.5-2.7-6.2-4.3-10.6c-0.6-1.8-1.2-4-1.8-6.1c-0.5-1.7-0.9-3.4-1.4-4.9
		C22.7,6.5,22.8,6.4,22.8,6.4z M26.5,25.7l-3.7-4l1.5-1.5C25.1,22.2,25.8,24,26.5,25.7z M20.8,8.2c0.4,1.3,0.7,2.6,1.1,3.9
		c0.6,2,1.1,4.1,1.7,5.8l-2-0.8L20,8.7C20.3,8.5,20.5,8.4,20.8,8.2z M30.7,56.4h-16c-0.3,0-0.5-0.3-0.6-0.5l2.3-33.2
		c0-0.6-0.4-1.2-1.1-1.3c-0.7-0.1-1.2,0.4-1.3,1.1L12,53l-4.7-1.4C6,51.3,6,50,6.1,49.6l3.7-33.8c0.3-2.8,1.4-3.3,1.4-3.3l6.7-2.7
		l1.6,8.4c0.1,0.4,0.3,0.7,0.7,0.9l1.4,0.6l-1.2,1.2c-0.4,0.4-0.5,1.2,0,1.6l9.3,10c0,0.1,0.1,0.2,0.1,0.4c-0.4-0.3-0.9-0.5-1.5-0.5
		c-1.3,0-2.4,1.1-2.4,2.4c0,1.3,1.1,2.4,2.4,2.4c0.9,0,1.7-0.5,2.1-1.3C31.2,40.2,32.1,47.8,30.7,56.4z M28.3,34.7L28.3,34.7
		L28.3,34.7C28.3,34.7,28.3,34.7,28.3,34.7z M52.6,51.6L47.9,53L46,22.6c0-0.6-0.6-1.2-1.2-1.1c-0.6,0-1.1,0.6-1.1,1.2l2.1,33.1
		c0,0.3-0.3,0.5-0.5,0.5H33.1c2.1-13.5-1.2-24.4-1.3-24.9c0,0,0-0.1,0-0.1c0,0,0-0.1,0-0.1c0,0,0-0.1-0.1-0.2l8.6-8.7
		c0.2-0.2,0.3-0.5,0.3-0.8c0-0.3-0.1-0.6-0.3-0.8l-1.2-1.2l1.4-0.6c0.4-0.1,0.6-0.5,0.7-0.9l1.5-8.2l6.1,2.5c0,0,1.1,0.5,1.4,3.3
		l3.7,33.9C54,49.8,54.1,51.3,52.6,51.6z"/>
	<path d="M28.2,38.3c-1.3,0-2.4,1.1-2.4,2.4s1.1,2.4,2.4,2.4c1.3,0,2.4-1.1,2.4-2.4S29.6,38.3,28.2,38.3z M28.2,40.8v-0.2
		C28.3,40.7,28.3,40.7,28.2,40.8L28.2,40.8z"/>
	<path d="M28.2,44.3c-1.3,0-2.4,1.1-2.4,2.4s1.1,2.4,2.4,2.4c1.3,0,2.4-1.1,2.4-2.4S29.6,44.3,28.2,44.3z M28.2,46.8v-0.2
		C28.3,46.6,28.3,46.7,28.2,46.8L28.2,46.8z"/>
</g>
</svg>
