<?xml version="1.0" encoding="utf-8"?>
<!-- Generator: Adobe Illustrator 19.2.1, SVG Export Plug-In . SVG Version: 6.00 Build 0)  -->
<svg version="1.1" id="Layer_1" xmlns="http://www.w3.org/2000/svg" xmlns:xlink="http://www.w3.org/1999/xlink" x="0px" y="0px"
	 viewBox="0 0 20 20" enable-background="new 0 0 20 20" xml:space="preserve">
<g>
	<path fill="none" d="M17.1,0.8H2.9c-1.1,0-2,0.9-2,2v14.2c0,1.1,0.9,2,2,2h14.2c1.1,0,2-0.9,2-2V2.9C19.2,1.7,18.3,0.8,17.1,0.8z
		 M16.1,15.7l-0.4,0.4L10,10.4l-5.7,5.7l-0.4-0.4L9.6,10L3.9,4.3l0.4-0.4L10,9.6l5.7-5.7l0.4,0.4L10.4,10L16.1,15.7z"/>
	<polygon fill="#D3473C" points="15.7,3.9 10,9.6 4.3,3.9 3.9,4.3 9.6,10 3.9,15.7 4.3,16.1 10,10.4 15.7,16.1 16.1,15.7 10.4,10 
		16.1,4.3 	"/>
	<path fill="#D3473C" d="M17.1,0.2H2.9c-1.4,0-2.6,1.2-2.6,2.6v14.2c0,1.4,1.2,2.6,2.6,2.6h14.2c1.4,0,2.6-1.2,2.6-2.6V2.9
		C19.8,1.4,18.6,0.2,17.1,0.2z M19.2,17.1c0,1.1-0.9,2-2,2H2.9c-1.1,0-2-0.9-2-2V2.9c0-1.1,0.9-2,2-2h14.2c1.1,0,2,0.9,2,2V17.1z"/>
</g>
</svg>
