<?xml version="1.0" encoding="utf-8"?>
<!-- Generator: Adobe Illustrator 19.2.1, SVG Export Plug-In . SVG Version: 6.00 Build 0)  -->
<svg version="1.1" id="Layer_1" xmlns="http://www.w3.org/2000/svg" xmlns:xlink="http://www.w3.org/1999/xlink" x="0px" y="0px"
	 viewBox="0 0 60 60" enable-background="new 0 0 60 60" xml:space="preserve">
<g>
	<path fill="none" d="M40,17c-2.8,0.7-4.1,3-4.7,4.5c2.4,0.3,3.5,0.1,3.5,0.1c5-0.3,7.2-2.3,8.1-3.6l-2.3-0.8
		C43.1,16.5,40.8,16.9,40,17z"/>
	<path fill="none" d="M20.1,17c-0.8-0.2-3-0.5-4.5,0.2l-2.4,0.9c0.9,1.3,3,3.3,8,3.6c0.1,0,1.2,0.1,3.6-0.1
		C24.2,20,22.9,17.7,20.1,17z"/>
	<path fill="none" d="M49.9,10c-2.3-1.1-5-2.4-10.4-2c-0.1,0-2.7,0-5.4,1.2c-0.1,0-0.2,0.1-0.4,0.2c-0.1,0-0.2,0.1-0.2,0.1
		c-1.2,0.6-2.4,0.9-3.5,0.8c-1.1,0.1-2.2-0.1-3.4-0.8c-0.1,0-0.2-0.1-0.3-0.1l-0.3-0.1C23.2,7.9,20.7,8,20.6,8
		c-5.6-0.4-8.2,0.9-10.6,2c-0.7,0.4-1.4,0.7-2.2,1c-1.4,0.5-2.5,0.6-3.4,0.5c0.1,3.6,1,11.7,5.7,16.3c2.4,2.4,5.7,3.6,9.6,3.5
		c0.1,0,2.6-0.1,5-2.3c0,0,0.1-0.1,0.1-0.1c0.1-0.1,2.3-1.6,5-1.6c0,0,0,0,0,0c0,0,0,0,0.1,0c0,0,0,0,0.1,0c0,0,0,0,0,0
		c3-0.1,5,1.5,5.1,1.6c2.5,2.3,5,2.4,5.1,2.4c4,0.1,7.2-1,9.7-3.5c2-2,3.3-4.7,4.2-7.4v-9c-0.6-0.1-1.2-0.2-1.9-0.5
		C51.4,10.7,50.7,10.4,49.9,10z M26.7,24.1c-2.2,0.3-3.7,0.4-4.7,0.4c-0.7,0-1.1,0-1.2-0.1c-9.3-0.6-10.9-6.6-10.9-6.8l-0.3-1.2
		l4.9-1.7c2.5-1.1,5.8-0.4,6.2-0.3c6.1,1.5,7.1,7.9,7.1,8.1l0.2,1.4L26.7,24.1z M50.2,17.6c-0.1,0.3-1.7,6.3-11,6.8c0,0-0.4,0-1.1,0
		c-0.9,0-2.5-0.1-4.7-0.4L32,23.9l0.2-1.4c0-0.3,1.1-6.6,7.1-8.1c0.4-0.1,3.7-0.9,6.3,0.3l4.8,1.7L50.2,17.6z"/>
	<path d="M58.3,9.6c0-0.5-0.3-0.9-0.7-1.1c-0.4-0.2-1-0.2-1.4,0c0,0-1,0.6-3.1-0.2c-0.6-0.2-1.2-0.5-1.9-0.8
		c-2.4-1.2-5.7-2.7-11.7-2.3c-0.1,0-3.2-0.1-6.5,1.5l-0.2,0.1c-0.2,0.1-0.4,0.2-0.6,0.2c-0.8,0.4-1.5,0.6-2,0.5c-0.1,0-0.1,0-0.2,0
		c-0.1,0-0.1,0-0.2,0c-0.4,0.1-0.9,0.1-2-0.5c-0.1-0.1-0.3-0.1-0.5-0.2l-0.2-0.1c-3.3-1.6-6.4-1.5-6.4-1.5
		c-6.2-0.4-9.4,1.2-11.8,2.3C8.2,7.9,7.6,8.2,7,8.4C4.9,9.1,3.9,8.6,3.9,8.6c0,0,0,0,0,0C3.5,8.3,3,8.2,2.5,8.4
		C2,8.7,1.7,9.1,1.7,9.6c0,0.5-0.4,13.2,6.5,20.1c2.8,2.9,6.5,4.3,10.9,4.3c0.2,0,0.5,0,0.7,0c0.2,0,3.5,0,6.8-3
		c0.3-0.2,1.7-1.1,3.3-1c0,0,0,0,0.1,0c0,0,0,0,0.1,0c2-0.1,3.3,0.9,3.3,0.9c3.3,3,6.7,3.1,6.8,3.1c0.3,0,0.5,0,0.7,0
		c4.4,0,8.1-1.4,10.9-4.3c0.9-0.9,1.6-1.8,2.2-2.8v27.9h2.9V20.3C58.4,15,58.3,10,58.3,9.6z M54,20.4c-0.8,2.7-2.2,5.4-4.2,7.4
		c-2.4,2.4-5.7,3.6-9.7,3.5c0,0-2.6-0.1-5.1-2.4C35,28.8,33,27.2,30,27.3c0,0,0,0,0,0c0,0,0,0-0.1,0c0,0,0,0-0.1,0c0,0,0,0,0,0
		c-2.7-0.1-4.9,1.5-5,1.6c0,0-0.1,0.1-0.1,0.1c-2.4,2.3-4.9,2.3-5,2.3c-3.9,0.1-7.1-1-9.6-3.5c-4.6-4.6-5.5-12.8-5.7-16.3
		c0.9,0.1,2,0,3.4-0.5c0.7-0.3,1.4-0.6,2.2-1c2.4-1.1,5-2.4,10.6-2c0,0,2.5,0,5.3,1.2l0.3,0.1c0.1,0,0.2,0.1,0.3,0.1
		c1.3,0.6,2.4,0.9,3.4,0.8c1.1,0.1,2.2-0.1,3.5-0.8c0.1,0,0.2-0.1,0.2-0.1c0.2-0.1,0.3-0.1,0.4-0.2C36.8,7.9,39.3,8,39.5,8
		c5.4-0.4,8.1,0.9,10.4,2c0.7,0.4,1.5,0.7,2.2,1c0.7,0.2,1.3,0.4,1.9,0.5V20.4z"/>
	<path d="M20.7,14.4c-0.4-0.1-3.7-0.9-6.2,0.3l-4.9,1.7l0.3,1.2c0.1,0.3,1.7,6.3,10.9,6.8c0.1,0,0.5,0.1,1.2,0.1
		c0.9,0,2.5-0.1,4.7-0.4l1.4-0.2l-0.2-1.4C27.8,22.2,26.8,15.9,20.7,14.4z M21.1,21.7c-4.9-0.3-7.1-2.3-8-3.6l2.4-0.9
		c1.4-0.7,3.7-0.3,4.5-0.2c2.8,0.7,4.1,3,4.7,4.5C22.3,21.8,21.2,21.7,21.1,21.7z"/>
	<path d="M39.4,14.4c-6.1,1.5-7.1,7.9-7.1,8.1L32,23.9l1.4,0.2c2.2,0.3,3.8,0.4,4.7,0.4c0.7,0,1,0,1.1,0c9.4-0.6,11-6.6,11-6.8
		l0.3-1.2l-4.8-1.7C43.1,13.5,39.7,14.3,39.4,14.4z M38.9,21.7c0,0-1.1,0.1-3.5-0.1c0.6-1.5,1.8-3.8,4.7-4.5c0.8-0.2,3-0.5,4.6,0.2
		l2.3,0.8C46.1,19.4,43.9,21.4,38.9,21.7z"/>
</g>
</svg>
