<?xml version="1.0" encoding="utf-8"?>
<!-- Generator: Adobe Illustrator 19.2.1, SVG Export Plug-In . SVG Version: 6.00 Build 0)  -->
<svg version="1.1" id="Layer_1" xmlns="http://www.w3.org/2000/svg" xmlns:xlink="http://www.w3.org/1999/xlink" x="0px" y="0px"
	 viewBox="0 0 60 60" enable-background="new 0 0 60 60" xml:space="preserve">
<path d="M43.8,8.1c-0.2-0.4-0.6-0.7-1-0.7H16.6c-0.4,0-0.8,0.3-1,0.7L0.8,45.5c-0.2,0.4-0.1,0.8,0.2,1.1c5,5.7,11,4.4,12.7,3.9
	c9,3.6,14.6,1.2,16.4,0.2c3,1.4,5.8,1.9,8.3,1.9c4.1,0,7.1-1.3,8.1-1.8c8.8,1.9,12.6-4.3,12.6-4.4c0.2-0.3,0.2-0.7,0.1-1L43.8,8.1z
	 M46.6,48.6c-0.3-0.1-0.5,0-0.8,0.1c-0.3,0.2-7.2,4-15.3-0.2c-0.2-0.1-0.3-0.1-0.5-0.1c-0.2,0-0.5,0.1-0.6,0.2
	c-0.2,0.2-5.5,3.8-15.2-0.2c-0.3-0.1-0.6-0.1-0.8,0c-0.1,0-5.5,2.2-10.2-2.7L17.4,9.6H42L57,45.7C56,46.9,52.8,50.1,46.6,48.6z"/>
</svg>
