<?xml version="1.0" encoding="utf-8"?>
<!-- Generator: Adobe Illustrator 19.2.1, SVG Export Plug-In . SVG Version: 6.00 Build 0)  -->
<svg version="1.1" id="Layer_1" xmlns="http://www.w3.org/2000/svg" xmlns:xlink="http://www.w3.org/1999/xlink" x="0px" y="0px"
	 viewBox="0 0 60 60" enable-background="new 0 0 60 60" xml:space="preserve">
<path d="M56.9,38.4c-2.2-1.6-6.2-2.9-11.9-3.9c-0.5-0.1-1,0.1-1.3,0.4c0,0-1.7,1.7-4.3,1.5c-2-0.1-4.1-1.3-6-3.5
	C15.9,6,9.6,4,8.5,3.8C8,3.8,7.5,4,7.1,4.4c-0.3,0.3-6.5,7.8-6.4,15.3c0,0.3,0.1,0.6,0.3,0.9c0,0.1,4.6,7,5.8,34.2
	c0,0.8,0.7,1.5,1.5,1.5h0.6c0.9,0,1.6-0.7,1.6-1.6l0-26.1c0,0,0-0.1,0-0.1c0,0,0.1,0,0.1,0c0.1,0,0.2-0.1,0.3-0.1
	c0.5,0,1.6,0.3,3.7,1.8c2.2,1.5,6,8,9,13.2c4.7,8,6.6,11.1,8.4,11.5c0.5,0.2,13,3.9,24.6-5.3c0,0,0.1-0.1,0.1-0.1
	c0.5-0.5,1.9-1.9,2.3-4.3c0.3-1.5,0.4-2.8-0.3-4.3C58.3,40,57.8,39.1,56.9,38.4z M7.3,28.4v2.2c-1-4.9-2-7.9-2.7-9.7
	c0.7,0.3,1.3,0.6,2,1.2c1.4,1.1,1.9,2.6,2.2,3.7C7.8,26.4,7.4,27.5,7.3,28.4z M56,44.4c-0.2,1.3-1,2.2-1.4,2.6
	c-10.3,8.1-21.6,4.8-21.7,4.7c-1.1-0.6-4.3-6.1-6.7-10.1c-3.5-6-7.1-12.2-9.9-14.1c-2-1.4-3.6-2.1-5-2.3c-0.3-1.5-1-3.6-3.1-5.2
	c-1.5-1.2-3-1.8-4.3-2.1c0.6-4.5,3.6-8.9,4.9-10.7c3.9,2,13.9,15.1,21.9,27.5c0,0.1,0.1,0.1,0.1,0.2c2.6,3,5.4,4.5,8.3,4.6
	c2.8,0.1,4.8-1.1,5.9-1.8c6.1,1.1,8.8,2.4,10,3.2c0.3,0.2,0.6,0.7,0.9,1.2C56.2,42.6,56.2,43.1,56,44.4z"/>
</svg>
