<?xml version="1.0" encoding="utf-8"?>
<!-- Generator: Adobe Illustrator 19.2.1, SVG Export Plug-In . SVG Version: 6.00 Build 0)  -->
<svg version="1.1" id="Layer_1" xmlns="http://www.w3.org/2000/svg" xmlns:xlink="http://www.w3.org/1999/xlink" x="0px" y="0px"
	 viewBox="0 0 20 20" enable-background="new 0 0 20 20" xml:space="preserve">
<g>
	<path fill="none" d="M17.1,0.8H2.9c-1.1,0-2,0.9-2,2v14.2c0,1.1,0.9,2,2,2h14.2c1.1,0,2-0.9,2-2V2.9C19.2,1.7,18.3,0.8,17.1,0.8z
		 M17.3,7.9l-1.6,2.2c-0.1,0.1-0.1,0.1-0.2,0.1c0,0,0,0-0.1,0c0,0-0.1,0.1-0.1,0.1c-0.1,0-0.2,0-0.3,0l-2.3-1.7
		c-0.1-0.1-0.2-0.3-0.1-0.4C12.8,8,13,8,13.1,8.1l1.8,1.3c-0.3-2.9-2.7-5.1-5.7-5.1C6,4.3,3.5,6.8,3.5,10s2.6,5.7,5.7,5.7
		c0.2,0,0.3,0.1,0.3,0.3s-0.1,0.3-0.3,0.3c-3.5,0-6.3-2.8-6.3-6.3c0-3.5,2.8-6.3,6.3-6.3c3.3,0,6,2.5,6.3,5.8l1.4-1.9
		c0.1-0.1,0.3-0.2,0.4-0.1C17.4,7.6,17.4,7.8,17.3,7.9z"/>
	<path fill="#868686" d="M17.1,0.2H2.9c-1.4,0-2.6,1.2-2.6,2.6v14.2c0,1.4,1.2,2.6,2.6,2.6h14.2c1.4,0,2.6-1.2,2.6-2.6V2.9
		C19.8,1.4,18.6,0.2,17.1,0.2z M19.2,17.1c0,1.1-0.9,2-2,2H2.9c-1.1,0-2-0.9-2-2V2.9c0-1.1,0.9-2,2-2h14.2c1.1,0,2,0.9,2,2V17.1z"/>
	<path fill="#868686" d="M16.9,7.6l-1.4,1.9c-0.3-3.2-3-5.8-6.3-5.8c-3.5,0-6.3,2.8-6.3,6.3c0,3.5,2.8,6.3,6.3,6.3
		c0.2,0,0.3-0.1,0.3-0.3s-0.1-0.3-0.3-0.3c-3.2,0-5.7-2.6-5.7-5.7S6,4.3,9.2,4.3c2.9,0,5.4,2.2,5.7,5.1l-1.8-1.3
		C13,8,12.8,8,12.7,8.1c-0.1,0.1-0.1,0.3,0.1,0.4l2.3,1.7c0.1,0.1,0.2,0.1,0.3,0c0,0,0.1-0.1,0.1-0.1c0,0,0,0,0.1,0
		c0.1,0,0.2,0,0.2-0.1l1.6-2.2c0.1-0.1,0.1-0.3-0.1-0.4C17.2,7.4,17,7.4,16.9,7.6z"/>
</g>
</svg>
