<?xml version="1.0" encoding="utf-8"?>
<!-- Generator: Adobe Illustrator 19.2.1, SVG Export Plug-In . SVG Version: 6.00 Build 0)  -->
<svg version="1.1" id="Layer_1" xmlns="http://www.w3.org/2000/svg" xmlns:xlink="http://www.w3.org/1999/xlink" x="0px" y="0px"
	 viewBox="0 0 60 60" enable-background="new 0 0 60 60" xml:space="preserve">
<path d="M40.7,9.4c1.4-3-2.2-7.4-3-8.2c-0.3-0.3-0.7-0.5-1.1-0.4c-0.4,0-0.8,0.3-1,0.6c0,0-2.5,4.2-5.7,4.3c-1.9,0-3.9-1.4-5.8-4.4
	c-0.2-0.3-0.6-0.6-1-0.6c-0.4,0-0.8,0.1-1.1,0.4c-0.7,0.8-4.2,5.1-2.8,8.1c0.9,1.9,3.4,6.4,4.3,8.1C20.6,22.5,6.4,47.5,8.2,54
	c0.1,0.4,0.4,0.7,0.8,0.9c0.5,0.2,12.1,4.4,20.9,4.4h0.2c8.8,0,20.4-4.2,20.9-4.4c0.4-0.1,0.7-0.5,0.8-0.9
	c1.8-6.5-12.4-31.3-15.3-36.4C37.4,16,39.8,11.4,40.7,9.4z M21.6,8.2c-0.4-0.8,0.4-2.5,1.4-4c2.2,2.8,4.5,4.1,7,4.1
	c3.1-0.1,5.5-2.4,6.8-4c1.1,1.5,1.9,3.3,1.6,4.1c-0.9,1.9-3.4,6.5-4.3,8.2l-8.1,0.1C25.6,15.7,22.6,10.3,21.6,8.2z M49.4,52.7
	c-2.6,0.9-12.2,4-19.3,4h-0.2c-7.2,0-16.7-3.1-19.3-4c-0.3-5.4,9.1-23.7,15.5-34.6l7.6-0.2c0,0.1,0.1,0.3,0.1,0.4
	C40.2,29.1,49.7,47.4,49.4,52.7z"/>
</svg>
