<?xml version="1.0" encoding="UTF-8" standalone="no"?>
<svg width="40px" height="40px" viewBox="0 0 40 40" version="1.1" xmlns="http://www.w3.org/2000/svg" xmlns:xlink="http://www.w3.org/1999/xlink">
    <!-- Generator: Sketch 39 (31667) - http://www.bohemiancoding.com/sketch -->
    <title>Page 1 Copy 2</title>
    <desc>Created with Sketch.</desc>
    <defs></defs>
    <g id="-" stroke="none" stroke-width="1" fill="none" fill-rule="evenodd">
        <g id="my-setting-profile" transform="translate(-314.000000, -553.000000)">
            <g id="Group-4" transform="translate(305.000000, 510.000000)">
                <g id="Page-1-Copy-2" transform="translate(10.000000, 44.000000)">
                    <polygon id="Fill-1" fill="#FEFEFE" points="0.0769230769 37.9230769 37.9230769 37.9230769 37.9230769 0.0769230769 0.0769230769 0.0769230769"></polygon>
                    <g id="Group-9">
                        <polygon id="Stroke-2" stroke="#010202" points="0.0769230769 37.9230769 37.9230769 37.9230769 37.9230769 0.0769230769 0.0769230769 0.0769230769"></polygon>
                        <path d="M33.1794615,28.0640769 C33.1794615,28.6154615 32.7308462,29.0640769 32.1794615,29.0640769 L5.82053846,29.0640769 C5.26915385,29.0640769 4.82053846,28.6154615 4.82053846,28.0640769 L4.82053846,12.6282308 C4.82053846,12.0768462 5.26915385,11.6282308 5.82053846,11.6282308 L7.51284615,11.6282308 L12.2436154,11.6282308 L20.6234615,11.6282308 L22.1234615,8.93592308 L27.435,8.93592308 L28.8580769,11.6282308 L32.1794615,11.6282308 C32.7308462,11.6282308 33.1794615,12.0768462 33.1794615,12.6282308 L33.1794615,28.0640769 Z M8.28207692,10.859 L11.4743846,10.859 L11.4743846,9.74361538 L8.28207692,9.74361538 L8.28207692,10.859 Z M32.1794615,10.859 L29.3214615,10.859 L27.8983846,8.16669231 L21.6714615,8.16669231 L20.1714615,10.859 L12.2436154,10.859 L12.2436154,8.97438462 L7.51284615,8.97438462 L7.51284615,10.859 L5.82053846,10.859 C4.845,10.859 4.05130769,11.6526923 4.05130769,12.6282308 L4.05130769,28.0640769 C4.05130769,29.0396154 4.845,29.8333077 5.82053846,29.8333077 L32.1794615,29.8333077 C33.155,29.8333077 33.9486923,29.0396154 33.9486923,28.0640769 L33.9486923,12.6282308 C33.9486923,11.6526923 33.155,10.859 32.1794615,10.859 L32.1794615,10.859 Z" id="Fill-4" fill="#010202"></path>
                        <polygon id="Fill-5" fill="#010202" points="11.4743077 27.282 12.2435385 27.282 12.2435385 13.532 11.4743077 13.532"></polygon>
                        <path d="M24.6636923,26.7431692 C21.2870769,26.7431692 18.5398462,23.9960923 18.5398462,20.6191692 C18.5398462,17.2425538 21.2870769,14.4954769 24.6636923,14.4954769 C28.0404615,14.4954769 30.7876923,17.2425538 30.7876923,20.6191692 C30.7876923,23.9960923 28.0404615,26.7431692 24.6636923,26.7431692 M24.6636923,13.7262462 C20.8629231,13.7262462 17.7706154,16.8184 17.7706154,20.6191692 C17.7706154,24.4200923 20.8629231,27.5124 24.6636923,27.5124 C28.4646154,27.5124 31.5569231,24.4200923 31.5569231,20.6191692 C31.5569231,16.8184 28.4646154,13.7262462 24.6636923,13.7262462" id="Fill-6" fill="#010202"></path>
                        <path d="M24.6636923,24.7192769 C22.4030769,24.7192769 20.5638462,22.8800462 20.5638462,20.6192769 C20.5638462,18.3585077 22.4030769,16.5192769 24.6636923,16.5192769 C26.9244615,16.5192769 28.7636923,18.3585077 28.7636923,20.6192769 C28.7636923,22.8800462 26.9244615,24.7192769 24.6636923,24.7192769 M24.6636923,15.7500462 C21.9789231,15.7500462 19.7946154,17.9343538 19.7946154,20.6192769 C19.7946154,23.3042 21.9789231,25.4885077 24.6636923,25.4885077 C27.3486154,25.4885077 29.5329231,23.3042 29.5329231,20.6192769 C29.5329231,17.9343538 27.3486154,15.7500462 24.6636923,15.7500462" id="Fill-7" fill="#010202"></path>
                        <path d="M18.6701538,13.6977231 C19.0907692,13.6977231 19.4316923,13.3568 19.4316923,12.9361846 C19.4316923,12.5157231 19.0907692,12.1748 18.6701538,12.1748 C18.2495385,12.1748 17.9086154,12.5157231 17.9086154,12.9361846 C17.9086154,13.3568 18.2495385,13.6977231 18.6701538,13.6977231" id="Fill-8" fill="#010202"></path>
                    </g>
                </g>
            </g>
        </g>
    </g>
</svg>