<?xml version="1.0" encoding="utf-8"?>
<!-- Generator: Adobe Illustrator 19.2.1, SVG Export Plug-In . SVG Version: 6.00 Build 0)  -->
<svg version="1.1" id="Layer_1" xmlns="http://www.w3.org/2000/svg" xmlns:xlink="http://www.w3.org/1999/xlink" x="0px" y="0px"
	 viewBox="0 0 35.7 34" enable-background="new 0 0 35.7 34" xml:space="preserve">
<g>
	<path fill="none" d="M18.2,17.4c-0.1,0.1-0.2,0.1-0.3,0.1s-0.2,0-0.3-0.1L1.5,4.7C1.5,4.9,1.4,5,1.4,5.2v23.7
		c0,0.7,0.6,1.3,1.3,1.3H33c0.7,0,1.3-0.6,1.3-1.3V5.2c0-0.2,0-0.3-0.1-0.5L18.2,17.4z"/>
	<path fill="none" d="M33.4,4c-0.1,0-0.3-0.1-0.4-0.1H2.7c-0.1,0-0.3,0-0.4,0.1l15.5,12.3L33.4,4z"/>
	<path fill="#444445" d="M34.7,3.6C34.7,3.6,34.7,3.6,34.7,3.6C34.7,3.6,34.7,3.6,34.7,3.6c-0.5-0.5-1.1-0.8-1.8-0.8H2.7
		C2,2.8,1.4,3.1,1,3.6c0,0,0,0,0,0c0,0,0,0,0,0C0.6,4,0.4,4.6,0.4,5.2v23.7c0,1.3,1.1,2.4,2.4,2.4H33c1.3,0,2.4-1.1,2.4-2.4V5.2
		C35.4,4.6,35.1,4,34.7,3.6z M2.7,3.9H33c0.1,0,0.3,0,0.4,0.1L17.9,16.3L2.3,4C2.5,3.9,2.6,3.9,2.7,3.9z M34.3,28.8
		c0,0.7-0.6,1.3-1.3,1.3H2.7c-0.7,0-1.3-0.6-1.3-1.3V5.2c0-0.2,0-0.3,0.1-0.5l16,12.7c0.1,0.1,0.2,0.1,0.3,0.1s0.2,0,0.3-0.1
		l16-12.7c0.1,0.1,0.1,0.3,0.1,0.5V28.8z"/>
</g>
</svg>
