<?xml version="1.0" encoding="utf-8"?>
<!-- Generator: Adobe Illustrator 19.2.1, SVG Export Plug-In . SVG Version: 6.00 Build 0)  -->
<svg version="1.1" id="Layer_1" xmlns="http://www.w3.org/2000/svg" xmlns:xlink="http://www.w3.org/1999/xlink" x="0px" y="0px"
	 viewBox="0 0 39 34" enable-background="new 0 0 39 34" xml:space="preserve">
<path d="M31.6,1.4c-3.8-1.3-7.8-0.6-10.8,2c-0.4,0.4-0.8,0.7-1.2,1.1l-0.1,0.1c-0.2-0.2-0.4-0.4-0.5-0.6c-1.9-1.9-4.2-3-6.7-3.2
	c-4-0.4-7.3,1-9.8,4.1c-3.5,4.4-3.2,10.6,0.8,14.7c3.9,4,7.8,7.9,11.7,11.8c1.2,1.2,2.8,1.8,4.4,1.8c1.6,0,3.2-0.6,4.4-1.8l0.8-0.7
	c3.7-3.6,7.5-7.4,11.2-11.1c2.7-2.8,3.8-6.1,3-9.9C38.1,5.8,35.4,2.7,31.6,1.4z M34.9,18.8c-3.7,3.7-7.5,7.5-11.2,11.1L23,30.6
	c-2,2-5.2,1.9-7.2,0C11.9,26.7,8,22.7,4.1,18.8C0.5,15.1,0.2,9.6,3.4,5.6c2-2.5,4.5-3.7,7.6-3.7c0.4,0,0.7,0,1.1,0.1
	c2.3,0.2,4.3,1.2,6,2.9c0.2,0.2,0.4,0.4,0.6,0.6l0.7,0.8l1-0.9c0.4-0.4,0.8-0.7,1.2-1.1c2.7-2.3,6.3-2.9,9.7-1.7
	c3.3,1.2,5.7,4,6.4,7.4C38.3,13.3,37.3,16.3,34.9,18.8z"/>
</svg>
