<?xml version="1.0" encoding="utf-8"?>
<!-- Generator: Adobe Illustrator 19.2.1, SVG Export Plug-In . SVG Version: 6.00 Build 0)  -->
<svg version="1.1" id="Layer_1" xmlns="http://www.w3.org/2000/svg" xmlns:xlink="http://www.w3.org/1999/xlink" x="0px" y="0px"
	 viewBox="0 0 15 15" enable-background="new 0 0 15 15" xml:space="preserve">
<g>
	<path fill="none" d="M7.3,5.2c-0.1,0-0.1,0-0.2-0.1C7.1,5.1,7,5.1,7,5V0.9L0.7,7.3L7,13.8l0-4.1c0-0.1,0.1-0.2,0.2-0.2
		c4.8,0,6.4,2.3,7,3.7c0.3-2.5-0.2-4.4-1.4-5.8C10.8,5.1,7.3,5.2,7.3,5.2z"/>
	<path d="M13.2,7.1C11.3,5,8.3,4.8,7.5,4.8V0.9c0-0.2-0.1-0.4-0.3-0.4c-0.1-0.1-0.3,0-0.4,0.1L0.4,7c-0.2,0.2-0.2,0.5,0,0.6l6.4,6.5
		c0.1,0.1,0.3,0.2,0.4,0.1c0.2-0.1,0.3-0.2,0.3-0.4V9.9c6.4,0.1,6.6,4.3,6.6,4.5c0,0.1,0.1,0.2,0.2,0.2c0,0,0,0,0,0
		c0.1,0,0.2-0.1,0.2-0.2C15.1,11.2,14.6,8.8,13.2,7.1z M14.2,13.2c-0.5-1.4-2.1-3.7-7-3.7C7.1,9.5,7,9.6,7,9.7l0,4.1L0.7,7.3L7,0.9
		V5c0,0.1,0,0.1,0.1,0.2c0,0,0.1,0.1,0.2,0.1c0,0,3.5-0.1,5.6,2.2C14,8.8,14.5,10.7,14.2,13.2z"/>
</g>
</svg>
