<?xml version="1.0" encoding="utf-8"?>
<!-- Generator: Adobe Illustrator 19.2.1, SVG Export Plug-In . SVG Version: 6.00 Build 0)  -->
<svg version="1.1" id="Layer_1" xmlns="http://www.w3.org/2000/svg" xmlns:xlink="http://www.w3.org/1999/xlink" x="0px" y="0px"
	 viewBox="0 0 35.3 34" enable-background="new 0 0 35.3 34" xml:space="preserve">
<g>
	<path fill="none" d="M34,13.6c0.1-0.1,0.1-0.3,0.1-0.4c0-0.1-0.1-0.2-0.3-0.2l-10.3-1.5c-0.4-0.1-0.8-0.3-1-0.7L18,1.5
		c-0.1-0.2-0.3-0.2-0.3-0.2c-0.1,0-0.2,0-0.3,0.2l-4.6,9.3c-0.2,0.4-0.6,0.7-1,0.7L1.5,13c-0.2,0-0.3,0.2-0.3,0.2
		c0,0.1-0.1,0.2,0.1,0.4l7.4,7.2c0.3,0.3,0.5,0.8,0.4,1.2L7.3,32.3c0,0.2,0.1,0.3,0.1,0.4c0.1,0,0.2,0.1,0.4,0l9.2-4.8
		c0.4-0.2,0.9-0.2,1.3,0l9.2,4.8c0.2,0.1,0.3,0,0.4,0c0.1,0,0.2-0.2,0.1-0.4l-1.8-10.2c-0.1-0.4,0.1-0.9,0.4-1.2L34,13.6z"/>
	<path fill="#444445" d="M34.7,14.3c0.4-0.4,0.5-0.9,0.3-1.4c-0.2-0.5-0.6-0.8-1.1-0.9l-10.3-1.5c-0.1,0-0.2-0.1-0.3-0.2L18.9,1
		c-0.2-0.5-0.7-0.8-1.2-0.8c-0.5,0-1,0.3-1.2,0.8l-4.6,9.3c-0.1,0.1-0.2,0.2-0.3,0.2L1.3,12c-0.5,0.1-0.9,0.4-1.1,0.9
		c-0.2,0.5,0,1,0.3,1.4L8,21.6c0.1,0.1,0.1,0.2,0.1,0.3L6.3,32.1c-0.1,0.5,0.1,1,0.5,1.3c0.2,0.2,0.5,0.3,0.8,0.3
		c0.2,0,0.4-0.1,0.6-0.2l9.2-4.8c0.1-0.1,0.2-0.1,0.3,0l9.2,4.8c0.5,0.2,1,0.2,1.4-0.1c0.4-0.3,0.6-0.8,0.5-1.3l-1.8-10.2
		c0-0.1,0-0.2,0.1-0.3L34.7,14.3z M26.2,22.1L28,32.3c0,0.2-0.1,0.3-0.1,0.4c-0.1,0-0.2,0.1-0.4,0l-9.2-4.8c-0.4-0.2-0.9-0.2-1.3,0
		l-9.2,4.8c-0.2,0.1-0.3,0-0.4,0c-0.1,0-0.2-0.2-0.1-0.4l1.8-10.2c0.1-0.4-0.1-0.9-0.4-1.2l-7.4-7.2c-0.1-0.1-0.1-0.3-0.1-0.4
		c0-0.1,0.1-0.2,0.3-0.2l10.3-1.5c0.4-0.1,0.8-0.3,1-0.7l4.6-9.3c0.1-0.2,0.3-0.2,0.3-0.2c0.1,0,0.2,0,0.3,0.2l4.6,9.3
		c0.2,0.4,0.6,0.7,1,0.7L33.8,13c0.2,0,0.3,0.2,0.3,0.2c0,0.1,0.1,0.2-0.1,0.4l-7.4,7.2C26.3,21.2,26.2,21.6,26.2,22.1z"/>
</g>
</svg>
