<?xml version="1.0" encoding="utf-8"?>
<!-- Generator: Adobe Illustrator 19.2.1, SVG Export Plug-In . SVG Version: 6.00 Build 0)  -->
<svg version="1.1" id="Layer_1" xmlns="http://www.w3.org/2000/svg" xmlns:xlink="http://www.w3.org/1999/xlink" x="0px" y="0px"
	 viewBox="0 0 18 18" enable-background="new 0 0 18 18" xml:space="preserve">
<g>
	<circle fill="none" cx="7.8" cy="7.9" r="5.9"/>
	<path fill="#FFFFFF" d="M17.7,16.3L14,12.6c1-1.3,1.6-2.9,1.6-4.7c0-4.3-3.5-7.8-7.8-7.8S0.1,3.6,0.1,7.9c0,4.3,3.5,7.8,7.8,7.8
		c1.8,0,3.5-0.6,4.8-1.7l3.6,3.6c0.3,0.3,0.8,0.3,1.1,0l0.3-0.3C18,17,18,16.6,17.7,16.3z M7.8,13.8C4.6,13.8,2,11.1,2,7.9
		s2.6-5.9,5.9-5.9s5.9,2.6,5.9,5.9S11.1,13.8,7.8,13.8z"/>
</g>
</svg>
