<?xml version="1.0" encoding="utf-8"?>
<!-- Generator: Adobe Illustrator 19.2.1, SVG Export Plug-In . SVG Version: 6.00 Build 0)  -->
<svg version="1.1" id="Layer_1" xmlns="http://www.w3.org/2000/svg" xmlns:xlink="http://www.w3.org/1999/xlink" x="0px" y="0px"
	 viewBox="0 0 34 34" enable-background="new 0 0 34 34" xml:space="preserve">
<g>
	<path fill="none" d="M17.7,6.9c-0.2-0.2-0.5-0.3-0.7-0.3c0,0,0,0-0.1,0c-0.4,0-0.7,0.2-0.9,0.5l-7.4,7.4c-0.4,0.4-0.4,1,0,1.4
		s1,0.4,1.4,0l5.9-5.9v16.3c0,0.6,0.4,1,1,1s1-0.4,1-1V9.9l6,6c0.2,0.2,0.5,0.3,0.7,0.3s0.5-0.1,0.7-0.3c0.4-0.4,0.4-1,0-1.4
		L17.7,6.9z"/>
	<path fill="#D4473C" d="M30.3,0.4H3.7c-1.8,0-3.3,1.5-3.3,3.3v26.7c0,1.8,1.5,3.3,3.3,3.3h26.7c1.8,0,3.3-1.5,3.3-3.3V3.7
		C33.6,1.9,32.1,0.4,30.3,0.4z M25.4,16c-0.2,0.2-0.5,0.3-0.7,0.3S24.2,16.2,24,16l-6-6v16.4c0,0.6-0.4,1-1,1s-1-0.4-1-1V10.1L10,16
		c-0.4,0.4-1,0.4-1.4,0s-0.4-1,0-1.4L16,7.2c0.2-0.3,0.5-0.5,0.9-0.5c0,0,0,0,0.1,0c0.3,0,0.5,0.1,0.7,0.3l7.7,7.7
		C25.8,15,25.8,15.6,25.4,16z"/>
</g>
</svg>
