<?xml version="1.0" encoding="utf-8"?>
<!-- Generator: Adobe Illustrator 19.2.1, SVG Export Plug-In . SVG Version: 6.00 Build 0)  -->
<svg version="1.1" id="Layer_1" xmlns="http://www.w3.org/2000/svg" xmlns:xlink="http://www.w3.org/1999/xlink" x="0px" y="0px"
	 viewBox="0 0 24 24" enable-background="new 0 0 24 24" xml:space="preserve">
<path fill="#FFFFFF" d="M21.4,17c0,0-2.1-1-2.1-6.5c0-2.6-0.7-4.5-2.2-5.9c-1.2-1.2-2.7-1.6-3.8-1.8c0.1-0.2,0.1-0.5,0.1-0.7
	c0-1-0.6-1.9-1.4-1.9c-0.8,0-1.4,0.8-1.4,1.9c0,0.3,0,0.5,0.1,0.7C9.6,3,8.2,3.4,6.9,4.5c-1.5,1.4-2.2,3.3-2.2,5.9
	C4.7,16,2.6,17,2.6,17h0c-0.6,0.2-1,0.8-0.9,1.5c0.1,0.6,0.7,1.1,1.3,1.1h4.5c0.1,2.3,2,4.2,4.3,4.2c2.4,0,4.3-1.9,4.3-4.2h4.7
	c0.7,0,1.2-0.5,1.4-1.1C22.4,17.8,22,17.2,21.4,17z"/>
</svg>
