<?xml version="1.0" encoding="utf-8"?>
<!-- Generator: Adobe Illustrator 19.2.1, SVG Export Plug-In . SVG Version: 6.00 Build 0)  -->
<svg version="1.1" id="Layer_1" xmlns="http://www.w3.org/2000/svg" xmlns:xlink="http://www.w3.org/1999/xlink" x="0px" y="0px"
	 viewBox="0 0 18 18" enable-background="new 0 0 18 18" xml:space="preserve">
<g>
	<circle fill="none" cx="7.8" cy="7.9" r="5.9"/>
	<path fill="#B9B9BA" d="M17.8,16.3l-3.7-3.7c1-1.3,1.6-2.9,1.6-4.7c0-4.3-3.5-7.8-7.8-7.8S0,3.6,0,7.9s3.5,7.8,7.8,7.8
		c1.8,0,3.5-0.6,4.9-1.7l3.7,3.7c0.3,0.3,0.8,0.3,1.1,0l0.3-0.3C18.1,17.1,18.1,16.6,17.8,16.3z M7.8,13.8c-3.3,0-5.9-2.6-5.9-5.9
		S4.6,2,7.8,2s5.9,2.6,5.9,5.9S11.1,13.8,7.8,13.8z"/>
</g>
</svg>
