<?xml version="1.0" encoding="utf-8"?>
<!-- Generator: Adobe Illustrator 19.2.1, SVG Export Plug-In . SVG Version: 6.00 Build 0)  -->
<svg version="1.1" id="Layer_1" xmlns="http://www.w3.org/2000/svg" xmlns:xlink="http://www.w3.org/1999/xlink" x="0px" y="0px"
	 viewBox="0 0 24 24" enable-background="new 0 0 24 24" xml:space="preserve">
<g>
	<path fill="#FFFFFF" d="M22.6,19.2h-1.1v-1.1c0-0.6-0.5-1.1-1.1-1.1c-0.6,0-1.1,0.5-1.1,1.1v1.1h-1.1c-0.6,0-1.1,0.5-1.1,1.1
		s0.5,1.1,1.1,1.1h1.1v1.1c0,0.6,0.5,1.1,1.1,1.1c0.6,0,1.1-0.5,1.1-1.1v-1.1h1.1c0.6,0,1.1-0.5,1.1-1.1S23.3,19.2,22.6,19.2z"/>
	<path fill="#FFFFFF" d="M15.9,20.4c0-1.3,1-2.3,2.2-2.3c0-0.7,0.4-1.4,0.9-1.8c-0.3-0.1-0.7-0.2-1.4-0.5c-2.3-1-2.9-1.3-2.9-1.3
		l0-2.2c0,0,0.9-0.7,1.1-2.8c0.5,0.2,0.7-0.6,0.8-1.2c0-0.5,0.3-2.1-0.3-1.9c0.1-1,0.2-2,0.2-2.5c-0.2-1.7-1.3-3.6-4.3-3.7
		C9.7,0.3,8,2.1,7.9,3.9c0,0.5,0,1.4,0.2,2.5C7.4,6.2,7.7,7.8,7.7,8.3c0,0.5,0.2,1.3,0.8,1.2c0.3,2.1,1.1,2.8,1.1,2.8l0,2.3
		c0,0-0.5,0.3-2.9,1.3c-2.3,1-1.6,0.2-3.5,1.2c-3,1.5-3,5.7-3,5.7h0c0,0,0,0,0,0c0,0.6,0.5,1.1,1.1,1.1h17.1
		c-0.2-0.3-0.3-0.7-0.3-1.1C16.9,22.7,15.9,21.7,15.9,20.4z"/>
</g>
</svg>
