<?xml version="1.0" encoding="utf-8"?>
<!-- Generator: Adobe Illustrator 19.2.1, SVG Export Plug-In . SVG Version: 6.00 Build 0)  -->
<svg version="1.1" id="Layer_1" xmlns="http://www.w3.org/2000/svg" xmlns:xlink="http://www.w3.org/1999/xlink" x="0px" y="0px"
	 viewBox="0 0 25 24" enable-background="new 0 0 25 24" xml:space="preserve">
<path fill="#FFFFFF" d="M24.9,9.8c0.4-0.4,0.2-1-0.4-1.1l-7.6-1.1c-0.2,0-0.4-0.2-0.5-0.3l-3.4-6.8c-0.2-0.5-0.9-0.5-1.1,0L8.6,7.3
	C8.5,7.4,8.3,7.6,8.1,7.6L0.5,8.7C0,8.8-0.2,9.4,0.2,9.8l5.5,5.3c0.1,0.1,0.2,0.4,0.2,0.6l-1.3,7.5c-0.1,0.5,0.5,0.9,0.9,0.7
	l6.8-3.6c0.2-0.1,0.4-0.1,0.6,0l6.8,3.6c0.5,0.2,1-0.2,0.9-0.7l-1.3-7.5c0-0.2,0-0.4,0.2-0.6L24.9,9.8z"/>
</svg>
