<?xml version="1.0" encoding="utf-8"?>
<!-- Generator: Adobe Illustrator 19.2.1, SVG Export Plug-In . SVG Version: 6.00 Build 0)  -->
<svg version="1.1" id="Layer_1" xmlns="http://www.w3.org/2000/svg" xmlns:xlink="http://www.w3.org/1999/xlink" x="0px" y="0px"
	 viewBox="0 0 189 139" enable-background="new 0 0 189 139" xml:space="preserve">
<g>
	<polygon fill="none" points="6,95.9 60.4,123 60.4,80.5 6,53.5 	"/>
	<polygon fill="none" points="97.7,8.4 10.1,47.5 63.4,74 150.7,29.5 	"/>
	<path fill="none" d="M145.4,65.2c0.6,0.4,1,1,1,1.7v15.3l8.7-4.4V35.4L66.4,80.5v42.4l17.1-8.7V96.8c0-0.8,0.4-1.5,1.1-1.8
		l58.8-29.9C144,64.8,144.8,64.8,145.4,65.2z"/>
	<path fill="none" d="M144.6,87.4c-0.1,0-0.2,0.1-0.3,0.1c-1.1,0-2-0.9-2-2v-0.2l-6.1-3.5L95,103.4l45.8,29.2l42.2-23.5l-35.5-20.7
		C146.4,88.6,145.3,88.2,144.6,87.4z"/>
	<path fill="none" d="M88.9,103.1c0-0.7,0.4-1.4,1.1-1.7l45.4-23.7c0.6-0.3,1.4-0.3,1.9,0l5,2.9V70.2L87.6,98.1v14.1l7.6-3.9
		l-5.3-3.4C89.2,104.5,88.9,103.8,88.9,103.1z"/>
	<path fill="#96B3DD" d="M188,107.3l-36.2-21.1l7.6-3.9c1-0.5,1.7-1.6,1.7-2.7V30.5c0-0.2,0-0.4-0.1-0.6c0.1-0.3,0.1-0.5,0.1-0.8
		c-0.1-1.2-0.8-2.2-1.9-2.7L98.8,2.3C98,2,97.2,2,96.4,2.4L1.8,44.6C0.7,45.1,0,46.1,0,47.3c0,0.2,0,0.5,0.1,0.7
		C0,48.2,0,48.4,0,48.6v49.2c0,1.1,0.6,2.2,1.7,2.7l60.4,30c0,0,0.1,0,0.1,0c0.4,0.2,0.8,0.3,1.2,0.3c0.4,0,0.8-0.1,1.2-0.3
		c0,0,0.1,0,0.1,0l34.5-17.6c0.4-0.2,0.8-0.6,1.1-1l0.2-0.1c0,0,0.1-0.1,0.1-0.1l38.9,24.8c0.3,0.2,0.7,0.3,1.1,0.3
		c0.3,0,0.7-0.1,1-0.3l46.3-25.8c0.6-0.4,1-1,1-1.7C189,108.4,188.6,107.7,188,107.3z M60.4,123L6,95.9V53.5l54.4,27V123z M63.4,74
		L10.1,47.5L97.7,8.4l53,21.1L63.4,74z M83.5,96.8v17.4l-17.1,8.7V80.5L155,35.4v42.4l-8.7,4.4V66.9c0-0.7-0.4-1.4-1-1.7
		c-0.6-0.4-1.3-0.4-2-0.1L84.6,95C84,95.4,83.5,96.1,83.5,96.8z M87.6,112.2V98.1l54.7-27.9v10.4l-5-2.9c-0.6-0.3-1.3-0.4-1.9,0
		L90,101.4c-0.6,0.3-1,1-1.1,1.7c0,0.7,0.3,1.4,0.9,1.8l5.3,3.4L87.6,112.2z M140.7,132.5L95,103.4l41.3-21.6l6.1,3.5v0.2
		c0,1.1,0.9,2,2,2c0.1,0,0.2,0,0.3-0.1c0.7,0.8,1.8,1.1,2.8,0.9l35.5,20.7L140.7,132.5z"/>
</g>
<path fill="#96B3DD" d="M150.6,47.4c1.3-0.3,2.3-1.5,2.3-2.7c0-1.3-1-2-2.3-1.8c-1.3,0.3-2.3,1.5-2.3,2.7
	C148.4,46.9,149.4,47.7,150.6,47.4z"/>
</svg>
