<?xml version="1.0" encoding="utf-8"?>
<!-- Generator: Adobe Illustrator 19.2.1, SVG Export Plug-In . SVG Version: 6.00 Build 0)  -->
<svg version="1.1" id="Layer_1" xmlns="http://www.w3.org/2000/svg" xmlns:xlink="http://www.w3.org/1999/xlink" x="0px" y="0px"
	 viewBox="0 0 132.1 139" enable-background="new 0 0 132.1 139" xml:space="preserve">
<path d="M131.1,28.7c0-0.1,0-0.1,0-0.2c0-0.2,0-0.4-0.1-0.6c0-0.1-0.1-0.2-0.1-0.3c-0.1-0.2-0.1-0.3-0.2-0.5
	c-0.1-0.1-0.1-0.2-0.2-0.3c-0.1-0.1-0.2-0.3-0.3-0.4c-0.1-0.1-0.2-0.1-0.3-0.2c-0.1,0-0.1-0.1-0.2-0.1c-0.1-0.1-0.2-0.1-0.3-0.1
	c-0.1,0-0.1-0.1-0.2-0.1l-62-24.7c-0.7-0.3-1.6-0.3-2.3,0L38.5,11.7c-1.1-0.1-2.1,0.3-2.8,1.1L2.9,25.9C2.8,26,2.8,26,2.7,26
	c-0.1,0-0.2,0.1-0.3,0.1c-0.1,0-0.1,0.1-0.2,0.1c-0.1,0.1-0.2,0.1-0.3,0.2c-0.1,0.1-0.2,0.2-0.3,0.4c-0.1,0.1-0.1,0.2-0.2,0.3
	c-0.1,0.1-0.2,0.3-0.2,0.5c0,0.1-0.1,0.2-0.1,0.3C1,28.1,1,28.3,1,28.5c0,0.1,0,0.1,0,0.2c0,0,0,0,0,0.1c0,0,0,0,0,0.1v75.3
	c0,1.2,0.7,2.3,1.7,2.8l62,30.8c0,0,0.1,0,0.1,0c0.4,0.2,0.8,0.3,1.2,0.3c0.4,0,0.8-0.1,1.2-0.3c0,0,0.1,0,0.1,0l62-30.8
	c1.1-0.5,1.7-1.6,1.7-2.8V28.8C131.2,28.8,131.1,28.8,131.1,28.7C131.1,28.7,131.1,28.7,131.1,28.7z M38.1,18.6L88.6,45l-4.9,2.4
	l-17.6,8.8l-17.6-8.8L11.6,29.1L38.1,18.6z M66.1,7.4l54.4,21.7L95.7,41.4l-49.7-26L66.1,7.4z M7.2,33.8l55.8,27.7v68.3L7.2,102.2
	V33.8z M125,102.2l-55.8,27.7V61.6l24-11.9v18.5c0,1.8,1.5,3.2,3.2,3.2c1.8,0,3.2-1.4,3.2-3.2V46.4L125,33.8V102.2z"/>
</svg>
