<?xml version="1.0" encoding="utf-8"?>
<!-- Generator: Adobe Illustrator 19.2.1, SVG Export Plug-In . SVG Version: 6.00 Build 0)  -->
<svg version="1.1" id="Layer_1" xmlns="http://www.w3.org/2000/svg" xmlns:xlink="http://www.w3.org/1999/xlink" x="0px" y="0px"
	 viewBox="0 0 160 139" enable-background="new 0 0 160 139" xml:space="preserve">
<g>
	<path fill="none" d="M85.1,112c-0.6-0.3-1.3-0.5-2.1-0.5c-1.3,0-2.9,0.5-4.6,1.4c-5.7,3.2-10.6,10.6-10.6,16.3
		c0,1.5,0.3,3.4,1.9,4.3c1.6,0.9,4,0.6,6.7-0.9c5.7-3.2,10.6-10.6,10.6-16.3C87,114.8,86.6,112.9,85.1,112z"/>
	<path fill="none" d="M111.2,21.5v13.2l24.3-11.3L98.2,4.3L84.9,9.9l24.9,9.7c0.1,0,0.1,0.1,0.1,0.1c0.1,0,0.1,0,0.2,0.1
		c0.1,0.1,0.2,0.2,0.3,0.4c0.1,0.1,0.2,0.2,0.3,0.3c0.1,0.2,0.2,0.5,0.3,0.7C111.1,21.3,111.2,21.3,111.2,21.5
		C111.2,21.4,111.2,21.4,111.2,21.5C111.2,21.5,111.2,21.5,111.2,21.5z"/>
	<path fill="none" d="M83,13.5l-3.6-1.4c-0.3,0-0.5-0.1-0.8-0.3L63,5.7L7.5,27.8l10,5.2l31.4,16.3l55-27.4L83,13.5z"/>
	<path fill="none" d="M67.7,117.5l-0.1,0.4c0.1-0.2,0.2-0.3,0.4-0.5L67.7,117.5z"/>
	<polygon fill="none" points="4.7,99.5 46.9,121.3 46.9,52.7 4.7,30.8 	"/>
	<path fill="none" d="M106.6,39.7c0,0-0.1,0-0.2,0c-0.5-0.3-0.7-0.8-0.7-1.3V25.4L50.9,52.7v68.7l56.2-28v-7.9l-0.6-45.5
		C106.6,39.8,106.6,39.8,106.6,39.7z"/>
	<path fill="none" d="M147,40.8l-7.1-15.2L111.2,40v51.7l19.2-9.9c0.3-0.4,0.8-0.6,1.3-0.7l24.4-12.6V49.3l-8.8-8
		C147.2,41.2,147.1,41,147,40.8z M145.8,45.7c-0.1,0.4-0.4,0.7-0.8,0.9l-27.6,14.7c-0.2,0.1-0.5,0.2-0.7,0.2c-0.3,0-0.6-0.1-0.8-0.2
		c-0.5-0.3-0.8-0.8-0.8-1.4V43.9c0-0.6,0.3-1.2,0.9-1.4l21.2-10.2c0.8-0.4,1.7-0.1,2.1,0.7l6.4,11.5C145.9,44.9,146,45.3,145.8,45.7
		z"/>
	<polygon fill="none" points="118.4,44.9 118.4,57.4 142.2,44.7 137.3,35.8 	"/>
	<path fill="none" d="M146.5,79.3c-1.1,0-2.5,0.4-3.9,1.2c-4.9,2.7-9,9-9,13.8c0,1.2,0.3,2.7,1.5,3.5c0,0,0.1,0,0.1,0
		c1.3,0.7,3.3,0.4,5.5-0.8c4.9-2.7,9-9,9-13.8c0-1.2-0.3-2.8-1.5-3.5C147.7,79.5,147.2,79.3,146.5,79.3z"/>
	<path fill="#96B3DD" d="M158.8,47.5l-9.1-8.3L142,22.8c-0.2-0.4-0.5-0.7-0.9-0.8c-0.4-0.1-0.8-0.1-1.2,0.1l-0.1,0c0,0,0,0,0,0
		L98.9,1.2c-0.4-0.2-0.9-0.2-1.3,0L80.7,8.3L63.7,1.6c-0.5-0.2-1-0.2-1.5,0L2,25.7c-0.1,0-0.1,0.1-0.1,0.1c-0.1,0-0.1,0-0.2,0.1
		c-0.1,0.1-0.2,0.2-0.3,0.4c-0.1,0.1-0.2,0.2-0.3,0.3c-0.1,0.2-0.2,0.5-0.2,0.7c0,0.1-0.1,0.2-0.1,0.3c0,0,0,0,0,0c0,0,0,0,0,0.1
		v73.1c0,0.8,0.4,1.4,1.1,1.8L48,126.4c0.3,0.1,0.6,0.2,0.9,0.2c0.3,0,0.6-0.1,0.9-0.2l12.7-6.3c-1.4,4.2-2.1,7.6-0.6,11.4
		c1.3,3.3,6,5.5,6.5,5.8c0.1,0.1,0.3,0.1,0.4,0.1c0.9,0.4,1.9,0.6,3,0.6c2.1,0,4.3-0.6,6.6-1.9c7.1-3.9,12.6-12.6,12.6-19.8
		c0-3.6-1.4-6.3-3.9-7.8c-0.2-0.1-0.5-0.2-0.7-0.3l23.6-11.7c0.5-0.2,0.8-0.7,0.9-1.1l17.7-9.1c-1.3,3.8-2,6.8-0.6,10.2
		c1.1,2.9,5,4.8,5.8,5.1c0.1,0.1,0.2,0,0.4,0.1c0.8,0.3,1.7,0.5,2.7,0.5c1.8,0,3.8-0.6,5.8-1.7c6.2-3.4,11-11,11-17.3
		c0-3.2-1.2-5.6-3.5-6.9c-0.4-0.2-0.9-0.4-1.4-0.5l9.6-5c0.5-0.3,0.9-0.8,0.9-1.4V48.6C159.3,48.2,159.1,47.8,158.8,47.5z
		 M46.9,121.3L4.7,99.5V30.8l42.2,21.9V121.3z M48.9,49.2L17.5,32.9l-10-5.2L63,5.7l15.6,6.1c0.2,0.2,0.5,0.3,0.8,0.3l3.6,1.4
		l21,8.4L48.9,49.2z M87,116.3c0,5.6-4.8,13.1-10.6,16.3c-2.7,1.5-5.2,1.8-6.7,0.9c-1.6-0.9-1.9-2.9-1.9-4.3
		c0-5.6,4.8-13.1,10.6-16.3c1.7-0.9,3.3-1.4,4.6-1.4c0.8,0,1.5,0.2,2.1,0.5C86.6,112.9,87,114.8,87,116.3z M67.5,117.9l0.1-0.4
		l0.2-0.1C67.8,117.6,67.6,117.8,67.5,117.9z M107.1,93.4l-56.2,28V52.7l54.8-27.3v12.8c0,0.5,0.3,1,0.7,1.3c0,0,0.1,0,0.2,0
		c0,0.1-0.1,0.2-0.1,0.3l0.6,45.5V93.4z M111.1,21.2c0-0.3-0.1-0.5-0.3-0.7c-0.1-0.1-0.2-0.2-0.3-0.3c-0.1-0.1-0.2-0.3-0.3-0.4
		c-0.1,0-0.1,0-0.2-0.1c-0.1,0-0.1-0.1-0.1-0.1L84.9,9.9l13.2-5.6l37.3,19.1l-24.3,11.3V21.5c0,0,0,0,0,0c0,0,0,0,0,0
		C111.2,21.3,111.1,21.3,111.1,21.2z M149.7,83.2c0,4.8-4.1,11.1-9,13.8c-2.2,1.2-4.2,1.5-5.5,0.8c0,0-0.1,0-0.1,0
		c-1.2-0.7-1.5-2.3-1.5-3.5c0-4.8,4.1-11.1,9-13.8c1.4-0.8,2.8-1.2,3.9-1.2c0.6,0,1.2,0.1,1.7,0.4C149.4,80.5,149.7,82,149.7,83.2z
		 M156.2,68.4L131.7,81c-0.5,0-1,0.3-1.3,0.7l-19.2,9.9V40l28.7-14.4l7.1,15.2c0.1,0.2,0.2,0.4,0.4,0.5l8.8,8V68.4z"/>
	<path fill="#96B3DD" d="M139.4,33c-0.4-0.7-1.3-1-2.1-0.7l-21.2,10.2c-0.5,0.3-0.9,0.8-0.9,1.4V60c0,0.6,0.3,1.1,0.8,1.4
		c0.2,0.1,0.5,0.2,0.8,0.2c0.3,0,0.5-0.1,0.7-0.2l27.6-14.7c0.4-0.2,0.6-0.5,0.8-0.9c0.1-0.4,0.1-0.8-0.1-1.2L139.4,33z M118.4,57.4
		V44.9l19-9.1l4.9,8.8L118.4,57.4z"/>
</g>
</svg>
