<?xml version="1.0" encoding="utf-8"?>
<!-- Generator: Adobe Illustrator 19.2.1, SVG Export Plug-In . SVG Version: 6.00 Build 0)  -->
<svg version="1.1" id="Layer_1" xmlns="http://www.w3.org/2000/svg" xmlns:xlink="http://www.w3.org/1999/xlink" x="0px" y="0px"
	 viewBox="0 0 189 139" enable-background="new 0 0 189 139" xml:space="preserve">
<g>
	<polygon fill="none" points="95,103.4 140.7,132.5 182.9,109 136.3,81.8 	"/>
	<polygon fill="#96B3DD" points="6,94.6 60.4,121.6 60.4,79.2 6,52.2 	"/>
	<path fill="#96B3DD" d="M66.4,79.2v42.4l17.1-8.7V95.5c0-0.8,0.4-1.4,1.1-1.8l58.8-29.9c0.6-0.3,1.4-0.3,2,0.1c0.6,0.4,1,1,1,1.7
		v15.3l8.7-4.4V34.1L66.4,79.2z M149.6,45.7c-1.2,0.3-2.3-0.5-2.3-1.8c0-1.3,1-2.5,2.3-2.8c1.2-0.3,2.3,0.5,2.3,1.8
		S150.8,45.5,149.6,45.7z"/>
	<path fill="#5A84C3" d="M88.9,103.1c0-0.7,0.4-1.4,1.1-1.7l45.4-23.7c0.6-0.3,1.4-0.3,1.9,0l5,2.9V68.9L87.6,96.8v15.9l8.1-4.1
		l-5.8-3.7C89.2,104.5,88.9,103.8,88.9,103.1z"/>
	<polygon fill="#96B3DD" points="97.7,8.4 10.1,47.5 63.4,74 150.7,29.5 	"/>
	<path fill="#3667B1" d="M188,107.3l-37.4-21.8l8.8-4.5c1-0.5,1.6-1.5,1.6-2.7V29.2c0,0,0,0,0-0.1c0,0,0,0,0-0.1c0-0.1,0-0.2,0-0.2
		c0-0.2,0-0.3-0.1-0.5c0-0.1-0.1-0.2-0.1-0.3c-0.1-0.1-0.1-0.3-0.2-0.4c-0.1-0.1-0.1-0.2-0.2-0.3c-0.1-0.1-0.2-0.2-0.3-0.3
		c-0.1-0.1-0.2-0.2-0.3-0.2c0,0-0.1-0.1-0.2-0.1c-0.1-0.1-0.2-0.1-0.3-0.1c-0.1,0-0.1-0.1-0.2-0.1L98.8,2.3C98,2,97.2,2.1,96.4,2.4
		L1.8,44.6c-0.1,0-0.1,0.1-0.2,0.1c-0.1,0-0.1,0-0.2,0.1c-0.1,0-0.1,0.1-0.2,0.2C1.1,45,1,45.1,1,45.1c-0.1,0.1-0.2,0.2-0.3,0.4
		c-0.1,0.1-0.1,0.2-0.2,0.3c-0.1,0.1-0.2,0.3-0.2,0.5c0,0.1-0.1,0.2-0.1,0.3C0.1,46.7,0,46.9,0,47.1c0,0.1,0,0.1,0,0.2v49.2
		c0,1.2,0.7,2.2,1.7,2.7l60.4,30c0,0,0.1,0,0.1,0c0.4,0.2,0.8,0.3,1.2,0.3c0.4,0,0.8-0.1,1.2-0.3c0,0,0.1,0,0.1,0l34.5-17.6
		c0.2-0.1,0.3-0.3,0.5-0.4l39.8,25.3c0.3,0.2,0.7,0.3,1.1,0.3c0.3,0,0.7-0.1,1-0.2l46.3-25.8c0.6-0.3,1-1,1-1.7
		C189,108.4,188.6,107.7,188,107.3z M60.4,121.7L6,94.6V52.2l54.4,27V121.7z M63.4,74L10.1,47.5L97.7,8.4l53,21.1L63.4,74z
		 M83.5,95.5v17.4l-17.1,8.7V79.2L155,34.1v42.4l-8.7,4.4V65.6c0-0.7-0.4-1.4-1-1.7c-0.6-0.4-1.3-0.4-2-0.1L84.6,93.7
		C84,94.1,83.5,94.8,83.5,95.5z M87.6,112.7V96.8l54.8-27.9v11.8l-5-2.9c-0.6-0.4-1.3-0.4-2,0L90,101.4c-0.6,0.3-1,1-1.1,1.7
		c0,0.7,0.3,1.4,0.9,1.8l5.8,3.7L87.6,112.7z M140.7,132.5l-45.8-29.2l41.3-21.6l46.7,27.2L140.7,132.5z"/>
	<path fill="#3667B1" d="M151.8,43c0,1.2-1,2.5-2.3,2.8s-2.3-0.5-2.3-1.8c0-1.3,1-2.5,2.3-2.8C150.8,40.9,151.8,41.7,151.8,43z"/>
</g>
</svg>
