<?xml version="1.0" encoding="utf-8"?>
<!-- Generator: Adobe Illustrator 19.2.1, SVG Export Plug-In . SVG Version: 6.00 Build 0)  -->
<svg version="1.1" id="Layer_1" xmlns="http://www.w3.org/2000/svg" xmlns:xlink="http://www.w3.org/1999/xlink" x="0px" y="0px"
	 viewBox="0 0 132.1 139" enable-background="new 0 0 132.1 139" xml:space="preserve">
<g>
	<path fill="none" d="M99.7,68.4c0,1.7-1.5,3.1-3.2,3.1c-1.7,0-3.2-1.4-3.2-3.1V49.6l-24,11.9v68.3l55.8-27.7V33.8L99.7,46.4V68.4z"
		/>
	<polygon fill="#96B3DD" points="7.2,102.2 63,129.9 63,61.6 7.2,33.8 	"/>
	<polygon fill="#96B3DD" points="38.2,18.5 11.6,29.1 66.1,56.2 88.7,44.9 	"/>
	<polygon fill="#96B3DD" points="120.5,29.1 66.1,7.4 46,15.4 95.8,41.4 	"/>
	<path fill="#3667B1" d="M131.1,28.7C131.1,28.7,131.1,28.7,131.1,28.7c0-0.1,0-0.2,0-0.3c0-0.2,0-0.4-0.1-0.6
		c0-0.1-0.1-0.2-0.1-0.3c-0.1-0.2-0.1-0.3-0.2-0.5c-0.1-0.1-0.1-0.2-0.2-0.3c-0.1-0.1-0.2-0.2-0.3-0.4c-0.1-0.1-0.2-0.2-0.3-0.2
		c-0.1,0-0.1-0.1-0.2-0.1c-0.1-0.1-0.2-0.1-0.3-0.1c-0.1,0-0.1-0.1-0.2-0.1l-62-24.7c-0.7-0.3-1.6-0.3-2.3,0l-62,24.7
		C2.8,26,2.8,26,2.7,26c-0.1,0-0.2,0.1-0.3,0.1c-0.1,0-0.1,0.1-0.2,0.1c-0.1,0.1-0.2,0.1-0.3,0.2c-0.1,0.1-0.2,0.2-0.3,0.4
		c-0.1,0.1-0.1,0.2-0.2,0.3c-0.1,0.1-0.2,0.3-0.2,0.5c0,0.1-0.1,0.2-0.1,0.3C1,28.1,1,28.3,1,28.5c0,0.1,0,0.1,0,0.2c0,0,0,0,0,0.1
		c0,0,0,0,0,0.1v75.3c0,1.2,0.7,2.3,1.7,2.8l62,30.8c0,0,0.1,0,0.1,0c0.4,0.2,0.8,0.3,1.2,0.3s0.8-0.1,1.2-0.3c0,0,0.1,0,0.1,0
		l62-30.8c1.1-0.5,1.7-1.6,1.7-2.8L131.1,28.7C131.2,28.8,131.1,28.8,131.1,28.7z M66.1,7.4l54.4,21.7L95.8,41.4L46,15.4L66.1,7.4z
		 M63,129.9L7.2,102.2V33.8L63,61.6V129.9z M66.1,56.2L11.6,29.1l26.6-10.6l50.4,26.4L66.1,56.2z M124.9,102.2l-55.8,27.7V61.6
		l24-11.9v18.8c0,1.7,1.5,3.1,3.2,3.1c1.7,0,3.2-1.4,3.2-3.1v-22l25.3-12.6V102.2z"/>
</g>
</svg>
