<?xml version="1.0" encoding="utf-8"?>
<!-- Generator: Adobe Illustrator 19.2.1, SVG Export Plug-In . SVG Version: 6.00 Build 0)  -->
<svg version="1.1" id="Layer_1" xmlns="http://www.w3.org/2000/svg" xmlns:xlink="http://www.w3.org/1999/xlink" x="0px" y="0px"
	 viewBox="0 0 139.6 139" enable-background="new 0 0 139.6 139" xml:space="preserve">
<g>
	<polygon fill="none" points="5.6,127.9 7.9,130.2 7.9,53.1 5.6,50.9 	"/>
	<polygon fill="none" points="126.9,5.8 7.6,46.4 10.8,49.5 130.9,8.2 	"/>
	<polygon fill="none" points="12.5,53.8 12.5,69.7 134,27.9 134,12 15.6,52.7 	"/>
	<polygon fill="none" points="12.5,132.5 134,90.7 134,43 12.5,84.9 	"/>
	<path fill="#96B3DD" d="M138.4,7.9c0,0,0-0.1,0-0.1c-0.2-0.3-0.4-0.6-0.7-0.8c0,0-0.1,0-0.1,0c0,0,0,0-0.1-0.1l-9.1-5.5
		c-0.6-0.3-1.3-0.4-1.9-0.2L2.6,43.3c0,0,0,0-0.1,0c0,0-0.1,0-0.1,0c-0.3,0.1-0.5,0.3-0.7,0.5c0,0-0.1,0.1-0.1,0.1
		c-0.2,0.3-0.4,0.6-0.5,0.9c0,0,0,0,0,0.1c0,0,0,0.1,0,0.1C1,45.2,1,45.3,1,45.5v83.3c0,0.6,0.2,1.2,0.7,1.6l6.9,6.9
		c0.1,0.1,0.1,0.1,0.2,0.1c0,0,0.1,0.1,0.1,0.1c0.1,0.1,0.2,0.1,0.3,0.2c0.1,0,0.1,0.1,0.2,0.1c0.3,0.1,0.5,0.2,0.8,0.2
		c0.3,0,0.5,0,0.7-0.1l126.2-43.4c0.9-0.3,1.5-1.2,1.5-2.2V8.8C138.6,8.5,138.5,8.2,138.4,7.9z M7.9,130.2l-2.3-2.3v-77l2.3,2.2
		V130.2z M10.8,49.5l-3.2-3.1L126.9,5.8l4,2.4L10.8,49.5z M134,90.7L12.5,132.5V84.9L134,43V90.7z M134,27.9L12.5,69.7V53.8l3.1-1.1
		L134,12V27.9z"/>
</g>
</svg>
