<?xml version="1.0" encoding="utf-8"?>
<!-- Generator: Adobe Illustrator 19.2.1, SVG Export Plug-In . SVG Version: 6.00 Build 0)  -->
<svg version="1.1" id="Layer_1" xmlns="http://www.w3.org/2000/svg" xmlns:xlink="http://www.w3.org/1999/xlink" x="0px" y="0px"
	 viewBox="0 0 132.1 139" enable-background="new 0 0 132.1 139" xml:space="preserve">
<path d="M134.6,7.8c-0.2-0.3-0.4-0.6-0.7-0.8c0,0-0.1,0-0.1,0c0,0,0,0-0.1-0.1l-9.1-5.5c-0.6-0.3-1.3-0.4-1.9-0.2L-1.2,43.3
	c0,0,0,0-0.1,0.1c0,0-0.1,0-0.1,0c-0.3,0.1-0.5,0.3-0.7,0.5c0,0-0.1,0.1-0.1,0.1c-0.2,0.3-0.4,0.6-0.5,0.9c0,0,0,0,0,0.1
	c0,0,0,0.1,0,0.1c0,0.1-0.1,0.3-0.1,0.4v83.3c0,0.6,0.2,1.2,0.7,1.6l6.9,6.9c0.1,0.1,0.1,0.1,0.2,0.1c0,0,0.1,0.1,0.1,0.1
	c0.1,0.1,0.2,0.1,0.3,0.2c0.1,0,0.1,0.1,0.2,0.1c0.3,0.1,0.5,0.2,0.8,0.2c0.3,0,0.5,0,0.7-0.1l126.2-43.4c0.9-0.3,1.5-1.2,1.5-2.2
	V8.8c0-0.3-0.1-0.6-0.2-0.9C134.6,7.8,134.6,7.8,134.6,7.8z M8.7,53.8L101.3,22l29-10v15.9L8.7,69.7V53.8z M123.2,5.8l4,2.4
	L102,16.9L7,49.5l-3.2-3.1L123.2,5.8z M1.8,50.9l2.3,2.2v77l-2.3-2.3V50.9z M8.7,132.5V84.9L130.3,43v47.6L8.7,132.5z"/>
</svg>
