<?xml version="1.0" encoding="utf-8"?>
<!-- Generator: Adobe Illustrator 19.2.1, SVG Export Plug-In . SVG Version: 6.00 Build 0)  -->
<svg version="1.1" id="Layer_1" xmlns="http://www.w3.org/2000/svg" xmlns:xlink="http://www.w3.org/1999/xlink" x="0px" y="0px"
	 viewBox="0 0 171.5 302" enable-background="new 0 0 171.5 302" xml:space="preserve">
<g>
	<path fill="none" d="M154.7,74.5c1.9-1.9,2.9-4.5,2.9-7.2V25.2c0-5.7-4.6-10.3-10.3-10.3H24.3c-5.7,0-10.3,4.6-10.3,10.3v42.2
		c0,2.7,1,5.3,2.9,7.2L73.5,133c8.8,9,8.8,23.2,0,32.3l-56.6,58.4c-1.9,1.9-2.9,4.5-2.9,7.2v45.9c0,5.7,4.6,10.3,10.3,10.3h122.9
		c5.7,0,10.3-4.6,10.3-10.3v-45.9c0-2.7-1-5.3-2.9-7.2L98,165.3c-8.8-9-8.8-23.2,0-32.3L154.7,74.5z M140.6,239.5
		c3.3,3.2,1.1,8.7-3.5,8.7H34.4c-4.6,0-6.8-5.6-3.5-8.7l51.3-49.4c2-1.9,5.1-1.9,7,0L140.6,239.5z M89.3,117.6c-2,1.9-5.1,1.9-7,0
		L30.9,68.2c-3.3-3.2-1-8.7,3.5-8.7h102.7c4.6,0,6.8,5.6,3.5,8.7L89.3,117.6z"/>
	<path fill="#5784C3" d="M163.9,83.5c4.2-4.3,6.5-10.1,6.5-16.1V25.2C170.4,12.4,160,2,147.2,2H24.3C11.5,2,1.1,12.4,1.1,25.2v42.2
		c0,6.1,2.3,11.8,6.5,16.1l56.6,58.5c3.9,4,3.9,10.4,0,14.4L7.7,214.8c-4.2,4.4-6.5,10.1-6.5,16.1v45.9c0,12.8,10.4,23.2,23.2,23.2
		h122.9c12.8,0,23.2-10.4,23.2-23.2v-45.9c0-6.1-2.3-11.8-6.5-16.1l-56.6-58.4c-3.9-4-3.9-10.4,0-14.4L163.9,83.5z M98,165.3
		l56.6,58.4c1.9,1.9,2.9,4.5,2.9,7.2v45.9c0,5.7-4.6,10.3-10.3,10.3H24.3c-5.7,0-10.3-4.6-10.3-10.3v-45.9c0-2.7,1-5.3,2.9-7.2
		l56.6-58.4c8.8-9,8.8-23.2,0-32.3L16.9,74.5C15,72.6,14,70,14,67.3V25.2c0-5.7,4.6-10.3,10.3-10.3h122.9c5.7,0,10.3,4.6,10.3,10.3
		v42.2c0,2.7-1,5.3-2.9,7.2L98,133C89.2,142,89.2,156.2,98,165.3z"/>
	<path fill="#5784C3" d="M137.1,59.5H34.4c-4.6,0-6.8,5.6-3.5,8.7l51.3,49.4c2,1.9,5.1,1.9,7,0l51.3-49.4
		C143.9,65,141.7,59.5,137.1,59.5z"/>
	<path fill="#5784C3" d="M82.3,190.1l-51.3,49.4c-3.3,3.2-1,8.7,3.5,8.7h102.7c4.6,0,6.8-5.6,3.5-8.7l-51.3-49.4
		C87.3,188.2,84.2,188.2,82.3,190.1z"/>
</g>
</svg>
