<?xml version="1.0" encoding="utf-8"?>
<!-- Generator: Adobe Illustrator 19.2.1, SVG Export Plug-In . SVG Version: 6.00 Build 0)  -->
<svg version="1.1" id="Layer_1" xmlns="http://www.w3.org/2000/svg" xmlns:xlink="http://www.w3.org/1999/xlink" x="0px" y="0px"
	 viewBox="0 0 132.4 139" enable-background="new 0 0 132.4 139" xml:space="preserve">
<path fill="#96B3DD" d="M131.3,28.7c0-0.1,0-0.1,0-0.2c0-0.2,0-0.4-0.1-0.6c0-0.1-0.1-0.2-0.1-0.3c-0.1-0.2-0.1-0.3-0.2-0.5
	c-0.1-0.1-0.1-0.2-0.2-0.3c-0.1-0.1-0.2-0.2-0.3-0.4c-0.1-0.1-0.2-0.2-0.3-0.2c-0.1,0-0.1-0.1-0.2-0.1c-0.1-0.1-0.2-0.1-0.3-0.1
	c-0.1,0-0.1-0.1-0.2-0.1l-62-24.7c-0.7-0.3-1.6-0.3-2.3,0l-62,24.7C3,26,2.9,26,2.9,26c-0.1,0-0.2,0.1-0.3,0.1
	c-0.1,0-0.1,0.1-0.2,0.1c-0.1,0.1-0.2,0.1-0.3,0.2c-0.1,0.1-0.2,0.2-0.3,0.4c-0.1,0.1-0.1,0.2-0.2,0.3c-0.1,0.1-0.2,0.3-0.2,0.5
	c0,0.1-0.1,0.2-0.1,0.3c-0.1,0.2-0.1,0.4-0.1,0.6c0,0.1,0,0.1,0,0.2c0,0,0,0,0,0.1c0,0,0,0,0,0.1v75.3c0,1.2,0.7,2.3,1.7,2.8
	l62,30.8c0,0,0.1,0,0.1,0c0.4,0.2,0.8,0.3,1.2,0.3c0.4,0,0.8-0.1,1.2-0.3c0,0,0.1,0,0.1,0l62-30.8c1.1-0.5,1.7-1.6,1.7-2.8V28.8
	C131.3,28.8,131.3,28.8,131.3,28.7C131.3,28.7,131.3,28.7,131.3,28.7z M66.2,7.4l54.4,21.7L95.8,41.4L44.8,16L66.2,7.4z M36.8,19.2
	C36.8,19.2,36.8,19.2,36.8,19.2l51.8,25.9L66.2,56.2L11.8,29.1L36.8,19.2z M7.3,33.8l55.8,27.7v68.3L7.3,102.2V33.8z M125.1,102.2
	l-55.8,27.7V61.6l24-11.9v21.3c0,1.8,1.5,3.2,3.2,3.2c1.8,0,3.2-1.5,3.2-3.2V46.4l25.3-12.6V102.2z"/>
</svg>
