<?xml version="1.0" encoding="utf-8"?>
<!-- Generator: Adobe Illustrator 19.2.1, SVG Export Plug-In . SVG Version: 6.00 Build 0)  -->
<svg version="1.1" id="Layer_1" xmlns="http://www.w3.org/2000/svg" xmlns:xlink="http://www.w3.org/1999/xlink" x="0px" y="0px"
	 viewBox="0 0 160 139" enable-background="new 0 0 160 139" xml:space="preserve">
<g>
	<polygon fill="none" points="118.4,44.9 118.4,57.4 142.2,44.7 137.3,35.8 	"/>
	<path fill="none" d="M67.7,117.5l-0.1,0.4c0.1-0.2,0.2-0.3,0.4-0.5L67.7,117.5z"/>
	<polygon fill="#96B3DD" points="4.7,99.5 46.9,121.3 46.9,52.7 4.7,30.8 	"/>
	<path fill="#96B3DD" d="M106.5,40.6c-0.5-0.3-0.7-0.8-0.7-1.3V25.4L50.9,52.7v68.7l14.3-7.1c0,0,0,0,0,0l42-20.9v-7.9L106.5,40.6
		C106.6,40.6,106.5,40.6,106.5,40.6z"/>
	<polygon fill="#96B3DD" points="96.8,18.8 63,5.7 7.5,27.8 48.9,49.2 104,21.8 	"/>
	<path fill="#5A84C3" d="M85.1,112c-0.6-0.3-1.3-0.5-2.1-0.5c-1.3,0-2.9,0.5-4.6,1.4c-5.7,3.2-10.6,10.6-10.6,16.3
		c0,1.5,0.3,3.4,1.9,4.3c1.6,0.9,4,0.6,6.7-0.9c5.7-3.2,10.6-10.6,10.6-16.3C87,114.8,86.6,112.9,85.1,112z"/>
	<path fill="#5A84C3" d="M146.5,79.3c-1.1,0-2.5,0.4-3.9,1.2c-4.9,2.7-9,9-9,13.8c0,1.2,0.3,2.7,1.5,3.5c0,0,0,0,0.1,0
		c1.3,0.7,3.3,0.4,5.5-0.8c4.9-2.7,9-9,9-13.8c0-1.2-0.3-2.8-1.5-3.5C147.7,79.5,147.2,79.3,146.5,79.3z"/>
	<path fill="#96B3DD" d="M136.5,23.4L98.7,4.3l-14.1,6.1l23.4,9.7c0.6,0.2,1,0.8,1,1.5v15.2L136.5,23.4z"/>
	<path fill="#96B3DD" d="M147,40.8l-7.1-15.2l-30.1,15.1l0.6,51.4l45.8-23.7V49.3l-8.8-8C147.2,41.2,147,41,147,40.8z M145.8,45.7
		c-0.1,0.4-0.4,0.7-0.8,0.9l-27.6,14.7c-0.2,0.1-0.5,0.2-0.7,0.2c-0.3,0-0.6-0.1-0.8-0.2c-0.5-0.3-0.8-0.8-0.8-1.4v0V43.9v0
		c0-0.6,0.3-1.2,0.9-1.4l21.2-10.2c0.8-0.4,1.7-0.1,2.1,0.7l6.4,11.5C145.9,44.9,146,45.3,145.8,45.7z"/>
	<path fill="#3667B1" d="M158.8,47.5l-9.1-8.3L142,22.8c-0.2-0.4-0.5-0.7-0.9-0.8c-0.2-0.1-0.4-0.1-0.6-0.1l-41-20.7
		c-0.4-0.2-0.9-0.2-1.3,0l-17,7.3L63.7,1.6c-0.5-0.2-1-0.2-1.5,0L2,25.7c-0.1,0-0.1,0.1-0.1,0.1c-0.1,0-0.1,0-0.2,0.1
		c-0.1,0.1-0.2,0.2-0.3,0.4c-0.1,0.1-0.2,0.2-0.3,0.3c-0.1,0.2-0.2,0.5-0.2,0.7c0,0.1-0.1,0.2-0.1,0.3c0,0,0,0,0,0c0,0,0,0,0,0.1
		v73.1c0,0.8,0.4,1.4,1.1,1.8L48,126.4c0.3,0.2,0.6,0.2,0.9,0.2c0.3,0,0.6-0.1,0.9-0.2l12.7-6.3c-1.4,4.3-2.1,7.6-0.6,11.4
		c1.3,3.3,6,5.5,6.5,5.8c0.1,0.1,0.3,0.1,0.4,0.1c0.9,0.4,1.9,0.6,3,0.6c2.1,0,4.3-0.6,6.6-1.9c7.1-3.9,12.6-12.6,12.6-19.8
		c0-3.6-1.4-6.3-3.9-7.8c-0.2-0.1-0.5-0.2-0.7-0.3L110,96.5c0.5-0.2,0.8-0.7,0.9-1.1l17.7-9.1c-1.3,3.8-2,6.8-0.6,10.2
		c1.1,2.9,5,4.8,5.8,5.1c0.1,0.1,0.2,0,0.4,0.1c0.8,0.3,1.7,0.5,2.7,0.5c1.8,0,3.8-0.6,5.8-1.7c6.2-3.4,11-11,11-17.3
		c0-3.2-1.2-5.6-3.5-6.9c-0.4-0.2-0.9-0.4-1.4-0.5l9.6-5c0.5-0.3,0.9-0.8,0.9-1.4V48.6C159.3,48.2,159.1,47.8,158.8,47.5z
		 M46.9,121.3L4.7,99.5V30.8l42.2,21.9V121.3z M48.9,49.2L7.5,27.8L63,5.7l33.8,13.2l7.2,3L48.9,49.2z M87,116.3
		c0,5.6-4.8,13.1-10.6,16.3c-2.7,1.5-5.2,1.8-6.7,0.9c-1.6-0.9-1.9-2.9-1.9-4.3c0-5.6,4.8-13.1,10.6-16.3c1.7-0.9,3.3-1.4,4.6-1.4
		c0.8,0,1.5,0.2,2.1,0.5C86.6,112.9,87,114.8,87,116.3z M67.5,117.9l0.1-0.4l0.2-0.1C67.8,117.6,67.6,117.8,67.5,117.9z M107.1,93.4
		l-42,20.9c0,0,0,0,0,0l-14.3,7.1V52.7l54.8-27.3v13.8c0,0.5,0.3,1,0.7,1.3c0,0,0.1,0,0.1,0l0.6,44.9V93.4z M107.9,20.1l-23.4-9.7
		l14.1-6.1l37.9,19.1l-27.6,13.3V21.5C108.9,20.9,108.5,20.3,107.9,20.1z M149.7,83.2c0,4.8-4.1,11.1-9,13.8
		c-2.2,1.2-4.2,1.5-5.5,0.8c0,0,0,0-0.1,0c-1.2-0.7-1.5-2.3-1.5-3.5c0-4.8,4.1-11.1,9-13.8c1.4-0.8,2.8-1.2,3.9-1.2
		c0.6,0,1.2,0.1,1.7,0.4C149.4,80.5,149.7,82,149.7,83.2z M156.2,68.4l-45.8,23.7l-0.6-51.4l30.1-15.1l7.1,15.2
		c0.1,0.2,0.2,0.4,0.4,0.5l8.8,8V68.4z"/>
	<path fill="#3667B1" d="M139.4,33c-0.4-0.7-1.3-1-2.1-0.7l-21.2,10.2c-0.5,0.3-0.9,0.8-0.9,1.4v0V60v0c0,0.6,0.3,1.1,0.8,1.4
		c0.2,0.1,0.5,0.2,0.8,0.2c0.3,0,0.5-0.1,0.7-0.2l27.6-14.7c0.4-0.2,0.6-0.5,0.8-0.9s0.1-0.8-0.1-1.2L139.4,33z M118.4,57.4V44.9
		l19-9.1l4.9,8.8L118.4,57.4z"/>
</g>
</svg>
