<?xml version="1.0" encoding="utf-8"?>
<!-- Generator: Adobe Illustrator 19.2.1, SVG Export Plug-In . SVG Version: 6.00 Build 0)  -->
<svg version="1.1" id="Layer_1" xmlns="http://www.w3.org/2000/svg" xmlns:xlink="http://www.w3.org/1999/xlink" x="0px" y="0px"
	 viewBox="0 0 160 139" enable-background="new 0 0 160 139" xml:space="preserve">
<g>
	<polygon fill="none" points="22.7,53.8 22.7,69.7 144.2,27.9 144.2,12 25.8,52.7 	"/>
	<polygon fill="none" points="22.7,132.5 144.2,90.7 144.2,43 22.7,84.9 	"/>
	<polygon fill="#5A84C3" points="22.7,84.9 144.2,43 144.2,27.9 22.7,69.7 	"/>
	<polygon fill="#96B3DD" points="137.1,5.8 17.8,46.5 21,49.5 141.1,8.2 	"/>
	<path fill="#3667B1" d="M148.6,7.9c0,0,0-0.1,0-0.1c-0.2-0.3-0.4-0.6-0.7-0.8c0,0-0.1,0-0.1,0c0,0,0,0-0.1-0.1l-9.1-5.5
		c-0.6-0.3-1.3-0.4-1.9-0.2L12.7,43.3c0,0,0,0-0.1,0c0,0-0.1,0-0.1,0c-0.3,0.1-0.5,0.3-0.7,0.5c0,0-0.1,0.1-0.1,0.1
		c-0.2,0.3-0.4,0.6-0.5,0.9c0,0,0,0,0,0.1c0,0,0,0.1,0,0.1c0,0.1-0.1,0.3-0.1,0.4v83.3c0,0.6,0.2,1.2,0.7,1.6l6.9,6.9
		c0.1,0.1,0.1,0.1,0.2,0.1c0,0,0.1,0.1,0.1,0.1c0.1,0.1,0.2,0.1,0.3,0.2c0.1,0,0.1,0.1,0.2,0.1c0.3,0.1,0.5,0.2,0.8,0.2
		c0.3,0,0.5,0,0.7-0.1l126.2-43.4c0.9-0.3,1.5-1.2,1.5-2.2V8.8C148.8,8.5,148.7,8.2,148.6,7.9z M18.1,130.2l-2.3-2.3v-77l2.3,2.2
		V130.2z M21,49.5l-3.2-3.1L137.1,5.8l4,2.4L21,49.5z M144.2,27.9V43v47.6L22.7,132.5V84.9V69.7V53.8l3.1-1.1L144.2,12V27.9z"/>
	<polygon fill="#96B3DD" points="15.8,127.9 18.1,130.2 18.1,53.1 15.8,50.9 	"/>
</g>
</svg>
