<?xml version="1.0" standalone="no"?>
<!DOCTYPE svg PUBLIC "-//W3C//DTD SVG 1.1//EN" "http://www.w3.org/Graphics/SVG/1.1/DTD/svg11.dtd" >
<svg xmlns="http://www.w3.org/2000/svg">
<metadata>
Created by FontPrep 20130207 at Mon Sep 19 21:15:30 2016
 By Alex Birsan
Digitized data copyright (c) 2012-2015, The Mozilla Foundation and Telefonica S.A.
</metadata>
<defs>
<font id="ac24bf0d9cd411d6f812a6d51c2cc5e8" horiz-adv-x='1024' >
  <font-face 
    font-family="FiraSans-EightItalic"
    font-weight="100"
    font-style="italic"
    font-stretch="normal"
    units-per-em="2048"
    panose-1="2 11 2 3 5 0 0 2 0 4"
    ascent="1638"
    descent="-410"
    x-height="1061"
    cap-height="1393"
    bbox="-1458 -717 2785 2150"
    underline-thickness="102"
    underline-position="-102"
    slope="-8"
    unicode-range="U+000D-1F310"
  />
<missing-glyph horiz-adv-x="1363" 
d="M604 246q31 0 49 -20q19 -20 15 -53q-4 -31 -28 -53t-54 -22t-48 22t-14 54t26 52t54 20zM719 924q225 0 194 -236q-16 -109 -70 -168t-157 -74l-14 -92q-10 -49 -58 -49q-20 0 -34 13t-11 36l25 172q108 6 152 40t54 110t-10 112q-22 36 -86 37q-64 0 -98 -14
q-32 -14 -45 -14q-49 0 -45 47q6 40 70 60t133 20zM1309 2124h-805l-398 -2814h805zM1339 2150l-403 -2867h-860l403 2867h860z" />
    <glyph glyph-name="fi" unicode="fi" horiz-adv-x="1110" 
d="M652 1503q126 0 247 -78l-8 -12q-117 76 -238 76q-248 0 -276 -225l-29 -203h584l-148 -1061h-16l145 1044h-567l-147 -1040q-25 -178 -81 -256t-184 -141l-6 12q121 61 176 138t80 249l146 1038h-189l2 17h189l28 205q16 115 92 176q74 61 200 61z" />
    <glyph glyph-name="fl" unicode="fl" horiz-adv-x="1175" 
d="M913 -18q-135 0 -114 155l184 1288q-172 63 -306 63q-272 1 -300 -224l-29 -203h305l-4 -17h-303l-147 -1040q-25 -178 -81 -256t-184 -141l-6 12q121 61 176 138t80 249l146 1038h-189l2 17h189l28 205q34 237 322 237q144 0 305 -65l14 2l-186 -1303q-20 -141 98 -141
q43 0 86 16l2 -14q-43 -16 -88 -16z" />
    <glyph glyph-name=".notdef" horiz-adv-x="1363" 
d="M604 246q31 0 49 -20q19 -20 15 -53q-4 -31 -28 -53t-54 -22t-48 22t-14 54t26 52t54 20zM719 924q225 0 194 -236q-16 -109 -70 -168t-157 -74l-14 -92q-10 -49 -58 -49q-20 0 -34 13t-11 36l25 172q108 6 152 40t54 110t-10 112q-22 36 -86 37q-64 0 -98 -14
q-32 -14 -45 -14q-49 0 -45 47q6 40 70 60t133 20zM1309 2124h-805l-398 -2814h805zM1339 2150l-403 -2867h-860l403 2867h860z" />
    <glyph glyph-name=".null" horiz-adv-x="0" 
 />
    <glyph glyph-name="nonmarkingreturn" horiz-adv-x="681" 
 />
    <glyph glyph-name="CR" unicode="&#xd;" horiz-adv-x="626" 
 />
    <glyph glyph-name="space" unicode=" " horiz-adv-x="626" 
 />
    <glyph glyph-name="exclam" unicode="!" horiz-adv-x="481" 
d="M172 37q25 0 25 -24q0 -23 -25 -23t-25 24t25 23zM215 393l139 1000h15l-138 -1000h-16z" />
    <glyph glyph-name="quotedbl" unicode="&#x22;" horiz-adv-x="653" 
d="M514 911l64 482h18l-70 -482h-12zM236 911l65 482h16l-67 -482h-14z" />
    <glyph glyph-name="numbersign" unicode="#" horiz-adv-x="987" 
d="M684 444l137 506h-461l-137 -506h461zM166 950v15h180l107 391h16l-104 -391h460l105 391h18l-104 -391h172l-2 -15h-174l-138 -506h168l-6 -14h-166l-116 -430h-19l117 430h-461l-117 -430h-18l117 430h-185l4 14h185l137 506h-176z" />
    <glyph glyph-name="dollar" unicode="$" horiz-adv-x="1079" 
d="M637 1356q-185 0 -281 -94t-96 -230q0 -102 71 -169t239 -124t250 -140q81 -83 81 -197t-40 -203q-40 -87 -144 -151t-262 -66l-39 -279h-15l39 279q-221 0 -368 157l10 11q143 -154 366 -154t330 116q106 116 107 279q0 119 -78 198t-247 137t-243 128q-73 70 -73 192
t98 224q98 100 299 100l39 283h16l-39 -283q172 -2 316 -129l-12 -12q-138 127 -324 127z" />
    <glyph glyph-name="percent" unicode="%" horiz-adv-x="1536" 
d="M1143 594q-102 0 -172 -66q-117 -110 -117 -301q0 -107 53 -169t143 -62t150 38q103 66 137 215q14 60 15 118q0 109 -54 168t-155 59zM838 229q0 197 126 313q72 66 180 66t166 -63t58 -163t-27 -182q-27 -83 -99 -151q-72 -67 -180 -67q-107 0 -166 65q-58 66 -58 182z
M721 1146q1 96 -53 155t-155 59t-171 -66q-117 -110 -117 -301q1 -109 53 -170t154 -61t172 66t93 145q24 77 24 173zM528 1374q94 0 152 -64q57 -64 57 -164q1 -100 -25 -182t-100 -149t-180 -67t-165 65q-58 66 -58 180q0 61 16 124q66 257 303 257zM1358 1417l12 -8
l-1134 -1432l-15 7z" />
    <glyph glyph-name="ampersand" unicode="&#x26;" horiz-adv-x="1501" 
d="M563 -4q274 0 471 244l-450 493q-201 -101 -275 -205q-73 -104 -73 -231t90 -214t237 -87zM727 1401q-151 0 -229 -95t-78 -219q0 -156 168 -337q233 122 315 210t82 200q1 112 -73 176q-74 65 -185 65zM403 1087q0 131 85 229q86 98 222 99q136 -1 214 -69t78 -187
t-86 -209q-85 -90 -318 -211l446 -487q106 147 203 434l17 -6q-96 -285 -209 -438l217 -238l-15 -10l-213 235q-197 -248 -481 -247q-154 0 -249 92t-95 225t77 239t277 205q-170 178 -170 344z" />
    <glyph glyph-name="quotesingle" unicode="'" horiz-adv-x="376" 
d="M236 911l65 482h16l-67 -482h-14z" />
    <glyph glyph-name="parenleft" unicode="(" horiz-adv-x="671" 
d="M666 1694l10 -8q-268 -331 -345 -509q-138 -309 -149 -672q-3 -158 35 -320t189 -437l-13 -6q-154 282 -192 444t-36 290q8 379 149 706q82 185 352 512z" />
    <glyph glyph-name="parenright" unicode=")" horiz-adv-x="667" 
d="M330 1692q152 -285 190 -445t36 -289q-2 -128 -22 -268t-64 -278q-44 -137 -118 -262t-131 -202t-164 -208l-12 8q106 129 162 206q183 256 254 477q72 221 80 498q3 140 -42 343q-25 114 -111 279q-26 50 -71 135z" />
    <glyph glyph-name="asterisk" unicode="*" horiz-adv-x="878" 
d="M862 1251l-323 -98l155 -264l-16 -10l-152 266l-227 -266l-14 10l231 262l-299 100l6 15l297 -103l45 330h17l-47 -328l325 101z" />
    <glyph glyph-name="plus" unicode="+" horiz-adv-x="983" 
d="M567 1004l-43 -318h314l-4 -16h-314l-45 -320h-16l45 320h-316l5 16h313l45 318h16z" />
    <glyph glyph-name="comma" unicode="," horiz-adv-x="272" 
d="M61 37q25 0 25 -23q0 -10 -12 -34l-109 -216h-16l104 226q-16 6 -16 22q-1 25 24 25z" />
    <glyph glyph-name="hyphen" unicode="-" horiz-adv-x="819" 
d="M184 631l2 16h480l-2 -16h-480z" />
    <glyph glyph-name="period" unicode="." horiz-adv-x="272" 
d="M61 37q25 0 25 -24q0 -23 -25 -23t-24 22q-1 25 24 25z" />
    <glyph glyph-name="slash" unicode="/" horiz-adv-x="1064" 
d="M915 1628l17 -4l-731 -1814l-15 4z" />
    <glyph glyph-name="zero" unicode="0" horiz-adv-x="1101" 
d="M668 1358q-186 0 -306 -174t-163 -496q-18 -135 -19 -264q0 -428 295 -428q188 2 307 176t162 494q18 123 19 260q0 432 -295 432zM668 1374q311 0 311 -450q0 -295 -99 -594q-52 -154 -156 -251t-249 -97q-311 0 -311 444q0 252 61 482q35 132 89 232t146 168
q92 66 208 66z" />
    <glyph glyph-name="one" unicode="1" horiz-adv-x="792" 
d="M627 1352l-191 -1352h-16l186 1333l-399 -235l-6 14l411 240h15z" />
    <glyph glyph-name="two" unicode="2" horiz-adv-x="948" 
d="M567 1374q139 0 221 -82t82 -211q0 -180 -138 -357t-679 -708h688l-4 -16h-708l2 16q414 405 557 564q143 158 184 228q82 141 82 268q0 126 -78 204t-209 78q-190 0 -360 -164l-14 10q179 170 374 170z" />
    <glyph glyph-name="three" unicode="3" horiz-adv-x="964" 
d="M559 1374q139 0 216 -75t77 -205t-89 -245q-89 -114 -253 -126q131 -8 208 -85t77 -221t-99 -281q-49 -70 -138 -112t-205 -42q-115 0 -195 38t-146 127l15 11q63 -88 139 -125t188 -37t199 43q86 43 132 109q93 135 92 276t-84 216t-232 75h-72l2 14h74q178 0 274 116
q97 116 97 246q0 129 -74 199t-203 70q-186 0 -344 -143l-12 10q161 147 356 147z" />
    <glyph glyph-name="four" unicode="4" horiz-adv-x="1015" 
d="M918 412l-3 -17h-192l-57 -395h-17l58 395h-615l2 17l559 962l15 -6l-555 -956h596l63 444h14l-61 -444h193z" />
    <glyph glyph-name="five" unicode="5" horiz-adv-x="964" 
d="M510 842q148 0 228 -85q81 -85 81 -252t-97 -332q-50 -85 -144 -138t-218 -53q-205 0 -319 149l14 10q106 -145 305 -145q98 0 178 36t127 92q96 111 126 266q12 67 12 130q0 145 -77 225t-218 80t-281 -92h-12l84 619h600l-4 -15h-582l-82 -587q131 92 279 92z" />
    <glyph glyph-name="six" unicode="6" horiz-adv-x="1036" 
d="M610 854q-229 0 -428 -274q-10 -98 -10 -168q0 -416 305 -416q113 0 197 57t127 147q82 172 83 337t-71 241t-203 76zM729 1360q-209 0 -351 -209t-194 -545q195 262 426 262q137 0 215 -81t78 -251t-91 -350q-46 -90 -133 -147t-202 -57q-166 0 -244 116t-77 316
q0 84 12 176q50 354 198 569t363 215q121 0 201 -76l-10 -10q-78 72 -191 72z" />
    <glyph glyph-name="seven" unicode="7" horiz-adv-x="888" 
d="M905 1352v-13l-766 -1349l-16 6l762 1341h-684l2 15h702z" />
    <glyph glyph-name="eight" unicode="8" horiz-adv-x="1073" 
d="M478 -2q173 0 295 108t122 275q0 121 -71 189t-240 137l-78 30q-217 -83 -298 -197t-81 -251t89 -214t262 -77zM287 1030q0 -106 53 -168t180 -114l103 -43q181 86 247 180t66 217q0 122 -79 190t-214 68t-246 -94q-110 -95 -110 -236zM911 379q0 -164 -124 -281
q-124 -116 -307 -116t-276 83t-93 222q0 311 378 458q-119 51 -169 117t-50 168q0 148 116 246t257 98t226 -72t85 -198q0 -128 -68 -224t-247 -182q147 -63 209 -134t63 -185z" />
    <glyph glyph-name="nine" unicode="9" horiz-adv-x="1028" 
d="M481 547q254 0 420 256q12 102 12 184q0 373 -292 373q-109 0 -194 -48t-133 -124q-97 -154 -96 -313q2 -159 78 -243t205 -85zM621 1374q309 0 309 -385q0 -795 -750 -1014l-4 15q627 184 723 788q-168 -248 -420 -248q-133 0 -215 90t-82 255q0 164 102 323
q50 78 137 127t200 49z" />
    <glyph glyph-name="colon" unicode=":" horiz-adv-x="272" 
d="M61 37q25 0 25 -24q0 -23 -25 -23t-24 22q-1 25 24 25zM182 907q25 0 25 -22q0 -27 -25 -27t-24 25q-1 24 24 24z" />
    <glyph glyph-name="semicolon" unicode=";" horiz-adv-x="272" 
d="M61 37q25 0 25 -23q0 -10 -12 -34l-109 -216h-16l104 226q-16 6 -16 22q-1 25 24 25zM182 907q25 0 25 -22q0 -27 -25 -27t-24 25q-1 24 24 24z" />
    <glyph glyph-name="less" unicode="&#x3c;" horiz-adv-x="1011" 
d="M895 1008l6 -15l-684 -311l594 -320l-8 -14l-604 328v12z" />
    <glyph glyph-name="equal" unicode="=" horiz-adv-x="985" 
d="M168 514l4 16h643l-2 -16h-645zM213 825l4 17h645l-4 -17h-645z" />
    <glyph glyph-name="greater" unicode="&#x3e;" horiz-adv-x="1015" 
d="M252 1008l608 -320l-2 -12l-698 -328l-6 14l688 320l-598 311z" />
    <glyph glyph-name="question" unicode="?" horiz-adv-x="913" 
d="M385 35q25 0 25 -24q0 -23 -25 -23t-25 24t25 23zM604 1413q119 1 187 -65q67 -66 67 -164t-48 -174t-116 -122t-136 -90q-163 -106 -159 -249q0 -51 19 -115l-15 -4q-20 66 -21 134t46 134q47 64 115 107q67 43 135 89t116 120t48 168t-62 155t-170 61t-188 -37
q-80 -38 -168 -120l-12 10q169 162 362 162z" />
    <glyph glyph-name="at" unicode="@" horiz-adv-x="2088" 
d="M934 49q217 0 348 295l76 553q-102 59 -221 59t-211 -57q-160 -99 -220 -338q-26 -98 -26 -194q0 -156 70 -237t184 -81zM1196 1415q340 0 520 -189t180 -485q0 -252 -97 -470q-48 -107 -132 -175t-177 -68t-141 50q-81 82 -67 237q-133 -283 -348 -282q-121 0 -196 87
q-74 87 -74 271t106 372q52 93 148 151t220 58t238 -67l-76 -543q-20 -147 26 -233t148 -86t185 67q82 67 128 172q95 217 93 459q0 289 -176 474t-508 186q-201 0 -369 -69q-169 -70 -279 -178t-188 -246q-145 -257 -145 -546q0 -340 211 -542t543 -201q203 0 379 64l2 -15
q-180 -66 -381 -65q-338 0 -554 206t-216 551q0 289 147 555q78 141 191 252t283 179t376 69z" />
    <glyph glyph-name="A" unicode="A" horiz-adv-x="1138" 
d="M229 446h658l-199 930zM981 0l-92 430h-668l-211 -430h-16l686 1393h18l299 -1393h-16z" />
    <glyph glyph-name="B" unicode="B" horiz-adv-x="1193" 
d="M524 16q264 0 384 119t120 301q0 137 -95 215t-253 78h-373l-100 -713h317zM682 745q139 0 252 98.5t113 246.5q0 288 -379 288h-271l-88 -633h373zM1044 436q0 -176 -110 -298q-57 -64 -162.5 -101t-249.5 -37h-334l195 1393h283q193 0 295 -74t102 -218.5t-95.5 -245
t-236.5 -118.5q137 -8 225 -86t88 -215z" />
    <glyph glyph-name="C" unicode="C" horiz-adv-x="1089" 
d="M831 1413q178 0 295 -117l-10 -12q-59 57 -123.5 86t-167.5 29q-168 0 -296 -86q-129 -87 -197 -225q-134 -270 -133.5 -545t115 -410t306 -135t349.5 121l10 -15q-166 -123 -363.5 -122.5t-315.5 140.5t-118 422.5t138 555.5q70 139 201.5 226t309.5 87z" />
    <glyph glyph-name="D" unicode="D" horiz-adv-x="1259" 
d="M604 1378h-207l-190 -1362h219q184 0 322 78q140 78 216 208q148 252 148 589q0 291 -161 396q-140 91 -347 91zM606 1393q214 -1 358 -95q164 -108 164 -395q0 -457 -228 -709q-79 -88 -202 -141t-274 -53h-236l195 1393h223z" />
    <glyph glyph-name="E" unicode="E" horiz-adv-x="1013" 
d="M1018 1393l-4 -15h-617l-88 -633h531l-2 -14h-531l-100 -715h637l-2 -16h-654l195 1393h635z" />
    <glyph glyph-name="F" unicode="F" horiz-adv-x="962" 
d="M827 717v-17h-524l-98 -700h-17l195 1393h625l-4 -15h-607l-92 -661h522z" />
    <glyph glyph-name="G" unicode="G" horiz-adv-x="1232" 
d="M827 1413q176 0 316 -115l-10 -12q-135 113 -298.5 113t-288 -81t-197.5 -211q-150 -267 -150 -583q0 -256 118.5 -391t331.5 -135q174 0 344 92l86 602h-305v17h324l-88 -629q-188 -98 -361 -98q-221 0 -344 140t-123 402t107 500t303 335q108 54 235 54z" />
    <glyph glyph-name="H" unicode="H" horiz-adv-x="1343" 
d="M989 0l105 739h-787l-102 -739h-17l195 1393h16l-90 -637h787l90 637h16l-194 -1393h-19z" />
    <glyph glyph-name="I" unicode="I" horiz-adv-x="540" 
d="M399 1393l-194 -1393h-17l195 1393h16z" />
    <glyph glyph-name="J" unicode="J" horiz-adv-x="563" 
d="M434 1393l-170 -1217q-20 -152 -80.5 -228.5t-222.5 -140.5l-4 15q154 61 212 136t79 220l170 1215h16z" />
    <glyph glyph-name="K" unicode="K" horiz-adv-x="1036" 
d="M1100 1393l-762 -643l600 -750h-20l-603 750l762 643h23zM399 1393l-194 -1391h-17l195 1391h16z" />
    <glyph glyph-name="L" unicode="L" horiz-adv-x="915" 
d="M399 1393l-192 -1377h590l-4 -16h-605l195 1393h16z" />
    <glyph glyph-name="M" unicode="M" horiz-adv-x="1554" 
d="M1343 1393l-34 -1393h-17l17 721l18 657l-592 -1204h-18l-256 1204q-10 -45 -38 -152.5t-64.5 -254t-59.5 -236.5l-186 -735h-17l353 1393h26l254 -1198l590 1198h24z" />
    <glyph glyph-name="N" unicode="N" horiz-adv-x="1343" 
d="M1202 1393l-194 -1393h-21l-592 1374q-2 -18 -8 -60t-12 -92.5t-15 -109.5l-155 -1112h-17l195 1393h23l589 -1373l191 1373h16z" />
    <glyph glyph-name="O" unicode="O" horiz-adv-x="1409" 
d="M825 1399q-314 -1 -490 -315q-91 -164 -124 -384q-14 -94 -14 -182q0 -250 113.5 -385t318.5 -135q141 0 253.5 59.5t181.5 152.5t115 213q81 211 81 458.5t-114 382.5t-321 135zM825 1413q215 0 334 -139t119 -417t-136 -555q-70 -142 -202.5 -231t-310.5 -89
q-213 0 -331 140t-118 387t89 473q48 122 120 216t185.5 154.5t250.5 60.5z" />
    <glyph glyph-name="P" unicode="P" horiz-adv-x="1134" 
d="M526 606q150 0 258 40t166 108q108 129 108.5 304t-102 247.5t-315.5 72.5h-244l-108 -772h237zM641 1393q221 0 328.5 -78t107.5 -258q1 -179 -113 -313q-130 -154 -442 -154h-235l-82 -590h-17l195 1393h258z" />
    <glyph glyph-name="Q" unicode="Q" horiz-adv-x="1380" 
d="M629 -2q141 0 253.5 60.5t181.5 152.5t115 214q81 215 81 459.5t-114 379.5t-321 135q-135 0 -245.5 -60.5t-180 -153.5t-116.5 -213q-86 -220 -86 -461t113.5 -377t318.5 -136zM629 -18q-213 0 -331 140t-118 387t89 473q48 122 120 216t185.5 154.5t250.5 60.5
q215 0 334 -139t119 -405.5t-116 -530.5q-60 -135 -175 -230.5t-266 -115.5q160 -2 267.5 -32t187.5 -103l-15 -13q-84 80 -198.5 110t-323.5 28h-10z" />
    <glyph glyph-name="R" unicode="R" horiz-adv-x="1155" 
d="M641 694q207 0 310.5 121t103.5 285q0 279 -383 278h-275l-96 -684h340zM1071 1100q0 -160 -97 -283t-296 -139l297 -678h-19l-297 678h-360l-94 -678h-17l195 1393h287q401 0 401 -293z" />
    <glyph glyph-name="S" unicode="S" horiz-adv-x="1103" 
d="M664 1413q205 0 342 -133l-13 -12q-131 131 -327.5 131t-297 -101.5t-100.5 -223.5t70 -186.5t249 -123.5t260 -138t81 -221q0 -141 -107 -273q-53 -66 -148 -108t-216 -42q-238 0 -385 161l12 13q141 -158 371 -158q119 0 212 41t143 105q101 130 101 262.5t-77.5 207
t-256.5 135t-252 129t-73 190.5t93 228q46 52 129.5 84.5t189.5 32.5z" />
    <glyph glyph-name="T" unicode="T" horiz-adv-x="968" 
d="M1053 1393l-4 -17h-437l-194 -1376h-17l195 1376h-438l2 17h893z" />
    <glyph glyph-name="U" unicode="U" horiz-adv-x="1304" 
d="M577 -18q-214 0 -296 118.5t-54 323.5l138 969h16l-137 -969q-27 -197 51 -311.5t282.5 -114.5t315.5 115.5t137 310.5l137 969h17l-137 -971q-27 -203 -141.5 -321.5t-328.5 -118.5z" />
    <glyph glyph-name="V" unicode="V" horiz-adv-x="1077" 
d="M1130 1393l-653 -1393h-20l-269 1393h17l264 -1377l645 1377h16z" />
    <glyph glyph-name="W" unicode="W" horiz-adv-x="1597" 
d="M1630 1393l-522 -1393h-18l-172 1376l-558 -1376h-20l-131 1393h16l127 -1375l557 1375h21l172 -1375l512 1375h16z" />
    <glyph glyph-name="X" unicode="X" horiz-adv-x="966" 
d="M526 758h-2l330 -758h-16l-326 745l-528 -745h-19l537 758h2l-285 635h19l276 -623l453 623h18z" />
    <glyph glyph-name="Y" unicode="Y" horiz-adv-x="991" 
d="M1063 1393l-555 -838l-78 -555h-16l75 555l-319 838h18l312 -822l542 822h21z" />
    <glyph glyph-name="Z" unicode="Z" horiz-adv-x="1036" 
d="M16 0l2 16l1012 1362h-745l2 15h768l-2 -15l-1014 -1362h788l-2 -16h-809z" />
    <glyph glyph-name="bracketleft" unicode="[" horiz-adv-x="636" 
d="M352 -195v-14h-235l258 1831h235l-2 -14h-219l-256 -1803h219z" />
    <glyph glyph-name="backslash" unicode="\" horiz-adv-x="1064" 
d="M457 1628l221 -1814l-16 -4l-222 1814z" />
    <glyph glyph-name="bracketright" unicode="]" horiz-adv-x="634" 
d="M76 -209v14h223l252 1803h-219v14h237l-258 -1831h-235z" />
    <glyph glyph-name="asciicircum" unicode="^" horiz-adv-x="1079" 
d="M700 1677l265 -598h-21l-256 578l-416 -578h-20l436 598h12z" />
    <glyph glyph-name="underscore" unicode="_" horiz-adv-x="1064" 
d="M2 -186l2 16h862l-2 -16h-862z" />
    <glyph glyph-name="grave" unicode="`" horiz-adv-x="477" 
d="M209 1538l321 -176l-6 -10l-323 168z" />
    <glyph glyph-name="a" unicode="a" horiz-adv-x="1110" 
d="M684 1067q-139 0 -244.5 -66.5t-163.5 -172.5q-112 -208 -112 -449q0 -172 80 -277.5t221 -105.5q217 0 360 260l111 733q-113 78 -252 78zM685 1081q144 0 267 -84l-114 -755q-8 -55 -9 -107q0 -109 82 -141l-6 -12q-70 27 -83 86t-3 157q-66 -119 -159 -181t-195 -62
q-150 0 -234 109.5t-84 287.5q-1 245 117 459q60 108 168.5 175.5t252.5 67.5z" />
    <glyph glyph-name="b" unicode="b" horiz-adv-x="1153" 
d="M717 1065q-129 0 -220 -54.5t-184 -160.5l-108 -787q331 -141 531 3q166 119 230 406q26 114 25 222q0 180 -72.5 275.5t-201.5 95.5zM705 1081q147 0 225 -100t78 -307q0 -206 -110 -436q-54 -112 -155.5 -184t-246 -72t-310.5 71l201 1444l16 2l-86 -629
q176 211 388 211z" />
    <glyph glyph-name="c" unicode="c" horiz-adv-x="956" 
d="M650 1081q159 0 257 -102l-10 -10q-96 96 -248 96q-151 -1 -265 -101q-216 -191 -216 -565q0 -195 89 -299t241 -104t286 104l9 -10q-133 -109 -293 -108.5t-254 109t-94 295.5t53 337.5t169.5 254t275.5 103.5z" />
    <glyph glyph-name="d" unicode="d" horiz-adv-x="1171" 
d="M649 1065q-127 0 -223 -67.5t-148 -175.5q-104 -214 -104 -418.5t79 -306t213 -101.5t228 86t180 242l76 534q-84 207 -301 207zM462 -18q-138 0 -221 104t-83 313t106 431q53 112 152.5 181.5t224.5 69.5t201 -58t110 -142l86 618l17 -2l-209 -1497h-15l39 293
q-82 -145 -176 -228t-232 -83z" />
    <glyph glyph-name="e" unicode="e" horiz-adv-x="1062" 
d="M662 1065q-121 0 -217.5 -58.5t-151.5 -152.5q-109 -186 -125 -395q391 20 581.5 121.5t190.5 265.5q0 102 -78.5 160.5t-199.5 58.5zM956 846q0 -174 -196.5 -277.5t-591.5 -124.5q-2 -18 -2 -51q0 -193 86 -295t240 -102q94 0 167.5 28.5t159.5 92.5l8 -15
q-166 -121 -331.5 -120.5t-255.5 107t-90 298t69 359.5q39 94 95.5 167.5t147.5 120.5t210 47t201.5 -62t82.5 -173z" />
    <glyph glyph-name="f" unicode="f" horiz-adv-x="616" 
d="M636.5 1491q-107.5 0 -176.5 -58.5t-83 -168.5l-29 -203h305l-4 -17h-303l-147 -1040q-25 -178 -81.5 -256t-183.5 -141l-6 12q121 61 176.5 138t79.5 249l146 1038h-189l2 17h189l28 205q16 115 89 177t188 62t219 -75l-10 -13q-102 74 -209.5 74z" />
    <glyph glyph-name="g" unicode="g" horiz-adv-x="1128" 
d="M684 1067q-139 0 -244.5 -63.5t-161.5 -165.5q-110 -199 -110 -435q0 -174 79 -280.5t220 -106.5q219 0 364 271l105 702q-113 78 -252 78zM685 1081q144 0 267 -84l-149 -1015q-31 -207 -127 -292t-262 -85t-312 94l7 14q150 -94 323 -94q301 0 354 361l41 276
q-68 -125 -163 -190.5t-197 -65.5q-150 0 -232.5 111.5t-82.5 291.5q0 243 114 445q58 104 166.5 168.5t252.5 64.5z" />
    <glyph glyph-name="h" unicode="h" horiz-adv-x="1187" 
d="M750 1081q274 0 229 -327l-107 -754h-16l107 754q43 313 -215 313q-133 0 -244 -96.5t-217 -304.5l-92 -666h-17l209 1497l16 2l-110 -799q189 381 457 381z" />
    <glyph glyph-name="i" unicode="i" horiz-adv-x="520" 
d="M342 1061l-147 -1061h-17l148 1061h16zM390 1456q19 0 20 -20q-4 -20 -23 -21q-20 0 -20 23q4 18 23 18z" />
    <glyph glyph-name="j" unicode="j" horiz-adv-x="520" 
d="M342 1061l-147 -1057q-25 -178 -81.5 -256t-183.5 -141l-6 12q121 59 176.5 137t77.5 250l148 1055h16zM390 1456q19 0 20 -20q-4 -20 -23 -21q-20 0 -20 23q4 18 23 18z" />
    <glyph glyph-name="k" unicode="k" horiz-adv-x="1040" 
d="M752 1081q102 0 159.5 -57t57.5 -154q0 -248 -383 -374l258 -496h-19l-262 504q389 123 389 364q0 92 -51 145.5t-149 53.5q-268 0 -471 -451l-86 -616h-17l209 1497l16 2l-118 -844q195 426 467 426z" />
    <glyph glyph-name="l" unicode="l" horiz-adv-x="563" 
d="M301 -4q33 0 86 16l2 -14q-43 -16 -88 -16q-133 0 -115 155l191 1360l16 2l-190 -1362q-20 -141 98 -141z" />
    <glyph glyph-name="m" unicode="m" horiz-adv-x="1728" 
d="M1321 1081q119 0 169 -86t28 -241l-105 -754h-16l104 754q23 150 -24 231.5t-158 81.5q-238 0 -422 -393l-94 -674h-17l107 754q20 150 -26 231.5t-156 81.5q-238 0 -424 -401l-92 -666h-17l148 1061h14l-47 -361q174 381 418 381q119 0 170 -86t28 -241l-6 -43
q172 370 418 370z" />
    <glyph glyph-name="n" unicode="n" horiz-adv-x="1187" 
d="M754 1081q133 0 190 -86t35 -241l-107 -754h-16l107 754q43 313 -209 313q-135 0 -248 -96.5t-219 -304.5l-92 -666h-17l148 1061h14l-47 -361q193 381 461 381z" />
    <glyph glyph-name="o" unicode="o" horiz-adv-x="1144" 
d="M664.5 1065q-144.5 0 -242.5 -66.5t-152 -172.5q-104 -206 -104 -413.5t86 -312t230.5 -104.5t243.5 68q100 68 152 174q102 206 101.5 414t-85.5 310.5t-229.5 102.5zM666.5 1081q148.5 0 239.5 -106.5t91 -318.5t-107 -428q-54 -110 -156.5 -178t-252 -68t-240.5 108.5
t-91 322.5q0 213 108 425q55 108 157.5 175.5t251 67.5z" />
    <glyph glyph-name="p" unicode="p" horiz-adv-x="1163" 
d="M714 1065q-129 0 -218.5 -54.5t-182.5 -160.5l-110 -787q141 -68 287.5 -67.5t243.5 70.5q96 72 150 182q106 220 106.5 423t-73.5 298.5t-203 95.5zM702 1081q150 0 228 -100t78 -308q0 -207 -111 -435q-55 -112 -156.5 -184t-250 -72t-289.5 65l-62 -436l-16 -2
l203 1452h14l-25 -191q172 211 387 211z" />
    <glyph glyph-name="q" unicode="q" horiz-adv-x="1128" 
d="M684 1067q-139 0 -244.5 -66.5t-163.5 -172.5q-112 -208 -112 -449q0 -172 80 -277.5t221 -105.5q221 0 364 264l107 729q-113 78 -252 78zM685 1081q144 0 267 -84l-200 -1386l-17 -2l90 620q-68 -121 -163 -184t-197 -63q-150 0 -234 109.5t-84 287.5q-1 245 117 459
q60 108 168.5 175.5t252.5 67.5z" />
    <glyph glyph-name="r" unicode="r" horiz-adv-x="739" 
d="M674 1081q37 0 94 -14l-4 -14q-45 12 -90 12q-127 0 -216 -83t-165 -282l-98 -700h-17l148 1061h14l-43 -322q70 184 159 263t218 79z" />
    <glyph glyph-name="s" unicode="s" horiz-adv-x="937" 
d="M530 1081q182 0 297 -108l-12 -10q-109 102 -265 102t-247.5 -67.5t-91.5 -167.5q1 -100 59 -154t214 -104t219 -113.5t63 -169.5q0 -139 -102.5 -223t-268.5 -84q-205 0 -340 135l8 10q137 -131 332 -131q152 0 253.5 78t101.5 215q0 102 -59.5 160.5t-216.5 109.5
t-219 109.5t-62 148.5q0 119 98 191.5t239 72.5z" />
    <glyph glyph-name="t" unicode="t" horiz-adv-x="661" 
d="M379 -4q96 0 196 57l7 -14q-106 -57 -206.5 -57t-149 65.5t-29.5 185.5l112 811h-178l2 17h178l41 272h15l-39 -272h297l-4 -17h-295l-113 -808q-16 -115 27 -177.5t139 -62.5z" />
    <glyph glyph-name="u" unicode="u" horiz-adv-x="1177" 
d="M452 -18q-134 0 -199 84t-44 241l104 754h17l-105 -754q-20 -152 40.5 -231.5t191.5 -79.5t241.5 97t188.5 278l96 690h16l-147 -1061h-14l47 340q-74 -172 -186.5 -265t-246.5 -93z" />
    <glyph glyph-name="v" unicode="v" horiz-adv-x="899" 
d="M915 1061l-520 -1061h-20l-244 1061h19l237 -1047l510 1047h18z" />
    <glyph glyph-name="w" unicode="w" horiz-adv-x="1380" 
d="M1378 1061l-434 -1061h-20l-160 1042l-453 -1042h-20l-139 1061h16l135 -1045l453 1045h20l160 -1045l426 1045h16z" />
    <glyph glyph-name="x" unicode="x" horiz-adv-x="874" 
d="M848 1061l-399 -492l305 -569h-19l-297 559l-446 -559h-19l457 569l-254 492h17l247 -481l389 481h19z" />
    <glyph glyph-name="y" unicode="y" horiz-adv-x="894" 
d="M911 1061l-512 -1063q-94 -186 -169.5 -265t-235.5 -124v14q154 43 225.5 118t163.5 259h-10l-242 1061h19l237 -1049l508 1049h16z" />
    <glyph glyph-name="z" unicode="z" horiz-adv-x="839" 
d="M834 1061l-3 -14l-811 -1031h648l-4 -16h-668l2 14l813 1030h-608l2 17h629z" />
    <glyph glyph-name="braceleft" unicode="{" horiz-adv-x="669" 
d="M639 1661v-12q-162 0 -188 -191l-80 -575q-25 -162 -181 -168q152 -6 132 -168l-82 -578q-27 -188 135 -188v-12q-174 0 -150 198l82 586q12 78 -25 116q-38 38 -112 38l4 16q156 0 180 156l82 585q27 197 203 197z" />
    <glyph glyph-name="bar" unicode="|" horiz-adv-x="856" 
d="M592 1638l-256 -1837h-17l256 1837h17z" />
    <glyph glyph-name="braceright" unicode="}" horiz-adv-x="667" 
d="M82 -231v12q162 0 188 190l80 576q20 162 178 168q-154 6 -129 168l80 577q27 188 -133 189v12q174 0 150 -199l-82 -585q-12 -78 24 -116t111 -38l-2 -16q-158 0 -180 -156l-82 -586q-29 -196 -203 -196z" />
    <glyph glyph-name="asciitilde" unicode="~" horiz-adv-x="931" 
d="M625 590q-51 0 -141 56t-140 56q-80 0 -154 -90l-10 9q74 98 164 98q55 0 145 -56t136 -57q78 0 151 88l12 -8q-73 -96 -163 -96z" />
    <glyph glyph-name="uni00A0" unicode="&#xa0;" horiz-adv-x="626" 
 />
    <glyph glyph-name="exclamdown" unicode="&#xa1;" horiz-adv-x="481" 
d="M252 518l-129 -905h-17l130 905h16zM295 905q25 0 24 -22q-1 -25 -25 -25t-24 24t25 23z" />
    <glyph glyph-name="cent" unicode="&#xa2;" horiz-adv-x="956" 
d="M653 1081q156 0 254 -102l-10 -10q-96 96 -248 96q-151 0 -265 -100q-216 -190 -216 -566q0 -195 89 -299t241 -104t286 104l9 -10q-133 -109 -293 -108h-13l-38 -279h-17l39 279q-147 10 -233 118t-86 289q0 383 215 581q113 103 268 109l41 299h14l-41 -297h4z" />
    <glyph glyph-name="sterling" unicode="&#xa3;" horiz-adv-x="1013" 
d="M734 1374q158 0 251 -129l-14 -8q-83 121 -235 121t-238 -90t-107 -234l-43 -301h432l-2 -14h-432l-63 -467q-13 -98 -57 -150t-132 -86h707l-4 -16h-731v16q96 37 141 88t59 148l64 467h-119v14h121l43 303q20 150 110 244q91 94 249 94z" />
    <glyph glyph-name="currency" unicode="&#xa4;" 
d="M246 694q0 -147 93 -241q93 -95 233 -95t234 94t93 242q0 146 -90 244q-89 98 -235 98t-237 -98t-91 -244zM915 690q0 -154 -104 -254l162 -160l-12 -10l-162 160q-95 -84 -227 -84t-226 82l-160 -158l-12 10l162 158q-106 100 -106 257t98 259l-154 158l12 10l154 -157
q94 90 233 90t234 -90l154 157l12 -10l-154 -158q96 -106 96 -260z" />
    <glyph glyph-name="yen" unicode="&#xa5;" horiz-adv-x="970" 
d="M782 659v-16h-272l-35 -260h268l-2 -16h-270l-49 -367h-19l52 367h-265l3 16h264l37 260h-265l2 16h258l-325 693h20l320 -688l512 688h20l-518 -693h264z" />
    <glyph glyph-name="brokenbar" unicode="&#xa6;" horiz-adv-x="858" 
d="M438 537l-100 -736h-16l100 736h16zM594 1638l-105 -731h-16l105 731h16z" />
    <glyph glyph-name="section" unicode="&#xa7;" horiz-adv-x="1087" 
d="M862 607q0 85 -55 145t-159 97q-104 38 -169 75q-131 -76 -180 -141t-49 -147t60 -140q60 -56 175 -98t166 -72q119 64 165 130t46 151zM674 1358q-148 0 -226 -74q-80 -74 -80 -160t58 -142q56 -56 196 -106t198 -113t58 -155t-48 -161q-50 -69 -164 -130
q100 -68 100 -176t-83 -187t-248 -79t-288 86l11 14q110 -84 276 -84t241 76t75 163t-56 143q-56 57 -194 105q-139 48 -203 107q-63 59 -63 147t50 156t183 144q-115 74 -115 181t87 184t235 77t276 -84l-10 -14q-118 82 -266 82z" />
    <glyph glyph-name="dieresis" unicode="&#xa8;" horiz-adv-x="481" 
d="M523 1427q19 0 20 -20q-4 -20 -23 -21q-20 0 -20 23q4 18 23 18zM208 1427q19 0 17 -20t-20 -21q-20 0 -21 23q5 18 24 18z" />
    <glyph glyph-name="copyright" unicode="&#xa9;" horiz-adv-x="1658" 
d="M829 1235q98 0 160 -55l-8 -13q-63 53 -153 53t-169 -82q-77 -83 -77 -239t70 -244t176 -88q105 0 176 60l8 -13q-76 -63 -187 -63t-185 93t-75 255q0 162 83 249t181 87zM1366 893q0 247 -150 401t-386 154q-234 0 -386 -157t-152 -403t152 -400q150 -154 384 -154
t386 156t152 403zM830 1462q241 0 397 -160q155 -160 155 -409q0 -250 -156 -412t-398 -162q-240 0 -396 160t-156 410q0 249 156 411t398 162z" />
    <glyph glyph-name="ordfeminine" unicode="&#xaa;" horiz-adv-x="1024" 
d="M113 0l4 16h643l-2 -16h-645zM600 1038q-166 0 -258 -72t-92 -198q0 -84 53 -134t150 -50q188 0 305 176l39 278h-197zM752 664q0 33 4 71q-113 -166 -303 -166q-103 1 -161 55t-59 144q-1 133 99 209t266 76h201l14 100q4 41 4 59q0 166 -196 166q-111 0 -246 -51l-2 14
q135 52 248 52q213 0 213 -181q0 -16 -5 -57l-55 -401q-39 -144 57 -172l-4 -13q-75 19 -75 95z" />
    <glyph glyph-name="guillemotleft" unicode="&#xab;" horiz-adv-x="1071" 
d="M842 1018l12 -8l-350 -420l235 -418l-14 -8l-240 420v12zM649 1018l13 -8l-351 -420l234 -418l-13 -8l-241 420l2 12z" />
    <glyph glyph-name="logicalnot" unicode="&#xac;" horiz-adv-x="1003" 
d="M854 664l-33 -234h-18l31 219h-648l4 15h664z" />
    <glyph glyph-name="uni00AD" unicode="&#xad;" horiz-adv-x="819" 
d="M184 631l2 16h480l-2 -16h-480z" />
    <glyph glyph-name="registered" unicode="&#xae;" horiz-adv-x="1300" 
d="M526 1024h136q63 0 102 33t39 98q0 137 -174 137h-103v-268zM819 1155q0 -65 -37 -101t-96 -44l154 -252h-21l-149 252h-144v-250h-16v549h117q192 0 192 -154zM654 606q190 0 302 122t113 301q0 179 -117 298q-116 119 -306 119t-302 -122t-113 -301q0 -179 117 -298
q116 -119 306 -119zM217 1023q1 185 117 311t312 126t317 -123t121 -308t-118 -311q-116 -126 -312 -126t-316 123q-121 123 -121 308z" />
    <glyph glyph-name="macron" unicode="&#xaf;" horiz-adv-x="522" 
d="M584 1409h-400l2 16h400z" />
    <glyph glyph-name="degree" unicode="&#xb0;" horiz-adv-x="1067" 
d="M502 872q110 0 188 72q76 72 92 190t-40 192t-166 73q-110 0 -190 -75q-81 -74 -96 -190q-14 -116 44 -189t168 -73zM502 856q-118 0 -182 78t-48 201t102 201t204 77q116 0 176 -78q60 -79 45 -203q-16 -124 -98 -200t-199 -76z" />
    <glyph glyph-name="plusminus" unicode="&#xb1;" horiz-adv-x="987" 
d="M96 0l4 16h643l-4 -16h-643zM569 1004l-43 -318h314l-4 -16h-314l-45 -320h-16l45 320h-313l4 16h313l43 318h16z" />
    <glyph glyph-name="uni00B2" unicode="&#xb2;" horiz-adv-x="819" 
d="M469 1505q100 0 148 -60t34 -165t-92 -198q-79 -94 -237 -244t-179 -170l445 2l-4 -17h-463v17q328 307 414 407q86 99 100 201t-29 158t-137 55q-127 0 -233 -107l-13 11q115 110 246 110z" />
    <glyph glyph-name="uni00B3" unicode="&#xb3;" horiz-adv-x="819" 
d="M460 1507q114 0 164 -57q52 -57 40 -147q-12 -89 -74 -141t-144 -60q94 -4 146 -60t37 -162q-14 -105 -93 -172t-207 -67t-208 104l14 9q74 -98 198 -98q123 0 195 65q72 66 85 166t-40 153t-163 54h-48l5 14h47q84 0 152 51t80 141q11 90 -35 140q-45 51 -153 51
t-210 -86l-8 10q106 92 220 92z" />
    <glyph glyph-name="acute" unicode="&#xb4;" horiz-adv-x="479" 
d="M549 1538l6 -18l-373 -168l-4 12z" />
    <glyph glyph-name="uni00B5" unicode="&#xb5;" horiz-adv-x="1189" 
d="M449 -18q-219 0 -230 200q-8 -57 -21 -155t-22 -148l-37 -270h-16l203 1452h16l-109 -782q-23 -147 39 -215t184 -68t232 86t189 231l104 748h16l-100 -727q-25 -162 8 -334l-14 -2q-31 147 -14 291q-170 -307 -428 -307z" />
    <glyph glyph-name="paragraph" unicode="&#xb6;" horiz-adv-x="1400" 
d="M815 1393l330 2l-250 -1786l-16 -2l247 1773l-299 -2l-247 -1769l-17 -2l144 1028q-154 2 -246 56t-121 136t-14 189q26 178 158 278t331 99z" />
    <glyph glyph-name="periodcentered" unicode="&#xb7;" horiz-adv-x="272" 
d="M154 696q24 0 24 -24t-24 -25q-24 1 -25 25q0 24 25 24z" />
    <glyph glyph-name="cedilla" unicode="&#xb8;" horiz-adv-x="401" 
d="M227 -283q0 -57 -45 -97t-122 -40t-128 35l9 12q45 -33 119 -33t111 36q38 36 39 88t-40 77t-131 27l35 174h14l-31 -160q170 -6 170 -119z" />
    <glyph glyph-name="uni00B9" unicode="&#xb9;" horiz-adv-x="819" 
d="M586 1491l-117 -838h-16l114 820l-256 -142l-6 12l268 148h13z" />
    <glyph glyph-name="ordmasculine" unicode="&#xba;" horiz-adv-x="1024" 
d="M115 0l4 16h643l-2 -16h-645zM899 1083q1 141 -69 218t-184 77q-288 0 -374 -331q-20 -82 -20 -162q0 -145 69 -223t184 -78q291 0 375 341q19 81 19 158zM233 896q0 164 88 320q44 78 125 128q82 50 202 49q120 0 194 -81t74 -244t-86 -315q-44 -81 -126 -132t-202 -51
q-121 0 -195 81q-74 82 -74 245z" />
    <glyph glyph-name="guillemotright" unicode="&#xbb;" horiz-adv-x="1054" 
d="M279 1018l237 -422v-12l-358 -420l-11 8l351 418l-232 420zM629 1018l237 -422v-12l-358 -420l-10 8l350 418l-232 420z" />
    <glyph glyph-name="onequarter" unicode="&#xbc;" horiz-adv-x="1798" 
d="M1618 258v-16h-125l-35 -242h-14l33 242h-398v16l363 596l14 -6l-358 -590h381l41 272h14l-39 -272h123zM389 555l115 819l-256 -141l-6 12l268 148h12l-116 -838h-17zM1444 1507l14 -6l-1059 -1638l-14 6z" />
    <glyph glyph-name="onehalf" unicode="&#xbd;" horiz-adv-x="1798" 
d="M1432 852q100 0 148 -60t34 -165t-92 -198t-357 -357q-39 -37 -59 -58l444 2l-4 -16h-463v16q328 308 414 408t100 202t-28 156q-43 55 -137 56q-127 0 -234 -107l-12 10q115 111 246 111zM522 1393l-116 -838h-17l115 819l-256 -141l-6 12l268 148h12zM1444 1507l14 -6
l-1059 -1638l-14 6z" />
    <glyph glyph-name="threequarters" unicode="&#xbe;" horiz-adv-x="1798" 
d="M1618 258v-16h-125l-35 -242h-14l33 242h-398v16l363 596l14 -6l-358 -590h381l41 272h14l-39 -272h123zM319 557q123 0 195 66q72 65 85 165t-41 154t-163 53h-47l4 15h47q84 0 153 51t80 140t-35 140q-45 51 -153 51t-211 -85l-8 10q106 92 220 92t165 -57
q51 -58 39 -148q-11 -90 -73 -141t-144 -59q94 -4 145 -61t37 -162t-93 -172t-191 -66q-143 0 -224 104l15 8q74 -98 198 -98zM1444 1507l14 -6l-1059 -1638l-14 6z" />
    <glyph glyph-name="questiondown" unicode="&#xbf;" horiz-adv-x="913" 
d="M292 -399q-112 1 -180 67t-67 163q0 97 48 173t116 122q67 46 135 90q162 105 162 249q0 55 -21 117l17 2q20 -66 20 -134t-47 -132t-115 -108t-136 -89t-114 -120q-48 -75 -48 -169t62 -156q64 -62 172 -61q108 0 186 37q79 37 167 121l13 -9q-88 -86 -172 -124
q-86 -38 -198 -39zM518 979q-25 0 -24 25q0 25 26 24q23 0 23 -24t-25 -25z" />
    <glyph glyph-name="Agrave" unicode="&#xc0;" horiz-adv-x="1138" 
d="M229 446h658l-199 930zM981 0l-92 430h-668l-211 -430h-16l686 1393h18l299 -1393h-16zM895 1587l-8 -12l-328 143l10 19z" />
    <glyph glyph-name="Aacute" unicode="&#xc1;" horiz-adv-x="1138" 
d="M229 446h658l-199 930zM981 0l-92 430h-668l-211 -430h-16l686 1393h18l299 -1393h-16zM913 1718l-368 -143l-4 12l364 150z" />
    <glyph glyph-name="Acircumflex" unicode="&#xc2;" horiz-adv-x="1138" 
d="M229 446h658l-199 930zM981 0l-92 430h-668l-211 -430h-16l686 1393h18l299 -1393h-16zM731 1735l-244 -160l-10 10l252 168h10l207 -168l-10 -10z" />
    <glyph glyph-name="Atilde" unicode="&#xc3;" horiz-adv-x="1138" 
d="M229 446h658l-199 930zM981 0l-92 430h-668l-211 -430h-16l686 1393h18l299 -1393h-16zM623 1751q-63 0 -140 -74l-4 4q76 78 144 78q37 0 107 -45q72 -45 128 -45t129 82l4 -4q-72 -86 -131 -86t-129.5 45t-107.5 45z" />
    <glyph glyph-name="Adieresis" unicode="&#xc4;" horiz-adv-x="1138" 
d="M229 446h658l-199 930zM981 0l-92 430h-668l-211 -430h-16l686 1393h18l299 -1393h-16zM886 1645q-19 0 -20 22q4 18 23 19q20 0 20 -21q-4 -20 -23 -20zM570 1645q-19 0 -19 22q4 18 22 19q20 0 21 -21q-5 -20 -24 -20z" />
    <glyph glyph-name="Aring" unicode="&#xc5;" horiz-adv-x="1138" 
d="M229 446h658l-199 930zM981 0l-92 430h-668l-211 -430h-16l686 1393h18l299 -1393h-16zM722 1608q58 0 96 35.5t44 93.5q10 121 -106 121q-59 0 -97.5 -37.5t-44.5 -93.5t22 -87.5t86 -31.5zM720.5 1593q-65.5 0 -97 37t-25.5 99.5t50 102.5t107.5 40t95.5 -37t26 -99.5
t-48.5 -102.5t-108 -40z" />
    <glyph glyph-name="AE" unicode="&#xc6;" horiz-adv-x="1540" 
d="M823 430l-116 950l-500 -950h616zM1446 1378h-723l78 -633h540l-2 -14h-536l88 -715h479l-4 -16h-492l-49 414h-626l-217 -414h-19l733 1393h754z" />
    <glyph glyph-name="Ccedilla" unicode="&#xc7;" horiz-adv-x="1089" 
d="M825 1399q-168 0 -296 -86q-129 -87 -197 -225q-134 -270 -133.5 -545t115 -410t306 -135t349.5 121l10 -15q-166 -123 -350 -122l-29 -146q170 -6 170 -119q0 -57 -45 -97t-121 -40t-129 35l8 12q45 -33 119 -33t112 36t39 88t-40 77t-131 27l32 160q-201 4 -316.5 143
t-115.5 420t138 555q70 139 201.5 226t309.5 87t295 -117l-10 -12q-59 57 -124 86t-167 29z" />
    <glyph glyph-name="Egrave" unicode="&#xc8;" horiz-adv-x="1013" 
d="M1018 1393l-4 -15h-617l-88 -633h531l-2 -14h-531l-100 -715h637l-2 -16h-654l195 1393h635zM584 1737l325 -150l-8 -12l-328 143z" />
    <glyph glyph-name="Eacute" unicode="&#xc9;" horiz-adv-x="1013" 
d="M1018 1393l-4 -15h-617l-88 -633h531l-2 -14h-531l-100 -715h637l-2 -16h-654l195 1393h635zM920 1737l8 -19l-369 -143l-4 12z" />
    <glyph glyph-name="Ecircumflex" unicode="&#xca;" horiz-adv-x="1013" 
d="M1018 1393l-4 -15h-617l-88 -633h531l-2 -14h-531l-100 -715h637l-2 -16h-654l195 1393h635zM950 1575l-205 160l-243 -160l-10 10l251 168h11l207 -168z" />
    <glyph glyph-name="Edieresis" unicode="&#xcb;" horiz-adv-x="1013" 
d="M1018 1393l-4 -15h-617l-88 -633h531l-2 -14h-531l-100 -715h637l-2 -16h-654l195 1393h635zM902 1686q19 0 20 -21q-4 -20 -23.5 -20t-19.5 22q4 19 23 19zM587 1686q19 0 19 -21q-4 -20 -23 -20t-20 22q5 19 24 19z" />
    <glyph glyph-name="Igrave" unicode="&#xcc;" horiz-adv-x="540" 
d="M399 1393l-194 -1393h-17l195 1393h16zM270 1737l326 -150l-8 -12l-328 143z" />
    <glyph glyph-name="Iacute" unicode="&#xcd;" horiz-adv-x="540" 
d="M399 1393l-194 -1393h-17l195 1393h16zM606 1737l8 -19l-368 -143l-4 12z" />
    <glyph glyph-name="Icircumflex" unicode="&#xce;" horiz-adv-x="540" 
d="M399 1393l-194 -1393h-17l195 1393h16zM637 1575l-205 160l-244 -160l-10 10l252 168h10l207 -168z" />
    <glyph glyph-name="Idieresis" unicode="&#xcf;" horiz-adv-x="540" 
d="M399 1393l-194 -1393h-17l195 1393h16zM589 1686q19 0 19 -21q-4 -20 -23 -20t-20 22q5 19 24 19zM273 1686q19 0 20 -21q-4 -20 -23.5 -20t-19.5 22q4 19 23 19z" />
    <glyph glyph-name="Eth" unicode="&#xd0;" horiz-adv-x="1243" 
d="M410 16q184 0 321 78t214 208q149 252 149 589q0 291 -160 396q-138 91 -346 91h-207l-90 -647h403l-2 -16h-403l-99 -699h220zM590 1393q212 -1 357 -95q165 -108 165 -395q0 -457 -228 -709q-79 -88 -202 -141t-274 -53h-238l100 715h-184v16h186l95 662h223z" />
    <glyph glyph-name="Ntilde" unicode="&#xd1;" horiz-adv-x="1343" 
d="M1202 1393l-194 -1393h-21l-592 1374q-2 -18 -8 -60t-12 -92.5t-15 -109.5l-155 -1112h-17l195 1393h23l589 -1373l191 1373h16zM973.5 1661q-59.5 0 -130.5 45t-108 45q-63 0 -139 -74l-4 4q76 78 143 78q37 0 107.5 -45t127.5 -45t130 82l4 -4q-71 -86 -130.5 -86z" />
    <glyph glyph-name="Ograve" unicode="&#xd2;" horiz-adv-x="1409" 
d="M825 1399q-314 -1 -490 -315q-91 -164 -124 -384q-14 -94 -14 -182q0 -250 113.5 -385t318.5 -135q141 0 253.5 59.5t181.5 152.5t115 213q81 211 81 458.5t-114 382.5t-321 135zM825 1413q215 0 334 -139t119 -417t-136 -555q-70 -142 -202.5 -231t-310.5 -89
q-213 0 -331 140t-118 387t89 473q48 122 120 216t185.5 154.5t250.5 60.5zM702 1737l326 -150l-8 -12l-328 143z" />
    <glyph glyph-name="Oacute" unicode="&#xd3;" horiz-adv-x="1409" 
d="M825 1399q-314 -1 -490 -315q-91 -164 -124 -384q-14 -94 -14 -182q0 -250 113.5 -385t318.5 -135q141 0 253.5 59.5t181.5 152.5t115 213q81 211 81 458.5t-114 382.5t-321 135zM825 1413q215 0 334 -139t119 -417t-136 -555q-70 -142 -202.5 -231t-310.5 -89
q-213 0 -331 140t-118 387t89 473q48 122 120 216t185.5 154.5t250.5 60.5zM1038 1737l9 -19l-369 -143l-4 12z" />
    <glyph glyph-name="Ocircumflex" unicode="&#xd4;" horiz-adv-x="1409" 
d="M825 1399q-314 -1 -490 -315q-91 -164 -124 -384q-14 -94 -14 -182q0 -250 113.5 -385t318.5 -135q141 0 253.5 59.5t181.5 152.5t115 213q81 211 81 458.5t-114 382.5t-321 135zM825 1413q215 0 334 -139t119 -417t-136 -555q-70 -142 -202.5 -231t-310.5 -89
q-213 0 -331 140t-118 387t89 473q48 122 120 216t185.5 154.5t250.5 60.5zM1067 1575l-205 160l-244 -160l-10 10l252 168h10l207 -168z" />
    <glyph glyph-name="Otilde" unicode="&#xd5;" horiz-adv-x="1409" 
d="M825 1399q-314 -1 -490 -315q-91 -164 -124 -384q-14 -94 -14 -182q0 -250 113.5 -385t318.5 -135q141 0 253.5 59.5t181.5 152.5t115 213q81 211 81 458.5t-114 382.5t-321 135zM825 1413q215 0 334 -139t119 -417t-136 -555q-70 -142 -202.5 -231t-310.5 -89
q-213 0 -331 140t-118 387t89 473q48 122 120 216t185.5 154.5t250.5 60.5zM991.5 1661q-59.5 0 -130 45t-107.5 45q-63 0 -140 -74l-4 4q76 78 144 78q37 0 107.5 -45t127 -45t129.5 82l4 -4q-71 -86 -130.5 -86z" />
    <glyph glyph-name="Odieresis" unicode="&#xd6;" horiz-adv-x="1409" 
d="M825 1399q-314 -1 -490 -315q-91 -164 -124 -384q-14 -94 -14 -182q0 -250 113.5 -385t318.5 -135q141 0 253.5 59.5t181.5 152.5t115 213q81 211 81 458.5t-114 382.5t-321 135zM825 1413q215 0 334 -139t119 -417t-136 -555q-70 -142 -202.5 -231t-310.5 -89
q-213 0 -331 140t-118 387t89 473q48 122 120 216t185.5 154.5t250.5 60.5zM1021 1686q19 0 19 -21q-4 -20 -23 -20t-20 22q5 19 24 19zM706 1686q19 0 19 -21q-4 -20 -23.5 -20t-19.5 22q5 19 24 19z" />
    <glyph glyph-name="multiply" unicode="&#xd7;" horiz-adv-x="983" 
d="M811 915l12 -10l-305 -274l230 -277l-13 -10l-231 274l-305 -274l-13 10l308 277l-232 274l14 10l230 -274z" />
    <glyph glyph-name="Oslash" unicode="&#xd8;" horiz-adv-x="1409" 
d="M647.5 -2q122.5 0 235 60.5t181.5 152.5t115 214q81 215 81 454q0 373 -240 481l-574 -1329q79 -33 201.5 -33zM197 520q0 -371 237 -483l574 1329q-86 33 -202 33t-226.5 -60.5t-180 -153.5t-116.5 -213q-86 -220 -86 -452zM1278 877q0 -298 -136 -575
q-70 -142 -202.5 -231t-310.5 -89q-102 0 -189 34l-100 -231l-16 4l104 234q-248 115 -248 495q0 238 89 464q48 122 120 216t185.5 154.5t236.5 60.5t203 -33l104 238l12 -4l-104 -240q252 -117 252 -497z" />
    <glyph glyph-name="Ugrave" unicode="&#xd9;" horiz-adv-x="1304" 
d="M577 -18q-214 0 -296 118.5t-54 323.5l138 969h16l-137 -969q-27 -197 51 -311.5t282.5 -114.5t315.5 115.5t137 310.5l137 969h17l-137 -971q-27 -203 -141.5 -321.5t-328.5 -118.5zM653 1737l326 -150l-8 -12l-328 143z" />
    <glyph glyph-name="Uacute" unicode="&#xda;" horiz-adv-x="1304" 
d="M577 -18q-214 0 -296 118.5t-54 323.5l138 969h16l-137 -969q-27 -197 51 -311.5t282.5 -114.5t315.5 115.5t137 310.5l137 969h17l-137 -971q-27 -203 -141.5 -321.5t-328.5 -118.5zM989 1737l8 -19l-368 -143l-4 12z" />
    <glyph glyph-name="Ucircumflex" unicode="&#xdb;" horiz-adv-x="1304" 
d="M577 -18q-214 0 -296 118.5t-54 323.5l138 969h16l-137 -969q-27 -197 51 -311.5t282.5 -114.5t315.5 115.5t137 310.5l137 969h17l-137 -971q-27 -203 -141.5 -321.5t-328.5 -118.5zM1020 1575l-205 160l-244 -160l-10 10l252 168h10l207 -168z" />
    <glyph glyph-name="Udieresis" unicode="&#xdc;" horiz-adv-x="1304" 
d="M577 -18q-214 0 -296 118.5t-54 323.5l138 969h16l-137 -969q-27 -197 51 -311.5t282.5 -114.5t315.5 115.5t137 310.5l137 969h17l-137 -971q-27 -203 -141.5 -321.5t-328.5 -118.5zM972 1686q19 0 19 -21q-4 -20 -23 -20t-20 22q5 19 24 19zM656 1686q19 0 20 -21
q-4 -20 -23.5 -20t-19.5 22q4 19 23 19z" />
    <glyph glyph-name="Yacute" unicode="&#xdd;" horiz-adv-x="991" 
d="M1063 1393l-555 -838l-78 -555h-16l75 555l-319 838h18l312 -822l542 822h21zM831 1737l9 -19l-369 -143l-4 12z" />
    <glyph glyph-name="Thorn" unicode="&#xde;" horiz-adv-x="1134" 
d="M485 328q152 0 261.5 40t167.5 108q108 129 108 307.5t-102.5 254.5t-317.5 76h-242l-110 -786h235zM606 1128q221 0 326.5 -79.5t105.5 -264.5t-112 -320q-60 -71 -173.5 -112t-269.5 -41h-235l-43 -311h-17l195 1393h16l-37 -265h244z" />
    <glyph glyph-name="germandbls" unicode="&#xdf;" horiz-adv-x="1169" 
d="M684 844q0 -45 34 -86t82 -79t97 -84t82 -119t33 -154q0 -82 -30 -154t-110 -130t-200 -58t-211 57l8 12q88 -53 211 -53q158 0 236 102t79 202q0 182 -115 290q-48 45 -96 83q-117 92 -117 174q1 82 107 155q45 32 90 68q107 86 107 220q-1 88 -63 144t-173 55
q-150 0 -255 -101t-130 -282l-155 -1102q-25 -178 -81 -256t-184 -141l-6 12q121 61 176 138t80 249l154 1102q27 186 137 291q111 104 264 104q117 0 185 -59q68 -60 68 -144q-1 -148 -107 -234q-45 -36 -90 -68t-76 -70t-31 -84z" />
    <glyph glyph-name="agrave" unicode="&#xe0;" horiz-adv-x="1110" 
d="M684 1067q-139 0 -244.5 -66.5t-163.5 -172.5q-112 -208 -112 -449q0 -172 80 -277.5t221 -105.5q217 0 360 260l111 733q-113 78 -252 78zM685 1081q144 0 267 -84l-114 -755q-8 -55 -9 -107q0 -109 82 -141l-6 -12q-70 27 -83 86t-3 157q-66 -119 -159 -181t-195 -62
q-150 0 -234 109.5t-84 287.5q-1 245 117 459q60 108 168.5 175.5t252.5 67.5zM606 1538l322 -176l-6 -10l-324 168z" />
    <glyph glyph-name="aacute" unicode="&#xe1;" horiz-adv-x="1110" 
d="M684 1067q-139 0 -244.5 -66.5t-163.5 -172.5q-112 -208 -112 -449q0 -172 80 -277.5t221 -105.5q217 0 360 260l111 733q-113 78 -252 78zM685 1081q144 0 267 -84l-114 -755q-8 -55 -9 -107q0 -109 82 -141l-6 -12q-70 27 -83 86t-3 157q-66 -119 -159 -181t-195 -62
q-150 0 -234 109.5t-84 287.5q-1 245 117 459q60 108 168.5 175.5t252.5 67.5zM926 1538l6 -18l-373 -168l-4 12z" />
    <glyph glyph-name="acircumflex" unicode="&#xe2;" horiz-adv-x="1110" 
d="M684 1067q-139 0 -244.5 -66.5t-163.5 -172.5q-112 -208 -112 -449q0 -172 80 -277.5t221 -105.5q217 0 360 260l111 733q-113 78 -252 78zM685 1081q144 0 267 -84l-114 -755q-8 -55 -9 -107q0 -109 82 -141l-6 -12q-70 27 -83 86t-3 157q-66 -119 -159 -181t-195 -62
q-150 0 -234 109.5t-84 287.5q-1 245 117 459q60 108 168.5 175.5t252.5 67.5zM506 1348l-10 10l256 178h10l201 -178l-9 -10l-198 172z" />
    <glyph glyph-name="atilde" unicode="&#xe3;" horiz-adv-x="1110" 
d="M684 1067q-139 0 -244.5 -66.5t-163.5 -172.5q-112 -208 -112 -449q0 -172 80 -277.5t221 -105.5q217 0 360 260l111 733q-113 78 -252 78zM685 1081q144 0 267 -84l-114 -755q-8 -55 -9 -107q0 -109 82 -141l-6 -12q-70 27 -83 86t-3 157q-66 -119 -159 -181t-195 -62
q-150 0 -234 109.5t-84 287.5q-1 245 117 459q60 108 168.5 175.5t252.5 67.5zM856 1403q-47 0 -117.5 45t-107.5 45q-63 0 -139 -74l-5 4q76 78 144 78q37 0 107.5 -45t127 -45t129.5 82l4 -4q-71 -86 -143 -86z" />
    <glyph glyph-name="adieresis" unicode="&#xe4;" horiz-adv-x="1110" 
d="M684 1067q-139 0 -244.5 -66.5t-163.5 -172.5q-112 -208 -112 -449q0 -172 80 -277.5t221 -105.5q217 0 360 260l111 733q-113 78 -252 78zM685 1081q144 0 267 -84l-114 -755q-8 -55 -9 -107q0 -109 82 -141l-6 -12q-70 27 -83 86t-3 157q-66 -119 -159 -181t-195 -62
q-150 0 -234 109.5t-84 287.5q-1 245 117 459q60 108 168.5 175.5t252.5 67.5zM898 1427q19 0 20 -20q-4 -20 -23 -21q-20 0 -21 23q5 18 24 18zM583 1427q19 0 17 -20t-20 -21q-20 0 -21 23q5 18 24 18z" />
    <glyph glyph-name="aring" unicode="&#xe5;" horiz-adv-x="1110" 
d="M684 1067q-139 0 -244.5 -66.5t-163.5 -172.5q-112 -208 -112 -449q0 -172 80 -277.5t221 -105.5q217 0 360 260l111 733q-113 78 -252 78zM685 1081q144 0 267 -84l-114 -755q-8 -55 -9 -107q0 -109 82 -141l-6 -12q-70 27 -83 86t-3 157q-66 -119 -159 -181t-195 -62
q-150 0 -234 109.5t-84 287.5q-1 245 117 459q60 108 168.5 175.5t252.5 67.5zM764 1599q-59 0 -97 -36.5t-44 -93t21.5 -88t85.5 -31.5t96 35.5t44 93.5q11 120 -106 120zM763.5 1614q63.5 0 95.5 -37t26 -99.5t-48 -102.5t-107.5 -40t-97.5 37t-26 99.5t50 102.5t107.5 40
z" />
    <glyph glyph-name="ae" unicode="&#xe6;" horiz-adv-x="1712" 
d="M575 592q-229 0 -337.5 -97.5t-108.5 -248.5q0 -113 66.5 -181.5t190.5 -68.5t222.5 62.5t202.5 201.5q-31 148 8 332h-244zM1320 1065q-114 0 -202 -46t-140 -112.5t-99.5 -179t-61.5 -268.5q770 41 770 387q0 102 -76.5 160.5t-190.5 58.5zM600 1081q125 0 206 -73.5
t87 -210.5q33 71 117 165q108 120 320 119q110 0 193 -62.5t83 -172.5q0 -174 -198 -277.5t-593 -124.5q-7 -164 59 -298q34 -68 102 -109t165 -41q164 0 325 121l11 -15q-166 -121 -336 -120q-260 0 -324 262q-104 -139 -204.5 -200.5t-229.5 -61.5t-199.5 72.5
t-70.5 191.5q0 158 112.5 259t347.5 101h252q25 102 56 170q-2 141 -80 215t-203 74t-303 -68l-4 15q184 69 309 69z" />
    <glyph glyph-name="ccedilla" unicode="&#xe7;" horiz-adv-x="956" 
d="M650 1081q159 0 257 -102l-10 -10q-96 96 -248 96q-151 -1 -265 -101q-216 -191 -216 -565q0 -195 89 -299t241 -104t286 104l9 -10q-133 -109 -293 -108l-29 -148q170 -6 170 -119q0 -57 -45 -97t-122 -40t-128 35l8 12q45 -33 119 -33t112 36t39 88t-40 77t-131 27
l32 162q-154 4 -243.5 112.5t-89.5 293.5t53 335.5t169.5 254t275.5 103.5z" />
    <glyph glyph-name="egrave" unicode="&#xe8;" horiz-adv-x="1062" 
d="M662 1065q-121 0 -217.5 -58.5t-151.5 -152.5q-109 -186 -125 -395q391 20 581.5 121.5t190.5 265.5q0 102 -78.5 160.5t-199.5 58.5zM956 846q0 -174 -196.5 -277.5t-591.5 -124.5q-2 -18 -2 -51q0 -193 86 -295t240 -102q94 0 167.5 28.5t159.5 92.5l8 -15
q-166 -121 -331.5 -120.5t-255.5 107t-90 298t69 359.5q39 94 95.5 167.5t147.5 120.5t210 47t201.5 -62t82.5 -173zM870 1362l-6 -10l-323 168l8 18z" />
    <glyph glyph-name="eacute" unicode="&#xe9;" horiz-adv-x="1062" 
d="M662 1065q-121 0 -217.5 -58.5t-151.5 -152.5q-109 -186 -125 -395q391 20 581.5 121.5t190.5 265.5q0 102 -78.5 160.5t-199.5 58.5zM956 846q0 -174 -196.5 -277.5t-591.5 -124.5q-2 -18 -2 -51q0 -193 86 -295t240 -102q94 0 167.5 28.5t159.5 92.5l8 -15
q-166 -121 -331.5 -120.5t-255.5 107t-90 298t69 359.5q39 94 95.5 167.5t147.5 120.5t210 47t201.5 -62t82.5 -173zM874 1520l-372 -168l-4 12l370 174z" />
    <glyph glyph-name="ecircumflex" unicode="&#xea;" horiz-adv-x="1062" 
d="M662 1065q-121 0 -217.5 -58.5t-151.5 -152.5q-109 -186 -125 -395q391 20 581.5 121.5t190.5 265.5q0 102 -78.5 160.5t-199.5 58.5zM956 846q0 -174 -196.5 -277.5t-591.5 -124.5q-2 -18 -2 -51q0 -193 86 -295t240 -102q94 0 167.5 28.5t159.5 92.5l8 -15
q-166 -121 -331.5 -120.5t-255.5 107t-90 298t69 359.5q39 94 95.5 167.5t147.5 120.5t210 47t201.5 -62t82.5 -173zM698 1520l-249 -172l-11 10l256 178h11l200 -178l-8 -10z" />
    <glyph glyph-name="edieresis" unicode="&#xeb;" horiz-adv-x="1062" 
d="M662 1065q-121 0 -217.5 -58.5t-151.5 -152.5q-109 -186 -125 -395q391 20 581.5 121.5t190.5 265.5q0 102 -78.5 160.5t-199.5 58.5zM956 846q0 -174 -196.5 -277.5t-591.5 -124.5q-2 -18 -2 -51q0 -193 86 -295t240 -102q94 0 167.5 28.5t159.5 92.5l8 -15
q-166 -121 -331.5 -120.5t-255.5 107t-90 298t69 359.5q39 94 95.5 167.5t147.5 120.5t210 47t201.5 -62t82.5 -173zM837 1386q-19 0 -20 23q4 18 23.5 18t19.5 -20q-4 -21 -23 -21zM521 1386q-19 0 -19 23q4 18 23 18t20 -20q-5 -21 -24 -21z" />
    <glyph glyph-name="igrave" unicode="&#xec;" horiz-adv-x="520" 
d="M342 1061l-147 -1061h-17l148 1061h16zM252 1538l321 -176l-6 -10l-323 168z" />
    <glyph glyph-name="iacute" unicode="&#xed;" horiz-adv-x="520" 
d="M342 1061l-147 -1061h-17l148 1061h16zM569 1538l6 -18l-372 -168l-4 12z" />
    <glyph glyph-name="icircumflex" unicode="&#xee;" horiz-adv-x="520" 
d="M342 1061l-147 -1061h-17l148 1061h16zM150 1348l-11 10l256 178h11l200 -178l-8 -10l-199 172z" />
    <glyph glyph-name="idieresis" unicode="&#xef;" horiz-adv-x="520" 
d="M342 1061l-147 -1061h-17l148 1061h16zM542 1427q19 0 17 -20t-20 -21q-20 0 -21 23q5 18 24 18zM226 1427q19 0 20 -20q-4 -20 -23 -21q-20 0 -20 23q4 18 23 18z" />
    <glyph glyph-name="eth" unicode="&#xf0;" horiz-adv-x="1110" 
d="M467 -4q356 0 457 575q14 86 16 115q-131 238 -352 238q-113 0 -200 -56.5t-135 -145.5q-95 -176 -95 -354t81 -275t228 -97zM141 358q0 256 149 440q50 62 127 101t171 39q225 0 356 -231q35 451 -225 653l-203 -186l-12 6l205 188q-121 88 -269 123l4 14
q154 -35 277 -127l149 138l13 -11l-150 -135q233 -188 234 -541q0 -70 -15 -184q-92 -664 -485 -663q-156 0 -241 101t-85 275z" />
    <glyph glyph-name="ntilde" unicode="&#xf1;" horiz-adv-x="1187" 
d="M754 1081q133 0 190 -86t35 -241l-107 -754h-16l107 754q43 313 -209 313q-135 0 -248 -96.5t-219 -304.5l-92 -666h-17l148 1061h14l-47 -361q193 381 461 381zM844 1403q-47 0 -118 45t-108 45q-63 0 -139 -74l-4 4q76 78 143 78q37 0 108 -45q72 -45 128 -45t129 82
l4 -4q-71 -86 -143 -86z" />
    <glyph glyph-name="ograve" unicode="&#xf2;" horiz-adv-x="1144" 
d="M664.5 1065q-144.5 0 -242.5 -66.5t-152 -172.5q-104 -206 -104 -413.5t86 -312t230.5 -104.5t243.5 68q100 68 152 174q102 206 101.5 414t-85.5 310.5t-229.5 102.5zM666.5 1081q148.5 0 239.5 -106.5t91 -318.5t-107 -428q-54 -110 -156.5 -178t-252 -68t-240.5 108.5
t-91 322.5q0 213 108 425q55 108 157.5 175.5t251 67.5zM565 1538l322 -176l-6 -10l-324 168z" />
    <glyph glyph-name="oacute" unicode="&#xf3;" horiz-adv-x="1144" 
d="M664.5 1065q-144.5 0 -242.5 -66.5t-152 -172.5q-104 -206 -104 -413.5t86 -312t230.5 -104.5t243.5 68q100 68 152 174q102 206 101.5 414t-85.5 310.5t-229.5 102.5zM666.5 1081q148.5 0 239.5 -106.5t91 -318.5t-107 -428q-54 -110 -156.5 -178t-252 -68t-240.5 108.5
t-91 322.5q0 213 108 425q55 108 157.5 175.5t251 67.5zM885 1538l6 -18l-373 -168l-4 12z" />
    <glyph glyph-name="ocircumflex" unicode="&#xf4;" horiz-adv-x="1144" 
d="M664.5 1065q-144.5 0 -242.5 -66.5t-152 -172.5q-104 -206 -104 -413.5t86 -312t230.5 -104.5t243.5 68q100 68 152 174q102 206 101.5 414t-85.5 310.5t-229.5 102.5zM666.5 1081q148.5 0 239.5 -106.5t91 -318.5t-107 -428q-54 -110 -156.5 -178t-252 -68t-240.5 108.5
t-91 322.5q0 213 108 425q55 108 157.5 175.5t251 67.5zM465 1348l-10 10l256 178h10l201 -178l-9 -10l-198 172z" />
    <glyph glyph-name="otilde" unicode="&#xf5;" horiz-adv-x="1144" 
d="M664.5 1065q-144.5 0 -242.5 -66.5t-152 -172.5q-104 -206 -104 -413.5t86 -312t230.5 -104.5t243.5 68q100 68 152 174q102 206 101.5 414t-85.5 310.5t-229.5 102.5zM666.5 1081q148.5 0 239.5 -106.5t91 -318.5t-107 -428q-54 -110 -156.5 -178t-252 -68t-240.5 108.5
t-91 322.5q0 213 108 425q55 108 157.5 175.5t251 67.5zM815 1403q-47 0 -117.5 45t-107.5 45q-63 0 -139 -74l-5 4q76 78 144 78q37 0 107.5 -45t127 -45t129.5 82l4 -4q-71 -86 -143 -86z" />
    <glyph glyph-name="odieresis" unicode="&#xf6;" horiz-adv-x="1144" 
d="M664.5 1065q-144.5 0 -242.5 -66.5t-152 -172.5q-104 -206 -104 -413.5t86 -312t230.5 -104.5t243.5 68q100 68 152 174q102 206 101.5 414t-85.5 310.5t-229.5 102.5zM666.5 1081q148.5 0 239.5 -106.5t91 -318.5t-107 -428q-54 -110 -156.5 -178t-252 -68t-240.5 108.5
t-91 322.5q0 213 108 425q55 108 157.5 175.5t251 67.5zM857 1427q19 0 20 -20q-4 -20 -23 -21q-20 0 -20 23q4 18 23 18zM542 1427q19 0 17 -20t-20 -21q-20 0 -21 23q5 18 24 18z" />
    <glyph glyph-name="divide" unicode="&#xf7;" horiz-adv-x="983" 
d="M453 291q25 0 24 -25q0 -25 -26 -24q-23 0 -23 24t25 25zM188 670l5 16h645l-4 -16h-646zM566 1114q24 0 24 -24t-24 -25q-24 1 -24 25t24 24z" />
    <glyph glyph-name="oslash" unicode="&#xf8;" horiz-adv-x="1144" 
d="M496 -4q131 0 230 68q100 68 152 174q102 206 101 434q0 268 -164 356l-471 -999q72 -33 152 -33zM627.5 1065q-107.5 0 -205.5 -66.5t-152 -172.5q-104 -206 -104 -431q0 -268 166 -360l469 999q-66 31 -173.5 31zM150 395q0 231 108 443q55 108 157.5 175.5t235.5 67.5
q82 0 158 -30l115 245l14 -4l-115 -250q174 -92 174 -370q0 -228 -107 -444q-54 -110 -156.5 -178t-215 -68t-180.5 32l-117 -247l-14 4l117 249q-174 96 -174 375z" />
    <glyph glyph-name="ugrave" unicode="&#xf9;" horiz-adv-x="1177" 
d="M452 -18q-134 0 -199 84t-44 241l104 754h17l-105 -754q-20 -152 40.5 -231.5t191.5 -79.5t241.5 97t188.5 278l96 690h16l-147 -1061h-14l47 340q-74 -172 -186.5 -265t-246.5 -93zM573 1538l322 -176l-6 -10l-324 168z" />
    <glyph glyph-name="uacute" unicode="&#xfa;" horiz-adv-x="1177" 
d="M452 -18q-134 0 -199 84t-44 241l104 754h17l-105 -754q-20 -152 40.5 -231.5t191.5 -79.5t241.5 97t188.5 278l96 690h16l-147 -1061h-14l47 340q-74 -172 -186.5 -265t-246.5 -93zM893 1538l6 -18l-373 -168l-4 12z" />
    <glyph glyph-name="ucircumflex" unicode="&#xfb;" horiz-adv-x="1177" 
d="M452 -18q-134 0 -199 84t-44 241l104 754h17l-105 -754q-20 -152 40.5 -231.5t191.5 -79.5t241.5 97t188.5 278l96 690h16l-147 -1061h-14l47 340q-74 -172 -186.5 -265t-246.5 -93zM473 1348l-10 10l256 178h10l201 -178l-8 -10l-199 172z" />
    <glyph glyph-name="udieresis" unicode="&#xfc;" horiz-adv-x="1177" 
d="M452 -18q-134 0 -199 84t-44 241l104 754h17l-105 -754q-20 -152 40.5 -231.5t191.5 -79.5t241.5 97t188.5 278l96 690h16l-147 -1061h-14l47 340q-74 -172 -186.5 -265t-246.5 -93zM865 1427q19 0 20 -20q-4 -20 -23 -21q-20 0 -20 23q4 18 23 18zM550 1427q19 0 17 -20
t-20 -21q-20 0 -21 23q5 18 24 18z" />
    <glyph glyph-name="yacute" unicode="&#xfd;" horiz-adv-x="894" 
d="M911 1061l-512 -1063q-94 -186 -169.5 -265t-235.5 -124v14q154 43 225.5 118t163.5 259h-10l-242 1061h19l237 -1049l508 1049h16zM754 1538l6 -18l-373 -168l-4 12z" />
    <glyph glyph-name="thorn" unicode="&#xfe;" horiz-adv-x="1159" 
d="M497 -4q134 0 233 70q98 72 152 182q104 216 105 421q0 396 -287 396q-117 0 -207 -53.5t-180 -159.5l-110 -789q160 -67 294 -67zM700 1081q147 0 225.5 -100t78.5 -307q0 -206 -110 -436q-54 -112 -156.5 -184t-243 -72t-293.5 67l-62 -438l-18 -4l266 1890l16 2
l-88 -627q176 209 385 209z" />
    <glyph glyph-name="ydieresis" unicode="&#xff;" horiz-adv-x="894" 
d="M911 1061l-512 -1063q-94 -186 -169.5 -265t-235.5 -124v14q154 43 225.5 118t163.5 259h-10l-242 1061h19l237 -1049l508 1049h16zM726 1427q19 0 17 -20t-20 -21q-20 0 -21 23q5 18 24 18zM411 1427q19 0 17 -20t-20 -21q-20 0 -21 23q5 18 24 18z" />
    <glyph glyph-name="Amacron" unicode="&#x100;" horiz-adv-x="1138" 
d="M229 446h658l-199 930zM981 0l-92 430h-668l-211 -430h-16l686 1393h18l299 -1393h-16zM930 1683l-2 -16h-400l2 16h400z" />
    <glyph glyph-name="amacron" unicode="&#x101;" horiz-adv-x="1110" 
d="M684 1067q-139 0 -244.5 -66.5t-163.5 -172.5q-112 -208 -112 -449q0 -172 80 -277.5t221 -105.5q217 0 360 260l111 733q-113 78 -252 78zM685 1081q144 0 267 -84l-114 -755q-8 -55 -9 -107q0 -109 82 -141l-6 -12q-70 27 -83 86t-3 157q-66 -119 -159 -181t-195 -62
q-150 0 -234 109.5t-84 287.5q-1 245 117 459q60 108 168.5 175.5t252.5 67.5zM936 1409h-399l2 16h399z" />
    <glyph glyph-name="Abreve" unicode="&#x102;" horiz-adv-x="1138" 
d="M229 446h658l-199 930zM981 0l-92 430h-668l-211 -430h-16l686 1393h18l299 -1393h-16zM710 1587q-75 0 -124 37t-60 94h6q12 -51 57.5 -87t121.5 -36q150 0 211 123l6 -2q-27 -57 -85 -93t-133 -36z" />
    <glyph glyph-name="abreve" unicode="&#x103;" horiz-adv-x="1110" 
d="M684 1067q-139 0 -244.5 -66.5t-163.5 -172.5q-112 -208 -112 -449q0 -172 80 -277.5t221 -105.5q217 0 360 260l111 733q-113 78 -252 78zM685 1081q144 0 267 -84l-114 -755q-8 -55 -9 -107q0 -109 82 -141l-6 -12q-70 27 -83 86t-3 157q-66 -119 -159 -181t-195 -62
q-150 0 -234 109.5t-84 287.5q-1 245 117 459q60 108 168.5 175.5t252.5 67.5zM727 1362q-82 0 -129 43t-55 111l14 2q18 -139 170 -139.5t213 141.5l12 -7q-63 -151 -225 -151z" />
    <glyph glyph-name="Aogonek" unicode="&#x104;" horiz-adv-x="1138" 
d="M229 446h658l-199 930zM690 -266q0 -121 133 -121q49 0 113 16l-4 -16q-59 -16 -120 -16t-99.5 33.5t-38.5 97.5q0 96 83 160.5t222 117.5l-90 424h-668l-211 -430h-16l686 1393h18l299 -1393q-307 -111 -307 -266z" />
    <glyph glyph-name="aogonek" unicode="&#x105;" horiz-adv-x="1110" 
d="M465 -4q217 0 360 260l111 733q-113 78 -252 78t-244.5 -66.5t-163.5 -172.5q-112 -208 -112 -449q0 -172 80 -277.5t221 -105.5zM829 135q0 -109 82 -141l-6 -12q-307 -111 -307 -267q0 -121 133 -121q49 0 113 17l-4 -17q-59 -16 -120 -16t-99.5 34t-38.5 97
q0 96 84 162t225 117q-59 29 -72.5 98.5t0.5 138.5q-66 -119 -159 -181t-195 -62q-150 0 -234 109.5t-84 287.5q-1 245 117 459q60 108 168.5 175.5t252.5 67.5t267 -84l-114 -755q-9 -56 -9 -107z" />
    <glyph glyph-name="Cacute" unicode="&#x106;" horiz-adv-x="1089" 
d="M831 1413q178 0 295 -117l-10 -12q-59 57 -123.5 86t-167.5 29q-168 0 -296 -86q-129 -87 -197 -225q-134 -270 -133.5 -545t115 -410t306 -135t349.5 121l10 -15q-166 -123 -363.5 -122.5t-315.5 140.5t-118 422.5t138 555.5q70 139 201.5 226t309.5 87zM1040 1737
l9 -19l-369 -143l-4 12z" />
    <glyph glyph-name="cacute" unicode="&#x107;" horiz-adv-x="956" 
d="M650 1081q159 0 257 -102l-10 -10q-96 96 -248 96q-151 -1 -265 -101q-216 -191 -216 -565q0 -195 89 -299t241 -104t286 104l9 -10q-133 -109 -293 -108.5t-254 109t-94 295.5t53 337.5t169.5 254t275.5 103.5zM868 1538l6 -18l-372 -168l-4 12z" />
    <glyph glyph-name="Ccircumflex" unicode="&#x108;" horiz-adv-x="1089" 
d="M831 1413q178 0 295 -117l-10 -12q-59 57 -123.5 86t-167.5 29q-168 0 -296 -86q-129 -87 -197 -225q-134 -270 -133.5 -545t115 -410t306 -135t349.5 121l10 -15q-166 -123 -363.5 -122.5t-315.5 140.5t-118 422.5t138 555.5q70 139 201.5 226t309.5 87zM1069 1575
l-205 160l-243 -160l-11 10l252 168h10l207 -168z" />
    <glyph glyph-name="ccircumflex" unicode="&#x109;" horiz-adv-x="956" 
d="M650 1081q159 0 257 -102l-10 -10q-96 96 -248 96q-151 -1 -265 -101q-216 -191 -216 -565q0 -195 89 -299t241 -104t286 104l9 -10q-133 -109 -293 -108.5t-254 109t-94 295.5t53 337.5t169.5 254t275.5 103.5zM449 1348l-11 10l256 178h11l200 -178l-8 -10l-199 172z
" />
    <glyph glyph-name="Cdotaccent" unicode="&#x10a;" horiz-adv-x="1089" 
d="M831 1413q178 0 295 -117l-10 -12q-59 57 -123.5 86t-167.5 29q-168 0 -296 -86q-129 -87 -197 -225q-134 -270 -133.5 -545t115 -410t306 -135t349.5 121l10 -15q-166 -123 -363.5 -122.5t-315.5 140.5t-118 422.5t138 555.5q70 139 201.5 226t309.5 87zM869 1714
q19 0 20 -20q-4 -20 -23 -21q-20 0 -20 23q4 18 23 18z" />
    <glyph glyph-name="cdotaccent" unicode="&#x10b;" horiz-adv-x="956" 
d="M650 1081q159 0 257 -102l-10 -10q-96 96 -248 96q-151 -1 -265 -101q-216 -191 -216 -565q0 -195 89 -299t241 -104t286 104l9 -10q-133 -109 -293 -108.5t-254 109t-94 295.5t53 337.5t169.5 254t275.5 103.5zM687 1456q19 0 20 -20q-4 -20 -23 -21q-20 0 -20 23
q4 18 23 18z" />
    <glyph glyph-name="Ccaron" unicode="&#x10c;" horiz-adv-x="1089" 
d="M831 1413q178 0 295 -117l-10 -12q-59 57 -123.5 86t-167.5 29q-168 0 -296 -86q-129 -87 -197 -225q-134 -270 -133.5 -545t115 -410t306 -135t349.5 121l10 -15q-166 -123 -363.5 -122.5t-315.5 140.5t-118 422.5t138 555.5q70 139 201.5 226t309.5 87zM1085 1741l9 -8
l-252 -168h-11l-204 168l10 8l201 -160z" />
    <glyph glyph-name="ccaron" unicode="&#x10d;" horiz-adv-x="956" 
d="M650 1081q159 0 257 -102l-10 -10q-96 96 -248 96q-151 -1 -265 -101q-216 -191 -216 -565q0 -195 89 -299t241 -104t286 104l9 -10q-133 -109 -293 -108.5t-254 109t-94 295.5t53 337.5t169.5 254t275.5 103.5zM922 1511l8 -10l-256 -178h-10l-201 178l10 10l199 -170z
" />
    <glyph glyph-name="Dcaron" unicode="&#x10e;" horiz-adv-x="1259" 
d="M604 1378h-207l-190 -1362h219q184 0 322 78q140 78 216 208q148 252 148 589q0 291 -161 396q-140 91 -347 91zM606 1393q214 -1 358 -95q164 -108 164 -395q0 -457 -228 -709q-79 -88 -202 -141t-274 -53h-236l195 1393h223zM979 1741l8 -8l-252 -168h-10l-205 168
l10 8l201 -160z" />
    <glyph glyph-name="dcaron" unicode="&#x10f;" horiz-adv-x="1171" 
d="M649 1065q-127 0 -223 -67.5t-148 -175.5q-104 -214 -104 -418.5t79 -306t213 -101.5t228 86t180 242l76 534q-84 207 -301 207zM462 -18q-138 0 -221 104t-83 313t106 431q53 112 152.5 181.5t224.5 69.5t201 -58t110 -142l86 618l17 -2l-209 -1497h-15l39 293
q-82 -145 -176 -228t-232 -83zM1274 1509l16 -2l-82 -284l-12 2z" />
    <glyph glyph-name="Dcroat" unicode="&#x110;" horiz-adv-x="1243" 
d="M410 16q184 0 321 78t214 208q149 252 149 589q0 291 -160 396q-138 91 -346 91h-207l-90 -647h403l-2 -16h-403l-99 -699h220zM590 1393q212 -1 357 -95q165 -108 165 -395q0 -457 -228 -709q-79 -88 -202 -141t-274 -53h-238l100 715h-184v16h186l95 662h223z" />
    <glyph glyph-name="dcroat" unicode="&#x111;" horiz-adv-x="1175" 
d="M649 1065q-127 0 -223 -67.5t-148 -175.5q-104 -214 -104 -418.5t79 -306t213 -101.5t228 86t180 242l76 534q-84 207 -301 207zM462 -18q-138 0 -221 104t-83 313t106 431q53 112 152.5 181.5t224.5 69.5t201 -58t110 -142l58 419h-363v17h365l26 182l17 -2l-25 -180
h152l-2 -17h-152l-182 -1300h-15l39 293q-82 -145 -176 -228t-232 -83z" />
    <glyph glyph-name="Emacron" unicode="&#x112;" horiz-adv-x="1013" 
d="M1018 1393l-4 -15h-617l-88 -633h531l-2 -14h-531l-100 -715h637l-2 -16h-654l195 1393h635zM942 1667h-399l2 16h399z" />
    <glyph glyph-name="emacron" unicode="&#x113;" horiz-adv-x="1062" 
d="M662 1065q-121 0 -217.5 -58.5t-151.5 -152.5q-109 -186 -125 -395q391 20 581.5 121.5t190.5 265.5q0 102 -78.5 160.5t-199.5 58.5zM956 846q0 -174 -196.5 -277.5t-591.5 -124.5q-2 -18 -2 -51q0 -193 86 -295t240 -102q94 0 167.5 28.5t159.5 92.5l8 -15
q-166 -121 -331.5 -120.5t-255.5 107t-90 298t69 359.5q39 94 95.5 167.5t147.5 120.5t210 47t201.5 -62t82.5 -173zM883 1425l-2 -16h-400l2 16h400z" />
    <glyph glyph-name="Ebreve" unicode="&#x114;" horiz-adv-x="1013" 
d="M1018 1393l-4 -15h-617l-88 -633h531l-2 -14h-531l-100 -715h637l-2 -16h-654l195 1393h635zM724 1587q-75 0 -124 37t-59 94h6q12 -51 57 -87t121 -36q150 0 211 123l6 -2q-27 -57 -85 -93t-133 -36z" />
    <glyph glyph-name="ebreve" unicode="&#x115;" horiz-adv-x="1062" 
d="M662 1065q-121 0 -217.5 -58.5t-151.5 -152.5q-109 -186 -125 -395q391 20 581.5 121.5t190.5 265.5q0 102 -78.5 160.5t-199.5 58.5zM956 846q0 -174 -196.5 -277.5t-591.5 -124.5q-2 -18 -2 -51q0 -193 86 -295t240 -102q94 0 167.5 28.5t159.5 92.5l8 -15
q-166 -121 -331.5 -120.5t-255.5 107t-90 298t69 359.5q39 94 95.5 167.5t147.5 120.5t210 47t201.5 -62t82.5 -173zM672 1362q-82 0 -129 43t-56 111l15 2q18 -139 169.5 -139.5t213.5 141.5l12 -7q-63 -151 -225 -151z" />
    <glyph glyph-name="Edotaccent" unicode="&#x116;" horiz-adv-x="1013" 
d="M1018 1393l-4 -15h-617l-88 -633h531l-2 -14h-531l-100 -715h637l-2 -16h-654l195 1393h635zM751 1714q19 0 17 -20t-20 -21q-20 0 -21 23q5 18 24 18z" />
    <glyph glyph-name="edotaccent" unicode="&#x117;" horiz-adv-x="1062" 
d="M662 1065q-121 0 -217.5 -58.5t-151.5 -152.5q-109 -186 -125 -395q391 20 581.5 121.5t190.5 265.5q0 102 -78.5 160.5t-199.5 58.5zM956 846q0 -174 -196.5 -277.5t-591.5 -124.5q-2 -18 -2 -51q0 -193 86 -295t240 -102q94 0 167.5 28.5t159.5 92.5l8 -15
q-166 -121 -331.5 -120.5t-255.5 107t-90 298t69 359.5q39 94 95.5 167.5t147.5 120.5t210 47t201.5 -62t82.5 -173zM683 1415q-19 0 -19 23q4 18 23 18t20 -20q-5 -21 -24 -21z" />
    <glyph glyph-name="Eogonek" unicode="&#x118;" horiz-adv-x="1013" 
d="M475 -266q0 -121 133 -121q49 0 113 16l-4 -16q-59 -16 -120 -16t-99.5 33.5t-38.5 97.5q0 94 78.5 157.5t214.5 114.5h-564l195 1393h635l-4 -15h-617l-88 -633h531l-2 -14h-531l-100 -715h637l-2 -16h-60q-307 -111 -307 -266z" />
    <glyph glyph-name="eogonek" unicode="&#x119;" horiz-adv-x="1062" 
d="M662 1065q-121 0 -217.5 -58.5t-151.5 -152.5q-109 -186 -125 -395q391 20 581.5 121.5t190.5 265.5q0 102 -78.5 160.5t-199.5 58.5zM956 846q0 -174 -196.5 -277.5t-591.5 -124.5q-2 -18 -2 -51q0 -193 86 -295t240 -102q94 0 167.5 28.5t159.5 92.5l8 -15
q-106 -74 -180 -98q-236 -96 -235 -231q0 -68 41 -105t101 -37t118 17v-17q-59 -16 -123 -16t-109 41t-45 117q0 129 193 217q-39 -8 -96 -8q-162 0 -252 106.5t-90 298t69 359.5q39 94 95.5 167.5t147.5 120.5t210 47t201.5 -62t82.5 -173z" />
    <glyph glyph-name="Ecaron" unicode="&#x11a;" horiz-adv-x="1013" 
d="M1018 1393l-4 -15h-617l-88 -633h531l-2 -14h-531l-100 -715h637l-2 -16h-654l195 1393h635zM967 1741l8 -8l-252 -168h-10l-205 168l10 8l201 -160z" />
    <glyph glyph-name="ecaron" unicode="&#x11b;" horiz-adv-x="1062" 
d="M662 1065q-121 0 -217.5 -58.5t-151.5 -152.5q-109 -186 -125 -395q391 20 581.5 121.5t190.5 265.5q0 102 -78.5 160.5t-199.5 58.5zM956 846q0 -174 -196.5 -277.5t-591.5 -124.5q-2 -18 -2 -51q0 -193 86 -295t240 -102q94 0 167.5 28.5t159.5 92.5l8 -15
q-166 -121 -331.5 -120.5t-255.5 107t-90 298t69 359.5q39 94 95.5 167.5t147.5 120.5t210 47t201.5 -62t82.5 -173zM672 1323h-10l-201 178l10 10l199 -170l250 170l8 -10z" />
    <glyph glyph-name="Gcircumflex" unicode="&#x11c;" horiz-adv-x="1232" 
d="M827 1413q176 0 316 -115l-10 -12q-135 113 -298.5 113t-288 -81t-197.5 -211q-150 -267 -150 -583q0 -256 118.5 -391t331.5 -135q174 0 344 92l86 602h-305v17h324l-88 -629q-188 -98 -361 -98q-221 0 -344 140t-123 402t107 500t303 335q108 54 235 54zM1063 1575
l-205 160l-244 -160l-10 10l252 168h10l207 -168z" />
    <glyph glyph-name="gcircumflex" unicode="&#x11d;" horiz-adv-x="1128" 
d="M684 1067q-139 0 -244.5 -63.5t-161.5 -165.5q-110 -199 -110 -435q0 -174 79 -280.5t220 -106.5q219 0 364 271l105 702q-113 78 -252 78zM685 1081q144 0 267 -84l-149 -1015q-31 -207 -127 -292t-262 -85t-312 94l7 14q150 -94 323 -94q301 0 354 361l41 276
q-68 -125 -163 -190.5t-197 -65.5q-150 0 -232.5 111.5t-82.5 291.5q0 243 114 445q58 104 166.5 168.5t252.5 64.5zM463 1348l-10 10l256 178h10l201 -178l-9 -10l-198 172z" />
    <glyph glyph-name="Gbreve" unicode="&#x11e;" horiz-adv-x="1232" 
d="M827 1413q176 0 316 -115l-10 -12q-135 113 -298.5 113t-288 -81t-197.5 -211q-150 -267 -150 -583q0 -256 118.5 -391t331.5 -135q174 0 344 92l86 602h-305v17h324l-88 -629q-188 -98 -361 -98q-221 0 -344 140t-123 402t107 500t303 335q108 54 235 54zM837 1587
q-75 0 -124 37t-60 94h6q12 -51 57.5 -87t121.5 -36q150 0 211 123l6 -2q-27 -57 -85 -93t-133 -36z" />
    <glyph glyph-name="gbreve" unicode="&#x11f;" horiz-adv-x="1128" 
d="M684 1067q-139 0 -244.5 -63.5t-161.5 -165.5q-110 -199 -110 -435q0 -174 79 -280.5t220 -106.5q219 0 364 271l105 702q-113 78 -252 78zM685 1081q144 0 267 -84l-149 -1015q-31 -207 -127 -292t-262 -85t-312 94l7 14q150 -94 323 -94q301 0 354 361l41 276
q-68 -125 -163 -190.5t-197 -65.5q-150 0 -232.5 111.5t-82.5 291.5q0 243 114 445q58 104 166.5 168.5t252.5 64.5zM686 1362q-82 0 -129 43t-55 111l14 2q18 -139 170 -139.5t213 141.5l12 -7q-63 -151 -225 -151z" />
    <glyph glyph-name="Gdotaccent" unicode="&#x120;" horiz-adv-x="1232" 
d="M827 1413q176 0 316 -115l-10 -12q-135 113 -298.5 113t-288 -81t-197.5 -211q-150 -267 -150 -583q0 -256 118.5 -391t331.5 -135q174 0 344 92l86 602h-305v17h324l-88 -629q-188 -98 -361 -98q-221 0 -344 140t-123 402t107 500t303 335q108 54 235 54zM863 1714
q19 0 20 -20q-4 -20 -23 -21q-20 0 -20 23q4 18 23 18z" />
    <glyph glyph-name="gdotaccent" unicode="&#x121;" horiz-adv-x="1128" 
d="M684 1067q-139 0 -244.5 -63.5t-161.5 -165.5q-110 -199 -110 -435q0 -174 79 -280.5t220 -106.5q219 0 364 271l105 702q-113 78 -252 78zM685 1081q144 0 267 -84l-149 -1015q-31 -207 -127 -292t-262 -85t-312 94l7 14q150 -94 323 -94q301 0 354 361l41 276
q-68 -125 -163 -190.5t-197 -65.5q-150 0 -232.5 111.5t-82.5 291.5q0 243 114 445q58 104 166.5 168.5t252.5 64.5zM701 1456q19 0 20 -20q-4 -20 -23 -21q-20 0 -20 23q4 18 23 18z" />
    <glyph glyph-name="Gcommaaccent" unicode="&#x122;" horiz-adv-x="1232" 
d="M587.5 -213q22.5 0 22.5 -20q0 -4 -16 -43l-88 -226h-10l86 246q-16 6 -16.5 24.5t22 18.5zM827 1413q176 0 316 -115l-10 -12q-135 113 -298.5 113t-288 -81t-197.5 -211q-150 -267 -150 -583q0 -256 118.5 -391t331.5 -135q174 0 344 92l86 602h-305v17h324l-88 -629
q-188 -98 -361 -98q-221 0 -344 140t-123 402t107 500t303 335q108 54 235 54z" />
    <glyph glyph-name="gcommaaccent" unicode="&#x123;" horiz-adv-x="1128" 
d="M684 1067q-139 0 -244.5 -63.5t-161.5 -165.5q-110 -199 -110 -435q0 -174 79 -280.5t220 -106.5q219 0 364 271l105 702q-113 78 -252 78zM685 1081q144 0 267 -84l-149 -1015q-31 -207 -127 -292t-262 -85t-312 94l7 14q150 -94 323 -94q301 0 354 361l41 276
q-68 -125 -163 -190.5t-197 -65.5q-150 0 -232.5 111.5t-82.5 291.5q0 243 114 445q58 104 166.5 168.5t252.5 64.5zM675.5 1223q-21.5 0 -22.5 20q0 8 15 43l88 225h10l-86 -245q16 -6 16 -21q1 -22 -20.5 -22z" />
    <glyph glyph-name="Hcircumflex" unicode="&#x124;" horiz-adv-x="1343" 
d="M989 0l105 739h-787l-102 -739h-17l195 1393h16l-90 -637h787l90 637h16l-194 -1393h-19zM1034 1575l-205 160l-243 -160l-11 10l252 168h11l206 -168z" />
    <glyph glyph-name="hcircumflex" unicode="&#x125;" horiz-adv-x="1187" 
d="M750 1081q274 0 229 -327l-107 -754h-16l107 754q43 313 -215 313q-133 0 -244 -96.5t-217 -304.5l-92 -666h-17l209 1497l16 2l-110 -799q189 381 457 381zM922 1673l-205 160l-244 -160l-10 10l252 168h10l207 -168z" />
    <glyph glyph-name="Hbar" unicode="&#x126;" horiz-adv-x="1361" 
d="M1106 756l45 317h-784l-45 -317h784zM1278 1087l-2 -14h-109l-149 -1073h-17l105 739h-787l-104 -739h-16l149 1073h-110l2 14h110l43 306h19l-43 -306h784l43 306h16l-43 -306h109z" />
    <glyph glyph-name="hbar" unicode="&#x127;" horiz-adv-x="1191" 
d="M752 1081q274 0 229 -327l-107 -754h-16l107 754q43 313 -215 313t-461 -401l-92 -666h-17l182 1300h-149l2 17h150l24 180l17 2l-25 -182h391l-4 -17h-389l-84 -600q189 381 457 381z" />
    <glyph glyph-name="Itilde" unicode="&#x128;" horiz-adv-x="540" 
d="M399 1393l-194 -1393h-17l195 1393h16zM561.5 1661q-59.5 0 -130.5 45t-107 45q-63 0 -140 -74l-4 4q76 78 144 78q37 0 107.5 -45t127 -45t129.5 82l4 -4q-71 -86 -130.5 -86z" />
    <glyph glyph-name="itilde" unicode="&#x129;" horiz-adv-x="520" 
d="M342 1061l-147 -1061h-17l148 1061h16zM502 1403q-47 0 -118 45t-108 45q-63 0 -139 -74l-4 4q76 78 143 78q37 0 108 -45q72 -45 128 -45t129 82l4 -4q-71 -86 -143 -86z" />
    <glyph glyph-name="Imacron" unicode="&#x12a;" horiz-adv-x="540" 
d="M399 1393l-194 -1393h-17l195 1393h16zM629 1667h-400l2 16h400z" />
    <glyph glyph-name="imacron" unicode="&#x12b;" horiz-adv-x="520" 
d="M342 1061l-147 -1061h-17l148 1061h16zM582 1409h-400l2 16h400z" />
    <glyph glyph-name="Ibreve" unicode="&#x12c;" horiz-adv-x="540" 
d="M399 1393l-194 -1393h-17l195 1393h16zM411 1587q-75 0 -124 37t-60 94h6q12 -51 57.5 -87t121.5 -36q150 0 211 123l6 -2q-27 -57 -85 -93t-133 -36z" />
    <glyph glyph-name="ibreve" unicode="&#x12d;" horiz-adv-x="520" 
d="M342 1061l-147 -1061h-17l148 1061h16zM373 1362q-82 0 -129 43t-56 111l15 2q18 -139 169.5 -139.5t213.5 141.5l12 -7q-63 -151 -225 -151z" />
    <glyph glyph-name="Iogonek" unicode="&#x12e;" horiz-adv-x="540" 
d="M25 -387q49 0 112 16l-4 -16q-59 -16 -119.5 -16t-99.5 33.5t-39 97.5q0 98 85 162.5t228 117.5l195 1385h16l-194 -1393h-6q-307 -111 -308 -266q0 -121 134 -121z" />
    <glyph glyph-name="iogonek" unicode="&#x12f;" horiz-adv-x="520" 
d="M-119 -266q0 -121 133 -121q49 0 113 16l-4 -16q-59 -16 -120 -16t-99.5 33.5t-38.5 97.5q0 98 85 162.5t228 117.5l148 1053h16l-147 -1061h-7q-307 -111 -307 -266zM390 1456q19 0 20 -20q-4 -20 -23 -21q-20 0 -20 23q4 18 23 18z" />
    <glyph glyph-name="Idotaccent" unicode="&#x130;" horiz-adv-x="540" 
d="M399 1393l-194 -1393h-17l195 1393h16zM437 1714q19 0 20 -20q-4 -20 -23 -21q-20 0 -20 23q4 18 23 18z" />
    <glyph glyph-name="dotlessi" unicode="&#x131;" horiz-adv-x="520" 
d="M342 1061l-147 -1061h-17l148 1061h16z" />
    <glyph glyph-name="IJ" unicode="&#x132;" horiz-adv-x="1103" 
d="M975 1393l-170 -1217q-20 -152 -80.5 -228.5t-222.5 -140.5l-4 15q154 61 212 136t78 220l170 1215h17zM399 1393l-194 -1393h-17l195 1393h16z" />
    <glyph glyph-name="ij" unicode="&#x133;" horiz-adv-x="1040" 
d="M342 1061l-147 -1061h-17l148 1061h16zM862 1061l-147 -1057q-25 -178 -81 -256t-183 -141l-7 12q121 59 176.5 137t77.5 250l148 1055h16zM910 1456q19 0 20 -20q-4 -20 -23 -21q-20 0 -20 23q4 18 23 18zM390 1456q19 0 20 -20q-4 -20 -23 -21q-20 0 -20 23q4 18 23 18
z" />
    <glyph glyph-name="Jcircumflex" unicode="&#x134;" horiz-adv-x="563" 
d="M434 1393l-170 -1217q-20 -152 -80.5 -228.5t-222.5 -140.5l-4 15q154 61 212 136t79 220l170 1215h16zM672 1575l-205 160l-244 -160l-10 10l252 168h10l207 -168z" />
    <glyph glyph-name="jcircumflex" unicode="&#x135;" horiz-adv-x="520" 
d="M342 1061l-147 -1057q-25 -178 -81.5 -256t-183.5 -141l-6 12q121 59 176.5 137t77.5 250l148 1055h16zM150 1348l-11 10l256 178h11l200 -178l-8 -10l-199 172z" />
    <glyph glyph-name="Kcommaaccent" unicode="&#x136;" horiz-adv-x="1036" 
d="M483.5 -213q22.5 0 22.5 -20q0 -4 -17 -43l-88 -226h-10l86 246q-16 6 -16 20q0 23 22.5 23zM1100 1393l-762 -643l600 -750h-20l-603 750l762 643h23zM399 1393l-194 -1391h-17l195 1391h16z" />
    <glyph glyph-name="kcommaaccent" unicode="&#x137;" horiz-adv-x="1040" 
d="M454.5 -213q22.5 0 22.5 -20q0 -4 -16 -43l-88 -226h-11l87 246q-16 6 -16.5 24.5t22 18.5zM752 1081q102 0 159.5 -57t57.5 -154q0 -248 -383 -374l258 -496h-19l-262 504q389 123 389 364q0 92 -51 145.5t-149 53.5q-268 0 -471 -451l-86 -616h-17l209 1497l16 2
l-118 -844q195 426 467 426z" />
    <glyph glyph-name="kgreenlandic" unicode="&#x138;" horiz-adv-x="923" 
d="M897 1061l-592 -502l498 -559h-21l-499 559l591 502h23zM342 1061l-147 -1061h-17l148 1061h16z" />
    <glyph glyph-name="Lacute" unicode="&#x139;" horiz-adv-x="915" 
d="M399 1393l-192 -1377h590l-4 -16h-605l195 1393h16zM606 1737l8 -19l-368 -143l-4 12z" />
    <glyph glyph-name="lacute" unicode="&#x13a;" horiz-adv-x="563" 
d="M301 -4q33 0 86 16l2 -14q-43 -16 -88 -16q-133 0 -115 155l191 1360l16 2l-190 -1362q-20 -141 98 -141zM600 1839l8 -18l-368 -144l-4 13z" />
    <glyph glyph-name="Lcommaaccent" unicode="&#x13b;" horiz-adv-x="915" 
d="M458 -213q22 0 23 -20q0 -4 -16 -43l-88 -226h-10l86 246q-17 6 -17 24t22 19zM399 1393l-192 -1377h590l-4 -16h-605l195 1393h16z" />
    <glyph glyph-name="lcommaaccent" unicode="&#x13c;" horiz-adv-x="563" 
d="M268.5 -213q22.5 0 22.5 -20q0 -4 -17 -43l-88 -226h-10l86 246q-16 6 -16 20q0 23 22.5 23zM301 -4q33 0 86 16l2 -14q-43 -16 -88 -16q-133 0 -115 155l191 1360l16 2l-190 -1362q-20 -141 98 -141z" />
    <glyph glyph-name="Lcaron" unicode="&#x13d;" horiz-adv-x="915" 
d="M399 1393l-192 -1377h590l-4 -16h-605l195 1393h16zM641 1411l16 -2l-82 -285l-12 2z" />
    <glyph glyph-name="lcaron" unicode="&#x13e;" horiz-adv-x="563" 
d="M301 -4q33 0 86 16l2 -14q-43 -16 -88 -16q-133 0 -115 155l191 1360l16 2l-190 -1362q-20 -141 98 -141zM612 1509l17 -2l-82 -284l-12 2z" />
    <glyph glyph-name="Ldot" unicode="&#x13f;" horiz-adv-x="915" 
d="M746 745q19 0 20 -20q-4 -20 -23.5 -20t-19.5 22q4 18 23 18zM399 1393l-192 -1377h590l-4 -16h-605l195 1393h16z" />
    <glyph glyph-name="ldot" unicode="&#x140;" horiz-adv-x="567" 
d="M562 788q19 0 20 -20q-4 -20 -23.5 -20t-19.5 22q4 18 23 18zM301 -4q33 0 86 16l2 -14q-43 -16 -88 -16q-133 0 -115 155l191 1360l16 2l-190 -1362q-20 -141 98 -141z" />
    <glyph glyph-name="Lslash" unicode="&#x141;" horiz-adv-x="935" 
d="M817 16l-4 -16h-604l90 653l-168 -96l-6 12l176 101l102 723h17l-101 -713l459 262l8 -12l-469 -266l-90 -648h590z" />
    <glyph glyph-name="lslash" unicode="&#x142;" horiz-adv-x="567" 
d="M301 -4q33 0 86 16l2 -14q-43 -16 -88 -16q-133 0 -115 155l86 611l-145 -84l-8 12l155 90l103 731l16 2l-100 -723l246 142l6 -13l-256 -147l-86 -621q-21 -141 98 -141z" />
    <glyph glyph-name="Nacute" unicode="&#x143;" horiz-adv-x="1343" 
d="M1202 1393l-194 -1393h-21l-592 1374q-2 -18 -8 -60t-12 -92.5t-15 -109.5l-155 -1112h-17l195 1393h23l589 -1373l191 1373h16zM1018 1737l8 -19l-369 -143l-4 12z" />
    <glyph glyph-name="nacute" unicode="&#x144;" horiz-adv-x="1187" 
d="M754 1081q133 0 190 -86t35 -241l-107 -754h-16l107 754q43 313 -209 313q-135 0 -248 -96.5t-219 -304.5l-92 -666h-17l148 1061h14l-47 -361q193 381 461 381zM911 1538l7 -18l-373 -168l-4 12z" />
    <glyph glyph-name="Ncommaaccent" unicode="&#x145;" horiz-adv-x="1343" 
d="M557.5 -213q22.5 0 22.5 -20q0 -4 -17 -43l-88 -226h-10l86 246q-16 6 -16 20q0 23 22.5 23zM1202 1393l-194 -1393h-21l-592 1374q-2 -18 -8 -60t-12 -92.5t-15 -109.5l-155 -1112h-17l195 1393h23l589 -1373l191 1373h16z" />
    <glyph glyph-name="ncommaaccent" unicode="&#x146;" horiz-adv-x="1187" 
d="M508 -213q22 0 22 -20q0 -4 -16 -43l-88 -226h-10l86 246q-16 6 -16 24t22 19zM754 1081q133 0 190 -86t35 -241l-107 -754h-16l107 754q43 313 -209 313q-135 0 -248 -96.5t-219 -304.5l-92 -666h-17l148 1061h14l-47 -361q193 381 461 381z" />
    <glyph glyph-name="Ncaron" unicode="&#x147;" horiz-adv-x="1343" 
d="M1202 1393l-194 -1393h-21l-592 1374q-2 -18 -8 -60t-12 -92.5t-15 -109.5l-155 -1112h-17l195 1393h23l589 -1373l191 1373h16zM1065 1741l8 -8l-252 -168h-10l-205 168l10 8l201 -160z" />
    <glyph glyph-name="ncaron" unicode="&#x148;" horiz-adv-x="1187" 
d="M754 1081q133 0 190 -86t35 -241l-107 -754h-16l107 754q43 313 -209 313q-135 0 -248 -96.5t-219 -304.5l-92 -666h-17l148 1061h14l-47 -361q193 381 461 381zM965 1511l8 -10l-256 -178h-10l-201 178l10 10l199 -170z" />
    <glyph glyph-name="napostrophe" unicode="&#x149;" horiz-adv-x="1306" 
d="M872 1081q133 0 190.5 -86t35.5 -241l-107 -754h-16l106 754q41 313 -209 313q-135 0 -247.5 -96.5t-218.5 -304.5l-95 -666h-16l149 1061h15l-49 -361q192 381 462 381zM329.5 1503q22.5 0 22.5 -20q0 -14 -14 -45l-88 -226h-10l84 248q-16 4 -17 21q0 22 22.5 22z" />
    <glyph glyph-name="Eng" unicode="&#x14a;" horiz-adv-x="1345" 
d="M767 -397q-87 0 -155 59l9 12q63 -55 145 -55q169 0 199 191l26 190h-4l-592 1374q-2 -18 -8 -60t-12 -92.5t-15 -109.5l-155 -1112h-17l195 1393h23l589 -1373l191 1373h16l-221 -1586q-14 -98 -70.5 -151t-143.5 -53z" />
    <glyph glyph-name="eng" unicode="&#x14b;" horiz-adv-x="1187" 
d="M754 1081q133 0 190 -86t35 -241l-133 -947q-14 -100 -70.5 -152t-143.5 -52t-155 59l8 12q66 -55 147 -55q169 0 197 191l134 944q43 313 -209 313q-135 0 -248 -96.5t-219 -304.5l-92 -666h-17l148 1061h14l-47 -361q193 381 461 381z" />
    <glyph glyph-name="Omacron" unicode="&#x14c;" horiz-adv-x="1409" 
d="M825 1399q-314 -1 -490 -315q-91 -164 -124 -384q-14 -94 -14 -182q0 -250 113.5 -385t318.5 -135q141 0 253.5 59.5t181.5 152.5t115 213q81 211 81 458.5t-114 382.5t-321 135zM825 1413q215 0 334 -139t119 -417t-136 -555q-70 -142 -202.5 -231t-310.5 -89
q-213 0 -331 140t-118 387t89 473q48 122 120 216t185.5 154.5t250.5 60.5zM1061 1667h-399l2 16h399z" />
    <glyph glyph-name="omacron" unicode="&#x14d;" horiz-adv-x="1144" 
d="M664.5 1065q-144.5 0 -242.5 -66.5t-152 -172.5q-104 -206 -104 -413.5t86 -312t230.5 -104.5t243.5 68q100 68 152 174q102 206 101.5 414t-85.5 310.5t-229.5 102.5zM666.5 1081q148.5 0 239.5 -106.5t91 -318.5t-107 -428q-54 -110 -156.5 -178t-252 -68t-240.5 108.5
t-91 322.5q0 213 108 425q55 108 157.5 175.5t251 67.5zM897 1409h-399l2 16h399z" />
    <glyph glyph-name="Obreve" unicode="&#x14e;" horiz-adv-x="1409" 
d="M825 1399q-314 -1 -490 -315q-91 -164 -124 -384q-14 -94 -14 -182q0 -250 113.5 -385t318.5 -135q141 0 253.5 59.5t181.5 152.5t115 213q81 211 81 458.5t-114 382.5t-321 135zM825 1413q215 0 334 -139t119 -417t-136 -555q-70 -142 -202.5 -231t-310.5 -89
q-213 0 -331 140t-118 387t89 473q48 122 120 216t185.5 154.5t250.5 60.5zM843 1587q-75 0 -124 37t-60 94h7q12 -51 57 -87t121 -36q150 0 211 123l6 -2q-27 -57 -85 -93t-133 -36z" />
    <glyph glyph-name="obreve" unicode="&#x14f;" horiz-adv-x="1144" 
d="M664.5 1065q-144.5 0 -242.5 -66.5t-152 -172.5q-104 -206 -104 -413.5t86 -312t230.5 -104.5t243.5 68q100 68 152 174q102 206 101.5 414t-85.5 310.5t-229.5 102.5zM666.5 1081q148.5 0 239.5 -106.5t91 -318.5t-107 -428q-54 -110 -156.5 -178t-252 -68t-240.5 108.5
t-91 322.5q0 213 108 425q55 108 157.5 175.5t251 67.5zM688 1362q-82 0 -129 43t-55 111l14 2q18 -139 170 -139.5t213 141.5l12 -7q-63 -151 -225 -151z" />
    <glyph glyph-name="Ohungarumlaut" unicode="&#x150;" horiz-adv-x="1409" 
d="M825 1399q-314 -1 -490 -315q-91 -164 -124 -384q-14 -94 -14 -182q0 -250 113.5 -385t318.5 -135q141 0 253.5 59.5t181.5 152.5t115 213q81 211 81 458.5t-114 382.5t-321 135zM825 1413q215 0 334 -139t119 -417t-136 -555q-70 -142 -202.5 -231t-310.5 -89
q-213 0 -331 140t-118 387t89 473q48 122 120 216t185.5 154.5t250.5 60.5zM899 1864l14 -9l-163 -243l-13 6zM1118 1870l15 -8l-177 -256l-12 8z" />
    <glyph glyph-name="ohungarumlaut" unicode="&#x151;" horiz-adv-x="1144" 
d="M664.5 1065q-144.5 0 -242.5 -66.5t-152 -172.5q-104 -206 -104 -413.5t86 -312t230.5 -104.5t243.5 68q100 68 152 174q102 206 101.5 414t-85.5 310.5t-229.5 102.5zM666.5 1081q148.5 0 239.5 -106.5t91 -318.5t-107 -428q-54 -110 -156.5 -178t-252 -68t-240.5 108.5
t-91 322.5q0 213 108 425q55 108 157.5 175.5t251 67.5zM729 1606l14 -9l-163 -243l-13 6zM948 1612l15 -8l-177 -256l-12 8z" />
    <glyph glyph-name="OE" unicode="&#x152;" horiz-adv-x="1720" 
d="M791 1399q-125 0 -229 -61q-104 -60 -170 -156t-112 -216q-84 -219 -84.5 -459.5t105 -374.5t291.5 -134q137 0 247.5 64.5t176 162t110.5 221.5q78 216 78 451.5t-108.5 368.5t-304.5 133zM1221 893q0 -76 -9 -148h334l-2 -14h-334q-18 -152 -64 -287t-141.5 -258
t-226.5 -170h772l-2 -16h-817q-63 -18 -139 -18q-195 0 -304.5 138t-109.5 383.5t88 475.5q47 123 116 218t175.5 155.5t213 60.5t159.5 -20h794l-4 -15h-749q250 -106 250 -485z" />
    <glyph glyph-name="oe" unicode="&#x153;" horiz-adv-x="1873" 
d="M1473 1065q-121 0 -217.5 -58.5t-151.5 -152.5q-109 -186 -125 -395q389 20 579.5 120.5t190.5 266.5q0 102 -77.5 160.5t-198.5 58.5zM482.5 -4q144.5 0 243.5 68q100 68 152 174q102 206 101.5 414t-85.5 310.5t-229.5 102.5t-242.5 -66.5t-152 -172.5
q-104 -206 -104 -413.5t86 -312t230.5 -104.5zM1767 846q0 -174 -196.5 -277.5t-591.5 -124.5q-2 -18 -2 -51q0 -193 86 -295t240 -102q94 0 167.5 28.5t159.5 92.5l8 -15q-166 -121 -331.5 -120.5t-254.5 106t-91 305.5v13q-53 -184 -168 -304t-288 -120t-264 108.5
t-91 322.5q0 213 108 425q55 108 157.5 175.5t251 67.5t238.5 -105.5t92 -303.5q0 -4 -1 -14.5t-1 -14.5q53 188 171 313t309 125q127 0 209.5 -62t82.5 -173z" />
    <glyph glyph-name="Racute" unicode="&#x154;" horiz-adv-x="1155" 
d="M641 694q207 0 310.5 121t103.5 285q0 279 -383 278h-275l-96 -684h340zM1071 1100q0 -160 -97 -283t-296 -139l297 -678h-19l-297 678h-360l-94 -678h-17l195 1393h287q401 0 401 -293zM924 1718l-369 -143l-4 12l364 150z" />
    <glyph glyph-name="racute" unicode="&#x155;" horiz-adv-x="739" 
d="M674 1081q37 0 94 -14l-4 -14q-45 12 -90 12q-127 0 -216 -83t-165 -282l-98 -700h-17l148 1061h14l-43 -322q70 184 159 263t218 79zM780 1538l6 -18l-372 -168l-4 12z" />
    <glyph glyph-name="Rcommaaccent" unicode="&#x156;" horiz-adv-x="1155" 
d="M512 -213q23 0 23 -20q0 -4 -17 -43l-88 -226h-10l86 246q-16 6 -16.5 24.5t22.5 18.5zM641 694q207 0 310.5 121t103.5 285q0 279 -383 278h-275l-96 -684h340zM1071 1100q0 -160 -97 -283t-296 -139l297 -678h-19l-297 678h-360l-94 -678h-17l195 1393h287
q401 0 401 -293z" />
    <glyph glyph-name="rcommaaccent" unicode="&#x157;" horiz-adv-x="739" 
d="M168 -213q22 0 22 -20q0 -4 -16 -43l-88 -226h-10l86 246q-16 6 -16 24t22 19zM674 1081q37 0 94 -14l-4 -14q-45 12 -90 12q-127 0 -216 -83t-165 -282l-98 -700h-17l148 1061h14l-43 -322q70 184 159 263t218 79z" />
    <glyph glyph-name="Rcaron" unicode="&#x158;" horiz-adv-x="1155" 
d="M641 694q207 0 310.5 121t103.5 285q0 279 -383 278h-275l-96 -684h340zM1071 1100q0 -160 -97 -283t-296 -139l297 -678h-19l-297 678h-360l-94 -678h-17l195 1393h287q401 0 401 -293zM719 1565h-10l-205 168l10 8l201 -160l248 160l8 -8z" />
    <glyph glyph-name="rcaron" unicode="&#x159;" horiz-adv-x="739" 
d="M674 1081q37 0 94 -14l-4 -14q-45 12 -90 12q-127 0 -216 -83t-165 -282l-98 -700h-17l148 1061h14l-43 -322q70 184 159 263t218 79zM834 1511l8 -10l-256 -178h-11l-200 178l10 10l199 -170z" />
    <glyph glyph-name="Sacute" unicode="&#x15a;" horiz-adv-x="1103" 
d="M664 1413q205 0 342 -133l-13 -12q-131 131 -327.5 131t-297 -101.5t-100.5 -223.5t70 -186.5t249 -123.5t260 -138t81 -221q0 -141 -107 -273q-53 -66 -148 -108t-216 -42q-238 0 -385 161l12 13q141 -158 371 -158q119 0 212 41t143 105q101 130 101 262.5t-77.5 207
t-256.5 135t-252 129t-73 190.5t93 228q46 52 129.5 84.5t189.5 32.5zM893 1737l8 -19l-369 -143l-4 12z" />
    <glyph glyph-name="sacute" unicode="&#x15b;" horiz-adv-x="937" 
d="M530 1081q182 0 297 -108l-12 -10q-109 102 -265 102t-247.5 -67.5t-91.5 -167.5q1 -100 59 -154t214 -104t219 -113.5t63 -169.5q0 -139 -102.5 -223t-268.5 -84q-205 0 -340 135l8 10q137 -131 332 -131q152 0 253.5 78t101.5 215q0 102 -59.5 160.5t-216.5 109.5
t-219 109.5t-62 148.5q0 119 98 191.5t239 72.5zM788 1538l7 -18l-373 -168l-4 12z" />
    <glyph glyph-name="Scircumflex" unicode="&#x15c;" horiz-adv-x="1103" 
d="M664 1413q205 0 342 -133l-13 -12q-131 131 -327.5 131t-297 -101.5t-100.5 -223.5t70 -186.5t249 -123.5t260 -138t81 -221q0 -141 -107 -273q-53 -66 -148 -108t-216 -42q-238 0 -385 161l12 13q141 -158 371 -158q119 0 212 41t143 105q101 130 101 262.5t-77.5 207
t-256.5 135t-252 129t-73 190.5t93 228q46 52 129.5 84.5t189.5 32.5zM924 1575l-205 160l-244 -160l-10 10l252 168h10l207 -168z" />
    <glyph glyph-name="scircumflex" unicode="&#x15d;" horiz-adv-x="937" 
d="M530 1081q182 0 297 -108l-12 -10q-109 102 -265 102t-247.5 -67.5t-91.5 -167.5q1 -100 59 -154t214 -104t219 -113.5t63 -169.5q0 -139 -102.5 -223t-268.5 -84q-205 0 -340 135l8 10q137 -131 332 -131q152 0 253.5 78t101.5 215q0 102 -59.5 160.5t-216.5 109.5
t-219 109.5t-62 148.5q0 119 98 191.5t239 72.5zM369 1348l-11 10l256 178h11l200 -178l-8 -10l-199 172z" />
    <glyph glyph-name="Scedilla" unicode="&#x15e;" horiz-adv-x="1103" 
d="M664 1413q205 0 342 -133l-13 -12q-131 131 -327.5 131t-297 -101.5t-100.5 -223.5t70 -186.5t249 -123.5t260 -138t81 -218q0 -138 -105 -274q-51 -66 -145 -108t-213 -44l-29 -146q170 -6 170 -119q0 -57 -45 -97t-121 -40t-129 35l8 12q45 -33 119 -33t112 36t39 88
t-40 77t-131 27l33 160q-227 0 -379 161l12 13q141 -158 371 -158q119 0 212 41t143 105q101 130 101 262.5t-77.5 207t-256.5 135t-252 129t-73 190.5t93 228q46 52 129.5 84.5t189.5 32.5z" />
    <glyph glyph-name="scedilla" unicode="&#x15f;" horiz-adv-x="937" 
d="M549.5 1065q-156.5 0 -247.5 -67.5t-91 -167t58.5 -153.5t214 -104.5t219 -114t63.5 -169.5q0 -139 -102.5 -223t-268.5 -84h-8l-29 -146q170 -6 170 -119q0 -57 -45 -97t-121 -40t-129 35l9 12q45 -33 118.5 -33t111.5 36t39 88t-40 77t-131 27l33 160q-190 8 -318 135
l8 10q137 -131 332 -131q152 0 253.5 78t101.5 215q0 102 -59.5 160.5t-216.5 109.5t-219 109.5t-62 148.5q0 119 98 191.5t239 72.5q182 0 297 -108l-12 -10q-109 102 -265.5 102z" />
    <glyph glyph-name="Scaron" unicode="&#x160;" horiz-adv-x="1103" 
d="M664 1413q205 0 342 -133l-13 -12q-131 131 -327.5 131t-297 -101.5t-100.5 -223.5t70 -186.5t249 -123.5t260 -138t81 -221q0 -141 -107 -273q-53 -66 -148 -108t-216 -42q-238 0 -385 161l12 13q141 -158 371 -158q119 0 212 41t143 105q101 130 101 262.5t-77.5 207
t-256.5 135t-252 129t-73 190.5t93 228q46 52 129.5 84.5t189.5 32.5zM940 1741l8 -8l-252 -168h-10l-205 168l11 8l200 -160z" />
    <glyph glyph-name="scaron" unicode="&#x161;" horiz-adv-x="937" 
d="M530 1081q182 0 297 -108l-12 -10q-109 102 -265 102t-247.5 -67.5t-91.5 -167.5q1 -100 59 -154t214 -104t219 -113.5t63 -169.5q0 -139 -102.5 -223t-268.5 -84q-205 0 -340 135l8 10q137 -131 332 -131q152 0 253.5 78t101.5 215q0 102 -59.5 160.5t-216.5 109.5
t-219 109.5t-62 148.5q0 119 98 191.5t239 72.5zM840 1511l8 -10l-256 -178h-10l-201 178l10 10l199 -170z" />
    <glyph glyph-name="uni0162" unicode="&#x162;" horiz-adv-x="968" 
d="M557 -279q0 -59 -45 -100t-121 -41t-129 35l8 12q45 -33 118 -33t112 38t39 89q4 99 -166 103l33 176h-5l195 1376h-438l2 17h893l-4 -17h-437l-194 -1376h2l-31 -164q168 -4 168 -115z" />
    <glyph glyph-name="uni0163" unicode="&#x163;" horiz-adv-x="661" 
d="M379 -4q96 0 196 57l7 -14q-102 -57 -201 -57l-29 -146q170 -6 170 -119q0 -57 -45 -97t-122 -40t-128 35l9 12q45 -33 118.5 -33t111.5 36t39 88t-40 77t-131 27l33 160q-96 4 -141.5 69.5t-28.5 181.5l112 811h-178l2 17h178l41 272h15l-39 -272h297l-4 -17h-295
l-113 -808q-16 -115 27 -177.5t139 -62.5z" />
    <glyph glyph-name="Tcaron" unicode="&#x164;" horiz-adv-x="968" 
d="M1053 1393l-4 -17h-437l-194 -1376h-17l195 1376h-438l2 17h893zM866 1741l8 -8l-251 -168h-11l-204 168l10 8l200 -160z" />
    <glyph glyph-name="tcaron" unicode="&#x165;" horiz-adv-x="661" 
d="M379 -4q96 0 196 57l7 -14q-106 -57 -206.5 -57t-149 65.5t-29.5 185.5l112 811h-178l2 17h178l41 272h15l-39 -272h297l-4 -17h-295l-113 -808q-16 -115 27 -177.5t139 -62.5zM643 1513l-82 -284l-12 2l78 285z" />
    <glyph glyph-name="Tbar" unicode="&#x166;" horiz-adv-x="944" 
d="M612 1376l-84 -604h252l-2 -14h-252l-108 -758h-17l109 758h-252l2 14h250l86 604h-438l2 17h893l-4 -17h-437z" />
    <glyph glyph-name="tbar" unicode="&#x167;" horiz-adv-x="661" 
d="M379 -4q96 0 196 57l7 -14q-106 -57 -206.5 -57t-149 65.5t-29.5 185.5l61 443h-174l2 14h174l49 354h-178l2 17h178l41 272h15l-39 -272h297l-4 -17h-295l-50 -354h295l-4 -14h-293l-61 -440q-16 -115 27 -177.5t139 -62.5z" />
    <glyph glyph-name="Utilde" unicode="&#x168;" horiz-adv-x="1304" 
d="M577 -18q-214 0 -296 118.5t-54 323.5l138 969h16l-137 -969q-27 -197 51 -311.5t282.5 -114.5t315.5 115.5t137 310.5l137 969h17l-137 -971q-27 -203 -141.5 -321.5t-328.5 -118.5zM944.5 1661q-59.5 0 -130.5 45t-107 45q-63 0 -140 -74l-4 4q76 78 144 78
q37 0 107.5 -45t127 -45t129.5 82l4 -4q-71 -86 -130.5 -86z" />
    <glyph glyph-name="utilde" unicode="&#x169;" horiz-adv-x="1177" 
d="M452 -18q-134 0 -199 84t-44 241l104 754h17l-105 -754q-20 -152 40.5 -231.5t191.5 -79.5t241.5 97t188.5 278l96 690h16l-147 -1061h-14l47 340q-74 -172 -186.5 -265t-246.5 -93zM823 1403q-47 0 -117.5 45t-107.5 45q-63 0 -139 -74l-4 4q76 78 143 78
q37 0 107.5 -45t127 -45t130.5 82l4 -4q-72 -86 -144 -86z" />
    <glyph glyph-name="Umacron" unicode="&#x16a;" horiz-adv-x="1304" 
d="M577 -18q-214 0 -296 118.5t-54 323.5l138 969h16l-137 -969q-27 -197 51 -311.5t282.5 -114.5t315.5 115.5t137 310.5l137 969h17l-137 -971q-27 -203 -141.5 -321.5t-328.5 -118.5zM1012 1667h-400l2 16h400z" />
    <glyph glyph-name="umacron" unicode="&#x16b;" horiz-adv-x="1177" 
d="M452 -18q-134 0 -199 84t-44 241l104 754h17l-105 -754q-20 -152 40.5 -231.5t191.5 -79.5t241.5 97t188.5 278l96 690h16l-147 -1061h-14l47 340q-74 -172 -186.5 -265t-246.5 -93zM905 1409h-399l2 16h399z" />
    <glyph glyph-name="Ubreve" unicode="&#x16c;" horiz-adv-x="1304" 
d="M577 -18q-214 0 -296 118.5t-54 323.5l138 969h16l-137 -969q-27 -197 51 -311.5t282.5 -114.5t315.5 115.5t137 310.5l137 969h17l-137 -971q-27 -203 -141.5 -321.5t-328.5 -118.5zM794 1587q-75 0 -124 37t-60 94h6q12 -51 57.5 -87t121.5 -36q150 0 211 123l6 -2
q-27 -57 -85 -93t-133 -36z" />
    <glyph glyph-name="ubreve" unicode="&#x16d;" horiz-adv-x="1177" 
d="M452 -18q-134 0 -199 84t-44 241l104 754h17l-105 -754q-20 -152 40.5 -231.5t191.5 -79.5t241.5 97t188.5 278l96 690h16l-147 -1061h-14l47 340q-74 -172 -186.5 -265t-246.5 -93zM696 1362q-82 0 -129 43t-55 111l14 2q18 -139 170 -139.5t213 141.5l13 -7
q-64 -151 -226 -151z" />
    <glyph glyph-name="Uring" unicode="&#x16e;" horiz-adv-x="1304" 
d="M577 -18q-214 0 -296 118.5t-54 323.5l138 969h16l-137 -969q-27 -197 51 -311.5t282.5 -114.5t315.5 115.5t137 310.5l137 969h17l-137 -971q-27 -203 -141.5 -321.5t-328.5 -118.5zM840 1858q-59 0 -97 -37t-44.5 -93.5t21.5 -88t86 -31.5t96 35.5t44 93.5
q11 121 -106 121zM839.5 1872q63.5 0 95.5 -37t26 -99.5t-48.5 -102.5t-108 -40t-97 37t-25.5 99.5t50 102.5t107.5 40z" />
    <glyph glyph-name="uring" unicode="&#x16f;" horiz-adv-x="1177" 
d="M452 -18q-134 0 -199 84t-44 241l104 754h17l-105 -754q-20 -152 40.5 -231.5t191.5 -79.5t241.5 97t188.5 278l96 690h16l-147 -1061h-14l47 340q-74 -172 -186.5 -265t-246.5 -93zM733 1599q-59 0 -97 -36.5t-44 -93t21.5 -88t85.5 -31.5t96.5 35.5t44.5 93.5
q10 120 -107 120zM733.5 1614q63.5 0 95 -37t25.5 -99.5t-48 -102.5t-107.5 -40t-97.5 37t-26 99.5t50.5 102.5t108 40z" />
    <glyph glyph-name="Uhungarumlaut" unicode="&#x170;" horiz-adv-x="1304" 
d="M577 -18q-214 0 -296 118.5t-54 323.5l138 969h16l-137 -969q-27 -197 51 -311.5t282.5 -114.5t315.5 115.5t137 310.5l137 969h17l-137 -971q-27 -203 -141.5 -321.5t-328.5 -118.5zM850 1864l14 -9l-164 -243l-12 6zM1069 1870l14 -8l-176 -256l-12 8z" />
    <glyph glyph-name="uhungarumlaut" unicode="&#x171;" horiz-adv-x="1177" 
d="M452 -18q-134 0 -199 84t-44 241l104 754h17l-105 -754q-20 -152 40.5 -231.5t191.5 -79.5t241.5 97t188.5 278l96 690h16l-147 -1061h-14l47 340q-74 -172 -186.5 -265t-246.5 -93zM737 1606l15 -9l-164 -243l-13 6zM956 1612l15 -8l-176 -256l-13 8z" />
    <glyph glyph-name="Uogonek" unicode="&#x172;" horiz-adv-x="1304" 
d="M455 -246q0 -68 41 -104.5t101 -36.5t118 16v-16q-59 -16 -123 -16t-109 40.5t-45 116.5q0 137 232 234q-43 -6 -92 -6q-215 0 -297 118.5t-54 323.5l138 969h16l-137 -969q-27 -197 51 -311.5t282.5 -114.5t315.5 115.5t137 310.5l137 969h17l-137 -971
q-45 -352 -328 -424q-264 -102 -264 -244z" />
    <glyph glyph-name="uogonek" unicode="&#x173;" horiz-adv-x="1177" 
d="M545 -266q0 -121 133 -121q49 0 113 16l-5 -16q-59 -16 -119.5 -16t-99.5 33.5t-39 97.5q0 96 84 160.5t228 117.5l45 334q-74 -172 -186.5 -265t-246.5 -93t-199 84t-44 241l104 754h17l-105 -754q-20 -152 40.5 -231.5t191.5 -79.5t241.5 97t188.5 278l96 690h16
l-147 -1059v-2q-307 -111 -307 -266z" />
    <glyph glyph-name="Wcircumflex" unicode="&#x174;" horiz-adv-x="1597" 
d="M1630 1393l-522 -1393h-18l-172 1376l-558 -1376h-20l-131 1393h16l127 -1375l557 1375h21l172 -1375l512 1375h16zM1165 1575l-204 160l-244 -160l-10 10l251 168h11l207 -168z" />
    <glyph glyph-name="wcircumflex" unicode="&#x175;" horiz-adv-x="1380" 
d="M1378 1061l-434 -1061h-20l-160 1042l-453 -1042h-20l-139 1061h16l135 -1045l453 1045h20l160 -1045l426 1045h16zM582 1348l-11 10l256 178h11l200 -178l-8 -10l-199 172z" />
    <glyph glyph-name="Ycircumflex" unicode="&#x176;" horiz-adv-x="991" 
d="M1063 1393l-555 -838l-78 -555h-16l75 555l-319 838h18l312 -822l542 822h21zM860 1575l-205 160l-243 -160l-11 10l252 168h11l206 -168z" />
    <glyph glyph-name="ycircumflex" unicode="&#x177;" horiz-adv-x="894" 
d="M911 1061l-512 -1063q-94 -186 -169.5 -265t-235.5 -124v14q154 43 225.5 118t163.5 259h-10l-242 1061h19l237 -1049l508 1049h16zM334 1348l-10 10l256 178h10l201 -178l-9 -10l-198 172z" />
    <glyph glyph-name="Ydieresis" unicode="&#x178;" horiz-adv-x="991" 
d="M1063 1393l-555 -838l-78 -555h-16l75 555l-319 838h18l312 -822l542 822h21zM814 1686q19 0 20 -21q-4 -20 -23.5 -20t-19.5 22q4 19 23 19zM499 1686q19 0 19 -21q-4 -20 -23 -20t-20 22q5 19 24 19z" />
    <glyph glyph-name="Zacute" unicode="&#x179;" horiz-adv-x="1036" 
d="M16 0l2 16l1012 1362h-745l2 15h768l-2 -15l-1014 -1362h788l-2 -16h-809zM858 1737l8 -19l-368 -143l-4 12z" />
    <glyph glyph-name="zacute" unicode="&#x17a;" horiz-adv-x="839" 
d="M834 1061l-3 -14l-811 -1031h648l-4 -16h-668l2 14l813 1030h-608l2 17h629zM752 1538l6 -18l-373 -168l-4 12z" />
    <glyph glyph-name="Zdotaccent" unicode="&#x17b;" horiz-adv-x="1036" 
d="M16 0l2 16l1012 1362h-745l2 15h768l-2 -15l-1014 -1362h788l-2 -16h-809zM687 1714q19 0 20 -20q-4 -20 -23 -21q-20 0 -20 23q4 18 23 18z" />
    <glyph glyph-name="zdotaccent" unicode="&#x17c;" horiz-adv-x="839" 
d="M834 1061l-3 -14l-811 -1031h648l-4 -16h-668l2 14l813 1030h-608l2 17h629zM570 1456q19 0 20 -20q-4 -20 -23 -21q-20 0 -20 23q4 18 23 18z" />
    <glyph glyph-name="Zcaron" unicode="&#x17d;" horiz-adv-x="1036" 
d="M16 0l2 16l1012 1362h-745l2 15h768l-2 -15l-1014 -1362h788l-2 -16h-809zM903 1741l8 -8l-252 -168h-10l-205 168l11 8l200 -160z" />
    <glyph glyph-name="zcaron" unicode="&#x17e;" horiz-adv-x="839" 
d="M834 1061l-3 -14l-811 -1031h648l-4 -16h-668l2 14l813 1030h-608l2 17h629zM803 1511l8 -10l-256 -178h-10l-201 178l10 10l199 -170z" />
    <glyph glyph-name="longs" unicode="&#x17f;" horiz-adv-x="616" 
d="M638 1503q114 0 218 -76l-10 -12q-98 74 -208 74t-179 -57q-68 -57 -82 -168l-178 -1264h-17l148 1044h-189l2 17h189l28 205q16 115 90 176t188 61z" />
    <glyph glyph-name="uni0180" unicode="&#x180;" horiz-adv-x="1155" 
d="M503 -4q137 0 235 70q98 72 151 182q104 217 104 421q0 396 -286 396q-117 0 -208 -54.5t-182 -160.5l-110 -787q160 -67 296 -67zM707 1081q147 0 225 -100t78 -307q0 -206 -110 -436q-54 -112 -155.5 -184t-246 -72t-308.5 71l172 1247h-149l2 17h150l24 180l17 2
l-25 -182h391l-4 -17h-389l-60 -430q177 211 388 211z" />
    <glyph glyph-name="uni0181" unicode="&#x181;" horiz-adv-x="1286" 
d="M616 16q264 0 384 119t120 301q0 137 -95 215t-253 78h-373l-100 -713h317zM760 1378h-271l-88 -633h373q139 0 252 98.5t113 246.5q0 288 -379 288zM1137 436q0 -174 -111 -298q-57 -64 -162.5 -101t-249.5 -37h-333l192 1378h-88q-106 0 -162.5 -52t-56.5 -126.5
t37 -144.5l-15 -8q-39 70 -38 135q0 98 61 154.5t176 56.5h371q193 0 295 -74t102 -218.5t-95.5 -245t-236.5 -118.5q137 -8 225.5 -86t88.5 -215z" />
    <glyph glyph-name="uni0182" unicode="&#x182;" horiz-adv-x="1153" 
d="M504 16q131 0 229 45q97 45 149 120q100 146 101 315q0 309 -377 309h-289l-110 -789h297zM606 821q193 0 294 -82t101 -241q1 -240 -159 -386q-123 -112 -342 -112h-312l195 1393h621l-5 -15h-602l-78 -557h287z" />
    <glyph glyph-name="uni0183" unicode="&#x183;" horiz-adv-x="1155" 
d="M503 -4q135 0 233 70q98 72 151 182q106 221 106 423q0 394 -288 394q-117 0 -207 -54.5t-183 -160.5l-108 -787q160 -67 296 -67zM705 1081q150 0 227.5 -100t77.5 -308q0 -207 -111 -435q-55 -112 -156.5 -184t-246 -72t-308.5 71l199 1440h512l-4 -16h-494l-82 -607
q173 211 386 211z" />
    <glyph glyph-name="uni0184" unicode="&#x184;" horiz-adv-x="1124" 
d="M504 16q108 0 194 32q153 57 219 185.5t66 271.5t-97.5 222.5t-281.5 79.5h-287l-110 -791h297zM604 823q193 0 295 -84t102 -247q-1 -242 -161 -382q-126 -111 -342 -110h-310l177 1262l-37 20q39 49 59 111h12l-80 -570h285z" />
    <glyph glyph-name="uni0185" unicode="&#x185;" horiz-adv-x="1007" 
d="M864 399q0 262 -329 263h-248l-86 -619q121 -47 254 -47q215 6 312 125t97 278zM537 676q176 0 260 -75t84 -218t-97 -270t-329 -131q-127 -2 -273 49l129 917l-39 21q35 35 58 92h12l-53 -385h248z" />
    <glyph glyph-name="uni0186" unicode="&#x186;" horiz-adv-x="1087" 
d="M547.5 1413q188.5 0 298.5 -132t110 -390q0 -360 -158 -627q-76 -129 -197.5 -205.5t-268.5 -76.5q-199 0 -338 122l10 15q137 -121 327.5 -121t332 132t208 330.5t66.5 440.5t-105.5 370t-291.5 128q-109 0 -187 -29t-170 -86l-8 12q183 117 371.5 117z" />
    <glyph glyph-name="uni0187" unicode="&#x187;" horiz-adv-x="1089" 
d="M1346 1651q89 0 153 -60l-8 -10q-63 55 -145 55q-168 0 -197 -190l-23 -150l-10 -12q-123 115 -291 115t-296 -86q-129 -87 -197 -225q-134 -270 -133.5 -545t115 -410t306 -135t349.5 121l10 -15q-166 -123 -363.5 -122.5t-315.5 140.5t-118 422.5t138 555.5
q70 139 201.5 226t303.5 87t287 -106l21 141q14 98 69 150.5t144 52.5z" />
    <glyph glyph-name="uni0188" unicode="&#x188;" horiz-adv-x="956" 
d="M1150 1503q87 0 155 -59l-9 -10q-66 55 -146.5 55t-132.5 -48t-65 -143l-45 -319l-10 -10q-96 96 -248 96q-151 -1 -265 -101q-216 -191 -216 -565q0 -195 89 -299t241 -104t286 104l9 -10q-133 -109 -293 -108.5t-254 109t-94 295.5t53 337.5t170 254t271 103.5t247 -92
l43 311q12 96 69.5 149.5t144.5 53.5z" />
    <glyph glyph-name="uni0189" unicode="&#x189;" horiz-adv-x="1243" 
d="M410 16q184 0 322 78t215 208q149 252 149 589q0 291 -161 396q-140 91 -347 91h-207l-90 -647h403l-2 -16h-403l-99 -699h220zM590 1393q212 -1 357 -95q165 -108 165 -395q0 -457 -228 -709q-79 -88 -202 -141t-274 -53h-236l100 715h-186v16h188l93 662h223z" />
    <glyph glyph-name="uni018A" unicode="&#x18a;" horiz-adv-x="1351" 
d="M518 16q184 0 322.5 78t215.5 208q148 250 148 589q0 291 -160 396q-139 91 -348 91h-207l-190 -1362h219zM698 1393q213 -1 358 -95q165 -108 165 -396q0 -454 -229 -708q-79 -88 -201.5 -141t-274.5 -53h-235l192 1378h-88q-106 0 -162.5 -52t-56.5 -126.5t37 -144.5
l-15 -8q-39 70 -38 135q0 98 61 154.5t176 56.5h311z" />
    <glyph glyph-name="uni018B" unicode="&#x18b;" horiz-adv-x="1153" 
d="M641 805q-231 0 -366.5 -127t-135.5 -340q0 -154 95.5 -238t263.5 -84h307l108 789h-272zM494 0q-172 0 -271.5 88t-99.5 250q0 221 140 352t380 131h275l75 557h-602l2 15h621l-197 -1393h-323z" />
    <glyph glyph-name="uni018C" unicode="&#x18c;" horiz-adv-x="1173" 
d="M651 1065q-127 0 -223 -67.5t-148 -175.5q-104 -214 -104 -418.5t79 -306t213 -101.5t228.5 86t180.5 242l75 534q-84 207 -301 207zM464 -18q-138 0 -221 104t-83 313t106 431q53 112 152.5 181.5t224.5 69.5t201 -58t110 -142l84 596h-491v16h510l-209 -1493h-14
l38 293q-82 -145 -176 -228t-232 -83z" />
    <glyph glyph-name="uni018D" unicode="&#x18d;" horiz-adv-x="1140" 
d="M977 680q0 180 -88 282.5t-232.5 102.5t-241 -59.5t-145.5 -153.5q-94 -180 -94 -377q0 -147 78 -234t264 -163q459 143 459 602zM437 -395q-159 0 -296 102l13 10q129 -96 283 -96t235.5 61.5t81.5 146.5t-53.5 134t-218 115t-243.5 155t-79 242q0 205 99 389
q52 96 150.5 156.5t248 60.5t242.5 -107.5t93 -293.5q0 -465 -456 -608q129 -53 181 -104.5t52 -140.5t-87 -155.5t-246 -66.5z" />
    <glyph glyph-name="uni018E" unicode="&#x18e;" horiz-adv-x="1013" 
d="M231 1393h639l-192 -1393h-653l2 16h635l100 715h-529l3 14h528l88 633h-623z" />
    <glyph glyph-name="uni018F" unicode="&#x18f;" horiz-adv-x="1318" 
d="M578 -2q223 0 379.5 178t201.5 531h-966q-20 -111 -21 -213q0 -240 108 -368t298 -128zM774 1413q416 0 416 -506q0 -113 -16 -221q-47 -348 -207 -526t-375 -178t-325.5 133t-110.5 377q0 123 22 231h983q12 98 13 184q0 492 -400 492q-207 0 -422 -160l-8 12
q211 162 430 162z" />
    <glyph glyph-name="uni0190" unicode="&#x190;" horiz-adv-x="1046" 
d="M659 1413q219 0 359 -172l-12 -12q-137 170 -349 170q-170 0 -279.5 -102.5t-109.5 -244.5t85 -213t227 -71h110l-4 -16l-115 2q-203 0 -324.5 -114t-121.5 -312q0 -156 95 -243t259 -87q229 0 426 184l13 -12q-201 -188 -439 -188q-170 0 -271.5 92t-98.5 254
q-2 197 112.5 310.5t296.5 123.5q-117 12 -191.5 80.5t-74.5 193.5q0 166 114.5 271.5t292.5 105.5z" />
    <glyph glyph-name="uni0191" unicode="&#x191;" horiz-adv-x="962" 
d="M827 717v-17h-524l-125 -893q-14 -98 -70.5 -151t-143.5 -53t-154 59l8 12q63 -55 145 -55q169 0 199 191l221 1583h625l-4 -15h-607l-92 -661h522z" />
    <glyph glyph-name="florin" unicode="&#x192;" horiz-adv-x="616" 
d="M638 1489q-110 0 -179 -57q-68 -57 -82 -168l-29 -203h305l-4 -17h-303l-147 -1040q-25 -178 -81 -256t-184 -141l-6 12q121 61 176 138t80 249l146 1038h-189l2 17h189l28 205q16 115 90 176t188 61t218 -76l-10 -12q-98 74 -208 74z" />
    <glyph glyph-name="uni0193" unicode="&#x193;" horiz-adv-x="1105" 
d="M1364 1651q90 0 154 -60l-11 -10q-59 55 -142 55q-170 0 -200 -190l-22 -148l-8 -10q-139 111 -301.5 111t-287 -81t-197.5 -211q-150 -267 -150 -583q0 -256 118.5 -391t331.5 -135q174 0 344 92l86 602h-305v17h324l-88 -629q-188 -98 -361 -98q-221 0 -344 140
t-123 402t107 500t303 335q108 54 235 54q174 0 301 -104l21 139q14 98 69.5 150.5t145.5 52.5z" />
    <glyph glyph-name="uni0194" unicode="&#x194;" horiz-adv-x="1079" 
d="M418 -383q131 0 131 171q0 81 -64 314q-86 -150 -124.5 -235.5t-38.5 -149.5q0 -100 96 -100zM426 -397q-121 0 -121 120q0 57 40 146.5t132 249.5l-287 1274h17l280 -1260l629 1260h17l-637 -1276q70 -246 69.5 -331t-38.5 -134t-101 -49z" />
    <glyph glyph-name="uni0195" unicode="&#x195;" horiz-adv-x="1824" 
d="M1649 855q-1 -91 -9 -187q-8 -98 -28 -202q-37 -197 -144 -340.5t-305 -143.5q-154 0 -217 96t-45 239l62 437q45 313 -215 313q-133 0 -244 -96.5t-217 -304.5l-92 -666h-17l209 1497l16 2l-110 -799q188 381 459.5 381t226.5 -327l-61 -437q-18 -139 40 -229t188 -91
t216 55.5t136 143.5q134 233 134 672q0 78 -4 193h17q4 -115 4 -206z" />
    <glyph glyph-name="uni0196" unicode="&#x196;" horiz-adv-x="643" 
d="M353 -18q-91 0 -132 52t-26 152l24 191l143 1016h17l-168 -1207q-28 -190 142 -190q83 0 159 57l8 -14q-76 -57 -167 -57z" />
    <glyph glyph-name="uni0197" unicode="&#x197;" horiz-adv-x="688" 
d="M612 748v-17h-225l-102 -731h-17l103 731h-238v17h240l90 645h16l-90 -645h223z" />
    <glyph glyph-name="uni0198" unicode="&#x198;" horiz-adv-x="1114" 
d="M399 1393l-194 -1391h-17l195 1391h16zM1070 1413q71 0 134 -67l-12 -11q-59 63 -122.5 63.5t-109 -27t-129.5 -111.5l-495 -510l602 -750h-23l-600 750l508 522q80 84 128 112.5t119 28.5z" />
    <glyph glyph-name="uni0199" unicode="&#x199;" horiz-adv-x="1040" 
d="M632 1503q112 0 212 -65l-8 -15q-96 66 -204 66t-177 -57q-70 -57 -84 -168l-86 -609q195 426 467 426q102 0 159 -57t58 -154q0 -248 -383 -374l258 -496h-19l-262 504q389 123 389 364q0 92 -51 146t-149 53q-268 0 -471 -451l-86 -616h-17l178 1266q14 113 88 175
q76 62 188 62z" />
    <glyph glyph-name="uni019A" unicode="&#x19a;" horiz-adv-x="577" 
d="M338 -4q33 0 86 16l2 -14q-43 -16 -88 -16q-135 0 -113 155l84 604h-227v17h229l103 739l16 2l-104 -741h235v-17h-237l-84 -604q-16 -141 98 -141z" />
    <glyph glyph-name="uni019B" unicode="&#x19b;" horiz-adv-x="913" 
d="M508 1366q49 -90 62 -306t38 -382t43.5 -255t63.5 -188.5t59 -123t68 -109.5l-15 -6q-3 8 -35 57q-67 104 -137 302.5t-98 686.5l-518 -1050l-14 6l524 1063h6q-14 211 -59 295l-201 -182l-12 6l206 188q-55 86 -174 121l2 12q127 -35 183 -123l149 138l13 -11z" />
    <glyph glyph-name="uni019C" unicode="&#x19c;" horiz-adv-x="1884" 
d="M1149 -20q-119 0 -187.5 70.5t-70.5 203.5q-197 -274 -424 -274q-141 0 -209 96t-43 276l145 1041h17l-146 -1045q-23 -172 41 -262t191 -90t227.5 71.5t200.5 211.5q0 33 6 73l145 1041h17l-146 -1045q-23 -172 41 -262t195 -90q225 0 420 276l155 1121h17l-195 -1393
h-14l33 248q-190 -268 -416 -268z" />
    <glyph glyph-name="uni019D" unicode="&#x19d;" horiz-adv-x="1343" 
d="M-38 -397q-89 0 -152 59l8 12q63 -55 145 -55q169 0 199 191l221 1583h23l589 -1373l191 1373h16l-194 -1393h-21l-592 1374q-2 -18 -8 -60t-12 -92.5t-15 -109.5l-182 -1305q-14 -98 -70.5 -151t-145.5 -53z" />
    <glyph glyph-name="uni019E" unicode="&#x19e;" horiz-adv-x="1187" 
d="M755 1081q269 0 224 -327l-164 -1147l-16 -2l164 1149q45 313 -211 313q-135 0 -247 -96t-218 -305l-92 -666h-17l148 1061h14l-47 -361q193 381 462 381z" />
    <glyph glyph-name="uni019F" unicode="&#x19f;" horiz-adv-x="1404" 
d="M627 -2q250 0 410.5 182t207.5 516h-1034q-14 -88 -14 -178q0 -250 113.5 -385t316.5 -135zM812 1399q-220 0 -386 -184.5t-213 -503.5h1034q12 119 13 170q0 250 -114 384t-334 134zM810.5 1413q227.5 0 346.5 -139t119 -395q0 -70 -14 -181q-47 -342 -213 -529
t-422 -187q-211 0 -329 139t-118 397q0 84 13 180q45 332 217.5 523.5t400 191.5z" />
    <glyph glyph-name="Ohorn" unicode="&#x1a0;" horiz-adv-x="1409" 
d="M629 -2q141 0 253.5 59.5t181.5 152.5t115 213q81 211 81 458.5t-114 382.5t-321 135q-314 -1 -490 -315q-91 -164 -124 -384q-14 -94 -14 -182q0 -250 113.5 -385t318.5 -135zM1315 1452q0 -164 -156 -180q119 -141 119 -417t-136 -553q-70 -142 -202.5 -231t-310.5 -89
q-213 0 -331 140t-118 387t89 473q48 122 120 216t185.5 154.5t250.5 60.5q211 0 326 -131q82 8 114.5 50t32.5 108.5t-12 113.5l14 5q15 -58 15 -107z" />
    <glyph glyph-name="ohorn" unicode="&#x1a1;" horiz-adv-x="1144" 
d="M482.5 -4q144.5 0 243.5 68q100 68 152 174q102 206 101.5 414t-85.5 310.5t-229.5 102.5t-242.5 -66.5t-152 -172.5q-104 -206 -104 -413.5t86 -312t230.5 -104.5zM926 948q149 16 149 156q0 64 -14 117l14 4q15 -58 15 -107q0 -166 -156 -182q63 -102 63 -237.5
t-26.5 -248t-80.5 -222t-156.5 -178t-252 -68.5t-240.5 108.5t-91 322.5q0 213 108 425q55 108 157.5 175.5t235.5 67.5q182 0 275 -133z" />
    <glyph glyph-name="uni01A2" unicode="&#x1a2;" horiz-adv-x="1794" 
d="M825 1399q-314 -1 -490 -315q-91 -164 -124 -384q-14 -94 -14 -182q0 -250 113.5 -385t318.5 -135q141 0 253.5 59.5t181.5 152.5t115 213q81 211 81 458.5t-114 382.5t-321 135zM1423 1413q122 0 168.5 -66.5t30.5 -175.5l-219 -1558h-17l220 1558q14 106 -28 167
t-161.5 61t-292.5 -88q154 -141 154 -436.5t-136 -572.5q-70 -142 -202.5 -231t-310.5 -89q-213 0 -331 140t-118 387t89 473q48 122 120 216t185.5 154.5t270 60.5t267.5 -92q189 92 311 92z" />
    <glyph glyph-name="uni01A3" unicode="&#x1a3;" horiz-adv-x="1486" 
d="M664.5 1065q-144.5 0 -242.5 -66.5t-152 -172.5q-104 -206 -104 -413.5t86 -312t230.5 -104.5t243.5 68q100 68 152 174q102 206 101.5 414t-85.5 310.5t-229.5 102.5zM1092 1081q233 0 196 -243l-170 -1231l-18 -2l172 1233q33 227 -180 227q-117 0 -226 -53
q131 -102 131 -334q0 -234 -107 -450q-54 -110 -156.5 -178t-252 -68t-240.5 108.5t-91 322.5q0 213 108 425q55 108 157.5 175.5t228.5 67.5t210 -59q125 59 238 59z" />
    <glyph glyph-name="uni01A4" unicode="&#x1a4;" horiz-adv-x="1226" 
d="M618 606q150 0 258 40t166 108q108 129 108.5 304t-102 247.5t-315.5 72.5h-244l-108 -772h237zM733 1393q221 0 328.5 -78t107.5 -258q1 -179 -113 -313q-130 -154 -442 -154h-235l-82 -590h-16l192 1378h-88q-106 0 -162.5 -52t-56.5 -126.5t37 -144.5l-15 -8
q-39 70 -38 135q0 98 61 154.5t176 56.5h346z" />
    <glyph glyph-name="uni01A5" unicode="&#x1a5;" horiz-adv-x="1163" 
d="M501 -4q136 0 233 70q96 72 150 182q106 220 107 423q0 394 -289 394q-117 0 -206.5 -54.5t-182.5 -160.5l-110 -787q162 -67 298 -67zM631.5 1503q112.5 0 212.5 -65l-8 -15q-96 66 -203.5 66t-177.5 -57.5t-84 -167.5l-54 -394q170 211 385 211q150 0 228 -100t78 -308
q0 -207 -111 -435q-55 -112 -156.5 -184t-239.5 -72t-300 65l-62 -436l-16 -2l233 1657q14 113 88.5 175t187 62z" />
    <glyph glyph-name="uni01A6" unicode="&#x1a6;" horiz-adv-x="1155" 
d="M600 412q207 0 310.5 120.5t103.5 270t-89 221.5t-292 72h-275l-96 -684h338zM1032 815q0 -160 -97 -281.5t-298 -136.5l299 -680h-21l-294 678h-361l-55 -395h-17l195 1393h16l-39 -281h271q401 0 401 -297z" />
    <glyph glyph-name="uni01A7" unicode="&#x1a7;" horiz-adv-x="1097" 
d="M698 1413q147 0 230.5 -72.5t83.5 -193.5q0 -160 -104 -247q-104 -86 -327.5 -154t-330.5 -169.5t-107 -279.5q0 -137 93.5 -218t246.5 -81q236 0 424 158l8 -13q-188 -162 -434 -161q-160 0 -257 86t-97 229q0 184 109.5 288.5t333.5 174.5t324.5 151.5t100.5 235.5
q0 115 -78.5 183.5t-218.5 68.5q-199 0 -381 -133l-10 14q188 133 391 133z" />
    <glyph glyph-name="uni01A8" unicode="&#x1a8;" horiz-adv-x="937" 
d="M553 1081q115 0 187 -60q72 -59 71.5 -159t-68 -175t-275.5 -133t-280.5 -140t-72.5 -190t76.5 -168t201.5 -60q205 0 369 133l10 -12q-168 -135 -379 -135q-135 0 -215 64q-80 66 -80 178t77 199t284 144t271.5 128t64.5 165t-66.5 149.5t-175.5 55.5q-168 0 -315 -104
l-7 12q146 108 322 108z" />
    <glyph glyph-name="uni01A9" unicode="&#x1a9;" horiz-adv-x="987" 
d="M45 0v12l592 682l-399 688l2 11h749l-2 -15h-727l393 -682v-8l-581 -672h725l-2 -16h-750z" />
    <glyph glyph-name="uni01AA" unicode="&#x1aa;" horiz-adv-x="526" 
d="M45 1239q1 -149 149 -149q74 0 148 49l25 176q12 78 -18 126t-109.5 48t-137 -71.5t-57.5 -178.5zM189 1075q-160 1 -160 183q0 96 63.5 170.5t148.5 74.5t119.5 -53t22.5 -137l-184 -1313l-25 -193q-28 -188 141 -188q82 0 160 55l8 -12q-80 -59 -169 -59t-130 53
t-26 151l24 193l158 1122q-72 -47 -151 -47z" />
    <glyph glyph-name="uni01AB" unicode="&#x1ab;" horiz-adv-x="661" 
d="M375 -4q92 0 203 53l4 -10l-31 -232q-14 -100 -71.5 -152t-144.5 -52t-155 59l10 12q62 -55 144 -55q170 0 201 191l30 221q-94 -49 -192 -49t-146.5 65.5t-29.5 185.5l112 811h-178l2 17h178l41 272h15l-39 -272h297l-4 -17h-295l-113 -808q-16 -115 27 -177.5
t135 -62.5z" />
    <glyph glyph-name="uni01AC" unicode="&#x1ac;" horiz-adv-x="1009" 
d="M385 1376q-106 0 -162.5 -51t-56.5 -127.5t37 -142.5l-15 -8q-39 74 -38 137q0 96 62 152.5t175 56.5h707l-4 -17h-437l-192 -1376h-19l195 1376h-252z" />
    <glyph glyph-name="uni01AD" unicode="&#x1ad;" horiz-adv-x="661" 
d="M379 -4q96 0 196 57l7 -14q-106 -57 -206.5 -57t-149 65.5t-29.5 185.5l112 811h-178l2 17h178l27 190q16 121 82.5 186.5t166 65.5t191.5 -57l-8 -14q-84 57 -180 57t-159 -62.5t-77 -177.5l-26 -188h297l-4 -17h-295l-113 -808q-16 -115 27 -177.5t139 -62.5z" />
    <glyph glyph-name="uni01AE" unicode="&#x1ae;" horiz-adv-x="968" 
d="M534.5 -381q81.5 0 159.5 55l8 -12q-80 -59 -169 -59t-130 53t-28 154l221 1566h-438l2 17h893l-4 -17h-437l-194 -1376l-25 -193q-14 -92 23 -140t118.5 -48z" />
    <glyph glyph-name="Uhorn" unicode="&#x1af;" horiz-adv-x="1304" 
d="M1327 1452q0 -166 -162 -180l-118 -850q-27 -203 -141.5 -321.5t-328.5 -118.5t-296 118.5t-54 323.5l138 969h16l-137 -969q-27 -197 51 -311.5t282.5 -114.5t315.5 115.5t137 310.5l137 969h17l-17 -111q80 10 112 51t32 107t-13 114l15 5q14 -58 14 -107z" />
    <glyph glyph-name="uhorn" unicode="&#x1b0;" horiz-adv-x="1177" 
d="M983 948q143 18 143 156q0 64 -14 117l14 4q15 -58 15 -107q0 -166 -158 -182l-131 -936h-14l47 340q-74 -172 -186.5 -265t-246.5 -93t-199 84t-44 241l104 754h17l-105 -754q-20 -152 40.5 -231.5t191.5 -79.5t241.5 97t188.5 278l96 690h16z" />
    <glyph glyph-name="uni01B1" unicode="&#x1b1;" horiz-adv-x="1406" 
d="M633 -20q-213 0 -333 142t-120 406t115 496.5t328 353.5h-273v15h297v-17q-217 -121 -333.5 -354.5t-116.5 -492.5t115.5 -396t314.5 -137t343 117.5t214.5 307t70.5 417.5q0 375 -243 538v17h297l-2 -15h-273q240 -166 240 -533t-173 -616t-468 -249z" />
    <glyph glyph-name="uni01B2" unicode="&#x1b2;" horiz-adv-x="1284" 
d="M1047 1413q139 0 114 -174l-92 -653q-43 -305 -185.5 -454.5t-353.5 -149.5q-174 0 -254.5 103t-56.5 286l143 1022h17l-143 -1020q-25 -178 52 -276.5t242 -98.5q207 0 344.5 145.5t178.5 444.5l92 651q23 160 -101 160q-51 0 -100 -23l-6 13q50 24 109 24z" />
    <glyph glyph-name="uni01B3" unicode="&#x1b3;" horiz-adv-x="1038" 
d="M1143.5 1413q76.5 0 146.5 -78l-8 -12q-72 76 -141.5 76t-109.5 -31t-81 -100l-442 -713l-78 -555h-16l75 555l-319 838h18l312 -822l436 703q45 76 88 107.5t119.5 31.5z" />
    <glyph glyph-name="uni01B4" unicode="&#x1b4;" horiz-adv-x="894" 
d="M994.5 1159q50.5 0 90.5 -18l-4 -15q-37 16 -84.5 16.5t-81.5 -31.5t-67 -110l-451 -1003q-61 -126 -105 -192q-94 -139 -298 -197v14q154 43 226.5 119t162.5 258h-10l-242 1061h19l237 -1051l444 998q37 82 75 116.5t88.5 34.5z" />
    <glyph glyph-name="uni01B5" unicode="&#x1b5;" horiz-adv-x="1036" 
d="M1055 1393l-2 -15l-498 -669h244l-2 -17h-254l-504 -676h788l-2 -16h-809l2 16l502 676h-252l2 17h262l498 669h-745l2 15h768z" />
    <glyph glyph-name="uni01B6" unicode="&#x1b6;" horiz-adv-x="839" 
d="M668 555v-14h-234l-414 -525h648l-4 -16h-668l2 14l414 527h-224v14h236l387 489h-608l2 17h629l-3 -14l-387 -492h224z" />
    <glyph glyph-name="uni01B7" unicode="&#x1b7;" horiz-adv-x="956" 
d="M446 750q209 0 307.5 -94.5t79 -273.5t-143.5 -289.5t-320 -110.5q-236 0 -367 161l12 11q66 -78 148 -117t207 -39q188 0 307 105.5t139 279.5q18 174 -76 262t-293 88h-149l2 17l586 628h-690l2 15h712l-2 -15l-588 -628h127z" />
    <glyph glyph-name="uni01B8" unicode="&#x1b8;" horiz-adv-x="958" 
d="M721 733h-150q-219 0 -348 -112.5t-129 -305.5q0 -145 88 -231t233.5 -86t240 38t180.5 118l12 -11q-90 -82 -187.5 -121.5t-247 -39.5t-242.5 91t-93 242q0 201 135 318t360 117h129l-421 628l2 15h721l-3 -15h-698l418 -628v-17z" />
    <glyph glyph-name="uni01B9" unicode="&#x1b9;" horiz-adv-x="903" 
d="M885 1061v-17h-652l375 -653l-2 -14h-102q-223 0 -354.5 -119t-131.5 -317q0 -145 86 -233.5t242 -88.5q215 0 381 156l12 -11q-172 -162 -393 -161q-162 0 -253 93t-91 245q0 205 136 327.5t368 122.5h84l-379 656l2 14h672z" />
    <glyph glyph-name="uni01BA" unicode="&#x1ba;" horiz-adv-x="907" 
d="M-4 -209q0 86 82 137t280 74q198 22 301 94q102 72 103 221q0 111 -65 160t-193 49h-264l2 15l555 503h-629l2 17h653v-14l-559 -506h242q274 0 274 -224q0 -153 -106 -229t-306 -99t-278 -71t-78 -127q0 -113 174 -172l-8 -12q-182 63 -182 184z" />
    <glyph glyph-name="uni01BB" unicode="&#x1bb;" horiz-adv-x="948" 
d="M870 1085q0 -125 -53 -230t-209 -277h226l-3 -17h-237q-131 -143 -541 -545h688l-4 -16h-708l2 16q410 401 540 545h-364l2 17h377q162 174 215 278t53 225t-78 199t-209 78q-190 0 -360 -164l-14 10q180 170 374 170q139 0 221 -82t82 -207z" />
    <glyph glyph-name="uni01BC" unicode="&#x1bc;" horiz-adv-x="985" 
d="M524 862q152 0 235 -86t83 -238t-64 -290q-35 -76 -86 -134t-133 -96t-184 -36q-219 0 -334 151l14 8q106 -145 322 -145q121 0 213 54t140 139q97 172 96 333q-2 324 -304 324q-154 0 -293 -92h-14l88 639h619l-4 -15h-599l-86 -608q139 92 291 92z" />
    <glyph glyph-name="uni01BD" unicode="&#x1bd;" horiz-adv-x="862" 
d="M700 395q0 -178 -102 -295.5t-274 -117.5t-269 118l13 9q90 -113 255 -113t263 113.5t98 285.5q0 117 -61.5 182.5t-177.5 65.5t-236 -72h-14l67 490h502l-4 -17h-484l-63 -456q119 72 238 71.5t184 -70t65 -194.5z" />
    <glyph glyph-name="uni01BE" unicode="&#x1be;" horiz-adv-x="1003" 
d="M379.5 -12q-195.5 0 -328.5 162l10 10q133 -156 320.5 -156t309.5 133t122 336q0 262 -281 328l-133 28l52 359h-146v14h148l43 295l16 2l-43 -297h246l-2 -14h-246l-49 -346l117 -27q295 -66 294 -342q0 -209 -127 -347t-322.5 -138z" />
    <glyph glyph-name="uni01BF" unicode="&#x1bf;" horiz-adv-x="1153" 
d="M1008 789.5q0 127.5 -75 201.5t-204 74q-219 0 -416 -213l-120 -862l143 69q156 76 266.5 144.5t208.5 157t147.5 195t49.5 234zM729 1081q137 0 216 -78.5t79 -212t-50 -242t-150.5 -198.5t-213 -159.5t-270.5 -145.5l-150 -72l-51 -364l-18 -2l205 1454h14l-25 -189
q195 209 414 209z" />
    <glyph glyph-name="uni01C0" unicode="&#x1c0;" horiz-adv-x="540" 
d="M414 1499l-211 -1499h-15l209 1497z" />
    <glyph glyph-name="uni01C1" unicode="&#x1c1;" horiz-adv-x="811" 
d="M414 1499l-211 -1499h-15l209 1497zM684 1499l-209 -1499h-16l211 1497z" />
    <glyph glyph-name="uni01C2" unicode="&#x1c2;" horiz-adv-x="686" 
d="M633 889h-238l-41 -293h238l-2 -12h-238l-82 -584h-14l82 584h-227l2 12h227l39 293h-225l2 12h225l84 596l16 2l-84 -598h238z" />
    <glyph glyph-name="uni01C3" unicode="&#x1c3;" horiz-adv-x="573" 
d="M213 37q25 0 25 -24q0 -23 -25 -23t-25 24t25 23zM428 1499l-156 -1112h-16l156 1110z" />
    <glyph glyph-name="uni01C4" unicode="&#x1c4;" horiz-adv-x="2273" 
d="M604 1378h-207l-190 -1362h219q184 0 322 78q140 78 216 208q148 252 148 589q0 291 -161 396q-140 91 -347 91zM1255 0l2 16l1012 1362h-745l2 15h768l-2 -15l-1014 -1362h788l-2 -16h-809zM606 1393q214 -1 358 -95q164 -108 164 -395q0 -457 -228 -709
q-79 -88 -202 -141t-274 -53h-236l195 1393h223zM2142 1741l8 -8l-252 -168h-10l-205 168l11 8l200 -160z" />
    <glyph glyph-name="uni01C5" unicode="&#x1c5;" horiz-adv-x="2099" 
d="M2093 1061l-2 -14l-811 -1031h647l-4 -16h-668l2 14l814 1030h-609l2 17h629zM604 1378h-207l-190 -1362h219q184 0 322 78q140 78 216 208q148 252 148 589q0 291 -161 396q-140 91 -347 91zM606 1393q214 -1 358 -95q164 -108 164 -395q0 -457 -228 -709
q-79 -88 -202 -141t-274 -53h-236l195 1393h223zM2062 1511l9 -10l-256 -178h-11l-200 178l10 10l198 -170z" />
    <glyph glyph-name="uni01C6" unicode="&#x1c6;" horiz-adv-x="2011" 
d="M2005 1061l-2 -14l-811 -1031h647l-4 -16h-668l2 14l813 1030h-608l2 17h629zM649 1065q-127 0 -223 -67.5t-148 -175.5q-104 -214 -104 -418.5t79 -306t213 -101.5t228 86t180 242l76 534q-84 207 -301 207zM462 -18q-138 0 -221 104t-83 313t106 431
q53 112 152.5 181.5t224.5 69.5t201 -58t110 -142l86 618l17 -2l-209 -1497h-15l39 293q-82 -145 -176 -228t-232 -83zM1974 1511l8 -10l-256 -178h-10l-200 178l10 10l198 -170z" />
    <glyph glyph-name="uni01C7" unicode="&#x1c7;" horiz-adv-x="1478" 
d="M1350 1393l-170 -1217q-20 -152 -81 -228.5t-222 -140.5l-5 15q154 61 212.5 136t78.5 220l170 1215h17zM399 1393l-192 -1377h590l-4 -16h-605l195 1393h16z" />
    <glyph glyph-name="uni01C8" unicode="&#x1c8;" horiz-adv-x="1435" 
d="M1257 1061l-147 -1057q-25 -178 -81 -256t-183 -141l-6 12q121 59 176 137t78 250l147 1055h16zM399 1393l-192 -1377h590l-4 -16h-605l195 1393h16zM1306 1456q19 0 17 -20t-20 -21q-20 0 -21 23q5 18 24 18z" />
    <glyph glyph-name="uni01C9" unicode="&#x1c9;" horiz-adv-x="1103" 
d="M926 1061l-148 -1057q-25 -178 -81 -256t-183 -141l-6 12q121 59 176 137t78 250l147 1055h17zM974 1456q19 0 17 -20t-20 -21q-20 0 -21 23q5 18 24 18zM301 -4q33 0 86 16l2 -14q-43 -16 -88 -16q-133 0 -115 155l191 1360l16 2l-190 -1362q-20 -141 98 -141z" />
    <glyph glyph-name="uni01CA" unicode="&#x1ca;" horiz-adv-x="1906" 
d="M1778 1393l-170 -1217q-20 -152 -81 -228.5t-222 -140.5l-5 15q154 61 212.5 136t78.5 220l170 1215h17zM1202 1393l-194 -1393h-21l-592 1374q-2 -18 -8 -60t-12 -92.5t-15 -109.5l-155 -1112h-17l195 1393h23l589 -1373l191 1373h16z" />
    <glyph glyph-name="uni01CB" unicode="&#x1cb;" horiz-adv-x="1863" 
d="M1686 1061l-148 -1057q-25 -178 -81 -256t-183 -141l-6 12q121 59 176 137t78 250l147 1055h17zM1202 1393l-194 -1393h-21l-592 1374q-2 -18 -8 -60t-12 -92.5t-15 -109.5l-155 -1112h-17l195 1393h23l589 -1373l191 1373h16zM1734 1456q19 0 17 -20t-20 -21
q-20 0 -21 23q5 18 24 18z" />
    <glyph glyph-name="uni01CC" unicode="&#x1cc;" horiz-adv-x="1708" 
d="M1530 1061l-148 -1057q-25 -178 -81 -256t-183 -141l-6 12q121 59 176 137t78 250l147 1055h17zM754 1081q133 0 190 -86t35 -241l-107 -754h-16l107 754q43 313 -209 313q-135 0 -248 -96.5t-219 -304.5l-92 -666h-17l148 1061h14l-47 -361q193 381 461 381zM1578 1456
q19 0 17 -20t-20 -21q-20 0 -21 23q5 18 24 18z" />
    <glyph glyph-name="uni01CD" unicode="&#x1cd;" horiz-adv-x="1138" 
d="M229 446h658l-199 930zM981 0l-92 430h-668l-211 -430h-16l686 1393h18l299 -1393h-16zM709 1565h-11l-204 168l10 8l201 -160l247 160l9 -8z" />
    <glyph glyph-name="uni01CE" unicode="&#x1ce;" horiz-adv-x="1110" 
d="M684 1067q-139 0 -244.5 -66.5t-163.5 -172.5q-112 -208 -112 -449q0 -172 80 -277.5t221 -105.5q217 0 360 260l111 733q-113 78 -252 78zM685 1081q144 0 267 -84l-114 -755q-8 -55 -9 -107q0 -109 82 -141l-6 -12q-70 27 -83 86t-3 157q-66 -119 -159 -181t-195 -62
q-150 0 -234 109.5t-84 287.5q-1 245 117 459q60 108 168.5 175.5t252.5 67.5zM977 1511l8 -10l-256 -178h-10l-201 178l10 10l199 -170z" />
    <glyph glyph-name="uni01CF" unicode="&#x1cf;" horiz-adv-x="540" 
d="M399 1393l-194 -1393h-17l195 1393h16zM653 1741l9 -8l-252 -168h-11l-204 168l10 8l201 -160z" />
    <glyph glyph-name="uni01D0" unicode="&#x1d0;" horiz-adv-x="520" 
d="M342 1061l-147 -1061h-17l148 1061h16zM623 1511l8 -10l-256 -178h-10l-201 178l10 10l199 -170z" />
    <glyph glyph-name="uni01D1" unicode="&#x1d1;" horiz-adv-x="1409" 
d="M825 1399q-314 -1 -490 -315q-91 -164 -124 -384q-14 -94 -14 -182q0 -250 113.5 -385t318.5 -135q141 0 253.5 59.5t181.5 152.5t115 213q81 211 81 458.5t-114 382.5t-321 135zM825 1413q215 0 334 -139t119 -417t-136 -555q-70 -142 -202.5 -231t-310.5 -89
q-213 0 -331 140t-118 387t89 473q48 122 120 216t185.5 154.5t250.5 60.5zM1083 1741l9 -8l-252 -168h-11l-204 168l10 8l201 -160z" />
    <glyph glyph-name="uni01D2" unicode="&#x1d2;" horiz-adv-x="1144" 
d="M664.5 1065q-144.5 0 -242.5 -66.5t-152 -172.5q-104 -206 -104 -413.5t86 -312t230.5 -104.5t243.5 68q100 68 152 174q102 206 101.5 414t-85.5 310.5t-229.5 102.5zM666.5 1081q148.5 0 239.5 -106.5t91 -318.5t-107 -428q-54 -110 -156.5 -178t-252 -68t-240.5 108.5
t-91 322.5q0 213 108 425q55 108 157.5 175.5t251 67.5zM936 1511l8 -10l-256 -178h-10l-201 178l10 10l199 -170z" />
    <glyph glyph-name="uni01D3" unicode="&#x1d3;" horiz-adv-x="1304" 
d="M577 -18q-214 0 -296 118.5t-54 323.5l138 969h16l-137 -969q-27 -197 51 -311.5t282.5 -114.5t315.5 115.5t137 310.5l137 969h17l-137 -971q-27 -203 -141.5 -321.5t-328.5 -118.5zM1036 1741l8 -8l-251 -168h-11l-204 168l10 8l200 -160z" />
    <glyph glyph-name="uni01D4" unicode="&#x1d4;" horiz-adv-x="1177" 
d="M452 -18q-134 0 -199 84t-44 241l104 754h17l-105 -754q-20 -152 40.5 -231.5t191.5 -79.5t241.5 97t188.5 278l96 690h16l-147 -1061h-14l47 340q-74 -172 -186.5 -265t-246.5 -93zM944 1511l8 -10l-256 -178h-10l-201 178l11 10l198 -170z" />
    <glyph glyph-name="uni01D5" unicode="&#x1d5;" horiz-adv-x="1304" 
d="M577 -18q-214 0 -296 118.5t-54 323.5l138 969h16l-137 -969q-27 -197 51 -311.5t282.5 -114.5t315.5 115.5t137 310.5l137 969h17l-137 -971q-27 -203 -141.5 -321.5t-328.5 -118.5zM949 1561q19 0 20 -21q-4 -20 -23.5 -20t-19.5 22q4 19 23 19zM634 1561q19 0 19 -21
q-4 -20 -23 -20t-20 22q5 19 24 19zM1008 1716h-400l2 17h400z" />
    <glyph glyph-name="uni01D6" unicode="&#x1d6;" horiz-adv-x="1177" 
d="M452 -18q-134 0 -199 84t-44 241l104 754h17l-105 -754q-20 -152 40.5 -231.5t191.5 -79.5t241.5 97t188.5 278l96 690h16l-147 -1061h-14l47 340q-74 -172 -186.5 -265t-246.5 -93zM865 1366q19 0 20 -20q-4 -20 -23 -21q-20 0 -20 23q4 18 23 18zM550 1366q19 0 17 -20
t-20 -21q-20 0 -21 23q5 18 24 18zM926 1528h-400l2 16h400z" />
    <glyph glyph-name="uni01D7" unicode="&#x1d7;" horiz-adv-x="1304" 
d="M577 -18q-214 0 -296 118.5t-54 323.5l138 969h16l-137 -969q-27 -197 51 -311.5t282.5 -114.5t315.5 115.5t137 310.5l137 969h17l-137 -971q-27 -203 -141.5 -321.5t-328.5 -118.5zM866 1561q25 0 21 -21q0 -20 -23 -20t-18 22q0 19 20 19zM702.5 1561q20.5 0 20.5 -21
q-4 -20 -21 -20q-25 0 -20 22q0 19 20.5 19zM989 1833l12 -12l-221 -224l-10 9z" />
    <glyph glyph-name="uni01D8" unicode="&#x1d8;" horiz-adv-x="1177" 
d="M452 -18q-134 0 -199 84t-44 241l104 754h17l-105 -754q-20 -152 40.5 -231.5t191.5 -79.5t241.5 97t188.5 278l96 690h16l-147 -1061h-14l47 340q-74 -172 -186.5 -265t-246.5 -93zM765 1366q19 0 17 -20t-20 -21q-20 0 -21 23q5 18 24 18zM602.5 1366q20.5 0 15.5 -20
q0 -20 -20 -20.5t-20 22.5q4 18 24.5 18zM881 1638l12 -12l-221 -223l-10 8z" />
    <glyph glyph-name="uni01D9" unicode="&#x1d9;" horiz-adv-x="1304" 
d="M577 -18q-214 0 -296 118.5t-54 323.5l138 969h16l-137 -969q-27 -197 51 -311.5t282.5 -114.5t315.5 115.5t137 310.5l137 969h17l-137 -971q-27 -203 -141.5 -321.5t-328.5 -118.5zM866 1561q25 0 21 -21q0 -20 -23 -20t-18 22q0 19 20 19zM702.5 1561
q20.5 0 20.5 -20.5t-23 -20.5t-18 22q0 19 20.5 19zM1040 1763l9 -8l-252 -168h-11l-204 168l10 8l201 -159z" />
    <glyph glyph-name="uni01DA" unicode="&#x1da;" horiz-adv-x="1177" 
d="M452 -18q-134 0 -199 84t-44 241l104 754h17l-105 -754q-20 -152 40.5 -231.5t191.5 -79.5t241.5 97t188.5 278l96 690h16l-147 -1061h-14l47 340q-74 -172 -186.5 -265t-246.5 -93zM764 1366q25 0 20 -20q0 -20 -20 -21q-25 0 -21 23q1 18 21 18zM600.5 1366
q20.5 0 20.5 -20.5t-23 -20.5t-18 23q0 18 20.5 18zM936 1569l8 -8l-252 -168h-10l-205 168l10 8l201 -160z" />
    <glyph glyph-name="uni01DB" unicode="&#x1db;" horiz-adv-x="1304" 
d="M577 -18q-214 0 -296 118.5t-54 323.5l138 969h16l-137 -969q-27 -197 51 -311.5t282.5 -114.5t315.5 115.5t137 310.5l137 969h17l-137 -971q-27 -203 -141.5 -321.5t-328.5 -118.5zM866 1561q25 0 21 -21q0 -20 -23 -20t-18 22q0 19 20 19zM702.5 1561q20.5 0 20.5 -21
q-4 -20 -21 -20q-25 0 -20 22q0 19 20.5 19zM664 1833l155 -227l-12 -9l-160 224z" />
    <glyph glyph-name="uni01DC" unicode="&#x1dc;" horiz-adv-x="1177" 
d="M452 -18q-134 0 -199 84t-44 241l104 754h17l-105 -754q-20 -152 40.5 -231.5t191.5 -79.5t241.5 97t188.5 278l96 690h16l-147 -1061h-14l47 340q-74 -172 -186.5 -265t-246.5 -93zM763.5 1366q20.5 0 20.5 -20.5t-20 -20.5q-25 0 -21 23q0 18 20.5 18zM601 1366
q19 0 20 -20q-4 -20 -21 -21q-23 0 -22 23q4 18 23 18zM555 1638l156 -227l-13 -8l-159 223z" />
    <glyph glyph-name="uni01DD" unicode="&#x1dd;" horiz-adv-x="1062" 
d="M401 -4q121 0 217.5 58.5t151.5 152.5q109 186 125 395q-770 -39 -770 -387q0 -102 77.5 -160.5t198.5 -58.5zM567 1079q166 0 256 -105.5t90 -297.5t-69 -360q-39 -94 -95.5 -168t-147.5 -121t-210 -47t-202 62t-83 173q0 174 196 277.5t593 123.5q2 18 2 52
q0 193 -86 295t-240 102q-94 0 -167.5 -28.5t-159.5 -90.5l-8 12q165 121 331 121z" />
    <glyph glyph-name="uni01DE" unicode="&#x1de;" horiz-adv-x="1138" 
d="M229 446h658l-199 930zM981 0l-92 430h-668l-211 -430h-16l686 1393h18l299 -1393h-16zM842 1542q4 18 22 19q20 0 21 -21q-4 -20 -23 -20q-20 -1 -20 22zM526 1542q4 18 23 19q20 0 20 -21q-4 -20 -22 -20q-21 -1 -21 22zM926 1733l-2 -17h-400l2 17h400z" />
    <glyph glyph-name="uni01DF" unicode="&#x1df;" horiz-adv-x="1110" 
d="M684 1067q-139 0 -244.5 -66.5t-163.5 -172.5q-112 -208 -112 -449q0 -172 80 -277.5t221 -105.5q217 0 360 260l111 733q-113 78 -252 78zM685 1081q144 0 267 -84l-114 -755q-8 -55 -9 -107q0 -109 82 -141l-6 -12q-70 27 -83 86t-3 157q-66 -119 -159 -181t-195 -62
q-150 0 -234 109.5t-84 287.5q-1 245 117 459q60 108 168.5 175.5t252.5 67.5zM898 1366q19 0 20 -20q-4 -20 -23 -21q-20 0 -21 23q5 18 24 18zM583 1366q19 0 17 -20t-20 -21q-20 0 -21 23q5 18 24 18zM958 1528h-399l2 16h400z" />
    <glyph glyph-name="uni01E0" unicode="&#x1e0;" horiz-adv-x="1138" 
d="M229 446h658l-199 930zM981 0l-92 430h-668l-211 -430h-16l686 1393h18l299 -1393h-16zM711.5 1577q19.5 0 19.5 -21q-4 -20 -23.5 -20t-19.5 23q4 18 23.5 18zM932 1731l-2 -17h-400l2 17h400z" />
    <glyph glyph-name="uni01E1" unicode="&#x1e1;" horiz-adv-x="1110" 
d="M684 1067q-139 0 -244.5 -66.5t-163.5 -172.5q-112 -208 -112 -449q0 -172 80 -277.5t221 -105.5q217 0 360 260l111 733q-113 78 -252 78zM685 1081q144 0 267 -84l-114 -755q-8 -55 -9 -107q0 -109 82 -141l-6 -12q-70 27 -83 86t-3 157q-66 -119 -159 -181t-195 -62
q-150 0 -234 109.5t-84 287.5q-1 245 117 459q60 108 168.5 175.5t252.5 67.5zM726 1337q19 0 17 -20t-20 -21q-20 0 -21 23q5 18 24 18zM948 1511h-399l2 17h399z" />
    <glyph glyph-name="uni01E2" unicode="&#x1e2;" horiz-adv-x="1540" 
d="M823 430l-116 950l-500 -950h616zM1446 1378h-723l78 -633h540l-2 -14h-536l88 -715h479l-4 -16h-492l-49 414h-626l-217 -414h-19l733 1393h754zM1290 1683l-2 -16h-399l2 16h399z" />
    <glyph glyph-name="uni01E3" unicode="&#x1e3;" horiz-adv-x="1712" 
d="M575 592q-229 0 -337.5 -97.5t-108.5 -248.5q0 -113 66.5 -181.5t190.5 -68.5t222.5 62.5t202.5 201.5q-31 148 8 332h-244zM1320 1065q-114 0 -202 -46t-140 -112.5t-99.5 -179t-61.5 -268.5q770 41 770 387q0 102 -76.5 160.5t-190.5 58.5zM600 1081q125 0 206 -73.5
t87 -210.5q33 71 117 165q108 120 320 119q110 0 193 -62.5t83 -172.5q0 -174 -198 -277.5t-593 -124.5q-7 -164 59 -298q34 -68 102 -109t165 -41q164 0 325 121l11 -15q-166 -121 -336 -120q-260 0 -324 262q-104 -139 -204.5 -200.5t-229.5 -61.5t-199.5 72.5
t-70.5 191.5q0 158 112.5 259t347.5 101h252q25 102 56 170q-2 141 -80 215t-203 74t-303 -68l-4 15q184 69 309 69zM1182 1409h-400l2 16h400z" />
    <glyph glyph-name="uni01E4" unicode="&#x1e4;" horiz-adv-x="1257" 
d="M649 -18q-221 0 -344 140t-123 402t107 500t303 335q108 54 235 54q176 0 316 -115l-10 -12q-135 113 -298.5 113t-288 -81t-197.5 -211q-150 -267 -150 -583q0 -256 118.5 -391t331.5 -135q174 0 344 92l51 356h-299l3 17h299l32 229h-305v17h324l-35 -246h164l-2 -17
h-164l-51 -366q-188 -98 -361 -98z" />
    <glyph glyph-name="uni01E5" unicode="&#x1e5;" horiz-adv-x="997" 
d="M467 16q219 0 364 271l105 702q-113 78 -252 78t-244.5 -63.5t-161.5 -165.5q-110 -199 -110 -435q0 -174 79 -280.5t220 -106.5zM432 -381q238 0 322 223h-285l2 15h287q20 61 28 123l41 276q-68 -125 -163 -190.5t-197 -65.5q-150 0 -232.5 111.5t-82.5 291.5
q0 243 114 445q58 104 166.5 168.5t252.5 64.5t267 -84l-149 -1015q-8 -63 -29 -125h176l-2 -15h-178q-86 -238 -340 -237q-182 0 -328 94l7 14q150 -94 323 -94z" />
    <glyph glyph-name="Gcaron" unicode="&#x1e6;" horiz-adv-x="1232" 
d="M827 1413q176 0 316 -115l-10 -12q-135 113 -298.5 113t-288 -81t-197.5 -211q-150 -267 -150 -583q0 -256 118.5 -391t331.5 -135q174 0 344 92l86 602h-305v17h324l-88 -629q-188 -98 -361 -98q-221 0 -344 140t-123 402t107 500t303 335q108 54 235 54zM1079 1741
l8 -8l-251 -168h-11l-204 168l10 8l200 -160z" />
    <glyph glyph-name="gcaron" unicode="&#x1e7;" horiz-adv-x="1128" 
d="M684 1067q-139 0 -244.5 -63.5t-161.5 -165.5q-110 -199 -110 -435q0 -174 79 -280.5t220 -106.5q219 0 364 271l105 702q-113 78 -252 78zM685 1081q144 0 267 -84l-149 -1015q-31 -207 -127 -292t-262 -85t-312 94l7 14q150 -94 323 -94q301 0 354 361l41 276
q-68 -125 -163 -190.5t-197 -65.5q-150 0 -232.5 111.5t-82.5 291.5q0 243 114 445q58 104 166.5 168.5t252.5 64.5zM936 1511l8 -10l-256 -178h-10l-201 178l10 10l199 -170z" />
    <glyph glyph-name="uni01E8" unicode="&#x1e8;" horiz-adv-x="1036" 
d="M1100 1393l-762 -643l600 -750h-20l-603 750l762 643h23zM399 1393l-194 -1391h-17l195 1391h16zM967 1741l8 -8l-252 -168h-10l-205 168l10 8l201 -160z" />
    <glyph glyph-name="uni01E9" unicode="&#x1e9;" horiz-adv-x="1040" 
d="M752 1081q102 0 159.5 -57t57.5 -154q0 -248 -383 -374l258 -496h-19l-262 504q389 123 389 364q0 92 -51 145.5t-149 53.5q-268 0 -471 -451l-86 -616h-17l209 1497l16 2l-118 -844q195 426 467 426zM975 1839l8 -8l-252 -168h-10l-205 168l10 8l201 -160z" />
    <glyph glyph-name="uni01EA" unicode="&#x1ea;" horiz-adv-x="1409" 
d="M197 518q0 -250 113.5 -385t318.5 -135q141 0 253.5 59.5t181.5 152.5t115 213q81 211 81 458.5t-114 382.5t-321 135q-314 -1 -490 -315q-91 -164 -124 -384q-14 -94 -14 -182zM467 -266q0 -121 133 -121q49 0 113 16l-4 -16q-59 -16 -120 -16t-99.5 33.5t-38.5 97.5
q0 154 256 258q-49 -4 -78 -4q-213 0 -331 140t-118 387t89 473q48 122 120 216t185.5 154.5t250.5 60.5q215 0 334 -139t119 -376q0 -380 -163 -645q-56 -91 -148 -161.5t-205 -95.5q-147 -55 -221 -117.5t-74 -144.5z" />
    <glyph glyph-name="uni01EB" unicode="&#x1eb;" horiz-adv-x="1144" 
d="M482.5 -4q144.5 0 243.5 68q100 68 152 174q102 206 101.5 414t-85.5 310.5t-229.5 102.5t-242.5 -66.5t-152 -172.5q-104 -206 -104 -413.5t86 -312t230.5 -104.5zM313 -266q0 -121 133 -121q49 0 113 16l-4 -16q-59 -16 -120 -16t-99.5 33.5t-38.5 97.5q0 152 252 256
q-16 -2 -53 -2q-164 0 -255 108.5t-91 322.5q0 213 108 425q55 108 157.5 175.5t251 67.5t239.5 -106.5t91 -307.5t-85 -397q-44 -102 -125 -177.5t-187 -100.5q-141 -53 -214 -114.5t-73 -143.5z" />
    <glyph glyph-name="uni01EC" unicode="&#x1ec;" horiz-adv-x="1409" 
d="M197 518q0 -250 113.5 -385t318.5 -135q141 0 253.5 59.5t181.5 152.5t115 213q81 211 81 458.5t-114 382.5t-321 135q-314 -1 -490 -315q-91 -164 -124 -384q-14 -94 -14 -182zM467 -266q0 -121 133 -121q49 0 113 16l-4 -16q-59 -16 -120 -16t-99.5 33.5t-38.5 97.5
q0 154 256 258q-49 -4 -78 -4q-213 0 -331 140t-118 387t89 473q48 122 120 216t185.5 154.5t250.5 60.5q215 0 334 -139t119 -376q0 -380 -163 -645q-56 -91 -148 -161.5t-205 -95.5q-147 -55 -221 -117.5t-74 -144.5zM1063 1683l-2 -16h-399l2 16h399z" />
    <glyph glyph-name="uni01ED" unicode="&#x1ed;" horiz-adv-x="1144" 
d="M482.5 -4q144.5 0 243.5 68q100 68 152 174q102 206 101.5 414t-85.5 310.5t-229.5 102.5t-242.5 -66.5t-152 -172.5q-104 -206 -104 -413.5t86 -312t230.5 -104.5zM313 -266q0 -121 133 -121q49 0 113 16l-4 -16q-59 -16 -120 -16t-99.5 33.5t-38.5 97.5q0 152 252 256
q-16 -2 -53 -2q-164 0 -255 108.5t-91 322.5q0 213 108 425q55 108 157.5 175.5t251 67.5t239.5 -106.5t91 -307.5t-85 -397q-44 -102 -125 -177.5t-187 -100.5q-141 -53 -214 -114.5t-73 -143.5zM899 1425l-2 -16h-399l2 16h399z" />
    <glyph glyph-name="uni01EE" unicode="&#x1ee;" horiz-adv-x="956" 
d="M446 750q209 0 307.5 -94.5t79 -273.5t-143.5 -289.5t-320 -110.5q-236 0 -367 161l12 11q66 -78 148 -117t207 -39q188 0 307 105.5t139 279.5q18 174 -76 262t-293 88h-149l2 17l586 628h-690l2 15h712l-2 -15l-588 -628h127zM592 1565h-10l-205 168l10 8l201 -160
l248 160l8 -8z" />
    <glyph glyph-name="uni01EF" unicode="&#x1ef;" horiz-adv-x="901" 
d="M360 391q391 0 392 -311q0 -209 -125 -343t-335 -134t-341 164l12 8q123 -156 328 -156t324.5 129t119.5 330q0 299 -377 299h-104l2 14l551 653h-645l2 17h667l-2 -14l-553 -656h84zM539 1323h-11l-200 178l10 10l199 -170l249 170l9 -10z" />
    <glyph glyph-name="uni01F0" unicode="&#x1f0;" horiz-adv-x="520" 
d="M342 1061l-147 -1057q-25 -178 -81.5 -256t-183.5 -141l-6 12q121 59 176.5 137t77.5 250l148 1055h16zM623 1511l8 -10l-256 -178h-10l-201 178l10 10l199 -170z" />
    <glyph glyph-name="uni01F1" unicode="&#x1f1;" horiz-adv-x="2273" 
d="M604 1378h-207l-190 -1362h219q184 0 322 78q140 78 216 208q148 252 148 589q0 291 -161 396q-140 91 -347 91zM1255 0l2 16l1012 1362h-745l2 15h768l-2 -15l-1014 -1362h788l-2 -16h-809zM606 1393q214 -1 358 -95q164 -108 164 -395q0 -457 -228 -709
q-79 -88 -202 -141t-274 -53h-236l195 1393h223z" />
    <glyph glyph-name="uni01F2" unicode="&#x1f2;" horiz-adv-x="2099" 
d="M2093 1061l-2 -14l-811 -1031h647l-4 -16h-668l2 14l814 1030h-609l2 17h629zM604 1378h-207l-190 -1362h219q184 0 322 78q140 78 216 208q148 252 148 589q0 291 -161 396q-140 91 -347 91zM606 1393q214 -1 358 -95q164 -108 164 -395q0 -457 -228 -709
q-79 -88 -202 -141t-274 -53h-236l195 1393h223z" />
    <glyph glyph-name="uni01F3" unicode="&#x1f3;" horiz-adv-x="2011" 
d="M2005 1061l-2 -14l-811 -1031h647l-4 -16h-668l2 14l813 1030h-608l2 17h629zM649 1065q-127 0 -223 -67.5t-148 -175.5q-104 -214 -104 -418.5t79 -306t213 -101.5t228 86t180 242l76 534q-84 207 -301 207zM462 -18q-138 0 -221 104t-83 313t106 431
q53 112 152.5 181.5t224.5 69.5t201 -58t110 -142l86 618l17 -2l-209 -1497h-15l39 293q-82 -145 -176 -228t-232 -83z" />
    <glyph glyph-name="uni01F4" unicode="&#x1f4;" horiz-adv-x="1232" 
d="M827 1413q176 0 316 -115l-10 -12q-135 113 -298.5 113t-288 -81t-197.5 -211q-150 -267 -150 -583q0 -256 118.5 -391t331.5 -135q174 0 344 92l86 602h-305v17h324l-88 -629q-188 -98 -361 -98q-221 0 -344 140t-123 402t107 500t303 335q108 54 235 54zM1032 1737
l8 -19l-368 -143l-4 12z" />
    <glyph glyph-name="uni01F5" unicode="&#x1f5;" horiz-adv-x="1128" 
d="M684 1067q-139 0 -244.5 -63.5t-161.5 -165.5q-110 -199 -110 -435q0 -174 79 -280.5t220 -106.5q219 0 364 271l105 702q-113 78 -252 78zM685 1081q144 0 267 -84l-149 -1015q-31 -207 -127 -292t-262 -85t-312 94l7 14q150 -94 323 -94q301 0 354 361l41 276
q-68 -125 -163 -190.5t-197 -65.5q-150 0 -232.5 111.5t-82.5 291.5q0 243 114 445q58 104 166.5 168.5t252.5 64.5zM883 1538l6 -18l-373 -168l-4 12z" />
    <glyph glyph-name="uni01F6" unicode="&#x1f6;" horiz-adv-x="1957" 
d="M1782 839.5q0 -135.5 -20.5 -277.5t-71 -280.5t-151.5 -219t-252 -80.5t-211 99t-42 236l60 422h-787l-102 -739h-17l195 1393h16l-90 -637h787l90 637h16l-151 -1076q-20 -137 39 -228t188 -92t215 55.5t136 143.5q136 237 136 672q0 106 -6 193h17q6 -86 6 -221.5z" />
    <glyph glyph-name="uni01F7" unicode="&#x1f7;" horiz-adv-x="1134" 
d="M1067 1122q0 123 -78 200t-211 77q-213 0 -403 -178l-103 -736l248 80q408 132 507 347q40 87 40 210zM778 1413q141 0 223 -81t82 -208q0 -241 -156.5 -368.5t-406.5 -206.5l-250 -80l-65 -469h-17l195 1393h16l-20 -152q184 172 399 172z" />
    <glyph glyph-name="uni01F8" unicode="&#x1f8;" horiz-adv-x="1343" 
d="M1202 1393l-194 -1393h-21l-592 1374q-2 -18 -8 -60t-12 -92.5t-15 -109.5l-155 -1112h-17l195 1393h23l589 -1373l191 1373h16zM682 1737l326 -150l-9 -12l-327 143z" />
    <glyph glyph-name="uni01F9" unicode="&#x1f9;" horiz-adv-x="1187" 
d="M754 1081q133 0 190 -86t35 -241l-107 -754h-16l107 754q43 313 -209 313q-135 0 -248 -96.5t-219 -304.5l-92 -666h-17l148 1061h14l-47 -361q193 381 461 381zM592 1538l321 -176l-6 -10l-323 168z" />
    <glyph glyph-name="Aringacute" unicode="&#x1fa;" horiz-adv-x="1138" 
d="M229 446h658l-199 930zM981 0l-92 430h-668l-211 -430h-16l686 1393h18l299 -1393h-16zM739 1776q-59 0 -97 -37t-44 -93t21.5 -88t86 -32t96.5 36t44 93q10 121 -107 121zM739.5 1790q63.5 0 95 -37t25.5 -99.5t-48 -102.5t-107.5 -40t-97 37.5t-25.5 100t50 102
t107.5 39.5zM942 1970l-369 -143l-4 12l365 150z" />
    <glyph glyph-name="aringacute" unicode="&#x1fb;" horiz-adv-x="1110" 
d="M684 1067q-139 0 -244.5 -66.5t-163.5 -172.5q-112 -208 -112 -449q0 -172 80 -277.5t221 -105.5q217 0 360 260l111 733q-113 78 -252 78zM685 1081q144 0 267 -84l-114 -755q-8 -55 -9 -107q0 -109 82 -141l-6 -12q-70 27 -83 86t-3 157q-66 -119 -159 -181t-195 -62
q-150 0 -234 109.5t-84 287.5q-1 245 117 459q60 108 168.5 175.5t252.5 67.5zM739 1464q-59 0 -97 -36.5t-44 -93t21.5 -88.5t86 -32t96.5 36t44 93q10 121 -107 121zM739.5 1479q63.5 0 95 -37t25.5 -99.5t-48 -102.5t-107.5 -40t-97.5 37t-25.5 99.5t50.5 102.5t107.5 40
zM942 1683l8 -18l-368 -143l-4 12z" />
    <glyph glyph-name="AEacute" unicode="&#x1fc;" horiz-adv-x="1540" 
d="M823 430l-116 950l-500 -950h616zM1446 1378h-723l78 -633h540l-2 -14h-536l88 -715h479l-4 -16h-492l-49 414h-626l-217 -414h-19l733 1393h754zM1274 1718l-369 -143l-4 12l365 150z" />
    <glyph glyph-name="aeacute" unicode="&#x1fd;" horiz-adv-x="1712" 
d="M575 592q-229 0 -337.5 -97.5t-108.5 -248.5q0 -113 66.5 -181.5t190.5 -68.5t222.5 62.5t202.5 201.5q-31 148 8 332h-244zM1320 1065q-114 0 -202 -46t-140 -112.5t-99.5 -179t-61.5 -268.5q770 41 770 387q0 102 -76.5 160.5t-190.5 58.5zM600 1081q125 0 206 -73.5
t87 -210.5q33 71 117 165q108 120 320 119q110 0 193 -62.5t83 -172.5q0 -174 -198 -277.5t-593 -124.5q-7 -164 59 -298q34 -68 102 -109t165 -41q164 0 325 121l11 -15q-166 -121 -336 -120q-260 0 -324 262q-104 -139 -204.5 -200.5t-229.5 -61.5t-199.5 72.5
t-70.5 191.5q0 158 112.5 259t347.5 101h252q25 102 56 170q-2 141 -80 215t-203 74t-303 -68l-4 15q184 69 309 69zM1169 1538l7 -18l-373 -168l-4 12z" />
    <glyph glyph-name="Oslashacute" unicode="&#x1fe;" horiz-adv-x="1409" 
d="M647.5 -2q122.5 0 235 60.5t181.5 152.5t115 214q81 215 81 454q0 373 -240 481l-574 -1329q79 -33 201.5 -33zM197 520q0 -371 237 -483l574 1329q-86 33 -202 33t-226.5 -60.5t-180 -153.5t-116.5 -213q-86 -220 -86 -452zM1278 877q0 -298 -136 -575
q-70 -142 -202.5 -231t-310.5 -89q-102 0 -189 34l-100 -231l-16 4l104 234q-248 115 -248 495q0 238 89 464q48 122 120 216t185.5 154.5t236.5 60.5t203 -33l104 238l12 -4l-104 -240q252 -117 252 -497zM1047 1722l-369 -143l-4 12l364 150z" />
    <glyph glyph-name="oslashacute" unicode="&#x1ff;" horiz-adv-x="1144" 
d="M496 -4q131 0 230 68q100 68 152 174q102 206 101 434q0 268 -164 356l-471 -999q72 -33 152 -33zM627.5 1065q-107.5 0 -205.5 -66.5t-152 -172.5q-104 -206 -104 -431q0 -268 166 -360l469 999q-66 31 -173.5 31zM150 395q0 231 108 443q55 108 157.5 175.5t235.5 67.5
q82 0 158 -30l115 245l14 -4l-115 -250q174 -92 174 -370q0 -228 -107 -444q-54 -110 -156.5 -178t-215 -68t-180.5 32l-117 -247l-14 4l117 249q-174 96 -174 375zM885 1538l6 -18l-373 -168l-4 12z" />
    <glyph glyph-name="uni0200" unicode="&#x200;" horiz-adv-x="1138" 
d="M229 446h658l-199 930zM981 0l-92 430h-668l-211 -430h-16l686 1393h18l299 -1393h-16zM848 1694l-14 -6l-97 243l19 8zM639 1690l-14 -9l-107 256l17 9z" />
    <glyph glyph-name="uni0201" unicode="&#x201;" horiz-adv-x="1110" 
d="M684 1067q-139 0 -244.5 -66.5t-163.5 -172.5q-112 -208 -112 -449q0 -172 80 -277.5t221 -105.5q217 0 360 260l111 733q-113 78 -252 78zM685 1081q144 0 267 -84l-114 -755q-8 -55 -9 -107q0 -109 82 -141l-6 -12q-70 27 -83 86t-3 157q-66 -119 -159 -181t-195 -62
q-150 0 -234 109.5t-84 287.5q-1 245 117 459q60 108 168.5 175.5t252.5 67.5zM754 1606l92 -246l-15 -6l-96 243zM532 1612l105 -256l-14 -8l-107 256z" />
    <glyph glyph-name="uni0202" unicode="&#x202;" horiz-adv-x="1138" 
d="M229 446h658l-199 930zM981 0l-92 430h-668l-211 -430h-16l686 1393h18l299 -1393h-16zM740.5 1792q-149.5 0 -210.5 -141l-12 4q63 152 225 151q82 0 129.5 -43t53.5 -110l-13 -2q-23 141 -172.5 141z" />
    <glyph glyph-name="uni0203" unicode="&#x203;" horiz-adv-x="1110" 
d="M684 1067q-139 0 -244.5 -66.5t-163.5 -172.5q-112 -208 -112 -449q0 -172 80 -277.5t221 -105.5q217 0 360 260l111 733q-113 78 -252 78zM685 1081q144 0 267 -84l-114 -755q-8 -55 -9 -107q0 -109 82 -141l-6 -12q-70 27 -83 86t-3 157q-66 -119 -159 -181t-195 -62
q-150 0 -234 109.5t-84 287.5q-1 245 117 459q60 108 168.5 175.5t252.5 67.5zM741 1473q82 0 129.5 -43.5t53.5 -110.5l-13 -2q-23 141 -172.5 141t-210.5 -141l-12 4q63 152 225 152z" />
    <glyph glyph-name="uni0204" unicode="&#x204;" horiz-adv-x="1013" 
d="M1018 1393l-4 -15h-617l-88 -633h531l-2 -14h-531l-100 -715h637l-2 -16h-654l195 1393h635zM770 1939l92 -245l-14 -6l-96 243zM549 1946l104 -256l-14 -9l-107 256z" />
    <glyph glyph-name="uni0205" unicode="&#x205;" horiz-adv-x="1062" 
d="M662 1065q-121 0 -217.5 -58.5t-151.5 -152.5q-109 -186 -125 -395q391 20 581.5 121.5t190.5 265.5q0 102 -78.5 160.5t-199.5 58.5zM956 846q0 -174 -196.5 -277.5t-591.5 -124.5q-2 -18 -2 -51q0 -193 86 -295t240 -102q94 0 167.5 28.5t159.5 92.5l8 -15
q-166 -121 -331.5 -120.5t-255.5 107t-90 298t69 359.5q39 94 95.5 167.5t147.5 120.5t210 47t201.5 -62t82.5 -173zM788 1360l-14 -6l-96 243l18 9zM580 1356l-15 -8l-106 256l16 8z" />
    <glyph glyph-name="uni0206" unicode="&#x206;" horiz-adv-x="1013" 
d="M1018 1393l-4 -15h-617l-88 -633h531l-2 -14h-531l-100 -715h637l-2 -16h-654l195 1393h635zM755.5 1792q-149.5 0 -210.5 -141l-13 4q63 152 226 151q82 0 129 -43t53 -110l-12 -2q-23 141 -172.5 141z" />
    <glyph glyph-name="uni0207" unicode="&#x207;" horiz-adv-x="1062" 
d="M662 1065q-121 0 -217.5 -58.5t-151.5 -152.5q-109 -186 -125 -395q391 20 581.5 121.5t190.5 265.5q0 102 -78.5 160.5t-199.5 58.5zM956 846q0 -174 -196.5 -277.5t-591.5 -124.5q-2 -18 -2 -51q0 -193 86 -295t240 -102q94 0 167.5 28.5t159.5 92.5l8 -15
q-166 -121 -331.5 -120.5t-255.5 107t-90 298t69 359.5q39 94 95.5 167.5t147.5 120.5t210 47t201.5 -62t82.5 -173zM681.5 1458q-149.5 0 -210.5 -141l-12 4q63 152 225 152q82 0 129 -43.5t53 -110.5l-12 -2q-23 141 -172.5 141z" />
    <glyph glyph-name="uni0208" unicode="&#x208;" horiz-adv-x="540" 
d="M399 1393l-194 -1393h-17l195 1393h16zM457 1939l92 -245l-14 -6l-97 243zM236 1946l104 -256l-14 -9l-107 256z" />
    <glyph glyph-name="uni0209" unicode="&#x209;" horiz-adv-x="520" 
d="M342 1061l-147 -1061h-17l148 1061h16zM403 1606l95 -246l-15 -6l-98 243zM184 1612l103 -256l-13 -8l-106 256z" />
    <glyph glyph-name="uni020A" unicode="&#x20a;" horiz-adv-x="540" 
d="M399 1393l-194 -1393h-17l195 1393h16zM441.5 1792q-149.5 0 -210.5 -141l-12 4q63 152 225 151q82 0 129.5 -43t53.5 -110l-13 -2q-23 141 -172.5 141z" />
    <glyph glyph-name="uni020B" unicode="&#x20b;" horiz-adv-x="520" 
d="M342 1061l-147 -1061h-17l148 1061h16zM387 1473q82 0 129 -43.5t53 -110.5l-12 -2q-23 141 -172.5 141t-210.5 -141l-12 4q63 152 225 152z" />
    <glyph glyph-name="uni020C" unicode="&#x20c;" horiz-adv-x="1409" 
d="M825 1399q-314 -1 -490 -315q-91 -164 -124 -384q-14 -94 -14 -182q0 -250 113.5 -385t318.5 -135q141 0 253.5 59.5t181.5 152.5t115 213q81 211 81 458.5t-114 382.5t-321 135zM825 1413q215 0 334 -139t119 -417t-136 -555q-70 -142 -202.5 -231t-310.5 -89
q-213 0 -331 140t-118 387t89 473q48 122 120 216t185.5 154.5t250.5 60.5zM887 1939l92 -245l-14 -6l-97 243zM666 1946l104 -256l-14 -9l-107 256z" />
    <glyph glyph-name="uni020D" unicode="&#x20d;" horiz-adv-x="1144" 
d="M664.5 1065q-144.5 0 -242.5 -66.5t-152 -172.5q-104 -206 -104 -413.5t86 -312t230.5 -104.5t243.5 68q100 68 152 174q102 206 101.5 414t-85.5 310.5t-229.5 102.5zM666.5 1081q148.5 0 239.5 -106.5t91 -318.5t-107 -428q-54 -110 -156.5 -178t-252 -68t-240.5 108.5
t-91 322.5q0 213 108 425q55 108 157.5 175.5t251 67.5zM713 1606l92 -246l-14 -6l-97 243zM492 1612l104 -256l-14 -8l-107 256z" />
    <glyph glyph-name="uni020E" unicode="&#x20e;" horiz-adv-x="1409" 
d="M825 1399q-314 -1 -490 -315q-91 -164 -124 -384q-14 -94 -14 -182q0 -250 113.5 -385t318.5 -135q141 0 253.5 59.5t181.5 152.5t115 213q81 211 81 458.5t-114 382.5t-321 135zM825 1413q215 0 334 -139t119 -417t-136 -555q-70 -142 -202.5 -231t-310.5 -89
q-213 0 -331 140t-118 387t89 473q48 122 120 216t185.5 154.5t250.5 60.5zM872 1792q-149 0 -210 -141l-13 4q63 152 225 151q82 0 129.5 -43t53.5 -110l-13 -2q-23 141 -172 141z" />
    <glyph glyph-name="uni020F" unicode="&#x20f;" horiz-adv-x="1144" 
d="M664.5 1065q-144.5 0 -242.5 -66.5t-152 -172.5q-104 -206 -104 -413.5t86 -312t230.5 -104.5t243.5 68q100 68 152 174q102 206 101.5 414t-85.5 310.5t-229.5 102.5zM666.5 1081q148.5 0 239.5 -106.5t91 -318.5t-107 -428q-54 -110 -156.5 -178t-252 -68t-240.5 108.5
t-91 322.5q0 213 108 425q55 108 157.5 175.5t251 67.5zM700 1473q82 0 129.5 -43.5t53.5 -110.5l-13 -2q-23 141 -172.5 141t-210.5 -141l-12 4q63 152 225 152z" />
    <glyph glyph-name="uni0210" unicode="&#x210;" horiz-adv-x="1155" 
d="M641 694q207 0 310.5 121t103.5 285q0 279 -383 278h-275l-96 -684h340zM1071 1100q0 -160 -97 -283t-296 -139l297 -678h-19l-297 678h-360l-94 -678h-17l195 1393h287q401 0 401 -293zM858 1694l-14 -6l-96 243l18 8zM649 1690l-14 -9l-107 256l17 9z" />
    <glyph glyph-name="uni0211" unicode="&#x211;" horiz-adv-x="739" 
d="M674 1081q37 0 94 -14l-4 -14q-45 12 -90 12q-127 0 -216 -83t-165 -282l-98 -700h-17l148 1061h14l-43 -322q70 184 159 263t218 79zM610 1606l92 -246l-14 -6l-96 243zM389 1612l105 -256l-15 -8l-106 256z" />
    <glyph glyph-name="uni0212" unicode="&#x212;" horiz-adv-x="1155" 
d="M641 694q207 0 310.5 121t103.5 285q0 279 -383 278h-275l-96 -684h340zM1071 1100q0 -160 -97 -283t-296 -139l297 -678h-19l-297 678h-360l-94 -678h-17l195 1393h287q401 0 401 -293zM751.5 1792q-149.5 0 -210.5 -141l-13 4q63 152 226 151q82 0 129 -43t53 -110
l-12 -2q-23 141 -172.5 141z" />
    <glyph glyph-name="uni0213" unicode="&#x213;" horiz-adv-x="739" 
d="M674 1081q37 0 94 -14l-4 -14q-45 12 -90 12q-127 0 -216 -83t-165 -282l-98 -700h-17l148 1061h14l-43 -322q70 184 159 263t218 79zM598 1473q82 0 129 -43.5t53 -110.5l-12 -2q-23 141 -172.5 141t-210.5 -141l-12 4q63 152 225 152z" />
    <glyph glyph-name="uni0214" unicode="&#x214;" horiz-adv-x="1304" 
d="M577 -18q-214 0 -296 118.5t-54 323.5l138 969h16l-137 -969q-27 -197 51 -311.5t282.5 -114.5t315.5 115.5t137 310.5l137 969h17l-137 -971q-27 -203 -141.5 -321.5t-328.5 -118.5zM840 1939l92 -245l-14 -6l-97 243zM618 1946l105 -256l-14 -9l-107 256z" />
    <glyph glyph-name="uni0215" unicode="&#x215;" horiz-adv-x="1177" 
d="M452 -18q-134 0 -199 84t-44 241l104 754h17l-105 -754q-20 -152 40.5 -231.5t191.5 -79.5t241.5 97t188.5 278l96 690h16l-147 -1061h-14l47 340q-74 -172 -186.5 -265t-246.5 -93zM721 1606l92 -246l-14 -6l-97 243zM500 1612l104 -256l-14 -8l-107 256z" />
    <glyph glyph-name="uni0216" unicode="&#x216;" horiz-adv-x="1304" 
d="M577 -18q-214 0 -296 118.5t-54 323.5l138 969h16l-137 -969q-27 -197 51 -311.5t282.5 -114.5t315.5 115.5t137 310.5l137 969h17l-137 -971q-27 -203 -141.5 -321.5t-328.5 -118.5zM824.5 1792q-149.5 0 -210.5 -141l-12 4q63 152 225 151q82 0 129.5 -43t53.5 -110
l-13 -2q-23 141 -172.5 141z" />
    <glyph glyph-name="uni0217" unicode="&#x217;" horiz-adv-x="1177" 
d="M452 -18q-134 0 -199 84t-44 241l104 754h17l-105 -754q-20 -152 40.5 -231.5t191.5 -79.5t241.5 97t188.5 278l96 690h16l-147 -1061h-14l47 340q-74 -172 -186.5 -265t-246.5 -93zM709 1473q82 0 129 -43.5t53 -110.5l-12 -2q-23 141 -172.5 141t-210.5 -141l-13 4
q63 152 226 152z" />
    <glyph glyph-name="Scommaaccent" unicode="&#x218;" horiz-adv-x="1103" 
d="M430.5 -213q22.5 0 22.5 -20q0 -4 -17 -43l-88 -226h-10l86 246q-16 6 -16 20q0 23 22.5 23zM664 1413q205 0 342 -133l-13 -12q-131 131 -327.5 131t-297 -101.5t-100.5 -223.5t70 -186.5t249 -123.5t260 -138t81 -221q0 -141 -107 -273q-53 -66 -148 -108t-216 -42
q-238 0 -385 161l12 13q141 -158 371 -158q119 0 212 41t143 105q101 130 101 262.5t-77.5 207t-256.5 135t-252 129t-73 190.5t93 228q46 52 129.5 84.5t189.5 32.5z" />
    <glyph glyph-name="scommaaccent" unicode="&#x219;" horiz-adv-x="937" 
d="M376 -213q22 0 23 -20q0 -4 -16 -43l-88 -226h-10l86 246q-17 6 -17 24t22 19zM530 1081q182 0 297 -108l-12 -10q-109 102 -265 102t-247.5 -67.5t-91.5 -167.5q1 -100 59 -154t214 -104t219 -113.5t63 -169.5q0 -139 -102.5 -223t-268.5 -84q-205 0 -340 135l8 10
q137 -131 332 -131q152 0 253.5 78t101.5 215q0 102 -59.5 160.5t-216.5 109.5t-219 109.5t-62 148.5q0 119 98 191.5t239 72.5z" />
    <glyph glyph-name="uni021A" unicode="&#x21a;" horiz-adv-x="968" 
d="M378 -213q22 0 23 -20q0 -4 -16 -43l-88 -226h-10l86 246q-17 6 -17 24t22 19zM1053 1393l-4 -17h-437l-194 -1376h-17l195 1376h-438l2 17h893z" />
    <glyph glyph-name="uni021B" unicode="&#x21b;" horiz-adv-x="661" 
d="M372.5 -213q22.5 0 22.5 -20q0 -4 -16 -43l-88 -226h-10l86 246q-16 6 -16.5 24.5t22 18.5zM379 -4q96 0 196 57l7 -14q-106 -57 -206.5 -57t-149 65.5t-29.5 185.5l112 811h-178l2 17h178l41 272h15l-39 -272h297l-4 -17h-295l-113 -808q-16 -115 27 -177.5t139 -62.5z
" />
    <glyph glyph-name="uni021C" unicode="&#x21c;" horiz-adv-x="999" 
d="M596 1413q145 0 225 -81t80 -227.5t-100.5 -246.5t-257.5 -117q311 -18 311 -280q0 -253 -240 -403q-216 -135 -569 -220v15q583 143 733 387q60 98 60 221q0 272 -349 272l-118 -2l4 17h108q178 0 290 103t112 267q0 127 -76 204t-213 77q-211 0 -408 -170l-8 12
q195 172 416 172z" />
    <glyph glyph-name="uni021D" unicode="&#x21d;" horiz-adv-x="907" 
d="M462.5 1081q151.5 0 222.5 -65.5t71 -185t-79 -196.5t-212 -91q135 -4 201.5 -52.5t66.5 -148.5q0 -360 -682 -508l-2 12q487 111 617 315q52 81 51.5 181t-72.5 146.5t-235 46.5h-113l4 14h96q162 0 252 78q90 77 90 197q0 240 -256 241q-166 0 -333 -102l-9 12
q170 106 321.5 106z" />
    <glyph glyph-name="uni021E" unicode="&#x21e;" horiz-adv-x="1343" 
d="M989 0l105 739h-787l-102 -739h-17l195 1393h16l-90 -637h787l90 637h16l-194 -1393h-19zM1053 1741l8 -8l-252 -168h-10l-205 168l10 8l201 -160z" />
    <glyph glyph-name="uni021F" unicode="&#x21f;" horiz-adv-x="1187" 
d="M750 1081q274 0 229 -327l-107 -754h-16l107 754q43 313 -215 313q-133 0 -244 -96.5t-217 -304.5l-92 -666h-17l209 1497l16 2l-110 -799q189 381 457 381zM938 1839l8 -8l-252 -168h-10l-205 168l10 8l201 -160z" />
    <glyph glyph-name="uni0220" unicode="&#x220;" horiz-adv-x="1316" 
d="M872.5 1413q147.5 0 220 -95t46.5 -280l-199 -1425h-18l200 1423q25 178 -42.5 270.5t-212 92.5t-261.5 -71t-244 -210l-2 2l-155 -1120h-17l195 1393h14l-32 -252q123 135 241.5 203.5t266 68.5z" />
    <glyph glyph-name="uni0221" unicode="&#x221;" horiz-adv-x="1335" 
d="M1071 -4q121 0 200 62.5t79 158.5q0 61 -38 96t-119 35t-153.5 -60.5t-156.5 -189.5q38 -102 188 -102zM466 -4q134 0 228 86t180 242l76 534q-84 207 -301 207q-127 0 -223 -67.5t-148 -175.5q-104 -214 -104 -418.5t79 -306t213 -101.5zM1194 365q88 0 130 -41t42 -107
q0 -102 -84 -168.5t-224.5 -66.5t-185.5 100l-122 -186l-13 4l129 198q-16 53 -8 121l10 72q-78 -143 -174 -226t-233 -83t-220 104t-83 313t106 431q53 112 152.5 181.5t224.5 69.5t201 -58t110 -142l86 618l17 -2l-181 -1278q-6 -66 5 -102q80 125 153.5 186.5t161.5 61.5
z" />
    <glyph glyph-name="uni0222" unicode="&#x222;" horiz-adv-x="1284" 
d="M582 -2q210 0 355.5 124t145.5 324q0 154 -104.5 246t-316 92t-356 -129t-144.5 -329q0 -145 105 -236.5t315 -91.5zM1102 446q0 -207 -152.5 -335.5t-369 -128.5t-326 95t-109.5 264t123 297t322 155q-272 43 -230 356l33 244h17l-33 -244q-49 -350 303 -350
q358 0 403 350l33 244h19l-35 -244q-45 -315 -330 -356q160 -23 246 -114t86 -233z" />
    <glyph glyph-name="uni0223" unicode="&#x223;" horiz-adv-x="1124" 
d="M940 504q0 154 -88 242t-248 88q-197 0 -323.5 -148.5t-126.5 -355.5q0 -152 87 -243t242 -91q201 0 329 145.5t128 362.5zM956 504q0 -223 -133 -372.5t-340 -149.5q-162 0 -254 96t-92 270.5t110.5 320.5t287.5 173q-246 39 -203 352l43 299h16l-43 -301
q-49 -344 260 -344t355 346l43 299h16l-43 -301q-41 -313 -301 -350q133 -20 205.5 -109.5t72.5 -228.5z" />
    <glyph glyph-name="uni0224" unicode="&#x224;" horiz-adv-x="1036" 
d="M585 -397q-87 0 -155 59l10 12q62 -55 144 -55q169 0 198 191l27 190h-793l2 16l1012 1362h-745l2 15h768l-2 -15l-1014 -1362h788l-28 -209q-14 -98 -70.5 -151t-143.5 -53z" />
    <glyph glyph-name="uni0225" unicode="&#x225;" horiz-adv-x="839" 
d="M422 -397q-88 0 -152 59l9 12q63 -55 145 -55q169 0 199 191l26 190h-653l2 14l813 1030h-608l2 17h629l-3 -14l-811 -1031h648l-29 -209q-14 -100 -71.5 -152t-145.5 -52z" />
    <glyph glyph-name="uni0226" unicode="&#x226;" horiz-adv-x="1138" 
d="M229 446h658l-199 930zM981 0l-92 430h-668l-211 -430h-16l686 1393h18l299 -1393h-16zM732 1673q-19 0 -19 23q4 18 23 18t20 -20q-5 -21 -24 -21z" />
    <glyph glyph-name="uni0227" unicode="&#x227;" horiz-adv-x="1110" 
d="M684 1067q-139 0 -244.5 -66.5t-163.5 -172.5q-112 -208 -112 -449q0 -172 80 -277.5t221 -105.5q217 0 360 260l111 733q-113 78 -252 78zM685 1081q144 0 267 -84l-114 -755q-8 -55 -9 -107q0 -109 82 -141l-6 -12q-70 27 -83 86t-3 157q-66 -119 -159 -181t-195 -62
q-150 0 -234 109.5t-84 287.5q-1 245 117 459q60 108 168.5 175.5t252.5 67.5zM744 1456q19 0 20 -20q-4 -20 -23 -21q-20 0 -20 23q4 18 23 18z" />
    <glyph glyph-name="uni0228" unicode="&#x228;" horiz-adv-x="1013" 
d="M651 -283q0 -57 -45 -97t-121 -40t-131 35l8 12q49 -33 122 -33t111 36t38 88t-41 77t-129 27l35 178h-310l195 1393h635l-4 -15h-617l-88 -633h531l-2 -14h-531l-100 -715h637l-2 -16h-332l-31 -164q172 -6 172 -119z" />
    <glyph glyph-name="uni0229" unicode="&#x229;" horiz-adv-x="1062" 
d="M662 1065q-121 0 -217.5 -58.5t-151.5 -152.5q-109 -186 -125 -395q391 20 581.5 121.5t190.5 265.5q0 102 -78.5 160.5t-199.5 58.5zM956 846q0 -174 -196.5 -277.5t-591.5 -124.5q-2 -18 -2 -51q0 -193 86 -295t240 -102q94 0 167.5 28.5t159.5 92.5l8 -15
q-166 -121 -335 -120h-19l-29 -146q170 -6 170 -119q0 -57 -45 -97t-121 -40t-129 35l9 12q45 -33 118.5 -33t111.5 36t39 88t-40 77t-131 27l33 160q-147 12 -228 117.5t-81 292t69 354.5q39 94 95.5 167.5t147.5 120.5t210 47t201.5 -62t82.5 -173z" />
    <glyph glyph-name="uni022A" unicode="&#x22a;" horiz-adv-x="1409" 
d="M825 1399q-314 -1 -490 -315q-91 -164 -124 -384q-14 -94 -14 -182q0 -250 113.5 -385t318.5 -135q141 0 253.5 59.5t181.5 152.5t115 213q81 211 81 458.5t-114 382.5t-321 135zM825 1413q215 0 334 -139t119 -417t-136 -555q-70 -142 -202.5 -231t-310.5 -89
q-213 0 -331 140t-118 387t89 473q48 122 120 216t185.5 154.5t250.5 60.5zM998 1561q19 0 20 -21q-4 -20 -23.5 -20t-19.5 22q4 19 23 19zM683 1561q19 0 19 -21q-4 -20 -23 -20t-20 22q5 19 24 19zM1057 1716h-400l2 17h400z" />
    <glyph glyph-name="uni022B" unicode="&#x22b;" horiz-adv-x="1144" 
d="M664.5 1065q-144.5 0 -242.5 -66.5t-152 -172.5q-104 -206 -104 -413.5t86 -312t230.5 -104.5t243.5 68q100 68 152 174q102 206 101.5 414t-85.5 310.5t-229.5 102.5zM666.5 1081q148.5 0 239.5 -106.5t91 -318.5t-107 -428q-54 -110 -156.5 -178t-252 -68t-240.5 108.5
t-91 322.5q0 213 108 425q55 108 157.5 175.5t251 67.5zM857 1366q19 0 20 -20q-4 -20 -23 -21q-20 0 -20 23q4 18 23 18zM542 1366q19 0 17 -20t-20 -21q-20 0 -21 23q5 18 24 18zM918 1528h-400l2 16h400z" />
    <glyph glyph-name="uni022C" unicode="&#x22c;" horiz-adv-x="1409" 
d="M825 1399q-314 -1 -490 -315q-91 -164 -124 -384q-14 -94 -14 -182q0 -250 113.5 -385t318.5 -135q141 0 253.5 59.5t181.5 152.5t115 213q81 211 81 458.5t-114 382.5t-321 135zM825 1413q215 0 334 -139t119 -417t-136 -555q-70 -142 -202.5 -231t-310.5 -89
q-213 0 -331 140t-118 387t89 473q48 122 120 216t185.5 154.5t250.5 60.5zM967 1556q-47 0 -118 45.5t-108 45.5q-63 0 -139 -74l-4 4q76 78 143 78q37 0 108 -45t127.5 -45t129.5 82l4 -5q-71 -86 -143 -86zM1081 1792h-399l2 16h399z" />
    <glyph glyph-name="uni022D" unicode="&#x22d;" horiz-adv-x="1144" 
d="M664.5 1065q-144.5 0 -242.5 -66.5t-152 -172.5q-104 -206 -104 -413.5t86 -312t230.5 -104.5t243.5 68q100 68 152 174q102 206 101.5 414t-85.5 310.5t-229.5 102.5zM666.5 1081q148.5 0 239.5 -106.5t91 -318.5t-107 -428q-54 -110 -156.5 -178t-252 -68t-240.5 108.5
t-91 322.5q0 213 108 425q55 108 157.5 175.5t251 67.5zM784 1243q-47 0 -117.5 45t-107.5 45q-63 0 -139 -73l-4 4q76 78 143 77q37 0 107.5 -45t127 -45t130.5 82l4 -4q-72 -86 -144 -86zM889 1489h-400l3 16h399z" />
    <glyph glyph-name="uni022E" unicode="&#x22e;" horiz-adv-x="1409" 
d="M825 1399q-314 -1 -490 -315q-91 -164 -124 -384q-14 -94 -14 -182q0 -250 113.5 -385t318.5 -135q141 0 253.5 59.5t181.5 152.5t115 213q81 211 81 458.5t-114 382.5t-321 135zM825 1413q215 0 334 -139t119 -417t-136 -555q-70 -142 -202.5 -231t-310.5 -89
q-213 0 -331 140t-118 387t89 473q48 122 120 216t185.5 154.5t250.5 60.5zM867 1714q19 0 20 -20q-4 -20 -23 -21q-20 0 -20 23q4 18 23 18z" />
    <glyph glyph-name="uni022F" unicode="&#x22f;" horiz-adv-x="1144" 
d="M664.5 1065q-144.5 0 -242.5 -66.5t-152 -172.5q-104 -206 -104 -413.5t86 -312t230.5 -104.5t243.5 68q100 68 152 174q102 206 101.5 414t-85.5 310.5t-229.5 102.5zM666.5 1081q148.5 0 239.5 -106.5t91 -318.5t-107 -428q-54 -110 -156.5 -178t-252 -68t-240.5 108.5
t-91 322.5q0 213 108 425q55 108 157.5 175.5t251 67.5zM703 1456q19 0 20 -20q-4 -20 -23 -21q-20 0 -20 23q4 18 23 18z" />
    <glyph glyph-name="uni0230" unicode="&#x230;" horiz-adv-x="1409" 
d="M825 1399q-314 -1 -490 -315q-91 -164 -124 -384q-14 -94 -14 -182q0 -250 113.5 -385t318.5 -135q141 0 253.5 59.5t181.5 152.5t115 213q81 211 81 458.5t-114 382.5t-321 135zM825 1413q215 0 334 -139t119 -417t-136 -555q-70 -142 -202.5 -231t-310.5 -89
q-213 0 -331 140t-118 387t89 473q48 122 120 216t185.5 154.5t250.5 60.5zM843 1577q19 0 19 -21q-4 -20 -23 -20t-20 23q5 18 24 18zM1061 1714h-399l2 17h399z" />
    <glyph glyph-name="uni0231" unicode="&#x231;" horiz-adv-x="1144" 
d="M664.5 1065q-144.5 0 -242.5 -66.5t-152 -172.5q-104 -206 -104 -413.5t86 -312t230.5 -104.5t243.5 68q100 68 152 174q102 206 101.5 414t-85.5 310.5t-229.5 102.5zM666.5 1081q148.5 0 239.5 -106.5t91 -318.5t-107 -428q-54 -110 -156.5 -178t-252 -68t-240.5 108.5
t-91 322.5q0 213 108 425q55 108 157.5 175.5t251 67.5zM685 1337q19 0 20 -20q-4 -20 -23 -21q-20 0 -20 23q4 18 23 18zM907 1511h-399l2 17h399z" />
    <glyph glyph-name="uni0232" unicode="&#x232;" horiz-adv-x="991" 
d="M1063 1393l-555 -838l-78 -555h-16l75 555l-319 838h18l312 -822l542 822h21zM854 1667h-399l2 16h399z" />
    <glyph glyph-name="uni0233" unicode="&#x233;" horiz-adv-x="894" 
d="M911 1061l-512 -1063q-94 -186 -169.5 -265t-235.5 -124v14q154 43 225.5 118t163.5 259h-10l-242 1061h19l237 -1049l508 1049h16zM766 1409h-399l2 16h399z" />
    <glyph glyph-name="uni0234" unicode="&#x234;" horiz-adv-x="671" 
d="M410 -4q121 0 199.5 62.5t78.5 158.5q0 59 -38 95t-119.5 36t-153.5 -60.5t-156 -189.5q35 -102 189 -102zM532 365q87 0 130 -41t43 -107q0 -102 -84 -168.5t-224.5 -66.5t-185.5 100l-123 -186l-12 4l129 198q-16 53 -8 119l180 1280l16 2l-180 -1282q-8 -55 2 -100
q82 125 156 186.5t161 61.5z" />
    <glyph glyph-name="uni0235" unicode="&#x235;" horiz-adv-x="1361" 
d="M1100 -4q121 0 199.5 62.5t78.5 158.5q0 59 -37.5 95t-119.5 36t-154 -60.5t-156 -189.5q35 -102 189 -102zM1222 365q87 0 130 -41t43 -107q0 -102 -84 -168.5t-224.5 -66.5t-185.5 100l-123 -186l-12 4l129 198q-18 47 -8 119l76 537q23 152 -30.5 232.5t-183.5 80.5
t-243 -96.5t-219 -304.5l-92 -666h-17l148 1061h14l-47 -361q193 381 461 381q135 0 191 -86t34 -241l-76 -537q-8 -55 2 -100q82 125 156 186.5t161 61.5z" />
    <glyph glyph-name="uni0236" unicode="&#x236;" horiz-adv-x="669" 
d="M684 217q0 131 -156 131q-82 0 -154.5 -60.5t-156.5 -189.5q39 -102 189 -102q121 0 199.5 62.5t78.5 158.5zM530 365q87 0 128.5 -41t41.5 -107q0 -102 -84 -168.5t-222 -66.5t-187 100l-121 -186l-14 4l129 198q-14 49 -6 119l114 827h-178l2 17h178l41 272h15
l-39 -272h297l-4 -17h-295l-115 -827q-8 -55 2 -100q82 125 156 186.5t161 61.5z" />
    <glyph glyph-name="uni0237" unicode="&#x237;" horiz-adv-x="520" 
d="M342 1061l-147 -1057q-25 -178 -81.5 -256t-183.5 -141l-6 12q121 59 176.5 137t77.5 250l148 1055h16z" />
    <glyph glyph-name="uni0238" unicode="&#x238;" horiz-adv-x="1726" 
d="M1130 -4q137 0 238.5 108.5t148 264t46.5 330.5t-70 270.5t-199 95.5q-209 0 -370 -215l-82 -582q33 -127 110.5 -199.5t177.5 -72.5zM452 -4q122 0 207.5 69.5t165.5 198.5l84 592q-100 209 -278 209q-139 0 -244.5 -101.5t-157 -254t-51.5 -330.5t76 -280.5t198 -102.5
zM1308 1081q123 0 197 -100t74 -281.5t-47 -340t-152.5 -268t-246.5 -109.5q-106 0 -185.5 70.5t-109.5 187.5l-33 -240h-12l28 236q-158 -254 -360 -254q-139 0 -220 106.5t-81 289.5t54 339.5t163.5 260t253.5 103.5q188 0 280 -207l90 623l17 2l-90 -627
q66 88 161.5 148.5t218.5 60.5z" />
    <glyph glyph-name="uni0239" unicode="&#x239;" horiz-adv-x="1724" 
d="M1288 1065q-188 0 -373 -211l-84 -598q88 -260 293 -260q128 0 226 100q182 186 196 568q8 193 -60.5 297t-197.5 104zM440 -4q126 0 211.5 67.5t163.5 190.5l84 596q-94 215 -270 215q-201 0 -328 -193.5t-133 -457.5q-8 -197 69 -307.5t203 -110.5zM1288 1081
q137 0 211 -109.5t66 -309.5q-10 -279 -126 -479.5t-315 -200.5q-106 0 -182 68.5t-115 182.5l-88 -624l-16 -2l88 620q-154 -246 -362 -245q-143 0 -224.5 114.5t-72.5 319.5q6 270 137 467.5t338 197.5q184 0 274 -207l29 187h12l-24 -191q175 211 370 211z" />
    <glyph glyph-name="uni023A" unicode="&#x23a;" horiz-adv-x="1138" 
d="M520 446h367l-127 592zM229 446h277l248 615l-66 315zM981 0l-92 430h-375l-221 -553l-14 2l221 551h-279l-211 -430h-16l686 1393h18l66 -306l166 410l12 -4l-172 -428l227 -1065h-16z" />
    <glyph glyph-name="uni023B" unicode="&#x23b;" horiz-adv-x="1089" 
d="M825 1399q-168 0 -296 -86q-129 -87 -197 -225q-134 -270 -133.5 -576.5t178.5 -439.5l532 1321q-37 6 -84 6zM825 1413q51 0 90 -6l35 90l15 -4l-37 -88q113 -23 198 -109l-10 -12q-90 88 -194 107l-533 -1328q100 -66 236 -65q186 0 344 121l10 -15
q-166 -123 -354 -122q-141 0 -242 65l-70 -170l-12 2l70 176q-189 137 -189 454t138 591q70 139 201.5 226t303.5 87z" />
    <glyph glyph-name="uni023C" unicode="&#x23c;" horiz-adv-x="956" 
d="M653 1065q-155 -1 -269 -101q-216 -191 -216 -565q0 -260 158 -356l419 1012q-37 10 -92 10zM500 -4q150 0 284 104l9 -10q-133 -109 -293 -108q-98 0 -170 38l-60 -143l-12 2l61 148q-168 102 -167 372q0 381 223 579q117 104 278 103q55 0 99 -12l51 123l12 -2
l-51 -123q78 -23 143 -88l-10 -10q-66 61 -139 84l-422 -1018q74 -39 164 -39z" />
    <glyph glyph-name="uni023D" unicode="&#x23d;" horiz-adv-x="974" 
d="M266 16h590l-4 -16h-604l102 733h-217l2 17h217l90 643h17l-90 -643h245l-2 -17h-245z" />
    <glyph glyph-name="uni023E" unicode="&#x23e;" horiz-adv-x="968" 
d="M524 754l252 622h-164zM1049 1376h-258l-275 -678l-98 -698h-17l91 635l-306 -758l-14 2l326 809l98 688h-438l2 17h622l41 104l13 -4l-39 -100h256z" />
    <glyph glyph-name="uni023F" unicode="&#x23f;" horiz-adv-x="937" 
d="M530 1065q-135 0 -227 -67.5t-92 -167t58.5 -153.5t215 -104.5t219 -114t62.5 -169.5q0 -139 -102.5 -223t-247 -84t-252.5 63q76 -66 126 -149.5t69.5 -140t57.5 -96.5t105.5 -40t132.5 47l11 -10q-72 -53 -140.5 -53t-104.5 29.5t-60.5 84t-52 117t-92 141
t-161.5 142.5l8 8q6 -3 43 -29q36 -26 48 -32q73 -41 124.5 -54.5t116.5 -13.5q154 0 254.5 78t100.5 215q0 102 -59.5 160.5t-216.5 109.5t-218 109.5t-61 148.5q0 119 97 191.5t238 72.5q182 0 297 -108l-10 -10q-111 102 -287 102z" />
    <glyph glyph-name="uni0240" unicode="&#x240;" horiz-adv-x="839" 
d="M577 -397q-76 0 -123.5 35.5t-81.5 90t-73 110t-116 101.5t-187 60l2 14l813 1030h-608l2 17h629l-3 -14l-815 -1035q106 -16 182 -62t115 -101.5t71 -107.5q75 -122 187 -122q74 0 140 47l10 -10q-68 -53 -144 -53z" />
    <glyph glyph-name="uni0241" unicode="&#x241;" horiz-adv-x="915" 
d="M889 1071q0 150 -83 239t-241 89q-205 0 -399 -170l-10 12q197 172 409 172q164 0 253 -93t89 -249q0 -199 -105.5 -311.5t-307.5 -163.5l-121 -29l-80 -567h-17l80 580l127 30q203 49 304.5 158t101.5 303z" />
    <glyph glyph-name="uni0242" unicode="&#x242;" horiz-adv-x="849" 
d="M745 766q0 137 -77.5 218t-218.5 81q-184 0 -347 -147l-10 12q166 152 357 151q150 0 231.5 -86t81.5 -229q0 -322 -356 -414l-132 -35l-43 -317h-16l45 330l137 35q348 90 348 401z" />
    <glyph glyph-name="uni0243" unicode="&#x243;" horiz-adv-x="1177" 
d="M510 16q264 0 383 119t119 301q0 137 -94.5 215t-253.5 78h-371l-47 -326h403l-2 -16h-403l-51 -371h317zM668 745q139 0 251.5 98.5t112.5 246.5q0 288 -379 288h-270l-88 -633h373zM1030 436q0 -176 -118 -306t-406 -130h-334l55 387h-186v16h188l140 990h282
q193 0 295.5 -74t102.5 -218.5t-95.5 -245t-236.5 -118.5q137 -8 225 -86t88 -215z" />
    <glyph glyph-name="uni0244" unicode="&#x244;" horiz-adv-x="1366" 
d="M612 -2q205 0 315.5 115.5t135.5 310.5l92 649h-786l-90 -649q-57 -426 333 -426zM610 -18q-213 0 -295 118.5t-55 323.5l92 649h-114l2 14h114l43 306h17l-43 -306h786l43 306h17l-43 -306h110l-2 -14h-111l-90 -651q-29 -203 -143.5 -321.5t-327.5 -118.5z" />
    <glyph glyph-name="uni0245" unicode="&#x245;" horiz-adv-x="1138" 
d="M698 1393l299 -1393h-16l-293 1380l-678 -1380h-16l686 1393h18z" />
    <glyph glyph-name="uni0246" unicode="&#x246;" horiz-adv-x="1013" 
d="M330 16l288 715h-311l-100 -715h123zM625 745l254 633h-482l-88 -633h316zM1014 1378h-121l-254 -633h201l-2 -14h-205l-289 -715h500l-2 -16h-504l-49 -123l-15 2l50 121h-136l195 1393h502l41 104l12 -4l-39 -100h119z" />
    <glyph glyph-name="uni0247" unicode="&#x247;" horiz-adv-x="1062" 
d="M166 393q0 -262 158 -356l186 448q-150 -33 -342 -41q-2 -18 -2 -51zM940 846q0 80 -49 134t-131 75l-228 -549q408 92 408 340zM664 1065q-123 0 -219.5 -58.5t-151.5 -152.5q-109 -186 -125 -395q203 12 350 43l230 555q-35 8 -84 8zM956 846q0 -262 -430 -357
l-190 -458q70 -35 160 -35t163.5 28.5t159.5 92.5l8 -15q-166 -121 -335 -120q-88 0 -162 34l-58 -139l-12 2l57 144q-168 94 -167 370q0 185 69 353q39 94 95.5 167.5t147.5 120.5t202 47q43 0 90 -10l51 121l12 -2l-51 -121q86 -23 138 -81t52 -142z" />
    <glyph glyph-name="uni0248" unicode="&#x248;" horiz-adv-x="593" 
d="M567 709l-2 -17h-229l-72 -516q-20 -152 -80.5 -228.5t-222.5 -140.5l-4 15q154 61 212 136t79 220l71 514h-233l2 17h234l96 684h16l-94 -684h227z" />
    <glyph glyph-name="uni0249" unicode="&#x249;" horiz-adv-x="577" 
d="M526 508l-2 -16h-233l-68 -488q-25 -178 -81 -256t-183 -141l-6 12q121 59 176 137t78 250l67 486h-229l2 16h229l78 553h17l-78 -553h233zM413 1415q-19 0 -20 23q4 18 23.5 18t19.5 -20q-4 -21 -23 -21z" />
    <glyph glyph-name="uni024A" unicode="&#x24a;" horiz-adv-x="1312" 
d="M590 -2q238 0 401 207l144 1012q-115 182 -338 182q-184 0 -325.5 -137.5t-209 -338t-67.5 -430t107.5 -362.5t287.5 -133zM1095 -397q-89 0 -130 53t-27 154l27 190l22 180q-160 -199 -397 -198q-188 0 -300 137t-112 387q0 341 160 615q76 130 195.5 211t263.5 81
q223 0 340 -176l22 156h15l-220 -1586q-12 -92 25 -140t118.5 -48t159.5 55l7 -12q-80 -59 -169 -59z" />
    <glyph glyph-name="uni024B" unicode="&#x24b;" horiz-adv-x="1128" 
d="M465 -4q221 0 364 264l107 729q-113 78 -252 78t-244.5 -66.5t-163.5 -172.5q-112 -208 -112 -449q0 -172 80 -277.5t221 -105.5zM866 -397q-131 0 -108 157l67 469q-68 -121 -163 -184t-197 -63q-150 0 -234 109.5t-84 287.5q-1 245 117 459q60 108 168.5 175.5
t252.5 67.5t267 -84l-178 -1239q-18 -139 94 -139q41 0 86 16l2 -14q-51 -18 -90 -18z" />
    <glyph glyph-name="uni024C" unicode="&#x24c;" 
d="M631 694q207 0 310 121t103 270.5t-90 221t-292 71.5h-275l-96 -684h340zM1061 1100q0 -160 -96.5 -284t-296.5 -138l299 -678h-21l-295 678h-362l-94 -678h-17l94 678h-190v16h192l99 699h289q399 0 399 -293z" />
    <glyph glyph-name="uni024D" unicode="&#x24d;" horiz-adv-x="759" 
d="M694 1081q37 0 94 -14l-4 -14q-45 12 -90 12q-127 0 -216 -83t-165 -282l-16 -118h240l-2 -13h-240l-80 -569h-16l80 569h-224l2 13h222l67 479h14l-43 -322q70 184 159 263t218 79z" />
    <glyph glyph-name="uni024E" unicode="&#x24e;" horiz-adv-x="993" 
d="M502 571l399 603h-627zM141 1174v14h111l-80 205h18l78 -205h641l138 205h18l-135 -205h108l-2 -14h-116l-410 -619l-76 -555h-16l76 555l-238 619h-115z" />
    <glyph glyph-name="uni024F" unicode="&#x24f;" horiz-adv-x="880" 
d="M381 12l367 756h-539zM907 1061l-135 -279h96l-2 -14h-100l-373 -770q-90 -186 -168 -265t-235 -124l-2 14q154 43 226.5 119t162.5 258h-10l-174 768h-105l2 14h98l-63 279h18l64 -279h547l135 279h18z" />
    <glyph glyph-name="uni0250" unicode="&#x250;" horiz-adv-x="1052" 
d="M481 451q199 0 322 97t123 271q0 113 -66.5 178.5t-191.5 65.5q-238 -1 -381 -234l-54 -378h248zM668 1079q131 0 202.5 -70.5t71.5 -189.5q0 -180 -129 -282.5t-332 -102.5h-250l-18 -137q-45 -301 231 -301q138 0 316 67l2 -14q-172 -70 -311 -69q-299 0 -256 317
l75 539q18 94 4 152.5t-75 78.5l6 12q113 -33 82 -225q145 225 381 225z" />
    <glyph glyph-name="uni0251" unicode="&#x251;" horiz-adv-x="1110" 
d="M461 -4q223 0 364 260l80 541q-35 268 -254 268q-119 0 -216 -66.5t-153 -170.5q-118 -217 -118 -449q0 -172 79 -277.5t218 -105.5zM829 135q0 -109 82 -141l-6 -12q-70 27 -83 86t-3 157q-135 -244 -360 -243q-145 0 -228.5 109.5t-83.5 287.5q-1 239 121 459
q60 108 160 175.5t223 67.5q221 0 260 -247l39 227h13l-125 -819q-9 -56 -9 -107z" />
    <glyph glyph-name="uni0252" unicode="&#x252;" horiz-adv-x="1110" 
d="M459 -4q119 0 216 66q97 68 153 172q118 217 118 448q0 172 -79 277.5t-218 105.5q-223 0 -362 -260l-82 -539q35 -270 254 -270zM651 1079q145 0 228.5 -108.5t83.5 -288.5q1 -240 -121 -460q-60 -108 -160 -175t-223 -67q-223 0 -260 249l-37 -229h-15l125 819
q8 55 9 107q0 109 -82 141l6 12q70 -27 83 -86t3 -157q135 243 360 243z" />
    <glyph glyph-name="uni0253" unicode="&#x253;" horiz-adv-x="1153" 
d="M717 1065q-129 0 -220 -54.5t-184 -160.5l-108 -787q331 -141 531 3q166 119 230 406q26 114 25 222q0 180 -72.5 275.5t-201.5 95.5zM633.5 1503q114.5 0 210.5 -65l-8 -15q-96 66 -203.5 66t-176.5 -57.5t-83 -167.5l-31 -205l-25 -189q176 211 388 211q147 0 225 -100
t78 -307q0 -206 -110 -436q-54 -112 -155.5 -184t-246 -72t-310.5 71l170 1213q14 113 88.5 175t189 62z" />
    <glyph glyph-name="uni0254" unicode="&#x254;" horiz-adv-x="958" 
d="M317 -18q-161 0 -274 122l10 11q111 -119 265.5 -119t262 101.5t159 253t51.5 330.5t-82 281.5t-237 102.5t-288 -107l-8 15q135 109 297 108.5t249 -107t86 -291.5t-53.5 -340t-164.5 -258t-273 -103z" />
    <glyph glyph-name="uni0255" unicode="&#x255;" horiz-adv-x="976" 
d="M834 242q0 147 -170 147q-90 0 -175.5 -74.5t-191.5 -251.5q90 -68 223 -67.5t223.5 67t90.5 179.5zM652 1081q159 0 257 -102l-12 -10q-90 96 -244 96q-155 1 -269 -101q-216 -192 -216 -569q0 -217 117 -321l8 12q102 170 190 245t183.5 75t139.5 -45.5t44 -118.5
q0 -119 -93 -189.5t-234.5 -70.5t-233.5 67l-96 -153l-13 4l96 159q-125 109 -124 338q0 385 224 581q118 104 276 103z" />
    <glyph glyph-name="uni0256" unicode="&#x256;" horiz-adv-x="1171" 
d="M466 -4q134 0 228 86t180 242l76 534q-84 207 -301 207q-127 0 -223 -67.5t-148 -175.5q-104 -214 -104 -418.5t79 -306t213 -101.5zM960 -397q-88 0 -130 53t-27 151l67 484q-82 -143 -176 -226t-232 -83t-221 104t-83 313t106 431q53 112 152.5 181.5t224.5 69.5
t201 -58t110 -142l86 618l17 -2l-236 -1690q-27 -188 143 -188q82 0 160 55l6 -12q-80 -59 -168 -59z" />
    <glyph glyph-name="uni0257" unicode="&#x257;" horiz-adv-x="1171" 
d="M649 1065q-127 0 -223 -67.5t-148 -175.5q-104 -214 -104 -418.5t79 -306t213 -101.5t228 86t180 242l76 534q-84 207 -301 207zM1223 1503q86 0 157 -59l-10 -10q-66 55 -146.5 55t-132 -48t-65.5 -143l-180 -1298h-15l39 293q-82 -145 -176 -228t-232 -83t-221 104
t-83 313t106 431q53 112 152.5 181.5t224.5 69.5t201 -58t110 -142l58 419q14 98 70.5 150.5t142.5 52.5z" />
    <glyph glyph-name="uni0258" unicode="&#x258;" horiz-adv-x="1064" 
d="M895 645q0 184 -87 302t-276 118q-150 0 -239.5 -84t-89.5 -213q0 -156 157 -229.5t517 -79.5q18 90 18 186zM532 1081q197 0 288 -122.5t91 -311.5q0 -274 -132 -469.5t-359 -195.5q-174 0 -301 120l10 13q125 -119 296 -119t288.5 125t160.5 323q-367 6 -528.5 84
t-161.5 240q0 135 96 224t252 89z" />
    <glyph glyph-name="uni0259" unicode="&#x259;" horiz-adv-x="1062" 
d="M401 -4q121 0 217.5 58.5t151.5 152.5q109 186 125 395q-770 -39 -770 -387q0 -102 77.5 -160.5t198.5 -58.5zM567 1079q166 0 256 -105.5t90 -297.5t-69 -360q-39 -94 -95.5 -168t-147.5 -121t-210 -47t-202 62t-83 173q0 174 196 277.5t593 123.5q2 18 2 52
q0 193 -86 295t-240 102q-94 0 -167.5 -28.5t-159.5 -90.5l-8 12q165 121 331 121z" />
    <glyph glyph-name="uni025A" unicode="&#x25a;" horiz-adv-x="1243" 
d="M401 -4q121 0 217.5 58.5t151.5 152.5q109 186 125 395q-770 -39 -770 -387q0 -102 77.5 -160.5t198.5 -58.5zM391 -20q-119 0 -202 62t-83 173q0 174 196 277.5t593 123.5q2 18 2 52q0 193 -86 295t-240 102q-94 0 -167.5 -28.5t-159.5 -90.5l-8 12q166 121 332.5 121
t256.5 -108l224 90h16l-23 -164q-14 -94 24 -142t119 -48t161 57l8 -12q-84 -59 -171 -59.5t-129 53t-28 151.5l21 147l-213 -86q80 -104 80 -290q0 -184 -70 -352q-39 -94 -95.5 -168t-147.5 -121t-210 -47z" />
    <glyph glyph-name="uni025B" unicode="&#x25b;" horiz-adv-x="921" 
d="M434 -18q-141 0 -226 73.5t-85 196.5t85 212t263 95q-109 10 -169 69.5t-60 165.5t96 196.5t265 90.5t286 -94l-12 -10q-101 88 -269 88t-259 -85q-91 -84 -91 -188t67.5 -164.5t200.5 -60.5h119l-4 -16h-121q-203 0 -292 -88t-89 -208t80 -189.5t215 -69.5
q195 0 340 119l10 -13q-151 -120 -350 -120z" />
    <glyph glyph-name="uni025C" unicode="&#x25c;" horiz-adv-x="946" 
d="M492.5 1081q148.5 0 221 -64.5t72.5 -172.5t-71.5 -188.5t-218.5 -92.5q274 -16 274 -241q0 -135 -99.5 -237.5t-291.5 -102.5q-127 0 -207 37.5t-152 105.5l11 10q70 -66 147.5 -102.5t200.5 -36.5q186 0 280.5 98.5t94.5 227.5q0 233 -322 233h-117l4 14h113
q178 0 258 82t80 187.5t-67.5 166t-210 60.5t-314.5 -102l-8 12q174 106 322.5 106z" />
    <glyph glyph-name="uni025D" unicode="&#x25d;" horiz-adv-x="1165" 
d="M770 322q0 -135 -99.5 -237.5t-291.5 -102.5q-127 0 -207 37.5t-152 105.5l11 10q70 -66 147.5 -102.5t200.5 -36.5q186 0 280.5 98.5t94.5 227.5q0 233 -322 233h-117l4 14h113q178 0 258 82t80 187.5t-67.5 166t-210 60.5t-314.5 -102l-8 12q174 106 343 106t239 -108
l217 88h16l-22 -164q-14 -94 23.5 -142t119.5 -48t162 57l8 -12q-88 -59 -174 -59.5t-128 53t-28 151.5l21 147l-207 -83q27 -47 26 -119q0 -106 -71.5 -186.5t-218.5 -92.5q274 -16 274 -241z" />
    <glyph glyph-name="uni025E" unicode="&#x25e;" horiz-adv-x="1103" 
d="M533.5 -4q185.5 0 281.5 97t96 229q0 233 -323 233h-82l4 14h80q176 0 257 82t81 186.5t-68 166.5q-68 61 -210 61q-142 -1 -259 -99q-223 -188 -223 -573q0 -190 90 -293.5t275.5 -103.5zM152 385q0 190 56 344t176 253t266.5 99t220 -66.5t73.5 -171.5t-71.5 -185
t-219.5 -95q274 -16 275 -241q0 -137 -101.5 -238.5t-294 -102.5t-286.5 106.5t-94 297.5z" />
    <glyph glyph-name="uni025F" unicode="&#x25f;" horiz-adv-x="577" 
d="M526 508l-2 -16h-233l-68 -488q-25 -178 -81 -256t-183 -141l-6 12q121 59 176 137t78 250l67 486h-229l2 16h229l78 553h17l-78 -553h233z" />
    <glyph glyph-name="uni0260" unicode="&#x260;" horiz-adv-x="1142" 
d="M467 16q219 0 364 271l107 702q-115 78 -254 78t-244.5 -63.5t-161.5 -165.5q-110 -199 -110 -435q0 -174 79 -280.5t220 -106.5zM1194 1503q86 0 158 -59l-11 -10q-67 55 -147 55q-167 0 -197 -191l-32 -237l-162 -1079q-31 -207 -127 -292t-262 -85t-312 94l7 14
q150 -94 323 -94q301 0 354 361l41 276q-68 -125 -163 -190.5t-197 -65.5q-150 0 -232.5 111.5t-82.5 291.5q0 243 114 445q58 104 166.5 168.5t248.5 64.5t259 -75l41 294q14 98 70.5 150.5t142.5 52.5z" />
    <glyph glyph-name="uni0261" unicode="&#x261;" horiz-adv-x="1128" 
d="M684 1067q-139 0 -244.5 -63.5t-161.5 -165.5q-110 -199 -110 -435q0 -174 79 -280.5t220 -106.5q219 0 364 271l105 702q-113 78 -252 78zM685 1081q144 0 267 -84l-149 -1015q-31 -207 -127 -292t-262 -85t-312 94l7 14q150 -94 323 -94q301 0 354 361l41 276
q-68 -125 -163 -190.5t-197 -65.5q-150 0 -232.5 111.5t-82.5 291.5q0 243 114 445q58 104 166.5 168.5t252.5 64.5z" />
    <glyph glyph-name="uni0262" unicode="&#x262;" horiz-adv-x="1120" 
d="M670 1085q160 0 274 -96l-12 -12q-110 92 -262 92t-268.5 -96t-175 -244.5t-58.5 -336.5t96 -290t260 -102t307 76l64 450h-264v15h282l-65 -475q-156 -80 -326 -80t-270 106.5t-100 315.5q-2 274 142.5 475.5t375.5 201.5z" />
    <glyph glyph-name="uni0263" unicode="&#x263;" horiz-adv-x="899" 
d="M319 -383q136 0 136 171q0 83 -70 286q-158 -250 -158 -353.5t92 -103.5zM471 -215q0 -86 -39 -134q-38 -48 -102 -48q-118 0 -118.5 111.5t165.5 373.5l-246 973h19l239 -961l508 961h18l-520 -975q76 -215 76 -301z" />
    <glyph glyph-name="uni0264" unicode="&#x264;" horiz-adv-x="1040" 
d="M578 152.5q0 76.5 -76 255.5q-154 -215 -154 -313.5t98 -98.5q63 0 97.5 40t34.5 116.5zM980 1081q54 0 114 -51l-9 -12q-53 47 -103 47t-86 -29.5t-77 -99.5l-307 -516q82 -184 82 -266t-39 -127t-102.5 -45t-92 31.5t-28.5 80.5q0 100 162 328l-158 516
q-23 70 -50.5 98.5t-79.5 28.5t-110 -47l-6 14q66 49 121 49t86 -33.5t55 -109.5l152 -504l297 504q47 78 86 110.5t93 32.5z" />
    <glyph glyph-name="uni0265" unicode="&#x265;" horiz-adv-x="1177" 
d="M438 -20q-272 0 -229 325l106 756h17l-107 -754q-43 -313 215 -313q133 0 245 97t216 304l94 666h17l-205 -1454l-16 -2l106 755q-193 -380 -459 -380z" />
    <glyph glyph-name="uni0266" unicode="&#x266;" horiz-adv-x="1187" 
d="M750 1081q274 0 229 -327l-107 -754h-16l107 754q43 313 -215 313q-133 0 -244 -96.5t-217 -304.5l-92 -666h-17l178 1266q14 113 88 175t187 62t213 -65l-8 -15q-96 66 -203.5 66t-177.5 -57.5t-84 -167.5l-78 -564q189 381 457 381z" />
    <glyph glyph-name="uni0267" unicode="&#x267;" horiz-adv-x="1187" 
d="M750 1081q274 0 229 -327l-107 -754l-24 -193q-14 -100 -71.5 -152t-144.5 -52t-155 59l10 12q63 -55 144.5 -55t133.5 48t66 143l132 944q43 313 -215 313q-133 0 -244 -96.5t-217 -304.5l-92 -666h-17l178 1266q14 113 88 175t189 62t211 -65l-8 -15q-96 66 -203.5 66
t-176.5 -57.5t-83 -167.5l-80 -564q189 381 457 381z" />
    <glyph glyph-name="uni0268" unicode="&#x268;" horiz-adv-x="577" 
d="M537 582l-2 -13h-232l-80 -569h-16l80 569h-232l2 13h230l67 479h17l-68 -479h234zM415 1415q-19 0 -20 23q4 18 23.5 18t19.5 -20q-4 -21 -23 -21z" />
    <glyph glyph-name="uni0269" unicode="&#x269;" horiz-adv-x="561" 
d="M299 -18q-135 0 -113 155l129 924h17l-129 -924q-20 -141 98 -141q41 0 84 16l4 -14q-43 -16 -90 -16z" />
    <glyph glyph-name="uni026A" unicode="&#x26a;" horiz-adv-x="614" 
d="M-6 0v14h233l144 1033h-232l2 14h480l-3 -14h-231l-143 -1033h231l-2 -14h-479z" />
    <glyph glyph-name="uni026B" unicode="&#x26b;" horiz-adv-x="569" 
d="M428 678q-55 0 -137 55l-84 -596q-20 -141 96 -141q33 0 86 16l4 -14q-43 -16 -90 -16q-135 0 -113 155l84 604q-76 49 -127 50q-80 0 -153 -91l-12 9q74 98 165 98q53 0 132 -47l102 737l16 2l-104 -749q86 -55 135 -56q78 0 152 88l12 -8q-74 -96 -164 -96z" />
    <glyph glyph-name="uni026C" unicode="&#x26c;" horiz-adv-x="608" 
d="M299 602h2l37 277q-16 2 -73.5 2t-106.5 -40t-49 -110q0 -129 190 -129zM348 -4q33 0 86 16l4 -14q-45 -16 -90 -16q-135 0 -112 155l61 451q-205 0 -205 143q0 78 54.5 122t138.5 44q23 0 55 -4l84 604l16 2l-125 -897q82 2 168 19v-15q-72 -16 -170 -18l-63 -451
q-16 -141 98 -141z" />
    <glyph glyph-name="uni026D" unicode="&#x26d;" horiz-adv-x="520" 
d="M308 -397q-87 0 -129 53t-27 151l235 1690l16 2l-235 -1692q-28 -188 142 -188q83 0 161 55l8 -12q-84 -59 -171 -59z" />
    <glyph glyph-name="uni026E" unicode="&#x26e;" horiz-adv-x="1202" 
d="M657 391q395 0 396 -311q0 -209 -126 -343t-333 -134t-324 157l11 11q113 -152 314.5 -152t321 130t119.5 331q0 297 -377 297h-104l2 14l549 653h-776l-127 -907q-20 -141 98 -141q33 0 86 16l2 -14q-43 -16 -88 -16q-133 0 -115 155l191 1360l16 2l-61 -438h798l-2 -14
l-550 -656h79z" />
    <glyph glyph-name="uni026F" unicode="&#x26f;" horiz-adv-x="1728" 
d="M408 -6q242 0 421 389l95 678h16l-104 -754q-23 -150 24 -231.5t158 -81.5q238 0 422 401l94 666h16l-149 -1061h-12l47 360q-174 -381 -420 -380q-119 0 -169 86t-28 239l6 41q-174 -367 -417 -366q-119 0 -170.5 86t-28.5 239l104 756h17l-105 -754
q-23 -150 24.5 -231.5t158.5 -81.5z" />
    <glyph glyph-name="uni0270" unicode="&#x270;" horiz-adv-x="1718" 
d="M408 -6q240 0 421 389l95 678h16l-104 -754q-23 -150 24 -231.5t158 -81.5q238 0 422 401l94 666h16l-202 -1450l-17 -2l105 749q-176 -379 -420 -378q-121 0 -170 87t-27 240l6 39q-174 -367 -417 -366q-119 0 -170.5 86t-28.5 239l104 756h17l-105 -754
q-23 -150 24.5 -231.5t158.5 -81.5z" />
    <glyph glyph-name="uni0271" unicode="&#x271;" horiz-adv-x="1728" 
d="M1321 1081q119 0 169 -86t28 -241l-132 -947q-14 -100 -70 -152t-143 -52t-155 59l8 12q66 -55 147 -55q169 0 197 191l131 944q23 150 -24 231.5t-158 81.5q-238 0 -422 -393l-94 -674h-17l107 754q20 150 -26 231.5t-156 81.5q-238 0 -424 -401l-92 -666h-17l148 1061
h14l-47 -361q174 381 418 381q119 0 170 -86t28 -241l-6 -43q172 370 418 370z" />
    <glyph glyph-name="uni0272" unicode="&#x272;" horiz-adv-x="1187" 
d="M754 1081q133 0 190 -86t35 -241l-107 -754h-16l107 754q43 313 -209 313q-135 0 -248 -96.5t-219 -304.5l-119 -859q-14 -100 -70.5 -152t-143.5 -52t-155 59l8 12q66 -55 147 -55q168 0 198 191l174 1251h14l-47 -361q193 381 461 381z" />
    <glyph glyph-name="uni0273" unicode="&#x273;" horiz-adv-x="1187" 
d="M988 -397q-89 0 -131 53t-28 151l134 947q43 313 -209 313q-135 0 -248 -96.5t-219 -304.5l-92 -666h-17l148 1061h14l-47 -361q193 381 461 381q133 0 190 -86t35 -241l-133 -947q-14 -94 23.5 -141t119.5 -47t160 55l8 -12q-80 -59 -169 -59z" />
    <glyph glyph-name="uni0274" unicode="&#x274;" horiz-adv-x="1187" 
d="M1010 1061l-150 -1061h-20l-502 1042q-6 -72 -29 -219l-116 -823h-15l148 1061h22l500 -1043l145 1043h17z" />
    <glyph glyph-name="uni0275" unicode="&#x275;" horiz-adv-x="1144" 
d="M496 -4q111 0 197.5 47t142.5 127q102 147 133 358h-793q-10 -78 -10 -133q0 -190 86 -294.5t244 -104.5zM651 1065q-109 0 -195 -46q-88 -46 -142 -124q-106 -151 -136 -352h793q8 59 8 129q0 188 -85 290.5t-243 102.5zM666.5 1081q148.5 0 239.5 -106.5t91 -318.5
t-107 -428q-54 -110 -156.5 -178t-252 -68t-240.5 108.5t-91 322.5q0 213 108 425q55 108 157.5 175.5t251 67.5z" />
    <glyph glyph-name="uni0276" unicode="&#x276;" horiz-adv-x="1484" 
d="M979 672q0 174 -83 283.5t-229.5 109.5t-244.5 -66.5t-152 -172.5q-104 -206 -104 -413.5t86 -312t230.5 -104.5t242.5 64q97 64 151 168q102 200 103 444zM997 668q0 -31 -4 -97h289l-2 -14h-289q-20 -195 -103 -342t-224 -199h630v-16h-665q-66 -18 -133 -18
q-164 0 -255 108.5t-91 322.5q0 213 108 425q55 108 157.5 175.5t235.5 67.5q70 0 127 -20h647l-4 -17h-612q84 -39 136 -135t52 -241z" />
    <glyph glyph-name="uni0277" unicode="&#x277;" horiz-adv-x="1507" 
d="M944 -4q129 0 220 93q165 169 165 501q0 231 -128 353t-374 122q-319 0 -493 -200.5t-174 -534.5q0 -174 67.5 -254t182.5 -80t199.5 88t111.5 276l41 283l16 2l-41 -289q-51 -360 207 -360zM829 1081q252 0 385.5 -127t133.5 -364q0 -340 -174 -514q-94 -94 -226.5 -94
t-186.5 85t-42 228q-31 -158 -113 -235.5t-200.5 -77.5t-190.5 85t-72 263q0 344 180 547.5t506 203.5z" />
    <glyph glyph-name="uni0278" unicode="&#x278;" horiz-adv-x="1269" 
d="M1130 625q0 193 -107.5 298t-309.5 109l-142 -1003q266 8 412.5 167.5t146.5 428.5zM139 438q0 -195 107.5 -299t310.5 -110l139 1003q-262 -6 -409.5 -166t-147.5 -428zM1147 625q0 -276 -150.5 -439t-425.5 -172l-57 -405l-16 -2l57 407q-209 6 -320.5 116t-111.5 308
q0 276 152.5 439t422.5 170l64 450l16 2l-63 -452q209 -2 320.5 -111.5t111.5 -310.5z" />
    <glyph glyph-name="uni0279" unicode="&#x279;" horiz-adv-x="741" 
d="M66 -20q-37 0 -95 14l4 16q39 -14 91 -14q129 0 217 83t163 283l99 699h16l-147 -1061h-15l43 322q-70 -184 -158.5 -263t-217.5 -79z" />
    <glyph glyph-name="uni027A" unicode="&#x27a;" horiz-adv-x="739" 
d="M66 -20q-37 0 -95 14l4 16q39 -14 91 -14q129 0 217 83t163 283l99 699h2l61 438l17 -2l-62 -436h-2l-147 -1061h-15l43 322q-70 -184 -158.5 -263t-217.5 -79z" />
    <glyph glyph-name="uni027B" unicode="&#x27b;" horiz-adv-x="739" 
d="M529 -397q-89 0 -130 53t-26 151l24 193l45 317q-68 -180 -156.5 -258.5t-217.5 -78.5q-53 0 -97 14l6 14q43 -14 91 -14q127 0 216 84t165 282l98 701h16l-149 -1061l-25 -193q-14 -94 23 -141t118.5 -47t159.5 55l8 -12q-80 -59 -169 -59z" />
    <glyph glyph-name="uni027C" unicode="&#x27c;" horiz-adv-x="741" 
d="M674 1081q35 0 96 -14l-6 -14q-45 12 -90 12q-127 0 -216 -83t-165 -282l-154 -1093l-16 -2l203 1456h14l-43 -322q70 184 159 263t218 79z" />
    <glyph glyph-name="uni027D" unicode="&#x27d;" horiz-adv-x="739" 
d="M674 1081q37 0 94 -14l-4 -14q-45 12 -90 12q-127 0 -216 -83t-165 -282l-125 -893q-14 -94 23.5 -141t119.5 -47t160 55l8 -12q-80 -59 -169 -59t-131 53t-27 151l174 1254h14l-43 -322q70 184 159 263t218 79z" />
    <glyph glyph-name="uni027E" unicode="&#x27e;" horiz-adv-x="651" 
d="M503 1069q89 0 152 -59l-8 -13q-63 55 -145 55.5t-133.5 -48t-65.5 -142.5l-119 -862h-16l119 864q14 100 70.5 152.5t145.5 52.5z" />
    <glyph glyph-name="uni027F" unicode="&#x27f;" horiz-adv-x="651" 
d="M302 1081q87 0 129 -53t28 -151l-123 -877h-17l123 877q28 188 -145 188q-86 0 -158 -55l-8 12q84 59 171 59z" />
    <glyph glyph-name="uni0280" unicode="&#x280;" horiz-adv-x="1042" 
d="M549 518q139 0 239.5 76t100.5 225q0 225 -322 225h-227l-74 -526h283zM905 819q0 -152 -94 -228.5t-225 -86.5l248 -504h-19l-248 502h-303l-69 -502h-17l148 1061h243q336 0 336 -242z" />
    <glyph glyph-name="uni0281" unicode="&#x281;" horiz-adv-x="1042" 
d="M406 16q414 0 413 310q0 112 -74 164t-186 53h-289l-73 -527h209zM836 326q0 -326 -430 -326h-228l148 1061h16l-70 -504h303l388 504h20l-389 -504q104 -8 173 -64t69 -167z" />
    <glyph glyph-name="uni0282" unicode="&#x282;" horiz-adv-x="937" 
d="M549.5 1065q-156.5 0 -247.5 -67.5t-91 -167t58.5 -153.5t214 -104.5t219 -114t63.5 -169.5q0 -139 -102.5 -223t-283 -84t-310.5 120l-45 -309q-12 -94 25.5 -142t117.5 -48t162 55l8 -12q-80 -57 -169 -57.5t-132 53t-29 151.5l47 324l8 10q137 -131 332 -131
q152 0 253.5 78t101.5 215q0 100 -60.5 159.5t-216.5 110.5t-218 109.5t-62 148.5q0 119 98 191.5t239 72.5q182 0 297 -108l-12 -10q-109 102 -265.5 102z" />
    <glyph glyph-name="uni0283" unicode="&#x283;" horiz-adv-x="522" 
d="M573 1503q86 0 158 -59l-10 -10q-66 55 -147 55q-169 0 -197 -191l-182 -1298l-25 -193q-14 -100 -71.5 -152t-144.5 -52t-155 59l11 12q63 -55 144 -55t133 48t67 143l24 190l182 1300q14 98 70.5 150.5t142.5 52.5z" />
    <glyph glyph-name="uni0284" unicode="&#x284;" horiz-adv-x="577" 
d="M603 1503q87 0 155 -59l-8 -10q-66 55 -147 55t-133 -48t-67 -143l-178 -1282h230l-2 -16h-230q-27 -176 -83 -254t-181 -139l-6 12q119 59 174 136t80 245h-234l2 16h234l180 1284q14 98 70.5 150.5t143.5 52.5z" />
    <glyph glyph-name="uni0285" unicode="&#x285;" horiz-adv-x="780" 
d="M492.5 -18q-89.5 0 -131.5 53t-27 151l72 498l24 193q28 188 -145 188q-86 0 -158 -55l-6 12q80 59 169 59t130 -53t26 -151l-24 -193h-2l-70 -498q-14 -94 23 -142t119.5 -48t160.5 55l9 -12q-80 -57 -169.5 -57z" />
    <glyph glyph-name="uni0286" unicode="&#x286;" horiz-adv-x="548" 
d="M-80 -381q227 0 273 291q-92 23 -199 22.5t-171.5 -47.5t-64.5 -119.5t43 -109.5t119 -37zM600 1503q86 0 158 -59l-10 -10q-66 55 -147 55q-168 0 -198 -191l-192 -1378q72 -18 158 -61l-7 -15q-70 39 -153 62q-49 -303 -289 -303q-82 0 -130 42t-48 120.5t69.5 131
t176 52.5t207.5 -25l192 1376q14 98 70.5 150.5t142.5 52.5z" />
    <glyph glyph-name="uni0287" unicode="&#x287;" horiz-adv-x="661" 
d="M282.5 1065q-96.5 0 -196.5 -57l-6 14q106 57 206.5 57t148.5 -65.5t32 -186.5l-113 -811h176l-2 -16h-176l-43 -272h-12l39 272h-299l4 16h297l113 811q16 115 -28 176.5t-140.5 61.5z" />
    <glyph glyph-name="uni0288" unicode="&#x288;" horiz-adv-x="661" 
d="M295 -381q82 0 160 55l8 -12q-80 -59 -169 -59t-130 53t-27 151l172 1237h-178l2 17h178l41 272h15l-39 -272h297l-4 -17h-295l-148 -1044l-24 -193q-28 -188 141 -188z" />
    <glyph glyph-name="uni0289" unicode="&#x289;" horiz-adv-x="1216" 
d="M466 -4q130 0 241.5 97.5t189.5 277.5l55 397h-653l-63 -461q-20 -152 40 -231.5t190 -79.5zM462 -18q-134 0 -198.5 84t-44.5 241l64 461h-172l2 14h172l39 279h16l-39 -279h653l39 279h17l-39 -279h174l-2 -14h-174l-109 -768h-12l47 340q-74 -172 -186.5 -265
t-246.5 -93z" />
    <glyph glyph-name="uni028A" unicode="&#x28a;" horiz-adv-x="1150" 
d="M500 -18q-170 0 -262 106q-92 108 -91.5 302t88 368t238.5 286h-209v17h230l-2 -19q-160 -119 -244 -290.5t-84 -361.5t87 -292t249 -102q223 0 350 178t127 440t-172 430l2 17h227v-17h-211q170 -166 170 -432t-132 -448t-361 -182z" />
    <glyph glyph-name="uni028B" unicode="&#x28b;" horiz-adv-x="1136" 
d="M469 -18q-133 0 -208 86t-52 247l104 746h17l-105 -746q-20 -156 48.5 -237.5t195.5 -81.5q168 0 289 131t160 405l55 394q18 139 -99 139q-39 0 -81 -16l-5 14q48 18 100 18t81.5 -41t19.5 -114l-55 -396q-39 -276 -164 -412t-301 -136z" />
    <glyph glyph-name="uni028C" unicode="&#x28c;" horiz-adv-x="899" 
d="M-16 0l520 1061h20l244 -1061h-16l-240 1047l-510 -1047h-18z" />
    <glyph glyph-name="uni028D" unicode="&#x28d;" horiz-adv-x="1382" 
d="M2 0l434 1061h21l159 -1043l453 1043h21l139 -1061h-17l-135 1044l-452 -1044h-21l-160 1044l-424 -1044h-18z" />
    <glyph glyph-name="uni028E" unicode="&#x28e;" horiz-adv-x="894" 
d="M-16 0l514 1061q104 221 191 308t253 132v-12q-160 -47 -244 -132t-186 -298l10 2l242 -1061h-16l-240 1049l-506 -1049h-18z" />
    <glyph glyph-name="uni028F" unicode="&#x28f;" horiz-adv-x="806" 
d="M844 1061l-445 -627l-59 -434h-16l59 434l-272 627h16l266 -612l432 612h19z" />
    <glyph glyph-name="uni0290" unicode="&#x290;" horiz-adv-x="839" 
d="M789 -397q-89 0 -131 53t-27 151l26 193h-661l2 14l813 1030h-608l2 17h629l-3 -14l-811 -1031h656l-29 -209q-14 -94 24 -141t119.5 -47t159.5 55l8 -12q-80 -59 -169 -59z" />
    <glyph glyph-name="uni0291" unicode="&#x291;" horiz-adv-x="862" 
d="M846 231q0 66 -36 100t-97 34q-212 -1 -273 -349q195 -2 300.5 44t105.5 171zM713 379q68 0 108.5 -39t40.5 -109q0 -133 -109.5 -182t-314.5 -49q-25 -135 -30 -209h-17q14 111 31 209h-426l2 14l813 1030h-608l2 17h629l-3 -14l-813 -1031h406q64 363 289 363z" />
    <glyph glyph-name="uni0292" unicode="&#x292;" horiz-adv-x="901" 
d="M360 391q391 0 392 -311q0 -209 -125 -343t-335 -134t-341 164l12 8q123 -156 328 -156t324.5 129t119.5 330q0 299 -377 299h-104l2 14l551 653h-645l2 17h667l-2 -14l-553 -656h84z" />
    <glyph glyph-name="uni0293" unicode="&#x293;" horiz-adv-x="901" 
d="M-51 -192q0 -88 69.5 -138.5t198.5 -50.5t236 39q-61 197 -130 275.5t-166.5 78.5t-152.5 -58t-55 -146zM358 391q393 0 394 -311q0 -150 -72 -262.5t-207 -167.5l39 -127l-14 -4l-39 125q-111 -41 -245 -41t-208 55t-74 149.5t60.5 157t165 62.5t176.5 -82t135 -281
q131 53 198.5 163t67.5 253q0 297 -377 297h-104l2 14l551 653h-645l2 17h667l-2 -14l-553 -656h82z" />
    <glyph glyph-name="uni0294" unicode="&#x294;" horiz-adv-x="864" 
d="M831 1163q0 147 -81.5 235.5t-231.5 88.5q-193 0 -371 -156l-8 12q174 160 379 160q158 0 244 -93t86 -247q0 -199 -104.5 -321.5t-301.5 -163.5l-127 -27l-92 -651h-16l92 664l141 28q391 86 391 471z" />
    <glyph glyph-name="uni0295" unicode="&#x295;" horiz-adv-x="862" 
d="M172 1008q0 211 126 353t324 142t330 -162l-12 -10q-123 156 -315.5 156t-314.5 -137.5t-120 -341.5q-2 -250 285 -318l127 -26l-94 -664h-16l92 651l-113 25q-137 33 -218 107.5t-81 224.5z" />
    <glyph glyph-name="uni0296" unicode="&#x296;" horiz-adv-x="1003" 
d="M379.5 -12q-195.5 0 -328.5 162l10 10q133 -156 320.5 -156t309.5 133t122 336q0 262 -281 328l-133 28l97 668l16 2l-94 -657l117 -27q295 -66 294 -342q0 -209 -127 -347t-322.5 -138z" />
    <glyph glyph-name="uni0297" unicode="&#x297;" horiz-adv-x="1007" 
d="M703.5 1081q160.5 0 254.5 -104l-12 -8q-88 96 -229 96q-170 0 -296 -149.5t-183.5 -364.5t-57.5 -452.5t84 -359.5t237 -122t277 104l10 -12q-133 -109 -290.5 -108.5t-245.5 127.5t-88 370.5t59.5 462.5t189.5 369.5t290.5 150.5z" />
    <glyph glyph-name="uni0298" unicode="&#x298;" horiz-adv-x="1613" 
d="M831 711q25 0 21 -23q0 -18 -23 -18t-18 20q0 21 20 21zM928 1397q-328 0 -528.5 -247t-200.5 -605q0 -260 141 -404.5t391 -144.5q340 0 535.5 241.5t195.5 612.5q0 262 -140 404.5t-394 142.5zM947.5 1413q240.5 0 386 -147.5t145.5 -415.5q0 -379 -201 -623.5
t-547 -244.5q-258 0 -403.5 148.5t-145.5 400.5t90 448.5t262.5 315t413 118.5z" />
    <glyph glyph-name="uni0299" unicode="&#x299;" horiz-adv-x="1028" 
d="M463 16q186 0 305 90.5t119 253.5q0 205 -262 205h-351l-77 -549h266zM614 582q127 0 203 74.5t76 195.5q0 215 -283 215q-137 0 -268 -31l-66 -454h338zM903 360q0 -170 -124 -265t-316 -95h-285l148 1051q145 31 292.5 30.5t219 -63t71.5 -174t-70.5 -186.5t-183.5 -85
q248 -4 248 -213z" />
    <glyph glyph-name="uni029A" unicode="&#x29a;" horiz-adv-x="1114" 
d="M436 -4q244 0 377 190.5t133 475.5q0 195 -90 299t-253 104t-254 -85t-91 -188.5t67.5 -164t200.5 -60.5h92l-4 -16h-94q-203 0 -292 -88t-89 -208t80 -189.5t217 -69.5zM123 252q0 123 85 212t263 95q-109 10 -169 69.5t-60 166t96 196.5t265 90t264.5 -109.5
t95.5 -309.5q0 -293 -138.5 -487.5t-390.5 -192.5q-141 0 -226 73.5t-85 196.5z" />
    <glyph glyph-name="uni029B" unicode="&#x29b;" horiz-adv-x="1118" 
d="M1185 1503q87 0 154 -59l-8 -10q-66 55 -146.5 55t-133 -48t-66.5 -143l-41 -309l-10 -10q-113 90 -264.5 90t-268 -96t-175 -244.5t-58.5 -336t96 -290t260 -102.5t307 76l64 450h-264v15h282l-65 -475q-156 -80 -326 -80t-270 105.5t-100 316.5q-2 274 142 475.5
t376 201.5q152 0 258 -86l43 301q12 96 69.5 149.5t144.5 53.5z" />
    <glyph glyph-name="uni029C" unicode="&#x29c;" horiz-adv-x="1185" 
d="M844 0l78 549h-652l-75 -549h-17l148 1061h16l-70 -496h652l69 496h17l-150 -1061h-16z" />
    <glyph glyph-name="uni029D" unicode="&#x29d;" horiz-adv-x="550" 
d="M-80 -381q227 0 273 291q-92 23 -199 22.5t-171.5 -47.5t-64.5 -119.5t43 -109.5t119 -37zM-80 -397q-82 0 -130 42t-48 120.5t69.5 131t176 52.5t207.5 -25l159 1137h17l-160 -1141q72 -18 158 -61l-7 -15q-70 39 -153 62q-49 -303 -289 -303zM419 1456q19 0 17 -20
t-20 -21q-20 0 -21 23q5 18 24 18z" />
    <glyph glyph-name="uni029E" unicode="&#x29e;" horiz-adv-x="917" 
d="M530 -391l203 1452h17l-203 -1450zM27 0l591 481l-497 580h20l498 -582l-590 -479h-22z" />
    <glyph glyph-name="uni029F" unicode="&#x29f;" horiz-adv-x="813" 
d="M342 1061l-145 -1045h508l-5 -16h-522l148 1061h16z" />
    <glyph glyph-name="uni02A0" unicode="&#x2a0;" horiz-adv-x="1128" 
d="M683 1067q-138 0 -243.5 -66.5t-163.5 -172.5q-112 -208 -112 -449q0 -172 80 -277.5t221 -105.5q223 0 364 264l107 731q-115 76 -253 76zM682 1081q141 0 256 -75l41 294q14 98 70.5 150.5t142.5 52.5t158 -59l-11 -10q-67 55 -147 55q-167 0 -197 -191l-32 -237
l-211 -1450l-17 -2l90 620q-68 -121 -163 -184t-197 -63q-150 0 -234 109.5t-84 287.5q-1 245 117 459q60 108 168.5 175.5t249.5 67.5z" />
    <glyph glyph-name="uni02A1" unicode="&#x2a1;" horiz-adv-x="864" 
d="M831 1163q0 147 -81.5 235.5t-231.5 88.5q-193 0 -371 -156l-8 12q174 160 379 160q158 0 244 -93t86 -247q0 -199 -104.5 -321.5t-301.5 -163.5l-127 -27l-34 -239h245l-2 -15h-245l-56 -397h-16l55 397h-147l2 15h147l35 252l141 28q391 86 391 471z" />
    <glyph glyph-name="uni02A2" unicode="&#x2a2;" horiz-adv-x="862" 
d="M622 1503q198 0 330 -162l-12 -10q-123 156 -315.5 156t-314.5 -137.5t-120 -341.5q-2 -250 285 -318l127 -26l-35 -252h166l-2 -15h-166l-57 -397h-16l55 397h-225l2 15h225l35 239l-113 25q-137 33 -218 107.5t-81 224.5q0 211 126 353t324 142z" />
    <glyph glyph-name="uni02A3" unicode="&#x2a3;" horiz-adv-x="1687" 
d="M848 16l811 1028h-668zM466 -4q134 0 228 86t180 242l76 534q-84 207 -301 207q-127 0 -223 -67.5t-148 -175.5q-104 -214 -104 -418.5t79 -306t213 -101.5zM462 -18q-138 0 -221 104t-83 313t106 431q53 112 152.5 181.5t224.5 69.5t201 -58t110 -142l86 618l17 -2
l-62 -436h690l-2 -14l-813 -1031h648l-3 -16h-682l39 293q-82 -145 -176 -228t-232 -83z" />
    <glyph glyph-name="uni02A4" unicode="&#x2a4;" horiz-adv-x="1730" 
d="M649 1065q-127 0 -223 -67.5t-148 -175.5q-104 -214 -104 -418.5t79 -306t213 -101.5t228 86t180 242l76 534q-84 207 -301 207zM1188 391q393 0 393 -311q0 -209 -126 -343t-336 -134t-341 164l13 8q127 -156 330.5 -156t323.5 129t120 330q0 299 -377 299h-105l2 14
l549 653h-643l-145 -1044h-15l39 293q-82 -145 -176 -228t-232 -83t-221 104t-83 313t106 431q53 112 152.5 181.5t224.5 69.5t201 -58t110 -142l86 618l17 -2l-62 -436h666l-2 -14l-551 -656h82z" />
    <glyph glyph-name="uni02A5" unicode="&#x2a5;" horiz-adv-x="1710" 
d="M1696 231q0 63 -37 98.5t-98 35.5q-212 -1 -273 -349q197 -2 302.5 44t105.5 171zM991 1044l-143 -1028l811 1028h-668zM466 -4q134 0 228 86t180 242l76 534q-84 207 -301 207q-127 0 -223 -67.5t-148 -175.5q-104 -214 -104 -418.5t79 -306t213 -101.5zM1563 379
q68 0 108.5 -39t40.5 -109q0 -133 -110.5 -182t-315.5 -49q-16 -90 -31 -209h-14q8 96 29 209h-439l39 293q-82 -145 -176 -228t-232 -83t-221 104t-83 313t106 431q53 112 152.5 181.5t224.5 69.5t201 -58t110 -142l86 618l17 -2l-62 -436h690l-2 -14l-815 -1031h408
q62 363 289 363z" />
    <glyph glyph-name="uni02A6" unicode="&#x2a6;" horiz-adv-x="1292" 
d="M940.5 1065q-147.5 0 -240 -77t-94.5 -191q2 -86 59.5 -137.5t197.5 -91.5t200.5 -94t60.5 -157q0 -158 -130 -246.5t-373.5 -88.5t-339 88t-70.5 266l98 708h-178l2 17h178l41 272h15l-39 -272h256l-4 -17h-254l-99 -708q-25 -170 66.5 -255t327 -85t361.5 85t126 236
q0 96 -57.5 147.5t-197.5 91.5t-201.5 94.5t-61.5 161t97 188t251 81.5t270 -110l-10 -10q-110 104 -257.5 104z" />
    <glyph glyph-name="uni02A7" unicode="&#x2a7;" horiz-adv-x="1097" 
d="M449 -4q133 0 315 65l137 983h-575l-107 -770q-42 -278 230 -278zM1149 1503q86 0 158 -59l-11 -10q-66 55 -146 55q-167 0 -198 -191l-180 -1298h-2l-25 -193q-14 -100 -71.5 -152t-144 -52t-154.5 59l10 12q63 -55 144.5 -55t133.5 48t66 143l25 190h2l6 45
q-174 -63 -313 -63q-289 0 -246 292l106 770h-178l2 17h178l41 272h15l-39 -272h575l33 239q14 98 70.5 150.5t142.5 52.5z" />
    <glyph glyph-name="uni02A8" unicode="&#x2a8;" horiz-adv-x="1456" 
d="M1151 389q-98 0 -188.5 -58.5t-239.5 -207.5q92 -127 274 -127q141 0 228.5 66.5t87.5 175.5q0 151 -162 151zM1136 1081q155 0 255 -104l-13 -8q-90 96 -241.5 96t-265 -97.5t-168 -247t-54.5 -317.5t66 -268q150 152 242 211.5t187 59.5t140 -45.5t45 -122.5
q0 -115 -91 -185.5t-241 -70.5q-188 0 -286 131q-160 -131 -316 -131q-117 0 -167 66.5t-33 184.5l112 811h-176l2 17h178l41 272h13l-37 -272h297l-4 -17h-295l-115 -811q-31 -238 184 -237q84 0 153.5 28.5t153.5 100.5q-72 109 -71.5 279.5t57.5 324.5t175 253t273 99z
" />
    <glyph glyph-name="uni02A9" unicode="&#x2a9;" horiz-adv-x="1763" 
d="M1329 1081q133 0 190.5 -86t34.5 -241l-133 -947q-14 -100 -70.5 -152t-143.5 -52t-154 59l8 12q66 -55 146.5 -55t132 48t65.5 143l133 944q43 313 -209 313q-135 0 -247.5 -96.5t-219.5 -304.5l-92 -666h-16l145 1044h-553l-147 -1044h-17l148 1044h-189l2 17h189
l28 205q16 115 89 176t188 61t219 -76l-10 -12q-98 74 -208.5 74t-178.5 -57.5t-82 -167.5l-29 -203h567l-47 -361q193 381 461 381z" />
    <glyph glyph-name="uni02AA" unicode="&#x2aa;" horiz-adv-x="1259" 
d="M616 -18q-219 0 -322.5 89t-78.5 265l162 1161l16 2l-162 -1163q-25 -170 75 -255t310.5 -85t334.5 85t124 236q0 96 -57 147.5t-197.5 91.5t-202 94.5t-61.5 161t97.5 188t251 81.5t270.5 -110l-13 -10q-106 104 -255.5 104t-241 -76t-93.5 -192q2 -86 59.5 -137.5
t197.5 -91.5t201 -94t61 -157q0 -156 -128.5 -245.5t-347.5 -89.5z" />
    <glyph glyph-name="uni02AB" unicode="&#x2ab;" horiz-adv-x="1234" 
d="M301 -18q-133 0 -115 155l191 1360l16 2l-190 -1362q-20 -141 98 -141q43 0 90 18l813 1030h-606l2 17h629l-2 -14l-813 -1031h649l-4 -16h-666q-45 -18 -92 -18z" />
    <glyph glyph-name="uni02AC" unicode="&#x2ac;" horiz-adv-x="929" 
d="M811 530l-233 -530h-21l-94 516l-238 -516h-20l-86 530h16l82 -518l240 518h18l94 -518l228 518h14zM924 1350l-232 -531h-20l-94 516l-240 -516h-19l-86 531h15l82 -519l239 519h21l94 -519l225 519h15z" />
    <glyph glyph-name="uni02AD" unicode="&#x2ad;" horiz-adv-x="602" 
d="M467 4h-16l24 184h-446l-25 -188h-16l26 203h480zM584 823h-17l25 185h-447l-24 -189h-17l27 203h479z" />
    <glyph glyph-name="uni02AE" unicode="&#x2ae;" horiz-adv-x="1335" 
d="M1131 -395q-89 0 -131 53t-27 152l78 550q-188 -381 -457 -380q-274 0 -229 325l77 572q28 188 -145 188q-86 0 -158 -55l-8 12q84 59 171 59t129 -53t28 -151l-78 -570q-45 -313 214 -313t462 401l92 666h16l-176 -1251q-14 -94 24 -141.5t122.5 -47.5t156.5 55l8 -12
q-80 -59 -169 -59z" />
    <glyph glyph-name="uni02AF" unicode="&#x2af;" horiz-adv-x="1331" 
d="M297 1065q-86 0 -158 -55l-8 12q84 59 171 59t129 -53t28 -151l-78 -570q-45 -313 214 -313t462 401l92 666h16l-202 -1454l-17 -2l105 755q-188 -381 -457 -380q-274 0 -229 325l77 572q28 188 -145 188z" />
    <glyph glyph-name="uni02B0" unicode="&#x2b0;" horiz-adv-x="630" 
d="M471 1362q156 0 133 -166l-51 -377h-14l51 377q18 152 -123 152q-129 0 -238 -136l-55 -393h-14l104 750h17l-48 -338q101 131 238 131z" />
    <glyph glyph-name="uni02B1" unicode="&#x2b1;" horiz-adv-x="630" 
d="M471 1362q156 0 133 -166l-51 -377h-14l51 377q18 152 -123 152q-129 0 -238 -136l-55 -393h-14l73 531l15 100q8 57 50 90t104 33t124 -33l-8 -12q-52 31 -112 31t-98 -29t-46 -80l-31 -219q105 131 240 131z" />
    <glyph glyph-name="uni02B2" unicode="&#x2b2;" horiz-adv-x="370" 
d="M360 1350l-73 -525q-12 -90 -45 -131t-105 -73l-4 12q65 31 95 69t42 123l74 525h16zM381 1554q14 0 14 -16q-4 -14 -20 -14t-13 16q5 14 19 14z" />
    <glyph glyph-name="uni02B4" unicode="&#x2b4;" horiz-adv-x="489" 
d="M213 809q-35 0 -53 6l2 14q20 -6 72 -6q109 0 186 162l51 365h14l-73 -531h-15l17 135q-70 -145 -201 -145z" />
    <glyph glyph-name="uni02B7" unicode="&#x2b7;" horiz-adv-x="927" 
d="M924 1350l-232 -531h-20l-94 516l-240 -516h-19l-86 531h15l82 -519l239 519h21l94 -519l225 519h15z" />
    </font>
</defs>
</svg>
