<?xml version="1.0" standalone="no"?>
<!DOCTYPE svg PUBLIC "-//W3C//DTD SVG 1.1//EN" "http://www.w3.org/Graphics/SVG/1.1/DTD/svg11.dtd" >
<svg xmlns="http://www.w3.org/2000/svg">
<metadata>
Created by FontPrep 20130207 at Mon Sep 19 21:16:46 2016
 By Alex Birsan
Digitized data copyright (c) 2012-2015, The Mozilla Foundation and Telefonica S.A.
</metadata>
<defs>
<font id="529b6d76ab992e28c4311d430df45a40" horiz-adv-x='1024' >
  <font-face 
    font-family="FiraSans-HairItalic"
    font-weight="100"
    font-style="italic"
    font-stretch="normal"
    units-per-em="2048"
    panose-1="2 11 2 3 5 0 0 2 0 4"
    ascent="1638"
    descent="-410"
    x-height="1061"
    cap-height="1395"
    bbox="-1464 -717 2785 2150"
    underline-thickness="102"
    underline-position="-102"
    slope="-8"
    unicode-range="U+000D-1F310"
  />
<missing-glyph horiz-adv-x="1363" 
d="M604 246q31 0 49 -20q19 -20 15 -53q-4 -31 -28 -53t-54 -22t-48 23t-14 53t26 52q22 20 54 20zM717 924q227 0 196 -238q-31 -211 -227 -240l-14 -92q-10 -49 -58 -49q-20 0 -34 13t-11 36l25 172q108 6 152 41t57 119q18 139 -105 139q-60 0 -92 -14t-45 -14
q-49 0 -45 49q6 38 70 58t131 20zM1284 2103h-760l-393 -2773h760zM1339 2150l-403 -2867h-860l403 2867h860z" />
    <glyph glyph-name="fi" unicode="fi" horiz-adv-x="1116" 
d="M656 1505q126 0 253 -80l-16 -20q-119 76 -244 76q-233 0 -266 -219l-27 -201h588l-149 -1061h-29l145 1036h-559l-143 -1028q-33 -233 -136 -319q-48 -41 -139 -84l-10 22q123 59 178 135t78 248l144 1026h-187l4 25h187l28 205q16 117 94 178q80 61 206 61z" />
    <glyph glyph-name="fl" unicode="fl" horiz-adv-x="1175" 
d="M915 -18q-143 0 -118 161l180 1276q-160 59 -313 60q-248 0 -281 -217l-27 -201h303l-6 -25h-301l-143 -1028q-33 -233 -136 -319q-48 -41 -139 -84l-10 22q123 59 178 135t78 248l144 1026h-187l4 25h187l28 205q34 239 328 239q148 0 297 -63l27 4l-185 -1305
q-18 -135 95 -135q40 1 83 17l7 -23q-41 -18 -93 -18z" />
    <glyph glyph-name=".notdef" horiz-adv-x="1363" 
d="M604 246q31 0 49 -20q19 -20 15 -53q-4 -31 -28 -53t-54 -22t-48 23t-14 53t26 52q22 20 54 20zM717 924q227 0 196 -238q-31 -211 -227 -240l-14 -92q-10 -49 -58 -49q-20 0 -34 13t-11 36l25 172q108 6 152 41t57 119q18 139 -105 139q-60 0 -92 -14t-45 -14
q-49 0 -45 49q6 38 70 58t131 20zM1284 2103h-760l-393 -2773h760zM1339 2150l-403 -2867h-860l403 2867h860z" />
    <glyph glyph-name=".null" horiz-adv-x="0" 
 />
    <glyph glyph-name="nonmarkingreturn" horiz-adv-x="681" 
 />
    <glyph glyph-name="CR" unicode="&#xd;" horiz-adv-x="616" 
 />
    <glyph glyph-name="space" unicode=" " horiz-adv-x="616" 
 />
    <glyph glyph-name="exclam" unicode="!" horiz-adv-x="485" 
d="M176 55q33 0 33 -32q0 -37 -35 -37t-35 32q1 14 11 26t26 11zM211 403l137 992h29l-137 -992h-29z" />
    <glyph glyph-name="quotedbl" unicode="&#x22;" horiz-adv-x="661" 
d="M233 907l64 488h31l-72 -488h-23zM512 907l63 488h31l-69 -488h-25z" />
    <glyph glyph-name="numbersign" unicode="#" horiz-adv-x="991" 
d="M678 449l135 497h-446l-136 -497h447zM1020 946h-174l-135 -497h163l-6 -29h-163l-115 -420h-33l115 420h-447l-114 -420h-33l115 420h-179l6 29h181l135 497h-170l2 27h174l104 383h33l-104 -383h446l105 383h32l-104 -383h168z" />
    <glyph glyph-name="dollar" unicode="$" horiz-adv-x="1075" 
d="M642 1346q-181 0 -277 -90q-97 -90 -97 -208t70 -184t238 -121t248 -137q81 -82 81 -209q1 -165 -107 -287t-335 -128l-41 -279h-25l37 279q-217 0 -368 157l18 19q139 -150 356 -150q119 0 207 35t136 92q94 112 94 244q0 133 -76 209t-245 133t-243 128q-73 71 -73 195
t97 226q97 100 298 102l41 285h26l-40 -285q172 -8 317 -135l-23 -18q-133 127 -314 127z" />
    <glyph glyph-name="percent" unicode="%" horiz-adv-x="1544" 
d="M1162 588q-220 0 -279 -246q-44 -181 37 -275q51 -61 138 -61t146 37t89 95t44 116q15 58 15 137q0 81 -50 139t-140 58zM1320 546q60 -66 60 -188q0 -123 -67 -240q-81 -136 -259 -136q-96 0 -156 66t-60 191q0 124 67 238q81 135 259 135q96 0 156 -66zM527 1350
q-219 0 -279 -245q-14 -56 -14 -136q0 -81 50 -141q52 -60 140 -60q217 0 281 248q14 57 14 112q0 104 -51 163q-52 59 -141 59zM530 1376q96 0 157 -66t61 -188q0 -123 -68 -242q-80 -137 -258 -137q-97 0 -157 68t-60 192t67 238q80 135 258 135zM1360 1419l22 -14
l-1138 -1432l-23 15z" />
    <glyph glyph-name="ampersand" unicode="&#x26;" horiz-adv-x="1497" 
d="M555 8q274 0 467 238l-442 481q-195 -95 -269 -199q-73 -104 -73 -227t88 -208t229 -85zM725 1391q-151 1 -227 -93t-76 -213q0 -152 166 -327q229 117 309 204t80 195q1 108 -71 171t-181 63zM393 1076q0 146 89 242q88 96 226 97q138 -1 219 -71t81 -187t-85 -207
t-319 -211l436 -473q106 150 201 420l27 -8q-100 -279 -211 -430l221 -242l-27 -14l-213 235q-199 -246 -483 -245q-154 0 -251 92t-97 227t77 241t277 203q-168 185 -168 331z" />
    <glyph glyph-name="quotesingle" unicode="'" horiz-adv-x="380" 
d="M233 907l64 488h31l-72 -488h-23z" />
    <glyph glyph-name="parenleft" unicode="(" horiz-adv-x="669" 
d="M662 1696l18 -15q-270 -326 -346 -506q-137 -315 -148 -669q-6 -298 121 -556q58 -116 103 -200l-21 -10q-155 277 -194 443q-38 166 -36 294q10 481 203 808q74 124 134 203t166 208z" />
    <glyph glyph-name="parenright" unicode=")" horiz-adv-x="667" 
d="M332 1694q155 -276 188 -420q16 -68 36 -197t-6 -313q-39 -286 -138 -513q-72 -160 -219 -349q-47 -59 -134 -164l-20 14q269 325 346 507q140 321 147 669q3 158 -36 323t-185 432z" />
    <glyph glyph-name="asterisk" unicode="*" horiz-adv-x="880" 
d="M870 1245l-323 -98l155 -262l-24 -19l-152 267l-227 -267l-23 19l232 262l-299 98l10 25l299 -103l43 328h29l-47 -328l323 105z" />
    <glyph glyph-name="plus" unicode="+" horiz-adv-x="987" 
d="M575 1010l-43 -318h314l-4 -28h-314l-45 -318h-30l45 318h-314l4 28h316l43 318h28z" />
    <glyph glyph-name="comma" unicode="," horiz-adv-x="299" 
d="M76 55q33 0 33 -32q0 -14 -19 -50l-115 -223h-22l106 240q-20 6 -20 24t11 30q12 11 26 11z" />
    <glyph glyph-name="hyphen" unicode="-" horiz-adv-x="819" 
d="M178 627l4 26h488l-2 -26h-490z" />
    <glyph glyph-name="period" unicode="." horiz-adv-x="299" 
d="M76 55q33 0 33 -32q0 -37 -35 -37t-35 32q0 14 11 26q12 11 26 11z" />
    <glyph glyph-name="slash" unicode="/" horiz-adv-x="1064" 
d="M911 1630l25 -6l-729 -1817l-27 9z" />
    <glyph glyph-name="zero" unicode="0" horiz-adv-x="1103" 
d="M668 1350q-180 0 -297 -171t-162 -493q-18 -154 -19 -258q0 -420 287 -420q182 0 298 171t161 491q18 131 18 256q1 424 -286 424zM668 1376q317 0 317 -454q0 -305 -102 -596q-53 -152 -159 -248t-247 -96q-315 0 -315 450q0 255 62 479q36 131 91 233t147 166
q92 66 206 66z" />
    <glyph glyph-name="one" unicode="1" horiz-adv-x="798" 
d="M635 1354l-189 -1354h-28l184 1319l-395 -232l-12 25l417 242h23z" />
    <glyph glyph-name="two" unicode="2" horiz-adv-x="950" 
d="M565 1376q141 0 225 -83t82 -214q0 -96 -26 -171q-53 -155 -360 -467q-140 -142 -418 -412h684l-11 -29h-716l4 29q375 362 534 536q160 174 220 284q61 111 61 231t-76 195t-205 75q-184 0 -354 -166l-21 18q174 174 377 174z" />
    <glyph glyph-name="three" unicode="3" horiz-adv-x="966" 
d="M559 1376q141 0 220 -76t79 -206t-88 -244q-88 -113 -250 -127q127 -6 203 -84t76 -224t-100 -280q-50 -69 -139 -111t-207 -42q-119 0 -199 40t-146 128l23 16q63 -86 139 -122t186 -36t196 42q141 70 197 239q22 68 21 131q0 143 -82 216t-227 73h-76l6 26h72
q174 0 269 113t95 240q1 126 -71 194t-197 68q-182 0 -344 -142l-16 21q165 147 360 147z" />
    <glyph glyph-name="four" unicode="4" horiz-adv-x="1021" 
d="M924 418l-4 -29h-191l-55 -389h-29l55 389h-612l4 27l557 960l25 -12l-549 -946h580l65 438h25l-62 -438h191z" />
    <glyph glyph-name="five" unicode="5" horiz-adv-x="966" 
d="M518 844q146 0 228 -88t83 -255q0 -167 -100 -331q-51 -84 -145 -136t-219 -52q-211 0 -328 151l22 17q106 -141 308 -142q117 0 205 51q147 85 204 295q23 82 23 160q0 143 -76 224t-212 81t-275 -90h-25l86 625h612l-8 -27h-577l-82 -569q130 86 276 86z" />
    <glyph glyph-name="six" unicode="6" horiz-adv-x="1040" 
d="M612 844q-227 0 -422 -271q-10 -96 -10 -161q0 -403 299 -404q109 0 192 56t126 144q82 166 83 326t-71 235t-197 75zM729 1350q-203 0 -343 -204t-189 -528q178 252 415 252q137 0 217 -82t80 -254t-92 -349q-47 -89 -135 -146t-203 -57q-170 0 -249 116t-78 316
q0 86 12 178q51 358 201 571t366 213q117 0 207 -76l-18 -20q-80 70 -191 70z" />
    <glyph glyph-name="seven" unicode="7" horiz-adv-x="886" 
d="M909 1354l-4 -25l-758 -1339l-26 8l751 1329h-677l4 27h710z" />
    <glyph glyph-name="eight" unicode="8" horiz-adv-x="1075" 
d="M480 8q169 0 289 104t120 273q0 115 -69 181t-230 132l-76 33q-217 -83 -298 -193t-81 -244t88 -210t257 -76zM295 1026q0 -98 52 -160t175 -112l99 -41q173 82 241 174t68 213q0 122 -77 186t-210 64t-241 -92t-107 -232zM266 1028q0 150 117 249t259 99t229 -72
t87 -202q0 -128 -68 -222t-243 -180q143 -61 207 -133t64 -184q0 -166 -122 -284t-331 -117q-170 0 -265 84t-96 225q0 311 379 452q-117 51 -167 117t-50 168z" />
    <glyph glyph-name="nine" unicode="9" horiz-adv-x="1034" 
d="M483 555q242 0 414 250q10 82 10 180q0 365 -284 365q-109 0 -192 -47t-130 -122q-94 -150 -93 -304q2 -154 76 -238t199 -84zM623 1376q315 0 315 -389q0 -799 -758 -1016l-8 25q295 90 481 271t240 495q-168 -233 -412 -234q-135 0 -218 92t-83 257q0 164 102 323
q50 78 139 127t202 49z" />
    <glyph glyph-name="colon" unicode=":" horiz-adv-x="299" 
d="M76 55q33 0 33 -32q0 -37 -35 -37t-35 32q0 14 11 26q12 11 26 11zM196 848q-34 0 -34 34t34 33q34 0 33 -32q1 -35 -33 -35z" />
    <glyph glyph-name="semicolon" unicode=";" horiz-adv-x="299" 
d="M76 55q33 0 33 -32q0 -14 -19 -50l-115 -223h-22l106 240q-20 6 -20 24t11 30q12 11 26 11zM196 848q-34 0 -34 34t34 33q34 0 33 -32q1 -35 -33 -35z" />
    <glyph glyph-name="less" unicode="&#x3c;" horiz-adv-x="1011" 
d="M899 1018l8 -25l-684 -311l594 -320l-14 -24l-613 334l3 20z" />
    <glyph glyph-name="equal" unicode="=" horiz-adv-x="989" 
d="M162 506l6 26h657l-6 -26h-657zM209 821l4 29h657l-4 -29h-657z" />
    <glyph glyph-name="greater" unicode="&#x3e;" horiz-adv-x="1013" 
d="M252 1018l614 -326l-2 -20l-708 -334l-9 24l684 320l-595 311z" />
    <glyph glyph-name="question" unicode="?" horiz-adv-x="909" 
d="M348 18q0 34 34 35q34 0 34 -35t-35 -34q-33 0 -33 34zM610 1415q116 -1 185 -67t69 -165t-48 -174t-116 -121t-136 -90q-160 -104 -161 -247q0 -49 19 -113l-27 -6q-20 66 -20 134t47 134q47 64 115 108q67 44 135 90t115 118q49 72 49 164t-62 150t-170 58
q-106 0 -186 -37q-80 -38 -168 -120l-19 16q91 88 177 128t202 40z" />
    <glyph glyph-name="at" unicode="@" horiz-adv-x="2088" 
d="M934 61q215 0 342 283l78 545q-102 59 -219 59t-208 -57q-155 -97 -214 -334q-25 -96 -25 -190q0 -150 68 -228t178 -78zM1190 1415q344 0 527 -189t184 -487q0 -255 -99 -471q-49 -106 -134 -173q-84 -67 -192 -67t-155 82q-47 81 -43 191q-133 -268 -344 -268
q-123 0 -200 87t-77 272t108 373q54 93 150 151q97 58 223 58t244 -67l-73 -538q-18 -143 22 -229q41 -85 159 -85t212 113q170 204 170 569q0 289 -176 470t-506 182q-199 0 -366 -68q-168 -68 -276 -174q-108 -107 -184 -245q-142 -260 -141 -542q0 -336 208 -534
t538 -199q205 0 381 66l6 -27q-186 -66 -389 -65q-340 -1 -556 205t-216 554q0 294 145 558q78 140 190 250t283 178q172 68 377 69z" />
    <glyph glyph-name="A" unicode="A" horiz-adv-x="1140" 
d="M240 453h639l-191 915zM973 0l-88 424h-660l-207 -424h-30l686 1395h35l295 -1395h-31z" />
    <glyph glyph-name="B" unicode="B" horiz-adv-x="1196" 
d="M535 29q256 0 370.5 116.5t114.5 292.5q0 135 -92 210t-248 75h-367l-96 -694h318zM678 752q147 0 254.5 97t107.5 239q0 278 -368 278h-269l-86 -614h361zM670 1395q193 0 297 -75t104 -220t-93.5 -245t-234.5 -118q137 -10 222.5 -86t85.5 -230t-116 -287.5
t-407 -133.5h-346l197 1395h291z" />
    <glyph glyph-name="C" unicode="C" horiz-adv-x="1095" 
d="M825 1415q180 0 308 -119l-19 -22q-59 57 -123.5 84.5t-181.5 27.5t-226.5 -57t-177 -146t-114.5 -207q-84 -211 -84 -456.5t112.5 -377.5t301 -132t346.5 119l18 -23q-164 -125 -365.5 -124.5t-322.5 141.5t-121 396t90 475q49 120 121 212t185.5 150.5t252.5 58.5z" />
    <glyph glyph-name="D" unicode="D" horiz-adv-x="1263" 
d="M608 1366h-205l-186 -1337h215q145 0 263 51t194 135q217 240 217 672q0 230 -98 338t-252 131q-66 10 -148 10zM612 1395q216 1 360 -95q165 -110 165 -401q0 -458 -231 -709q-79 -86 -201.5 -138t-274.5 -52h-248l197 1395h233z" />
    <glyph glyph-name="E" unicode="E" horiz-adv-x="1011" 
d="M1022 1395l-6 -29h-613l-84 -614h525l-4 -27h-525l-98 -696h631l-4 -29h-662l197 1395h643z" />
    <glyph glyph-name="F" unicode="F" horiz-adv-x="964" 
d="M1012 1395l-6 -29h-603l-90 -645h521l-5 -27h-520l-96 -694h-31l197 1395h633z" />
    <glyph glyph-name="G" unicode="G" horiz-adv-x="1234" 
d="M839 1415q170 0 314 -119l-20 -20q-129 111 -293.5 110.5t-287 -79t-196.5 -205.5q-150 -258 -149 -576q0 -252 116.5 -385t325.5 -133q168 0 340 90l84 590h-301l-2 27h336l-88 -633q-186 -100 -369 -100q-223 0 -348 140t-125 406q0 328 160 595q78 130 205.5 211
t297.5 81z" />
    <glyph glyph-name="H" unicode="H" horiz-adv-x="1345" 
d="M985 0l102 729h-772l-102 -729h-31l197 1395h29l-89 -637h773l88 637h30l-196 -1395h-29z" />
    <glyph glyph-name="I" unicode="I" horiz-adv-x="544" 
d="M408 1395l-195 -1395h-31l197 1395h29z" />
    <glyph glyph-name="J" unicode="J" horiz-adv-x="565" 
d="M440 1395l-170 -1219q-20 -154 -81.5 -230.5t-227.5 -144.5l-8 25q152 63 210 137t79 217l170 1215h28z" />
    <glyph glyph-name="K" unicode="K" horiz-adv-x="1040" 
d="M1110 1395l-750 -645l588 -750h-37l-587 750l749 645h37zM408 1395l-195 -1393h-31l197 1393h29z" />
    <glyph glyph-name="L" unicode="L" horiz-adv-x="919" 
d="M408 1395l-191 -1366h590l-8 -29h-617l197 1395h29z" />
    <glyph glyph-name="M" unicode="M" horiz-adv-x="1556" 
d="M1354 1395l-37 -1395h-29l19 715q14 555 20 655l-586 -1198h-28l-252 1198q-29 -133 -158 -641l-184 -729h-29l350 1395h45l246 -1188l578 1188h45z" />
    <glyph glyph-name="N" unicode="N" horiz-adv-x="1347" 
d="M1212 1395l-196 -1395h-37l-580 1364q-6 -80 -39 -311l-149 -1053h-29l197 1395h37l579 -1360q25 197 43 330l146 1030h28z" />
    <glyph glyph-name="O" unicode="O" horiz-adv-x="1409" 
d="M825 1389q-166 0 -291.5 -87.5t-193.5 -224.5q-133 -268 -133 -535.5t111.5 -400.5t310.5 -133q139 0 250.5 59.5t179 149.5t113.5 210q80 210 79.5 454t-112 376t-314.5 132zM827 1415q215 0 335 -140t120 -392q0 -253 -87 -473q-48 -122 -118.5 -216t-187.5 -153
t-260 -59q-213 0 -333 141t-120 389t90 472q49 122 121 216t186.5 154.5t253.5 60.5z" />
    <glyph glyph-name="P" unicode="P" horiz-adv-x="1138" 
d="M532 612q331 0 456 198q67 106 67 260.5t-101.5 225t-308.5 70.5h-242l-104 -754h233zM647 1395q438 0 438 -328q1 -193 -115 -329q-60 -72 -174 -113t-270 -41h-231l-82 -584h-31l197 1395h268z" />
    <glyph glyph-name="Q" unicode="Q" horiz-adv-x="1380" 
d="M629 8q139 0 250.5 59.5t179 150.5t113.5 211q80 210 79.5 453t-112 375t-314.5 132q-133 0 -243 -59q-108 -60 -176 -152t-115 -210q-84 -210 -84 -452t111.5 -375t310.5 -133zM637 -18h-8q-213 0 -333 141t-120 389t90 472q49 122 121 216t186.5 154.5t253.5 60.5
q215 0 335 -140t120 -404.5t-112 -524.5q-58 -133 -166.5 -227t-253.5 -119q301 -6 434 -137l-23 -23q-86 82 -202.5 112t-321.5 30z" />
    <glyph glyph-name="R" unicode="R" horiz-adv-x="1163" 
d="M631 700q145 0 243.5 62.5t136.5 147.5t38 202t-87.5 185.5t-285.5 68.5h-273l-92 -666h320zM1079 1096q0 -158 -94 -279t-295 -143l299 -674h-33l-297 672h-352l-94 -672h-31l197 1395h295q405 0 405 -299z" />
    <glyph glyph-name="S" unicode="S" horiz-adv-x="1099" 
d="M665 1415q206 0 345 -139l-21 -19q-127 131 -318 131.5t-293 -96t-102 -217.5t69 -184.5t246 -121.5t259 -140t82 -221q0 -226 -203 -354q-113 -72 -274 -72q-231 0 -389 163l20 21q74 -78 158 -118t207 -40t214 39t140 101q98 125 98 257t-75.5 206.5t-253.5 132.5
t-253 129t-75 199t106.5 235.5t312.5 107.5z" />
    <glyph glyph-name="T" unicode="T" horiz-adv-x="970" 
d="M1059 1395l-6 -29h-435l-192 -1366h-31l193 1366h-434l4 29h901z" />
    <glyph glyph-name="U" unicode="U" horiz-adv-x="1308" 
d="M578 -18q-215 0 -299 119.5t-56 322.5l135 971h31l-137 -969q-55 -418 328 -418q201 0 310 112.5t136 307.5l135 967h31l-137 -973q-29 -203 -145.5 -321.5t-331.5 -118.5z" />
    <glyph glyph-name="V" unicode="V" horiz-adv-x="1083" 
d="M1143 1395l-656 -1395h-36l-267 1395h31l256 -1366l639 1366h33z" />
    <glyph glyph-name="W" unicode="W" horiz-adv-x="1607" 
d="M1645 1395l-523 -1395h-35l-165 1364l-553 -1364h-33l-131 1395h31l122 -1362l547 1362h37l166 -1362l506 1362h31z" />
    <glyph glyph-name="X" unicode="X" horiz-adv-x="974" 
d="M537 758v-2l331 -756h-30l-322 735l-522 -735h-33l539 758v2l-287 635h33l274 -617l447 617h32z" />
    <glyph glyph-name="Y" unicode="Y" horiz-adv-x="999" 
d="M1073 1395l-553 -840l-78 -555h-30l77 555l-321 840h33l305 -811l534 811h33z" />
    <glyph glyph-name="Z" unicode="Z" horiz-adv-x="1038" 
d="M12 0l4 27l1000 1339h-733l2 29h772l-2 -27l-1000 -1339h781l-9 -29h-815z" />
    <glyph glyph-name="bracketleft" unicode="[" horiz-adv-x="636" 
d="M616 1626l-2 -22h-219l-256 -1794h219l-2 -23h-245l260 1839h245z" />
    <glyph glyph-name="backslash" unicode="\" horiz-adv-x="1064" 
d="M463 1630l219 -1814l-27 -9l-221 1817z" />
    <glyph glyph-name="bracketright" unicode="]" horiz-adv-x="636" 
d="M575 1626l-258 -1839h-247l4 23h219l252 1794h-219l4 22h245z" />
    <glyph glyph-name="asciicircum" unicode="^" horiz-adv-x="1077" 
d="M707 1681l268 -602h-35l-252 566l-407 -566h-37l440 602h23z" />
    <glyph glyph-name="underscore" unicode="_" horiz-adv-x="1064" 
d="M-6 -195l4 27h874l-2 -27h-876z" />
    <glyph glyph-name="grave" unicode="`" horiz-adv-x="489" 
d="M217 1546l326 -182l-13 -18l-329 170z" />
    <glyph glyph-name="a" unicode="a" horiz-adv-x="1114" 
d="M680 1057q-137 0 -239.5 -64.5t-158.5 -168.5q-110 -203 -110 -439q0 -174 77 -275.5t216 -101.5q211 0 356 256l109 721q-113 72 -250 72zM683.5 1081q146.5 0 274.5 -84l-114 -759q-8 -82 -8 -101q0 -102 77 -133l-8 -22q-66 23 -83 80t-7 153q-66 -113 -157 -173
t-193 -60q-152 0 -237 108.5t-85 292.5q0 241 117 457q59 108 168 174.5t255.5 66.5z" />
    <glyph glyph-name="b" unicode="b" horiz-adv-x="1155" 
d="M716 1055q-126 0 -214 -53.5t-180 -157.5l-107 -774q141 -61 279.5 -61.5t236.5 69.5q99 70 151 178q104 215 103.5 415.5t-72 292t-197.5 91.5zM482 -18q-132 0 -300 69l203 1448l29 2l-88 -620q170 201 379 200q152 0 230.5 -99t78.5 -287q0 -189 -71 -371
q-38 -98 -94 -172t-145.5 -122t-221.5 -48z" />
    <glyph glyph-name="c" unicode="c" horiz-adv-x="954" 
d="M653 1081q162 0 258 -102l-18 -18q-96 96 -246 96q-151 1 -263 -103q-208 -192 -208 -553q0 -190 87 -291.5t238.5 -101.5t280.5 103l17 -21q-135 -109 -298 -108.5t-259.5 110t-96.5 309.5q1 258 123 458q60 99 160 160.5t225 61.5z" />
    <glyph glyph-name="d" unicode="d" horiz-adv-x="1171" 
d="M647 1057q-123 0 -218 -66.5t-147 -172.5q-100 -206 -100 -409.5t76 -302t207 -98.5t223 85t180 243l74 520q-86 201 -295 201zM459 -18q-137 0 -221 106.5t-84 296t67 361.5q37 96 91.5 168.5t141.5 119.5t193 47q217 0 299 -188l86 610l29 -4l-211 -1499h-25l37 281
q-78 -137 -172 -218t-231 -81z" />
    <glyph glyph-name="e" unicode="e" horiz-adv-x="1060" 
d="M664 1057q-119 0 -212.5 -55.5t-148.5 -145.5q-111 -181 -127 -389q754 41 754 377q0 98 -73.5 155.5t-192.5 57.5zM958 844q0 -358 -784 -402v-47q0 -190 85 -288.5t241 -98.5t317 117l17 -23q-166 -121 -335 -120.5t-262.5 107t-93.5 302t73 363.5q40 92 97.5 163.5
t148.5 117.5t211 46t202.5 -63t82.5 -174z" />
    <glyph glyph-name="f" unicode="f" horiz-adv-x="622" 
d="M639.5 1481q-106.5 0 -173.5 -55.5t-83 -163.5l-27 -201h303l-6 -25h-301l-143 -1028q-33 -231 -136 -319q-48 -41 -139 -84l-10 22q123 59 178.5 135t77.5 248l144 1026h-187l4 25h187l28 205q16 115 91 178t190 63t225 -75l-16 -21q-100 70 -206.5 70z" />
    <glyph glyph-name="g" unicode="g" horiz-adv-x="1130" 
d="M681 1057q-136 0 -238.5 -62.5t-158.5 -162.5q-108 -196 -108 -426q0 -172 77 -275.5t214 -103.5q217 0 362 264l101 694q-113 72 -249 72zM697.5 1081q134.5 0 263.5 -84l-148 -1011q-55 -383 -383 -383q-184 0 -332 94l13 22q147 -92 319 -92q301 0 354 355l37 260
q-135 -242 -354 -242q-150 0 -235 111.5t-86 300.5t73 353q41 91 99.5 159.5t151.5 112.5t227.5 44z" />
    <glyph glyph-name="h" unicode="h" horiz-adv-x="1189" 
d="M752 1081q279 0 233 -327l-106 -754h-29l106 754q41 303 -206 303q-131 0 -242 -98.5t-215 -301.5l-92 -657h-29l211 1499l29 4l-111 -788q189 366 451 366z" />
    <glyph glyph-name="i" unicode="i" horiz-adv-x="522" 
d="M350 1061l-149 -1061h-29l150 1061h28zM389 1409q-33 0 -29 29.5t32 29.5t26 -29.5t-29 -29.5z" />
    <glyph glyph-name="j" unicode="j" horiz-adv-x="524" 
d="M352 1061l-149 -1053q-25 -182 -83.5 -261t-189.5 -142l-10 20q123 61 177.5 137t78.5 248l148 1051h28zM389 1409q-33 0 -29 29.5t32 29.5t26 -29.5t-29 -29.5z" />
    <glyph glyph-name="k" unicode="k" horiz-adv-x="1038" 
d="M752 1081q102 0 161.5 -56t59.5 -155q0 -254 -379 -376l254 -494h-31l-260 506q385 117 385 362q0 88 -48 138.5t-144 50.5q-260 0 -463 -445l-86 -612h-29l211 1499l29 2l-115 -823q186 403 455 403z" />
    <glyph glyph-name="l" unicode="l" horiz-adv-x="565" 
d="M305 8q45 0 84 17l6 -25q-39 -18 -92 -18q-143 0 -119 161l189 1356l28 2l-190 -1360q-16 -133 94 -133z" />
    <glyph glyph-name="m" unicode="m" horiz-adv-x="1730" 
d="M1325 1081q119 0 171 -86t30 -241l-107 -754h-28l106 754q20 145 -25 224t-149 79q-231 0 -420 -393l-92 -664h-29l105 754q23 145 -22.5 224t-151.5 79q-227 0 -420 -400l-92 -657h-29l150 1061h24l-45 -346q174 367 414 366q119 0 171 -86t29 -241l-4 -27
q174 354 414 354z" />
    <glyph glyph-name="n" unicode="n" horiz-adv-x="1189" 
d="M756 1081q133 0 192.5 -86t36.5 -241l-106 -754h-29l106 754q41 303 -202 303q-133 0 -245 -98.5t-216 -301.5l-92 -657h-29l150 1061h24l-45 -346q189 366 455 366z" />
    <glyph glyph-name="o" unicode="o" 
d="M663.5 1057q-141.5 0 -238.5 -65.5t-149 -169.5q-102 -202 -102 -406.5t85 -306t225.5 -101.5t237.5 66q98 66 150 170q102 202 101.5 407t-84.5 305.5t-225.5 100.5zM666.5 1081q150.5 0 242.5 -106.5t92 -319.5t-107 -427q-54 -108 -157.5 -177t-255 -69t-244 108.5
t-92.5 323.5q0 214 110 426q56 108 158.5 174.5t253 66.5z" />
    <glyph glyph-name="p" unicode="p" horiz-adv-x="1163" 
d="M705 1055q-117 0 -206 -53.5t-177 -157.5l-109 -774q127 -61 273.5 -61.5t244.5 69.5q97 70 149 178q102 217 103 438q1 361 -278 361zM705 1081q150 0 228.5 -99t78.5 -312q0 -212 -110 -434q-56 -112 -158.5 -183t-252 -71t-282.5 61l-62 -436l-30 -2l205 1456h24
l-20 -180q170 200 379 200z" />
    <glyph glyph-name="q" unicode="q" horiz-adv-x="1132" 
d="M680 1057q-137 0 -239.5 -64.5t-158.5 -168.5q-110 -203 -110 -439q0 -174 77 -275.5t216 -101.5q221 0 362 260l103 717q-113 72 -250 72zM683.5 1081q146.5 0 274.5 -84l-198 -1390l-29 -2l88 612q-66 -115 -159 -175t-195 -60q-152 0 -237 108.5t-85 292.5
q0 241 117 457q59 108 168 174.5t255.5 66.5z" />
    <glyph glyph-name="r" unicode="r" horiz-adv-x="741" 
d="M678 1081q53 0 96 -14l-8 -25q-39 14 -88 15q-127 0 -215 -88t-164 -285l-98 -684h-29l150 1061h24l-43 -311q68 174 157 252.5t218 78.5z" />
    <glyph glyph-name="s" unicode="s" horiz-adv-x="940" 
d="M548.5 1081q163.5 0 280.5 -108l-18 -17q-115 98 -265.5 98.5t-238.5 -64t-88 -161t57.5 -150.5t212 -103t219 -114t64.5 -187.5t-101.5 -207.5t-291 -85t-330.5 135l19 18q137 -127 327 -127q152 0 250 73t98 208q0 98 -59 156.5t-215 108.5t-217.5 109.5t-61.5 166
t97.5 179t261 72.5z" />
    <glyph glyph-name="t" unicode="t" horiz-adv-x="661" 
d="M383 6q94 0 195 57l12 -24q-104 -57 -209 -57t-155 66.5t-33 187.5l110 800h-176l4 25h176l45 272l23 2l-39 -274h297l-8 -25h-291l-113 -798q-16 -111 26 -171.5t136 -60.5z" />
    <glyph glyph-name="u" unicode="u" horiz-adv-x="1177" 
d="M448 -18q-134 0 -199 84t-44 241l106 754h29l-107 -754q-20 -147 37.5 -223t180.5 -76q266 0 432 383l94 670h29l-150 -1061h-22l45 338q-72 -168 -184.5 -262t-246.5 -94z" />
    <glyph glyph-name="v" unicode="v" horiz-adv-x="905" 
d="M928 1061l-520 -1061h-39l-242 1061h31l233 -1036l504 1036h33z" />
    <glyph glyph-name="w" unicode="w" horiz-adv-x="1386" 
d="M1386 1061l-430 -1061h-36l-154 1032l-442 -1032h-39l-138 1061h29l131 -1032l445 1032h34l154 -1034l418 1034h28z" />
    <glyph glyph-name="x" unicode="x" horiz-adv-x="880" 
d="M858 1061l-397 -492l301 -569h-31l-291 551l-440 -551h-33l459 571l-256 490h33l241 -471l381 471h33z" />
    <glyph glyph-name="y" unicode="y" horiz-adv-x="901" 
d="M924 1061l-516 -1063q-90 -186 -171 -267t-243 -124l-4 22q156 45 228.5 119t160.5 252h-14l-238 1061h31l231 -1041l502 1041h33z" />
    <glyph glyph-name="z" unicode="z" horiz-adv-x="839" 
d="M838 1061l-4 -25l-799 -1009h639l-6 -27h-676l4 25l799 1009h-598l4 27h637z" />
    <glyph glyph-name="braceleft" unicode="{" horiz-adv-x="669" 
d="M647 1667v-22q-164 0 -190 -187l-80 -567q-23 -164 -178 -176q152 -12 129 -178l-82 -568q-12 -96 20 -140t117 -44l-2 -23q-188 0 -160 205l82 582q20 152 -139 151l4 29q160 0 182 152l82 583q29 203 215 203z" />
    <glyph glyph-name="bar" unicode="|" horiz-adv-x="851" 
d="M596 1640l-258 -1841h-29l258 1841h29z" />
    <glyph glyph-name="braceright" unicode="}" horiz-adv-x="669" 
d="M340 1645v22q188 0 162 -205l-82 -581q-23 -152 139 -152l-4 -29q-162 0 -184 -151l-80 -584q-29 -203 -217 -203l2 23q162 0 188 186l80 568q23 164 178 176q-154 12 -127 178l80 567q12 96 -20 141q-33 44 -115 44z" />
    <glyph glyph-name="asciitilde" unicode="~" horiz-adv-x="933" 
d="M627 582q-51 0 -143 56t-140 56q-78 0 -156 -88l-18 15q80 102 174 102q55 0 146 -56t137 -57q76 0 153 88l19 -12q-82 -104 -172 -104z" />
    <glyph glyph-name="uni00A0" unicode="&#xa0;" horiz-adv-x="618" 
 />
    <glyph glyph-name="exclamdown" unicode="&#xa1;" horiz-adv-x="485" 
d="M260 518l-129 -907h-29l129 907h29zM297 915q33 0 33 -32q0 -37 -35 -37t-35 33q0 14 11 25q12 11 26 11z" />
    <glyph glyph-name="cent" unicode="&#xa2;" horiz-adv-x="954" 
d="M647 1057q-151 1 -263 -103q-208 -192 -208 -553q0 -190 87 -291q87 -102 239 -102t280 103l17 -21q-135 -109 -299 -108h-8l-39 -279h-27l39 279q-147 12 -234 120q-86 109 -86 285q0 373 211 578q113 109 271 116l43 299h24l-41 -299q162 0 258 -102l-18 -18
q-96 96 -246 96z" />
    <glyph glyph-name="sterling" unicode="&#xa3;" horiz-adv-x="1019" 
d="M738 1376q161 0 255 -133l-20 -16q-87 123 -235 123t-233 -88t-106 -228l-41 -295h439l-4 -26h-437l-63 -449q-12 -98 -54 -149t-130 -86h700l-8 -29h-742l4 27q96 41 143 91q46 50 58 146l64 449h-125l4 26h123l43 297q20 150 112 245t253 95z" />
    <glyph glyph-name="currency" unicode="&#xa4;" 
d="M254 694q0 -147 89 -239q89 -93 231 -93t230 94t89 239q0 147 -87 241q-88 94 -232 94t-232 -94t-88 -242zM922 693q0 -157 -101 -257l162 -160l-18 -18l-164 160q-93 -82 -227 -82t-228 82l-164 -160l-18 18l162 160q-100 100 -100 257t96 257l-158 162l18 18l158 -159
q96 86 233 86t234 -86l158 159l18 -18l-158 -160q97 -102 97 -259z" />
    <glyph glyph-name="yen" unicode="&#xa5;" horiz-adv-x="980" 
d="M1049 1354l-512 -688h260l-4 -29h-271l-37 -252h271l-2 -27h-271l-51 -358h-29l50 358h-267l2 27h269l35 252h-267l4 29h254l-321 688h35l313 -686l504 686h35z" />
    <glyph glyph-name="brokenbar" unicode="&#xa6;" horiz-adv-x="851" 
d="M440 537l-100 -738h-29l101 738h28zM596 1640l-102 -733h-29l102 733h29z" />
    <glyph glyph-name="section" unicode="&#xa7;" horiz-adv-x="1087" 
d="M858 609q0 81 -54 139t-162 98q-108 39 -167 72q-125 -72 -172 -136t-47 -144q0 -81 59 -137q59 -57 171 -97t167 -72q115 64 160 130t45 147zM673 1350q-144 0 -221 -72t-77 -156t57 -138q58 -54 196 -104t198 -115t60 -157t-47 -160q-48 -68 -165 -129
q100 -69 100 -181t-88 -188t-252 -77q-164 0 -295 88l19 23q112 -84 276 -84t237 72t73 159q0 86 -55 140q-54 55 -192 103t-204 109t-66 151q1 90 51 157q50 68 177 141q-109 70 -109 180t91 186t241 76t276 -86l-16 -22q-121 84 -265 84z" />
    <glyph glyph-name="dieresis" unicode="&#xa8;" horiz-adv-x="507" 
d="M544 1440q30 0 26 -29t-31 -29q-15 0 -23 10t-6 21q4 27 34 27zM215 1440q33 0 29 -29t-32 -29t-28 31q4 27 31 27z" />
    <glyph glyph-name="copyright" unicode="&#xa9;" horiz-adv-x="1658" 
d="M826 1239q97 0 169 -57l-14 -21q-63 49 -153 49t-164 -78t-74 -233q0 -156 68 -241t167 -85q98 0 179 60l14 -21q-82 -66 -193 -66t-187 96q-76 95 -77 257q0 162 84 251t181 89zM1360 894q0 244 -149 396t-381 152t-382 -155t-149 -399q0 -244 148 -396
q149 -152 381 -152t382 155t150 399zM828 313q-244 0 -402 162t-158 415q0 254 160 416t402 162q243 0 402 -162t159 -414q0 -253 -160 -416t-403 -163z" />
    <glyph glyph-name="ordfeminine" unicode="&#xaa;" horiz-adv-x="1024" 
d="M111 0l4 29h657l-6 -29h-655zM600 1028q-166 0 -254 -70t-88 -186q0 -80 52 -129t143 -49q184 0 301 172l37 262h-191zM621 1395q219 0 219 -183q0 -18 -4 -59l-56 -399q-33 -135 56 -166l-9 -21q-53 15 -67 53t-8 105q-117 -158 -299 -158q-103 1 -163 57t-61 148
q-1 131 101 207t268 76h197l12 98q4 41 4 55q0 80 -43 120t-145 40t-246 -49l-6 24q141 52 250 52z" />
    <glyph glyph-name="guillemotleft" unicode="&#xab;" horiz-adv-x="1081" 
d="M784 1010l-348 -420l232 -418l-21 -14l-55 94l45 -80l-21 -14l-245 422l2 20l360 424l21 -14l12 14z" />
    <glyph glyph-name="logicalnot" unicode="&#xac;" horiz-adv-x="1009" 
d="M864 670l-37 -250h-30l32 223h-647l4 27h678z" />
    <glyph glyph-name="uni00AD" unicode="&#xad;" horiz-adv-x="819" 
d="M178 627l4 26h488l-2 -26h-490z" />
    <glyph glyph-name="registered" unicode="&#xae;" horiz-adv-x="1302" 
d="M535 1030h124q137 0 138 123q0 127 -166 127h-96v-250zM825 1153q0 -123 -131 -147l152 -248h-35l-145 246h-131v-246h-29v549h121q198 0 198 -154zM653 608q184 0 299 122t115 299t-117 295t-301 118t-299 -122q-114 -122 -114 -299t116 -295t301 -118zM653 584
q-197 0 -321 125t-125 312q1 187 123 316t318 129t321 -125t125 -312t-122 -316t-319 -129z" />
    <glyph glyph-name="macron" unicode="&#xaf;" horiz-adv-x="532" 
d="M594 1405h-410l4 29h410z" />
    <glyph glyph-name="degree" unicode="&#xb0;" horiz-adv-x="1064" 
d="M502 877q108 1 184 71q74 70 88 185q16 115 -38 185t-162 71q-108 0 -185 -73q-78 -72 -93 -184t41 -184q57 -71 165 -71zM576 1415q118 0 182 -79t47 -205q-16 -125 -101 -203t-203 -78t-186 79q-69 79 -51 203t106 204t206 79z" />
    <glyph glyph-name="plusminus" unicode="&#xb1;" horiz-adv-x="991" 
d="M92 0l4 29h658l-4 -29h-658zM580 1010l-45 -318h313l-4 -28h-314l-45 -318h-30l45 318h-314l4 28h316l43 318h31z" />
    <glyph glyph-name="uni00B2" unicode="&#xb2;" horiz-adv-x="819" 
d="M467 1507q101 0 153 -62t38 -168t-95 -200q-79 -93 -233 -235t-172 -160h438l-8 -27h-471l2 27q325 299 409 397q84 97 98 197t-28 152q-43 52 -133 53q-125 0 -227 -103l-21 17q113 112 250 112z" />
    <glyph glyph-name="uni00B3" unicode="&#xb3;" horiz-adv-x="819" 
d="M460 1509q116 0 168 -57t40 -147q-12 -89 -72 -141t-139 -60q90 -4 140 -60t35 -162t-94 -172t-209 -67q-130 0 -212 107l20 12q76 -94 195 -94q120 0 190 62t82 157q27 203 -194 203h-52l9 24h43q82 0 150 49t79 137q12 88 -33 136q-44 49 -148 49t-210 -86l-15 20
q111 90 227 90z" />
    <glyph glyph-name="acute" unicode="&#xb4;" horiz-adv-x="491" 
d="M555 1546l10 -30l-379 -170l-8 20z" />
    <glyph glyph-name="uni00B5" unicode="&#xb5;" horiz-adv-x="1189" 
d="M451 8q242 0 417 305l107 748h29l-101 -721q-27 -168 6 -340l-24 -6q-29 143 -17 278q-176 -291 -417 -290q-209 0 -230 182q-16 -159 -37 -291l-39 -264l-28 -2l205 1454h28l-108 -778q-20 -143 39 -209t170 -66z" />
    <glyph glyph-name="paragraph" unicode="&#xb6;" horiz-adv-x="1402" 
d="M811 1393l350 2l-252 -1786l-28 -6l247 1765h-297l-245 -1759l-31 -6l145 1030q-227 2 -317 108q-89 105 -65 279t156 273t335 100v-7z" />
    <glyph glyph-name="periodcentered" unicode="&#xb7;" horiz-adv-x="299" 
d="M131 668q0 37 35 37t35 -34t-37 -34q-14 0 -24 9q-9 9 -9 22z" />
    <glyph glyph-name="cedilla" unicode="&#xb8;" horiz-adv-x="415" 
d="M242 -283q0 -61 -49 -102t-129 -41t-132 35l13 22q47 -31 117 -31t109 34q38 32 39 84t-39 76t-130 26l37 186h22l-30 -166q172 -6 172 -123z" />
    <glyph glyph-name="uni00B9" unicode="&#xb9;" horiz-adv-x="819" 
d="M580 1495l-117 -840h-29l115 807l-250 -139l-12 23l270 149h23z" />
    <glyph glyph-name="ordmasculine" unicode="&#xba;" horiz-adv-x="1024" 
d="M109 0l6 29h657l-6 -29h-657zM642 1368q-112 0 -187 -47q-76 -47 -117 -123q-78 -144 -79 -298t67 -230t180 -76t189 49t117 127q75 146 76 297q2 151 -66 226t-180 75zM646 1395q120 0 196 -82t76 -242t-87 -322q-43 -81 -124 -132q-82 -50 -205 -50t-198 84t-75 246
t87 321q44 79 126 128q84 49 204 49z" />
    <glyph glyph-name="guillemotright" unicode="&#xbb;" horiz-adv-x="1062" 
d="M281 1024l241 -424v-20l-362 -422l-19 14l348 418l-229 420zM637 1024l244 -424l-2 -20l-361 -422l-20 14l350 418l-232 420z" />
    <glyph glyph-name="onequarter" unicode="&#xbc;" horiz-adv-x="1810" 
d="M1636 264l-4 -26h-123l-32 -238h-29l35 238h-398l5 22l358 594l22 -10l-352 -580h369l39 266h24l-37 -266h123zM412 555h-29l115 807l-250 -139l-12 22l270 150h22zM1448 1511l22 -10l-1062 -1636l-23 10z" />
    <glyph glyph-name="onehalf" unicode="&#xbd;" horiz-adv-x="1810" 
d="M1442 852q102 0 153 -62t37 -168t-94 -200t-234 -236t-171 -159h438l-8 -27h-471l2 27q324 299 408 397t100 198q14 100 -29 151q-43 52 -133 52q-125 0 -228 -102l-20 16q113 113 250 113zM528 1395l-116 -840h-29l115 807l-250 -139l-12 22l270 150h22zM1448 1511
l22 -10l-1062 -1636l-23 10z" />
    <glyph glyph-name="threequarters" unicode="&#xbe;" horiz-adv-x="1810" 
d="M1636 264l-4 -26h-123l-32 -238h-29l35 238h-398l5 22l358 594l22 -10l-352 -580h369l39 266h24l-37 -266h123zM395 989h-51l8 25h43q82 0 150 49t80 136t-33 136q-44 49 -148 49t-211 -86l-14 21q111 90 227 90t167 -57q52 -58 40 -148t-71 -141t-140 -59q90 -4 140 -61
t35 -163t-94 -172t-209 -66t-212 107l21 13q76 -94 195 -94q120 0 190 62t82 156q27 203 -195 203zM1448 1511l22 -10l-1062 -1636l-23 10z" />
    <glyph glyph-name="questiondown" unicode="&#xbf;" horiz-adv-x="907" 
d="M291 -401q-117 1 -187 67t-70 165t49 174q48 75 116 121q67 46 135 90q162 105 162 247q0 49 -19 112l27 7q20 -66 20 -128t-34 -121q-34 -58 -84 -94t-110 -78t-112 -82t-85 -105q-33 -64 -33 -148t61 -142t167 -58t187 37q80 38 168 120l19 -19q-90 -86 -175 -126
t-202 -39zM553 997q0 -36 -35 -36q-35 -1 -35 33t37 34q14 0 24 -9t9 -22z" />
    <glyph glyph-name="Agrave" unicode="&#xc0;" horiz-adv-x="1140" 
d="M240 453h639l-191 915zM973 0l-88 424h-660l-207 -424h-30l686 1395h35l295 -1395h-31zM903 1591l-12 -20l-336 147l20 31z" />
    <glyph glyph-name="Aacute" unicode="&#xc1;" horiz-adv-x="1140" 
d="M240 453h639l-191 915zM973 0l-88 424h-660l-207 -424h-30l686 1395h35l295 -1395h-31zM920 1718l-375 -147l-8 20l372 158z" />
    <glyph glyph-name="Acircumflex" unicode="&#xc2;" horiz-adv-x="1140" 
d="M240 453h639l-191 915zM973 0l-88 424h-660l-207 -424h-30l686 1395h35l295 -1395h-31zM731 1733l-250 -160l-14 16l258 176h16l213 -176l-16 -16z" />
    <glyph glyph-name="Atilde" unicode="&#xc3;" horiz-adv-x="1140" 
d="M240 453h639l-191 915zM973 0l-88 424h-660l-207 -424h-30l686 1395h35l295 -1395h-31zM621 1745q-39 0 -67 -16.5t-69 -57.5l-14 10q80 84 152 84q37 0 108.5 -44t129 -44t126.5 82l12 -10q-74 -94 -137 -94t-132.5 45t-108.5 45z" />
    <glyph glyph-name="Adieresis" unicode="&#xc4;" horiz-adv-x="1140" 
d="M240 453h639l-191 915zM973 0l-88 424h-660l-207 -424h-30l686 1395h35l295 -1395h-31zM891 1640q-14 0 -22.5 9.5t-6.5 21.5q4 27 34 27t26 -29t-31 -29zM567 1698q33 0 29 -29t-32 -29t-25.5 29t28.5 29z" />
    <glyph glyph-name="Aring" unicode="&#xc5;" horiz-adv-x="1140" 
d="M240 453h639l-191 915zM973 0l-88 424h-660l-207 -424h-30l686 1395h35l295 -1395h-31zM725 1610q57 0 95 39t42 94t-22.5 86t-84.5 31t-95.5 -38.5t-41.5 -94.5t23 -86.5t84 -30.5zM724 1587q-69 0 -103.5 38t-30.5 103.5t51 109.5t116 44t103.5 -38t30.5 -103.5
t-51 -109.5t-116 -44z" />
    <glyph glyph-name="AE" unicode="&#xc6;" horiz-adv-x="1542" 
d="M823 436l-114 934l-490 -934h604zM1452 1366h-715l76 -614h539l-4 -27h-533l86 -696h477l-4 -29h-500l-49 410h-620l-215 -410h-33l735 1395h766z" />
    <glyph glyph-name="Ccedilla" unicode="&#xc7;" horiz-adv-x="1095" 
d="M808.5 1386q-116.5 0 -226 -57t-177 -146t-114.5 -207q-84 -211 -84 -456.5t112.5 -377.5t301 -132t346.5 119l18 -23q-164 -125 -356 -124l-27 -142q172 -6 172 -123q0 -61 -49 -102t-129 -41t-131 35l12 22q47 -31 118 -30.5t108.5 33t38.5 84.5t-38.5 76t-130.5 26
l33 162q-199 6 -314.5 147t-115.5 393t90 472q49 120 121 212t185.5 150.5t252.5 58.5q180 0 308 -119l-19 -22q-59 57 -124 84.5t-181.5 27.5z" />
    <glyph glyph-name="Egrave" unicode="&#xc8;" horiz-adv-x="1011" 
d="M1022 1395l-6 -29h-613l-84 -614h525l-4 -27h-525l-98 -696h631l-4 -29h-662l197 1395h643zM590 1749l328 -158l-13 -20l-336 147z" />
    <glyph glyph-name="Eacute" unicode="&#xc9;" horiz-adv-x="1011" 
d="M1022 1395l-6 -29h-613l-84 -614h525l-4 -27h-525l-98 -696h631l-4 -29h-662l197 1395h643zM924 1749l10 -31l-375 -147l-8 20z" />
    <glyph glyph-name="Ecircumflex" unicode="&#xca;" horiz-adv-x="1011" 
d="M1022 1395l-6 -29h-613l-84 -614h525l-4 -27h-525l-98 -696h631l-4 -29h-662l197 1395h643zM952 1573l-207 160l-249 -160l-15 16l258 176h17l213 -176z" />
    <glyph glyph-name="Edieresis" unicode="&#xcb;" horiz-adv-x="1011" 
d="M1022 1395l-6 -29h-613l-84 -614h525l-4 -27h-525l-98 -696h631l-4 -29h-662l197 1395h643zM910 1698q30 0 26 -29t-31 -29q-14 0 -22.5 9.5t-5.5 21.5q3 27 33 27zM582 1698q33 0 28.5 -29t-32 -29t-27.5 31q4 27 31 27z" />
    <glyph glyph-name="Igrave" unicode="&#xcc;" horiz-adv-x="544" 
d="M408 1395l-195 -1395h-31l197 1395h29zM279 1749l327 -158l-12 -20l-336 147z" />
    <glyph glyph-name="Iacute" unicode="&#xcd;" horiz-adv-x="544" 
d="M408 1395l-195 -1395h-31l197 1395h29zM612 1749l11 -31l-375 -147l-8 20z" />
    <glyph glyph-name="Icircumflex" unicode="&#xce;" horiz-adv-x="544" 
d="M408 1395l-195 -1395h-31l197 1395h29zM641 1573l-207 160l-250 -160l-14 16l258 176h16l213 -176z" />
    <glyph glyph-name="Idieresis" unicode="&#xcf;" horiz-adv-x="544" 
d="M408 1395l-195 -1395h-31l197 1395h29zM599 1698q30 0 26 -29t-31 -29q-14 0 -22.5 9.5t-6.5 21.5q4 27 34 27zM270 1698q33 0 29 -29t-32 -29t-26 29t29 29z" />
    <glyph glyph-name="Eth" unicode="&#xd0;" horiz-adv-x="1245" 
d="M416 29q145 0 263 51q117 51 193 135q218 242 218 672q0 324 -218 427q-110 52 -282 52h-203l-88 -629h401l-2 -28h-403l-96 -680h217zM596 1395q522 0 522 -508q0 -276 -97 -494q-52 -117 -131 -203t-202 -138t-276 -52h-246l98 709h-182l4 28h182l92 658h236z" />
    <glyph glyph-name="Ntilde" unicode="&#xd1;" horiz-adv-x="1347" 
d="M1212 1395l-196 -1395h-37l-580 1364q-6 -80 -39 -311l-149 -1053h-29l197 1395h37l579 -1360q25 197 43 330l146 1030h28zM967 1655q-53 0 -123 45t-109 45t-66.5 -16.5t-68.5 -57.5l-14 10q80 84 151 84q37 0 109 -44t130 -44t126 82l12 -10q-73 -94 -147 -94z" />
    <glyph glyph-name="Ograve" unicode="&#xd2;" horiz-adv-x="1409" 
d="M825 1389q-166 0 -291.5 -87.5t-193.5 -224.5q-133 -268 -133 -535.5t111.5 -400.5t310.5 -133q139 0 250.5 59.5t179 149.5t113.5 210q80 210 79.5 454t-112 376t-314.5 132zM827 1415q215 0 335 -140t120 -392q0 -253 -87 -473q-48 -122 -118.5 -216t-187.5 -153
t-260 -59q-213 0 -333 141t-120 389t90 472q49 122 121 216t186.5 154.5t253.5 60.5zM709 1749l327 -158l-12 -20l-336 147z" />
    <glyph glyph-name="Oacute" unicode="&#xd3;" horiz-adv-x="1409" 
d="M825 1389q-166 0 -291.5 -87.5t-193.5 -224.5q-133 -268 -133 -535.5t111.5 -400.5t310.5 -133q139 0 250.5 59.5t179 149.5t113.5 210q80 210 79.5 454t-112 376t-314.5 132zM827 1415q215 0 335 -140t120 -392q0 -253 -87 -473q-48 -122 -118.5 -216t-187.5 -153
t-260 -59q-213 0 -333 141t-120 389t90 472q49 122 121 216t186.5 154.5t253.5 60.5zM1042 1749l11 -31l-375 -147l-8 20z" />
    <glyph glyph-name="Ocircumflex" unicode="&#xd4;" horiz-adv-x="1409" 
d="M825 1389q-166 0 -291.5 -87.5t-193.5 -224.5q-133 -268 -133 -535.5t111.5 -400.5t310.5 -133q139 0 250.5 59.5t179 149.5t113.5 210q80 210 79.5 454t-112 376t-314.5 132zM827 1415q215 0 335 -140t120 -392q0 -253 -87 -473q-48 -122 -118.5 -216t-187.5 -153
t-260 -59q-213 0 -333 141t-120 389t90 472q49 122 121 216t186.5 154.5t253.5 60.5zM1071 1573l-207 160l-250 -160l-14 16l258 176h16l213 -176z" />
    <glyph glyph-name="Otilde" unicode="&#xd5;" horiz-adv-x="1409" 
d="M825 1389q-166 0 -291.5 -87.5t-193.5 -224.5q-133 -268 -133 -535.5t111.5 -400.5t310.5 -133q139 0 250.5 59.5t179 149.5t113.5 210q80 210 79.5 454t-112 376t-314.5 132zM827 1415q215 0 335 -140t120 -392q0 -253 -87 -473q-48 -122 -118.5 -216t-187.5 -153
t-260 -59q-213 0 -333 141t-120 389t90 472q49 122 121 216t186.5 154.5t253.5 60.5zM985 1655q-53 0 -122.5 45t-108.5 45t-67 -16.5t-69 -57.5l-14 10q80 84 152 84q37 0 108.5 -44t129 -44t126.5 82l13 -10q-74 -94 -148 -94z" />
    <glyph glyph-name="Odieresis" unicode="&#xd6;" horiz-adv-x="1409" 
d="M825 1389q-166 0 -291.5 -87.5t-193.5 -224.5q-133 -268 -133 -535.5t111.5 -400.5t310.5 -133q139 0 250.5 59.5t179 149.5t113.5 210q80 210 79.5 454t-112 376t-314.5 132zM827 1415q215 0 335 -140t120 -392q0 -253 -87 -473q-48 -122 -118.5 -216t-187.5 -153
t-260 -59q-213 0 -333 141t-120 389t90 472q49 122 121 216t186.5 154.5t253.5 60.5zM1029 1698q30 0 26 -29t-31 -29q-14 0 -22.5 9.5t-6.5 21.5q4 27 34 27zM700 1698q33 0 29 -29t-32 -29t-26 29t29 29z" />
    <glyph glyph-name="multiply" unicode="&#xd7;" horiz-adv-x="987" 
d="M813 922l21 -19l-308 -272l232 -275l-25 -18l-227 272l-305 -272l-19 18l305 275l-229 272l23 19l227 -273z" />
    <glyph glyph-name="Oslash" unicode="&#xd8;" horiz-adv-x="1409" 
d="M648.5 8q119.5 0 231 59.5t179 150.5t113.5 211q80 210 79 448q0 362 -231 471l-565 -1307q74 -33 193.5 -33zM207 520q0 -358 227 -471l565 1309q-76 31 -191.5 31t-225.5 -59q-108 -60 -176 -152t-115 -210q-84 -210 -84 -448zM1282 877q0 -247 -87 -467
q-48 -122 -118.5 -216t-187.5 -153t-240.5 -59t-204.5 32l-102 -235l-25 10l105 236q-246 119 -246 495q0 240 90 464q49 122 121 216t186.5 154.5t236 60.5t200.5 -33l104 244l27 -10l-109 -242q250 -115 250 -497z" />
    <glyph glyph-name="Ugrave" unicode="&#xd9;" horiz-adv-x="1308" 
d="M578 -18q-215 0 -299 119.5t-56 322.5l135 971h31l-137 -969q-55 -418 328 -418q201 0 310 112.5t136 307.5l135 967h31l-137 -973q-29 -203 -145.5 -321.5t-331.5 -118.5zM659 1749l328 -158l-12 -20l-336 147z" />
    <glyph glyph-name="Uacute" unicode="&#xda;" horiz-adv-x="1308" 
d="M578 -18q-215 0 -299 119.5t-56 322.5l135 971h31l-137 -969q-55 -418 328 -418q201 0 310 112.5t136 307.5l135 967h31l-137 -973q-29 -203 -145.5 -321.5t-331.5 -118.5zM993 1749l11 -31l-375 -147l-8 20z" />
    <glyph glyph-name="Ucircumflex" unicode="&#xdb;" horiz-adv-x="1308" 
d="M578 -18q-215 0 -299 119.5t-56 322.5l135 971h31l-137 -969q-55 -418 328 -418q201 0 310 112.5t136 307.5l135 967h31l-137 -973q-29 -203 -145.5 -321.5t-331.5 -118.5zM1022 1573l-207 160l-250 -160l-14 16l258 176h16l213 -176z" />
    <glyph glyph-name="Udieresis" unicode="&#xdc;" horiz-adv-x="1308" 
d="M578 -18q-215 0 -299 119.5t-56 322.5l135 971h31l-137 -969q-55 -418 328 -418q201 0 310 112.5t136 307.5l135 967h31l-137 -973q-29 -203 -145.5 -321.5t-331.5 -118.5zM980 1698q30 0 26 -29t-31 -29q-14 0 -22.5 9.5t-6.5 21.5q4 27 34 27zM651 1698q33 0 29 -29
t-32 -29t-26 29t29 29z" />
    <glyph glyph-name="Yacute" unicode="&#xdd;" horiz-adv-x="999" 
d="M1073 1395l-553 -840l-78 -555h-30l77 555l-321 840h33l305 -811l534 811h33zM836 1749l10 -31l-375 -147l-8 20z" />
    <glyph glyph-name="Thorn" unicode="&#xde;" horiz-adv-x="1138" 
d="M492 334q147 0 254.5 39t163.5 107q108 128 108 302t-100.5 248t-309.5 74h-241l-107 -770h232zM610 1133q221 0 329 -82t108 -266q-1 -184 -115 -323q-128 -155 -445 -155h-231l-43 -307h-31l197 1395h29l-37 -262h239z" />
    <glyph glyph-name="germandbls" unicode="&#xdf;" horiz-adv-x="1171" 
d="M690 843q0 -44 34 -84t82 -78t97 -83t82 -117t33 -154q0 -183 -142 -288q-81 -59 -200 -59t-215 55l12 22q93 -51 189 -51q181 0 254 107t73 199t-34 163q-34 70 -82 114t-96 81q-117 90 -116 176t107 161q45 31 90 65q107 80 107 216q1 86 -61 138t-188 52t-230 -96
q-104 -98 -128 -278l-153 -1098q-27 -180 -85 -260t-190 -141l-10 22q121 59 176 135t80 248l156 1098q25 188 136 293q112 104 249 104t208 -60q71 -59 71 -145t-32 -143t-76 -93t-89 -68t-77 -70t-32 -83z" />
    <glyph glyph-name="agrave" unicode="&#xe0;" horiz-adv-x="1114" 
d="M680 1057q-137 0 -239.5 -64.5t-158.5 -168.5q-110 -203 -110 -439q0 -174 77 -275.5t216 -101.5q211 0 356 256l109 721q-113 72 -250 72zM683.5 1081q146.5 0 274.5 -84l-114 -759q-8 -82 -8 -101q0 -102 77 -133l-8 -22q-66 23 -83 80t-7 153q-66 -113 -157 -173
t-193 -60q-152 0 -237 108.5t-85 292.5q0 241 117 457q59 108 168 174.5t255.5 66.5zM610 1546l326 -182l-12 -18l-330 170z" />
    <glyph glyph-name="aacute" unicode="&#xe1;" horiz-adv-x="1114" 
d="M680 1057q-137 0 -239.5 -64.5t-158.5 -168.5q-110 -203 -110 -439q0 -174 77 -275.5t216 -101.5q211 0 356 256l109 721q-113 72 -250 72zM683.5 1081q146.5 0 274.5 -84l-114 -759q-8 -82 -8 -101q0 -102 77 -133l-8 -22q-66 23 -83 80t-7 153q-66 -113 -157 -173
t-193 -60q-152 0 -237 108.5t-85 292.5q0 241 117 457q59 108 168 174.5t255.5 66.5zM926 1546l10 -30l-379 -170l-8 20z" />
    <glyph glyph-name="acircumflex" unicode="&#xe2;" horiz-adv-x="1114" 
d="M680 1057q-137 0 -239.5 -64.5t-158.5 -168.5q-110 -203 -110 -439q0 -174 77 -275.5t216 -101.5q211 0 356 256l109 721q-113 72 -250 72zM683.5 1081q146.5 0 274.5 -84l-114 -759q-8 -82 -8 -101q0 -102 77 -133l-8 -22q-66 23 -83 80t-7 153q-66 -113 -157 -173
t-193 -60q-152 0 -237 108.5t-85 292.5q0 241 117 457q59 108 168 174.5t255.5 66.5zM500 1343l-17 17l265 186h16l209 -186l-17 -17l-204 173z" />
    <glyph glyph-name="atilde" unicode="&#xe3;" horiz-adv-x="1114" 
d="M680 1057q-137 0 -239.5 -64.5t-158.5 -168.5q-110 -203 -110 -439q0 -174 77 -275.5t216 -101.5q211 0 356 256l109 721q-113 72 -250 72zM683.5 1081q146.5 0 274.5 -84l-114 -759q-8 -82 -8 -101q0 -102 77 -133l-8 -22q-66 23 -83 80t-7 153q-66 -113 -157 -173
t-193 -60q-152 0 -237 108.5t-85 292.5q0 241 117 457q59 108 168 174.5t255.5 66.5zM858 1397q-51 0 -120.5 45t-119.5 45t-124 -74l-15 10q80 84 150 84q41 0 112.5 -44t116.5 -44q68 0 137 82l13 -10q-74 -94 -150 -94z" />
    <glyph glyph-name="adieresis" unicode="&#xe4;" horiz-adv-x="1114" 
d="M680 1057q-137 0 -239.5 -64.5t-158.5 -168.5q-110 -203 -110 -439q0 -174 77 -275.5t216 -101.5q211 0 356 256l109 721q-113 72 -250 72zM683.5 1081q146.5 0 274.5 -84l-114 -759q-8 -82 -8 -101q0 -102 77 -133l-8 -22q-66 23 -83 80t-7 153q-66 -113 -157 -173
t-193 -60q-152 0 -237 108.5t-85 292.5q0 241 117 457q59 108 168 174.5t255.5 66.5zM904 1440q30 0 26 -29t-31 -29q-14 0 -22.5 9.5t-6.5 21.5q4 27 34 27zM575 1440q33 0 29 -29t-32 -29t-26 29t29 29z" />
    <glyph glyph-name="aring" unicode="&#xe5;" horiz-adv-x="1114" 
d="M680 1057q-137 0 -239.5 -64.5t-158.5 -168.5q-110 -203 -110 -439q0 -174 77 -275.5t216 -101.5q211 0 356 256l109 721q-113 72 -250 72zM683.5 1081q146.5 0 274.5 -84l-114 -759q-8 -82 -8 -101q0 -102 77 -133l-8 -22q-66 23 -83 80t-7 153q-66 -113 -157 -173
t-193 -60q-152 0 -237 108.5t-85 292.5q0 241 117 457q59 108 168 174.5t255.5 66.5zM763 1602q-58 0 -95 -38t-41 -94q-8 -117 104 -118q59 0 97 39t42 94t-22.5 86t-84.5 31zM765 1624q69 0 103.5 -38t30.5 -103.5t-51 -109.5t-116 -44t-103.5 38t-30.5 103.5t51 109.5
t116 44z" />
    <glyph glyph-name="ae" unicode="&#xe6;" horiz-adv-x="1710" 
d="M573 584q-225 0 -330.5 -96.5t-105.5 -239.5q0 -109 65.5 -174.5t185.5 -65.5t218.5 60.5t200.5 195.5q-31 138 6 320h-240zM1321.5 1057q-110.5 0 -195 -42t-136.5 -105.5t-102 -175.5t-63 -267q379 20 566.5 117.5t187.5 257.5q0 98 -73.5 156.5t-184 58.5zM597 1081
q130 0 211 -71.5t89 -200.5q33 75 103 143q134 129 315 129q127 0 210 -64.5t83 -172.5q0 -176 -198 -278.5t-587 -123.5q-6 -188 71 -311t244 -123t328 117l15 -23q-166 -121 -338 -120q-260 0 -330 254q-104 -135 -203.5 -194.5t-227.5 -59.5t-202 73.5t-74 192.5
q0 156 114 258t349 102h250q27 102 55 168q-2 135 -77.5 208t-199.5 73t-302 -70l-6 25q178 69 308 69z" />
    <glyph glyph-name="ccedilla" unicode="&#xe7;" horiz-adv-x="954" 
d="M653 1081q162 0 258 -102l-18 -18q-96 96 -246 96q-151 1 -263 -103q-208 -192 -208 -553q0 -190 87 -291.5t238.5 -101.5t280.5 103l17 -21q-135 -109 -295 -108l-27 -144q172 -6 172 -123q0 -61 -49 -102t-128 -41t-132 35l12 22q47 -31 118 -30.5t108.5 33t38.5 84.5
t-38.5 76t-129.5 26l32 164q-154 6 -245 115.5t-91 303.5q1 258 123 458q60 99 160 160.5t225 61.5z" />
    <glyph glyph-name="egrave" unicode="&#xe8;" horiz-adv-x="1060" 
d="M664 1057q-119 0 -212.5 -55.5t-148.5 -145.5q-111 -181 -127 -389q754 41 754 377q0 98 -73.5 155.5t-192.5 57.5zM958 844q0 -358 -784 -402v-47q0 -190 85 -288.5t241 -98.5t317 117l17 -23q-166 -121 -335 -120.5t-262.5 107t-93.5 302t73 363.5q40 92 97.5 163.5
t148.5 117.5t211 46t202.5 -63t82.5 -174zM879 1364l-13 -18l-329 170l16 30z" />
    <glyph glyph-name="eacute" unicode="&#xe9;" horiz-adv-x="1060" 
d="M664 1057q-119 0 -212.5 -55.5t-148.5 -145.5q-111 -181 -127 -389q754 41 754 377q0 98 -73.5 155.5t-192.5 57.5zM958 844q0 -358 -784 -402v-47q0 -190 85 -288.5t241 -98.5t317 117l17 -23q-166 -121 -335 -120.5t-262.5 107t-93.5 302t73 363.5q40 92 97.5 163.5
t148.5 117.5t211 46t202.5 -63t82.5 -174zM881 1516l-379 -170l-8 20l376 180z" />
    <glyph glyph-name="ecircumflex" unicode="&#xea;" horiz-adv-x="1060" 
d="M664 1057q-119 0 -212.5 -55.5t-148.5 -145.5q-111 -181 -127 -389q754 41 754 377q0 98 -73.5 155.5t-192.5 57.5zM958 844q0 -358 -784 -402v-47q0 -190 85 -288.5t241 -98.5t317 117l17 -23q-166 -121 -335 -120.5t-262.5 107t-93.5 302t73 363.5q40 92 97.5 163.5
t148.5 117.5t211 46t202.5 -63t82.5 -174zM696 1516l-252 -173l-16 17l264 186h17l209 -186l-17 -17z" />
    <glyph glyph-name="edieresis" unicode="&#xeb;" horiz-adv-x="1060" 
d="M664 1057q-119 0 -212.5 -55.5t-148.5 -145.5q-111 -181 -127 -389q754 41 754 377q0 98 -73.5 155.5t-192.5 57.5zM958 844q0 -358 -784 -402v-47q0 -190 85 -288.5t241 -98.5t317 117l17 -23q-166 -121 -335 -120.5t-262.5 107t-93.5 302t73 363.5q40 92 97.5 163.5
t148.5 117.5t211 46t202.5 -63t82.5 -174zM844 1382q-14 0 -22.5 9.5t-6.5 21.5q4 27 34 27t25 -31q-3 -27 -30 -27zM520 1440q33 0 29 -29t-32 -29t-28 31q4 27 31 27z" />
    <glyph glyph-name="igrave" unicode="&#xec;" horiz-adv-x="522" 
d="M350 1061l-149 -1061h-29l150 1061h28zM256 1546l326 -182l-13 -18l-329 170z" />
    <glyph glyph-name="iacute" unicode="&#xed;" horiz-adv-x="522" 
d="M350 1061l-149 -1061h-29l150 1061h28zM573 1546l11 -30l-379 -170l-8 20z" />
    <glyph glyph-name="icircumflex" unicode="&#xee;" horiz-adv-x="522" 
d="M350 1061l-149 -1061h-29l150 1061h28zM147 1343l-16 17l264 186h17l209 -186l-17 -17l-205 173z" />
    <glyph glyph-name="idieresis" unicode="&#xef;" horiz-adv-x="522" 
d="M350 1061l-149 -1061h-29l150 1061h28zM552 1440q30 0 26 -29t-31 -29q-14 0 -22.5 9.5t-6.5 21.5q4 27 34 27zM223 1440q33 0 29 -29t-32 -29t-26 29t29 29z" />
    <glyph glyph-name="eth" unicode="&#xf0;" horiz-adv-x="1116" 
d="M469 8q352 0 451 572q10 59 14 108q-131 225 -344 225q-111 0 -197 -53t-132 -139q-93 -174 -93 -351.5t78 -269.5t223 -92zM469 -18q-160 0 -246 100t-86 287q-1 187 101 369q50 91 141.5 147.5t208.5 56.5q221 0 350 -221q12 205 -36 360.5t-185 268.5l-199 -183
l-22 11l202 186q-111 82 -264 119l8 24q156 -37 277 -127l151 142l19 -17l-152 -139q233 -188 234 -545q0 -96 -15 -190q-45 -328 -171 -488.5t-316 -160.5z" />
    <glyph glyph-name="ntilde" unicode="&#xf1;" horiz-adv-x="1189" 
d="M756 1081q133 0 192.5 -86t36.5 -241l-106 -754h-29l106 754q41 303 -202 303q-133 0 -245 -98.5t-216 -301.5l-92 -657h-29l150 1061h24l-45 -346q189 366 455 366zM844 1397q-49 0 -121 45t-109 45q-61 0 -135 -74l-14 10q80 84 149 84q41 0 113 -44t117 -44
q68 0 137 82l12 -10q-73 -94 -149 -94z" />
    <glyph glyph-name="ograve" unicode="&#xf2;" 
d="M663.5 1057q-141.5 0 -238.5 -65.5t-149 -169.5q-102 -202 -102 -406.5t85 -306t225.5 -101.5t237.5 66q98 66 150 170q102 202 101.5 407t-84.5 305.5t-225.5 100.5zM666.5 1081q150.5 0 242.5 -106.5t92 -319.5t-107 -427q-54 -108 -157.5 -177t-255 -69t-244 108.5
t-92.5 323.5q0 214 110 426q56 108 158.5 174.5t253 66.5zM569 1546l326 -182l-12 -18l-330 170z" />
    <glyph glyph-name="oacute" unicode="&#xf3;" 
d="M663.5 1057q-141.5 0 -238.5 -65.5t-149 -169.5q-102 -202 -102 -406.5t85 -306t225.5 -101.5t237.5 66q98 66 150 170q102 202 101.5 407t-84.5 305.5t-225.5 100.5zM666.5 1081q150.5 0 242.5 -106.5t92 -319.5t-107 -427q-54 -108 -157.5 -177t-255 -69t-244 108.5
t-92.5 323.5q0 214 110 426q56 108 158.5 174.5t253 66.5zM887 1546l10 -30l-379 -170l-8 20z" />
    <glyph glyph-name="ocircumflex" unicode="&#xf4;" 
d="M663.5 1057q-141.5 0 -238.5 -65.5t-149 -169.5q-102 -202 -102 -406.5t85 -306t225.5 -101.5t237.5 66q98 66 150 170q102 202 101.5 407t-84.5 305.5t-225.5 100.5zM666.5 1081q150.5 0 242.5 -106.5t92 -319.5t-107 -427q-54 -108 -157.5 -177t-255 -69t-244 108.5
t-92.5 323.5q0 214 110 426q56 108 158.5 174.5t253 66.5zM461 1343l-17 17l265 186h16l209 -186l-16 -17l-205 173z" />
    <glyph glyph-name="otilde" unicode="&#xf5;" 
d="M663.5 1057q-141.5 0 -238.5 -65.5t-149 -169.5q-102 -202 -102 -406.5t85 -306t225.5 -101.5t237.5 66q98 66 150 170q102 202 101.5 407t-84.5 305.5t-225.5 100.5zM666.5 1081q150.5 0 242.5 -106.5t92 -319.5t-107 -427q-54 -108 -157.5 -177t-255 -69t-244 108.5
t-92.5 323.5q0 214 110 426q56 108 158.5 174.5t253 66.5zM817 1397q-51 0 -120.5 45t-119.5 45t-124 -74l-15 10q80 84 150 84q41 0 112.5 -44t116.5 -44q68 0 137 82l13 -10q-74 -94 -150 -94z" />
    <glyph glyph-name="odieresis" unicode="&#xf6;" 
d="M663.5 1057q-141.5 0 -238.5 -65.5t-149 -169.5q-102 -202 -102 -406.5t85 -306t225.5 -101.5t237.5 66q98 66 150 170q102 202 101.5 407t-84.5 305.5t-225.5 100.5zM666.5 1081q150.5 0 242.5 -106.5t92 -319.5t-107 -427q-54 -108 -157.5 -177t-255 -69t-244 108.5
t-92.5 323.5q0 214 110 426q56 108 158.5 174.5t253 66.5zM865 1440q30 0 26 -29t-31 -29q-14 0 -22.5 9.5t-6.5 21.5q4 27 34 27zM537 1440q33 0 28.5 -29t-32 -29t-27.5 31q4 27 31 27z" />
    <glyph glyph-name="divide" unicode="&#xf7;" horiz-adv-x="987" 
d="M418 258q0 37 35 37t34 -33q-1 -35 -35 -35t-34 31zM184 664l4 28h658l-4 -28h-658zM569 1128q35 0 35 -34t-37 -33q-14 0 -23 9t-9 22q-1 36 34 36z" />
    <glyph glyph-name="oslash" unicode="&#xf8;" 
d="M498 8q127 0 224 66q98 66 150 170q102 202 101.5 442t-158.5 332l-461 -981q64 -29 144 -29zM651 1057q-129 0 -226 -65.5t-149 -169.5q-102 -202 -102 -425q0 -262 160 -350l461 981q-63 29 -144 29zM145 397q0 231 110 443q56 108 158.5 174.5t237.5 66.5
q84 0 154 -28l117 247l24 -6l-117 -254q172 -96 172 -368q0 -230 -107 -444q-54 -108 -157.5 -177t-238.5 -69q-84 0 -154 28l-121 -248l-24 9l120 252q-174 98 -174 374z" />
    <glyph glyph-name="ugrave" unicode="&#xf9;" horiz-adv-x="1177" 
d="M448 -18q-134 0 -199 84t-44 241l106 754h29l-107 -754q-20 -147 37.5 -223t180.5 -76q266 0 432 383l94 670h29l-150 -1061h-22l45 338q-72 -168 -184.5 -262t-246.5 -94zM580 1546l325 -182l-12 -18l-330 170z" />
    <glyph glyph-name="uacute" unicode="&#xfa;" horiz-adv-x="1177" 
d="M448 -18q-134 0 -199 84t-44 241l106 754h29l-107 -754q-20 -147 37.5 -223t180.5 -76q266 0 432 383l94 670h29l-150 -1061h-22l45 338q-72 -168 -184.5 -262t-246.5 -94zM895 1546l10 -30l-379 -170l-8 20z" />
    <glyph glyph-name="ucircumflex" unicode="&#xfb;" horiz-adv-x="1177" 
d="M448 -18q-134 0 -199 84t-44 241l106 754h29l-107 -754q-20 -147 37.5 -223t180.5 -76q266 0 432 383l94 670h29l-150 -1061h-22l45 338q-72 -168 -184.5 -262t-246.5 -94zM469 1343l-16 17l264 186h16l209 -186l-16 -17l-205 173z" />
    <glyph glyph-name="udieresis" unicode="&#xfc;" horiz-adv-x="1177" 
d="M448 -18q-134 0 -199 84t-44 241l106 754h29l-107 -754q-20 -147 37.5 -223t180.5 -76q266 0 432 383l94 670h29l-150 -1061h-22l45 338q-72 -168 -184.5 -262t-246.5 -94zM873 1440q30 0 26 -29t-31 -29q-14 0 -22 9.5t-6 21.5q3 27 33 27zM545 1440q33 0 28.5 -29
t-32 -29t-27.5 31q4 27 31 27z" />
    <glyph glyph-name="yacute" unicode="&#xfd;" horiz-adv-x="901" 
d="M924 1061l-516 -1063q-90 -186 -171 -267t-243 -124l-4 22q156 45 228.5 119t160.5 252h-14l-238 1061h31l231 -1041l502 1041h33zM756 1546l10 -30l-379 -170l-8 20z" />
    <glyph glyph-name="thorn" unicode="&#xfe;" horiz-adv-x="1161" 
d="M486.5 8q119.5 0 203.5 47q150 84 220.5 271t70.5 370q0 358 -279 359q-115 0 -202.5 -52.5t-180.5 -156.5l-108 -776q156 -62 275.5 -62zM702 1081q150 0 229 -99t79 -312.5t-110 -433.5q-56 -112 -159.5 -183t-244.5 -71t-289 63l-62 -438l-28 -4l266 1896l29 2
l-86 -618q165 198 376 198z" />
    <glyph glyph-name="ydieresis" unicode="&#xff;" horiz-adv-x="901" 
d="M924 1061l-516 -1063q-90 -186 -171 -267t-243 -124l-4 22q156 45 228.5 119t160.5 252h-14l-238 1061h31l231 -1041l502 1041h33zM734 1440q30 0 26 -29t-31 -29q-14 0 -22.5 9.5t-6.5 21.5q4 27 34 27zM406 1440q33 0 28.5 -29t-32.5 -29t-27 31q4 27 31 27z" />
    <glyph glyph-name="Amacron" unicode="&#x100;" horiz-adv-x="1140" 
d="M240 453h639l-191 915zM973 0l-88 424h-660l-207 -424h-30l686 1395h35l295 -1395h-31zM938 1692l-4 -29h-410l4 29h410z" />
    <glyph glyph-name="amacron" unicode="&#x101;" horiz-adv-x="1114" 
d="M680 1057q-137 0 -239.5 -64.5t-158.5 -168.5q-110 -203 -110 -439q0 -174 77 -275.5t216 -101.5q211 0 356 256l109 721q-113 72 -250 72zM683.5 1081q146.5 0 274.5 -84l-114 -759q-8 -82 -8 -101q0 -102 77 -133l-8 -22q-66 23 -83 80t-7 153q-66 -113 -157 -173
t-193 -60q-152 0 -237 108.5t-85 292.5q0 241 117 457q59 108 168 174.5t255.5 66.5zM942 1405h-410l5 29h409z" />
    <glyph glyph-name="Abreve" unicode="&#x102;" horiz-adv-x="1140" 
d="M240 453h639l-191 915zM973 0l-88 424h-660l-207 -424h-30l686 1395h35l295 -1395h-31zM710 1583q-79 0 -130.5 41t-61.5 102h19q12 -51 56 -84.5t118 -33.5q150 0 209 121l18 -5q-27 -61 -88 -101t-140 -40z" />
    <glyph glyph-name="abreve" unicode="&#x103;" horiz-adv-x="1114" 
d="M680 1057q-137 0 -239.5 -64.5t-158.5 -168.5q-110 -203 -110 -439q0 -174 77 -275.5t216 -101.5q211 0 356 256l109 721q-113 72 -250 72zM683.5 1081q146.5 0 274.5 -84l-114 -759q-8 -82 -8 -101q0 -102 77 -133l-8 -22q-66 23 -83 80t-7 153q-66 -113 -157 -173
t-193 -60q-152 0 -237 108.5t-85 292.5q0 241 117 457q59 108 168 174.5t255.5 66.5zM728 1360q-85 0 -134 46t-55 118l22 4q18 -141 170 -141.5t209 141.5l21 -6q-25 -72 -86.5 -117t-146.5 -45z" />
    <glyph glyph-name="Aogonek" unicode="&#x104;" horiz-adv-x="1140" 
d="M240 453h639l-191 915zM702 -262q0 -117 134 -117q47 0 110 14l-6 -28q-162 -38 -228 21q-40 36 -40 100q0 96 77.5 160.5t221.5 119.5l-86 416h-660l-207 -424h-30l686 1395h35l295 -1393v-2q-150 -59 -226 -119.5t-76 -142.5z" />
    <glyph glyph-name="aogonek" unicode="&#x105;" horiz-adv-x="1114" 
d="M465 8q211 0 356 256l109 721q-113 72 -250 72t-239.5 -64.5t-158.5 -168.5q-110 -203 -110 -439q0 -174 77 -275.5t216 -101.5zM836 137q0 -102 77 -133l-8 -22h-2q-150 -59 -224.5 -120t-74.5 -143q0 -117 133 -116q47 0 111 14l-6 -29q-59 -14 -123 -14t-105 36
t-41 99q0 98 81 164t227 119q-84 45 -66 223q-66 -113 -157 -173t-193 -60q-152 0 -237 108.5t-85 292.5q0 241 117 457q59 108 168 174.5t255.5 66.5t274.5 -84l-114 -759q-8 -83 -8 -101z" />
    <glyph glyph-name="Cacute" unicode="&#x106;" horiz-adv-x="1095" 
d="M825 1415q180 0 308 -119l-19 -22q-59 57 -123.5 84.5t-181.5 27.5t-226.5 -57t-177 -146t-114.5 -207q-84 -211 -84 -456.5t112.5 -377.5t301 -132t346.5 119l18 -23q-164 -125 -365.5 -124.5t-322.5 141.5t-121 396t90 475q49 120 121 212t185.5 150.5t252.5 58.5z
M1040 1749l11 -31l-375 -147l-8 20z" />
    <glyph glyph-name="cacute" unicode="&#x107;" horiz-adv-x="954" 
d="M653 1081q162 0 258 -102l-18 -18q-96 96 -246 96q-151 1 -263 -103q-208 -192 -208 -553q0 -190 87 -291.5t238.5 -101.5t280.5 103l17 -21q-135 -109 -298 -108.5t-259.5 110t-96.5 309.5q1 258 123 458q60 99 160 160.5t225 61.5zM879 1546l10 -30l-379 -170l-8 20z
" />
    <glyph glyph-name="Ccircumflex" unicode="&#x108;" horiz-adv-x="1095" 
d="M825 1415q180 0 308 -119l-19 -22q-59 57 -123.5 84.5t-181.5 27.5t-226.5 -57t-177 -146t-114.5 -207q-84 -211 -84 -456.5t112.5 -377.5t301 -132t346.5 119l18 -23q-164 -125 -365.5 -124.5t-322.5 141.5t-121 396t90 475q49 120 121 212t185.5 150.5t252.5 58.5z
M1069 1573l-207 160l-250 -160l-14 16l258 176h16l213 -176z" />
    <glyph glyph-name="ccircumflex" unicode="&#x109;" horiz-adv-x="954" 
d="M653 1081q162 0 258 -102l-18 -18q-96 96 -246 96q-151 1 -263 -103q-208 -192 -208 -553q0 -190 87 -291.5t238.5 -101.5t280.5 103l17 -21q-135 -109 -298 -108.5t-259.5 110t-96.5 309.5q1 258 123 458q60 99 160 160.5t225 61.5zM453 1343l-17 17l264 186h17
l209 -186l-17 -17l-204 173z" />
    <glyph glyph-name="Cdotaccent" unicode="&#x10a;" horiz-adv-x="1095" 
d="M825 1415q180 0 308 -119l-19 -22q-59 57 -123.5 84.5t-181.5 27.5t-226.5 -57t-177 -146t-114.5 -207q-84 -211 -84 -456.5t112.5 -377.5t301 -132t346.5 119l18 -23q-164 -125 -365.5 -124.5t-322.5 141.5t-121 396t90 475q49 120 121 212t185.5 150.5t252.5 58.5z
M869 1726q28 0 26 -29.5t-29 -29.5q-33 0 -28 31q3 28 31 28z" />
    <glyph glyph-name="cdotaccent" unicode="&#x10b;" horiz-adv-x="954" 
d="M653 1081q162 0 258 -102l-18 -18q-96 96 -246 96q-151 1 -263 -103q-208 -192 -208 -553q0 -190 87 -291.5t238.5 -101.5t280.5 103l17 -21q-135 -109 -298 -108.5t-259.5 110t-96.5 309.5q1 258 123 458q60 99 160 160.5t225 61.5zM697 1468q28 0 26 -29.5t-29 -29.5
q-33 0 -28 31q3 28 31 28z" />
    <glyph glyph-name="Ccaron" unicode="&#x10c;" horiz-adv-x="1095" 
d="M825 1415q180 0 308 -119l-19 -22q-59 57 -123.5 84.5t-181.5 27.5t-226.5 -57t-177 -146t-114.5 -207q-84 -211 -84 -456.5t112.5 -377.5t301 -132t346.5 119l18 -23q-164 -125 -365.5 -124.5t-322.5 141.5t-121 396t90 475q49 120 121 212t185.5 150.5t252.5 58.5z
M1087 1753l17 -18l-262 -174h-17l-211 174l17 16l207 -160z" />
    <glyph glyph-name="ccaron" unicode="&#x10d;" horiz-adv-x="954" 
d="M653 1081q162 0 258 -102l-18 -18q-96 96 -246 96q-151 1 -263 -103q-208 -192 -208 -553q0 -190 87 -291.5t238.5 -101.5t280.5 103l17 -21q-135 -109 -298 -108.5t-259.5 110t-96.5 309.5q1 258 123 458q60 99 160 160.5t225 61.5zM932 1522l14 -17l-262 -186h-16
l-209 186l16 17l205 -172z" />
    <glyph glyph-name="Dcaron" unicode="&#x10e;" horiz-adv-x="1263" 
d="M608 1366h-205l-186 -1337h215q145 0 263 51t194 135q217 240 217 672q0 230 -98 338t-252 131q-66 10 -148 10zM612 1395q216 1 360 -95q165 -110 165 -401q0 -458 -231 -709q-79 -86 -201.5 -138t-274.5 -52h-248l197 1395h233zM985 1753l16 -18l-262 -174h-16
l-211 174l16 16l207 -160z" />
    <glyph glyph-name="dcaron" unicode="&#x10f;" horiz-adv-x="1171" 
d="M647 1057q-123 0 -218 -66.5t-147 -172.5q-100 -206 -100 -409.5t76 -302t207 -98.5t223 85t180 243l74 520q-86 201 -295 201zM459 -18q-137 0 -221 106.5t-84 296t67 361.5q37 96 91.5 168.5t141.5 119.5t193 47q217 0 299 -188l86 610l29 -4l-211 -1499h-25l37 281
q-78 -137 -172 -218t-231 -81zM1272 1509l31 -4l-89 -288l-20 2z" />
    <glyph glyph-name="Dcroat" unicode="&#x110;" horiz-adv-x="1245" 
d="M416 29q145 0 263 51q117 51 193 135q218 242 218 672q0 324 -218 427q-110 52 -282 52h-203l-88 -629h401l-2 -28h-403l-96 -680h217zM596 1395q522 0 522 -508q0 -276 -97 -494q-52 -117 -131 -203t-202 -138t-276 -52h-246l98 709h-182l4 28h182l92 658h236z" />
    <glyph glyph-name="dcroat" unicode="&#x111;" horiz-adv-x="1179" 
d="M647 1057q-123 0 -218 -66.5t-147 -172.5q-100 -206 -100 -409.5t76 -302t207 -98.5t223 85t180 243l74 520q-86 201 -295 201zM459 -18q-137 0 -221 106.5t-84 296t67 361.5q37 96 91.5 168.5t141.5 119.5t193 47q217 0 299 -188l58 401h-359v27h363l24 182l29 -4
l-25 -178h152l-4 -27h-152l-182 -1294h-25l37 281q-78 -137 -172 -218t-231 -81z" />
    <glyph glyph-name="Emacron" unicode="&#x112;" horiz-adv-x="1011" 
d="M1022 1395l-6 -29h-613l-84 -614h525l-4 -27h-525l-98 -696h631l-4 -29h-662l197 1395h643zM948 1663h-409l4 29h409z" />
    <glyph glyph-name="emacron" unicode="&#x113;" horiz-adv-x="1060" 
d="M664 1057q-119 0 -212.5 -55.5t-148.5 -145.5q-111 -181 -127 -389q754 41 754 377q0 98 -73.5 155.5t-192.5 57.5zM958 844q0 -358 -784 -402v-47q0 -190 85 -288.5t241 -98.5t317 117l17 -23q-166 -121 -335 -120.5t-262.5 107t-93.5 302t73 363.5q40 92 97.5 163.5
t148.5 117.5t211 46t202.5 -63t82.5 -174zM889 1434l-4 -29h-410l4 29h410z" />
    <glyph glyph-name="Ebreve" unicode="&#x114;" horiz-adv-x="1011" 
d="M1022 1395l-6 -29h-613l-84 -614h525l-4 -27h-525l-98 -696h631l-4 -29h-662l197 1395h643zM726 1583q-79 0 -130 41t-61 102h18q12 -51 56 -84.5t118 -33.5q150 0 209 121l18 -5q-27 -61 -88 -101t-140 -40z" />
    <glyph glyph-name="ebreve" unicode="&#x115;" horiz-adv-x="1060" 
d="M664 1057q-119 0 -212.5 -55.5t-148.5 -145.5q-111 -181 -127 -389q754 41 754 377q0 98 -73.5 155.5t-192.5 57.5zM958 844q0 -358 -784 -402v-47q0 -190 85 -288.5t241 -98.5t317 117l17 -23q-166 -121 -335 -120.5t-262.5 107t-93.5 302t73 363.5q40 92 97.5 163.5
t148.5 117.5t211 46t202.5 -63t82.5 -174zM671 1360q-85 0 -134.5 46t-55.5 118l23 4q18 -141 170 -141.5t209 141.5l20 -6q-25 -72 -86 -117t-146 -45z" />
    <glyph glyph-name="Edotaccent" unicode="&#x116;" horiz-adv-x="1011" 
d="M1022 1395l-6 -29h-613l-84 -614h525l-4 -27h-525l-98 -696h631l-4 -29h-662l197 1395h643zM750 1667q-33 0 -29 29.5t32 29.5t25.5 -29.5t-28.5 -29.5z" />
    <glyph glyph-name="edotaccent" unicode="&#x117;" horiz-adv-x="1060" 
d="M664 1057q-119 0 -212.5 -55.5t-148.5 -145.5q-111 -181 -127 -389q754 41 754 377q0 98 -73.5 155.5t-192.5 57.5zM958 844q0 -358 -784 -402v-47q0 -190 85 -288.5t241 -98.5t317 117l17 -23q-166 -121 -335 -120.5t-262.5 107t-93.5 302t73 363.5q40 92 97.5 163.5
t148.5 117.5t211 46t202.5 -63t82.5 -174zM686 1409q-33 0 -29 30t31 29q29 0 27 -29.5t-29 -29.5z" />
    <glyph glyph-name="Eogonek" unicode="&#x118;" horiz-adv-x="1011" 
d="M485 -262q0 -117 133 -117q47 0 111 14l-6 -28q-161 -38 -227 21q-40 36 -41 100q0 94 73.5 156.5t206.5 115.5h-553l197 1395h643l-6 -29h-613l-84 -614h525l-4 -27h-525l-98 -696h631l-4 -29h-58q-150 -59 -225.5 -119.5t-75.5 -142.5z" />
    <glyph glyph-name="eogonek" unicode="&#x119;" horiz-adv-x="1060" 
d="M664 1057q-119 0 -212.5 -55.5t-148.5 -145.5q-111 -181 -127 -389q754 41 754 377q0 98 -73.5 155.5t-192.5 57.5zM958 844q0 -358 -784 -402v-47q0 -190 85 -288.5t241 -98.5t317 117l17 -23q-96 -68 -181 -98q-111 -49 -174 -102.5t-63 -123.5q0 -140 151 -140
q45 0 109 14l-4 -29q-59 -14 -127 -14t-114 43t-46 117q0 125 182 217q-23 -4 -71 -4q-166 0 -259.5 106.5t-93.5 302t73 363.5q40 92 97.5 163.5t148.5 117.5t211 46t202.5 -63t82.5 -174z" />
    <glyph glyph-name="Ecaron" unicode="&#x11a;" horiz-adv-x="1011" 
d="M1022 1395l-6 -29h-613l-84 -614h525l-4 -27h-525l-98 -696h631l-4 -29h-662l197 1395h643zM971 1753l16 -18l-262 -174h-16l-211 174l16 16l207 -160z" />
    <glyph glyph-name="ecaron" unicode="&#x11b;" horiz-adv-x="1060" 
d="M664 1057q-119 0 -212.5 -55.5t-148.5 -145.5q-111 -181 -127 -389q754 41 754 377q0 98 -73.5 155.5t-192.5 57.5zM958 844q0 -358 -784 -402v-47q0 -190 85 -288.5t241 -98.5t317 117l17 -23q-166 -121 -335 -120.5t-262.5 107t-93.5 302t73 363.5q40 92 97.5 163.5
t148.5 117.5t211 46t202.5 -63t82.5 -174zM678 1319h-16l-209 186l16 17l205 -172l252 172l14 -17z" />
    <glyph glyph-name="Gcircumflex" unicode="&#x11c;" horiz-adv-x="1234" 
d="M839 1415q170 0 314 -119l-20 -20q-129 111 -293.5 110.5t-287 -79t-196.5 -205.5q-150 -258 -149 -576q0 -252 116.5 -385t325.5 -133q168 0 340 90l84 590h-301l-2 27h336l-88 -633q-186 -100 -369 -100q-223 0 -348 140t-125 406q0 328 160 595q78 130 205.5 211
t297.5 81zM1069 1573l-207 160l-250 -160l-14 16l258 176h16l213 -176z" />
    <glyph glyph-name="gcircumflex" unicode="&#x11d;" horiz-adv-x="1130" 
d="M681 1057q-136 0 -238.5 -62.5t-158.5 -162.5q-108 -196 -108 -426q0 -172 77 -275.5t214 -103.5q217 0 362 264l101 694q-113 72 -249 72zM697.5 1081q134.5 0 263.5 -84l-148 -1011q-55 -383 -383 -383q-184 0 -332 94l13 22q147 -92 319 -92q301 0 354 355l37 260
q-135 -242 -354 -242q-150 0 -235 111.5t-86 300.5t73 353q41 91 99.5 159.5t151.5 112.5t227.5 44zM457 1343l-17 17l265 186h16l209 -186l-17 -17l-204 173z" />
    <glyph glyph-name="Gbreve" unicode="&#x11e;" horiz-adv-x="1234" 
d="M839 1415q170 0 314 -119l-20 -20q-129 111 -293.5 110.5t-287 -79t-196.5 -205.5q-150 -258 -149 -576q0 -252 116.5 -385t325.5 -133q168 0 340 90l84 590h-301l-2 27h336l-88 -633q-186 -100 -369 -100q-223 0 -348 140t-125 406q0 328 160 595q78 130 205.5 211
t297.5 81zM841 1583q-79 0 -130.5 41t-61.5 102h19q12 -51 56 -84.5t118 -33.5q150 0 209 121l18 -5q-27 -61 -88 -101t-140 -40z" />
    <glyph glyph-name="gbreve" unicode="&#x11f;" horiz-adv-x="1130" 
d="M681 1057q-136 0 -238.5 -62.5t-158.5 -162.5q-108 -196 -108 -426q0 -172 77 -275.5t214 -103.5q217 0 362 264l101 694q-113 72 -249 72zM697.5 1081q134.5 0 263.5 -84l-148 -1011q-55 -383 -383 -383q-184 0 -332 94l13 22q147 -92 319 -92q301 0 354 355l37 260
q-135 -242 -354 -242q-150 0 -235 111.5t-86 300.5t73 353q41 91 99.5 159.5t151.5 112.5t227.5 44zM685 1360q-85 0 -134 46t-55 118l22 4q18 -141 170 -141.5t209 141.5l21 -6q-25 -72 -86.5 -117t-146.5 -45z" />
    <glyph glyph-name="Gdotaccent" unicode="&#x120;" horiz-adv-x="1234" 
d="M839 1415q170 0 314 -119l-20 -20q-129 111 -293.5 110.5t-287 -79t-196.5 -205.5q-150 -258 -149 -576q0 -252 116.5 -385t325.5 -133q168 0 340 90l84 590h-301l-2 27h336l-88 -633q-186 -100 -369 -100q-223 0 -348 140t-125 406q0 328 160 595q78 130 205.5 211
t297.5 81zM869 1726q28 0 26 -29.5t-29 -29.5q-33 0 -28 31q3 28 31 28z" />
    <glyph glyph-name="gdotaccent" unicode="&#x121;" horiz-adv-x="1130" 
d="M681 1057q-136 0 -238.5 -62.5t-158.5 -162.5q-108 -196 -108 -426q0 -172 77 -275.5t214 -103.5q217 0 362 264l101 694q-113 72 -249 72zM697.5 1081q134.5 0 263.5 -84l-148 -1011q-55 -383 -383 -383q-184 0 -332 94l13 22q147 -92 319 -92q301 0 354 355l37 260
q-135 -242 -354 -242q-150 0 -235 111.5t-86 300.5t73 353q41 91 99.5 159.5t151.5 112.5t227.5 44zM703 1468q28 0 26 -29.5t-29 -29.5q-33 0 -28 31q3 28 31 28z" />
    <glyph glyph-name="Gcommaaccent" unicode="&#x122;" horiz-adv-x="1234" 
d="M586 -205q35 0 35 -31q0 -18 -27 -65l-92 -211h-21l92 242q-23 10 -22 28q0 37 35 37zM839 1415q170 0 314 -119l-20 -20q-129 111 -293.5 110.5t-287 -79t-196.5 -205.5q-150 -258 -149 -576q0 -252 116.5 -385t325.5 -133q168 0 340 90l84 590h-301l-2 27h336l-88 -633
q-186 -100 -369 -100q-223 0 -348 140t-125 406q0 328 160 595q78 130 205.5 211t297.5 81z" />
    <glyph glyph-name="gcommaaccent" unicode="&#x123;" horiz-adv-x="1130" 
d="M681 1057q-136 0 -238.5 -62.5t-158.5 -162.5q-108 -196 -108 -426q0 -172 77 -275.5t214 -103.5q217 0 362 264l101 694q-113 72 -249 72zM697.5 1081q134.5 0 263.5 -84l-148 -1011q-55 -383 -383 -383q-184 0 -332 94l13 22q147 -92 319 -92q301 0 354 355l37 260
q-135 -242 -354 -242q-150 0 -235 111.5t-86 300.5t73 353q41 91 99.5 159.5t151.5 112.5t227.5 44zM711 1255q0 -36 -35 -36t-35 30q0 18 27 66l92 211h20l-92 -242q23 -10 23 -29z" />
    <glyph glyph-name="Hcircumflex" unicode="&#x124;" horiz-adv-x="1345" 
d="M985 0l102 729h-772l-102 -729h-31l197 1395h29l-89 -637h773l88 637h30l-196 -1395h-29zM1038 1573l-207 160l-249 -160l-15 16l258 176h17l213 -176z" />
    <glyph glyph-name="hcircumflex" unicode="&#x125;" horiz-adv-x="1189" 
d="M752 1081q279 0 233 -327l-106 -754h-29l106 754q41 303 -206 303q-131 0 -242 -98.5t-215 -301.5l-92 -657h-29l211 1499l29 4l-111 -788q189 366 451 366zM942 1673l-207 160l-250 -160l-14 17l258 176h16l213 -176z" />
    <glyph glyph-name="Hbar" unicode="&#x126;" horiz-adv-x="1353" 
d="M1100 758l43 313h-772l-43 -313h772zM1288 1094l-4 -23h-110l-152 -1071h-29l103 729h-772l-103 -729h-31l152 1071h-117l4 23h115l43 301h29l-41 -301h772l41 301h31l-43 -301h112z" />
    <glyph glyph-name="hbar" unicode="&#x127;" horiz-adv-x="1193" 
d="M756 1081q279 0 233 -327l-106 -754h-29l107 754q41 303 -209 303t-453 -400l-94 -657h-29l182 1294h-149l4 27h149l25 178l29 4l-25 -182h387l-8 -27h-383l-80 -579q185 366 449 366z" />
    <glyph glyph-name="Itilde" unicode="&#x128;" horiz-adv-x="544" 
d="M408 1395l-195 -1395h-31l197 1395h29zM555 1655q-53 0 -123 45t-108 45t-66.5 -16.5t-69.5 -57.5l-14 10q80 84 152 84q37 0 108.5 -44t129.5 -44t126 82l12 -10q-73 -94 -147 -94z" />
    <glyph glyph-name="itilde" unicode="&#x129;" horiz-adv-x="522" 
d="M350 1061l-149 -1061h-29l150 1061h28zM506 1397q-49 0 -120 45t-121 45t-124 -74l-14 10q80 84 149 84q41 0 113 -44t117 -44q68 0 137 82l12 -10q-73 -94 -149 -94z" />
    <glyph glyph-name="Imacron" unicode="&#x12a;" horiz-adv-x="544" 
d="M408 1395l-195 -1395h-31l197 1395h29zM637 1663h-410l4 29h410z" />
    <glyph glyph-name="imacron" unicode="&#x12b;" horiz-adv-x="522" 
d="M350 1061l-149 -1061h-29l150 1061h28zM590 1405h-410l4 29h410z" />
    <glyph glyph-name="Ibreve" unicode="&#x12c;" horiz-adv-x="544" 
d="M408 1395l-195 -1395h-31l197 1395h29zM413 1583q-79 0 -130.5 41t-61.5 102h19q12 -51 56 -84.5t118 -33.5q150 0 209 121l18 -5q-27 -61 -88 -101t-140 -40z" />
    <glyph glyph-name="ibreve" unicode="&#x12d;" horiz-adv-x="522" 
d="M350 1061l-149 -1061h-29l150 1061h28zM374 1360q-85 0 -134.5 46t-55.5 118l23 4q18 -141 170 -141.5t209 141.5l20 -6q-25 -72 -86 -117t-146 -45z" />
    <glyph glyph-name="Iogonek" unicode="&#x12e;" horiz-adv-x="544" 
d="M-98 -262q0 -117 133 -117q47 0 110 14l-6 -28q-160 -38 -227 21q-41 36 -41 100q0 98 82 163.5t231 120.5l195 1383h29l-195 -1395h-10q-150 -59 -225.5 -119.5t-75.5 -142.5z" />
    <glyph glyph-name="iogonek" unicode="&#x12f;" horiz-adv-x="522" 
d="M-109 -262q0 -117 134 -117q47 0 110 14l-6 -28q-161 -38 -227 21q-40 36 -41 100q0 100 83 165.5t230 118.5l148 1049h28l-149 -1061h-8q-150 -59 -226 -119.5t-76 -142.5zM389 1409q-33 0 -29 29.5t32 29.5t26 -29.5t-29 -29.5z" />
    <glyph glyph-name="Idotaccent" unicode="&#x130;" horiz-adv-x="544" 
d="M408 1395l-195 -1395h-31l197 1395h29zM441 1726q28 0 26 -29.5t-29 -29.5q-33 0 -28 31q3 28 31 28z" />
    <glyph glyph-name="dotlessi" unicode="&#x131;" horiz-adv-x="522" 
d="M350 1061l-149 -1061h-29l150 1061h28z" />
    <glyph glyph-name="IJ" unicode="&#x132;" horiz-adv-x="1110" 
d="M408 1395l-195 -1395h-31l197 1395h29zM985 1395l-170 -1219q-20 -154 -81.5 -230.5t-227.5 -144.5l-8 25q152 63 210 137t78 217l170 1215h29z" />
    <glyph glyph-name="ij" unicode="&#x133;" horiz-adv-x="1046" 
d="M874 1061l-149 -1053q-25 -182 -83 -261t-189 -142l-11 20q123 61 177.5 137t78.5 248l148 1051h28zM350 1061l-149 -1061h-29l150 1061h28zM914 1468q28 0 26 -29.5t-29 -29.5q-33 0 -28 31q3 28 31 28zM389 1409q-33 0 -29 29.5t32 29.5t26 -29.5t-29 -29.5z" />
    <glyph glyph-name="Jcircumflex" unicode="&#x134;" horiz-adv-x="565" 
d="M440 1395l-170 -1219q-20 -154 -81.5 -230.5t-227.5 -144.5l-8 25q152 63 210 137t79 217l170 1215h28zM672 1573l-207 160l-250 -160l-14 16l258 176h16l213 -176z" />
    <glyph glyph-name="jcircumflex" unicode="&#x135;" horiz-adv-x="524" 
d="M352 1061l-149 -1053q-25 -182 -83.5 -261t-189.5 -142l-10 20q123 61 177.5 137t78.5 248l148 1051h28zM147 1343l-16 17l264 186h17l209 -186l-17 -17l-205 173z" />
    <glyph glyph-name="Kcommaaccent" unicode="&#x136;" horiz-adv-x="1040" 
d="M490 -205q35 0 34 -31q0 -18 -26 -65l-92 -211h-21l92 242q-23 10 -22 28q0 37 35 37zM1110 1395l-750 -645l588 -750h-37l-587 750l749 645h37zM408 1395l-195 -1393h-31l197 1393h29z" />
    <glyph glyph-name="kcommaaccent" unicode="&#x137;" horiz-adv-x="1038" 
d="M455 -205q35 0 34 -31q0 -18 -26 -65l-92 -211h-21l92 242q-23 10 -22 28q0 37 35 37zM752 1081q102 0 161.5 -56t59.5 -155q0 -254 -379 -376l254 -494h-31l-260 506q385 117 385 362q0 88 -48 138.5t-144 50.5q-260 0 -463 -445l-86 -612h-29l211 1499l29 2l-115 -823
q186 403 455 403z" />
    <glyph glyph-name="kgreenlandic" unicode="&#x138;" horiz-adv-x="933" 
d="M913 1061l-585 -502l489 -559h-35l-491 559l583 502h39zM350 1061l-149 -1061h-29l150 1061h28z" />
    <glyph glyph-name="Lacute" unicode="&#x139;" horiz-adv-x="919" 
d="M408 1395l-191 -1366h590l-8 -29h-617l197 1395h29zM612 1749l11 -31l-375 -147l-8 20z" />
    <glyph glyph-name="lacute" unicode="&#x13a;" horiz-adv-x="565" 
d="M305 8q45 0 84 17l6 -25q-39 -18 -92 -18q-143 0 -119 161l189 1356l28 2l-190 -1360q-16 -133 94 -133zM606 1853l10 -30l-374 -148l-9 21z" />
    <glyph glyph-name="Lcommaaccent" unicode="&#x13b;" horiz-adv-x="919" 
d="M459 -205q35 0 35 -31q0 -18 -27 -65l-92 -211h-21l92 242q-23 10 -22 28q0 37 35 37zM408 1395l-191 -1366h590l-8 -29h-617l197 1395h29z" />
    <glyph glyph-name="lcommaaccent" unicode="&#x13c;" horiz-adv-x="565" 
d="M229 -242q0 37 35 37t35 -31q0 -18 -27 -65l-92 -211h-20l92 242q-23 10 -23 28zM305 8q45 0 84 17l6 -25q-39 -18 -92 -18q-143 0 -119 161l189 1356l28 2l-190 -1360q-16 -133 94 -133z" />
    <glyph glyph-name="Lcaron" unicode="&#x13d;" horiz-adv-x="919" 
d="M408 1395l-191 -1366h590l-8 -29h-617l197 1395h29zM639 1409l31 -4l-88 -289l-21 2z" />
    <glyph glyph-name="lcaron" unicode="&#x13e;" horiz-adv-x="565" 
d="M305 8q45 0 84 17l6 -25q-39 -18 -92 -18q-143 0 -119 161l189 1356l28 2l-190 -1360q-16 -133 94 -133zM612 1509l31 -4l-88 -288l-20 2z" />
    <glyph glyph-name="Ldot" unicode="&#x13f;" horiz-adv-x="919" 
d="M746 756q28 0 28 -31q-4 -29 -31 -29q-33 0 -28 31q3 29 31 29zM408 1395l-191 -1366h590l-8 -29h-617l197 1395h29z" />
    <glyph glyph-name="ldot" unicode="&#x140;" horiz-adv-x="569" 
d="M561 737q-33 0 -29 30t32 30t28 -31q-4 -29 -31 -29zM305 8q45 0 84 17l6 -25q-39 -18 -92 -18q-143 0 -119 161l189 1356l28 2l-190 -1360q-16 -133 94 -133z" />
    <glyph glyph-name="Lslash" unicode="&#x141;" horiz-adv-x="942" 
d="M829 29l-10 -29h-614l90 643l-166 -94l-10 20l180 103l100 723h31l-100 -705l454 260l11 -20l-467 -268l-90 -633h591z" />
    <glyph glyph-name="lslash" unicode="&#x142;" horiz-adv-x="569" 
d="M305 8q45 0 84 17l6 -25q-39 -18 -92 -18q-143 0 -119 161l82 594l-139 -82l-12 23l155 90l103 731l28 2l-100 -717l246 142l10 -23l-260 -149l-86 -613q-17 -133 94 -133z" />
    <glyph glyph-name="Nacute" unicode="&#x143;" horiz-adv-x="1347" 
d="M1212 1395l-196 -1395h-37l-580 1364q-6 -80 -39 -311l-149 -1053h-29l197 1395h37l579 -1360q25 197 43 330l146 1030h28zM1024 1749l10 -31l-375 -147l-8 20z" />
    <glyph glyph-name="nacute" unicode="&#x144;" horiz-adv-x="1189" 
d="M756 1081q133 0 192.5 -86t36.5 -241l-106 -754h-29l106 754q41 303 -202 303q-133 0 -245 -98.5t-216 -301.5l-92 -657h-29l150 1061h24l-45 -346q189 366 455 366zM911 1546l11 -30l-379 -170l-8 20z" />
    <glyph glyph-name="Ncommaaccent" unicode="&#x145;" horiz-adv-x="1347" 
d="M526 -242q0 37 35 37t35 -31q0 -18 -27 -65l-92 -211h-20l92 242q-23 10 -23 28zM1212 1395l-196 -1395h-37l-580 1364q-6 -80 -39 -311l-149 -1053h-29l197 1395h37l579 -1360q25 197 43 330l146 1030h28z" />
    <glyph glyph-name="ncommaaccent" unicode="&#x146;" horiz-adv-x="1189" 
d="M502 -205q35 0 35 -31q0 -18 -27 -65l-92 -211h-21l92 242q-23 10 -22 28q0 37 35 37zM756 1081q133 0 192.5 -86t36.5 -241l-106 -754h-29l106 754q41 303 -202 303q-133 0 -245 -98.5t-216 -301.5l-92 -657h-29l150 1061h24l-45 -346q189 366 455 366z" />
    <glyph glyph-name="Ncaron" unicode="&#x147;" horiz-adv-x="1347" 
d="M1212 1395l-196 -1395h-37l-580 1364q-6 -80 -39 -311l-149 -1053h-29l197 1395h37l579 -1360q25 197 43 330l146 1030h28zM1071 1753l16 -18l-262 -174h-16l-211 174l16 16l207 -160z" />
    <glyph glyph-name="ncaron" unicode="&#x148;" horiz-adv-x="1189" 
d="M756 1081q133 0 192.5 -86t36.5 -241l-106 -754h-29l106 754q41 303 -202 303q-133 0 -245 -98.5t-216 -301.5l-92 -657h-29l150 1061h24l-45 -346q189 366 455 366zM967 1522l14 -17l-262 -186h-17l-208 186l16 17l205 -172z" />
    <glyph glyph-name="napostrophe" unicode="&#x149;" horiz-adv-x="1310" 
d="M877 1081q135 0 193 -85t36 -242l-107 -754h-28l106 754q41 303 -203 303q-256 0 -458 -400l-92 -657h-29l149 1061h23l-45 -346q189 366 455 366zM328 1505q35 0 34 -30q0 -23 -24 -66l-90 -215h-21l90 246q-25 6 -24 30q0 35 35 35z" />
    <glyph glyph-name="Eng" unicode="&#x14a;" horiz-adv-x="1349" 
d="M766 -399q-90 0 -160 61l17 19q66 -53 144.5 -53.5t129.5 46.5t64 144l26 182h-8l-580 1364q-6 -80 -39 -311l-149 -1053h-29l197 1395h37l579 -1360q25 197 43 330l146 1030h28l-221 -1581q-16 -104 -75.5 -158.5t-149.5 -54.5z" />
    <glyph glyph-name="eng" unicode="&#x14b;" horiz-adv-x="1189" 
d="M756 1081q133 0 192.5 -86t36.5 -241l-133 -940q-14 -104 -73.5 -158.5t-149.5 -54.5t-160 61l16 19q59 -53 148 -54q164 0 190 189l133 938q41 303 -202 303q-133 0 -245 -98.5t-216 -301.5l-92 -657h-29l150 1061h24l-45 -346q189 366 455 366z" />
    <glyph glyph-name="Omacron" unicode="&#x14c;" horiz-adv-x="1409" 
d="M825 1389q-166 0 -291.5 -87.5t-193.5 -224.5q-133 -268 -133 -535.5t111.5 -400.5t310.5 -133q139 0 250.5 59.5t179 149.5t113.5 210q80 210 79.5 454t-112 376t-314.5 132zM827 1415q215 0 335 -140t120 -392q0 -253 -87 -473q-48 -122 -118.5 -216t-187.5 -153
t-260 -59q-213 0 -333 141t-120 389t90 472q49 122 121 216t186.5 154.5t253.5 60.5zM1067 1663h-410l5 29h409z" />
    <glyph glyph-name="omacron" unicode="&#x14d;" 
d="M663.5 1057q-141.5 0 -238.5 -65.5t-149 -169.5q-102 -202 -102 -406.5t85 -306t225.5 -101.5t237.5 66q98 66 150 170q102 202 101.5 407t-84.5 305.5t-225.5 100.5zM666.5 1081q150.5 0 242.5 -106.5t92 -319.5t-107 -427q-54 -108 -157.5 -177t-255 -69t-244 108.5
t-92.5 323.5q0 214 110 426q56 108 158.5 174.5t253 66.5zM901 1405h-409l4 29h409z" />
    <glyph glyph-name="Obreve" unicode="&#x14e;" horiz-adv-x="1409" 
d="M825 1389q-166 0 -291.5 -87.5t-193.5 -224.5q-133 -268 -133 -535.5t111.5 -400.5t310.5 -133q139 0 250.5 59.5t179 149.5t113.5 210q80 210 79.5 454t-112 376t-314.5 132zM827 1415q215 0 335 -140t120 -392q0 -253 -87 -473q-48 -122 -118.5 -216t-187.5 -153
t-260 -59q-213 0 -333 141t-120 389t90 472q49 122 121 216t186.5 154.5t253.5 60.5zM843 1583q-79 0 -130 41t-62 102h19q12 -51 56 -84.5t118 -33.5q150 0 209 121l18 -5q-27 -61 -88 -101t-140 -40z" />
    <glyph glyph-name="obreve" unicode="&#x14f;" 
d="M663.5 1057q-141.5 0 -238.5 -65.5t-149 -169.5q-102 -202 -102 -406.5t85 -306t225.5 -101.5t237.5 66q98 66 150 170q102 202 101.5 407t-84.5 305.5t-225.5 100.5zM666.5 1081q150.5 0 242.5 -106.5t92 -319.5t-107 -427q-54 -108 -157.5 -177t-255 -69t-244 108.5
t-92.5 323.5q0 214 110 426q56 108 158.5 174.5t253 66.5zM687 1360q-85 0 -134 46t-55 118l22 4q18 -141 170 -141.5t209 141.5l21 -6q-25 -72 -86.5 -117t-146.5 -45z" />
    <glyph glyph-name="Ohungarumlaut" unicode="&#x150;" horiz-adv-x="1409" 
d="M825 1389q-166 0 -291.5 -87.5t-193.5 -224.5q-133 -268 -133 -535.5t111.5 -400.5t310.5 -133q139 0 250.5 59.5t179 149.5t113.5 210q80 210 79.5 454t-112 376t-314.5 132zM827 1415q215 0 335 -140t120 -392q0 -253 -87 -473q-48 -122 -118.5 -216t-187.5 -153
t-260 -59q-213 0 -333 141t-120 389t90 472q49 122 121 216t186.5 154.5t253.5 60.5zM895 1870l29 -17l-172 -245l-21 10zM1116 1874l29 -16l-187 -256l-20 10z" />
    <glyph glyph-name="ohungarumlaut" unicode="&#x151;" 
d="M663.5 1057q-141.5 0 -238.5 -65.5t-149 -169.5q-102 -202 -102 -406.5t85 -306t225.5 -101.5t237.5 66q98 66 150 170q102 202 101.5 407t-84.5 305.5t-225.5 100.5zM666.5 1081q150.5 0 242.5 -106.5t92 -319.5t-107 -427q-54 -108 -157.5 -177t-255 -69t-244 108.5
t-92.5 323.5q0 214 110 426q56 108 158.5 174.5t253 66.5zM727 1612l29 -17l-172 -245l-21 10zM948 1616l29 -17l-186 -256l-21 11z" />
    <glyph glyph-name="OE" unicode="&#x152;" horiz-adv-x="1724" 
d="M795 1389q-154 -1 -274 -89q-119 -88 -185 -226q-130 -275 -130.5 -538.5t104 -395.5t288.5 -132q133 0 241.5 62.5t174 159t109.5 218.5q77 213 77 447t-107.5 364t-297.5 130zM1231 889q0 -39 -8 -137h333l-4 -27h-333q-23 -205 -119 -405q-47 -98 -122 -175t-169 -116
h752l-5 -29h-823q-61 -18 -135 -18q-199 0 -311.5 139t-112.5 387t89 474q48 122 118 217t177.5 155.5t236.5 60.5q72 0 137 -20h803l-9 -29h-731q236 -113 236 -477z" />
    <glyph glyph-name="oe" unicode="&#x153;" horiz-adv-x="1869" 
d="M1483.5 1057q-107.5 0 -187.5 -37q-139 -65 -218.5 -221t-92.5 -332q754 41 754 377q0 98 -74 155.5t-181.5 57.5zM484.5 8q140.5 0 237.5 66q98 66 150 170q102 202 101.5 407t-84.5 305.5t-225.5 100.5t-238.5 -65.5t-149 -169.5q-102 -202 -102 -406.5t85 -306
t225.5 -101.5zM1767 844q0 -358 -784 -402v-47q0 -190 85 -288.5t241 -98.5t317 117l14 -23q-166 -121 -330.5 -120.5t-254.5 100.5t-101 289q-57 -172 -169.5 -280.5t-283.5 -108.5t-263.5 108.5t-92.5 323.5q0 214 110 426q56 108 158.5 174.5t237.5 66.5q334 0 350 -399
q57 176 173 287.5t296 111.5q131 0 214 -63t83 -174z" />
    <glyph glyph-name="Racute" unicode="&#x154;" horiz-adv-x="1163" 
d="M631 700q145 0 243.5 62.5t136.5 147.5t38 202t-87.5 185.5t-285.5 68.5h-273l-92 -666h320zM1079 1096q0 -158 -94 -279t-295 -143l299 -674h-33l-297 672h-352l-94 -672h-31l197 1395h295q405 0 405 -299zM932 1718l-375 -147l-8 20l373 158z" />
    <glyph glyph-name="racute" unicode="&#x155;" horiz-adv-x="741" 
d="M678 1081q53 0 96 -14l-8 -25q-39 14 -88 15q-127 0 -215 -88t-164 -285l-98 -684h-29l150 1061h24l-43 -311q68 174 157 252.5t218 78.5zM782 1546l11 -30l-379 -170l-8 20z" />
    <glyph glyph-name="Rcommaaccent" unicode="&#x156;" horiz-adv-x="1163" 
d="M479 -242q0 37 35 37t35 -31q0 -18 -27 -65l-92 -211h-20l92 242q-23 10 -23 28zM631 700q145 0 243.5 62.5t136.5 147.5t38 202t-87.5 185.5t-285.5 68.5h-273l-92 -666h320zM1079 1096q0 -158 -94 -279t-295 -143l299 -674h-33l-297 672h-352l-94 -672h-31l197 1395
h295q405 0 405 -299z" />
    <glyph glyph-name="rcommaaccent" unicode="&#x157;" horiz-adv-x="741" 
d="M127 -242q0 37 35 37t35 -31q0 -18 -27 -65l-92 -211h-21l93 242q-23 10 -23 28zM678 1081q53 0 96 -14l-8 -25q-39 14 -88 15q-127 0 -215 -88t-164 -285l-98 -684h-29l150 1061h24l-43 -311q68 174 157 252.5t218 78.5z" />
    <glyph glyph-name="Rcaron" unicode="&#x158;" horiz-adv-x="1163" 
d="M631 700q145 0 243.5 62.5t136.5 147.5t38 202t-87.5 185.5t-285.5 68.5h-273l-92 -666h320zM1079 1096q0 -158 -94 -279t-295 -143l299 -674h-33l-297 672h-352l-94 -672h-31l197 1395h295q405 0 405 -299zM725 1561h-16l-211 174l16 16l207 -160l250 162l16 -18z" />
    <glyph glyph-name="rcaron" unicode="&#x159;" horiz-adv-x="741" 
d="M678 1081q53 0 96 -14l-8 -25q-39 14 -88 15q-127 0 -215 -88t-164 -285l-98 -684h-29l150 1061h24l-43 -311q68 174 157 252.5t218 78.5zM838 1522l14 -17l-262 -186h-17l-208 186l16 17l205 -172z" />
    <glyph glyph-name="Sacute" unicode="&#x15a;" horiz-adv-x="1099" 
d="M665 1415q206 0 345 -139l-21 -19q-127 131 -318 131.5t-293 -96t-102 -217.5t69 -184.5t246 -121.5t259 -140t82 -221q0 -226 -203 -354q-113 -72 -274 -72q-231 0 -389 163l20 21q74 -78 158 -118t207 -40t214 39t140 101q98 125 98 257t-75.5 206.5t-253.5 132.5
t-253 129t-75 199t106.5 235.5t312.5 107.5zM893 1749l10 -31l-375 -147l-8 20z" />
    <glyph glyph-name="sacute" unicode="&#x15b;" horiz-adv-x="940" 
d="M548.5 1081q163.5 0 280.5 -108l-18 -17q-115 98 -265.5 98.5t-238.5 -64t-88 -161t57.5 -150.5t212 -103t219 -114t64.5 -187.5t-101.5 -207.5t-291 -85t-330.5 135l19 18q137 -127 327 -127q152 0 250 73t98 208q0 98 -59 156.5t-215 108.5t-217.5 109.5t-61.5 166
t97.5 179t261 72.5zM786 1546l11 -30l-379 -170l-8 20z" />
    <glyph glyph-name="Scircumflex" unicode="&#x15c;" horiz-adv-x="1099" 
d="M665 1415q206 0 345 -139l-21 -19q-127 131 -318 131.5t-293 -96t-102 -217.5t69 -184.5t246 -121.5t259 -140t82 -221q0 -226 -203 -354q-113 -72 -274 -72q-231 0 -389 163l20 21q74 -78 158 -118t207 -40t214 39t140 101q98 125 98 257t-75.5 206.5t-253.5 132.5
t-253 129t-75 199t106.5 235.5t312.5 107.5zM922 1573l-207 160l-250 -160l-14 16l258 176h16l213 -176z" />
    <glyph glyph-name="scircumflex" unicode="&#x15d;" horiz-adv-x="940" 
d="M548.5 1081q163.5 0 280.5 -108l-18 -17q-115 98 -265.5 98.5t-238.5 -64t-88 -161t57.5 -150.5t212 -103t219 -114t64.5 -187.5t-101.5 -207.5t-291 -85t-330.5 135l19 18q137 -127 327 -127q152 0 250 73t98 208q0 98 -59 156.5t-215 108.5t-217.5 109.5t-61.5 166
t97.5 179t261 72.5zM360 1343l-16 17l264 186h17l209 -186l-17 -17l-205 173z" />
    <glyph glyph-name="Scedilla" unicode="&#x15e;" horiz-adv-x="1099" 
d="M665 1415q206 0 345 -139l-21 -19q-127 131 -318 131.5t-293 -96t-102 -217.5t69 -184.5t246 -121.5t259 -140t82 -224.5t-106 -272.5q-54 -66 -148 -107t-213 -43l-27 -142q172 -6 172 -123q0 -61 -49 -102t-129 -41t-131 35l12 22q47 -31 118 -30.5t109 33t39 84.5
t-39 76t-130 26l32 162q-225 2 -376 163l20 21q74 -78 158 -118t207 -40t214 39t140 101q98 125 98 257t-75.5 206.5t-253.5 132.5t-253 129t-75 199t106.5 235.5t312.5 107.5z" />
    <glyph glyph-name="scedilla" unicode="&#x15f;" horiz-adv-x="940" 
d="M545.5 1055q-150.5 0 -238.5 -64.5t-88 -161t57.5 -150.5t212 -103t219 -114t64.5 -187.5t-101.5 -207.5t-275.5 -85h-4l-26 -142q172 -6 172 -123q0 -61 -49.5 -102t-129 -41t-131.5 35l13 22q47 -31 117.5 -30.5t108.5 33t39 84.5t-39 76t-130 26l33 162
q-188 8 -320 135l19 18q137 -127 327 -127q152 0 250 73t98 208q0 98 -59 156.5t-215 108.5t-217.5 109.5t-61.5 166t97.5 179t261 72.5t280.5 -108l-18 -17q-115 99 -265.5 99z" />
    <glyph glyph-name="Scaron" unicode="&#x160;" horiz-adv-x="1099" 
d="M665 1415q206 0 345 -139l-21 -19q-127 131 -318 131.5t-293 -96t-102 -217.5t69 -184.5t246 -121.5t259 -140t82 -221q0 -226 -203 -354q-113 -72 -274 -72q-231 0 -389 163l20 21q74 -78 158 -118t207 -40t214 39t140 101q98 125 98 257t-75.5 206.5t-253.5 132.5
t-253 129t-75 199t106.5 235.5t312.5 107.5zM942 1753l16 -18l-262 -174h-16l-211 174l16 16l207 -160z" />
    <glyph glyph-name="scaron" unicode="&#x161;" horiz-adv-x="940" 
d="M548.5 1081q163.5 0 280.5 -108l-18 -17q-115 98 -265.5 98.5t-238.5 -64t-88 -161t57.5 -150.5t212 -103t219 -114t64.5 -187.5t-101.5 -207.5t-291 -85t-330.5 135l19 18q137 -127 327 -127q152 0 250 73t98 208q0 98 -59 156.5t-215 108.5t-217.5 109.5t-61.5 166
t97.5 179t261 72.5zM842 1522l14 -17l-262 -186h-16l-209 186l16 17l205 -172z" />
    <glyph glyph-name="uni0162" unicode="&#x162;" horiz-adv-x="970" 
d="M567 -276q0 -63 -50 -106.5t-128 -43.5t-131 35l14 22q45 -31 114 -30.5t109 35t41 84.5t-38 74t-129 26l34 180h-8l193 1366h-434l4 29h901l-6 -29h-435l-192 -1366l-27 -158q168 -10 168 -118z" />
    <glyph glyph-name="uni0163" unicode="&#x163;" horiz-adv-x="661" 
d="M383 6q94 0 195 57l12 -24q-104 -57 -207 -57l-27 -142q172 -6 172 -123q0 -61 -49 -102t-129 -41t-131 35l12 22q47 -31 118 -30.5t109 33t39 84.5t-39 76t-130 26l32 162q-94 6 -139 72.5t-28 181.5l110 800h-176l4 25h176l45 272l23 2l-39 -274h297l-8 -25h-291
l-113 -798q-16 -111 26 -171.5t136 -60.5z" />
    <glyph glyph-name="Tcaron" unicode="&#x164;" horiz-adv-x="970" 
d="M1059 1395l-6 -29h-435l-192 -1366h-31l193 1366h-434l4 29h901zM872 1753l17 -18l-262 -174h-17l-211 174l17 16l207 -160z" />
    <glyph glyph-name="tcaron" unicode="&#x165;" horiz-adv-x="661" 
d="M383 6q94 0 195 57l12 -24q-104 -57 -209 -57t-155 66.5t-33 187.5l110 800h-176l4 25h176l45 272l23 2l-39 -274h297l-8 -25h-291l-113 -798q-16 -111 26 -171.5t136 -60.5zM657 1509l-88 -288l-20 2l78 290z" />
    <glyph glyph-name="Tbar" unicode="&#x166;" horiz-adv-x="958" 
d="M618 1366l-83 -590h256l-5 -28h-254l-106 -748h-31l107 748h-250l2 28h252l82 590h-434l4 29h901l-6 -29h-435z" />
    <glyph glyph-name="tbar" unicode="&#x167;" horiz-adv-x="661" 
d="M383 6q94 0 195 57l12 -24q-104 -57 -209 -57t-155 66.5t-33 187.5l59 432h-170l4 26h170l47 342h-176l4 25h176l45 272l23 2l-39 -274h297l-8 -25h-291l-49 -342h290l-8 -26h-286l-60 -430q-16 -111 26 -171.5t136 -60.5z" />
    <glyph glyph-name="Utilde" unicode="&#x168;" horiz-adv-x="1308" 
d="M578 -18q-215 0 -299 119.5t-56 322.5l135 971h31l-137 -969q-55 -418 328 -418q201 0 310 112.5t136 307.5l135 967h31l-137 -973q-29 -203 -145.5 -321.5t-331.5 -118.5zM936 1655q-53 0 -123 45t-108.5 45t-66.5 -16.5t-69 -57.5l-14 10q80 84 152 84q37 0 108.5 -44
t129 -44t126.5 82l12 -10q-73 -94 -147 -94z" />
    <glyph glyph-name="utilde" unicode="&#x169;" horiz-adv-x="1177" 
d="M448 -18q-134 0 -199 84t-44 241l106 754h29l-107 -754q-20 -147 37.5 -223t180.5 -76q266 0 432 383l94 670h29l-150 -1061h-22l45 338q-72 -168 -184.5 -262t-246.5 -94zM827 1397q-49 0 -120.5 45t-108.5 45q-61 0 -135 -74l-14 10q80 84 149 84q41 0 112.5 -44
t116.5 -44q68 0 138 82l12 -10q-74 -94 -150 -94z" />
    <glyph glyph-name="Umacron" unicode="&#x16a;" horiz-adv-x="1308" 
d="M578 -18q-215 0 -299 119.5t-56 322.5l135 971h31l-137 -969q-55 -418 328 -418q201 0 310 112.5t136 307.5l135 967h31l-137 -973q-29 -203 -145.5 -321.5t-331.5 -118.5zM1018 1663h-410l4 29h410z" />
    <glyph glyph-name="umacron" unicode="&#x16b;" horiz-adv-x="1177" 
d="M448 -18q-134 0 -199 84t-44 241l106 754h29l-107 -754q-20 -147 37.5 -223t180.5 -76q266 0 432 383l94 670h29l-150 -1061h-22l45 338q-72 -168 -184.5 -262t-246.5 -94zM911 1405h-409l4 29h409z" />
    <glyph glyph-name="Ubreve" unicode="&#x16c;" horiz-adv-x="1308" 
d="M578 -18q-215 0 -299 119.5t-56 322.5l135 971h31l-137 -969q-55 -418 328 -418q201 0 310 112.5t136 307.5l135 967h31l-137 -973q-29 -203 -145.5 -321.5t-331.5 -118.5zM796 1583q-79 0 -130.5 41t-61.5 102h19q12 -51 56 -84.5t118 -33.5q150 0 209 121l18 -5
q-27 -61 -88 -101t-140 -40z" />
    <glyph glyph-name="ubreve" unicode="&#x16d;" horiz-adv-x="1177" 
d="M448 -18q-134 0 -199 84t-44 241l106 754h29l-107 -754q-20 -147 37.5 -223t180.5 -76q266 0 432 383l94 670h29l-150 -1061h-22l45 338q-72 -168 -184.5 -262t-246.5 -94zM697 1360q-85 0 -134 46t-55 118l22 4q18 -141 170 -141.5t209 141.5l21 -6q-25 -72 -86.5 -117
t-146.5 -45z" />
    <glyph glyph-name="Uring" unicode="&#x16e;" horiz-adv-x="1308" 
d="M578 -18q-215 0 -299 119.5t-56 322.5l135 971h31l-137 -969q-55 -418 328 -418q201 0 310 112.5t136 307.5l135 967h31l-137 -973q-29 -203 -145.5 -321.5t-331.5 -118.5zM840 1860q-57 0 -95 -38t-42.5 -94.5t22.5 -87t84 -30.5t95 39t42 94t-22.5 86t-83.5 31z
M841 1882q69 0 103.5 -38t30.5 -103.5t-51 -109.5t-116 -44t-103.5 38t-30.5 103.5t51 109.5t116 44z" />
    <glyph glyph-name="uring" unicode="&#x16f;" horiz-adv-x="1177" 
d="M448 -18q-134 0 -199 84t-44 241l106 754h29l-107 -754q-20 -147 37.5 -223t180.5 -76q266 0 432 383l94 670h29l-150 -1061h-22l45 338q-72 -168 -184.5 -262t-246.5 -94zM730 1602q-58 0 -95 -38t-41 -94q-8 -117 104 -118q59 0 97.5 39t42.5 94t-23 86t-85 31z
M732 1624q69 0 103.5 -38t30.5 -103.5t-51 -109.5t-116 -44t-103.5 38t-30.5 103.5t51 109.5t116 44z" />
    <glyph glyph-name="Uhungarumlaut" unicode="&#x170;" horiz-adv-x="1308" 
d="M578 -18q-215 0 -299 119.5t-56 322.5l135 971h31l-137 -969q-55 -418 328 -418q201 0 310 112.5t136 307.5l135 967h31l-137 -973q-29 -203 -145.5 -321.5t-331.5 -118.5zM848 1870l29 -17l-172 -245l-21 10zM1069 1874l29 -16l-187 -256l-20 10z" />
    <glyph glyph-name="uhungarumlaut" unicode="&#x171;" horiz-adv-x="1177" 
d="M448 -18q-134 0 -199 84t-44 241l106 754h29l-107 -754q-20 -147 37.5 -223t180.5 -76q266 0 432 383l94 670h29l-150 -1061h-22l45 338q-72 -168 -184.5 -262t-246.5 -94zM735 1612l29 -17l-172 -245l-21 10zM956 1616l29 -17l-186 -256l-21 11z" />
    <glyph glyph-name="Uogonek" unicode="&#x172;" horiz-adv-x="1308" 
d="M463 -236q0 -142 151 -143q45 0 109 14l-4 -28q-168 -40 -241 28q-46 43 -46 117q0 137 215 232q-23 -2 -67 -2q-217 0 -301 119.5t-56 322.5l135 971h31l-137 -969q-55 -418 328 -418q201 0 310 112.5t136 307.5l135 967h31l-137 -973q-23 -166 -106 -277.5t-230 -148.5
q-119 -49 -187.5 -104.5t-68.5 -127.5z" />
    <glyph glyph-name="uogonek" unicode="&#x173;" horiz-adv-x="1177" 
d="M555 -262q0 -117 133 -117q47 0 111 14l-6 -28q-161 -38 -228 21q-41 36 -41 100q0 98 82 163.5t230 120.5l43 326q-72 -168 -184.5 -262t-246.5 -94t-199 84t-44 241l106 754h29l-107 -754q-20 -147 37.5 -223t180.5 -76q266 0 432 383l94 670h29l-150 -1061
q-150 -59 -225.5 -119.5t-75.5 -142.5z" />
    <glyph glyph-name="Wcircumflex" unicode="&#x174;" horiz-adv-x="1607" 
d="M1645 1395l-523 -1395h-35l-165 1364l-553 -1364h-33l-131 1395h31l122 -1362l547 1362h37l166 -1362l506 1362h31zM1171 1573l-206 160l-250 -160l-15 16l258 176h17l213 -176z" />
    <glyph glyph-name="wcircumflex" unicode="&#x175;" horiz-adv-x="1386" 
d="M1386 1061l-430 -1061h-36l-154 1032l-442 -1032h-39l-138 1061h29l131 -1032l445 1032h34l154 -1034l418 1034h28zM580 1343l-17 17l264 186h17l209 -186l-17 -17l-205 173z" />
    <glyph glyph-name="Ycircumflex" unicode="&#x176;" horiz-adv-x="999" 
d="M1073 1395l-553 -840l-78 -555h-30l77 555l-321 840h33l305 -811l534 811h33zM864 1573l-207 160l-249 -160l-15 16l258 176h17l213 -176z" />
    <glyph glyph-name="ycircumflex" unicode="&#x177;" horiz-adv-x="901" 
d="M924 1061l-516 -1063q-90 -186 -171 -267t-243 -124l-4 22q156 45 228.5 119t160.5 252h-14l-238 1061h31l231 -1041l502 1041h33zM330 1343l-17 17l265 186h16l209 -186l-17 -17l-204 173z" />
    <glyph glyph-name="Ydieresis" unicode="&#x178;" horiz-adv-x="999" 
d="M1073 1395l-553 -840l-78 -555h-30l77 555l-321 840h33l305 -811l534 811h33zM822 1698q30 0 26 -29t-31 -29q-14 0 -22.5 9.5t-6.5 21.5q4 27 34 27zM494 1698q33 0 28.5 -29t-32 -29t-27.5 31q4 27 31 27z" />
    <glyph glyph-name="Zacute" unicode="&#x179;" horiz-adv-x="1038" 
d="M12 0l4 27l1000 1339h-733l2 29h772l-2 -27l-1000 -1339h781l-9 -29h-815zM860 1749l10 -31l-374 -147l-9 20z" />
    <glyph glyph-name="zacute" unicode="&#x17a;" horiz-adv-x="839" 
d="M838 1061l-4 -25l-799 -1009h639l-6 -27h-676l4 25l799 1009h-598l4 27h637zM752 1546l10 -30l-379 -170l-8 20z" />
    <glyph glyph-name="Zdotaccent" unicode="&#x17b;" horiz-adv-x="1038" 
d="M12 0l4 27l1000 1339h-733l2 29h772l-2 -27l-1000 -1339h781l-9 -29h-815zM686 1667q-33 0 -29 29.5t32 29.5t26 -29.5t-29 -29.5z" />
    <glyph glyph-name="zdotaccent" unicode="&#x17c;" horiz-adv-x="839" 
d="M838 1061l-4 -25l-799 -1009h639l-6 -27h-676l4 25l799 1009h-598l4 27h637zM570 1468q28 0 26 -29.5t-29 -29.5q-33 0 -28 31q3 28 31 28z" />
    <glyph glyph-name="Zcaron" unicode="&#x17d;" horiz-adv-x="1038" 
d="M12 0l4 27l1000 1339h-733l2 29h772l-2 -27l-1000 -1339h781l-9 -29h-815zM909 1753l17 -18l-262 -174h-17l-211 174l17 16l206 -160z" />
    <glyph glyph-name="zcaron" unicode="&#x17e;" horiz-adv-x="839" 
d="M838 1061l-4 -25l-799 -1009h639l-6 -27h-676l4 25l799 1009h-598l4 27h637zM807 1522l14 -17l-262 -186h-16l-209 186l16 17l205 -172z" />
    <glyph glyph-name="longs" unicode="&#x17f;" horiz-adv-x="622" 
d="M639 1505q117 0 223 -73l-16 -21q-102 68 -208 68q-106 -1 -172 -55q-67 -54 -83 -162l-176 -1262h-29l146 1036h-187l4 25h187l28 205q16 115 91 177t192 62z" />
    <glyph glyph-name="uni0180" unicode="&#x180;" horiz-adv-x="1159" 
d="M498.5 8q138.5 0 237 69.5t150.5 178.5q103 216 103 416q0 383 -280 383q-115 0 -204 -53.5t-179 -157.5l-107 -774q141 -62 279.5 -62zM709 1081q152 0 230.5 -99t78.5 -287q0 -189 -71 -371q-38 -98 -94 -172t-145.5 -122t-221.5 -48t-300 69l174 1243h-151l4 27h152
l24 178l29 2l-25 -180h385l-8 -27h-381l-57 -413q166 200 377 200z" />
    <glyph glyph-name="uni0181" unicode="&#x181;" horiz-adv-x="1286" 
d="M623 29q258 0 372.5 116.5t114.5 292.5q0 135 -92 210t-250 75h-365l-96 -694h316zM762 1366h-268l-86 -614h360q147 0 254.5 97t107.5 239q0 278 -368 278zM618 0h-346l193 1368h-80q-104 0 -157.5 -52t-53.5 -124.5t33 -142.5l-25 -13q-39 78 -39 140q0 98 64.5 158.5
t181.5 60.5h371q193 0 297 -75t104 -220t-93 -245t-234 -118q137 -10 222 -86t85 -228.5t-110 -280.5q-56 -66 -162.5 -104t-250.5 -38z" />
    <glyph glyph-name="uni0182" unicode="&#x182;" horiz-adv-x="1153" 
d="M506 29q129 0 226 44q98 43 148 115q98 138 97 308q0 301 -371 301h-282l-107 -768h289zM606 825q195 0 298.5 -84t103.5 -255t-107 -318q-55 -76 -158.5 -122t-242.5 -46h-318l197 1395h631l-9 -29h-598l-75 -541h278z" />
    <glyph glyph-name="uni0183" unicode="&#x183;" horiz-adv-x="1155" 
d="M484.5 8q125.5 0 209.5 47q150 84 220.5 271t70.5 370q0 358 -278 359q-115 0 -204 -53.5t-181 -157.5l-107 -774q144 -62 269.5 -62zM707 1081q150 0 228.5 -99t78.5 -313.5t-110 -432.5q-56 -112 -158.5 -183t-247 -71t-316.5 69l203 1444h524l-8 -27h-491l-82 -587
q170 200 379 200z" />
    <glyph glyph-name="uni0184" unicode="&#x184;" horiz-adv-x="1126" 
d="M506 29q131 0 228 45q98 44 148 118q96 139 95 300q0 309 -371 309h-280l-109 -772h289zM604 829q195 0 299.5 -85t104.5 -258t-110 -321q-56 -75 -159.5 -120t-242.5 -45h-314l174 1235l-47 31q53 61 76 129h23l-78 -566h274z" />
    <glyph glyph-name="uni0185" unicode="&#x185;" horiz-adv-x="1007" 
d="M858 399q0 254 -319 254h-246l-84 -602q255 -85 439 -5q140 60 190 220q20 64 20 133zM539 680q178 0 263 -75t85 -218t-92 -265q-103 -136 -347 -140q-124 -2 -270 51l125 891l-47 30q45 45 72 107h24l-55 -381h242z" />
    <glyph glyph-name="uni0186" unicode="&#x186;" horiz-adv-x="1093" 
d="M547 1415q193 0 305 -135q112 -134 112.5 -380t-69.5 -449t-217.5 -336t-345.5 -133t-340 127l18 20q136 -119 324 -119t328.5 130t207 326t66.5 434t-104.5 362t-286.5 124q-109 0 -187.5 -27.5t-167.5 -84.5l-16 22q90 59 174 89t199 30z" />
    <glyph glyph-name="uni0187" unicode="&#x187;" horiz-adv-x="1095" 
d="M1347 1657q92 0 160 -60l-16 -20q-63 55 -143 55q-171 0 -195 -190l-20 -146l-17 -18q-129 109 -276.5 108.5t-257 -57.5t-177 -146t-114.5 -207q-84 -211 -84 -456.5t112.5 -377.5t301 -132t346.5 119l18 -23q-164 -125 -365.5 -124.5t-322.5 141.5t-121 396t90 475
q49 120 121 212t185.5 150.5t265 58.5t268.5 -98l18 127q14 104 72.5 158.5t150.5 54.5z" />
    <glyph glyph-name="uni0188" unicode="&#x188;" horiz-adv-x="954" 
d="M1148 1505q89 0 163 -61l-17 -19q-63 53 -144 53.5t-132 -47t-64 -141.5l-43 -311l-14 -14q-104 92 -252 92q-149 1 -261 -103q-208 -192 -208 -553q0 -190 87 -291.5t238.5 -101.5t280.5 103l17 -21q-135 -109 -298 -108.5t-259.5 110t-96.5 309.5q1 258 123 458
q60 99 160 160.5t233 61.5t226 -80l39 291q14 104 73.5 158.5t148.5 54.5z" />
    <glyph glyph-name="uni0189" unicode="&#x189;" horiz-adv-x="1245" 
d="M416 29q145 0 263 51q117 51 193 135q218 242 218 672q0 323 -216 427q-108 52 -282 52h-205l-88 -629h401l-2 -28h-403l-94 -680h215zM596 1395q218 1 360 -95q164 -110 164 -401q0 -459 -230 -709q-79 -86 -202 -138t-274 -52h-248l100 709h-184l4 28h184l92 658h234z
" />
    <glyph glyph-name="uni018A" unicode="&#x18a;" horiz-adv-x="1353" 
d="M522 29q145 0 263 51t194 135q217 240 217 672q0 324 -216 427q-109 52 -282 52h-204l-187 -1337h215zM702 1395q216 1 360 -95q165 -110 165 -401q-1 -457 -231 -709q-78 -86 -201 -138t-275 -52h-248l193 1368h-80q-104 0 -157.5 -52t-53.5 -124.5t33 -142.5l-25 -13
q-39 78 -39 140q0 98 64.5 158.5t181.5 60.5h313z" />
    <glyph glyph-name="uni018B" unicode="&#x18b;" horiz-adv-x="1153" 
d="M637 797q-227 0 -360.5 -124t-133.5 -331q0 -154 93.5 -233.5t261.5 -79.5h299l106 768h-266zM494 0q-176 0 -278.5 89t-102.5 253q0 221 143 352t383 131h268l76 541h-600l4 29h629l-195 -1395h-327z" />
    <glyph glyph-name="uni018C" unicode="&#x18c;" horiz-adv-x="1173" 
d="M649 1057q-123 0 -218 -66.5t-147 -172.5q-100 -206 -100 -409.5t76 -302t207 -98.5t223 85t180 243l74 520q-86 201 -295 201zM461 -18q-137 0 -221 106.5t-84 296t67 361.5q37 96 91.5 168.5t141.5 119.5t193 47q215 0 301 -188l80 575h-493l4 27h522l-211 -1495h-25
l37 281q-78 -137 -172 -218t-231 -81z" />
    <glyph glyph-name="uni018D" unicode="&#x18d;" horiz-adv-x="1140" 
d="M971 680q0 174 -87 274.5t-228.5 100.5t-236.5 -58.5t-143 -151.5q-94 -179 -94 -347t77 -254t263 -160q449 145 449 596zM435 -397q-165 0 -300 104l21 19q125 -96 278 -96.5t232 59t79 141.5t-53 130t-215.5 113.5t-242.5 157t-80 267.5t100 366q51 96 151.5 156.5
t253 60.5t246.5 -107.5t94 -293.5q0 -463 -448 -608q123 -53 174 -104.5t51 -140.5t-88 -156.5t-253 -67.5z" />
    <glyph glyph-name="uni018E" unicode="&#x18e;" horiz-adv-x="1011" 
d="M227 1395h647l-194 -1395h-662l5 29h632l97 696h-525l2 27h527l86 614h-619z" />
    <glyph glyph-name="uni018F" unicode="&#x18f;" horiz-adv-x="1318" 
d="M578 8q219 0 372.5 174t198.5 518h-948q-18 -94 -19 -204q0 -238 105 -363t291 -125zM774 1415q422 0 422 -508q0 -90 -16 -221q-49 -348 -210 -526t-378 -178t-329.5 132t-112.5 378q0 123 24 237h979q10 78 10 176q0 481 -389 481q-215 0 -422 -157l-14 24
q215 162 436 162z" />
    <glyph glyph-name="uni0190" unicode="&#x190;" horiz-adv-x="1052" 
d="M662 1415q219 0 366 -174l-20 -18q-137 164 -346 163q-168 0 -277 -98t-109 -238t86.5 -209t225.5 -69h112l-8 -27h-114q-201 2 -322 -109.5t-119 -301.5q-2 -154 92.5 -240t255.5 -86q221 0 422 180l19 -18q-205 -188 -441 -188q-174 0 -277.5 93t-101.5 259
q-2 190 110 303t286 123q-113 14 -183.5 84.5t-70.5 189.5q0 168 116 274.5t298 106.5z" />
    <glyph glyph-name="uni0191" unicode="&#x191;" horiz-adv-x="964" 
d="M-37 -399q-90 0 -160 61l17 19q66 -53 143.5 -53.5t129.5 46.5t65 144l26 182h-2l197 1395h633l-6 -29h-603l-90 -645h521l-5 -27h-520l-123 -880q-14 -104 -73.5 -158.5t-149.5 -54.5z" />
    <glyph glyph-name="florin" unicode="&#x192;" horiz-adv-x="622" 
d="M638 1479q-106 -1 -172 -55q-67 -54 -83 -162l-27 -201h303l-6 -25h-301l-143 -1028q-33 -233 -136 -319q-48 -41 -139 -84l-10 22q123 59 178 135t78 248l144 1026h-187l4 25h187l28 205q16 115 91 177t192 62t223 -73l-16 -21q-102 68 -208 68z" />
    <glyph glyph-name="uni0193" unicode="&#x193;" horiz-adv-x="1116" 
d="M1368 1657q92 0 160 -60l-17 -20q-63 55 -143 55q-166 0 -194 -190l-21 -146l-16 -16q-137 106 -299.5 106t-285 -78.5t-196.5 -205.5q-150 -258 -149 -576q0 -252 116.5 -385t325.5 -133q168 0 340 90l84 590h-301l-2 27h336l-88 -633q-186 -100 -369 -100
q-223 0 -348 140t-125 406q0 328 160 595q78 130 206 211t292.5 81t291.5 -98l19 127q14 104 72.5 158.5t150.5 54.5z" />
    <glyph glyph-name="uni0194" unicode="&#x194;" horiz-adv-x="1085" 
d="M547 -210q0 75 -64 302q-82 -147 -118.5 -228t-36.5 -145q0 -92 90 -92q63 0 96 44t33 119zM426 -401q-128 -1 -127 127q0 60 40 147.5t132 245.5l-287 1276h31l274 -1254l623 1254h31l-639 -1282q72 -238 71.5 -324t-42 -138t-107.5 -52z" />
    <glyph glyph-name="uni0195" unicode="&#x195;" horiz-adv-x="1824" 
d="M1653 858q0 -117 -11.5 -232.5t-45 -237.5t-86 -208t-142.5 -142t-225.5 -56t-202 96t-45.5 241l61 435q41 303 -206 303q-131 0 -242 -98.5t-215 -301.5l-92 -657h-29l211 1499l29 4l-111 -788q188 367 451 366q279 0 233 -327l-61 -437q-18 -137 40 -223t195 -86
q187 0 290.5 140t139 331.5t35.5 345.5t-6 236h29q6 -86 6 -203z" />
    <glyph glyph-name="uni0196" unicode="&#x196;" horiz-adv-x="643" 
d="M356 -18q-94 0 -137 55t-29 160l168 1198h31l-170 -1200q-23 -186 131 -187q94 0 168 53l12 -22q-80 -57 -174 -57z" />
    <glyph glyph-name="uni0197" unicode="&#x197;" horiz-adv-x="677" 
d="M614 752l-4 -27h-223l-100 -725h-31l102 725h-235l4 27h235l91 643h28l-90 -643h223z" />
    <glyph glyph-name="uni0198" unicode="&#x198;" horiz-adv-x="1118" 
d="M408 1395l-195 -1393h-31l197 1393h29zM1071 1415q72 0 143 -72l-20 -16q-66 61 -126 61.5t-104 -26.5t-126 -113l-478 -499l588 -750h-37l-587 750l497 522q80 86 129 114.5t121 28.5z" />
    <glyph glyph-name="uni0199" unicode="&#x199;" horiz-adv-x="1038" 
d="M973 870q0 -254 -379 -376l254 -494h-31l-260 506q385 117 385 362q0 88 -48 138t-144 51q-260 0 -463 -445l-86 -612h-29l178 1266q16 115 91 177t191 62t218 -63l-12 -25q-98 61 -204 61t-174 -54q-67 -56 -81 -164l-82 -582q186 403 455 403q102 -1 162 -57t59 -154z
" />
    <glyph glyph-name="uni019A" unicode="&#x19a;" horiz-adv-x="581" 
d="M342 8q45 0 84 17l8 -25q-43 -18 -94 -18q-141 0 -119 161l84 596h-227l4 27h227l103 733l28 2l-102 -735h231l-4 -27h-231l-84 -598q-20 -133 92 -133z" />
    <glyph glyph-name="uni019B" unicode="&#x19b;" horiz-adv-x="917" 
d="M522 1360q48 -90 62 -320.5t38.5 -404.5t63.5 -291q40 -117 66 -171q50 -102 71.5 -132t24.5 -37l-27 -10q-49 82 -65 110q-16 26 -59 124q-107 250 -140 800l-510 -1036l-27 6l527 1067l10 -2q-14 199 -55 278l-195 -174l-22 9l204 186q-51 86 -178 121l6 22
q133 -39 193 -125l152 142l18 -17z" />
    <glyph glyph-name="uni019C" unicode="&#x19c;" horiz-adv-x="1886" 
d="M1147 -20q-119 0 -186.5 68.5t-73.5 197.5q-195 -266 -420 -266q-143 0 -212 97t-42 279l143 1039h31l-145 -1045q-25 -168 35.5 -255t189.5 -87q223 0 420 279l6 69l145 1039h29l-145 -1045q-23 -168 36.5 -255t188.5 -87q227 0 418 275l153 1112h31l-195 -1395h-26
l31 238q-184 -258 -412 -258z" />
    <glyph glyph-name="uni019D" unicode="&#x19d;" horiz-adv-x="1347" 
d="M-37 -399q-90 0 -160 61l15 19q59 -53 141 -53q169 -1 199 190l221 1577h37l579 -1360q25 197 43 330l146 1030h28l-196 -1395h-37l-580 1364q-6 -80 -39 -311l-174 -1239q-16 -104 -74.5 -158.5t-148.5 -54.5z" />
    <glyph glyph-name="uni019E" unicode="&#x19e;" horiz-adv-x="1189" 
d="M754 1081q137 0 195 -85t36 -242l-164 -1149l-28 -2l163 1151q41 303 -204 303q-252 0 -459 -400l-92 -657h-29l150 1061h24l-45 -346q189 366 453 366z" />
    <glyph glyph-name="uni019F" unicode="&#x19f;" horiz-adv-x="1406" 
d="M629 8q244 0 402.5 178.5t203.5 505.5h-1016q-14 -86 -14 -174q0 -246 111.5 -378t312.5 -132zM813 1386q-215 0 -378 -176t-212 -489h1016q12 84 12 158q0 246 -111.5 376.5t-326.5 130.5zM810.5 1415q229.5 0 350.5 -140t121 -398q0 -68 -14 -183q-49 -340 -216 -526
t-423 -186q-215 0 -335 140t-120 398q0 90 14 178q45 334 219 525.5t403.5 191.5z" />
    <glyph glyph-name="Ohorn" unicode="&#x1a0;" horiz-adv-x="1409" 
d="M629 8q139 0 250.5 59.5t179 149.5t113.5 210q80 210 79.5 454t-112 376t-314.5 132q-166 0 -291.5 -87.5t-193.5 -224.5q-133 -268 -133 -535.5t111.5 -400.5t310.5 -133zM1329 1450q0 -164 -158 -186q111 -139 111 -386q0 -248 -87 -468q-48 -122 -118.5 -216
t-187.5 -153t-260 -59q-213 0 -333 141t-120 389t90 472q49 122 121 216t186.5 154.5t253.5 60.5q211 0 328 -133q150 18 150 168q0 51 -15 104l23 7q16 -50 16 -111z" />
    <glyph glyph-name="ohorn" unicode="&#x1a1;" 
d="M484.5 8q140.5 0 237.5 66q98 66 150 170q102 202 101.5 407t-84.5 305.5t-225.5 100.5t-238.5 -65.5t-149 -169.5q-102 -202 -102 -406.5t85 -306t225.5 -101.5zM1110 1116q0 -170 -166 -190q57 -102 57 -233.5t-26.5 -244t-80.5 -221t-157.5 -177t-255 -68.5
t-244 108.5t-92.5 323.5q0 214 110 426q56 108 158.5 174.5t237.5 66.5q190 0 281 -137q82 10 116.5 52t34.5 112.5t-14 112.5l25 6q16 -58 16 -111z" />
    <glyph glyph-name="uni01A2" unicode="&#x1a2;" horiz-adv-x="1800" 
d="M825 1389q-166 0 -291.5 -87.5t-193.5 -224.5q-133 -268 -133 -535.5t111.5 -400.5t310.5 -133q139 0 250.5 59.5t179 149.5t113.5 210q80 210 79.5 454t-112 376t-314.5 132zM1422 1415q127 0 176 -67.5t32 -182.5l-217 -1554h-31l217 1552q33 225 -167 226
q-133 0 -297 -84q147 -143 147 -409t-87 -486q-48 -122 -118.5 -216t-187.5 -153t-260 -59q-213 0 -333 141t-120 389t90 472q49 122 121 216t186.5 154.5t272 60.5t270.5 -94q179 94 306 94z" />
    <glyph glyph-name="uni01A3" unicode="&#x1a3;" horiz-adv-x="1495" 
d="M663.5 1057q-141.5 0 -238.5 -65.5t-149 -169.5q-102 -202 -102 -406.5t85 -306t225.5 -101.5t237.5 66q98 66 150 170q102 202 101.5 407t-84.5 305.5t-225.5 100.5zM1096 1081q242 0 204 -252l-172 -1224l-28 -2l172 1228q31 225 -176 226q-104 0 -219 -49
q125 -109 124.5 -337.5t-107.5 -442.5q-54 -108 -157.5 -177t-255 -69t-244 108.5t-92.5 323.5q0 214 110 426q56 108 158.5 174.5t231.5 66.5t211 -57q125 57 240 57z" />
    <glyph glyph-name="uni01A4" unicode="&#x1a4;" horiz-adv-x="1228" 
d="M621 612q296 0 410 136t114 306.5t-101.5 241t-308.5 70.5h-241l-105 -754h232zM737 1395q438 0 439 -328q0 -191 -116 -329q-60 -72 -174 -113t-270 -41h-231l-82 -584h-31l193 1368h-80q-104 0 -157.5 -52t-53.5 -124.5t33 -142.5l-25 -13q-39 78 -39 140
q0 98 64.5 158.5t181.5 60.5h348z" />
    <glyph glyph-name="uni01A5" unicode="&#x1a5;" horiz-adv-x="1163" 
d="M482.5 8q125.5 0 209.5 47q150 84 220.5 271t70.5 370q0 358 -278 359q-117 0 -206 -53.5t-177 -157.5l-109 -774q144 -62 269.5 -62zM705 1081q150 0 228.5 -99t78.5 -312.5t-110 -433.5q-56 -112 -158.5 -183t-243.5 -71t-291 61l-62 -436l-30 -2l233 1661
q16 115 91 177t191 62t218 -63l-12 -25q-98 61 -204.5 61.5t-173.5 -55t-81 -163.5l-53 -377q170 198 379 198z" />
    <glyph glyph-name="uni01A6" unicode="&#x1a6;" horiz-adv-x="1163" 
d="M592 422q146 0 244 62q174 111 174 333q0 272 -373 273h-272l-93 -668h320zM1040 817q0 -158 -94 -278.5t-295 -143.5l299 -674h-35l-294 672h-353l-55 -393h-31l197 1395h29l-39 -279h264q407 0 407 -299z" />
    <glyph glyph-name="uni01A7" unicode="&#x1a7;" horiz-adv-x="1091" 
d="M698 1415q147 0 231.5 -74.5t84.5 -197.5q0 -158 -105.5 -245t-326.5 -157t-325.5 -167t-104.5 -273q0 -135 89 -214t238 -79q231 0 420 158l19 -23q-195 -162 -439 -161q-162 0 -260 87t-98 232q0 184 110.5 289.5t331.5 174.5t320.5 148.5t99.5 229.5q0 113 -74.5 178
t-210.5 65q-201 0 -383 -131l-16 23q192 137 399 137z" />
    <glyph glyph-name="uni01A8" unicode="&#x1a8;" horiz-adv-x="940" 
d="M551 1081q117 0 191.5 -62.5t74.5 -161.5t-68.5 -175t-275.5 -133t-278.5 -136t-71.5 -183t75.5 -163t198.5 -59q201 0 365 127l16 -18q-168 -135 -381 -135q-137 0 -220 65.5t-83 180t79 200.5t284 142t268 126t63 161t-66.5 145.5t-172.5 54.5q-164 0 -309 -107l-15 21
q150 110 326 110z" />
    <glyph glyph-name="uni01A9" unicode="&#x1a9;" horiz-adv-x="989" 
d="M995 1395l-2 -29h-719l388 -668l-3 -12l-571 -657h717l-4 -29h-762l4 18l588 676l-398 682l3 19h759z" />
    <glyph glyph-name="uni01AA" unicode="&#x1aa;" horiz-adv-x="532" 
d="M53 1239q1 -141 143 -141q72 0 144 43l22 168q10 76 -18.5 123t-105 47t-131 -69t-54.5 -171zM190 1071q-167 -1 -167 185q0 96 65.5 172.5t152.5 76.5t124.5 -55t25.5 -141l-209 -1495q-24 -188 142 -186q82 0 157 53l13 -21q-84 -59 -175.5 -59t-135.5 55t-29 160
l182 1298q-66 -43 -146 -43z" />
    <glyph glyph-name="uni01AB" unicode="&#x1ab;" horiz-adv-x="661" 
d="M383 6q94 0 197 53l10 -20l-33 -225q-14 -104 -73.5 -158.5t-149.5 -54.5t-160 61l16 19q59 -53 148 -54q164 0 190 189l31 209q-86 -43 -184 -43t-148.5 65.5t-33.5 188.5l110 800h-176l4 25h176l45 272l23 2l-39 -274h297l-8 -25h-291l-113 -798q-16 -111 26 -171.5
t136 -60.5z" />
    <glyph glyph-name="uni01AC" unicode="&#x1ac;" horiz-adv-x="1011" 
d="M385 1366q-102 0 -156.5 -52t-54.5 -125.5t33 -139.5l-23 -13q-41 78 -41 142q0 98 64.5 157.5t183.5 59.5h709l-6 -29h-435l-192 -1366h-29l191 1366h-244z" />
    <glyph glyph-name="uni01AD" unicode="&#x1ad;" horiz-adv-x="661" 
d="M383 6q94 0 195 57l12 -24q-104 -57 -209 -57t-155 65.5t-33 188.5l110 800h-176l4 25h176l27 190q16 123 84.5 188.5t173 65.5t194.5 -59l-16 -21q-78 53 -175 53.5t-158 -58t-75 -171.5l-24 -172l-2 -16h297l-8 -25h-291l-113 -798q-16 -111 26 -171.5t136 -60.5z" />
    <glyph glyph-name="uni01AE" unicode="&#x1ae;" horiz-adv-x="970" 
d="M538 -373q78 0 158 54l15 -21q-84 -59 -175.5 -59t-135.5 55t-29 160l217 1550h-434l4 29h901l-6 -29h-435l-219 -1550q-23 -189 139 -189z" />
    <glyph glyph-name="Uhorn" unicode="&#x1af;" horiz-adv-x="1308" 
d="M1176 1284q143 18 143 154q0 62 -14 116l22 7q16 -50 16 -111q0 -172 -169 -188l-119 -840q-29 -203 -145.5 -321.5t-331.5 -118.5t-299 119.5t-56 322.5l135 971h31l-137 -969q-55 -418 328 -418q201 0 310 112.5t136 307.5l135 967h31z" />
    <glyph glyph-name="uhorn" unicode="&#x1b0;" horiz-adv-x="1177" 
d="M1157 1116q0 -170 -170 -190l-131 -926h-22l45 338q-72 -168 -184.5 -262t-246.5 -94t-199 84t-44 241l106 754h29l-107 -754q-20 -147 37.5 -223t180.5 -76q266 0 432 383l94 670h29l-17 -115q78 12 109.5 54t31.5 110t-14 111l25 6q16 -58 16 -111z" />
    <glyph glyph-name="uni01B1" unicode="&#x1b1;" horiz-adv-x="1409" 
d="M625 -20q-207 0 -328 142t-121 404t112.5 490.5t319.5 351.5l-268 -2l4 29h309l-2 -29q-217 -123 -331.5 -353.5t-114.5 -484.5t113.5 -387t314.5 -133q285 0 449.5 240.5t164.5 596.5t-243 521l2 29h311l-4 -29h-266q231 -168 231 -526q0 -233 -74 -427t-223 -313.5
t-356 -119.5z" />
    <glyph glyph-name="uni01B2" unicode="&#x1b2;" horiz-adv-x="1286" 
d="M1047 1415q147 0 122 -178l-92 -651q-41 -301 -187.5 -452.5t-359.5 -151.5q-174 0 -258 103t-57 286l143 1024h29l-143 -1024q-23 -172 52 -267.5t234 -95.5q201 0 339.5 145.5t179.5 438.5l90 645q23 152 -95 152q-53 0 -98 -23l-10 23q50 26 111 26z" />
    <glyph glyph-name="uni01B3" unicode="&#x1b3;" horiz-adv-x="1050" 
d="M1145 1415q78 0 151 -82l-16 -18q-70 74 -137 74t-106.5 -29t-80.5 -98l-436 -707l-78 -555h-30l77 555l-321 840h33l305 -811l426 690q45 76 90 108.5t123 32.5z" />
    <glyph glyph-name="uni01B4" unicode="&#x1b4;" horiz-adv-x="901" 
d="M994.5 1159q52.5 0 97.5 -18l-11 -23q-37 16 -82.5 16.5t-78.5 -30.5t-66 -107l-448 -999q-88 -186 -168 -266t-244 -125l-4 22q156 43 230.5 120t158.5 251h-14l-238 1061h31l231 -1041l436 984q39 86 78 120.5t91.5 34.5z" />
    <glyph glyph-name="uni01B5" unicode="&#x1b5;" horiz-adv-x="1038" 
d="M1057 1395l-2 -27l-488 -653h236l-2 -27h-254l-492 -659h781l-9 -29h-815l4 27l494 661h-246l2 27h264l486 651h-733l2 29h772z" />
    <glyph glyph-name="uni01B6" unicode="&#x1b6;" horiz-adv-x="839" 
d="M838 1061l-4 -25l-375 -473h217l-4 -26h-234l-403 -510h639l-6 -27h-676l4 25l405 512h-217l4 26h234l373 471h-598l4 27h637z" />
    <glyph glyph-name="uni01B7" unicode="&#x1b7;" horiz-adv-x="960" 
d="M449 756q207 0 306 -91.5t84 -271.5t-142.5 -295.5t-327.5 -115.5q-236 0 -371 163l20 17q68 -78 148 -116t203 -38q190 0 307 108.5t133 284.5q27 326 -360 326h-156l4 29l577 612h-681l4 27h721l-3 -25l-581 -614h115z" />
    <glyph glyph-name="uni01B8" unicode="&#x1b8;" horiz-adv-x="964" 
d="M571 727q-213 0 -339 -110.5t-126 -299.5q0 -143 87.5 -226t228.5 -83t234.5 37t181.5 117l18 -19q-90 -82 -188.5 -121.5t-249 -39.5t-245.5 92t-95 243q0 201 136 320t361 119h121l-420 614l5 25h727l-4 -27h-689l414 -612l-4 -29h-154z" />
    <glyph glyph-name="uni01B9" unicode="&#x1b9;" horiz-adv-x="905" 
d="M510 367q-223 0 -351 -115t-128 -311q0 -141 83 -227.5t234 -86.5q213 0 379 154l18 -17q-174 -164 -397 -163q-162 0 -255 94t-93 246q0 207 139.5 329.5t374.5 122.5h70l-377 643l2 25h684l-4 -27h-647l372 -641l-2 -26h-102z" />
    <glyph glyph-name="uni01BA" unicode="&#x1ba;" horiz-adv-x="909" 
d="M-10 -205q0 87 85 141t283 78t299 90q100 68 101 213q0 199 -244 199h-276l4 29l540 489h-622l4 27h667l-4 -25l-548 -491h239q268 0 268 -226q0 -157 -106 -231t-306 -98t-278 -71q-78 -46 -78 -126q0 -106 164 -168l-12 -22q-180 68 -180 192z" />
    <glyph glyph-name="uni01BB" unicode="&#x1bb;" horiz-adv-x="950" 
d="M565 1376q141 0 224 -83t83 -208t-51 -228t-198 -269h219l-4 -27h-240q-170 -184 -530 -532h684l-11 -29h-716l4 29q379 367 532 532h-356l4 27h377q156 172 207 274t51 220t-76 193t-205 75q-184 0 -354 -166l-21 18q174 174 377 174z" />
    <glyph glyph-name="uni01BC" unicode="&#x1bc;" horiz-adv-x="985" 
d="M530 864q152 0 236 -88t84 -257t-100 -341q-52 -86 -148 -141t-223 -55q-227 0 -340 155l22 17q104 -145 318 -146q96 0 174 35t126 90q140 160 140 397q0 150 -77 230t-221 80t-285 -90h-25l90 645h631l-10 -27h-596l-82 -590q134 86 286 86z" />
    <glyph glyph-name="uni01BD" unicode="&#x1bd;" horiz-adv-x="862" 
d="M454 662q120 0 186.5 -70t66.5 -195q0 -178 -105.5 -296.5t-276.5 -118.5t-276 120l21 17q94 -111 255 -111t257 110.5t96 278.5q0 115 -59.5 176.5t-173 61.5t-232.5 -68h-23l70 494h512l-8 -27h-479l-64 -438q113 66 233 66z" />
    <glyph glyph-name="uni01BE" unicode="&#x1be;" horiz-adv-x="1003" 
d="M381 -10q-199 0 -340 162l20 16q129 -152 317.5 -152t308.5 131.5t120 327.5q0 260 -281 322l-131 30l49 355h-143l4 24h144l40 293l29 4l-41 -297h248l-4 -24h-248l-47 -334l106 -25q303 -70 304 -348q0 -209 -128 -347t-327 -138z" />
    <glyph glyph-name="uni01BF" unicode="&#x1bf;" horiz-adv-x="1155" 
d="M1001 788.5q0 124.5 -72.5 195.5t-197.5 71q-213 0 -412 -209l-118 -844l137 66q156 78 263.5 145.5t204.5 154.5t146 191.5t49 229zM733 1081q137 0 217 -77.5t80 -211t-51 -243t-151.5 -199.5t-213 -159.5t-270.5 -145.5l-147 -72l-52 -364l-28 -6l205 1458h24
l-22 -180q194 200 409 200z" />
    <glyph glyph-name="uni01C0" unicode="&#x1c0;" horiz-adv-x="542" 
d="M422 1501l-211 -1501h-29l213 1499z" />
    <glyph glyph-name="uni01C1" unicode="&#x1c1;" horiz-adv-x="819" 
d="M698 1501l-211 -1501h-28l213 1499zM422 1501l-211 -1501h-29l213 1499z" />
    <glyph glyph-name="uni01C2" unicode="&#x1c2;" horiz-adv-x="677" 
d="M633 885h-236l-39 -281h234l-2 -24h-236l-80 -580h-28l82 580h-226l2 24h226l41 281h-226l5 24h223l84 590l26 2l-82 -592h236z" />
    <glyph glyph-name="uni01C3" unicode="&#x1c3;" horiz-adv-x="583" 
d="M220 55q34 -1 34 -35t-34 -34t-34 34t34 35zM440 1501l-155 -1112h-29l158 1110z" />
    <glyph glyph-name="uni01C4" unicode="&#x1c4;" horiz-adv-x="2281" 
d="M608 1366h-205l-186 -1337h215q145 0 263 51t194 135q217 240 217 672q0 230 -98 338t-252 131q-66 10 -148 10zM612 1395q216 1 360 -95q165 -110 165 -401q0 -458 -231 -709q-79 -86 -201.5 -138t-274.5 -52h-248l197 1395h233zM1255 0l5 27l999 1339h-733l2 29h772
l-2 -27l-1000 -1339h781l-8 -29h-816zM2152 1753l17 -18l-262 -174h-17l-211 174l17 16l207 -160z" />
    <glyph glyph-name="uni01C5" unicode="&#x1c5;" horiz-adv-x="2103" 
d="M2101 1061l-4 -25l-799 -1009h639l-6 -27h-676l5 25l798 1009h-598l4 27h637zM608 1366h-205l-186 -1337h215q145 0 263 51t194 135q217 240 217 672q0 230 -98 338t-252 131q-66 10 -148 10zM612 1395q216 1 360 -95q165 -110 165 -401q0 -458 -231 -709
q-79 -86 -201.5 -138t-274.5 -52h-248l197 1395h233zM2071 1522l14 -17l-262 -186h-17l-209 186l17 17l205 -172z" />
    <glyph glyph-name="uni01C6" unicode="&#x1c6;" horiz-adv-x="2011" 
d="M647 1057q-123 0 -218 -66.5t-147 -172.5q-100 -206 -100 -409.5t76 -302t207 -98.5t223 85t180 243l74 520q-86 201 -295 201zM2009 1061l-4 -25l-799 -1009h639l-6 -27h-676l4 25l799 1009h-598l4 27h637zM459 -18q-137 0 -221 106.5t-84 296t67 361.5
q37 96 91.5 168.5t141.5 119.5t193 47q217 0 299 -188l86 610l29 -4l-211 -1499h-25l37 281q-78 -137 -172 -218t-231 -81zM1978 1522l15 -17l-262 -186h-17l-209 186l17 17l204 -172z" />
    <glyph glyph-name="uni01C7" unicode="&#x1c7;" horiz-adv-x="1486" 
d="M408 1395l-191 -1366h590l-8 -29h-617l197 1395h29zM1360 1395l-170 -1219q-20 -154 -81.5 -230.5t-227.5 -144.5l-9 25q152 63 210.5 137t78.5 217l170 1215h29z" />
    <glyph glyph-name="uni01C8" unicode="&#x1c8;" horiz-adv-x="1443" 
d="M1272 1061l-150 -1053q-25 -182 -83 -261t-189 -142l-10 20q123 61 177 137t79 248l147 1051h29zM408 1395l-191 -1366h590l-8 -29h-617l197 1395h29zM1309 1409q-33 0 -29 29.5t32 29.5t25.5 -29.5t-28.5 -29.5z" />
    <glyph glyph-name="uni01C9" unicode="&#x1c9;" horiz-adv-x="1110" 
d="M938 1061l-150 -1053q-25 -182 -83 -261t-189 -142l-10 20q123 61 177 137t79 248l147 1051h29zM975 1409q-33 0 -29 29.5t32 29.5t26 -29.5t-29 -29.5zM305 8q45 0 84 17l6 -25q-39 -18 -92 -18q-143 0 -119 161l189 1356l28 2l-190 -1360q-16 -133 94 -133z" />
    <glyph glyph-name="uni01CA" unicode="&#x1ca;" horiz-adv-x="1914" 
d="M1212 1395l-196 -1395h-37l-580 1364q-6 -80 -39 -311l-149 -1053h-29l197 1395h37l579 -1360q25 197 43 330l146 1030h28zM1788 1395l-170 -1219q-20 -154 -81.5 -230.5t-227.5 -144.5l-9 25q152 63 210.5 137t78.5 217l170 1215h29z" />
    <glyph glyph-name="uni01CB" unicode="&#x1cb;" horiz-adv-x="1871" 
d="M1700 1061l-150 -1053q-25 -182 -83 -261t-189 -142l-10 20q123 61 177 137t79 248l147 1051h29zM1212 1395l-196 -1395h-37l-580 1364q-6 -80 -39 -311l-149 -1053h-29l197 1395h37l579 -1360q25 197 43 330l146 1030h28zM1737 1409q-33 0 -29 29.5t32 29.5t25.5 -29.5
t-28.5 -29.5z" />
    <glyph glyph-name="uni01CC" unicode="&#x1cc;" horiz-adv-x="1714" 
d="M1542 1061l-149 -1053q-25 -182 -83.5 -261t-189.5 -142l-10 20q123 61 177 137t79 248l147 1051h29zM756 1081q133 0 192.5 -86t36.5 -241l-106 -754h-29l106 754q41 303 -202 303q-133 0 -245 -98.5t-216 -301.5l-92 -657h-29l150 1061h24l-45 -346q189 366 455 366z
M1579 1409q-33 0 -29 29.5t32 29.5t26 -29.5t-29 -29.5z" />
    <glyph glyph-name="uni01CD" unicode="&#x1cd;" horiz-adv-x="1140" 
d="M240 453h639l-191 915zM973 0l-88 424h-660l-207 -424h-30l686 1395h35l295 -1395h-31zM711 1561h-17l-211 174l17 16l207 -160l249 162l17 -18z" />
    <glyph glyph-name="uni01CE" unicode="&#x1ce;" horiz-adv-x="1114" 
d="M680 1057q-137 0 -239.5 -64.5t-158.5 -168.5q-110 -203 -110 -439q0 -174 77 -275.5t216 -101.5q211 0 356 256l109 721q-113 72 -250 72zM683.5 1081q146.5 0 274.5 -84l-114 -759q-8 -82 -8 -101q0 -102 77 -133l-8 -22q-66 23 -83 80t-7 153q-66 -113 -157 -173
t-193 -60q-152 0 -237 108.5t-85 292.5q0 241 117 457q59 108 168 174.5t255.5 66.5zM981 1522l14 -17l-262 -186h-16l-209 186l16 17l205 -172z" />
    <glyph glyph-name="uni01CF" unicode="&#x1cf;" horiz-adv-x="544" 
d="M408 1395l-195 -1395h-31l197 1395h29zM659 1753l17 -18l-262 -174h-17l-211 174l17 16l207 -160z" />
    <glyph glyph-name="uni01D0" unicode="&#x1d0;" horiz-adv-x="522" 
d="M350 1061l-149 -1061h-29l150 1061h28zM629 1522l14 -17l-262 -186h-16l-209 186l16 17l205 -172z" />
    <glyph glyph-name="uni01D1" unicode="&#x1d1;" horiz-adv-x="1409" 
d="M825 1389q-166 0 -291.5 -87.5t-193.5 -224.5q-133 -268 -133 -535.5t111.5 -400.5t310.5 -133q139 0 250.5 59.5t179 149.5t113.5 210q80 210 79.5 454t-112 376t-314.5 132zM827 1415q215 0 335 -140t120 -392q0 -253 -87 -473q-48 -122 -118.5 -216t-187.5 -153
t-260 -59q-213 0 -333 141t-120 389t90 472q49 122 121 216t186.5 154.5t253.5 60.5zM1090 1753l16 -18l-262 -174h-17l-211 174l17 16l207 -160z" />
    <glyph glyph-name="uni01D2" unicode="&#x1d2;" 
d="M663.5 1057q-141.5 0 -238.5 -65.5t-149 -169.5q-102 -202 -102 -406.5t85 -306t225.5 -101.5t237.5 66q98 66 150 170q102 202 101.5 407t-84.5 305.5t-225.5 100.5zM666.5 1081q150.5 0 242.5 -106.5t92 -319.5t-107 -427q-54 -108 -157.5 -177t-255 -69t-244 108.5
t-92.5 323.5q0 214 110 426q56 108 158.5 174.5t253 66.5zM942 1522l14 -17l-262 -186h-16l-209 186l16 17l205 -172z" />
    <glyph glyph-name="uni01D3" unicode="&#x1d3;" horiz-adv-x="1308" 
d="M578 -18q-215 0 -299 119.5t-56 322.5l135 971h31l-137 -969q-55 -418 328 -418q201 0 310 112.5t136 307.5l135 967h31l-137 -973q-29 -203 -145.5 -321.5t-331.5 -118.5zM1040 1753l17 -18l-262 -174h-17l-211 174l17 16l207 -160z" />
    <glyph glyph-name="uni01D4" unicode="&#x1d4;" horiz-adv-x="1177" 
d="M448 -18q-134 0 -199 84t-44 241l106 754h29l-107 -754q-20 -147 37.5 -223t180.5 -76q266 0 432 383l94 670h29l-150 -1061h-22l45 338q-72 -168 -184.5 -262t-246.5 -94zM950 1522l15 -17l-263 -186h-16l-209 186l17 17l204 -172z" />
    <glyph glyph-name="uni01D5" unicode="&#x1d5;" horiz-adv-x="1308" 
d="M578 -18q-215 0 -299 119.5t-56 322.5l135 971h31l-137 -969q-55 -418 328 -418q201 0 310 112.5t136 307.5l135 967h31l-137 -973q-29 -203 -145.5 -321.5t-331.5 -118.5zM959 1577q30 0 26 -29t-31 -28q-14 0 -22 9t-6 21q3 27 33 27zM631 1577q33 0 28.5 -29
t-30.5 -28q-29 0 -29 30q4 27 31 27zM1016 1724h-410l4 29h410z" />
    <glyph glyph-name="uni01D6" unicode="&#x1d6;" horiz-adv-x="1177" 
d="M448 -18q-134 0 -199 84t-44 241l106 754h29l-107 -754q-20 -147 37.5 -223t180.5 -76q266 0 432 383l94 670h29l-150 -1061h-22l45 338q-72 -168 -184.5 -262t-246.5 -94zM871 1378q30 0 26 -28.5t-31 -28.5q-14 0 -22 9t-6 22q3 26 33 26zM543 1378q33 0 28.5 -28.5
t-32 -28.5t-27.5 31q4 26 31 26zM930 1532h-410l4 29h410z" />
    <glyph glyph-name="uni01D7" unicode="&#x1d7;" horiz-adv-x="1308" 
d="M578 -18q-215 0 -299 119.5t-56 322.5l135 971h31l-137 -969q-55 -418 328 -418q201 0 310 112.5t136 307.5l135 967h31l-137 -973q-29 -203 -145.5 -321.5t-331.5 -118.5zM772 1520q-12 0 -20.5 9t-6.5 21q4 27 31 27h23q33 0 28.5 -29t-30.5 -28h-25zM1014 1835
l-228 -225l-16 14l223 234z" />
    <glyph glyph-name="uni01D8" unicode="&#x1d8;" horiz-adv-x="1177" 
d="M448 -18q-134 0 -199 84t-44 241l106 754h29l-107 -754q-20 -147 37.5 -223t180.5 -76q266 0 432 383l94 670h29l-150 -1061h-22l45 338q-72 -168 -184.5 -262t-246.5 -94zM696 1321h-24q-12 0 -20.5 9t-6.5 22q4 27 33 26h22q31 0 27 -28.5t-31 -28.5zM909 1636
l-227 -225l-16 14l223 234z" />
    <glyph glyph-name="uni01D9" unicode="&#x1d9;" horiz-adv-x="1308" 
d="M578 -18q-215 0 -299 119.5t-56 322.5l135 971h31l-137 -969q-55 -418 328 -418q201 0 310 112.5t136 307.5l135 967h31l-137 -973q-29 -203 -145.5 -321.5t-331.5 -118.5zM803 1577q31 0 26 -31q0 -27 -30 -26h-24q-13 0 -21.5 9t-5.5 21q4 27 32 27h23zM803 1602h-17
l-211 174l17 16l207 -160l250 162l16 -18z" />
    <glyph glyph-name="uni01DA" unicode="&#x1da;" horiz-adv-x="1177" 
d="M448 -18q-134 0 -199 84t-44 241l106 754h29l-107 -754q-20 -147 37.5 -223t180.5 -76q266 0 432 383l94 670h29l-150 -1061h-22l45 338q-72 -168 -184.5 -262t-246.5 -94zM700 1378q31 0 27 -28.5t-31 -28.5h-24q-12 0 -20.5 9t-6.5 22q4 27 33 26h22zM700 1403h-16
l-211 174l16 16l207 -159l250 161l17 -18z" />
    <glyph glyph-name="uni01DB" unicode="&#x1db;" horiz-adv-x="1308" 
d="M578 -18q-215 0 -299 119.5t-56 322.5l135 971h31l-137 -969q-55 -418 328 -418q201 0 310 112.5t136 307.5l135 967h31l-137 -973q-29 -203 -145.5 -321.5t-331.5 -118.5zM801 1577q33 0 28.5 -29t-30.5 -28h-24q-13 0 -21.5 9t-5.5 21q4 27 30 27h23zM827 1624l-18 -14
l-168 225l27 23z" />
    <glyph glyph-name="uni01DC" unicode="&#x1dc;" horiz-adv-x="1177" 
d="M448 -18q-134 0 -199 84t-44 241l106 754h29l-107 -754q-20 -147 37.5 -223t180.5 -76q266 0 432 383l94 670h29l-150 -1061h-22l45 338q-72 -168 -184.5 -262t-246.5 -94zM700 1378q33 0 29 -28.5t-31 -28.5h-22q-33 0 -29 29t31 28h22zM721 1425l-19 -14l-167 225
l26 23z" />
    <glyph glyph-name="uni01DD" unicode="&#x1dd;" horiz-adv-x="1060" 
d="M397 4q119 0 212 55.5t149 145.5q106 173 125 389q-752 -45 -752 -377q0 -98 73.5 -155.5t192.5 -57.5zM562 1079q169 0 262.5 -106.5t93.5 -302t-73 -363.5q-40 -92 -97.5 -163.5t-148.5 -117.5t-211 -46t-203 63t-83 174q0 174 197 277.5t586 123.5q2 16 2 48
q0 190 -85 288.5t-241 98.5t-317 -117l-17 22q166 121 335 121z" />
    <glyph glyph-name="uni01DE" unicode="&#x1de;" horiz-adv-x="1140" 
d="M240 453h639l-191 915zM973 0l-88 424h-660l-207 -424h-30l686 1395h35l295 -1395h-31zM873.5 1577q29.5 0 25.5 -29t-31 -28q-14 0 -22 9t-6 21q4 27 33.5 27zM542 1520q-28 0 -28 30q4 27 31 27q33 0 28 -31q-3 -26 -31 -26zM934 1753l-4 -29h-410l4 29h410z" />
    <glyph glyph-name="uni01DF" unicode="&#x1df;" horiz-adv-x="1114" 
d="M680 1057q-137 0 -239.5 -64.5t-158.5 -168.5q-110 -203 -110 -439q0 -174 77 -275.5t216 -101.5q211 0 356 256l109 721q-113 72 -250 72zM683.5 1081q146.5 0 274.5 -84l-114 -759q-8 -82 -8 -101q0 -102 77 -133l-8 -22q-66 23 -83 80t-7 153q-66 -113 -157 -173
t-193 -60q-152 0 -237 108.5t-85 292.5q0 241 117 457q59 108 168 174.5t255.5 66.5zM902 1378q30 0 26 -28.5t-31 -28.5q-14 0 -22.5 9t-6.5 22q4 26 34 26zM573 1378q33 0 29 -28.5t-32 -28.5t-27 31q3 26 30 26zM961 1532h-410l4 29h410z" />
    <glyph glyph-name="uni01E0" unicode="&#x1e0;" horiz-adv-x="1140" 
d="M240 453h639l-191 915zM973 0l-88 424h-660l-207 -424h-30l686 1395h35l295 -1395h-31zM711 1532q-33 0 -29 30t31 29q29 0 26.5 -29.5t-28.5 -29.5zM940 1753l-4 -29h-410l4 29h410z" />
    <glyph glyph-name="uni01E1" unicode="&#x1e1;" horiz-adv-x="1114" 
d="M680 1057q-137 0 -239.5 -64.5t-158.5 -168.5q-110 -203 -110 -439q0 -174 77 -275.5t216 -101.5q211 0 356 256l109 721q-113 72 -250 72zM683.5 1081q146.5 0 274.5 -84l-114 -759q-8 -82 -8 -101q0 -102 77 -133l-8 -22q-66 23 -83 80t-7 153q-66 -113 -157 -173
t-193 -60q-152 0 -237 108.5t-85 292.5q0 241 117 457q59 108 168 174.5t255.5 66.5zM725 1294q-33 0 -29 30t32 30t28 -31q-4 -29 -31 -29zM956 1516h-409l4 28h410z" />
    <glyph glyph-name="uni01E2" unicode="&#x1e2;" horiz-adv-x="1542" 
d="M823 436l-114 934l-490 -934h604zM1452 1366h-715l76 -614h539l-4 -27h-533l86 -696h477l-4 -29h-500l-49 410h-620l-215 -410h-33l735 1395h766zM1290 1692l-4 -29h-409l4 29h409z" />
    <glyph glyph-name="uni01E3" unicode="&#x1e3;" horiz-adv-x="1710" 
d="M573 584q-225 0 -330.5 -96.5t-105.5 -239.5q0 -109 65.5 -174.5t185.5 -65.5t218.5 60.5t200.5 195.5q-31 138 6 320h-240zM1321.5 1057q-110.5 0 -195 -42t-136.5 -105.5t-102 -175.5t-63 -267q379 20 566.5 117.5t187.5 257.5q0 98 -73.5 156.5t-184 58.5zM597 1081
q130 0 211 -71.5t89 -200.5q33 75 103 143q134 129 315 129q127 0 210 -64.5t83 -172.5q0 -176 -198 -278.5t-587 -123.5q-6 -188 71 -311t244 -123t328 117l15 -23q-166 -121 -338 -120q-260 0 -330 254q-104 -135 -203.5 -194.5t-227.5 -59.5t-202 73.5t-74 192.5
q0 156 114 258t349 102h250q27 102 55 168q-2 135 -77.5 208t-199.5 73t-302 -70l-6 25q178 69 308 69zM1182 1405h-410l4 29h410z" />
    <glyph glyph-name="uni01E4" unicode="&#x1e4;" horiz-adv-x="1261" 
d="M649 -18q-223 0 -348 140t-125 406q0 328 160 595q78 130 206 211t297.5 81t313.5 -119l-20 -20q-129 111 -293.5 110.5t-287 -79t-196.5 -205.5q-150 -258 -149 -576q0 -252 116.5 -385t325.5 -133q168 0 340 90l49 344h-293l3 27h294l31 219h-301l-2 27h336l-35 -246
h164l-2 -27h-166l-49 -360q-186 -100 -369 -100z" />
    <glyph glyph-name="uni01E5" unicode="&#x1e5;" horiz-adv-x="999" 
d="M467 27q217 0 362 264l101 694q-113 72 -249 72t-238.5 -62.5t-158.5 -162.5q-108 -196 -108 -426q0 -172 77 -275.5t214 -103.5zM430 -373q233 0 318 211h-287l4 29h293q12 39 26 115l37 260q-135 -242 -354 -242q-150 0 -235 111.5t-86 300.5t73 353q41 91 99.5 159.5
t151.5 112.5t227.5 44t263.5 -84l-148 -1011q-14 -74 -27 -119h166l-4 -29h-172q-90 -236 -346 -235q-184 0 -332 94l13 22q147 -92 319 -92z" />
    <glyph glyph-name="Gcaron" unicode="&#x1e6;" horiz-adv-x="1234" 
d="M839 1415q170 0 314 -119l-20 -20q-129 111 -293.5 110.5t-287 -79t-196.5 -205.5q-150 -258 -149 -576q0 -252 116.5 -385t325.5 -133q168 0 340 90l84 590h-301l-2 27h336l-88 -633q-186 -100 -369 -100q-223 0 -348 140t-125 406q0 328 160 595q78 130 205.5 211
t297.5 81zM1087 1753l17 -18l-262 -174h-17l-211 174l17 16l207 -160z" />
    <glyph glyph-name="gcaron" unicode="&#x1e7;" horiz-adv-x="1130" 
d="M681 1057q-136 0 -238.5 -62.5t-158.5 -162.5q-108 -196 -108 -426q0 -172 77 -275.5t214 -103.5q217 0 362 264l101 694q-113 72 -249 72zM697.5 1081q134.5 0 263.5 -84l-148 -1011q-55 -383 -383 -383q-184 0 -332 94l13 22q147 -92 319 -92q301 0 354 355l37 260
q-135 -242 -354 -242q-150 0 -235 111.5t-86 300.5t73 353q41 91 99.5 159.5t151.5 112.5t227.5 44zM938 1522l14 -17l-262 -186h-16l-209 186l16 17l205 -172z" />
    <glyph glyph-name="uni01E8" unicode="&#x1e8;" horiz-adv-x="1040" 
d="M1110 1395l-750 -645l588 -750h-37l-587 750l749 645h37zM408 1395l-195 -1393h-31l197 1393h29zM973 1753l16 -18l-262 -174h-16l-211 174l16 16l207 -160z" />
    <glyph glyph-name="uni01E9" unicode="&#x1e9;" horiz-adv-x="1038" 
d="M752 1081q102 0 161.5 -56t59.5 -155q0 -254 -379 -376l254 -494h-31l-260 506q385 117 385 362q0 88 -48 138.5t-144 50.5q-260 0 -463 -445l-86 -612h-29l211 1499l29 2l-115 -823q186 403 455 403zM979 1853l16 -18l-262 -174h-16l-211 174l16 16l207 -159z" />
    <glyph glyph-name="uni01EA" unicode="&#x1ea;" horiz-adv-x="1409" 
d="M629 8q139 0 250.5 59.5t179 149.5t113.5 210q80 210 79.5 454t-112 376t-314.5 132q-166 0 -291.5 -87.5t-193.5 -224.5q-133 -268 -133 -535.5t111.5 -400.5t310.5 -133zM475 -262q0 -117 133 -117q47 0 111 14l-6 -28q-161 -38 -228 21q-41 36 -41 111q0 140 238 245
q-16 -2 -53 -2q-213 0 -333 141t-120 389t90 472q49 122 121 216t186.5 154.5t253.5 60.5q215 0 335 -140t120 -404t-110 -520q-56 -132 -162.5 -229t-247.5 -128q-143 -57 -215 -115.5t-72 -140.5z" />
    <glyph glyph-name="uni01EB" unicode="&#x1eb;" 
d="M484.5 8q140.5 0 237.5 66q98 66 150 170q102 202 101.5 407t-84.5 305.5t-225.5 100.5t-238.5 -65.5t-149 -169.5q-102 -202 -102 -406.5t85 -306t225.5 -101.5zM324 -262q0 -117 133 -117q47 0 110 14l-6 -28q-160 -38 -227 21q-41 36 -41 100q0 152 235 254h-30
q-168 0 -260.5 108.5t-92.5 323.5q0 214 110 426q56 108 158.5 174.5t253 66.5t242.5 -106.5t92 -308.5q1 -202 -83 -394q-44 -100 -124 -175.5t-186 -102.5q-141 -57 -212.5 -116.5t-71.5 -139.5z" />
    <glyph glyph-name="uni01EC" unicode="&#x1ec;" horiz-adv-x="1409" 
d="M629 8q139 0 250.5 59.5t179 149.5t113.5 210q80 210 79.5 454t-112 376t-314.5 132q-166 0 -291.5 -87.5t-193.5 -224.5q-133 -268 -133 -535.5t111.5 -400.5t310.5 -133zM475 -262q0 -117 133 -117q47 0 111 14l-6 -28q-161 -38 -228 21q-41 36 -41 111q0 140 238 245
q-16 -2 -53 -2q-213 0 -333 141t-120 389t90 472q49 122 121 216t186.5 154.5t253.5 60.5q215 0 335 -140t120 -404t-110 -520q-56 -132 -162.5 -229t-247.5 -128q-143 -57 -215 -115.5t-72 -140.5zM1071 1692l-4 -29h-410l5 29h409z" />
    <glyph glyph-name="uni01ED" unicode="&#x1ed;" 
d="M484.5 8q140.5 0 237.5 66q98 66 150 170q102 202 101.5 407t-84.5 305.5t-225.5 100.5t-238.5 -65.5t-149 -169.5q-102 -202 -102 -406.5t85 -306t225.5 -101.5zM324 -262q0 -117 133 -117q47 0 110 14l-6 -28q-160 -38 -227 21q-41 36 -41 100q0 152 235 254h-30
q-168 0 -260.5 108.5t-92.5 323.5q0 214 110 426q56 108 158.5 174.5t253 66.5t242.5 -106.5t92 -308.5q1 -202 -83 -394q-44 -100 -124 -175.5t-186 -102.5q-141 -57 -212.5 -116.5t-71.5 -139.5zM905 1434l-4 -29h-409l4 29h409z" />
    <glyph glyph-name="uni01EE" unicode="&#x1ee;" horiz-adv-x="960" 
d="M449 756q207 0 306 -91.5t84 -271.5t-142.5 -295.5t-327.5 -115.5q-236 0 -371 163l20 17q68 -78 148 -116t203 -38q190 0 307 108.5t133 284.5q27 326 -360 326h-156l4 29l577 612h-681l4 27h721l-3 -25l-581 -614h115zM598 1561h-16l-211 174l16 16l207 -160l250 162
l16 -18z" />
    <glyph glyph-name="uni01EF" unicode="&#x1ef;" horiz-adv-x="905" 
d="M356 393q401 0 402 -315q0 -209 -128 -343t-340 -134t-345 166l20 14q129 -154 328 -154t316.5 127t117.5 324q0 289 -371 289h-106l4 26l543 641h-639l4 27h678l-4 -25l-547 -643h67zM545 1319h-17l-209 186l17 17l205 -172l252 172l14 -17z" />
    <glyph glyph-name="uni01F0" unicode="&#x1f0;" horiz-adv-x="524" 
d="M352 1061l-149 -1053q-25 -182 -83.5 -261t-189.5 -142l-10 20q123 61 177.5 137t78.5 248l148 1051h28zM629 1522l14 -17l-262 -186h-16l-209 186l16 17l205 -172z" />
    <glyph glyph-name="uni01F1" unicode="&#x1f1;" horiz-adv-x="2281" 
d="M608 1366h-205l-186 -1337h215q145 0 263 51t194 135q217 240 217 672q0 230 -98 338t-252 131q-66 10 -148 10zM612 1395q216 1 360 -95q165 -110 165 -401q0 -458 -231 -709q-79 -86 -201.5 -138t-274.5 -52h-248l197 1395h233zM1255 0l5 27l999 1339h-733l2 29h772
l-2 -27l-1000 -1339h781l-8 -29h-816z" />
    <glyph glyph-name="uni01F2" unicode="&#x1f2;" horiz-adv-x="2103" 
d="M2101 1061l-4 -25l-799 -1009h639l-6 -27h-676l5 25l798 1009h-598l4 27h637zM608 1366h-205l-186 -1337h215q145 0 263 51t194 135q217 240 217 672q0 230 -98 338t-252 131q-66 10 -148 10zM612 1395q216 1 360 -95q165 -110 165 -401q0 -458 -231 -709
q-79 -86 -201.5 -138t-274.5 -52h-248l197 1395h233z" />
    <glyph glyph-name="uni01F3" unicode="&#x1f3;" horiz-adv-x="2011" 
d="M647 1057q-123 0 -218 -66.5t-147 -172.5q-100 -206 -100 -409.5t76 -302t207 -98.5t223 85t180 243l74 520q-86 201 -295 201zM2009 1061l-4 -25l-799 -1009h639l-6 -27h-676l4 25l799 1009h-598l4 27h637zM459 -18q-137 0 -221 106.5t-84 296t67 361.5
q37 96 91.5 168.5t141.5 119.5t193 47q217 0 299 -188l86 610l29 -4l-211 -1499h-25l37 281q-78 -137 -172 -218t-231 -81z" />
    <glyph glyph-name="uni01F4" unicode="&#x1f4;" horiz-adv-x="1234" 
d="M839 1415q170 0 314 -119l-20 -20q-129 111 -293.5 110.5t-287 -79t-196.5 -205.5q-150 -258 -149 -576q0 -252 116.5 -385t325.5 -133q168 0 340 90l84 590h-301l-2 27h336l-88 -633q-186 -100 -369 -100q-223 0 -348 140t-125 406q0 328 160 595q78 130 205.5 211
t297.5 81zM1040 1749l11 -31l-375 -147l-8 20z" />
    <glyph glyph-name="uni01F5" unicode="&#x1f5;" horiz-adv-x="1130" 
d="M681 1057q-136 0 -238.5 -62.5t-158.5 -162.5q-108 -196 -108 -426q0 -172 77 -275.5t214 -103.5q217 0 362 264l101 694q-113 72 -249 72zM697.5 1081q134.5 0 263.5 -84l-148 -1011q-55 -383 -383 -383q-184 0 -332 94l13 22q147 -92 319 -92q301 0 354 355l37 260
q-135 -242 -354 -242q-150 0 -235 111.5t-86 300.5t73 353q41 91 99.5 159.5t151.5 112.5t227.5 44zM883 1546l10 -30l-379 -170l-8 20z" />
    <glyph glyph-name="uni01F6" unicode="&#x1f6;" horiz-adv-x="1959" 
d="M1788 858q0 -117 -11.5 -232.5t-45 -237.5t-86 -208t-142.5 -142t-209 -56q-156 0 -220 97t-44 238l57 412h-772l-102 -729h-31l197 1395h29l-89 -637h773l88 637h30l-151 -1078q-18 -137 40 -223t195 -86q187 0 290.5 140t139 331.5t35.5 345.5t-6 236h29q6 -86 6 -203z
" />
    <glyph glyph-name="uni01F7" unicode="&#x1f7;" horiz-adv-x="1138" 
d="M1061 1121q0 120 -75 192.5t-202 72.5q-213 0 -401 -167l-102 -727l241 79q404 133 500 344q39 86 39 206zM784 1415q141 0 224.5 -82t83.5 -223q0 -219 -148.5 -348t-421.5 -219l-246 -78l-63 -465h-31l197 1395h29l-21 -144q188 164 397 164z" />
    <glyph glyph-name="uni01F8" unicode="&#x1f8;" horiz-adv-x="1347" 
d="M1212 1395l-196 -1395h-37l-580 1364q-6 -80 -39 -311l-149 -1053h-29l197 1395h37l579 -1360q25 197 43 330l146 1030h28zM690 1749l328 -158l-12 -20l-336 147z" />
    <glyph glyph-name="uni01F9" unicode="&#x1f9;" horiz-adv-x="1189" 
d="M756 1081q133 0 192.5 -86t36.5 -241l-106 -754h-29l106 754q41 303 -202 303q-133 0 -245 -98.5t-216 -301.5l-92 -657h-29l150 1061h24l-45 -346q189 366 455 366zM596 1546l326 -182l-13 -18l-329 170z" />
    <glyph glyph-name="Aringacute" unicode="&#x1fa;" horiz-adv-x="1140" 
d="M240 453h639l-191 915zM973 0l-88 424h-660l-207 -424h-30l686 1395h35l295 -1395h-31zM734 1778q-58 0 -95 -38t-41 -94q-8 -117 104 -118q59 0 97.5 39t42.5 96q8 115 -108 115zM736.5 1800q68.5 0 103 -38t30.5 -103.5t-51 -109.5t-116 -44t-103.5 38t-30.5 103.5
t51.5 109.5t116 44zM946 1980l-375 -147l-8 20l373 158z" />
    <glyph glyph-name="aringacute" unicode="&#x1fb;" horiz-adv-x="1114" 
d="M680 1057q-137 0 -239.5 -64.5t-158.5 -168.5q-110 -203 -110 -439q0 -174 77 -275.5t216 -101.5q211 0 356 256l109 721q-113 72 -250 72zM683.5 1081q146.5 0 274.5 -84l-114 -759q-8 -82 -8 -101q0 -102 77 -133l-8 -22q-66 23 -83 80t-7 153q-66 -113 -157 -173
t-193 -60q-152 0 -237 108.5t-85 292.5q0 241 117 457q59 108 168 174.5t255.5 66.5zM737 1477q-57 0 -95 -38q-38 -39 -42 -95q-8 -117 105 -117q59 0 97 39t42 94t-23 86t-84 31zM738 1499q69 0 104 -38t30.5 -103.5t-51.5 -109.5t-116 -44t-103.5 38t-30.5 103.5
t51 109.5t116 44zM944 1714l10 -31l-374 -147l-9 20z" />
    <glyph glyph-name="AEacute" unicode="&#x1fc;" horiz-adv-x="1542" 
d="M823 436l-114 934l-490 -934h604zM1452 1366h-715l76 -614h539l-4 -27h-533l86 -696h477l-4 -29h-500l-49 410h-620l-215 -410h-33l735 1395h766zM1272 1718l-375 -147l-8 20l373 158z" />
    <glyph glyph-name="aeacute" unicode="&#x1fd;" horiz-adv-x="1710" 
d="M573 584q-225 0 -330.5 -96.5t-105.5 -239.5q0 -109 65.5 -174.5t185.5 -65.5t218.5 60.5t200.5 195.5q-31 138 6 320h-240zM1321.5 1057q-110.5 0 -195 -42t-136.5 -105.5t-102 -175.5t-63 -267q379 20 566.5 117.5t187.5 257.5q0 98 -73.5 156.5t-184 58.5zM597 1081
q130 0 211 -71.5t89 -200.5q33 75 103 143q134 129 315 129q127 0 210 -64.5t83 -172.5q0 -176 -198 -278.5t-587 -123.5q-6 -188 71 -311t244 -123t328 117l15 -23q-166 -121 -338 -120q-260 0 -330 254q-104 -135 -203.5 -194.5t-227.5 -59.5t-202 73.5t-74 192.5
q0 156 114 258t349 102h250q27 102 55 168q-2 135 -77.5 208t-199.5 73t-302 -70l-6 25q178 69 308 69zM1167 1546l11 -30l-379 -170l-8 20z" />
    <glyph glyph-name="Oslashacute" unicode="&#x1fe;" horiz-adv-x="1409" 
d="M648.5 8q119.5 0 231 59.5t179 150.5t113.5 211q80 210 79 448q0 362 -231 471l-565 -1307q74 -33 193.5 -33zM207 520q0 -358 227 -471l565 1309q-76 31 -191.5 31t-225.5 -59q-108 -60 -176 -152t-115 -210q-84 -210 -84 -448zM1282 877q0 -247 -87 -467
q-48 -122 -118.5 -216t-187.5 -153t-240.5 -59t-204.5 32l-102 -235l-25 10l105 236q-246 119 -246 495q0 240 90 464q49 122 121 216t186.5 154.5t236 60.5t200.5 -33l104 244l27 -10l-109 -242q250 -115 250 -497zM1049 1726l-375 -147l-8 20l372 158z" />
    <glyph glyph-name="oslashacute" unicode="&#x1ff;" 
d="M498 8q127 0 224 66q98 66 150 170q102 202 101.5 442t-158.5 332l-461 -981q64 -29 144 -29zM651 1057q-129 0 -226 -65.5t-149 -169.5q-102 -202 -102 -425q0 -262 160 -350l461 981q-63 29 -144 29zM145 397q0 231 110 443q56 108 158.5 174.5t237.5 66.5
q84 0 154 -28l117 247l24 -6l-117 -254q172 -96 172 -368q0 -230 -107 -444q-54 -108 -157.5 -177t-238.5 -69q-84 0 -154 28l-121 -248l-24 9l120 252q-174 98 -174 374zM887 1546l10 -30l-379 -170l-8 20z" />
    <glyph glyph-name="uni0200" unicode="&#x200;" horiz-adv-x="1140" 
d="M240 453h639l-191 915zM973 0l-88 424h-660l-207 -424h-30l686 1395h35l295 -1395h-31zM852 1694l-23 -11l-104 246l33 17zM641 1688l-23 -11l-112 256l31 17z" />
    <glyph glyph-name="uni0201" unicode="&#x201;" horiz-adv-x="1114" 
d="M680 1057q-137 0 -239.5 -64.5t-158.5 -168.5q-110 -203 -110 -439q0 -174 77 -275.5t216 -101.5q211 0 356 256l109 721q-113 72 -250 72zM683.5 1081q146.5 0 274.5 -84l-114 -759q-8 -82 -8 -101q0 -102 77 -133l-8 -22q-66 23 -83 80t-7 153q-66 -113 -157 -173
t-193 -60q-152 0 -237 108.5t-85 292.5q0 241 117 457q59 108 168 174.5t255.5 66.5zM756 1612l94 -252l-23 -10l-104 245zM535 1616l104 -262l-23 -11l-112 256z" />
    <glyph glyph-name="uni0202" unicode="&#x202;" horiz-adv-x="1140" 
d="M240 453h639l-191 915zM973 0l-88 424h-660l-207 -424h-30l686 1395h35l295 -1395h-31zM739 1784q-152 0 -209 -142l-20 9q25 72 87 116.5t146 44.5t133.5 -46t55.5 -117l-23 -4q-18 139 -170 139z" />
    <glyph glyph-name="uni0203" unicode="&#x203;" horiz-adv-x="1114" 
d="M680 1057q-137 0 -239.5 -64.5t-158.5 -168.5q-110 -203 -110 -439q0 -174 77 -275.5t216 -101.5q211 0 356 256l109 721q-113 72 -250 72zM683.5 1081q146.5 0 274.5 -84l-114 -759q-8 -82 -8 -101q0 -102 77 -133l-8 -22q-66 23 -83 80t-7 153q-66 -113 -157 -173
t-193 -60q-152 0 -237 108.5t-85 292.5q0 241 117 457q59 108 168 174.5t255.5 66.5zM741 1479q84 0 133.5 -46.5t55.5 -117.5l-23 -4q-18 139 -170 139t-209 -141l-20 8q25 72 87 117t146 45z" />
    <glyph glyph-name="uni0204" unicode="&#x204;" horiz-adv-x="1011" 
d="M1022 1395l-6 -29h-613l-84 -614h525l-4 -27h-525l-98 -696h631l-4 -29h-662l197 1395h643zM772 1946l94 -252l-22 -11l-105 246zM551 1950l104 -262l-22 -11l-113 256z" />
    <glyph glyph-name="uni0205" unicode="&#x205;" horiz-adv-x="1060" 
d="M664 1057q-119 0 -212.5 -55.5t-148.5 -145.5q-111 -181 -127 -389q754 41 754 377q0 98 -73.5 155.5t-192.5 57.5zM958 844q0 -358 -784 -402v-47q0 -190 85 -288.5t241 -98.5t317 117l17 -23q-166 -121 -335 -120.5t-262.5 107t-93.5 302t73 363.5q40 92 97.5 163.5
t148.5 117.5t211 46t202.5 -63t82.5 -174zM793 1360l-23 -10l-104 245l32 17zM582 1354l-23 -11l-113 256l31 17z" />
    <glyph glyph-name="uni0206" unicode="&#x206;" horiz-adv-x="1011" 
d="M1022 1395l-6 -29h-613l-84 -614h525l-4 -27h-525l-98 -696h631l-4 -29h-662l197 1395h643zM758 1812q84 0 133 -46t55 -117l-22 -4q-18 139 -170 138.5t-209 -141.5l-21 9q25 72 87.5 116.5t146.5 44.5z" />
    <glyph glyph-name="uni0207" unicode="&#x207;" horiz-adv-x="1060" 
d="M664 1057q-119 0 -212.5 -55.5t-148.5 -145.5q-111 -181 -127 -389q754 41 754 377q0 98 -73.5 155.5t-192.5 57.5zM958 844q0 -358 -784 -402v-47q0 -190 85 -288.5t241 -98.5t317 117l17 -23q-166 -121 -335 -120.5t-262.5 107t-93.5 302t73 363.5q40 92 97.5 163.5
t148.5 117.5t211 46t202.5 -63t82.5 -174zM680 1450q-152 0 -209 -141l-20 8q25 72 87 117t146 45t133 -46.5t55 -117.5l-22 -4q-18 139 -170 139z" />
    <glyph glyph-name="uni0208" unicode="&#x208;" horiz-adv-x="544" 
d="M408 1395l-195 -1395h-31l197 1395h29zM461 1946l94 -252l-23 -11l-104 246zM240 1950l104 -262l-22 -11l-113 256z" />
    <glyph glyph-name="uni0209" unicode="&#x209;" horiz-adv-x="522" 
d="M350 1061l-149 -1061h-29l150 1061h28zM414 1612l94 -252l-25 -10l-102 245zM190 1616l107 -262l-25 -11l-112 256z" />
    <glyph glyph-name="uni020A" unicode="&#x20a;" horiz-adv-x="544" 
d="M408 1395l-195 -1395h-31l197 1395h29zM446 1812q84 0 133.5 -46t55.5 -117l-23 -4q-18 139 -170 138.5t-209 -141.5l-20 9q25 72 87 116.5t146 44.5z" />
    <glyph glyph-name="uni020B" unicode="&#x20b;" horiz-adv-x="522" 
d="M350 1061l-149 -1061h-29l150 1061h28zM389 1479q84 0 133 -46.5t56 -117.5l-23 -4q-18 139 -170 139t-209 -141l-20 8q25 72 87 117t146 45z" />
    <glyph glyph-name="uni020C" unicode="&#x20c;" horiz-adv-x="1409" 
d="M825 1389q-166 0 -291.5 -87.5t-193.5 -224.5q-133 -268 -133 -535.5t111.5 -400.5t310.5 -133q139 0 250.5 59.5t179 149.5t113.5 210q80 210 79.5 454t-112 376t-314.5 132zM827 1415q215 0 335 -140t120 -392q0 -253 -87 -473q-48 -122 -118.5 -216t-187.5 -153
t-260 -59q-213 0 -333 141t-120 389t90 472q49 122 121 216t186.5 154.5t253.5 60.5zM891 1946l94 -252l-22 -11l-105 246zM670 1950l104 -262l-22 -11l-113 256z" />
    <glyph glyph-name="uni020D" unicode="&#x20d;" 
d="M663.5 1057q-141.5 0 -238.5 -65.5t-149 -169.5q-102 -202 -102 -406.5t85 -306t225.5 -101.5t237.5 66q98 66 150 170q102 202 101.5 407t-84.5 305.5t-225.5 100.5zM666.5 1081q150.5 0 242.5 -106.5t92 -319.5t-107 -427q-54 -108 -157.5 -177t-255 -69t-244 108.5
t-92.5 323.5q0 214 110 426q56 108 158.5 174.5t253 66.5zM715 1612l94 -252l-23 -10l-104 245zM494 1616l104 -262l-23 -11l-112 256z" />
    <glyph glyph-name="uni020E" unicode="&#x20e;" horiz-adv-x="1409" 
d="M825 1389q-166 0 -291.5 -87.5t-193.5 -224.5q-133 -268 -133 -535.5t111.5 -400.5t310.5 -133q139 0 250.5 59.5t179 149.5t113.5 210q80 210 79.5 454t-112 376t-314.5 132zM827 1415q215 0 335 -140t120 -392q0 -253 -87 -473q-48 -122 -118.5 -216t-187.5 -153
t-260 -59q-213 0 -333 141t-120 389t90 472q49 122 121 216t186.5 154.5t253.5 60.5zM877 1812q84 0 133 -46t55 -117l-23 -4q-18 139 -169.5 138.5t-208.5 -141.5l-21 9q25 72 87.5 116.5t146.5 44.5z" />
    <glyph glyph-name="uni020F" unicode="&#x20f;" 
d="M663.5 1057q-141.5 0 -238.5 -65.5t-149 -169.5q-102 -202 -102 -406.5t85 -306t225.5 -101.5t237.5 66q98 66 150 170q102 202 101.5 407t-84.5 305.5t-225.5 100.5zM666.5 1081q150.5 0 242.5 -106.5t92 -319.5t-107 -427q-54 -108 -157.5 -177t-255 -69t-244 108.5
t-92.5 323.5q0 214 110 426q56 108 158.5 174.5t253 66.5zM700 1479q84 0 133.5 -46.5t55.5 -117.5l-23 -4q-18 139 -170 139t-209 -141l-20 8q25 72 87 117t146 45z" />
    <glyph glyph-name="uni0210" unicode="&#x210;" horiz-adv-x="1163" 
d="M631 700q145 0 243.5 62.5t136.5 147.5t38 202t-87.5 185.5t-285.5 68.5h-273l-92 -666h320zM1079 1096q0 -158 -94 -279t-295 -143l299 -674h-33l-297 672h-352l-94 -672h-31l197 1395h295q405 0 405 -299zM864 1694l-22 -11l-105 246l33 17zM653 1688l-22 -11l-113 256
l31 17z" />
    <glyph glyph-name="uni0211" unicode="&#x211;" horiz-adv-x="741" 
d="M678 1081q53 0 96 -14l-8 -25q-39 14 -88 15q-127 0 -215 -88t-164 -285l-98 -684h-29l150 1061h24l-43 -311q68 174 157 252.5t218 78.5zM612 1612l95 -252l-23 -10l-104 245zM391 1616l105 -262l-23 -11l-113 256z" />
    <glyph glyph-name="uni0212" unicode="&#x212;" horiz-adv-x="1163" 
d="M631 700q145 0 243.5 62.5t136.5 147.5t38 202t-87.5 185.5t-285.5 68.5h-273l-92 -666h320zM1079 1096q0 -158 -94 -279t-295 -143l299 -674h-33l-297 672h-352l-94 -672h-31l197 1395h295q405 0 405 -299zM752 1784q-152 0 -209 -142l-21 9q25 72 87.5 116.5
t146.5 44.5t133 -46t55 -117l-22 -4q-18 139 -170 139z" />
    <glyph glyph-name="uni0213" unicode="&#x213;" horiz-adv-x="741" 
d="M678 1081q53 0 96 -14l-8 -25q-39 14 -88 15q-127 0 -215 -88t-164 -285l-98 -684h-29l150 1061h24l-43 -311q68 174 157 252.5t218 78.5zM596 1479q84 0 133 -46.5t55 -117.5l-22 -4q-18 139 -170 139t-209 -141l-21 8q25 72 87.5 117t146.5 45z" />
    <glyph glyph-name="uni0214" unicode="&#x214;" horiz-adv-x="1308" 
d="M578 -18q-215 0 -299 119.5t-56 322.5l135 971h31l-137 -969q-55 -418 328 -418q201 0 310 112.5t136 307.5l135 967h31l-137 -973q-29 -203 -145.5 -321.5t-331.5 -118.5zM842 1946l94 -252l-23 -11l-104 246zM621 1950l104 -262l-23 -11l-112 256z" />
    <glyph glyph-name="uni0215" unicode="&#x215;" horiz-adv-x="1177" 
d="M448 -18q-134 0 -199 84t-44 241l106 754h29l-107 -754q-20 -147 37.5 -223t180.5 -76q266 0 432 383l94 670h29l-150 -1061h-22l45 338q-72 -168 -184.5 -262t-246.5 -94zM725 1612l94 -252l-22 -10l-105 245zM504 1616l104 -262l-22 -11l-113 256z" />
    <glyph glyph-name="uni0216" unicode="&#x216;" horiz-adv-x="1308" 
d="M578 -18q-215 0 -299 119.5t-56 322.5l135 971h31l-137 -969q-55 -418 328 -418q201 0 310 112.5t136 307.5l135 967h31l-137 -973q-29 -203 -145.5 -321.5t-331.5 -118.5zM827 1812q84 0 133.5 -46t55.5 -117l-23 -4q-18 139 -170 138.5t-209 -141.5l-20 9
q25 72 87 116.5t146 44.5z" />
    <glyph glyph-name="uni0217" unicode="&#x217;" horiz-adv-x="1177" 
d="M448 -18q-134 0 -199 84t-44 241l106 754h29l-107 -754q-20 -147 37.5 -223t180.5 -76q266 0 432 383l94 670h29l-150 -1061h-22l45 338q-72 -168 -184.5 -262t-246.5 -94zM711 1479q84 0 133 -46.5t55 -117.5l-22 -4q-18 139 -170 139t-209 -141l-21 8q25 72 87.5 117
t146.5 45z" />
    <glyph glyph-name="Scommaaccent" unicode="&#x218;" horiz-adv-x="1099" 
d="M393 -242q0 37 35 37t35 -31q0 -18 -27 -65l-92 -211h-20l92 242q-23 10 -23 28zM665 1415q206 0 345 -139l-21 -19q-127 131 -318 131.5t-293 -96t-102 -217.5t69 -184.5t246 -121.5t259 -140t82 -221q0 -226 -203 -354q-113 -72 -274 -72q-231 0 -389 163l20 21
q74 -78 158 -118t207 -40t214 39t140 101q98 125 98 257t-75.5 206.5t-253.5 132.5t-253 129t-75 199t106.5 235.5t312.5 107.5z" />
    <glyph glyph-name="scommaaccent" unicode="&#x219;" horiz-adv-x="940" 
d="M371 -205q35 0 35 -31q0 -18 -27 -65l-92 -211h-21l92 242q-23 10 -22 28q0 37 35 37zM548.5 1081q163.5 0 280.5 -108l-18 -17q-115 98 -265.5 98.5t-238.5 -64t-88 -161t57.5 -150.5t212 -103t219 -114t64.5 -187.5t-101.5 -207.5t-291 -85t-330.5 135l19 18
q137 -127 327 -127q152 0 250 73t98 208q0 98 -59 156.5t-215 108.5t-217.5 109.5t-61.5 166t97.5 179t261 72.5z" />
    <glyph glyph-name="uni021A" unicode="&#x21a;" horiz-adv-x="970" 
d="M344 -242q0 37 35 37t35 -31q0 -18 -27 -65l-92 -211h-21l93 242q-23 10 -23 28zM1059 1395l-6 -29h-435l-192 -1366h-31l193 1366h-434l4 29h901z" />
    <glyph glyph-name="uni021B" unicode="&#x21b;" horiz-adv-x="661" 
d="M363 -205q35 0 34 -31q0 -18 -26 -65l-92 -211h-21l92 242q-23 10 -22 28q0 37 35 37zM383 6q94 0 195 57l12 -24q-104 -57 -209 -57t-155 66.5t-33 187.5l110 800h-176l4 25h176l45 272l23 2l-39 -274h297l-8 -25h-291l-113 -798q-16 -111 26 -171.5t136 -60.5z" />
    <glyph glyph-name="uni021C" unicode="&#x21c;" horiz-adv-x="1005" 
d="M596 1415q147 0 231 -81t84 -228.5t-97 -246.5t-251 -120q137 -8 218 -75.5t81 -199.5q0 -260 -242 -410q-212 -131 -575 -216v25q578 137 726 379q60 98 60 219q0 268 -346 264h-118l6 27h106q178 0 290 101t112 263q0 125 -76 197.5t-209 72.5q-209 0 -406 -163l-16 20
q205 172 422 172z" />
    <glyph glyph-name="uni021D" unicode="&#x21d;" horiz-adv-x="911" 
d="M461.5 1081q154.5 0 228.5 -66.5t74 -184t-77 -193.5t-208 -92q262 -10 262 -203q0 -356 -686 -514l-4 25q662 154 662 489q0 96 -71 141t-226 45h-123l6 27h94q160 0 250 76q90 75 90 191q0 232 -250 233q-164 0 -331 -101l-13 21q168 106 322.5 106z" />
    <glyph glyph-name="uni021E" unicode="&#x21e;" horiz-adv-x="1345" 
d="M985 0l102 729h-772l-102 -729h-31l197 1395h29l-89 -637h773l88 637h30l-196 -1395h-29zM1057 1753l16 -18l-262 -174h-16l-211 174l16 16l207 -160z" />
    <glyph glyph-name="uni021F" unicode="&#x21f;" horiz-adv-x="1189" 
d="M752 1081q279 0 233 -327l-106 -754h-29l106 754q41 303 -206 303q-131 0 -242 -98.5t-215 -301.5l-92 -657h-29l211 1499l29 4l-111 -788q189 366 451 366zM961 1853l16 -18l-262 -174h-17l-211 174l17 16l207 -159z" />
    <glyph glyph-name="uni0220" unicode="&#x220;" horiz-adv-x="1323" 
d="M868 1415q160 0 234 -99t47 -288l-199 -1417h-28l198 1415q25 180 -41.5 270t-208.5 90t-261.5 -70.5t-239.5 -205.5l-156 -1110h-31l197 1395h24l-30 -246q237 266 495 266z" />
    <glyph glyph-name="uni0221" unicode="&#x221;" horiz-adv-x="1337" 
d="M1057 8q127 0 202.5 57.5t75.5 151.5q0 57 -35.5 91t-111.5 34t-144.5 -56.5t-152.5 -183.5q39 -94 166 -94zM464 8q130 0 224 85t180 241l74 522q-86 201 -295 201q-123 0 -218 -66.5t-147 -172.5q-100 -206 -100 -409.5t76 -302t206 -98.5zM1190 367q86 0 130 -41
t44 -109q0 -100 -85 -167.5t-220 -67.5t-185 92l-122 -183l-23 11l133 198q-20 57 -8 127l6 54q-164 -299 -395 -299q-143 0 -227 106.5t-84 296t67 361.5q37 96 91.5 168.5t141.5 119.5t193 47q217 0 299 -188l86 610l29 -4l-178 -1272q-8 -47 0 -96q76 119 148.5 177.5
t158.5 58.5z" />
    <glyph glyph-name="uni0222" unicode="&#x222;" horiz-adv-x="1286" 
d="M1075 449q0 150 -100.5 236.5t-310 86.5t-351 -125t-141.5 -319q0 -145 101.5 -232.5t310 -87.5t350 121t141.5 320zM1106 449q0 -209 -151.5 -338t-372 -129t-331 95t-110.5 263t116 293t306 155q-252 51 -209 359l33 248h31l-35 -250q-49 -346 299 -346t397 348l35 248
h29l-35 -250q-41 -303 -311 -359q152 -27 230.5 -114.5t78.5 -222.5z" />
    <glyph glyph-name="uni0223" unicode="&#x223;" horiz-adv-x="1130" 
d="M936 504q0 150 -85 236.5t-243 86.5q-199 0 -322.5 -144t-123.5 -351q0 -147 86 -235.5t239 -88.5q201 0 325 140.5t124 355.5zM965 504q0 -225 -133.5 -373.5t-344.5 -148.5q-166 0 -260 95t-94 270t105.5 317.5t279.5 175.5q-236 47 -190 350l43 305h28l-45 -307
q-47 -336 254 -336q307 0 355 338l43 305h28l-43 -307q-41 -299 -291 -348q127 -23 196 -111t69 -225z" />
    <glyph glyph-name="uni0224" unicode="&#x224;" horiz-adv-x="1038" 
d="M581 -399q-91 0 -161 61l16 19q66 -53 145 -53.5t130 46.5t63 144l27 182h-789l4 27l1000 1339h-733l2 29h772l-2 -27l-1000 -1339h779l-29 -215q-16 -104 -74.5 -158.5t-149.5 -54.5z" />
    <glyph glyph-name="uni0225" unicode="&#x225;" horiz-adv-x="839" 
d="M421 -399q-89 0 -163 61l16 19q64 -53 144 -53q169 -1 196 188l25 184h-647l4 25l799 1009h-598l4 27h637l-4 -25l-799 -1009h637l-29 -213q-14 -104 -73.5 -158.5t-148.5 -54.5z" />
    <glyph glyph-name="uni0226" unicode="&#x226;" horiz-adv-x="1140" 
d="M240 453h639l-191 915zM973 0l-88 424h-660l-207 -424h-30l686 1395h35l295 -1395h-31zM735 1667q-33 0 -29 30t31 29q29 0 27 -30t-29 -29z" />
    <glyph glyph-name="uni0227" unicode="&#x227;" horiz-adv-x="1114" 
d="M680 1057q-137 0 -239.5 -64.5t-158.5 -168.5q-110 -203 -110 -439q0 -174 77 -275.5t216 -101.5q211 0 356 256l109 721q-113 72 -250 72zM683.5 1081q146.5 0 274.5 -84l-114 -759q-8 -82 -8 -101q0 -102 77 -133l-8 -22q-66 23 -83 80t-7 153q-66 -113 -157 -173
t-193 -60q-152 0 -237 108.5t-85 292.5q0 241 117 457q59 108 168 174.5t255.5 66.5zM744 1468q28 0 26 -29.5t-29 -29.5q-33 0 -28 31q3 28 31 28z" />
    <glyph glyph-name="uni0228" unicode="&#x228;" horiz-adv-x="1011" 
d="M657 -283q0 -61 -49 -102t-129 -41t-131 35l12 22q51 -31 120 -30.5t108 33t40 84.5t-39 76t-132 26l37 180h-312l197 1395h643l-6 -29h-613l-84 -614h525l-4 -27h-525l-98 -696h631l-4 -29h-328l-29 -160q170 -6 170 -123z" />
    <glyph glyph-name="uni0229" unicode="&#x229;" horiz-adv-x="1060" 
d="M664 1057q-119 0 -212.5 -55.5t-148.5 -145.5q-111 -181 -127 -389q754 41 754 377q0 98 -73.5 155.5t-192.5 57.5zM958 844q0 -358 -784 -402v-47q0 -190 85 -288.5t241 -98.5t317 117l17 -23q-166 -121 -338 -120h-15l-26 -142q172 -6 172 -123q0 -61 -49.5 -102
t-129 -41t-131.5 35l13 22q47 -31 118 -30.5t108.5 33t38.5 84.5t-39 76t-130 26l33 162q-150 12 -233 118.5t-83 296t73 357.5q40 92 97.5 163.5t148.5 117.5t211 46t202.5 -63t82.5 -174z" />
    <glyph glyph-name="uni022A" unicode="&#x22a;" horiz-adv-x="1409" 
d="M825 1389q-166 0 -291.5 -87.5t-193.5 -224.5q-133 -268 -133 -535.5t111.5 -400.5t310.5 -133q139 0 250.5 59.5t179 149.5t113.5 210q80 210 79.5 454t-112 376t-314.5 132zM827 1415q215 0 335 -140t120 -392q0 -253 -87 -473q-48 -122 -118.5 -216t-187.5 -153
t-260 -59q-213 0 -333 141t-120 389t90 472q49 122 121 216t186.5 154.5t253.5 60.5zM1007 1577q30 0 25.5 -29t-31.5 -28q-14 0 -22 9t-6 21q4 27 34 27zM678 1577q33 0 29 -29t-31 -28q-29 0 -29 30q4 27 31 27zM1063 1724h-410l4 29h410z" />
    <glyph glyph-name="uni022B" unicode="&#x22b;" 
d="M663.5 1057q-141.5 0 -238.5 -65.5t-149 -169.5q-102 -202 -102 -406.5t85 -306t225.5 -101.5t237.5 66q98 66 150 170q102 202 101.5 407t-84.5 305.5t-225.5 100.5zM666.5 1081q150.5 0 242.5 -106.5t92 -319.5t-107 -427q-54 -108 -157.5 -177t-255 -69t-244 108.5
t-92.5 323.5q0 214 110 426q56 108 158.5 174.5t253 66.5zM863 1378q30 0 26 -28.5t-31 -28.5q-14 0 -22.5 9t-6.5 22q4 26 34 26zM535 1378q33 0 28.5 -28.5t-32.5 -28.5t-27 31q4 26 31 26zM922 1532h-410l4 29h410z" />
    <glyph glyph-name="uni022C" unicode="&#x22c;" horiz-adv-x="1409" 
d="M825 1389q-166 0 -291.5 -87.5t-193.5 -224.5q-133 -268 -133 -535.5t111.5 -400.5t310.5 -133q139 0 250.5 59.5t179 149.5t113.5 210q80 210 79.5 454t-112 376t-314.5 132zM827 1415q215 0 335 -140t120 -392q0 -253 -87 -473q-48 -122 -118.5 -216t-187.5 -153
t-260 -59q-213 0 -333 141t-120 389t90 472q49 122 121 216t186.5 154.5t253.5 60.5zM969 1554q-49 0 -120 45.5t-121 45.5t-124 -74l-14 10q80 84 149 84q41 0 113 -44t117 -44q68 0 137 82l12 -10q-73 -95 -149 -95zM1087 1794h-409l4 29h410z" />
    <glyph glyph-name="uni022D" unicode="&#x22d;" 
d="M663.5 1057q-141.5 0 -238.5 -65.5t-149 -169.5q-102 -202 -102 -406.5t85 -306t225.5 -101.5t237.5 66q98 66 150 170q102 202 101.5 407t-84.5 305.5t-225.5 100.5zM666.5 1081q150.5 0 242.5 -106.5t92 -319.5t-107 -427q-54 -108 -157.5 -177t-255 -69t-244 108.5
t-92.5 323.5q0 214 110 426q56 108 158.5 174.5t253 66.5zM784 1241q-51 0 -120.5 45t-119.5 45t-124 -74l-14 11q80 84 149 84q41 0 112.5 -44t116.5 -44q68 0 138 82l12 -11q-74 -94 -150 -94zM891 1487h-410l4 29h410z" />
    <glyph glyph-name="uni022E" unicode="&#x22e;" horiz-adv-x="1409" 
d="M825 1389q-166 0 -291.5 -87.5t-193.5 -224.5q-133 -268 -133 -535.5t111.5 -400.5t310.5 -133q139 0 250.5 59.5t179 149.5t113.5 210q80 210 79.5 454t-112 376t-314.5 132zM827 1415q215 0 335 -140t120 -392q0 -253 -87 -473q-48 -122 -118.5 -216t-187.5 -153
t-260 -59q-213 0 -333 141t-120 389t90 472q49 122 121 216t186.5 154.5t253.5 60.5zM871 1726q28 0 26 -29.5t-29 -29.5q-33 0 -28 31q3 28 31 28z" />
    <glyph glyph-name="uni022F" unicode="&#x22f;" 
d="M663.5 1057q-141.5 0 -238.5 -65.5t-149 -169.5q-102 -202 -102 -406.5t85 -306t225.5 -101.5t237.5 66q98 66 150 170q102 202 101.5 407t-84.5 305.5t-225.5 100.5zM666.5 1081q150.5 0 242.5 -106.5t92 -319.5t-107 -427q-54 -108 -157.5 -177t-255 -69t-244 108.5
t-92.5 323.5q0 214 110 426q56 108 158.5 174.5t253 66.5zM702 1409q-33 0 -28.5 29.5t32.5 29.5t25.5 -29.5t-29.5 -29.5z" />
    <glyph glyph-name="uni0230" unicode="&#x230;" horiz-adv-x="1409" 
d="M825 1389q-166 0 -291.5 -87.5t-193.5 -224.5q-133 -268 -133 -535.5t111.5 -400.5t310.5 -133q139 0 250.5 59.5t179 149.5t113.5 210q80 210 79.5 454t-112 376t-314.5 132zM827 1415q215 0 335 -140t120 -392q0 -253 -87 -473q-48 -122 -118.5 -216t-187.5 -153
t-260 -59q-213 0 -333 141t-120 389t90 472q49 122 121 216t186.5 154.5t253.5 60.5zM844 1532q-33 0 -29 29.5t32 29.5t25.5 -29.5t-28.5 -29.5zM1069 1724h-410l5 29h409z" />
    <glyph glyph-name="uni0231" unicode="&#x231;" 
d="M663.5 1057q-141.5 0 -238.5 -65.5t-149 -169.5q-102 -202 -102 -406.5t85 -306t225.5 -101.5t237.5 66q98 66 150 170q102 202 101.5 407t-84.5 305.5t-225.5 100.5zM666.5 1081q150.5 0 242.5 -106.5t92 -319.5t-107 -427q-54 -108 -157.5 -177t-255 -69t-244 108.5
t-92.5 323.5q0 214 110 426q56 108 158.5 174.5t253 66.5zM684 1294q-33 0 -29 30t32 30t28 -31q-4 -29 -31 -29zM915 1516h-409l4 28h410z" />
    <glyph glyph-name="uni0232" unicode="&#x232;" horiz-adv-x="999" 
d="M1073 1395l-553 -840l-78 -555h-30l77 555l-321 840h33l305 -811l534 811h33zM860 1663h-409l4 29h409z" />
    <glyph glyph-name="uni0233" unicode="&#x233;" horiz-adv-x="901" 
d="M924 1061l-516 -1063q-90 -186 -171 -267t-243 -124l-4 22q156 45 228.5 119t160.5 252h-14l-238 1061h31l231 -1041l502 1041h33zM770 1405h-410l5 29h409z" />
    <glyph glyph-name="uni0234" unicode="&#x234;" horiz-adv-x="675" 
d="M395 8q128 0 204.5 57.5t76.5 151.5q0 57 -37 91t-112.5 34t-144.5 -56.5t-153 -185.5q38 -92 166 -92zM531 367q86 0 130 -41t44 -109q0 -100 -85 -167.5t-221 -67.5t-186 92l-123 -183l-22 11l135 198q-20 55 -8 127l178 1272l28 2l-180 -1276q-6 -55 0 -94
q76 119 150 177.5t160 58.5z" />
    <glyph glyph-name="uni0235" unicode="&#x235;" horiz-adv-x="1363" 
d="M1082 8q129 0 204.5 57.5t75.5 151.5q0 57 -36 91t-111.5 34t-144.5 -56.5t-152 -185.5q35 -92 164 -92zM1218 367q85 0 129 -41t44 -109q0 -100 -84 -167.5t-220 -67.5t-186 92l-123 -183l-22 11l133 198q-18 49 -8 127l75 527q41 303 -202 303q-133 0 -245 -98.5
t-216 -301.5l-92 -657h-29l150 1061h24l-45 -346q188 367 455 366q135 0 193.5 -85t35.5 -242l-76 -529q-6 -55 0 -94q76 119 150 177.5t159 58.5z" />
    <glyph glyph-name="uni0236" unicode="&#x236;" horiz-adv-x="675" 
d="M394 8q129 0 204.5 57.5t75.5 151.5q0 57 -37 91t-111.5 34t-143.5 -56.5t-153 -185.5q36 -92 165 -92zM529 367q86 0 129.5 -41t43.5 -109q0 -100 -85 -167.5t-219.5 -67.5t-186.5 92l-123 -183l-22 11l135 198q-18 53 -11 127l113 809h-176l4 25h176l45 272l23 2
l-39 -274h297l-8 -25h-291l-115 -811q-6 -55 0 -94q76 119 150 177.5t160 58.5z" />
    <glyph glyph-name="uni0237" unicode="&#x237;" horiz-adv-x="524" 
d="M352 1061l-149 -1053q-25 -182 -83.5 -261t-189.5 -142l-10 20q123 61 177.5 137t78.5 248l148 1051h28z" />
    <glyph glyph-name="uni0238" unicode="&#x238;" horiz-adv-x="1724" 
d="M1130 8q134 0 234 108q188 203 188 582q0 174 -66.5 265.5t-193.5 91.5q-197 0 -362 -209l-82 -570q35 -129 109.5 -198.5t172.5 -69.5zM452 8q120 0 205.5 68.5t161.5 202.5l82 573q-102 203 -272 203q-201 0 -323 -203t-122 -465q0 -180 74 -279.5t194 -99.5z
M1292 1081q139 0 214 -99t75 -282.5t-48 -342t-153.5 -267t-249.5 -108.5q-102 0 -179 67q-76 67 -109 178l-33 -227h-23l27 225q-147 -244 -354 -243q-139 0 -221 106.5t-82 290.5t54 339.5t164.5 259t254.5 103.5q188 0 276 -196l88 614l29 2l-88 -620q155 200 358 200z
" />
    <glyph glyph-name="uni0239" unicode="&#x239;" horiz-adv-x="1722" 
d="M1286 1055q-104 0 -189 -52.5t-177 -154.5l-82 -590q86 -250 284 -250q180 0 289 179.5t123 443.5q14 205 -51.5 314.5t-196.5 109.5zM449 8q203 0 358 250l84 588q-94 209 -272 209t-303.5 -177.5t-139.5 -433.5q-12 -207 62 -321.5t211 -114.5zM1286 1081
q145 0 219 -117.5t60 -334.5q-16 -272 -133 -459.5t-310 -187.5q-104 0 -179 64.5t-112 170.5l-86 -608l-30 -6l86 608q-147 -229 -352 -229q-152 0 -234 123.5t-68 340.5q16 266 146.5 450.5t321 184.5t282.5 -200l27 180h22l-22 -182q167 202 362 202z" />
    <glyph glyph-name="uni023A" unicode="&#x23a;" horiz-adv-x="1140" 
d="M522 453h357l-121 581zM240 453h258l252 620l-62 295zM973 0l-88 424h-373l-223 -553l-23 6l221 547h-262l-207 -424h-30l686 1395h35l57 -279l156 385l20 -4l-168 -420l230 -1077h-31z" />
    <glyph glyph-name="uni023B" unicode="&#x23b;" horiz-adv-x="1095" 
d="M825 1386q-133 0 -242.5 -57t-177 -146t-114.5 -207q-84 -211 -84 -452q0 -311 176 -442l522 1300q-49 4 -80 4zM176 524q0 250 90 470q49 120 121 212t185.5 150.5t252.5 58.5q55 0 90 -8l39 94l21 -4l-37 -94q109 -23 195 -107l-19 -22q-92 84 -186 104l-527 -1308
q92 -59 224 -60q184 0 342 119l18 -23q-164 -125 -360 -124q-133 0 -234 59l-69 -170l-23 6l72 178q-195 133 -195 469z" />
    <glyph glyph-name="uni023C" unicode="&#x23c;" horiz-adv-x="954" 
d="M653 1057q-157 1 -269 -103q-208 -192 -208 -553q0 -256 152 -348l413 994q-45 10 -88 10zM502 8q152 0 280 103l17 -21q-135 -109 -299 -108q-88 0 -164 34l-60 -145l-20 6l61 150q-172 102 -172 367q1 265 123 465q60 99 160 160.5t225 61.5q59 0 99 -10l51 125l20 -6
l-51 -125q82 -25 139 -86l-18 -18q-55 59 -131 79l-416 -999q66 -33 156 -33z" />
    <glyph glyph-name="uni023D" unicode="&#x23d;" horiz-adv-x="976" 
d="M272 29h592l-10 -29h-614l102 729h-219l4 27h217l90 639h31l-90 -639h239l-2 -27h-241z" />
    <glyph glyph-name="uni023E" unicode="&#x23e;" horiz-adv-x="970" 
d="M537 795l231 571h-150zM1053 1366h-262l-267 -664l-98 -702h-31l84 590l-289 -719l-22 6l324 805l96 684h-434l4 29h620l43 106l23 -4l-41 -102h256z" />
    <glyph glyph-name="uni023F" unicode="&#x23f;" horiz-adv-x="940" 
d="M545.5 1055q-150.5 0 -238.5 -64.5t-88 -161t57.5 -150.5t212 -103t219 -114t64.5 -187.5t-100.5 -207.5t-274.5 -85q-117 0 -217 53q70 -59 118 -139t68.5 -134.5t59.5 -94.5t104.5 -40t126.5 45l15 -18q-68 -53 -139.5 -53t-108.5 29.5t-62.5 84t-55.5 115.5t-95.5 141
t-159.5 146l12 16q4 -2 28 -18.5t29 -19.5t27.5 -16t30.5 -17.5t28 -14.5q22 -10 34 -13q12 -2 34 -10q44 -16 123 -16q152 0 249 73t97 208q0 98 -58 156.5t-215 108.5t-218.5 110.5t-61.5 165t97.5 178t262 73.5t281.5 -108l-20 -17q-115 99 -265.5 99z" />
    <glyph glyph-name="uni0240" unicode="&#x240;" horiz-adv-x="839" 
d="M589.5 -399q-70.5 0 -116 25.5t-72 65.5t-62.5 89t-74 93t-108.5 79t-164.5 47l4 25l799 1009h-598l4 27h637l-4 -25l-805 -1018q106 -16 181 -63t112.5 -100.5t70.5 -105.5q77 -122 185 -122q74 0 135 45l14 -18q-67 -53 -137.5 -53z" />
    <glyph glyph-name="uni0241" unicode="&#x241;" horiz-adv-x="921" 
d="M881 1046q0 168 -81 254t-235 86q-205 0 -395 -163l-18 20q199 172 413 172q166 0 256 -94t90 -252q0 -377 -417 -477l-113 -29l-80 -563h-31l84 586l129 30q398 94 398 430z" />
    <glyph glyph-name="uni0242" unicode="&#x242;" horiz-adv-x="849" 
d="M737 764q0 135 -75.5 213t-212.5 78q-180 0 -343 -140l-18 21q168 145 361 145q150 0 234.5 -86t84.5 -231q0 -324 -362 -416l-123 -31l-43 -317h-29l45 338l143 37q338 82 338 389z" />
    <glyph glyph-name="uni0243" unicode="&#x243;" horiz-adv-x="1183" 
d="M520 29q256 0 371 116.5t115 292.5q0 135 -92.5 210t-247.5 75h-365l-45 -313h399l-2 -27h-401l-49 -354h317zM664 752q150 0 257 97t107 239q0 278 -369 278h-268l-86 -614h359zM516 0h-346l53 383h-186l4 27h186l138 985h290q193 0 297.5 -75t104.5 -220t-92.5 -245
t-235.5 -118q137 -10 222 -86t85 -231q0 -154 -108 -278q-58 -66 -163.5 -104t-248.5 -38z" />
    <glyph glyph-name="uni0244" unicode="&#x244;" horiz-adv-x="1361" 
d="M610 8q201 0 310.5 112.5t136.5 307.5l90 643h-772l-92 -645q-55 -418 327 -418zM608 -18q-215 0 -299 119.5t-55 322.5l90 647h-119l4 23h119l41 301h31l-43 -301h772l43 301h31l-43 -301h114l-2 -23h-114l-93 -649q-29 -203 -145.5 -321.5t-331.5 -118.5z" />
    <glyph glyph-name="uni0245" unicode="&#x245;" horiz-adv-x="1140" 
d="M709 1395l295 -1395h-31l-285 1370l-670 -1370h-30l684 1395h37z" />
    <glyph glyph-name="uni0246" unicode="&#x246;" horiz-adv-x="1011" 
d="M330 29l280 696h-295l-98 -696h113zM623 752l247 614h-467l-84 -614h304zM1016 1366h-123l-246 -614h197l-4 -27h-205l-281 -696h494l-4 -29h-500l-51 -129l-23 6l49 123h-137l197 1395h502l43 106l22 -4l-41 -102h117z" />
    <glyph glyph-name="uni0247" unicode="&#x247;" horiz-adv-x="1060" 
d="M174 395q0 -256 154 -346l178 432q-156 -31 -332 -39v-47zM930 844q0 76 -45 127t-123 71l-217 -526q385 90 385 328zM662 1057q-117 0 -210.5 -55.5t-148.5 -145.5q-111 -181 -127 -389q197 12 342 43l223 539q-48 8 -79 8zM958 844q0 -262 -426 -357l-186 -448
q63 -31 150 -31q160 0 321 117l17 -23q-166 -121 -338 -120q-92 0 -160 30l-60 -141l-20 6l59 146q-172 98 -172 372q0 191 73 359q40 92 97.5 163.5t148.5 117.5t200 46q51 0 90 -8l51 123l20 -6l-51 -123q86 -23 136 -81t50 -142z" />
    <glyph glyph-name="uni0248" unicode="&#x248;" horiz-adv-x="595" 
d="M573 715l-2 -27h-229l-72 -512q-20 -154 -81.5 -230.5t-227.5 -144.5l-8 25q152 63 210 137t79 217l71 508h-229l2 27h231l95 680h28l-94 -680h227z" />
    <glyph glyph-name="uni0249" unicode="&#x249;" horiz-adv-x="581" 
d="M532 512l-2 -27h-231l-68 -477q-33 -231 -136 -319q-48 -41 -138 -84l-8 20q123 61 177 137t77 248l67 475h-227l2 27h227l78 549h29l-78 -549h231zM418 1409q-33 0 -29 30t31 29q29 0 27 -29.5t-29 -29.5z" />
    <glyph glyph-name="uni024A" unicode="&#x24a;" horiz-adv-x="1318" 
d="M594 8q233 0 395 199l141 1001q-117 178 -337 178q-180 0 -318.5 -136t-204 -333.5t-65.5 -424t105.5 -355.5t283.5 -129zM1101 -399q-91 0 -136 55t-31 160l27 184l22 168q-158 -186 -389 -186q-193 0 -306.5 137t-113.5 389q0 343 161 615q77 130 196.5 211t263.5 81
q219 0 340 -174l22 154h27l-195 -1395l-24 -184q-27 -188 131 -189q86 1 166 54l14 -21q-84 -59 -175 -59z" />
    <glyph glyph-name="uni024B" unicode="&#x24b;" horiz-adv-x="1132" 
d="M465 8q221 0 362 260l103 717q-113 72 -250 72t-239.5 -64.5t-158.5 -168.5q-110 -203 -110 -439q0 -174 77 -275.5t216 -101.5zM872 -399q-141 0 -118 163l65 453q-66 -115 -159 -175t-195 -60q-152 0 -237 108.5t-85 292.5q0 241 117 457q59 108 168 174.5t255.5 66.5
t274.5 -84l-176 -1235q-18 -135 92 -135q41 1 84 17l7 -25q-51 -18 -93 -18z" />
    <glyph glyph-name="uni024C" unicode="&#x24c;" horiz-adv-x="1153" 
d="M621 700q305 0 395 256q24 66 24 140q0 133 -88 201.5t-284 68.5h-273l-94 -666h320zM1071 1096q0 -158 -95 -279t-296 -143l299 -674h-33l-295 672h-354l-94 -672h-29l94 672h-190l4 28h190l97 695h295q407 0 407 -299z" />
    <glyph glyph-name="uni024D" unicode="&#x24d;" horiz-adv-x="761" 
d="M698 1081q53 0 97 -14l-9 -25q-39 14 -88 15q-127 0 -215 -88t-164 -285l-14 -96h238l-2 -25h-238l-82 -563h-28l79 563h-219l2 25h219l68 473h25l-43 -311q68 174 156.5 252.5t217.5 78.5z" />
    <glyph glyph-name="uni024E" unicode="&#x24e;" horiz-adv-x="1005" 
d="M510 584l385 583h-606zM1077 1395l-133 -203h107l-2 -25h-121l-406 -612l-76 -555h-30l78 555l-236 612h-121l4 25h109l-78 203h31l78 -203h628l133 203h35z" />
    <glyph glyph-name="uni024F" unicode="&#x24f;" horiz-adv-x="892" 
d="M385 20l356 738h-518zM784 782h99l-4 -24h-107l-366 -760q-92 -186 -172 -267t-244 -124l-2 22q154 45 226.5 119t162.5 252h-15l-169 758h-109l4 24h98l-61 279h31l61 -279h537l135 279h31z" />
    <glyph glyph-name="uni0250" unicode="&#x250;" horiz-adv-x="1058" 
d="M487 461q195 0 315 94t120 264q0 111 -63.5 173.5t-182.5 62.5q-234 -1 -381 -232l-49 -362h241zM448.5 6q135.5 0 315.5 68l6 -25q-180 -70 -313 -69q-309 0 -262 319l75 539q16 88 3 145t-72 78l8 20q63 -20 82.5 -73.5t7.5 -143.5q145 217 377 217q133 0 204.5 -71.5
t71.5 -190.5q0 -180 -129 -282.5t-334 -102.5h-247l-19 -133q-20 -150 35 -222.5t190.5 -72.5z" />
    <glyph glyph-name="uni0251" unicode="&#x251;" horiz-adv-x="1114" 
d="M461 8q217 0 360 256l80 533q-43 260 -254 260q-117 0 -211 -65.5t-150 -167.5q-114 -211 -114 -439q0 -174 77 -275.5t212 -101.5zM836 137q0 -102 77 -133l-8 -22q-66 23 -83 80t-7 151q-137 -231 -354 -231q-150 0 -234 108.5t-84 292.5q-1 239 123 457
q60 106 160 173.5t223 67.5q215 0 260 -227l37 207h23l-125 -823q-8 -83 -8 -101z" />
    <glyph glyph-name="uni0252" unicode="&#x252;" horiz-adv-x="1114" 
d="M942 676q0 174 -77 275.5t-212 101.5q-217 0 -360 -256l-80 -535q44 -258 254 -258q117 0 211 66t150 168q114 212 114 438zM653 1079q150 0 234 -108.5t84 -292.5q1 -240 -123 -458q-60 -106 -160 -173t-223 -67q-213 0 -260 225l-37 -205h-23l125 823q8 82 9 101
q0 102 -78 133l8 22q66 -23 83 -80t7 -151q137 231 354 231z" />
    <glyph glyph-name="uni0253" unicode="&#x253;" horiz-adv-x="1155" 
d="M494.5 8q138.5 0 236.5 70q99 70 151 178q104 215 103 415q0 384 -280 384q-115 0 -203 -53.5t-180 -157.5l-107 -774q141 -62 279.5 -62zM705 1081q152 0 230.5 -99t78.5 -287q0 -189 -71 -371q-38 -98 -94 -172t-145.5 -122t-221.5 -48t-300 69l170 1215q14 115 90 177
t190 62t220 -63l-14 -25q-98 61 -203.5 61.5t-173.5 -55t-82 -163.5l-53 -379q170 200 379 200z" />
    <glyph glyph-name="uni0254" unicode="&#x254;" horiz-adv-x="952" 
d="M309 -18q-162 0 -274 120l18 19q104 -113 256.5 -113t259.5 100q205 190 209 566q-2 182 -82 281.5t-230.5 99.5t-285.5 -103l-14 23q139 106 302 106t251 -106.5t88 -292.5t-54.5 -341t-168 -257t-275.5 -102z" />
    <glyph glyph-name="uni0255" unicode="&#x255;" horiz-adv-x="972" 
d="M823 242q0 141 -161 141q-86 0 -168 -70.5t-185 -244.5q84 -59 212 -59.5t215 61t87 172.5zM651 1081q162 0 262 -102l-18 -18q-92 96 -225.5 96t-228.5 -59.5t-151 -157.5q-114 -198 -114 -427t113 -329l14 25q96 160 181 229.5t180.5 69.5t141.5 -45.5t46 -120.5
q0 -119 -93 -189.5t-233.5 -70.5t-230.5 61l-96 -152l-23 11l96 157q-127 111 -127 340q1 375 225 575q120 106 281 107z" />
    <glyph glyph-name="uni0256" unicode="&#x256;" horiz-adv-x="1171" 
d="M465 8q131 0 223 85t180 243l74 520q-86 201 -295 201q-123 0 -218 -66.5t-147 -172.5q-100 -206 -100 -409.5t76 -302t207 -98.5zM960.5 -399q-92.5 0 -136.5 56t-27 159l63 460q-76 -135 -170 -214.5t-231 -79.5t-221 106.5t-84 296t67 361.5q37 96 91.5 168.5
t141.5 119.5t193 47q217 0 299 -188l86 610l29 -4l-236 -1685q-27 -188 141 -186q82 0 156 53l15 -21q-84 -59 -176.5 -59z" />
    <glyph glyph-name="uni0257" unicode="&#x257;" horiz-adv-x="1171" 
d="M647 1057q-123 0 -218 -66.5t-147 -172.5q-100 -206 -100 -409.5t76 -302t207 -98.5t223 85t180 243l74 520q-86 201 -295 201zM1224 1505q89 0 162 -61l-16 -19q-63 53 -143 53.5t-131.5 -47t-65.5 -141.5l-180 -1290h-25l37 281q-78 -137 -172 -218t-231 -81
t-221 106.5t-84 296t67 361.5q37 96 91.5 168.5t141.5 119.5t193 47q217 0 299 -188l58 399q14 102 72.5 157.5t147.5 55.5z" />
    <glyph glyph-name="uni0258" unicode="&#x258;" horiz-adv-x="1064" 
d="M530 1057q-145 0 -233 -82t-88 -207q0 -152 152.5 -222.5t508.5 -78.5q16 96 15 178q2 178 -84 295t-271 117zM530 1081q199 0 292 -123.5t93 -312.5q0 -276 -134 -469.5t-365 -193.5q-176 0 -305 122l18 19q125 -115 293 -115t283.5 121t158.5 313q-362 8 -523 85
t-161 241q0 135 97 224t253 89z" />
    <glyph glyph-name="uni0259" unicode="&#x259;" horiz-adv-x="1060" 
d="M397 4q119 0 212 55.5t149 145.5q106 173 125 389q-752 -45 -752 -377q0 -98 73.5 -155.5t192.5 -57.5zM562 1079q169 0 262.5 -106.5t93.5 -302t-73 -363.5q-40 -92 -97.5 -163.5t-148.5 -117.5t-211 -46t-203 63t-83 174q0 174 197 277.5t586 123.5q2 16 2 48
q0 190 -85 288.5t-241 98.5t-317 -117l-17 22q166 121 335 121z" />
    <glyph glyph-name="uni025A" unicode="&#x25a;" horiz-adv-x="1273" 
d="M397 4q119 0 212 55.5t149 145.5q106 173 125 389q-752 -45 -752 -377q0 -98 73.5 -155.5t192.5 -57.5zM388 -20q-120 0 -203 63t-83 174q0 174 197 277.5t586 123.5q2 16 2 48q0 190 -85 288.5t-241 98.5t-317 -117l-17 22q166 121 337 121t265 -112l230 94h28l-22 -158
q-24 -188 140 -188q81 0 159 53l14 -20q-84 -59 -176 -59.5t-136 56t-30 158.5l19 131l-209 -88q72 -102 72 -286.5t-73 -352.5q-40 -92 -97.5 -163.5t-148.5 -117.5t-211 -46z" />
    <glyph glyph-name="uni025B" unicode="&#x25b;" horiz-adv-x="927" 
d="M438 -18q-145 0 -232 73.5t-87 198.5t84 213t252 94q-102 12 -159.5 69.5t-57.5 163.5t95 196.5t269 90.5t291 -94l-19 -18q-113 88 -274.5 88t-247.5 -83q-86 -82 -86 -184t66.5 -160.5t197.5 -58.5h119l-6 -26h-121q-203 0 -289 -85t-86 -202t78 -183.5t213 -66.5
q188 0 338 117l15 -23q-152 -120 -353 -120z" />
    <glyph glyph-name="uni025C" unicode="&#x25c;" horiz-adv-x="948" 
d="M506 563q268 -17 268 -254q0 -125 -99.5 -226t-305 -101t-351.5 141l19 18q145 -133 335.5 -133t281.5 92.5t91 218.5q0 229 -319 230h-115l6 26h111q170 0 252 78t82 181.5t-65.5 163t-205 59.5t-311.5 -103l-14 21q168 106 322.5 106t229.5 -65.5t75 -175t-73 -186
t-214 -91.5z" />
    <glyph glyph-name="uni025D" unicode="&#x25d;" horiz-adv-x="1191" 
d="M506 563q268 -17 268 -254q0 -125 -99.5 -226t-305 -101t-351.5 141l19 18q145 -133 335.5 -133t281.5 92.5t91 218.5q0 229 -319 230h-115l6 26h111q170 0 252 78t82 181.5t-65.5 163t-205 59.5t-311.5 -103l-14 21q168 106 345 106t245 -110l221 90h29l-23 -158
q-24 -188 140 -188q81 0 159 53l14 -20q-84 -59 -176 -59.5t-136 56t-30 158.5l19 131l-205 -86q25 -45 25 -108q0 -109 -73 -185.5t-214 -91.5z" />
    <glyph glyph-name="uni025E" unicode="&#x25e;" horiz-adv-x="1105" 
d="M396 958q-220 -185 -220 -569t360 -382q184 1 275.5 93.5t91.5 218.5q0 229 -317 230h-82l6 26h76q170 0 252 77t82 180.5t-64.5 163t-205 59t-254.5 -96.5zM666 563q268 -17 268 -254q0 -125 -101.5 -226t-297 -102t-293 107.5t-97.5 299.5t57.5 344t179.5 251t270.5 98
t223 -66.5t74.5 -174.5t-70.5 -184t-213.5 -93z" />
    <glyph glyph-name="uni025F" unicode="&#x25f;" horiz-adv-x="581" 
d="M532 512l-2 -27h-231l-68 -477q-33 -231 -136 -319q-48 -41 -138 -84l-8 20q123 61 177 137t77 248l67 475h-227l2 27h227l78 549h29l-78 -549h231z" />
    <glyph glyph-name="uni0260" unicode="&#x260;" horiz-adv-x="1144" 
d="M467 27q217 0 362 264l103 694q-113 72 -250 72t-239.5 -62.5t-158.5 -162.5q-108 -196 -108 -426q0 -172 77 -275.5t214 -103.5zM1197 1505q89 0 163 -61l-17 -19q-63 53 -143 53.5t-132 -47t-64 -141.5l-191 -1304q-59 -383 -383 -383q-184 0 -332 94l13 22
q147 -92 319 -92q301 0 354 355l37 260q-135 -242 -354 -242q-150 0 -235 111.5t-86 300.5t73 353q41 91 99.5 159.5t151.5 112.5t224 44t242 -69l39 280q16 104 74.5 158.5t147.5 54.5z" />
    <glyph glyph-name="uni0261" unicode="&#x261;" horiz-adv-x="1130" 
d="M681 1057q-136 0 -238.5 -62.5t-158.5 -162.5q-108 -196 -108 -426q0 -172 77 -275.5t214 -103.5q217 0 362 264l101 694q-113 72 -249 72zM697.5 1081q134.5 0 263.5 -84l-148 -1011q-55 -383 -383 -383q-184 0 -332 94l13 22q147 -92 319 -92q301 0 354 355l37 260
q-135 -242 -354 -242q-150 0 -235 111.5t-86 300.5t73 353q41 91 99.5 159.5t151.5 112.5t227.5 44z" />
    <glyph glyph-name="uni0262" unicode="&#x262;" horiz-adv-x="1122" 
d="M670 1085q166 0 282 -98l-20 -18q-109 90 -260 90q-225 0 -361.5 -193.5t-136.5 -457.5q0 -200 96 -298t260 -98t295 70l62 440h-260v27h295l-68 -481q-150 -82 -326 -82t-279.5 106.5t-103.5 315.5q0 276 146 476.5t379 200.5z" />
    <glyph glyph-name="uni0263" unicode="&#x263;" horiz-adv-x="905" 
d="M324 -375q129 0 129 168q0 82 -66 275q-152 -246 -151.5 -344.5t88.5 -98.5zM334 -401q-65 0 -96 33.5t-31 86.5q0 113 168 371l-248 971h31l235 -948l502 948h33l-520 -975q74 -203 73.5 -294t-41.5 -142t-106 -51z" />
    <glyph glyph-name="uni0264" unicode="&#x264;" horiz-adv-x="1042" 
d="M578 153.5q0 69.5 -74 247.5q-46 -67 -72 -107q-74 -114 -74 -194q0 -94 91 -94q61 0 95 39t34 108.5zM983 1081q59 0 115 -51l-15 -18q-51 45 -102 45q-82 0 -154 -125l-305 -508q84 -188 84 -269.5t-42 -127t-107 -45.5t-96 32.5t-31 85.5q0 102 159 324l-159 512
q-18 66 -46 93.5t-76 27.5t-110 -45l-12 20q63 49 123.5 49t92.5 -33.5t56 -113.5l150 -488l289 490q45 80 86 112.5t100 32.5z" />
    <glyph glyph-name="uni0265" unicode="&#x265;" horiz-adv-x="1177" 
d="M438 -20q-139 0 -197.5 86t-35.5 241l106 754h29l-107 -752q-41 -305 209 -305t453 399l94 658h29l-205 -1456l-29 -2l103 743q-185 -366 -449 -366z" />
    <glyph glyph-name="uni0266" unicode="&#x266;" horiz-adv-x="1189" 
d="M752 1081q279 0 233 -327l-106 -754h-29l106 754q41 303 -206 303q-131 0 -242 -98.5t-215 -301.5l-92 -657h-29l178 1266q16 115 91 177t191 62t218 -63l-12 -25q-98 61 -204.5 61.5t-173.5 -55t-81 -163.5l-78 -545q189 366 451 366z" />
    <glyph glyph-name="uni0267" unicode="&#x267;" horiz-adv-x="1189" 
d="M752 1081q279 0 233 -327l-133 -940q-14 -104 -73.5 -158.5t-149.5 -54.5t-160 61l14 19q63 -53 150 -54q164 0 190 189l133 938q41 303 -206 303q-131 0 -242 -98.5t-215 -301.5l-92 -657h-29l150 1059h-3l31 207q14 115 90 177t190 62t220 -63l-14 -25
q-98 61 -203.5 61.5t-173.5 -55t-82 -163.5l-29 -201h2l-49 -344q189 366 451 366z" />
    <glyph glyph-name="uni0268" unicode="&#x268;" horiz-adv-x="581" 
d="M543 588l-2 -25h-232l-80 -563h-28l80 563h-228l2 25h228l67 473h29l-68 -473h232zM418 1409q-33 0 -29 30t31 29q29 0 27 -30t-29 -29z" />
    <glyph glyph-name="uni0269" unicode="&#x269;" horiz-adv-x="561" 
d="M301 -18q-143 0 -119 161l129 918h29l-129 -920q-18 -135 92 -135q41 0 84 17l8 -23q-43 -18 -94 -18z" />
    <glyph glyph-name="uni026A" unicode="&#x26a;" horiz-adv-x="614" 
d="M623 1036h-232l-141 -1011h229l-2 -25h-487l2 25h229l141 1011h-229l4 25h488z" />
    <glyph glyph-name="uni026B" unicode="&#x26b;" horiz-adv-x="575" 
d="M434 670q-53 0 -135 51l-82 -580q-16 -133 94 -133q45 0 84 17l6 -25q-41 -18 -92 -18q-143 0 -119 161l82 594q-72 45 -120 45q-78 0 -156 -88l-19 15q80 102 175 102q51 0 124 -43l103 731l29 2l-105 -749q86 -53 131 -54q78 0 152 88l20 -12q-82 -104 -172 -104z" />
    <glyph glyph-name="uni026C" unicode="&#x26c;" horiz-adv-x="608" 
d="M115 733q0 -125 186 -125l37 264q-33 4 -55 5q-76 0 -122 -39t-46 -105zM358 8q45 0 84 17l7 -25q-39 -18 -93 -18q-143 0 -120 161l61 439q-211 0 -211 151q0 78 56.5 124t142.5 46q25 0 57 -4l84 600l29 2l-125 -893q96 2 172 17l-2 -25q-92 -16 -174 -18l-62 -441
q-20 -133 94 -133z" />
    <glyph glyph-name="uni026D" unicode="&#x26d;" horiz-adv-x="524" 
d="M314 -399q-93 0 -137 56t-30 159l236 1683l29 2l-236 -1687q-24 -188 142 -186q82 0 157 53l12 -21q-80 -59 -173 -59z" />
    <glyph glyph-name="uni026E" unicode="&#x26e;" horiz-adv-x="1210" 
d="M657 393q406 0 406 -313q0 -209 -128 -344t-337 -135t-334 159l21 17q119 -150 316.5 -150t314 127t116.5 326q0 287 -370 287h-107l4 26l545 641h-768l-125 -893q-16 -133 94 -133q45 0 84 17l6 -25q-39 -18 -92 -18q-143 0 -119 161l189 1356l28 2l-61 -440h805l-4 -25
l-547 -643h63z" />
    <glyph glyph-name="uni026F" unicode="&#x26f;" horiz-adv-x="1730" 
d="M406 -20q-119 0 -171.5 86t-29.5 241l106 754h29l-107 -752q-20 -147 25 -226t150 -79q231 0 419 393l93 664h28l-104 -752q-23 -147 22 -226t152 -79q225 0 420 399l92 658h29l-150 -1061h-25l46 348q-176 -369 -414 -368q-119 0 -171 87t-30 240l4 31
q-172 -358 -413 -358z" />
    <glyph glyph-name="uni0270" unicode="&#x270;" horiz-adv-x="1720" 
d="M1016 -20q-125 0 -173 88t-28 241l4 23q-172 -352 -413 -352q-119 0 -171.5 86t-29.5 241l106 754h29l-107 -752q-20 -147 25 -226t150 -79q229 0 419 391l93 666h28l-104 -752q-23 -147 22 -226t152 -79q225 0 420 399l92 658h29l-205 -1454l-29 -2l102 737
q-172 -362 -411 -362z" />
    <glyph glyph-name="uni0271" unicode="&#x271;" horiz-adv-x="1730" 
d="M1325 1081q119 0 171 -86t30 -241l-133 -940q-14 -104 -73.5 -158.5t-149.5 -54.5t-160 61l16 19q59 -53 148 -54q164 0 190 189l133 938q20 145 -25 224t-149 79q-231 0 -420 -393l-92 -664h-29l105 754q23 145 -22.5 224t-151.5 79q-227 0 -420 -400l-92 -657h-29
l150 1061h24l-45 -346q174 367 414 366q119 0 171 -86t29 -241l-4 -27q174 354 414 354z" />
    <glyph glyph-name="uni0272" unicode="&#x272;" horiz-adv-x="1189" 
d="M756 1081q133 0 192.5 -86t36.5 -241l-106 -754h-29l106 754q41 303 -202 303q-133 0 -245 -98.5t-216 -301.5l-119 -843q-14 -104 -73.5 -158.5t-149.5 -54.5t-160 61l16 19q59 -53 148 -54q164 0 190 189l177 1245h24l-45 -346q189 366 455 366z" />
    <glyph glyph-name="uni0273" unicode="&#x273;" horiz-adv-x="1189" 
d="M987 -399q-92 0 -136 56t-28 159l25 184h2l106 754q41 303 -202 303q-133 0 -245 -98.5t-216 -301.5l-92 -657h-29l150 1061h24l-45 -346q188 367 455 366q133 0 192.5 -86t36.5 -241l-106 -754h-2l-25 -186q-28 -188 140 -186q83 0 157 53l14 -21q-84 -59 -176 -59z" />
    <glyph glyph-name="uni0274" unicode="&#x274;" horiz-adv-x="1189" 
d="M1018 1061l-150 -1061h-37l-489 1032q-4 -51 -35 -268l-106 -764h-29l150 1061h36l490 -1030q33 254 37 282l104 748h29z" />
    <glyph glyph-name="uni0275" unicode="&#x275;" 
d="M498 8q106 0 191 45t139 123q103 151 133 348h-779q-8 -90 -8 -127q0 -186 85 -287.5t239 -101.5zM651 1057q-238 1 -368 -225q-70 -121 -97 -281h779q8 55 8 119q0 186 -84 286.5t-238 100.5zM666.5 1081q150.5 0 242.5 -106.5t92 -319.5t-107 -427
q-54 -108 -157.5 -177t-255 -69t-244 108.5t-92.5 323.5q0 214 110 426q56 108 158.5 174.5t253 66.5z" />
    <glyph glyph-name="uni0276" unicode="&#x276;" horiz-adv-x="1474" 
d="M973 670q0 174 -83 280.5t-225.5 106.5t-239.5 -65.5t-149 -169.5q-102 -202 -102 -406.5t85 -306t226.5 -101.5t237.5 64q97 64 149 166q102 198 101 432zM496 -18q-166 0 -258.5 108.5t-92.5 323.5q0 214 110 426q56 108 158.5 174.5t237.5 66.5q68 0 129 -20h645
l-8 -27h-588q174 -92 175 -368q0 -31 -5 -88h281l-4 -27h-279q-20 -182 -100 -324.5t-211 -199.5h608l-4 -27h-661q-55 -18 -133 -18z" />
    <glyph glyph-name="uni0277" unicode="&#x277;" horiz-adv-x="1511" 
d="M948 8q127 0 215 92q162 170 162 496q0 223 -126 341t-370 118q-317 0 -489 -196.5t-172 -523.5t242 -327q117 0 198.5 85t108.5 269l39 279l30 4l-41 -289q-51 -348 203 -348zM719 276q-65 -294 -317 -294q-120 0 -192.5 85t-72.5 265q0 344 182 546.5t512 202.5
q256 0 389.5 -126t133.5 -359q0 -344 -176 -519q-96 -95 -225.5 -95t-186.5 78.5t-47 215.5z" />
    <glyph glyph-name="uni0278" unicode="&#x278;" horiz-adv-x="1269" 
d="M147 436q0 -188 104.5 -289.5t301.5 -105.5l137 981q-256 -8 -399.5 -166t-143.5 -420zM580 41q258 8 400 166t142 420q-2 188 -105.5 289.5t-299.5 105.5zM1151 627q0 -276 -150.5 -440t-425.5 -173l-57 -405l-29 -6l60 411q-209 6 -319.5 116t-110.5 306
q0 274 152.5 439t420.5 174l66 450l28 4l-65 -454q209 -6 319.5 -115.5t110.5 -306.5z" />
    <glyph glyph-name="uni0279" unicode="&#x279;" horiz-adv-x="741" 
d="M63 -20q-53 0 -96 14l8 24q39 -14 88 -14q127 0 215.5 88t163.5 285l99 684h28l-149 -1061h-25l43 311q-68 -174 -157 -252.5t-218 -78.5z" />
    <glyph glyph-name="uni027A" unicode="&#x27a;" horiz-adv-x="741" 
d="M63 -20q-53 0 -96 14l8 24q39 -14 88 -14q127 0 215.5 88t163.5 285l160 1126l29 -4l-211 -1499h-25l43 311q-68 -174 -157 -252.5t-218 -78.5z" />
    <glyph glyph-name="uni027B" unicode="&#x27b;" horiz-adv-x="741" 
d="M531.5 -399q-93.5 0 -137.5 56t-29 159l69 491q-63 -170 -153.5 -248.5t-217.5 -78.5q-53 0 -96 14l8 24q39 -12 88 -12q125 0 214.5 87t164.5 284l99 684h28l-176 -1247q-23 -188 143 -186q82 0 156 53l13 -21q-80 -59 -173.5 -59z" />
    <glyph glyph-name="uni027C" unicode="&#x27c;" horiz-adv-x="741" 
d="M678 1081q53 0 96 -14l-8 -25q-39 14 -88 15q-125 0 -213 -88t-166 -285l-152 -1079l-30 -2l207 1458h24l-43 -311q68 174 157 252.5t216 78.5z" />
    <glyph glyph-name="uni027D" unicode="&#x27d;" horiz-adv-x="741" 
d="M678 1081q53 0 96 -14l-8 -25q-39 14 -88 15q-127 0 -215 -88t-164 -285l-123 -870q-28 -187 140 -187q83 0 157 54l14 -21q-84 -59 -176 -59t-136 56t-28 159l175 1245h24l-43 -311q68 174 157 252.5t218 78.5z" />
    <glyph glyph-name="uni027E" unicode="&#x27e;" horiz-adv-x="655" 
d="M506 1071q90 0 160 -61l-17 -19q-59 53 -147 53q-164 0 -191 -188l-118 -856h-29l119 858q14 104 73.5 158.5t149.5 54.5z" />
    <glyph glyph-name="uni027F" unicode="&#x27f;" horiz-adv-x="657" 
d="M303 1081q92 0 135 -55t29 -160l-123 -866h-29l99 682l24 186q28 189 -139 189q-82 0 -160 -56l-12 21q84 59 176 59z" />
    <glyph glyph-name="uni0280" unicode="&#x280;" horiz-adv-x="1042" 
d="M535 518q150 0 249 76t99 221q0 219 -322 219h-215l-72 -516h261zM911 815q0 -147 -92 -225t-227 -96l250 -494h-33l-246 494h-293l-69 -494h-29l150 1061h243q346 0 346 -246z" />
    <glyph glyph-name="uni0281" unicode="&#x281;" horiz-adv-x="1042" 
d="M406 27q408 0 407 305q0 106 -74 158t-190 53h-273l-71 -516h201zM844 330q0 -168 -116 -249t-320 -81h-236l150 1061h28l-69 -492h292l383 492h35l-387 -494q106 -14 173 -71t67 -166z" />
    <glyph glyph-name="uni0282" unicode="&#x282;" horiz-adv-x="940" 
d="M547.5 1055q-152.5 0 -240.5 -64.5t-88 -161t57.5 -150.5t212 -103t219 -114t64.5 -187.5t-101.5 -207.5t-285 -85t-309.5 110l-41 -293q-24 -186 140 -186q81 0 159 53l12 -20q-84 -59 -176 -59.5t-135 55t-29 159.5l43 316l17 16q141 -125 311 -125t268 73t98 208
q0 98 -59 156.5t-215 108.5t-217.5 109.5t-61.5 166t97.5 179t261 72.5t280.5 -108l-20 -19q-109 101 -261.5 101z" />
    <glyph glyph-name="uni0283" unicode="&#x283;" horiz-adv-x="528" 
d="M578 1505q89 0 163 -61l-16 -19q-63 53 -143.5 53.5t-131.5 -47t-65 -141.5l-207 -1476q-14 -104 -73.5 -158.5t-148.5 -54.5t-163 61l17 19q63 -53 149 -54q164 0 191 189l208 1476q14 104 72.5 158.5t147.5 54.5z" />
    <glyph glyph-name="uni0284" unicode="&#x284;" horiz-adv-x="581" 
d="M605 1505q89 0 163 -61l-16 -19q-63 53 -144.5 53.5t-132.5 -47t-63 -141.5l-179 -1263h230l-4 -27h-230q-25 -178 -83 -255t-189 -140l-8 20q121 59 175 134t77 241h-230l4 27h230l178 1265q16 104 74.5 158.5t147.5 54.5z" />
    <glyph glyph-name="uni0285" unicode="&#x285;" horiz-adv-x="776" 
d="M493.5 -18q-94.5 0 -138.5 55t-29 158l96 673q24 189 -140 189q-80 0 -159 -56l-14 21q84 59 176 59t136 -55t30 -160l-97 -671q-24 -189 140 -189q80 0 159 55l15 -22q-80 -57 -174.5 -57z" />
    <glyph glyph-name="uni0286" unicode="&#x286;" horiz-adv-x="552" 
d="M-78 -373q115 0 177.5 71t86.5 212q-106 20 -201 20t-156.5 -46t-61.5 -116q0 -140 155 -141zM603 1505q89 0 163 -61l-16 -19q-63 53 -143.5 53.5t-132.5 -47t-64 -141.5l-191 -1362q82 -23 168 -65l-12 -21q-80 39 -160 62q-49 -303 -293 -303q-86 0 -135 43t-49 124.5
t71.5 135t178 53.5t202.5 -23l191 1358q16 104 74.5 158.5t147.5 54.5z" />
    <glyph glyph-name="uni0287" unicode="&#x287;" horiz-adv-x="663" 
d="M278.5 1055q-94.5 0 -194.5 -58l-12 25q104 57 208.5 57t154.5 -66.5t34 -187.5l-113 -800h179l-5 -25h-178l-43 -272l-22 -2l39 274h-297l8 25h291l112 798q16 111 -25.5 171.5t-136 60.5z" />
    <glyph glyph-name="uni0288" unicode="&#x288;" horiz-adv-x="661" 
d="M304 -373q83 0 157 54l12 -21q-84 -59 -175 -59t-135 55t-30 160l170 1220h-176l4 25h176l45 272l23 2l-39 -274h297l-8 -25h-293l-170 -1222q-24 -187 142 -187z" />
    <glyph glyph-name="uni0289" unicode="&#x289;" horiz-adv-x="1220" 
d="M467 8q127 0 238.5 100.5t189.5 282.5l51 367h-637l-63 -451q-20 -147 37 -223t184 -76zM459 -18q-135 0 -199.5 84t-42.5 241l64 451h-177l5 24h174l39 279h28l-39 -279h639l39 279h29l-39 -279h176l-4 -24h-176l-107 -758h-22l45 338q-74 -168 -185.5 -262t-246.5 -94z
" />
    <glyph glyph-name="uni028A" unicode="&#x28a;" horiz-adv-x="1150" 
d="M500 -18q-170 0 -264 106q-94 108 -94.5 300t85.5 363t234 283h-207l4 27h238l-4 -29q-319 -254 -320 -651q0 -176 85 -274.5t243 -98.5q219 0 343 173t124 428t-166 425l2 27h239l-4 -27h-204q162 -168 161.5 -430t-133.5 -442t-362 -180z" />
    <glyph glyph-name="uni028B" unicode="&#x28b;" horiz-adv-x="1144" 
d="M471 -18q-137 0 -213 87t-51 248l104 744h29l-107 -746q-20 -152 46.5 -229.5t193.5 -77.5q164 0 281.5 127t156.5 400l56 387q18 135 -95 135q-39 0 -81 -17l-7 23q47 18 103 18t87.5 -41t20.5 -118l-55 -387q-39 -281 -164 -417t-305 -136z" />
    <glyph glyph-name="uni028C" unicode="&#x28c;" horiz-adv-x="907" 
d="M-23 0l521 1061h39l241 -1061h-30l-234 1036l-504 -1036h-33z" />
    <glyph glyph-name="uni028D" unicode="&#x28d;" horiz-adv-x="1386" 
d="M0 0l430 1061h37l154 -1032l442 1032h39l137 -1061h-29l-131 1032l-444 -1032h-35l-154 1034l-417 -1034h-29z" />
    <glyph glyph-name="uni028E" unicode="&#x28e;" horiz-adv-x="901" 
d="M-23 0l517 1065q106 217 196 305t258 135l4 -24q-162 -45 -245.5 -128t-186.5 -292h17l237 -1061h-31l-231 1040l-502 -1040h-33z" />
    <glyph glyph-name="uni028F" unicode="&#x28f;" horiz-adv-x="811" 
d="M854 1061l-446 -627l-60 -434h-29l60 434l-273 627h31l258 -602l424 602h35z" />
    <glyph glyph-name="uni0290" unicode="&#x290;" horiz-adv-x="839" 
d="M787.5 -399q-91.5 0 -135.5 55t-29 160l26 184h-657l4 25l799 1009h-598l4 27h637l-4 -25l-799 -1009h645l-2 -27l-27 -186q-23 -188 143 -186q82 0 156 53l13 -21q-84 -59 -175.5 -59z" />
    <glyph glyph-name="uni0291" unicode="&#x291;" horiz-adv-x="862" 
d="M840 231q0 61 -35 94t-92 33q-203 1 -262 -331q180 0 255.5 29.5t104.5 71.5t29 103zM713 385q70 0 111.5 -40t41.5 -112q0 -133 -110.5 -183t-311.5 -50q-14 -88 -30 -209h-27q14 111 31 209h-426l4 25l799 1009h-598l4 27h637l-4 -25l-799 -1009h389v2q64 356 289 356z
" />
    <glyph glyph-name="uni0292" unicode="&#x292;" horiz-adv-x="905" 
d="M356 393q401 0 402 -315q0 -209 -128 -343t-340 -134t-345 166l20 14q129 -154 328 -154t316.5 127t117.5 324q0 289 -371 289h-106l4 26l543 641h-639l4 27h678l-4 -25l-547 -643h67z" />
    <glyph glyph-name="uni0293" unicode="&#x293;" horiz-adv-x="905" 
d="M-51 -192q0 -86 68.5 -133.5t193.5 -47.5t225 35q-59 188 -126.5 264t-162 76t-146.5 -54t-52 -140zM356 393q401 0 402 -313q0 -150 -75 -264.5t-214 -169.5l39 -123l-27 -10l-39 125q-100 -37 -235 -37t-210 56t-75 150.5t60.5 158t166 63.5t178 -80t134.5 -277
q131 53 198.5 160t67.5 248q0 287 -371 287h-106l4 26l543 641h-639l4 27h678l-4 -25l-547 -643h67z" />
    <glyph glyph-name="uni0294" unicode="&#x294;" horiz-adv-x="868" 
d="M825 1161q0 145 -80.5 231.5t-228.5 86.5q-188 0 -369 -154l-16 21q180 160 387 159q160 0 249 -94t89 -250q0 -397 -416 -487l-116 -27l-91 -647h-30l94 668l139 30q389 90 389 463z" />
    <glyph glyph-name="uni0295" unicode="&#x295;" horiz-adv-x="864" 
d="M168 1008q0 213 129 355t331 142t335 -162l-21 -18q-129 154 -317.5 154t-307 -135.5t-118.5 -335.5q0 -139 76.5 -209t205.5 -101l127 -30l-94 -668h-29l90 647l-100 23q-141 35 -224 111.5t-83 226.5z" />
    <glyph glyph-name="uni0296" unicode="&#x296;" horiz-adv-x="1003" 
d="M381 -10q-199 0 -340 162l20 16q129 -152 317.5 -152t308.5 131.5t120 327.5q0 260 -281 322l-131 30l94 672l29 4l-92 -655l106 -25q303 -70 304 -348q0 -209 -128 -347t-327 -138z" />
    <glyph glyph-name="uni0297" unicode="&#x297;" horiz-adv-x="1001" 
d="M715 1081q145 0 246 -102l-19 -18q-88 94 -220 94t-236 -86q-102 -85 -166 -225q-132 -289 -132 -638q0 -238 82 -361.5t229.5 -123.5t276.5 103l15 -21q-133 -109 -293 -109t-250 132.5t-90 376t61.5 460.5t191.5 367.5t304 150.5z" />
    <glyph glyph-name="uni0298" unicode="&#x298;" horiz-adv-x="1613" 
d="M831 721q33 0 29 -29t-31 -28q-29 0 -28 30q3 27 30 27zM928 1386q-326 0 -523.5 -241.5t-197.5 -595.5q0 -256 139 -398.5t385 -142.5q338 0 530.5 237.5t192.5 602.5q0 260 -138 399t-388 139zM928 1413q262 0 409.5 -147.5t147.5 -417.5q-2 -377 -205 -621.5
t-549 -244.5q-260 0 -406.5 149.5t-146.5 417.5q0 367 207 615.5t543 248.5z" />
    <glyph glyph-name="uni0299" unicode="&#x299;" horiz-adv-x="1032" 
d="M467 27q184 0 299 87t115 246q0 199 -260 199h-338l-78 -532h262zM610 586q127 0 203 73.5t76 190.5q0 207 -275 207q-119 0 -266 -29l-61 -442h323zM465 0h-291l148 1051q391 79 521 -31q75 -64 75 -175.5t-68.5 -185.5t-179.5 -84q242 -10 241 -215q0 -172 -124.5 -266
t-321.5 -94z" />
    <glyph glyph-name="uni029A" unicode="&#x29a;" horiz-adv-x="1116" 
d="M940 659q0 193 -89 294.5t-251 101.5t-248 -82t-86 -183.5t66.5 -160t197.5 -58.5h88l-6 -26h-90q-203 0 -289 -85t-86 -202t78 -183.5t213 -66.5q240 -2 371 186.5t131 464.5zM119 254q0 125 84 213t252 94q-102 12 -159.5 69.5t-57.5 163t95 196.5t268 91t270.5 -109.5
t97.5 -312.5q0 -291 -139.5 -485t-391.5 -192q-145 0 -232 73.5t-87 198.5z" />
    <glyph glyph-name="uni029B" unicode="&#x29b;" horiz-adv-x="1120" 
d="M1186 1505q90 0 164 -61l-17 -19q-63 53 -144 53.5t-132 -47t-64 -141.5l-41 -303l-18 -16q-113 88 -262 88q-225 0 -361.5 -193.5t-136.5 -457.5q0 -199 95.5 -297.5t260 -98.5t295.5 70l62 440h-260v27h295l-68 -481q-150 -82 -326 -82t-279.5 106.5t-103.5 315.5
q0 276 145.5 476.5t379.5 200.5q152 0 256 -79l39 286q14 102 72.5 157.5t148.5 55.5z" />
    <glyph glyph-name="uni029C" unicode="&#x29c;" horiz-adv-x="1189" 
d="M838 0l77 543h-636l-78 -543h-29l150 1061h28l-67 -490h637l67 490h29l-150 -1061h-28z" />
    <glyph glyph-name="uni029D" unicode="&#x29d;" horiz-adv-x="552" 
d="M-78 -373q115 0 177.5 71t86.5 212q-106 20 -201 20t-156.5 -46t-61.5 -116q0 -140 155 -141zM-78 -399q-86 0 -135 43t-49 124.5t71.5 135t178 53.5t202.5 -23l160 1127h29l-160 -1133q82 -23 168 -65l-12 -21q-80 39 -160 62q-49 -303 -293 -303zM418 1409
q-33 0 -29 29.5t32 29.5t26 -29.5t-29 -29.5z" />
    <glyph glyph-name="uni029E" unicode="&#x29e;" horiz-adv-x="925" 
d="M530 -395l205 1456h29l-205 -1454zM20 0l584 485l-487 576h33l491 -580l-584 -481h-37z" />
    <glyph glyph-name="uni029F" unicode="&#x29f;" horiz-adv-x="815" 
d="M350 1061l-145 -1034h506l-9 -27h-530l150 1061h28z" />
    <glyph glyph-name="uni02A0" unicode="&#x2a0;" horiz-adv-x="1134" 
d="M682 1057q-137 0 -239.5 -64.5t-158.5 -168.5q-110 -203 -110 -439q0 -174 77 -275.5t214 -101.5q221 0 362 260l103 719q-111 70 -248 70zM1195 1505q89 0 163 -61l-17 -19q-63 53 -143 53.5t-132 -47t-65 -141.5l-239 -1683l-31 -2l90 612q-66 -115 -159 -175t-197 -60
q-150 0 -236 108.5t-86 297t80 378t247 270.5q93 45 221 45t243 -69l39 280q16 104 74.5 158.5t147.5 54.5z" />
    <glyph glyph-name="uni02A1" unicode="&#x2a1;" horiz-adv-x="868" 
d="M825 1161q0 145 -80.5 231.5t-228.5 86.5q-188 0 -369 -154l-16 21q180 160 387 159q160 0 249 -94t89 -250q0 -397 -416 -487l-116 -27l-33 -233h246l-2 -27h-246l-56 -387h-30l55 387h-143l2 27h145l35 254l139 30q389 90 389 463z" />
    <glyph glyph-name="uni02A2" unicode="&#x2a2;" horiz-adv-x="864" 
d="M628 1505q202 0 335 -162l-21 -18q-129 154 -317.5 154t-307 -135.5t-118.5 -335.5q0 -139 76.5 -209t205.5 -101l127 -30l-35 -254h158l-2 -27h-160l-55 -387h-29l54 387h-230l2 27h232l32 233l-100 23q-141 35 -224 111.5t-83 226.5q0 213 129 355t331 142z" />
    <glyph glyph-name="uni02A3" unicode="&#x2a3;" horiz-adv-x="1695" 
d="M854 27l797 1007h-656zM465 8q131 0 223 85t180 243l74 520q-86 201 -295 201q-123 0 -218 -66.5t-147 -172.5q-100 -206 -100 -409.5t76 -302t207 -98.5zM459 -18q-137 0 -221 106.5t-84 296t67 361.5q37 96 91.5 168.5t141.5 119.5t193 47q217 0 299 -188l86 610l29 -4
l-62 -438h693l-2 -25l-801 -1009h639l-6 -27h-697l37 281q-78 -137 -172 -218t-231 -81z" />
    <glyph glyph-name="uni02A4" unicode="&#x2a4;" horiz-adv-x="1742" 
d="M647 1057q-123 0 -218 -66.5t-147 -172.5q-100 -206 -100 -409.5t76 -302t207 -98.5t223 85t180 243l74 520q-86 201 -295 201zM1194 393q401 0 401 -315q0 -209 -127 -343t-338.5 -134t-345.5 166l21 14q125 -154 326 -154t318.5 127t117.5 324q0 289 -373 289h-107
l5 26l544 641h-641l-145 -1034h-25l37 281q-78 -137 -172 -218t-231 -81t-221 106.5t-84 295.5q0 188 67 362q37 96 91.5 168.5t141.5 119.5t193 47q217 0 299 -188l86 610l29 -4l-62 -438h678l-2 -25l-549 -643h68z" />
    <glyph glyph-name="uni02A5" unicode="&#x2a5;" horiz-adv-x="1716" 
d="M1696 222q0 70 -35 103t-92 33q-201 1 -264 -331q123 -2 202.5 13t134 63.5t54.5 118.5zM995 1034l-141 -1007l797 1007h-656zM465 8q131 0 223 85t180 243l74 520q-86 201 -295 201q-123 0 -218 -66.5t-147 -172.5q-100 -206 -100 -409.5t76 -302t207 -98.5zM1569 385
q70 0 111.5 -40t41.5 -112q0 -133 -110.5 -183t-311.5 -50q-14 -88 -30 -209h-27q14 111 31 209h-449l37 281q-78 -137 -172 -218t-231 -81t-221 106.5t-84 296t67 361.5q37 96 91.5 168.5t141.5 119.5t193 47q217 0 299 -188l86 610l29 -4l-62 -438h693l-2 -25l-801 -1009
h389l2 2q64 356 289 356z" />
    <glyph glyph-name="uni02A6" unicode="&#x2a6;" horiz-adv-x="1298" 
d="M944.5 1055q-143.5 0 -233.5 -73t-90 -172t56 -148.5t195 -88.5t201 -95t62 -159q0 -160 -132.5 -248.5t-379 -88.5t-344 89t-72.5 269l96 696h-176l4 25h176l45 272l23 2l-39 -274h256l-8 -25h-250l-98 -696q-25 -166 64 -249t322.5 -83t358.5 81t125 230
q0 92 -57.5 143.5t-195.5 89.5t-200.5 94t-62.5 164t100.5 189.5t254 81.5t276.5 -110l-21 -21q-112 105 -255.5 105z" />
    <glyph glyph-name="uni02A7" unicode="&#x2a7;" horiz-adv-x="1103" 
d="M449 8q137 0 313 64l135 964h-563l-107 -757q-38 -271 222 -271zM1154 1505q89 0 163 -61l-17 -19q-63 53 -143 53.5t-131 -47t-65 -141.5l-33 -229h2l-176 -1247q-14 -104 -73.5 -158.5t-148.5 -54.5t-163 61l16 19q63 -53 150 -54q164 0 190 189l27 184l6 45
q-174 -63 -309 -63q-293 0 -250 297l104 757h-176l4 25h176l45 272l23 2l-39 -274h563l35 231q14 104 72.5 158.5t147.5 54.5z" />
    <glyph glyph-name="uni02A8" unicode="&#x2a8;" horiz-adv-x="1462" 
d="M1313 240q0 143 -162 143q-84 0 -171 -55.5t-241 -200.5q86 -119 267 -119q135 0 221 62.5t86 169.5zM1143 1081q158 0 258 -102l-19 -18q-92 94 -239 94q-221 0 -350 -194.5t-129 -461.5q0 -154 61 -252q154 147 245 204t184 57t140 -45.5t47 -122.5q0 -117 -93 -187.5
t-242 -70.5q-188 0 -287 124q-164 -125 -322 -124q-239 0 -204 256l110 798h-176l4 25h176l45 272l23 2l-39 -274h297l-8 -25h-293l-111 -798q-33 -229 178 -230q154 0 303 121q-70 106 -69 270q0 279 138.5 480.5t371.5 201.5z" />
    <glyph glyph-name="uni02A9" unicode="&#x2a9;" horiz-adv-x="1765" 
d="M1331 1081q133 0 192.5 -86t37.5 -241l-134 -940q-14 -104 -73.5 -158.5t-149.5 -54.5t-160 61l17 19q59 -53 147 -54q164 0 191 189l133 938q41 303 -203 303q-256 0 -461 -400l-92 -657h-28l145 1036h-541l-145 -1036h-29l146 1036h-187l4 25h187l28 205q16 115 91 177
t192 62t223 -73l-16 -21q-102 68 -207.5 68t-172.5 -54.5t-83 -162.5l-27 -201h566l-45 -346q188 366 454 366z" />
    <glyph glyph-name="uni02AA" unicode="&#x2aa;" horiz-adv-x="1267" 
d="M620.5 -18q-221.5 0 -328 89t-81.5 267l162 1161l30 2l-163 -1165q-25 -166 74.5 -247t306 -81t330.5 82t124 229q0 92 -57 143.5t-195.5 89.5t-201 94t-62.5 164t98.5 189.5t254 81.5t276.5 -110l-19 -21q-113 104 -258 104.5t-233 -72.5t-88 -172t56 -148.5
t195.5 -88.5t201 -95t61.5 -159q0 -160 -131 -248.5t-352.5 -88.5z" />
    <glyph glyph-name="uni02AB" unicode="&#x2ab;" horiz-adv-x="1236" 
d="M303 -18q-143 0 -119 163l191 1354l28 2l-192 -1358q-18 -137 94 -137q39 0 88 17l801 1011h-600l4 27h637l-4 -25l-801 -1009h641l-6 -27h-668q-43 -18 -94 -18z" />
    <glyph glyph-name="uni02AC" unicode="&#x2ac;" horiz-adv-x="931" 
d="M817 532l-229 -532h-35l-88 508l-232 -508h-34l-84 532h26l78 -509l232 509h32l90 -509l220 509h24zM932 1352l-230 -533h-36l-88 508l-230 -508h-35l-84 533h27l78 -510l231 510h33l88 -510l221 510h25z" />
    <glyph glyph-name="uni02AD" unicode="&#x2ad;" horiz-adv-x="612" 
d="M475 2h-29l27 184h-432l-25 -186h-28l28 213h490zM592 821h-29l27 185h-432l-25 -187h-29l29 213h490z" />
    <glyph glyph-name="uni02AE" unicode="&#x2ae;" horiz-adv-x="1337" 
d="M1134.5 -397q-94.5 0 -137.5 55t-28 158l73 530q-184 -367 -448 -366q-279 0 -234 327l54 375l24 186q28 189 -139 189q-82 0 -160 -56l-12 21q84 59 176 59t135 -55t29 -160l-78 -557q-45 -305 207 -305t455 399l92 658h28l-174 -1245q-29 -190 139 -188q82 0 160 55
l13 -23q-80 -57 -174.5 -57z" />
    <glyph glyph-name="uni02AF" unicode="&#x2af;" horiz-adv-x="1333" 
d="M299 1057q-82 0 -160 -56l-12 21q84 59 176 59t135 -55t29 -160l-78 -557q-45 -305 207 -305t455 399l92 658h28l-202 -1456l-29 -2l102 743q-184 -367 -448 -366q-279 0 -234 327l54 375l24 186q28 189 -139 189z" />
    <glyph glyph-name="uni02B0" unicode="&#x2b0;" horiz-adv-x="630" 
d="M471 1362q162 0 139 -164l-53 -379h-27l52 375q20 143 -113 143t-231 -129l-56 -389h-26l104 750l27 4l-45 -332q100 121 229 121z" />
    <glyph glyph-name="uni02B1" unicode="&#x2b1;" horiz-adv-x="630" 
d="M471 1362q162 0 139 -164l-53 -379h-27l52 375q20 143 -113 143t-231 -129l-56 -389h-26l73 533l15 96q8 59 51 93t111 34t124 -33l-10 -20q-55 31 -117 30q-121 0 -135 -106l-26 -205q100 121 229 121z" />
    <glyph glyph-name="uni02B2" unicode="&#x2b2;" horiz-adv-x="376" 
d="M367 1352l-72 -525q-12 -92 -47 -134t-113 -75l-6 21q67 29 97 67t42 121l72 525h27zM383 1563q25 1 21 -21t-25 -22q-10 0 -17 7q-6 7 -4 15q0 21 25 21z" />
    <glyph glyph-name="uni02B4" unicode="&#x2b4;" horiz-adv-x="489" 
d="M211 809q-37 0 -55 6l6 23q20 -6 51 -7q127 0 201 166l49 355h26l-73 -533h-23l15 129q-70 -139 -197 -139z" />
    <glyph glyph-name="uni02B7" unicode="&#x2b7;" horiz-adv-x="931" 
d="M932 1352l-230 -533h-36l-88 508l-230 -508h-35l-84 533h27l78 -510l231 510h33l88 -510l221 510h25z" />
    <glyph glyph-name="uni02B8" unicode="&#x2b8;" horiz-adv-x="684" 
d="M686 1352l-280 -533q-50 -96 -96 -138t-140 -63l-2 23q86 18 125 54t88 124h-10l-142 533h29l133 -514l266 514h29z" />
    <glyph glyph-name="uni02B9" unicode="&#x2b9;" horiz-adv-x="559" 
d="M227 907l248 488h31l-254 -488h-25z" />
    <glyph glyph-name="uni02BA" unicode="&#x2ba;" horiz-adv-x="815" 
d="M227 907l248 488h31l-254 -488h-25zM483 907l248 488h31l-256 -488h-23z" />
    <glyph glyph-name="uni02BB" unicode="&#x2bb;" horiz-adv-x="251" 
d="M194 1225q-32 0 -32 28q0 10 24 60l123 219h21l-123 -248q18 -6 18 -27q1 -32 -31 -32z" />
    <glyph glyph-name="uni02BC" unicode="&#x2bc;" horiz-adv-x="444" 
d="M359 1466q32 0 32 -28q0 -10 -24 -60l-123 -219h-21l123 248q-18 6 -18 27q-1 32 31 32z" />
    <glyph glyph-name="uni02BF" unicode="&#x2bf;" horiz-adv-x="272" 
d="M324 1329q-66 0 -101 38q-35 39 -31 105t53 109q48 43 122 43l-2 -22q-63 0 -101 -38t-43 -98q-10 -115 107 -114z" />
    <glyph glyph-name="uni02C0" unicode="&#x2c0;" horiz-adv-x="395" 
d="M346 1622q-59 0 -125 -31l-10 21q66 37 131 37q131 0 131 -115q0 -125 -158 -141l-16 -117h-29l17 135q156 10 155 123q0 88 -96 88z" />
    <glyph glyph-name="circumflex" unicode="&#x2c6;" horiz-adv-x="610" 
d="M193 1343l-17 17l264 186h17l209 -186l-17 -17l-205 173z" />
    <glyph glyph-name="caron" unicode="&#x2c7;" horiz-adv-x="610" 
d="M672 1522l14 -17l-262 -186h-16l-209 186l16 17l205 -172z" />
    <glyph glyph-name="uni02C8" unicode="&#x2c8;" horiz-adv-x="153" 
d="M172 1315l55 405h31l-55 -405h-31z" />
    </font>
</defs>
</svg>
