<?xml version="1.0" standalone="no"?>
<!DOCTYPE svg PUBLIC "-//W3C//DTD SVG 1.1//EN" "http://www.w3.org/Graphics/SVG/1.1/DTD/svg11.dtd" >
<svg xmlns="http://www.w3.org/2000/svg">
<metadata>
Created by FontPrep 20130207 at Mon Sep 19 21:18:06 2016
 By Alex Birsan
Digitized data copyright (c) 2012-2015, The Mozilla Foundation and Telefonica S.A.
</metadata>
<defs>
<font id="34f752f48d2a60283ba0844fdcbce1ca" horiz-adv-x='1024' >
  <font-face 
    font-family="FiraSans-SemiBold"
    font-weight="600"
    font-stretch="normal"
    units-per-em="2048"
    panose-1="2 11 6 3 5 0 0 2 0 4"
    ascent="1638"
    descent="-410"
    x-height="1085"
    cap-height="1417"
    bbox="-1550 -725 2785 2396"
    underline-thickness="102"
    underline-position="-102"
    unicode-range="U+000D-1F310"
  />
<missing-glyph horiz-adv-x="1363" 
d="M645 246q31 0 51 -20t20 -53q0 -31 -20 -53t-51 -22t-51 22t-20 54t20 52t51 20zM664 924q227 0 227 -236q0 -213 -195 -242v-92q0 -23 -15 -36t-35 -13t-37 13q-15 13 -15 36v172q110 6 148 40t38 110t-26 112t-92 37q-66 0 -98 -14t-42 -14q-49 0 -49 47q1 40 61 60
t130 20zM1001 2044h-636v-2654h636v2654zM1112 2150v-2867h-860v2867h860z" />
    <glyph glyph-name="fi" unicode="fi" horiz-adv-x="1214" 
d="M176 1190q0 162 108 261t308 99t364 -80l-86 -190q-109 51 -218 51t-147 -35t-38 -114v-97h604v-1085h-291v881h-313v-881h-291v881h-168v204h168v105z" />
    <glyph glyph-name="fl" unicode="fl" horiz-adv-x="1273" 
d="M1059 -33q-119 0 -190 75t-70 216v1053q-92 25 -177 25t-120 -34t-35 -112v-105h221l-33 -204h-188v-881h-291v881h-168v204h168v109q0 158 104 257t304 99q113 0 239 -39l267 29v-1255q0 -86 59 -86q32 0 57 12l60 -207q-88 -37 -207 -37z" />
    <glyph glyph-name=".notdef" horiz-adv-x="1363" 
d="M645 246q31 0 51 -20t20 -53q0 -31 -20 -53t-51 -22t-51 22t-20 54t20 52t51 20zM664 924q227 0 227 -236q0 -213 -195 -242v-92q0 -23 -15 -36t-35 -13t-37 13q-15 13 -15 36v172q110 6 148 40t38 110t-26 112t-92 37q-66 0 -98 -14t-42 -14q-49 0 -49 47q1 40 61 60
t130 20zM1001 2044h-636v-2654h636v2654zM1112 2150v-2867h-860v2867h860z" />
    <glyph glyph-name=".null" horiz-adv-x="0" 
 />
    <glyph glyph-name="nonmarkingreturn" horiz-adv-x="681" 
 />
    <glyph glyph-name="CR" unicode="&#xd;" horiz-adv-x="499" 
 />
    <glyph glyph-name="space" unicode=" " horiz-adv-x="499" 
 />
    <glyph glyph-name="exclam" unicode="!" horiz-adv-x="493" 
d="M247 317q73 0 124 -51t51 -123t-51 -124t-124 -52t-124 52t-51 124t51 123t124 51zM399 1417l-34 -907h-238l-39 907h311z" />
    <glyph glyph-name="quotedbl" unicode="&#x22;" horiz-adv-x="880" 
d="M543 854l-37 563h270l-37 -563h-196zM141 854l-37 563h271l-37 -563h-197z" />
    <glyph glyph-name="numbersign" unicode="#" horiz-adv-x="1120" 
d="M649 500l53 405h-231l-53 -405h231zM1090 905h-146l-53 -405h123v-197h-150l-39 -303h-241l39 303h-232l-41 -303h-241l41 303h-119v197h143l55 405h-123v197h148l37 278h241l-36 -278h233l37 278h242l-37 -278h119v-197z" />
    <glyph glyph-name="dollar" unicode="$" horiz-adv-x="1116" 
d="M381 1038q0 -72 53 -112q52 -40 238 -96q186 -57 286 -154t99 -264q1 -168 -99 -278t-276 -142v-320h-217v310q-262 16 -438 188l151 164q150 -137 344 -137q106 0 171 49t65 134t-53 130q-53 46 -241 104t-285 154q-95 96 -95 249t104 254t277 126v301h217v-303
q199 -29 336 -164l-139 -162q-131 117 -299 117q-90 0 -144 -38t-55 -110z" />
    <glyph glyph-name="percent" unicode="%" horiz-adv-x="1742" 
d="M1458 330q0 184 -140 184t-140 -184t141 -185q139 1 139 185zM1320 692q155 0 255 -99t100 -263t-100 -263t-255 -99t-257 100t-102 263t102 262t257 99zM423 1229q-140 -1 -140 -185t140 -184t140 184t-140 185zM68 1044q0 164 101 264t256 99q155 0 255 -99
q100 -100 100 -264t-100 -263t-255 -99t-256 99t-101 263zM1255 1470l185 -116l-951 -1432l-182 117z" />
    <glyph glyph-name="ampersand" unicode="&#x26;" horiz-adv-x="1605" 
d="M692 178q124 0 236 94l-350 334q-141 -98 -142 -229q0 -91 66 -145t190 -54zM638 1257q-66 -1 -104 -39t-38 -98t28 -109q28 -48 99 -116q158 100 157 221q0 66 -38 104t-104 37zM215 1114q1 144 109 240t307 96t313 -91t115 -221q0 -130 -72 -222q-72 -91 -205 -175
l299 -278q66 139 103 307l248 -74q-76 -225 -187 -387l244 -217l-242 -125l-170 164q-184 -164 -448 -164q-221 0 -359 109q-137 109 -137 286q0 126 68 218t211 184q-109 104 -153 179t-44 171z" />
    <glyph glyph-name="quotesingle" unicode="'" horiz-adv-x="479" 
d="M141 854l-37 563h271l-37 -563h-197z" />
    <glyph glyph-name="parenleft" unicode="(" horiz-adv-x="663" 
d="M344 716q0 -284 68 -490t215 -419l-187 -124q-80 111 -122 172t-102 171q-169 310 -169 691q0 468 271 862q42 61 122 172l187 -125q-147 -213 -215 -419q-68 -207 -68 -491z" />
    <glyph glyph-name="parenright" unicode=")" horiz-adv-x="663" 
d="M322 717q0 285 -68 491t-215 418l184 125q80 -111 122 -172t102 -171q172 -315 170 -697q-1 -383 -170 -685q-60 -110 -102 -171t-122 -172l-184 124q147 213 215 419t68 491z" />
    <glyph glyph-name="asterisk" unicode="*" horiz-adv-x="915" 
d="M893 1110l-295 -53l209 -215l-207 -152l-143 264l-140 -266l-206 152l206 217l-294 51l77 238l269 -129l-39 301h256l-41 -304l268 134z" />
    <glyph glyph-name="plus" unicode="+" horiz-adv-x="1071" 
d="M657 1110v-317h308v-228h-308v-315h-245v315h-306v228h306v317h245z" />
    <glyph glyph-name="comma" unicode="," horiz-adv-x="491" 
d="M245 317q75 0 125 -50t50 -121t-58 -203l-133 -299h-170l86 356q-75 49 -75 133t50 134t125 50z" />
    <glyph glyph-name="hyphen" unicode="-" horiz-adv-x="831" 
d="M98 526v230h635v-230h-635z" />
    <glyph glyph-name="period" unicode="." horiz-adv-x="491" 
d="M245 317q73 0 124 -51t51 -123t-51 -124t-124 -52t-124 52t-51 124t51 123t124 51z" />
    <glyph glyph-name="slash" unicode="/" horiz-adv-x="1064" 
d="M647 1667l252 -57l-479 -1835l-254 59z" />
    <glyph glyph-name="zero" unicode="0" horiz-adv-x="1185" 
d="M592 1190q-111 0 -159 -113t-48 -389t48 -389t159 -113t160 112t49 392t-49 390t-160 110zM86 688q0 348 129 534t378 185q249 0 378 -185q129 -186 129 -534t-130 -534t-378 -186t-377 186t-129 534z" />
    <glyph glyph-name="one" unicode="1" horiz-adv-x="933" 
d="M752 1380v-1380h-285v1094l-303 -187l-127 197l459 276h256z" />
    <glyph glyph-name="two" unicode="2" horiz-adv-x="1048" 
d="M483 1407q213 0 337 -112q124 -113 124 -279t-113 -326t-436 -465h580l-33 -225h-879v211q369 369 476 508q106 139 106 272q0 88 -51 139q-51 52 -132 52t-140 -34t-123 -112l-176 140q175 231 460 231z" />
    <glyph glyph-name="three" unicode="3" horiz-adv-x="1054" 
d="M481 1407q211 0 330 -99q119 -100 119 -238q0 -265 -271 -339q139 -14 227 -100t89 -254q0 -168 -137 -289t-377 -121q-293 0 -459 205l158 152q131 -131 284 -131q106 0 169 57t63 164q0 108 -60 156t-178 48h-112l34 205h76q96 0 154 51q57 52 57 138t-52 131t-142 45
q-147 0 -273 -119l-145 158q190 180 446 180z" />
    <glyph glyph-name="four" unicode="4" horiz-adv-x="1140" 
d="M1094 528v-221h-162v-307h-283l-2 307h-584v197l398 907l246 -92l-342 -791h286l31 338h250v-338h162z" />
    <glyph glyph-name="five" unicode="5" horiz-adv-x="1079" 
d="M403 1169v-317q100 47 209 47q174 0 285 -120q111 -119 111 -331t-146 -346t-397 -135q-252 0 -432 201l166 156q111 -133 272 -134q113 0 175 68t63 195q0 244 -209 243q-82 0 -172 -49h-203v733h823l-35 -211h-510z" />
    <glyph glyph-name="six" unicode="6" horiz-adv-x="1138" 
d="M590 180q198 0 198 287q0 135 -44 193t-132 59q-127 0 -225 -127q4 -220 52 -316q49 -96 151 -96zM596 -33q-510 0 -510 686q0 332 157 543t425 211q178 0 307 -88l-107 -178q-94 55 -206 55t-189 -109q-76 -109 -86 -305q121 142 297 142t287 -120t111 -336t-135 -358
q-134 -142 -351 -143z" />
    <glyph glyph-name="seven" unicode="7" horiz-adv-x="946" 
d="M903 1380v-200l-508 -1211l-264 88l471 1102h-569v221h870z" />
    <glyph glyph-name="eight" unicode="8" horiz-adv-x="1175" 
d="M590 180q106 0 165 53q58 53 58 141t-51 140q-51 51 -182 98l-66 25q-154 -86 -154 -258q0 -91 62 -145t168 -54zM590 1208q-86 0 -135 -44t-49 -124t45 -126t143 -85l41 -14q135 86 135 223q0 78 -47 124t-133 46zM1106 373q0 -174 -142 -290t-380 -116t-377 114
t-139 286q0 233 260 348q-205 119 -205 325q0 166 132 266t333 101q201 0 333 -94t132 -260q-1 -193 -226 -312q279 -131 279 -368z" />
    <glyph glyph-name="nine" unicode="9" horiz-adv-x="1130" 
d="M539 692q133 0 221 133q2 203 -44 287t-150 84t-157 -64q-54 -64 -55 -188q1 -252 185 -252zM63 940q-1 209 141 338t370 129t355 -145q128 -145 128 -390q0 -414 -195 -622t-635 -305l-61 207q270 68 408 176t171 295q-111 -139 -283 -139t-286 123q-113 124 -113 333z
" />
    <glyph glyph-name="colon" unicode=":" horiz-adv-x="491" 
d="M245 317q73 0 124 -51t51 -123t-51 -124t-124 -52t-124 52t-51 124t51 123t124 51zM245 1036q73 0 124 -51t51 -123t-51 -124t-124 -52t-124 52t-51 124t51 123t124 51z" />
    <glyph glyph-name="semicolon" unicode=";" horiz-adv-x="491" 
d="M245 317q75 0 125 -50t50 -121t-58 -203l-133 -299h-170l86 356q-75 49 -75 133t50 134t125 50zM245 1036q73 0 124 -51t51 -123t-51 -124t-124 -52t-124 52t-51 124t51 123t124 51z" />
    <glyph glyph-name="less" unicode="&#x3c;" horiz-adv-x="1052" 
d="M881 1167l94 -211l-653 -274l653 -270l-94 -215l-803 354v262z" />
    <glyph glyph-name="equal" unicode="=" horiz-adv-x="1052" 
d="M106 354v228h842v-228h-842zM106 776v228h842v-228h-842z" />
    <glyph glyph-name="greater" unicode="&#x3e;" horiz-adv-x="1052" 
d="M172 1167l803 -354v-262l-803 -354l-94 215l653 270l-653 274z" />
    <glyph glyph-name="question" unicode="?" horiz-adv-x="974" 
d="M438 317q74 0 125 -51t51 -123t-51 -124t-125 -52t-124 51t-50 124t50 124t124 51zM504 1450q206 0 320 -97t114 -239q0 -92 -38 -160t-92 -108t-108 -75q-130 -86 -131 -200v-61h-268v72q0 82 25 146q26 64 62 102q73 73 159 124q86 53 86 125q0 140 -158 140
q-139 0 -250 -129l-188 145q186 215 467 215z" />
    <glyph glyph-name="at" unicode="@" horiz-adv-x="2088" 
d="M1016 205q106 0 162 119v491q-55 23 -107 23q-197 0 -197 -363q0 -143 34 -207t108 -63zM1079 1024q180 0 346 -90v-510q0 -125 25 -175t82 -50q182 0 182 440q0 281 -161 437t-483 157q-322 0 -507 -204q-186 -205 -186 -537t182 -528t520 -195q203 0 400 71l71 -205
q-229 -86 -473 -86q-438 0 -703 257q-265 256 -265 680t272 694t692 270t664 -237t243 -570q0 -279 -118 -456t-320 -177q-114 0 -182 62t-88 147q-86 -201 -293 -201q-180 0 -274 125t-95 332q0 257 125 403t344 146z" />
    <glyph glyph-name="A" unicode="A" horiz-adv-x="1200" 
d="M430 541h332l-166 653zM899 0l-80 317h-444l-80 -317h-313l436 1417h366l435 -1417h-320z" />
    <glyph glyph-name="B" unicode="B" horiz-adv-x="1259" 
d="M594 223q141 0 215 42t74 159q0 213 -262 213h-170v-414h143zM565 1200h-114v-358h147q229 0 229 186q0 94 -63.5 133t-198.5 39zM1196 412q0 -223 -159.5 -317.5t-444.5 -94.5h-442v1417h387q598 0 598 -362q0 -125 -75 -201.5t-186 -103.5q322 -61 322 -338z" />
    <glyph glyph-name="C" unicode="C" horiz-adv-x="1169" 
d="M691 1450q260 0 442 -154l-152 -176q-119 102 -264.5 102.5t-233.5 -123.5t-88 -384t89 -385t230.5 -125t295.5 119l139 -179q-174 -178 -449.5 -178t-448.5 194.5t-173 546t176.5 547t436.5 195.5z" />
    <glyph glyph-name="D" unicode="D" horiz-adv-x="1331" 
d="M567 1196h-116v-975h122q174 0 269.5 107.5t95.5 394.5t-103.5 380t-267.5 93zM520 1417q406 1 582 -201q148 -170 149 -518q0 -188 -58 -334q-57 -146 -161 -222q-194 -142 -477 -142h-405v1417h370z" />
    <glyph glyph-name="E" unicode="E" horiz-adv-x="1081" 
d="M451 1198v-369h446v-217h-446v-391h548v-221h-849v1417h845l-32 -219h-512z" />
    <glyph glyph-name="F" unicode="F" horiz-adv-x="999" 
d="M451 1198v-401h426v-219h-426v-578h-301v1417h823l-33 -219h-489z" />
    <glyph glyph-name="G" unicode="G" horiz-adv-x="1312" 
d="M730.5 1450q276.5 0 473.5 -170l-162 -166q-137 113 -293.5 113t-256 -128t-99.5 -397t77 -389t239 -120q117 0 211 51v346h-199l-31 219h522v-698q-229 -143 -520.5 -143.5t-452.5 189t-161 545t188 552t464.5 196.5z" />
    <glyph glyph-name="H" unicode="H" horiz-adv-x="1370" 
d="M920 0v621h-469v-621h-301v1417h301v-559h469v559h301v-1417h-301z" />
    <glyph glyph-name="I" unicode="I" horiz-adv-x="602" 
d="M451 1417v-1417h-301v1417h301z" />
    <glyph glyph-name="J" unicode="J" horiz-adv-x="643" 
d="M502 1417v-1206q0 -236 -114 -355.5t-322 -187.5l-80 215q131 51 173 125t42 213v1196h301z" />
    <glyph glyph-name="K" unicode="K" horiz-adv-x="1273" 
d="M1255 1417l-473 -639l510 -778h-352l-477 756l471 661h321zM451 1417v-1417h-301v1417h301z" />
    <glyph glyph-name="L" unicode="L" horiz-adv-x="1042" 
d="M451 1417v-1175h561l-33 -242h-829v1417h301z" />
    <glyph glyph-name="M" unicode="M" horiz-adv-x="1626" 
d="M1415 1417l109 -1417h-295l-31 575q-20 346 -12 578l-240 -1001h-284l-256 1003q16 -266 0 -586l-31 -569h-293l111 1417h382l234 -977l219 977h387z" />
    <glyph glyph-name="N" unicode="N" horiz-adv-x="1368" 
d="M1219 1417v-1417h-388l-450 1124q41 -317 41 -573v-551h-272v1417h378l459 -1126q-41 274 -41 504v622h273z" />
    <glyph glyph-name="O" unicode="O" horiz-adv-x="1415" 
d="M708.5 1225q-155.5 0 -234.5 -123t-79 -393q0 -516 314 -516q156 0 233.5 121.5t77.5 394t-78 394.5t-233.5 122zM710 1450q294 0 460.5 -193.5t166.5 -544.5t-168 -548t-461.5 -197t-461.5 194.5t-168 544t169 547t463 197.5z" />
    <glyph glyph-name="P" unicode="P" horiz-adv-x="1218" 
d="M588 705q131 0 200.5 59t69.5 197q0 240 -274 239h-133v-495h137zM588 1417q276 0 428.5 -114.5t152.5 -346.5t-151.5 -352.5t-405.5 -120.5h-161v-483h-301v1417h438z" />
    <glyph glyph-name="Q" unicode="Q" horiz-adv-x="1411" 
d="M395 709q0 -516 314 -516q156 0 233.5 121.5t77.5 394t-78 394.5t-233.5 122t-234.5 -123t-79 -393zM690 -27q-283 0 -447.5 192.5t-164.5 541t169 546t463 197.5t460.5 -193.5t166.5 -547.5q1 -437 -331 -621q233 0 409 -127l-182 -240q-121 125 -241 188.5t-302 63.5z
" />
    <glyph glyph-name="R" unicode="R" horiz-adv-x="1257" 
d="M451 1202v-434h157q244 0 244 225q0 109 -64.5 159t-201.5 50h-135zM451 555v-555h-301v1417h442q571 0 571 -424q0 -141 -67.5 -231t-210.5 -152l364 -610h-342l-303 555h-153z" />
    <glyph glyph-name="S" unicode="S" horiz-adv-x="1157" 
d="M582 1450q287 0 477 -178l-144 -166q-145 119 -313 119q-94 0 -150.5 -40t-56.5 -114q1 -74 57 -116q56 -43 248 -103t296 -159t104 -291t-147.5 -313.5t-401.5 -121.5q-322 0 -524 199l155 170q164 -141 361 -141q111 0 177 51t66 140t-55 135q-55 47 -251 107
t-295 160.5t-99 271.5t139.5 280.5t356.5 109.5z" />
    <glyph glyph-name="T" unicode="T" horiz-adv-x="1093" 
d="M698 1182v-1182h-301v1182h-377v235h1070l-33 -235h-359z" />
    <glyph glyph-name="U" unicode="U" horiz-adv-x="1339" 
d="M1208 1417v-950q0 -223 -140 -361.5t-401 -138.5t-399.5 136.5t-138.5 363.5v950h301v-936q0 -285 238 -284q240 0 239 284v936h301z" />
    <glyph glyph-name="V" unicode="V" horiz-adv-x="1161" 
d="M1178 1417l-408 -1417h-367l-421 1417h321l289 -1167l278 1167h308z" />
    <glyph glyph-name="W" unicode="W" horiz-adv-x="1724" 
d="M1696 1417l-248 -1417h-391l-197 1108l-207 -1108h-381l-245 1417h301l161 -1184l216 1184h317l207 -1184l182 1184h285z" />
    <glyph glyph-name="X" unicode="X" horiz-adv-x="1169" 
d="M760 764l414 -764h-332l-264 561l-261 -561h-321l403 754l-370 663h329l224 -473l233 473h320z" />
    <glyph glyph-name="Y" unicode="Y" horiz-adv-x="1193" 
d="M748 0h-302v532l-454 885h330l282 -643l281 643h317l-454 -882v-535z" />
    <glyph glyph-name="Z" unicode="Z" horiz-adv-x="1103" 
d="M1030 1417v-231l-635 -942h645l-32 -244h-965v227l647 953h-581v237h921z" />
    <glyph glyph-name="bracketleft" unicode="[" horiz-adv-x="661" 
d="M598 1681v-221h-238v-1489h238v-219h-514v1929h514z" />
    <glyph glyph-name="backslash" unicode="\" horiz-adv-x="1064" 
d="M418 1667l481 -1833l-254 -59l-479 1835z" />
    <glyph glyph-name="bracketright" unicode="]" horiz-adv-x="661" 
d="M578 1681v-1929h-515v219h238v1491h-238v219h515z" />
    <glyph glyph-name="asciicircum" unicode="^" horiz-adv-x="1134" 
d="M700 1726l387 -647h-288l-234 424l-225 -424h-293l387 647h266z" />
    <glyph glyph-name="underscore" unicode="_" horiz-adv-x="1064" 
d="M23 -336v232h1019v-232h-1019z" />
    <glyph glyph-name="grave" unicode="`" horiz-adv-x="675" 
d="M178 1694l436 -262l-82 -150l-471 188z" />
    <glyph glyph-name="a" unicode="a" horiz-adv-x="1120" 
d="M496 176q123 0 192 121v207h-96q-236 0 -236 -176q0 -72 36 -112t104 -40zM973 301q0 -63 18.5 -93t61.5 -44l-62 -193q-96 10 -156.5 46t-93.5 112q-109 -162 -325 -162q-162 0 -257.5 93.5t-95.5 257.5t129.5 258t370.5 94h125v53q0 100 -45 139t-155 39t-281 -57
l-66 194q203 80 402 80q430 0 430 -379v-438z" />
    <glyph glyph-name="b" unicode="b" horiz-adv-x="1220" 
d="M623 182q207 0 206 361q0 199 -50 279.5t-144 80.5q-117 0 -201 -139v-467q72 -115 189 -115zM733.5 1118q188.5 0 294 -151.5t105.5 -415.5t-116 -424t-303.5 -160t-295.5 139l-17 -106h-258v1518l291 32v-581q111 149 299.5 149z" />
    <glyph glyph-name="c" unicode="c" horiz-adv-x="978" 
d="M582.5 1118q222.5 0 373.5 -131l-127 -172q-102 78 -213 78q-231 0 -231 -346t229 -346q96 0 215 75l127 -182q-156 -127 -356 -127q-242 0 -382 153.5t-140 414t141 422t363.5 161.5z" />
    <glyph glyph-name="d" unicode="d" horiz-adv-x="1226" 
d="M588 184q121 0 205 131v486q-86 102 -187 102q-215 0 -215 -360q0 -195 50.5 -277t146.5 -82zM1083 0h-256l-18 133q-113 -166 -311.5 -166t-304 154.5t-105.5 416t120 421t324 159.5q150 0 261 -110v542l290 -32v-1518z" />
    <glyph glyph-name="e" unicode="e" horiz-adv-x="1132" 
d="M772 637v12q0 270 -194 271q-90 0 -139.5 -67t-61.5 -216h395zM1061 567q0 -20 -6 -112h-678q14 -147 79.5 -209t186.5 -62t256 95l121 -164q-182 -147 -425 -147t-380 153t-137 411t131 422t362.5 164t360.5 -145.5t129 -405.5z" />
    <glyph glyph-name="f" unicode="f" horiz-adv-x="718" 
d="M615 1333q-81 0 -112.5 -34.5t-31.5 -112.5v-101h258l-33 -204h-225v-881h-291v881h-172v204h172v109q0 158 103.5 257t275 99t305.5 -65l-80 -193q-88 41 -169 41z" />
    <glyph glyph-name="g" unicode="g" horiz-adv-x="1114" 
d="M541 924q-82 0 -130.5 -52.5t-48.5 -143.5t48.5 -144.5t132.5 -53.5q178 0 178 197t-180 197zM1001 707q0 -162 -120.5 -263.5t-325.5 -101.5q-72 0 -127 14q-41 -27 -41 -71q0 -72 125 -72h166q182 0 292.5 -87t110.5 -224q0 -166 -142 -259.5t-418 -93.5t-387 86
t-111 261h260q0 -80 51 -114t196.5 -34t201.5 35t56 98q0 119 -170 119h-159q-162 0 -242 60.5t-80 152.5q0 123 127 203q-193 104 -192 309q0 178 128 285.5t335 107.5q168 -4 276 28.5t231 102.5l72 -223q-106 -41 -313 -41q102 -45 151 -111.5t49 -166.5z" />
    <glyph glyph-name="h" unicode="h" horiz-adv-x="1185" 
d="M762 741q0 160 -117 160t-211 -149v-752h-291v1518l291 30v-585q134 155 316 155q141 0 222 -87t81 -240v-791h-291v741z" />
    <glyph glyph-name="i" unicode="i" horiz-adv-x="577" 
d="M434 1085v-1085h-291v1085h291zM287 1645q78 0 128 -48.5t50 -122t-50 -121.5t-128 -48t-127 48t-49 121.5t49 122t127 48.5z" />
    <glyph glyph-name="j" unicode="j" horiz-adv-x="575" 
d="M432 1085v-976q0 -247 -116 -373q-58 -64 -126.5 -105t-171.5 -80l-96 211q119 55 169 121t50 207v995h291zM287 1645q78 0 128 -48.5t50 -122t-50 -121.5t-128 -48t-127 48t-49 121.5t49 122t127 48.5z" />
    <glyph glyph-name="k" unicode="k" horiz-adv-x="1110" 
d="M1094 1085l-346 -477l376 -608h-329l-351 594l349 491h301zM434 0h-291v1518l291 32v-1550z" />
    <glyph glyph-name="l" unicode="l" horiz-adv-x="606" 
d="M398.5 -33q-117.5 0 -191.5 77t-74 218v1256l291 32v-1280q0 -72 59 -71q33 0 58 12l59 -207q-84 -37 -201.5 -37z" />
    <glyph glyph-name="m" unicode="m" horiz-adv-x="1736" 
d="M1317 1118q129 0 208 -88t79 -239v-791h-291v741q0 160 -107 160q-57 0 -100 -37t-88 -114v-750h-291v741q0 160 -104 160t-189 -151v-750h-291v1085h252l23 -135q123 168 315.5 168t259.5 -178q131 178 324 178z" />
    <glyph glyph-name="n" unicode="n" horiz-adv-x="1185" 
d="M750 1118q143 0 223 -87t80 -240v-791h-291v741q0 88 -30 124t-89 36q-115 0 -209 -151v-750h-291v1085h252l23 -137q137 170 332 170z" />
    <glyph glyph-name="o" unicode="o" horiz-adv-x="1196" 
d="M815 542.5q0 358.5 -217 358.5t-217 -358.5t217 -358.5t217 358.5zM600 1118q244 0 381 -152.5t137 -417.5t-139 -423t-382 -158t-381 152.5t-138 419t139 423t383 156.5z" />
    <glyph glyph-name="p" unicode="p" horiz-adv-x="1220" 
d="M616 184q213 0 213 359q0 197 -48 279q-47 82 -155 81.5t-192 -139.5v-473q69 -107 182 -107zM725 1118q408 0 408 -573q0 -256 -115 -417t-316 -161q-170 0 -268 117v-502l-291 -33v1536h256l15 -127q125 160 311 160z" />
    <glyph glyph-name="q" unicode="q" horiz-adv-x="1216" 
d="M578 184q121 0 204 131v486q-86 102 -186 102q-215 0 -215 -360q0 -195 50.5 -277t146.5 -82zM1073 1085v-1536l-291 33v531q-106 -145 -300 -145.5t-299 154t-105 416t119.5 421t324.5 159.5q162 0 283 -133l16 100h252z" />
    <glyph glyph-name="r" unicode="r" horiz-adv-x="813" 
d="M705 1116q49 0 108 -16l-49 -281q-57 14 -96 15q-96 0 -149.5 -68t-84.5 -207v-559h-291v1085h252l27 -211q39 115 114 178.5t169 63.5z" />
    <glyph glyph-name="s" unicode="s" horiz-adv-x="980" 
d="M521 1118q212 0 376 -131l-111 -166q-137 86 -270 86q-72 0 -110.5 -26.5t-38.5 -73.5t44 -76t199.5 -72.5t239.5 -122.5t84 -230t-134 -245t-335 -94q-270 0 -442 158l143 160q137 -106 291 -107q82 0 130 32t48 90t-45 89t-195 72q-322 90 -321 334q0 141 117.5 232
t329.5 91z" />
    <glyph glyph-name="t" unicode="t" horiz-adv-x="778" 
d="M170 340v541h-162v204h162v238l291 35v-273h250l-29 -204h-221v-535q0 -78 26.5 -112.5t82.5 -34.5t122 39l101 -187q-121 -84 -283 -84q-340 4 -340 373z" />
    <glyph glyph-name="u" unicode="u" horiz-adv-x="1175" 
d="M1032 1085v-1085h-252l-14 145q-115 -178 -330 -178q-147 0 -225 89t-78 249v780h291v-743q0 -86 28.5 -122t90.5 -36q117 0 198 142v759h291z" />
    <glyph glyph-name="v" unicode="v" horiz-adv-x="1040" 
d="M1044 1085l-348 -1085h-346l-354 1085h315l215 -858l219 858h299z" />
    <glyph glyph-name="w" unicode="w" horiz-adv-x="1517" 
d="M1501 1085l-231 -1085h-355l-155 825l-156 -825h-350l-238 1085h293l133 -870l181 870h290l162 -870l148 870h278z" />
    <glyph glyph-name="x" unicode="x" horiz-adv-x="1034" 
d="M692 582l357 -582h-334l-207 420l-203 -420h-319l356 571l-319 514h327l170 -360l166 360h311z" />
    <glyph glyph-name="y" unicode="y" horiz-adv-x="1048" 
d="M1053 1085l-351 -1087q-66 -207 -206 -319.5t-379 -129.5l-31 209q156 20 228.5 73.5t119.5 168.5h-100l-338 1085h309l217 -897l230 897h301z" />
    <glyph glyph-name="z" unicode="z" horiz-adv-x="929" 
d="M877 1085v-206l-510 -654h520l-29 -225h-825v209l510 653h-467v223h801z" />
    <glyph glyph-name="braceleft" unicode="{" horiz-adv-x="661" 
d="M600 1718v-207q-94 1 -130 -27t-36 -98v-407q0 -123 -48 -180t-150 -84q102 -25 151 -81t49 -179v-408q0 -69 36 -97t128 -28v-207q-250 0 -344 79t-94 251v387q0 92 -29 128t-106 36v240q79 0 107 36t28 129v388q0 173 94 251t344 78z" />
    <glyph glyph-name="bar" unicode="|" horiz-adv-x="784" 
d="M526 1657v-1870h-268v1870h268z" />
    <glyph glyph-name="braceright" unicode="}" horiz-adv-x="661" 
d="M63 1718q249 0 343 -78t94 -251v-388q0 -92 28 -129t107 -36v-240q-78 0 -107 -36t-28 -128v-387q0 -174 -93 -252t-344 -78v207q92 0 128 28t36 97v408q0 123 49 179t150 81q-102 27 -151 84q-48 57 -48 180v407q0 70 -36 98t-128 27v207z" />
    <glyph glyph-name="asciitilde" unicode="~" horiz-adv-x="1040" 
d="M684 483q-118 1 -201 63t-128 62q-74 0 -116 -53q-15 -18 -38 -53l-158 80q121 246 317 245q98 0 198 -62q100 -63 143 -63q44 0 75 25t66 74l155 -78q-116 -240 -313 -240z" />
    <glyph glyph-name="uni00A0" unicode="&#xa0;" horiz-adv-x="499" 
 />
    <glyph glyph-name="exclamdown" unicode="&#xa1;" horiz-adv-x="493" 
d="M367 487l36 -905h-311l37 905h238zM247 1036q73 0 124 -52t51 -124t-51 -123t-124 -51t-124 51t-51 123t51 124t124 52z" />
    <glyph glyph-name="cent" unicode="&#xa2;" horiz-adv-x="978" 
d="M700 -326h-217v303q-190 37 -298 185q-107 148 -107 374t108 380t299 192v305h215v-303q145 -25 256 -123l-127 -172q-102 78 -213 78q-231 0 -231 -346t229 -346q96 -1 215 75l127 -182q-119 -96 -256 -119v-301z" />
    <glyph glyph-name="sterling" unicode="&#xa3;" horiz-adv-x="1114" 
d="M518 475q0 -96 -26 -152t-103 -98h635l-33 -225h-928v213q109 33 140 85t30 165v180h-139v156h139v194q0 184 110 299t314 115q256 0 406 -195l-182 -133q-76 106 -197 107q-166 0 -166 -195v-192h391v-156h-391v-168z" />
    <glyph glyph-name="currency" unicode="&#xa4;" 
d="M574 461q103 0 158 62q54 62 54 176q0 115 -54 177t-158 62t-157 -62q-55 -62 -55 -176t54 -177q54 -62 158 -62zM1022 699q0 -136 -70 -244l154 -154l-135 -137l-160 155q-105 -61 -235 -61t-240 64l-160 -158l-135 137l158 156q-70 113 -70 243t68 238l-156 162
l135 135l160 -160q104 63 237 63t240 -61l158 158l135 -135l-154 -156q70 -109 70 -245z" />
    <glyph glyph-name="yen" unicode="&#xa5;" horiz-adv-x="1148" 
d="M995 719v-160h-274v-156h274v-157h-274v-246h-291v246h-274v157h274v156h-274v160h204l-368 661h311l279 -581l274 581h301l-369 -661h207z" />
    <glyph glyph-name="brokenbar" unicode="&#xa6;" horiz-adv-x="784" 
d="M526 537v-750h-268v750h268zM526 1657v-750h-268v750h268z" />
    <glyph glyph-name="section" unicode="&#xa7;" horiz-adv-x="1118" 
d="M743 579q0 60 -41 94q-42 35 -120 61t-154 54q-53 -66 -53 -127t35 -93q34 -32 98 -54t176 -65q59 70 59 130zM501 -164q-212 0 -368 109l96 180q131 -84 273 -84q80 0 127 27q47 26 47 78t-45 84t-204 81t-235 117t-75 188q0 154 157 254q-106 80 -106 219t118 227
t320 89q202 0 371 -113l-98 -170q-129 78 -273 78q-76 0 -118 -28t-42 -78t44 -84q44 -33 201 -82t234 -118t76 -192q1 -147 -159 -249q112 -80 112 -219t-120 -227q-121 -87 -333 -87z" />
    <glyph glyph-name="dieresis" unicode="&#xa8;" horiz-adv-x="894" 
d="M680 1622q64 0 108 -44t46 -108q0 -64 -46 -107q-46 -44 -109 -44q-64 0 -109 44q-44 44 -44 107t44 108q46 44 110 44zM216 1622q64 0 109 -44q44 -44 44 -108t-44 -107q-45 -44 -109 -44t-110 44q-45 44 -45 107t45 108q46 44 110 44z" />
    <glyph glyph-name="copyright" unicode="&#xa9;" horiz-adv-x="1658" 
d="M833 1288q153 0 263 -98l-95 -121q-63 53 -141 53q-166 0 -166 -233t158 -234q90 0 168 62l84 -125q-114 -104 -272 -104t-254 104t-96 292t98 296q100 108 253 108zM831 1411q-217 0 -362 -153q-145 -152 -145 -372t144 -371t362 -151t363 151q144 151 144 371
q-1 220 -145 372t-361 153zM831 1561q283 0 481 -197q198 -198 198 -478t-198 -476t-481 -197q-283 0 -483 197q-200 198 -198 478q0 280 199 476t482 197z" />
    <glyph glyph-name="ordfeminine" unicode="&#xaa;" horiz-adv-x="1024" 
d="M115 227h821v-227h-821v227zM471 733q80 0 129 64v139h-59q-166 0 -166 -115q0 -88 96 -88zM514 1079h86v29q0 68 -33 94t-121 25q-88 0 -219 -43l-61 172q166 61 342 61q350 0 350 -293v-305q0 -78 60 -98l-54 -172q-152 12 -213 115q-84 -119 -262 -119
q-129 -1 -207 71t-78 196t106 196t304 71z" />
    <glyph glyph-name="guillemotleft" unicode="&#xab;" horiz-adv-x="1259" 
d="M997 1128l179 -118l-267 -426l267 -426l-179 -119l-381 450v187zM465 1128l178 -118l-268 -426l268 -426l-178 -119l-381 450v187z" />
    <glyph glyph-name="logicalnot" unicode="&#xac;" horiz-adv-x="1073" 
d="M967 784v-538h-244v309h-617v229h861z" />
    <glyph glyph-name="uni00AD" unicode="&#xad;" horiz-adv-x="831" 
d="M98 526v230h635v-230h-635z" />
    <glyph glyph-name="registered" unicode="&#xae;" horiz-adv-x="1306" 
d="M586 1194v-147h59q94 0 94 77q0 70 -96 70h-57zM883 1120q0 -111 -121 -157l149 -240h-159l-121 213h-45v-213h-140v575h170q267 0 267 -178zM654 1421q-176 0 -290 -123t-114 -302t114 -300t290 -121q175 0 289 120t114 301t-114 303t-289 122zM653 1550q236 0 395 -160
q158 -160 158 -394t-158 -392t-395 -158q-235 0 -393 158t-158 392t158 394t393 160z" />
    <glyph glyph-name="macron" unicode="&#xaf;" horiz-adv-x="733" 
d="M672 1348h-611v204h611v-204z" />
    <glyph glyph-name="degree" unicode="&#xb0;" horiz-adv-x="1067" 
d="M446 936q68 0 110 46t42 125t-42 125t-110 46t-110 -45t-41 -125q-1 -80 41 -126t110 -46zM447 762q-143 0 -251 95t-108 251t108 249t250 93t251 -94q108 -94 108 -250t-108 -250t-250 -94z" />
    <glyph glyph-name="plusminus" unicode="&#xb1;" horiz-adv-x="1073" 
d="M115 0v227h841v-227h-841zM659 1233v-315h308v-228h-308v-315h-245v315h-308v228h308v315h245z" />
    <glyph glyph-name="uni00B2" unicode="&#xb2;" horiz-adv-x="819" 
d="M399 1536q150 0 233 -73t83 -175t-71 -195t-279 -266h368l-22 -170h-594v156q229 213 299 296t70 143q-1 115 -111 116q-88 0 -162 -86l-129 100q118 154 315 154z" />
    <glyph glyph-name="uni00B3" unicode="&#xb3;" horiz-adv-x="819" 
d="M388 1536q162 0 244 -60q81 -60 81 -157q0 -160 -189 -207q100 -8 160 -60t59 -159q0 -107 -93 -183q-94 -76 -276 -75q-182 0 -298 133l123 117q80 -82 178 -82q61 0 98 30t37 85q0 113 -143 112h-74l24 152h52q59 0 92 26t33 74q0 90 -106 90t-183 -72l-113 117
q132 119 294 119z" />
    <glyph glyph-name="acute" unicode="&#xb4;" horiz-adv-x="675" 
d="M500 1694l114 -224l-471 -188l-82 150z" />
    <glyph glyph-name="uni00B5" unicode="&#xb5;" horiz-adv-x="1196" 
d="M420 -223v-195l-277 -31v1534h291v-749q0 -137 118 -137t196 145v741h290v-712q0 -213 49 -373l-266 -33q-29 59 -49 180q-98 -165 -227 -165t-195 90q70 -135 70 -295z" />
    <glyph glyph-name="paragraph" unicode="&#xb6;" horiz-adv-x="1587" 
d="M1337 1417v-1835l-256 -35v1661h-198v-1626l-256 -35v1002q-236 8 -359 125q-123 118 -123 316q-1 198 143 314t398 113h651z" />
    <glyph glyph-name="periodcentered" unicode="&#xb7;" horiz-adv-x="491" 
d="M245 807q73 0 124 -51t51 -123t-51 -124t-124 -52t-124 52t-51 124t51 123t124 51z" />
    <glyph glyph-name="cedilla" unicode="&#xb8;" horiz-adv-x="634" 
d="M367 -102q206 -20 206 -207q0 -92 -80 -155q-81 -62 -214 -62t-218 59l68 139q63 -35 131 -34q98 0 98 65q0 74 -188 74l33 256h164v-135z" />
    <glyph glyph-name="uni00B9" unicode="&#xb9;" horiz-adv-x="819" 
d="M600 1518v-861h-217v650l-193 -115l-96 147l307 179h199z" />
    <glyph glyph-name="ordmasculine" unicode="&#xba;" horiz-adv-x="1024" 
d="M92 0v227h840v-227h-840zM514 1225q-156 0 -156 -244t154 -244t154 244q0 129 -37 187t-115 57zM514 1417q198 -1 312 -115t114 -318t-115 -322t-315 -117t-312 115q-114 114 -114 318t116 322t314 117z" />
    <glyph glyph-name="guillemotright" unicode="&#xbb;" horiz-adv-x="1251" 
d="M786 1128l381 -452v-187l-381 -450l-178 119l266 426l-266 426zM262 1128l381 -452v-187l-381 -450l-178 119l266 426l-266 426z" />
    <glyph glyph-name="onequarter" unicode="&#xbc;" horiz-adv-x="1966" 
d="M1905 342v-164h-99v-178h-211v178h-389v148l252 553l187 -68l-211 -469h165l35 199h172v-199h99zM600 557h-217v649l-193 -114l-96 147l307 178h199v-860zM1317 1550l172 -86l-840 -1636l-172 86z" />
    <glyph glyph-name="onehalf" unicode="&#xbd;" horiz-adv-x="1966" 
d="M1546 879q150 0 233 -73t83 -175q0 -101 -71 -195t-280 -266h369l-22 -170h-594v156q229 213 299 296q69 83 69 143q-1 116 -110 116q-88 0 -162 -86l-129 100q118 154 315 154zM600 1417v-860h-217v649l-193 -114l-96 147l307 178h199zM1317 1550l172 -86l-840 -1636
l-172 86z" />
    <glyph glyph-name="threequarters" unicode="&#xbe;" horiz-adv-x="1966" 
d="M1905 342v-164h-99v-178h-211v178h-389v148l252 553l187 -68l-211 -469h165l35 199h172v-199h99zM743 792q0 -106 -93 -182t-259 -75q-199 0 -315 133l123 116q80 -82 178 -82q61 0 98 30t37 85q0 113 -143 113h-74l24 151h52q59 0 92 27t33 74q0 90 -106 90t-183 -72
l-113 117q131 119 294 119t244 -60t81 -157q0 -160 -189 -207q100 -8 160 -60q60 -54 59 -160zM1317 1550l172 -86l-840 -1636l-172 86z" />
    <glyph glyph-name="questiondown" unicode="&#xbf;" horiz-adv-x="974" 
d="M471 -453q-207 -1 -321 97t-113 241q0 92 38 160t92 107q54 38 108 74q131 86 131 196v67h268v-77q0 -96 -34 -167t-83 -110t-98 -69q-117 -73 -117 -156q0 -63 42 -97t116 -34q137 0 250 131l188 -148q-186 -215 -467 -215zM537 686q-74 0 -125 51t-52 123q0 72 52 124
t125 52t123 -51t50 -124t-49 -124q-50 -51 -124 -51z" />
    <glyph glyph-name="Agrave" unicode="&#xc0;" horiz-adv-x="1200" 
d="M430 541h332l-166 653zM899 0l-80 317h-444l-80 -317h-313l436 1417h366l435 -1417h-320zM866 1690l-73 -150l-480 174l113 221z" />
    <glyph glyph-name="Aacute" unicode="&#xc1;" horiz-adv-x="1200" 
d="M430 541h332l-166 653zM899 0l-80 317h-444l-80 -317h-313l436 1417h366l435 -1417h-320zM879 1714l-480 -174l-73 150l440 245z" />
    <glyph glyph-name="Acircumflex" unicode="&#xc2;" horiz-adv-x="1200" 
d="M430 541h332l-166 653zM899 0l-80 317h-444l-80 -317h-313l436 1417h366l435 -1417h-320zM600 1718l-268 -170l-109 123l287 254h180l287 -254l-107 -123z" />
    <glyph glyph-name="Atilde" unicode="&#xc3;" horiz-adv-x="1200" 
d="M430 541h332l-166 653zM899 0l-80 317h-444l-80 -317h-313l436 1417h366l435 -1417h-320zM485 1663q-57 0 -108 -92l-150 74q41 100 106.5 163.5t140.5 63.5t145.5 -47t99.5 -47q55 0 108 90l150 -74q-90 -225 -256 -225q-63 0 -135 47t-101 47z" />
    <glyph glyph-name="Adieresis" unicode="&#xc4;" horiz-adv-x="1200" 
d="M430 541h332l-166 653zM899 0l-80 317h-444l-80 -317h-313l436 1417h366l435 -1417h-320zM832.5 1577q-64.5 0 -109.5 44t-45 107.5t45 107.5t109.5 44t109.5 -44t45 -107.5t-45 -107.5t-109.5 -44zM370.5 1577q-64.5 0 -110 44t-45.5 107.5t45 107.5t110 44t108.5 -44
t43.5 -107.5t-43.5 -107.5t-108 -44z" />
    <glyph glyph-name="Aring" unicode="&#xc5;" horiz-adv-x="1200" 
d="M430 541h332l-166 653zM899 0l-80 317h-444l-80 -317h-313l436 1417h366l435 -1417h-320zM602 1868q-43 0 -69.5 -28t-26.5 -78t25.5 -77.5t70.5 -27.5t70.5 27.5t25.5 77.5t-26.5 78t-69.5 28zM602 1505q-121 0 -196.5 75t-75.5 182t75.5 182t196.5 75t196.5 -74.5
t75.5 -182.5t-75.5 -182.5t-196.5 -74.5z" />
    <glyph glyph-name="AE" unicode="&#xc6;" horiz-adv-x="1716" 
d="M465 541h350l-123 653zM1638 221v-221h-720l-62 317h-467l-110 -317h-320l557 1417h1045l-33 -219h-572l80 -373h506v-217h-459l84 -387h471z" />
    <glyph glyph-name="Ccedilla" unicode="&#xc7;" horiz-adv-x="1169" 
d="M989 -309q0 -92 -81 -154.5t-214 -62.5t-217 59l68 139q63 -35 131 -34q98 0 98 65q0 74 -188 74l24 198q-246 33 -389 223.5t-143 525.5t176 530.5t436.5 195.5t442.5 -154l-152 -176q-119 102 -264.5 102.5t-233.5 -123.5t-88 -384t89 -385t230.5 -125t295.5 119
l139 -179q-147 -152 -367 -174v-73q207 -20 207 -207z" />
    <glyph glyph-name="Egrave" unicode="&#xc8;" horiz-adv-x="1081" 
d="M451 1198v-369h446v-217h-446v-391h548v-221h-849v1417h845l-32 -219h-512zM401 1935l441 -245l-74 -150l-479 174z" />
    <glyph glyph-name="Eacute" unicode="&#xc9;" horiz-adv-x="1081" 
d="M451 1198v-369h446v-217h-446v-391h548v-221h-849v1417h845l-32 -219h-512zM739 1935l113 -221l-479 -174l-74 150z" />
    <glyph glyph-name="Ecircumflex" unicode="&#xca;" horiz-adv-x="1081" 
d="M451 1198v-369h446v-217h-446v-391h548v-221h-849v1417h845l-32 -219h-512zM846 1548l-271 170l-268 -170l-108 123l286 254h181l286 -254z" />
    <glyph glyph-name="Edieresis" unicode="&#xcb;" horiz-adv-x="1081" 
d="M451 1198v-369h446v-217h-446v-391h548v-221h-849v1417h845l-32 -219h-512zM808.5 1880q64.5 0 109.5 -44t45 -107.5t-45.5 -107.5t-109.5 -44t-109.5 44t-45.5 107.5t45.5 107.5t110 44zM345.5 1880q64.5 0 108.5 -44t44 -107.5t-44 -107.5t-108.5 -44t-110 44
t-45.5 107.5t45.5 107.5t110 44z" />
    <glyph glyph-name="Igrave" unicode="&#xcc;" horiz-adv-x="602" 
d="M451 1417v-1417h-301v1417h301zM125 1935l440 -245l-73 -150l-480 174z" />
    <glyph glyph-name="Iacute" unicode="&#xcd;" horiz-adv-x="602" 
d="M451 1417v-1417h-301v1417h301zM463 1935l112 -221l-479 -174l-73 150z" />
    <glyph glyph-name="Icircumflex" unicode="&#xce;" horiz-adv-x="602" 
d="M451 1417v-1417h-301v1417h301zM569 1548l-270 170l-268 -170l-109 123l287 254h180l287 -254z" />
    <glyph glyph-name="Idieresis" unicode="&#xcf;" horiz-adv-x="602" 
d="M451 1417v-1417h-301v1417h301zM531.5 1880q64.5 0 109.5 -44t45 -107.5t-45 -107.5t-109.5 -44t-109.5 44t-45 107.5t45 107.5t109.5 44zM69.5 1880q64.5 0 108 -44t43.5 -107.5t-44 -107.5t-108 -44t-109.5 44t-45.5 107.5t45.5 107.5t110 44z" />
    <glyph glyph-name="Eth" unicode="&#xd0;" horiz-adv-x="1357" 
d="M602 221q172 0 267.5 107.5t95.5 393.5t-110 386q-54 49 -114.5 68.5t-144.5 19.5h-117v-379h287v-188h-287v-408h123zM549 1417q407 1 583 -201q148 -170 148 -518q0 -188 -58 -334t-162 -222q-194 -141 -476 -142h-406v629h-147v188h147v600h371z" />
    <glyph glyph-name="Ntilde" unicode="&#xd1;" horiz-adv-x="1368" 
d="M1219 1417v-1417h-388l-450 1124q41 -317 41 -573v-551h-272v1417h378l459 -1126q-41 274 -41 504v622h273zM815 1569q-63 0 -135 47t-100 47q-57 0 -109 -92l-149 74q41 100 106.5 163.5t139.5 63.5t145 -47t100 -47q55 0 109 90l149 -74q-90 -225 -256 -225z" />
    <glyph glyph-name="Ograve" unicode="&#xd2;" horiz-adv-x="1415" 
d="M708.5 1225q-155.5 0 -234.5 -123t-79 -393q0 -516 314 -516q156 0 233.5 121.5t77.5 394t-78 394.5t-233.5 122zM710 1450q294 0 460.5 -193.5t166.5 -544.5t-168 -548t-461.5 -197t-461.5 194.5t-168 544t169 547t463 197.5zM532 1935l441 -245l-74 -150l-479 174z" />
    <glyph glyph-name="Oacute" unicode="&#xd3;" horiz-adv-x="1415" 
d="M708.5 1225q-155.5 0 -234.5 -123t-79 -393q0 -516 314 -516q156 0 233.5 121.5t77.5 394t-78 394.5t-233.5 122zM710 1450q294 0 460.5 -193.5t166.5 -544.5t-168 -548t-461.5 -197t-461.5 194.5t-168 544t169 547t463 197.5zM870 1935l113 -221l-479 -174l-74 150z" />
    <glyph glyph-name="Ocircumflex" unicode="&#xd4;" horiz-adv-x="1415" 
d="M708.5 1225q-155.5 0 -234.5 -123t-79 -393q0 -516 314 -516q156 0 233.5 121.5t77.5 394t-78 394.5t-233.5 122zM710 1450q294 0 460.5 -193.5t166.5 -544.5t-168 -548t-461.5 -197t-461.5 194.5t-168 544t169 547t463 197.5zM977 1548l-270 170l-269 -170l-108 123
l286 254h181l286 -254z" />
    <glyph glyph-name="Otilde" unicode="&#xd5;" horiz-adv-x="1415" 
d="M708.5 1225q-155.5 0 -234.5 -123t-79 -393q0 -516 314 -516q156 0 233.5 121.5t77.5 394t-78 394.5t-233.5 122zM710 1450q294 0 460.5 -193.5t166.5 -544.5t-168 -548t-461.5 -197t-461.5 194.5t-168 544t169 547t463 197.5zM825 1569q-63 0 -135 47t-100 47
q-57 0 -109 -92l-149 74q41 100 106.5 163.5t140.5 63.5t145.5 -47t98.5 -47q55 0 109 90l149 -74q-90 -225 -256 -225z" />
    <glyph glyph-name="Odieresis" unicode="&#xd6;" horiz-adv-x="1415" 
d="M708.5 1225q-155.5 0 -234.5 -123t-79 -393q0 -516 314 -516q156 0 233.5 121.5t77.5 394t-78 394.5t-233.5 122zM710 1450q294 0 460.5 -193.5t166.5 -544.5t-168 -548t-461.5 -197t-461.5 194.5t-168 544t169 547t463 197.5zM939.5 1880q64.5 0 109.5 -44t45 -107.5
t-45 -107.5t-109.5 -44t-110 44t-45.5 107.5t45.5 107.5t110 44zM476.5 1880q64.5 0 108.5 -44t44 -107.5t-44 -107.5t-108.5 -44t-109.5 44t-45 107.5t45 107.5t109.5 44z" />
    <glyph glyph-name="multiply" unicode="&#xd7;" horiz-adv-x="1052" 
d="M768 1032l162 -164l-244 -239l244 -242l-162 -164l-242 244l-241 -244l-162 164l244 242l-244 239l162 164l241 -244z" />
    <glyph glyph-name="Oslash" unicode="&#xd8;" horiz-adv-x="1415" 
d="M709 193q156 0 233.5 121.5t77.5 423t-100 409.5l-283 -948q35 -6 72 -6zM709 1225q-156 0 -235 -123t-79 -416.5t99 -411.5l284 945q-32 6 -69 6zM1337 709q0 -348 -168 -545t-460 -197q-63 0 -111 8l-74 -247l-231 61l82 264q-297 178 -297 656q0 346 169 543.5
t462 197.5q61 0 108 -8l76 250l229 -62l-84 -264q299 -176 299 -657z" />
    <glyph glyph-name="Ugrave" unicode="&#xd9;" horiz-adv-x="1339" 
d="M1208 1417v-950q0 -223 -140 -361.5t-401 -138.5t-399.5 136.5t-138.5 363.5v950h301v-936q0 -285 238 -284q240 0 239 284v936h301zM494 1935l440 -245l-74 -150l-479 174z" />
    <glyph glyph-name="Uacute" unicode="&#xda;" horiz-adv-x="1339" 
d="M1208 1417v-950q0 -223 -140 -361.5t-401 -138.5t-399.5 136.5t-138.5 363.5v950h301v-936q0 -285 238 -284q240 0 239 284v936h301zM834 1935l112 -221l-479 -174l-74 150z" />
    <glyph glyph-name="Ucircumflex" unicode="&#xdb;" horiz-adv-x="1339" 
d="M1208 1417v-950q0 -223 -140 -361.5t-401 -138.5t-399.5 136.5t-138.5 363.5v950h301v-936q0 -285 238 -284q240 0 239 284v936h301zM938 1548l-270 170l-269 -170l-108 123l287 254h180l286 -254z" />
    <glyph glyph-name="Udieresis" unicode="&#xdc;" horiz-adv-x="1339" 
d="M1208 1417v-950q0 -223 -140 -361.5t-401 -138.5t-399.5 136.5t-138.5 363.5v950h301v-936q0 -285 238 -284q240 0 239 284v936h301zM900.5 1880q64.5 0 109.5 -44t45 -107.5t-45 -107.5t-109.5 -44t-110 44t-45.5 107.5t45.5 107.5t110 44zM437.5 1880q64.5 0 108.5 -44
t44 -107.5t-44 -107.5t-108.5 -44t-109.5 44t-45 107.5t45 107.5t109.5 44z" />
    <glyph glyph-name="Yacute" unicode="&#xdd;" horiz-adv-x="1193" 
d="M748 0h-302v532l-454 885h330l282 -643l281 643h317l-454 -882v-535zM760 1935l112 -221l-479 -174l-74 150z" />
    <glyph glyph-name="Thorn" unicode="&#xde;" horiz-adv-x="1218" 
d="M588 461q133 0 201.5 60.5t68.5 205.5q0 246 -274 246h-133v-512h137zM588 1190q276 0 428.5 -116t152.5 -354t-151.5 -359t-405.5 -121h-161v-240h-301v1417h301v-227h137z" />
    <glyph glyph-name="germandbls" unicode="&#xdf;" horiz-adv-x="1234" 
d="M143 1096q0 214 121 334q122 120 328 120t317 -88t111 -215q0 -70 -33 -127t-73 -88q-105 -81 -105 -151q0 -43 39 -82t94 -76q54 -37 110 -83t95 -124t39 -178q0 -170 -115 -270t-287 -101q-127 0 -233 53l86 199q43 -25 109 -25t104 38q37 38 37 107t-35 119t-84 86
t-97 72q-118 87 -118 222q0 72 30 124q29 52 65 78t66 72q30 45 30 103t-38 93q-38 34 -102 33q-170 0 -170 -239v-1102h-291v1096z" />
    <glyph glyph-name="agrave" unicode="&#xe0;" horiz-adv-x="1120" 
d="M496 176q123 0 192 121v207h-96q-236 0 -236 -176q0 -72 36 -112t104 -40zM973 301q0 -63 18.5 -93t61.5 -44l-62 -193q-96 10 -156.5 46t-93.5 112q-109 -162 -325 -162q-162 0 -257.5 93.5t-95.5 257.5t129.5 258t370.5 94h125v53q0 100 -45 139t-155 39t-281 -57
l-66 194q203 80 402 80q430 0 430 -379v-438zM846 1432l-82 -150l-471 188l117 224z" />
    <glyph glyph-name="aacute" unicode="&#xe1;" horiz-adv-x="1120" 
d="M496 176q123 0 192 121v207h-96q-236 0 -236 -176q0 -72 36 -112t104 -40zM973 301q0 -63 18.5 -93t61.5 -44l-62 -193q-96 10 -156.5 46t-93.5 112q-109 -162 -325 -162q-162 0 -257.5 93.5t-95.5 257.5t129.5 258t370.5 94h125v53q0 100 -45 139t-155 39t-281 -57
l-66 194q203 80 402 80q430 0 430 -379v-438zM817 1470l-471 -188l-82 150l438 262z" />
    <glyph glyph-name="acircumflex" unicode="&#xe2;" horiz-adv-x="1120" 
d="M496 176q123 0 192 121v207h-96q-236 0 -236 -176q0 -72 36 -112t104 -40zM973 301q0 -63 18.5 -93t61.5 -44l-62 -193q-96 10 -156.5 46t-93.5 112q-109 -162 -325 -162q-162 0 -257.5 93.5t-95.5 257.5t129.5 258t370.5 94h125v53q0 100 -45 139t-155 39t-281 -57
l-66 194q203 80 402 80q430 0 430 -379v-438zM551 1460l-270 -182l-107 123l287 268h180l287 -268l-109 -123z" />
    <glyph glyph-name="atilde" unicode="&#xe3;" horiz-adv-x="1120" 
d="M496 176q123 0 192 121v207h-96q-236 0 -236 -176q0 -72 36 -112t104 -40zM973 301q0 -63 18.5 -93t61.5 -44l-62 -193q-96 10 -156.5 46t-93.5 112q-109 -162 -325 -162q-162 0 -257.5 93.5t-95.5 257.5t129.5 258t370.5 94h125v53q0 100 -45 139t-155 39t-281 -57
l-66 194q203 80 402 80q430 0 430 -379v-438zM434 1405q-57 0 -108 -92l-150 73q41 100 106.5 164t140.5 64t145.5 -47t99.5 -47q55 0 108 90l150 -74q-90 -225 -256 -225q-63 0 -135 47t-101 47z" />
    <glyph glyph-name="adieresis" unicode="&#xe4;" horiz-adv-x="1120" 
d="M496 176q123 0 192 121v207h-96q-236 0 -236 -176q0 -72 36 -112t104 -40zM973 301q0 -63 18.5 -93t61.5 -44l-62 -193q-96 10 -156.5 46t-93.5 112q-109 -162 -325 -162q-162 0 -257.5 93.5t-95.5 257t129.5 258t370.5 94.5h125v53q0 100 -45 139t-154.5 39t-281.5 -57
l-66 194q203 80 402 80q430 0 430 -379v-438zM781.5 1319q-64.5 0 -109.5 44t-45 107.5t45 107.5t109.5 44t109.5 -44t45 -107.5t-45 -107.5t-109.5 -44zM318.5 1319q-64.5 0 -109.5 44t-45 107.5t45 107.5t109.5 44t108.5 -44t44 -107.5t-44 -107.5t-108.5 -44z" />
    <glyph glyph-name="aring" unicode="&#xe5;" horiz-adv-x="1120" 
d="M496 176q123 0 192 121v207h-96q-236 0 -236 -176q0 -72 36 -112t104 -40zM973 301q0 -63 18.5 -93t61.5 -44l-62 -193q-96 10 -156.5 46t-93.5 112q-109 -162 -325 -162q-162 0 -257.5 93.5t-95.5 257.5t129.5 258t370.5 94h125v53q0 100 -45 139t-155 39t-281 -57
l-66 194q203 80 402 80q430 0 430 -379v-438zM551 1610q-43 0 -69.5 -28t-26.5 -78t25.5 -77.5t70.5 -27.5t70.5 27.5t25.5 77.5t-26.5 78t-69.5 28zM551 1247q-121 0 -196.5 75t-75.5 182t75.5 182t196.5 75t196.5 -74.5t75.5 -182.5t-75.5 -182.5t-196.5 -74.5z" />
    <glyph glyph-name="ae" unicode="&#xe6;" horiz-adv-x="1753" 
d="M510 176q123 0 217 148q-23 78 -25 168v6h-96q-236 0 -235 -174q0 -70 35.5 -109t103.5 -39zM1395 637v12q-4 270 -197 271q-90 0 -139 -67t-62 -216h398zM1681 567q0 -20 -6 -112h-678q14 -147 80 -209q67 -62 187 -62t256 95l120 -164q-182 -147 -411 -148
q-281 0 -422 189q-133 -188 -385 -189q-166 0 -262.5 93.5t-96.5 257.5t132.5 258t377.5 94h125v51q0 100 -44 139t-156 39t-279 -57l-67 196q204 80 416 80t315 -145q125 145 335 145t336.5 -146.5t126.5 -404.5z" />
    <glyph glyph-name="ccedilla" unicode="&#xe7;" horiz-adv-x="978" 
d="M862 -309q0 -92 -81 -154.5t-214 -62.5t-217 59l68 139q63 -35 131 -34q98 0 98 65q0 74 -188 74l26 200q-193 35 -300 182.5t-107 391.5t141 405.5t363.5 161.5t373.5 -131l-127 -172q-102 78 -213 78q-231 0 -231 -346t229 -346q96 0 215 75l127 -182
q-129 -106 -301 -125v-71q207 -20 207 -207z" />
    <glyph glyph-name="egrave" unicode="&#xe8;" horiz-adv-x="1132" 
d="M772 637v12q0 270 -194 271q-90 0 -139.5 -67t-61.5 -216h395zM1061 567q0 -20 -6 -112h-678q14 -147 79.5 -209t186.5 -62t256 95l121 -164q-182 -147 -425 -147t-380 153t-137 411t131 422t362.5 164t360.5 -145.5t129 -405.5zM874 1432l-81 -150l-471 188l116 224z
" />
    <glyph glyph-name="eacute" unicode="&#xe9;" horiz-adv-x="1132" 
d="M772 637v12q0 270 -194 271q-90 0 -139.5 -67t-61.5 -216h395zM1061 567q0 -20 -6 -112h-678q14 -147 79.5 -209t186.5 -62t256 95l121 -164q-182 -147 -425 -147t-380 153t-137 411t131 422t362.5 164t360.5 -145.5t129 -405.5zM844 1470l-471 -188l-82 150l438 262z
" />
    <glyph glyph-name="ecircumflex" unicode="&#xea;" horiz-adv-x="1132" 
d="M772 637v12q0 270 -194 271q-90 0 -139.5 -67t-61.5 -216h395zM1061 567q0 -20 -6 -112h-678q14 -147 79.5 -209t186.5 -62t256 95l121 -164q-182 -147 -425 -147t-380 153t-137 411t131 422t362.5 164t360.5 -145.5t129 -405.5zM578 1460l-271 -182l-106 123l286 268
h181l286 -268l-108 -123z" />
    <glyph glyph-name="edieresis" unicode="&#xeb;" horiz-adv-x="1132" 
d="M772 637v12q0 270 -194 271q-90 0 -139.5 -67t-61.5 -216h395zM1061 567q0 -20 -6 -112h-678q14 -147 79.5 -209t186.5 -62t256 95l121 -164q-182 -147 -425 -147.5t-380 153t-137 412t131 422t362.5 163.5t360.5 -145.5t129 -405.5zM808.5 1319q-64.5 0 -110 44
t-45.5 107.5t45 107.5t110 44t110 -44t45 -107.5t-45 -107.5t-109.5 -44zM345.5 1319q-64.5 0 -110 44t-45.5 107.5t45.5 107.5t110 44t108.5 -44t44 -107.5t-44 -107.5t-108.5 -44z" />
    <glyph glyph-name="igrave" unicode="&#xec;" horiz-adv-x="577" 
d="M434 1085v-1085h-291v1085h291zM150 1694l436 -262l-82 -150l-471 188z" />
    <glyph glyph-name="iacute" unicode="&#xed;" horiz-adv-x="577" 
d="M434 1085v-1085h-291v1085h291zM440 1694l115 -224l-471 -188l-82 150z" />
    <glyph glyph-name="icircumflex" unicode="&#xee;" horiz-adv-x="577" 
d="M434 1085v-1085h-291v1085h291zM18 1278l-106 123l287 268h180l287 -268l-109 -123l-268 182z" />
    <glyph glyph-name="idieresis" unicode="&#xef;" horiz-adv-x="577" 
d="M434 1085v-1085h-291v1085h291zM519.5 1622q64.5 0 109.5 -44t45 -107.5t-45 -107.5t-109.5 -44t-109.5 44t-45 107.5t45 107.5t109.5 44zM56.5 1622q64.5 0 108.5 -44t44 -107.5t-44 -107.5t-108.5 -44t-109.5 44t-45 107.5t45 107.5t109.5 44z" />
    <glyph glyph-name="eth" unicode="&#xf0;" horiz-adv-x="1181" 
d="M573 772q-199 0 -198 -287q0 -152 54.5 -227.5t150.5 -75.5q217 0 217 346l-2 142q-86 102 -222 102zM1092 568.5q0 -267.5 -138.5 -434.5t-365.5 -167t-368.5 138.5t-141.5 360.5t117.5 367.5t293 145.5t289.5 -105q-53 201 -217 330l-121 -121l-186 88l125 132
q-78 27 -197 51l58 194q154 -25 301 -82l147 158l154 -133l-119 -121q201 -143 285 -338.5t84 -463z" />
    <glyph glyph-name="ntilde" unicode="&#xf1;" horiz-adv-x="1185" 
d="M750 1118q143 0 223 -87t80 -240v-791h-291v741q0 88 -30 124t-89 36q-115 0 -209 -151v-750h-291v1085h252l23 -137q137 170 332 170zM487 1405q-57 0 -108 -92l-150 73q41 100 106.5 164t140.5 64t145.5 -47t99.5 -47q55 0 108 90l150 -74q-90 -225 -256 -225
q-63 0 -135 47t-101 47z" />
    <glyph glyph-name="ograve" unicode="&#xf2;" horiz-adv-x="1196" 
d="M815 542.5q0 358.5 -217 358.5t-217 -358.5t217 -358.5t217 358.5zM600 1118q244 0 381 -152.5t137 -417.5t-139 -423t-382 -158t-381 152.5t-138 419t139 423t383 156.5zM459 1694l436 -262l-82 -150l-471 188z" />
    <glyph glyph-name="oacute" unicode="&#xf3;" horiz-adv-x="1196" 
d="M815 542.5q0 358.5 -217 358.5t-217 -358.5t217 -358.5t217 358.5zM600 1118q244 0 381 -152.5t137 -417.5t-139 -423t-382 -158t-381 152.5t-138 419t139 423t383 156.5zM750 1694l114 -224l-471 -188l-82 150z" />
    <glyph glyph-name="ocircumflex" unicode="&#xf4;" horiz-adv-x="1196" 
d="M815 542.5q0 358.5 -217 358.5t-217 -358.5t217 -358.5t217 358.5zM600 1118q244 0 381 -152.5t137 -417.5t-139 -423t-382 -158t-381 152.5t-138 419t139 423t383 156.5zM328 1278l-107 123l287 268h180l287 -268l-109 -123l-268 182z" />
    <glyph glyph-name="otilde" unicode="&#xf5;" horiz-adv-x="1196" 
d="M815 542.5q0 358.5 -217 358.5t-217 -358.5t217 -358.5t217 358.5zM600 1118q244 0 381 -152.5t137 -417.5t-139 -423t-382 -158t-381 152.5t-138 419t139 423t383 156.5zM717 1311q-63 0 -135 47t-101 47q-57 0 -108 -92l-150 73q41 100 106.5 164t140.5 64t145.5 -47
t99.5 -47q55 0 108 90l150 -74q-90 -225 -256 -225z" />
    <glyph glyph-name="odieresis" unicode="&#xf6;" horiz-adv-x="1196" 
d="M815 542.5q0 358.5 -217 358.5t-217 -358.5t217 -358.5t217 358.5zM600 1118q244 0 381 -152.5t137 -417.5t-139 -423t-382 -158t-381 152.5t-138 419t139 423t383 156.5zM828.5 1622q64.5 0 109.5 -44t45 -107.5t-45 -107.5t-109.5 -44t-109.5 44t-45 107.5t45 107.5
t109.5 44zM366.5 1622q64.5 0 108 -44t43.5 -107.5t-44 -107.5t-108 -44t-109.5 44t-45.5 107.5t45.5 107.5t110 44z" />
    <glyph glyph-name="divide" unicode="&#xf7;" horiz-adv-x="1052" 
d="M352 195q0 72 51 123t124 51q73 1 124 -51t51 -124t-51 -123q-51 -53 -124 -53t-124 52t-51 125zM106 567v228h842v-228h-842zM527 1343q73 0 124 -51t51 -123q0 -71 -51 -123t-124 -52t-124 52t-51 124t51 122q51 51 124 51z" />
    <glyph glyph-name="oslash" unicode="&#xf8;" horiz-adv-x="1196" 
d="M834 543q0 215 -62 295l-215 -652l41 -2q236 0 236 359zM600 901q-238 0 -238 -358q0 -219 62 -295l217 651q-12 2 -41 2zM1118 543q0 -260 -139 -418t-381 -158q-29 0 -78 4l-76 -245l-217 63l82 254q-231 145 -231 500q0 262 139 418.5t383 156.5q27 0 76 -4l80 246
l217 -64l-86 -254q231 -145 231 -499z" />
    <glyph glyph-name="ugrave" unicode="&#xf9;" horiz-adv-x="1175" 
d="M1032 1085v-1085h-252l-14 145q-115 -178 -330 -178q-147 0 -225 89t-78 249v780h291v-743q0 -86 28.5 -122t90.5 -36q117 0 198 142v759h291zM444 1694l437 -262l-82 -150l-471 188z" />
    <glyph glyph-name="uacute" unicode="&#xfa;" horiz-adv-x="1175" 
d="M1032 1085v-1085h-252l-14 145q-115 -178 -330 -178q-147 0 -225 89t-78 249v780h291v-743q0 -86 28.5 -122t90.5 -36q117 0 198 142v759h291zM735 1694l115 -224l-471 -188l-82 150z" />
    <glyph glyph-name="ucircumflex" unicode="&#xfb;" horiz-adv-x="1175" 
d="M1032 1085v-1085h-252l-14 145q-115 -178 -330 -178q-147 0 -225 89t-78 249v780h291v-743q0 -86 28.5 -122t90.5 -36q117 0 198 142v759h291zM313 1278l-106 123l287 268h180l287 -268l-109 -123l-268 182z" />
    <glyph glyph-name="udieresis" unicode="&#xfc;" horiz-adv-x="1175" 
d="M1032 1085v-1085h-252l-14 145q-115 -178 -330 -178q-147 0 -225 89t-78 249v780h291v-743q0 -86 28.5 -122t90.5 -36q117 0 198 142v759h291zM814.5 1622q64.5 0 109.5 -44t45 -107.5t-45 -107.5t-109.5 -44t-110 44t-45.5 107.5t45.5 107.5t110 44zM351.5 1622
q64.5 0 108.5 -44t44 -107.5t-44 -107.5t-108.5 -44t-109.5 44t-45 107.5t45 107.5t109.5 44z" />
    <glyph glyph-name="yacute" unicode="&#xfd;" horiz-adv-x="1048" 
d="M1053 1085l-351 -1087q-66 -207 -206 -319.5t-379 -129.5l-31 209q156 20 228.5 73.5t119.5 168.5h-100l-338 1085h309l217 -897l230 897h301zM676 1694l115 -224l-472 -188l-81 150z" />
    <glyph glyph-name="thorn" unicode="&#xfe;" horiz-adv-x="1220" 
d="M616 184q213 0 213 359q0 197 -48 279q-47 82 -155 81.5t-192 -139.5v-473q69 -107 182 -107zM725 1118q408 0 408 -573q0 -256 -115 -417t-316 -161q-170 0 -268 117v-498l-291 -37v1969l291 32v-573q117 141 291 141z" />
    <glyph glyph-name="ydieresis" unicode="&#xff;" horiz-adv-x="1048" 
d="M1053 1085l-351 -1087q-66 -207 -206 -319.5t-379 -129.5l-31 209q156 20 228.5 73.5t119.5 168.5h-100l-338 1085h309l217 -897l230 897h301zM755.5 1622q64.5 0 109 -44t44.5 -107.5t-45 -107.5t-109 -44t-109.5 44t-45.5 107.5t45.5 107.5t110 44zM292.5 1622
q64.5 0 108 -44t43.5 -107.5t-44 -107.5t-108 -44t-109.5 44t-45.5 107.5t45.5 107.5t110 44z" />
    <glyph glyph-name="Amacron" unicode="&#x100;" horiz-adv-x="1200" 
d="M430 541h332l-166 653zM899 0l-80 317h-444l-80 -317h-313l436 1417h366l435 -1417h-320zM905 1810v-204h-610v204h610z" />
    <glyph glyph-name="amacron" unicode="&#x101;" horiz-adv-x="1120" 
d="M496 176q123 0 192 121v207h-96q-236 0 -236 -176q0 -72 36 -112t104 -40zM973 301q0 -63 18.5 -93t61.5 -44l-62 -193q-96 10 -156.5 46t-93.5 112q-109 -162 -325 -162q-162 0 -257.5 93.5t-95.5 257.5t129.5 258t370.5 94h125v53q0 100 -45 139t-155 39t-281 -57
l-66 194q203 80 402 80q430 0 430 -379v-438zM854 1552v-204h-610v204h610z" />
    <glyph glyph-name="Abreve" unicode="&#x102;" horiz-adv-x="1200" 
d="M430 541h332l-166 653zM899 0l-80 317h-444l-80 -317h-313l436 1417h366l435 -1417h-320zM600 1540q-145 0 -237.5 90t-104.5 223l166 31q43 -137 176 -137t178 137l166 -31q-12 -133 -105.5 -223t-238.5 -90z" />
    <glyph glyph-name="abreve" unicode="&#x103;" horiz-adv-x="1120" 
d="M496 176q123 0 192 121v207h-96q-236 0 -236 -176q0 -72 36 -112t104 -40zM973 301q0 -63 18.5 -93t61.5 -44l-62 -193q-96 10 -156.5 46t-93.5 112q-109 -162 -325 -162q-162 0 -257.5 93.5t-95.5 257.5t129.5 258t370.5 94h125v53q0 100 -45 139t-155 39t-281 -57
l-66 194q203 80 402 80q430 0 430 -379v-438zM548.5 1300q-147.5 0 -238.5 93.5t-103 240.5l166 31q39 -160 175 -160t179 160l166 -31q-12 -147 -104.5 -240.5t-240 -93.5z" />
    <glyph glyph-name="Aogonek" unicode="&#x104;" horiz-adv-x="1200" 
d="M430 541h332l-166 653zM825 -215q0 -94 109 -94q59 0 125 14l-21 -186q-76 -14 -139 -15q-129 0 -210 62.5t-81 167.5q0 205 279 315l-68 268h-444l-80 -317h-313l436 1417h366l435 -1417h-150q-244 -94 -244 -215z" />
    <glyph glyph-name="aogonek" unicode="&#x105;" horiz-adv-x="1120" 
d="M496 176q123 0 192 121v207h-96q-236 0 -236 -176q0 -72 36 -112t104 -40zM856 -338q59 0 125 14l-20 -186q-76 -14 -140 -14q-129 0 -210 62.5t-81 166.5q0 209 291 320q-55 41 -80 104q-109 -162 -325 -162q-162 0 -257.5 93.5t-95.5 257t129.5 258t370.5 94.5h125v53
q0 100 -45 139t-154.5 39t-281.5 -57l-66 194q203 80 402 80q430 0 430 -379v-438q0 -63 18.5 -93t61.5 -44l-62 -193q-244 -94 -243 -215q0 -94 108 -94z" />
    <glyph glyph-name="Cacute" unicode="&#x106;" horiz-adv-x="1169" 
d="M691 1450q260 0 442 -154l-152 -176q-119 102 -264.5 102.5t-233.5 -123.5t-88 -384t89 -385t230.5 -125t295.5 119l139 -179q-174 -178 -449.5 -178t-448.5 194.5t-173 546t176.5 547t436.5 195.5zM885 1935l112 -221l-479 -174l-74 150z" />
    <glyph glyph-name="cacute" unicode="&#x107;" horiz-adv-x="978" 
d="M582.5 1118q222.5 0 373.5 -131l-127 -172q-102 78 -213 78q-231 0 -231 -346t229 -346q96 0 215 75l127 -182q-156 -127 -356 -127q-242 0 -382 153.5t-140 414t141 422t363.5 161.5zM748 1694l114 -224l-471 -188l-82 150z" />
    <glyph glyph-name="Ccircumflex" unicode="&#x108;" horiz-adv-x="1169" 
d="M691 1450q260 0 442 -154l-152 -176q-119 102 -264.5 102.5t-233.5 -123.5t-88 -384t89 -385t230.5 -125t295.5 119l139 -179q-174 -178 -449.5 -178t-448.5 194.5t-173 546t176.5 547t436.5 195.5zM991 1548l-270 170l-268 -170l-109 123l287 254h180l287 -254z" />
    <glyph glyph-name="ccircumflex" unicode="&#x109;" horiz-adv-x="978" 
d="M582.5 1118q222.5 0 373.5 -131l-127 -172q-102 78 -213 78q-231 0 -231 -346t229 -346q96 0 215 75l127 -182q-156 -127 -356 -127q-242 0 -382 153.5t-140 414t141 422t363.5 161.5zM324 1278l-107 123l287 268h180l287 -268l-109 -123l-268 182z" />
    <glyph glyph-name="Cdotaccent" unicode="&#x10a;" horiz-adv-x="1169" 
d="M691 1450q260 0 442 -154l-152 -176q-119 102 -264.5 102.5t-233.5 -123.5t-88 -384t89 -385t230.5 -125t295.5 119l139 -179q-174 -178 -449.5 -178t-448.5 194.5t-173 546t176.5 547t436.5 195.5zM719 1903q78 0 128 -48.5t50 -122t-50 -121.5t-128 -48t-127 48
t-49 121.5t49 122t127 48.5z" />
    <glyph glyph-name="cdotaccent" unicode="&#x10b;" horiz-adv-x="978" 
d="M582.5 1118q222.5 0 373.5 -131l-127 -172q-102 78 -213 78q-231 0 -231 -346t229 -346q96 0 215 75l127 -182q-156 -127 -356 -127q-242 0 -382 153.5t-140 414t141 422t363.5 161.5zM594 1645q78 0 128 -48.5t50 -122t-50 -121.5t-128 -48t-127 48t-49 121.5t49 122
t127 48.5z" />
    <glyph glyph-name="Ccaron" unicode="&#x10c;" horiz-adv-x="1169" 
d="M691 1450q260 0 442 -154l-152 -176q-119 102 -264.5 102.5t-233.5 -123.5t-88 -384t89 -385t230.5 -125t295.5 119l139 -179q-174 -178 -449.5 -178t-448.5 194.5t-173 546t176.5 547t436.5 195.5zM991 1915l107 -123l-287 -254h-180l-287 254l109 123l268 -170z" />
    <glyph glyph-name="ccaron" unicode="&#x10d;" horiz-adv-x="978" 
d="M582.5 1118q222.5 0 373.5 -131l-127 -172q-102 78 -213 78q-231 0 -231 -346t229 -346q96 0 215 75l127 -182q-156 -127 -356 -127q-242 0 -382 153.5t-140 414t141 422t363.5 161.5zM864 1651l107 -123l-287 -268h-180l-287 268l109 123l268 -183z" />
    <glyph glyph-name="Dcaron" unicode="&#x10e;" horiz-adv-x="1331" 
d="M567 1196h-116v-975h122q174 0 269.5 107.5t95.5 394.5t-103.5 380t-267.5 93zM520 1417q406 1 582 -201q148 -170 149 -518q0 -188 -58 -334q-57 -146 -161 -222q-194 -142 -477 -142h-405v1417h370zM879 1915l106 -123l-287 -254h-180l-287 254l109 123l268 -170z" />
    <glyph glyph-name="dcaron" unicode="&#x10f;" horiz-adv-x="1361" 
d="M588 184q121 0 205 131v486q-86 102 -187 102q-215 0 -215 -360q0 -195 50.5 -277t146.5 -82zM1212 1548l226 -30l-111 -426l-160 24zM1083 0h-256l-18 133q-113 -166 -311.5 -166t-304 154.5t-105.5 416t120 421t324 159.5q150 1 261 -110v542l290 -32v-1518z" />
    <glyph glyph-name="Dcroat" unicode="&#x110;" horiz-adv-x="1357" 
d="M602 221q172 0 267.5 107.5t95.5 393.5t-110 386q-54 49 -114.5 68.5t-144.5 19.5h-117v-379h287v-188h-287v-408h123zM549 1417q407 1 583 -201q148 -170 148 -518q0 -188 -58 -334t-162 -222q-194 -141 -476 -142h-406v629h-147v188h147v600h371z" />
    <glyph glyph-name="dcroat" unicode="&#x111;" horiz-adv-x="1247" 
d="M588 184q121 0 205 131v486q-86 102 -187 102q-215 0 -215 -360q0 -195 50.5 -277t146.5 -82zM1083 1403h138v-178h-138v-1225h-256l-18 133q-113 -166 -311 -166t-304 154.5t-106 416.5t120 421t324 159q150 0 261 -110v217h-291v178h291v147l290 -32v-115z" />
    <glyph glyph-name="Emacron" unicode="&#x112;" horiz-adv-x="1081" 
d="M451 1198v-369h446v-217h-446v-391h548v-221h-849v1417h845l-32 -219h-512zM881 1606h-611v204h611v-204z" />
    <glyph glyph-name="emacron" unicode="&#x113;" horiz-adv-x="1132" 
d="M772 637v12q0 270 -194 271q-90 0 -139.5 -67t-61.5 -216h395zM1061 567q0 -20 -6 -112h-678q14 -147 79.5 -209t186.5 -62t256 95l121 -164q-182 -147 -425 -147t-380 153t-137 411t131 422t362.5 164t360.5 -145.5t129 -405.5zM883 1552v-204h-611v204h611z" />
    <glyph glyph-name="Ebreve" unicode="&#x114;" horiz-adv-x="1081" 
d="M451 1198v-369h446v-217h-446v-391h548v-221h-849v1417h845l-32 -219h-512zM575.5 1540q-145.5 0 -237.5 90t-105 223l166 31q43 -137 176.5 -137t178.5 137l166 -31q-12 -133 -105.5 -223t-239 -90z" />
    <glyph glyph-name="ebreve" unicode="&#x115;" horiz-adv-x="1132" 
d="M772 637v12q0 270 -194 271q-90 0 -139.5 -67t-61.5 -216h395zM1061 567q0 -20 -6 -112h-678q14 -147 79.5 -209t186.5 -62t256 95l121 -164q-182 -147 -425 -147t-380 153t-137 411t131 422t362.5 164t360.5 -145.5t129 -405.5zM575.5 1300q-147.5 0 -238.5 93.5
t-104 240.5l166 31q39 -160 175 -160t180 160l166 -31q-12 -147 -104.5 -240.5t-240 -93.5z" />
    <glyph glyph-name="Edotaccent" unicode="&#x116;" horiz-adv-x="1081" 
d="M451 1198v-369h446v-217h-446v-391h548v-221h-849v1417h845l-32 -219h-512zM575.5 1903q77.5 0 128 -48.5t50.5 -122t-50.5 -121.5t-128 -48t-127 48t-49.5 121.5t49.5 122t127 48.5z" />
    <glyph glyph-name="edotaccent" unicode="&#x117;" horiz-adv-x="1132" 
d="M772 637v12q0 270 -194 271q-90 0 -139.5 -67t-61.5 -216h395zM1061 567q0 -20 -6 -112h-678q14 -147 79.5 -209t186.5 -62t256 95l121 -164q-182 -147 -425 -147t-380 153t-137 411t131 422t362.5 164t360.5 -145.5t129 -405.5zM575.5 1305q-77.5 0 -127 48t-49.5 121.5
t49.5 122t127 48.5t128 -48.5t50.5 -122t-50.5 -121.5t-128 -48z" />
    <glyph glyph-name="Eogonek" unicode="&#x118;" horiz-adv-x="1081" 
d="M451 221h548v-221h-81q-244 -94 -244 -215q0 -94 108 -94q59 0 125 14l-20 -186q-76 -14 -139 -15q-129 0 -210 62.5t-81 167.5q0 162 178 266h-485v1417h845l-32 -219h-512v-369h446v-217h-446v-391z" />
    <glyph glyph-name="eogonek" unicode="&#x119;" horiz-adv-x="1132" 
d="M772 637v12q0 270 -194 271q-90 0 -139.5 -67t-61.5 -216h395zM1061 567q0 -20 -6 -112h-678q14 -147 79.5 -209t186.5 -62t256 95l121 -164q-98 -80 -215 -117q-199 -86 -199 -197q0 -94 109 -94q59 0 125 14l-21 -186q-76 -14 -139 -14q-129 0 -210 62.5t-81 166.5
q0 137 150 221q-223 20 -342 171t-119 400t131 412.5t362.5 163.5t360.5 -145.5t129 -405.5z" />
    <glyph glyph-name="Ecaron" unicode="&#x11a;" horiz-adv-x="1081" 
d="M451 1198v-369h446v-217h-446v-391h548v-221h-849v1417h845l-32 -219h-512zM848 1915l106 -123l-286 -254h-181l-286 254l108 123l269 -170z" />
    <glyph glyph-name="ecaron" unicode="&#x11b;" horiz-adv-x="1132" 
d="M772 637v12q0 270 -194 271q-90 0 -139.5 -67t-61.5 -216h395zM1061 567q0 -20 -6 -112h-678q14 -147 79.5 -209t186.5 -62t256 95l121 -164q-182 -147 -425 -147t-380 153t-137 411t131 422t362.5 164t360.5 -145.5t129 -405.5zM668 1260h-181l-286 268l108 123
l269 -183l270 183l106 -123z" />
    <glyph glyph-name="Gcircumflex" unicode="&#x11c;" horiz-adv-x="1312" 
d="M730.5 1450q276.5 0 473.5 -170l-162 -166q-137 113 -293.5 113t-256 -128t-99.5 -397t77 -389t239 -120q117 0 211 51v346h-199l-31 219h522v-698q-229 -143 -520.5 -143.5t-452.5 189t-161 545t188 552t464.5 196.5zM991 1548l-270 170l-268 -170l-109 123l287 254h180
l287 -254z" />
    <glyph glyph-name="gcircumflex" unicode="&#x11d;" horiz-adv-x="1114" 
d="M541 924q-82 0 -130.5 -52.5t-48.5 -143.5t48.5 -144.5t132.5 -53.5q178 0 178 197t-180 197zM1001 707q0 -162 -120.5 -263.5t-325.5 -101.5q-72 0 -127 14q-41 -27 -41 -71q0 -72 125 -72h166q182 0 292.5 -87t110.5 -224q0 -166 -142 -259.5t-418 -93.5t-387 86
t-111 261h260q0 -80 51 -114t196.5 -34t201.5 35t56 98q0 119 -170 119h-159q-162 0 -242 60.5t-80 152.5q0 123 127 203q-193 104 -192 309q0 178 128 285.5t335 107.5q168 -4 276 28.5t231 102.5l72 -223q-106 -41 -313 -41q102 -45 151 -111.5t49 -166.5zM287 1278
l-107 123l287 268h180l287 -268l-109 -123l-268 182z" />
    <glyph glyph-name="Gbreve" unicode="&#x11e;" horiz-adv-x="1312" 
d="M730.5 1450q276.5 0 473.5 -170l-162 -166q-137 113 -293.5 113t-256 -128t-99.5 -397t77 -389t239 -120q117 0 211 51v346h-199l-31 219h522v-698q-229 -143 -520.5 -143.5t-452.5 189t-161 545t188 552t464.5 196.5zM720.5 1540q-145.5 0 -237.5 90t-104 223l166 31
q43 -137 176 -137t178 137l166 -31q-12 -133 -105.5 -223t-239 -90z" />
    <glyph glyph-name="gbreve" unicode="&#x11f;" horiz-adv-x="1114" 
d="M541 924q-82 0 -130.5 -52.5t-48.5 -143.5t48.5 -144.5t132.5 -53.5q178 0 178 197t-180 197zM1001 707q0 -162 -120.5 -263.5t-325.5 -101.5q-72 0 -127 14q-41 -27 -41 -71q0 -72 125 -72h166q182 0 292.5 -87t110.5 -224q0 -166 -142 -259.5t-418 -93.5t-387 86
t-111 261h260q0 -80 51 -114t196.5 -34t201.5 35t56 98q0 119 -170 119h-159q-162 0 -242 60.5t-80 152.5q0 123 127 203q-193 104 -192 309q0 178 128 285.5t335 107.5q168 -4 276 28.5t231 102.5l72 -223q-106 -41 -313 -41q102 -45 151 -111.5t49 -166.5zM555 1300
q-147 0 -238.5 93.5t-103.5 240.5l166 31q39 -160 175 -160t179 160l166 -31q-12 -147 -104.5 -240.5t-239.5 -93.5z" />
    <glyph glyph-name="Gdotaccent" unicode="&#x120;" horiz-adv-x="1312" 
d="M730.5 1450q276.5 0 473.5 -170l-162 -166q-137 113 -293.5 113t-256 -128t-99.5 -397t77 -389t239 -120q117 0 211 51v346h-199l-31 219h522v-698q-229 -143 -520.5 -143.5t-452.5 189t-161 545t188 552t464.5 196.5zM721 1903q78 0 128 -48.5t50 -122t-50 -121.5
t-128 -48t-127 48t-49 121.5t49 122t127 48.5z" />
    <glyph glyph-name="gdotaccent" unicode="&#x121;" horiz-adv-x="1114" 
d="M541 924q-82 0 -130.5 -52.5t-48.5 -143.5t48.5 -144.5t132.5 -53.5q178 0 178 197t-180 197zM1001 707q0 -162 -120.5 -263.5t-325.5 -101.5q-72 0 -127 14q-41 -27 -41 -71q0 -72 125 -72h166q182 0 292.5 -87t110.5 -224q0 -166 -142 -259.5t-418 -93.5t-387 86
t-111 261h260q0 -80 51 -114t196.5 -34t201.5 35t56 98q0 119 -170 119h-159q-162 0 -242 60.5t-80 152.5q0 123 127 203q-193 104 -192 309q0 178 128 285.5t335 107.5q168 -4 276 28.5t231 102.5l72 -223q-106 -41 -313 -41q102 -45 151 -111.5t49 -166.5zM555 1645
q78 0 128 -48.5t50 -122t-50 -121.5t-128 -48t-127 48t-49 121.5t49 122t127 48.5z" />
    <glyph glyph-name="Gcommaaccent" unicode="&#x122;" horiz-adv-x="1312" 
d="M711.5 -143q64.5 0 107.5 -42t43 -102.5t-53 -173.5l-94 -190h-148l56 235q-61 51 -61.5 118.5t42.5 111t107.5 43.5zM730.5 1450q276.5 0 473.5 -170l-162 -166q-137 113 -293.5 113t-256 -128t-99.5 -397t77 -389t239 -120q117 0 211 51v346h-199l-31 219h522v-698
q-229 -143 -520.5 -143.5t-452.5 189t-161 545t188 552t464.5 196.5z" />
    <glyph glyph-name="gcommaaccent" unicode="&#x123;" horiz-adv-x="1114" 
d="M541 924q-82 0 -130.5 -52.5t-48.5 -143.5t48.5 -144.5t132.5 -53.5q178 0 178 197t-180 197zM1001 707q0 -162 -120.5 -263.5t-325.5 -101.5q-72 0 -127 14q-41 -27 -41 -71q0 -72 125 -72h166q182 0 292.5 -87t110.5 -224q0 -166 -142 -259.5t-418 -93.5t-387 86
t-111 261h260q0 -80 51 -114t196.5 -34t201.5 35t56 98q0 119 -170 119h-159q-162 0 -242 60.5t-80 152.5q0 123 127 203q-193 104 -192 309q0 178 128 285.5t335 107.5q168 -4 276 28.5t231 102.5l72 -223q-106 -41 -313 -41q102 -45 151 -111.5t49 -166.5zM552.5 1184
q-64.5 0 -108 42t-43.5 102t54 173l94 191h147l-55 -236q61 -51 61 -118.5t-42.5 -110.5t-107 -43z" />
    <glyph glyph-name="Hcircumflex" unicode="&#x124;" horiz-adv-x="1370" 
d="M920 0v621h-469v-621h-301v1417h301v-559h469v559h301v-1417h-301zM954 1548l-270 170l-268 -170l-109 123l287 254h180l287 -254z" />
    <glyph glyph-name="hcircumflex" unicode="&#x125;" horiz-adv-x="1185" 
d="M762 741q0 160 -117 160t-211 -149v-752h-291v1518l291 30v-585q134 155 316 155q141 0 222 -87t81 -240v-791h-291v741zM592 1819l-268 -170l-109 123l287 253h180l287 -253l-107 -123z" />
    <glyph glyph-name="Hbar" unicode="&#x126;" horiz-adv-x="1392" 
d="M930 858v170h-467v-170h467zM1354 1204v-176h-123v-1028h-301v621h-467v-621h-301v1028h-125v176h125v213h301v-213h467v213h301v-213h123z" />
    <glyph glyph-name="hbar" unicode="&#x127;" horiz-adv-x="1202" 
d="M766 1118q141 0 222 -87t81 -240v-791h-291v741q0 88 -30.5 124t-88.5 36q-115 0 -208 -149v-752h-291v1225h-133v178h133v115l291 30v-145h280v-178h-280v-262q133 155 315 155z" />
    <glyph glyph-name="Itilde" unicode="&#x128;" horiz-adv-x="602" 
d="M451 1417v-1417h-301v1417h301zM418 1569q-63 0 -135 47t-101 47q-57 0 -108 -92l-150 74q41 100 106.5 163.5t140.5 63.5t145.5 -47t99.5 -47q55 0 108 90l150 -74q-90 -225 -256 -225z" />
    <glyph glyph-name="itilde" unicode="&#x129;" horiz-adv-x="577" 
d="M434 1085v-1085h-291v1085h291zM408 1311q-63 0 -135 47t-101 47q-57 0 -109 -92l-149 73q41 100 106.5 164t140.5 64t145.5 -47t99.5 -47q55 0 108 90l150 -74q-90 -225 -256 -225z" />
    <glyph glyph-name="Imacron" unicode="&#x12a;" horiz-adv-x="602" 
d="M451 1417v-1417h-301v1417h301zM604 1606h-610v204h610v-204z" />
    <glyph glyph-name="imacron" unicode="&#x12b;" horiz-adv-x="577" 
d="M434 1085v-1085h-291v1085h291zM594 1348h-610v204h610v-204z" />
    <glyph glyph-name="Ibreve" unicode="&#x12c;" horiz-adv-x="602" 
d="M451 1417v-1417h-301v1417h301zM299 1540q-145 0 -237.5 90t-104.5 223l166 31q43 -137 176 -137t178 137l166 -31q-12 -133 -105.5 -223t-238.5 -90z" />
    <glyph glyph-name="ibreve" unicode="&#x12d;" horiz-adv-x="577" 
d="M434 1085v-1085h-291v1085h291zM286.5 1300q-147.5 0 -238.5 93.5t-103 240.5l166 31q39 -160 175 -160t179 160l166 -31q-12 -147 -104.5 -240.5t-240 -93.5z" />
    <glyph glyph-name="Iogonek" unicode="&#x12e;" horiz-adv-x="602" 
d="M150 1417h301v-1417h-43q-244 -94 -244 -215q0 -94 108 -94q59 0 125 14l-20 -186q-76 -14 -139 -15q-129 0 -210 62.5t-81 167.5q0 174 203 280v1403z" />
    <glyph glyph-name="iogonek" unicode="&#x12f;" horiz-adv-x="577" 
d="M143 1085h291v-1085h-39q-244 -94 -243 -215q0 -94 108 -94q59 0 125 14l-20 -186q-76 -14 -140 -15q-129 0 -210 62.5t-81 167.5q0 180 209 282v1069zM287 1305q-78 0 -127 48t-49 121.5t49 122t127 48.5t128 -48.5t50 -122t-50 -121.5t-128 -48z" />
    <glyph glyph-name="Idotaccent" unicode="&#x130;" horiz-adv-x="602" 
d="M451 1417v-1417h-301v1417h301zM299 1903q78 0 128 -48.5t50 -122t-50 -121.5t-128 -48t-127 48t-49 121.5t49 122t127 48.5z" />
    <glyph glyph-name="dotlessi" unicode="&#x131;" horiz-adv-x="577" 
d="M434 1085v-1085h-291v1085h291z" />
    <glyph glyph-name="IJ" unicode="&#x132;" horiz-adv-x="1245" 
d="M1104 1417v-1206q0 -236 -113.5 -355.5t-322.5 -187.5l-80 215q131 51 173 125t42 213v1196h301zM451 1417v-1417h-301v1417h301z" />
    <glyph glyph-name="ij" unicode="&#x133;" horiz-adv-x="1153" 
d="M1010 1085v-976q0 -245 -116 -373q-58 -64 -127 -105t-171 -80l-96 211q119 55 169 121t50 207v995h291zM434 1085v-1085h-291v1085h291zM864 1645q78 0 128 -48.5t50 -122t-50 -121.5t-128 -48t-127 48t-49 121.5t49 122t127 48.5zM287 1645q78 0 128 -48.5t50 -122
t-50 -121.5t-128 -48t-127 48t-49 121.5t49 122t127 48.5z" />
    <glyph glyph-name="Jcircumflex" unicode="&#x134;" horiz-adv-x="643" 
d="M502 1417v-1206q0 -236 -114 -355.5t-322 -187.5l-80 215q131 51 173 125t42 213v1196h301zM621 1548l-271 170l-268 -170l-109 123l287 254h180l287 -254z" />
    <glyph glyph-name="jcircumflex" unicode="&#x135;" horiz-adv-x="575" 
d="M432 1085v-976q0 -247 -116 -373q-58 -64 -126.5 -105t-171.5 -80l-96 211q119 55 169 121t50 207v995h291zM18 1278l-106 123l287 268h180l287 -268l-109 -123l-268 182z" />
    <glyph glyph-name="Kcommaaccent" unicode="&#x136;" horiz-adv-x="1273" 
d="M662.5 -143q64.5 0 107.5 -42t43 -102.5t-53 -173.5l-94 -190h-148l55 235q-61 51 -61 118.5t43 111t107.5 43.5zM1255 1417l-473 -639l510 -778h-352l-477 756l471 661h321zM451 1417v-1417h-301v1417h301z" />
    <glyph glyph-name="kcommaaccent" unicode="&#x137;" horiz-adv-x="1110" 
d="M555.5 -143q64.5 0 108 -42t43.5 -102.5t-54 -173.5l-94 -190h-147l55 235q-61 51 -61 118.5t42.5 111t107 43.5zM1094 1085l-346 -477l376 -608h-329l-351 594l349 491h301zM434 0h-291v1518l291 32v-1550z" />
    <glyph glyph-name="kgreenlandic" unicode="&#x138;" horiz-adv-x="1107" 
d="M1090 1085l-347 -497l379 -588h-331l-351 573l348 512h302zM434 1085v-1085h-291v1085h291z" />
    <glyph glyph-name="Lacute" unicode="&#x139;" horiz-adv-x="1042" 
d="M451 1417v-1175h561l-33 -242h-829v1417h301zM465 1935l113 -221l-480 -174l-73 150z" />
    <glyph glyph-name="lacute" unicode="&#x13a;" horiz-adv-x="606" 
d="M398.5 -33q-117.5 0 -191.5 77t-74 218v1256l291 32v-1280q0 -72 59 -71q33 0 58 12l59 -207q-84 -37 -201.5 -37zM442 2036l113 -221l-479 -175l-74 150z" />
    <glyph glyph-name="Lcommaaccent" unicode="&#x13b;" horiz-adv-x="1042" 
d="M567.5 -143q64.5 0 108 -42t43.5 -102.5t-53 -173.5l-95 -190h-147l55 235q-61 51 -61 118.5t42.5 111t107 43.5zM451 1417v-1175h561l-33 -242h-829v1417h301z" />
    <glyph glyph-name="lcommaaccent" unicode="&#x13c;" horiz-adv-x="606" 
d="M375.5 -143q64.5 0 107.5 -42t43 -102.5t-53 -173.5l-94 -190h-148l56 235q-61 51 -61.5 118.5t42.5 111t107.5 43.5zM398.5 -33q-117.5 0 -191.5 77t-74 218v1256l291 32v-1280q0 -72 59 -71q33 0 58 12l59 -207q-84 -37 -201.5 -37z" />
    <glyph glyph-name="Lcaron" unicode="&#x13d;" horiz-adv-x="1042" 
d="M451 1417v-1175h561l-33 -242h-829v1417h301zM590 1448l225 -31l-110 -426l-160 25z" />
    <glyph glyph-name="lcaron" unicode="&#x13e;" horiz-adv-x="718" 
d="M553 1548l225 -30l-110 -426l-160 24zM398.5 -33q-117.5 0 -191.5 77t-74 218v1256l291 32v-1280q0 -72 59 -71q33 0 58 12l59 -207q-84 -37 -201.5 -37z" />
    <glyph glyph-name="Ldot" unicode="&#x13f;" horiz-adv-x="1042" 
d="M813 983q78 0 128 -48t50 -122t-50 -122t-128 -48t-127 48t-49 122t49 122t127 48zM451 1417v-1175h561l-33 -242h-829v1417h301z" />
    <glyph glyph-name="ldot" unicode="&#x140;" horiz-adv-x="849" 
d="M698.5 942q77.5 0 128 -48t50.5 -122t-50.5 -122t-128 -48t-127 48t-49.5 122t49.5 122t127 48zM398.5 -33q-117.5 0 -191.5 77t-74 218v1256l291 32v-1280q0 -72 59 -71q33 0 58 12l59 -207q-84 -37 -201.5 -37z" />
    <glyph glyph-name="Lslash" unicode="&#x141;" horiz-adv-x="1112" 
d="M520 242h561l-32 -242h-830v475l-94 -57l-100 164l194 120v715h301v-528l279 172l102 -164l-381 -235v-420z" />
    <glyph glyph-name="lslash" unicode="&#x142;" horiz-adv-x="710" 
d="M530 199q33 0 58 12l59 -207q-83 -37 -201 -37t-192 77t-74 218v303l-90 -55l-98 162l188 119v727l291 32v-583l150 90l96 -164l-246 -150v-473q0 -71 59 -71z" />
    <glyph glyph-name="Nacute" unicode="&#x143;" horiz-adv-x="1368" 
d="M1219 1417v-1417h-388l-450 1124q41 -317 41 -573v-551h-272v1417h378l459 -1126q-41 274 -41 504v622h273zM860 1935l113 -221l-479 -174l-74 150z" />
    <glyph glyph-name="nacute" unicode="&#x144;" horiz-adv-x="1185" 
d="M750 1118q143 0 223 -87t80 -240v-791h-291v741q0 88 -30 124t-89 36q-115 0 -209 -151v-750h-291v1085h252l23 -137q137 170 332 170zM870 1470l-471 -188l-82 150l439 262z" />
    <glyph glyph-name="Ncommaaccent" unicode="&#x145;" horiz-adv-x="1368" 
d="M688.5 -143q64.5 0 108 -42t43.5 -102.5t-54 -173.5l-94 -190h-147l55 235q-61 51 -61 118.5t42.5 111t107 43.5zM1219 1417v-1417h-388l-450 1124q41 -317 41 -573v-551h-272v1417h378l459 -1126q-41 274 -41 504v622h273z" />
    <glyph glyph-name="ncommaaccent" unicode="&#x146;" horiz-adv-x="1185" 
d="M596.5 -143q64.5 0 108 -42t43.5 -102.5t-54 -173.5l-94 -190h-147l55 235q-61 51 -61.5 118.5t42.5 111t107.5 43.5zM750 1118q143 0 223 -87t80 -240v-791h-291v741q0 88 -30 124t-89 36q-115 0 -209 -151v-750h-291v1085h252l23 -137q137 170 332 170z" />
    <glyph glyph-name="Ncaron" unicode="&#x147;" horiz-adv-x="1368" 
d="M1219 1417v-1417h-388l-450 1124q41 -317 41 -573v-551h-272v1417h378l459 -1126q-41 274 -41 504v622h273zM967 1915l106 -123l-287 -254h-180l-287 254l109 123l268 -170z" />
    <glyph glyph-name="ncaron" unicode="&#x148;" horiz-adv-x="1185" 
d="M750 1118q143 0 223 -87t80 -240v-791h-291v741q0 88 -30 124t-89 36q-115 0 -209 -151v-750h-291v1085h252l23 -137q137 170 332 170zM694 1260h-180l-287 268l109 123l268 -183l270 183l107 -123z" />
    <glyph glyph-name="napostrophe" unicode="&#x149;" horiz-adv-x="1433" 
d="M995 1118q143 0 224 -87t81 -240v-791h-290v741q0 88 -30 124t-89 36q-115 0 -209 -151v-750h-291v1085h252l23 -137q136 170 329 170zM211 1552q57 0 96 -38q39 -36 39 -92t-51 -156l-84 -172h-133l51 215q-55 45 -55 105t40 99t97 39z" />
    <glyph glyph-name="Eng" unicode="&#x14a;" horiz-adv-x="1368" 
d="M1219 -78q0 -182 -103.5 -277.5t-275.5 -95.5t-285 86l100 183q78 -45 148 -45q113 0 112 131v96h-84l-450 1124q41 -317 41 -573v-551h-272v1417h378l459 -1126q-41 274 -41 504v622h273v-1495z" />
    <glyph glyph-name="eng" unicode="&#x14b;" horiz-adv-x="1185" 
d="M1053 791v-869q0 -182 -102.5 -277.5t-272.5 -95.5t-283 86l101 175q80 -43 147 -43q119 0 119 131v843q0 88 -30 124t-89 36q-115 0 -209 -151v-750h-291v1085h252l23 -137q137 170 332 170q143 0 223 -86.5t80 -240.5z" />
    <glyph glyph-name="Omacron" unicode="&#x14c;" horiz-adv-x="1415" 
d="M708.5 1225q-155.5 0 -234.5 -123t-79 -393q0 -516 314 -516q156 0 233.5 121.5t77.5 394t-78 394.5t-233.5 122zM710 1450q294 0 460.5 -193.5t166.5 -544.5t-168 -548t-461.5 -197t-461.5 194.5t-168 544t169 547t463 197.5zM1012 1606h-611v204h611v-204z" />
    <glyph glyph-name="omacron" unicode="&#x14d;" horiz-adv-x="1196" 
d="M815 542.5q0 358.5 -217 358.5t-217 -358.5t217 -358.5t217 358.5zM600 1118q244 0 381 -152.5t137 -417.5t-139 -423t-382 -158t-381 152.5t-138 419t139 423t383 156.5zM903 1348h-610v204h610v-204z" />
    <glyph glyph-name="Obreve" unicode="&#x14e;" horiz-adv-x="1415" 
d="M708.5 1225q-155.5 0 -234.5 -123t-79 -393q0 -516 314 -516q156 0 233.5 121.5t77.5 394t-78 394.5t-233.5 122zM710 1450q294 0 460.5 -193.5t166.5 -544.5t-168 -548t-461.5 -197t-461.5 194.5t-168 544t169 547t463 197.5zM706.5 1540q-145.5 0 -237.5 90t-104 223
l165 31q43 -137 176.5 -137t178.5 137l166 -31q-12 -133 -105.5 -223t-239 -90z" />
    <glyph glyph-name="obreve" unicode="&#x14f;" horiz-adv-x="1196" 
d="M815 542.5q0 358.5 -217 358.5t-217 -358.5t217 -358.5t217 358.5zM600 1118q244 0 381 -152.5t137 -417.5t-139 -423t-382 -158t-381 152.5t-138 419t139 423t383 156.5zM596 1300q-147 0 -238.5 93.5t-103.5 240.5l166 31q39 -160 175 -160t179 160l166 -31
q-12 -147 -104.5 -240.5t-239.5 -93.5z" />
    <glyph glyph-name="Ohungarumlaut" unicode="&#x150;" horiz-adv-x="1415" 
d="M708.5 1225q-155.5 0 -234.5 -123t-79 -393q0 -516 314 -516q156 0 233.5 121.5t77.5 394t-78 394.5t-233.5 122zM710 1450q294 0 460.5 -193.5t166.5 -544.5t-168 -548t-461.5 -197t-461.5 194.5t-168 544t169 547t463 197.5zM967 2005l204 -102l-241 -361l-156 72z
M618 2005l207 -98l-223 -355l-158 66z" />
    <glyph glyph-name="ohungarumlaut" unicode="&#x151;" horiz-adv-x="1196" 
d="M815 542.5q0 358.5 -217 358.5t-217 -358.5t217 -358.5t217 358.5zM600 1118q244 0 381 -152.5t137 -417.5t-139 -423t-382 -158t-381 152.5t-138 419t139 423t383 156.5zM854 1747l205 -102l-242 -361l-155 72zM506 1747l207 -98l-224 -355l-157 66z" />
    <glyph glyph-name="OE" unicode="&#x152;" horiz-adv-x="1861" 
d="M395 709q0 -516 292 -516t292 516t-292 516t-292 -516zM1767 221v-221h-909q-80 -33 -182 -33q-272 0 -435 195.5t-163 543.5t164 546t434 198q106 0 190 -33h897l-32 -219h-584q117 -145 141 -369h379v-217h-377q-23 -238 -151 -391h628z" />
    <glyph glyph-name="oe" unicode="&#x153;" horiz-adv-x="1867" 
d="M381 542.5q0 -358.5 216 -358.5t216 358.5t-216 358.5t-216 -358.5zM1507 637v12q0 270 -194 271q-90 0 -140.5 -66t-60.5 -217h395zM1794 567q0 -68 -6 -112h-676q14 -147 79.5 -209t186.5 -62t256 95l121 -164q-186 -147 -422 -147.5t-370 177.5q-133 -178 -371 -178
t-376 152.5t-138 418t139 423t376.5 157.5t371.5 -172q129 172 350 172t350 -145.5t129 -405.5z" />
    <glyph glyph-name="Racute" unicode="&#x154;" horiz-adv-x="1257" 
d="M451 1202v-434h157q244 0 244 225q0 109 -64.5 159t-201.5 50h-135zM451 555v-555h-301v1417h442q571 0 571 -424q0 -141 -67.5 -231t-210.5 -152l364 -610h-342l-303 555h-153zM901 1714l-479 -174l-74 150l440 245z" />
    <glyph glyph-name="racute" unicode="&#x155;" horiz-adv-x="813" 
d="M705 1116q49 0 108 -16l-49 -281q-57 14 -96 15q-96 0 -149.5 -68t-84.5 -207v-559h-291v1085h252l27 -211q39 115 114 178.5t169 63.5zM748 1470l-472 -188l-81 150l438 262z" />
    <glyph glyph-name="Rcommaaccent" unicode="&#x156;" horiz-adv-x="1257" 
d="M637.5 -143q64.5 0 107.5 -42t43 -102.5t-53 -173.5l-94 -190h-147l55 235q-61 51 -61.5 118.5t42.5 111t107.5 43.5zM451 1202v-434h157q244 0 244 225q0 109 -64.5 159t-201.5 50h-135zM451 555v-555h-301v1417h442q571 0 571 -424q0 -141 -67.5 -231.5t-210.5 -151.5
l364 -610h-342l-303 555h-153z" />
    <glyph glyph-name="rcommaaccent" unicode="&#x157;" horiz-adv-x="813" 
d="M291.5 -143q64.5 0 107.5 -42t43 -102.5t-53 -173.5l-94 -190h-148l56 235q-61 51 -61.5 118.5t42.5 111t107.5 43.5zM705 1116q49 0 108 -16l-49 -281q-57 14 -96 15q-96 0 -149.5 -68t-84.5 -207v-559h-291v1085h252l27 -211q39 115 114 178.5t169 63.5z" />
    <glyph glyph-name="Rcaron" unicode="&#x158;" horiz-adv-x="1257" 
d="M451 1202v-434h157q244 0 244 225q0 109 -64.5 159t-201.5 50h-135zM451 555v-555h-301v1417h442q571 0 571 -424q0 -141 -67.5 -231t-210.5 -152l364 -610h-342l-303 555h-153zM715 1538h-180l-287 254l108 123l269 -170l270 170l106 -123z" />
    <glyph glyph-name="rcaron" unicode="&#x159;" horiz-adv-x="813" 
d="M705 1116q49 0 108 -16l-49 -281q-57 14 -96 15q-96 0 -149.5 -68t-84.5 -207v-559h-291v1085h252l27 -211q39 115 113.5 178.5t169.5 63.5zM571 1260h-180l-287 268l109 123l268 -183l271 183l106 -123z" />
    <glyph glyph-name="Sacute" unicode="&#x15a;" horiz-adv-x="1157" 
d="M582 1450q287 0 477 -178l-144 -166q-145 119 -313 119q-94 0 -150.5 -40t-56.5 -114q1 -74 57 -116q56 -43 248 -103t296 -159t104 -291t-147.5 -313.5t-401.5 -121.5q-322 0 -524 199l155 170q164 -141 361 -141q111 0 177 51t66 140t-55 135q-55 47 -251 107
t-295 160.5t-99 271.5t139.5 280.5t356.5 109.5zM760 1935l112 -221l-479 -174l-74 150z" />
    <glyph glyph-name="sacute" unicode="&#x15b;" horiz-adv-x="980" 
d="M521 1118q212 0 376 -131l-111 -166q-137 86 -270 86q-72 0 -110.5 -26.5t-38.5 -73.5t44 -76t199.5 -72.5t239.5 -122.5t84 -230t-134 -245t-335 -94q-270 0 -442 158l143 160q137 -106 291 -107q82 0 130 32t48 90t-45 89t-195 72q-322 90 -321 334q0 141 117.5 232
t329.5 91zM659 1694l115 -224l-471 -188l-82 150z" />
    <glyph glyph-name="Scircumflex" unicode="&#x15c;" horiz-adv-x="1157" 
d="M582 1450q287 0 477 -178l-144 -166q-145 119 -313 119q-94 0 -150.5 -40t-56.5 -114q1 -74 57 -116q56 -43 248 -103t296 -159t104 -291t-147.5 -313.5t-401.5 -121.5q-322 0 -524 199l155 170q164 -141 361 -141q111 0 177 51t66 140t-55 135q-55 47 -251 107
t-295 160.5t-99 271.5t139.5 280.5t356.5 109.5zM864 1548l-270 170l-268 -170l-109 123l287 254h180l287 -254z" />
    <glyph glyph-name="scircumflex" unicode="&#x15d;" horiz-adv-x="980" 
d="M521 1118q212 0 376 -131l-111 -166q-137 86 -270 86q-72 0 -110.5 -26.5t-38.5 -73.5t44 -76t199.5 -72.5t239.5 -122.5t84 -230t-134 -245t-335 -94q-270 0 -442 158l143 160q137 -106 291 -107q82 0 130 32t48 90t-45 89t-195 72q-322 90 -321 334q0 141 117.5 232
t329.5 91zM238 1278l-107 123l287 268h180l287 -268l-109 -123l-268 182z" />
    <glyph glyph-name="Scedilla" unicode="&#x15e;" horiz-adv-x="1157" 
d="M651 -102q207 -20 207 -207q0 -92 -81 -154.5t-214 -62.5t-217 59l68 139q63 -35 131 -34q98 0 98 65q0 74 -188 74l24 194q-274 20 -452 195l155 170q164 -141 361 -141q111 0 177 51t66 140t-55 135t-250.5 106.5t-295 161t-99.5 271.5t139.5 280.5t356.5 109.5
q287 0 477 -178l-144 -166q-145 119 -313 119q-94 0 -150.5 -40t-56.5 -114t56.5 -116t248 -102.5t296 -159.5t104.5 -279t-119 -298t-330 -143v-75z" />
    <glyph glyph-name="scedilla" unicode="&#x15f;" horiz-adv-x="980" 
d="M571 -102q207 -20 207 -207q0 -92 -81 -154.5t-214 -62.5t-217 59l68 139q63 -35 131 -34q98 0 98 65q0 74 -188 74l24 192q-229 20 -376 156l143 160q137 -106 291 -107q82 0 130 32t48 90t-45 89t-195 72q-322 90 -321 334q0 141 117.5 232t329.5 91t376 -131
l-111 -166q-137 86 -270 86q-72 0 -110.5 -26.5t-38.5 -73.5t44 -76t199.5 -72.5t239.5 -123t84 -218.5t-100.5 -228t-262.5 -114v-77z" />
    <glyph glyph-name="Scaron" unicode="&#x160;" horiz-adv-x="1157" 
d="M582 1450q287 0 477 -178l-144 -166q-145 119 -313 119q-94 0 -150.5 -40t-56.5 -114q1 -74 57 -116q56 -43 248 -103t296 -159t104 -291t-147.5 -313.5t-401.5 -121.5q-322 0 -524 199l155 170q164 -141 361 -141q111 0 177 51t66 140t-55 135q-55 47 -251 107
t-295 160.5t-99 271.5t139.5 280.5t356.5 109.5zM866 1915l107 -123l-287 -254h-180l-287 254l109 123l268 -170z" />
    <glyph glyph-name="scaron" unicode="&#x161;" horiz-adv-x="980" 
d="M521 1118q212 0 376 -131l-111 -166q-137 86 -270 86q-72 0 -110.5 -26.5t-38.5 -73.5t44 -76t199.5 -72.5t239.5 -122.5t84 -230t-134 -245t-335 -94q-270 0 -442 158l143 160q137 -106 291 -107q82 0 130 32t48 90t-45 89t-195 72q-322 90 -321 334q0 141 117.5 232
t329.5 91zM778 1651l107 -123l-287 -268h-180l-287 268l109 123l268 -183z" />
    <glyph glyph-name="uni0162" unicode="&#x162;" horiz-adv-x="1093" 
d="M698 -102q211 -20 211 -207q0 -92 -82 -154.5t-213 -62.5t-217 59l68 139q63 -35 125 -34q104 0 104 67q0 72 -188 72l29 223h-138v1182h-377v235h1070l-33 -235h-359v-1284z" />
    <glyph glyph-name="uni0163" unicode="&#x163;" horiz-adv-x="778" 
d="M766 -309q0 -92 -81 -154.5t-214 -62.5t-217 59l68 139q63 -35 131 -34q98 0 98 65q0 74 -189 74l27 207q-219 61 -219 356v541h-162v204h162v238l291 35v-273h250l-29 -204h-221v-535q0 -78 26.5 -112.5t82.5 -34.5t122 39l101 -187q-98 -68 -234 -82v-71
q207 -20 207 -207z" />
    <glyph glyph-name="Tcaron" unicode="&#x164;" horiz-adv-x="1093" 
d="M698 1182v-1182h-301v1182h-377v235h1070l-33 -235h-359zM819 1915l107 -123l-287 -254h-180l-287 254l109 123l268 -170z" />
    <glyph glyph-name="tcaron" unicode="&#x165;" horiz-adv-x="778" 
d="M170 340v541h-162v204h162v238l291 35v-273h250l-29 -204h-221v-535q0 -78 26.5 -112.5t82.5 -34.5t122 39l101 -187q-121 -84 -283 -84q-340 4 -340 373zM780 1581l-110 -426l-160 25l45 432z" />
    <glyph glyph-name="Tbar" unicode="&#x166;" horiz-adv-x="1097" 
d="M698 1180v-383h240v-179h-240v-620h-301v620h-239v179h239v383h-377v235h1070l-33 -235h-359z" />
    <glyph glyph-name="tbar" unicode="&#x167;" horiz-adv-x="778" 
d="M170 340v201h-143v196h143v144h-162v204h162v238l291 35v-273h250l-29 -204h-221v-144h215v-196h-215v-195q0 -78 26.5 -112.5t82.5 -34.5t122 39l101 -187q-121 -84 -283 -84q-340 4 -340 373z" />
    <glyph glyph-name="Utilde" unicode="&#x168;" horiz-adv-x="1339" 
d="M1208 1417v-950q0 -223 -140 -361.5t-401 -138.5t-399.5 136.5t-138.5 363.5v950h301v-936q0 -285 238 -284q240 0 239 284v936h301zM788 1569q-63 0 -134.5 47t-100.5 47q-57 0 -109 -92l-149 74q41 100 106.5 163.5t140.5 63.5t145.5 -47t98.5 -47q55 0 109 90l149 -74
q-90 -225 -256 -225z" />
    <glyph glyph-name="utilde" unicode="&#x169;" horiz-adv-x="1175" 
d="M1032 1085v-1085h-252l-14 145q-115 -178 -330 -178q-147 0 -225 89t-78 249v780h291v-743q0 -86 28.5 -122t90.5 -36q117 0 198 142v759h291zM702 1311q-63 0 -134.5 47t-100.5 47q-57 0 -109 -92l-149 73q41 100 106.5 164t140.5 64t145.5 -47t98.5 -47q55 0 109 90
l149 -74q-90 -225 -256 -225z" />
    <glyph glyph-name="Umacron" unicode="&#x16a;" horiz-adv-x="1339" 
d="M1208 1417v-950q0 -223 -140 -361.5t-401 -138.5t-399.5 136.5t-138.5 363.5v950h301v-936q0 -285 238 -284q240 0 239 284v936h301zM973 1606h-611v204h611v-204z" />
    <glyph glyph-name="umacron" unicode="&#x16b;" horiz-adv-x="1175" 
d="M1032 1085v-1085h-252l-14 145q-115 -178 -330 -178q-147 0 -225 89t-78 249v780h291v-743q0 -86 28.5 -122t90.5 -36q117 0 198 142v759h291zM889 1348h-610v204h610v-204z" />
    <glyph glyph-name="Ubreve" unicode="&#x16c;" horiz-adv-x="1339" 
d="M1208 1417v-950q0 -223 -140 -361.5t-401 -138.5t-399.5 136.5t-138.5 363.5v950h301v-936q0 -285 238 -284q240 0 239 284v936h301zM667.5 1540q-145.5 0 -237.5 90t-104 223l166 31q43 -137 176 -137t178 137l166 -31q-12 -133 -105.5 -223t-239 -90z" />
    <glyph glyph-name="ubreve" unicode="&#x16d;" horiz-adv-x="1175" 
d="M1032 1085v-1085h-252l-14 145q-115 -178 -330 -178q-147 0 -225 89t-78 249v780h291v-743q0 -86 28.5 -122t90.5 -36q117 0 198 142v759h291zM583.5 1300q-147.5 0 -238.5 93.5t-103 240.5l166 31q39 -160 175 -160t179 160l166 -31q-12 -147 -104.5 -240.5t-240 -93.5z
" />
    <glyph glyph-name="Uring" unicode="&#x16e;" horiz-adv-x="1339" 
d="M1208 1417v-950q0 -223 -140 -361.5t-401 -138.5t-399.5 136.5t-138.5 363.5v950h301v-936q0 -285 238 -284q240 0 239 284v936h301zM670 1868q-43 0 -70 -28t-27 -78t26 -77.5t71 -27.5t70.5 27.5t25.5 77.5t-26.5 78t-69.5 28zM670 2019q121 0 196.5 -74.5t75.5 -182.5
t-75.5 -182.5t-196.5 -74.5t-197 75t-76 182t76 182t197 75z" />
    <glyph glyph-name="uring" unicode="&#x16f;" horiz-adv-x="1175" 
d="M1032 1085v-1085h-252l-14 145q-115 -178 -330 -178q-147 0 -225 89t-78 249v780h291v-743q0 -86 28.5 -122t90.5 -36q117 0 198 142v759h291zM584 1610q-43 0 -70 -28t-27 -78t26 -77.5t71 -27.5t70.5 27.5t25.5 77.5t-26.5 78t-69.5 28zM584 1761q121 0 196.5 -74.5
t75.5 -182.5t-75.5 -182.5t-196.5 -74.5t-197 75t-76 182t76 182t197 75z" />
    <glyph glyph-name="Uhungarumlaut" unicode="&#x170;" horiz-adv-x="1339" 
d="M1208 1417v-950q0 -223 -140 -361.5t-401 -138.5t-399.5 136.5t-138.5 363.5v950h301v-936q0 -285 238 -284q240 0 239 284v936h301zM930 2005l205 -102l-242 -361l-156 72zM582 2005l206 -98l-223 -355l-157 66z" />
    <glyph glyph-name="uhungarumlaut" unicode="&#x171;" horiz-adv-x="1175" 
d="M1032 1085v-1085h-252l-14 145q-115 -178 -330 -178q-147 0 -225 89t-78 249v780h291v-743q0 -86 28.5 -122t90.5 -36q117 0 198 142v759h291zM842 1747l205 -102l-242 -361l-156 72zM494 1747l206 -98l-223 -355l-158 66z" />
    <glyph glyph-name="Uogonek" unicode="&#x172;" horiz-adv-x="1339" 
d="M907 1417h301v-950q0 -170 -83 -293t-240 -174q-242 -94 -242 -215q0 -94 109 -94q59 0 125 14l-21 -186q-76 -14 -139 -15q-129 0 -210 62.5t-81 167.5q0 156 180 235q-231 16 -354 150.5t-123 347.5v950h301v-936q0 -285 238 -284q240 0 239 284v936z" />
    <glyph glyph-name="uogonek" unicode="&#x173;" horiz-adv-x="1175" 
d="M741 1085h291v-1085q-244 -94 -244 -215q0 -94 109 -94q59 0 125 14l-21 -186q-76 -14 -139 -15q-129 0 -210 62.5t-81 167.5q0 176 207 282l-12 129q-115 -178 -330 -178q-147 0 -225 89t-78 249v780h291v-743q0 -86 28.5 -122t90.5 -36q117 0 198 142v759z" />
    <glyph glyph-name="Wcircumflex" unicode="&#x174;" horiz-adv-x="1724" 
d="M1696 1417l-248 -1417h-391l-197 1108l-207 -1108h-381l-245 1417h301l161 -1184l216 1184h317l207 -1184l182 1184h285zM1135 1548l-271 170l-268 -170l-109 123l287 254h180l287 -254z" />
    <glyph glyph-name="wcircumflex" unicode="&#x175;" horiz-adv-x="1517" 
d="M1501 1085l-231 -1085h-355l-155 825l-156 -825h-350l-238 1085h293l133 -870l181 870h290l162 -870l148 870h278zM489 1278l-106 123l287 268h180l287 -268l-109 -123l-268 182z" />
    <glyph glyph-name="Ycircumflex" unicode="&#x176;" horiz-adv-x="1193" 
d="M748 0h-302v532l-454 885h330l282 -643l281 643h317l-454 -882v-535zM866 1548l-270 170l-268 -170l-109 123l287 254h180l287 -254z" />
    <glyph glyph-name="ycircumflex" unicode="&#x177;" horiz-adv-x="1048" 
d="M1053 1085l-351 -1087q-66 -207 -206 -319.5t-379 -129.5l-31 209q156 20 228.5 73.5t119.5 168.5h-100l-338 1085h309l217 -897l230 897h301zM254 1278l-107 123l287 268h180l287 -268l-108 -123l-269 182z" />
    <glyph glyph-name="Ydieresis" unicode="&#x178;" horiz-adv-x="1193" 
d="M748 0h-302v532l-454 885h330l282 -643l281 643h317l-454 -882v-535zM828.5 1880q64.5 0 109.5 -44t45 -107.5t-45 -107.5t-109.5 -44t-109.5 44t-45 107.5t45 107.5t109.5 44zM366.5 1880q64.5 0 108 -44t43.5 -107.5t-44 -107.5t-108 -44t-109.5 44t-45.5 107.5
t45.5 107.5t110 44z" />
    <glyph glyph-name="Zacute" unicode="&#x179;" horiz-adv-x="1103" 
d="M1030 1417v-231l-635 -942h645l-32 -244h-965v227l647 953h-581v237h921zM727 1935l113 -221l-480 -174l-73 150z" />
    <glyph glyph-name="zacute" unicode="&#x17a;" horiz-adv-x="929" 
d="M877 1085v-206l-510 -654h520l-29 -225h-825v209l510 653h-467v223h801zM623 1694l114 -224l-471 -188l-82 150z" />
    <glyph glyph-name="Zdotaccent" unicode="&#x17b;" horiz-adv-x="1103" 
d="M1030 1417v-231l-635 -942h645l-32 -244h-965v227l647 953h-581v237h921zM563 1903q78 0 128 -48.5t50 -122t-50 -121.5t-128 -48t-127 48t-49 121.5t49 122t127 48.5z" />
    <glyph glyph-name="zdotaccent" unicode="&#x17c;" horiz-adv-x="929" 
d="M877 1085v-206l-510 -654h520l-29 -225h-825v209l510 653h-467v223h801zM469 1645q78 0 128 -48.5t50 -122t-50 -121.5t-128 -48t-127 48t-49 121.5t49 122t127 48.5z" />
    <glyph glyph-name="Zcaron" unicode="&#x17d;" horiz-adv-x="1103" 
d="M1030 1417v-231l-635 -942h645l-32 -244h-965v227l647 953h-581v237h921zM834 1915l106 -123l-287 -254h-180l-287 254l109 123l268 -170z" />
    <glyph glyph-name="zcaron" unicode="&#x17e;" horiz-adv-x="929" 
d="M877 1085v-206l-510 -654h520l-29 -225h-825v209l510 653h-467v223h801zM739 1651l107 -123l-287 -268h-180l-287 268l109 123l268 -183z" />
    <glyph glyph-name="uni0180" unicode="&#x180;" horiz-adv-x="1241" 
d="M641 182q209 0 209 361q0 199 -50 279.5t-145 80.5q-121 0 -202 -141v-463q71 -117 188 -117zM752.5 1118q189.5 0 295 -151.5t105.5 -415.5t-116.5 -424t-304 -160t-296.5 142l-16 -109h-258v1225h-135v178h135v115l291 32v-147h278v-178h-278v-256q110 149 299.5 149z
" />
    <glyph glyph-name="uni0181" unicode="&#x181;" horiz-adv-x="1519" 
d="M854 223q141 0 215 42t74 159q0 213 -262 213h-168v-414h141zM825 1200h-112v-358h145q231 0 232 186q0 94 -65 133t-200 39zM852 0h-442v1198h-58q-98 0 -98 -90q0 -49 33 -137l-187 -84q-90 131 -90 252.5t96.5 199.5t262.5 78h428q600 0 600 -362q0 -125 -75.5 -201.5
t-186.5 -103.5q322 -61 321 -338q0 -223 -158.5 -317.5t-445.5 -94.5z" />
    <glyph glyph-name="uni0182" unicode="&#x182;" horiz-adv-x="1212" 
d="M598 223q256 0 256 238q0 231 -264 231h-139v-469h147zM612 905q266 0 411.5 -111.5t145.5 -335.5t-150.5 -341t-404.5 -117h-464v1417h858l-33 -231h-524v-281h161z" />
    <glyph glyph-name="uni0183" unicode="&#x183;" horiz-adv-x="1220" 
d="M623 182q207 0 206 350q0 195 -50 273t-144 78q-119 0 -201 -138v-448q72 -115 189 -115zM733.5 1100q186.5 0 293 -149.5t106.5 -409t-117 -417t-303.5 -157.5t-294.5 139l-17 -106h-258v1518h740l-31 -209h-418v-359q113 150 299.5 150z" />
    <glyph glyph-name="uni0184" unicode="&#x184;" horiz-adv-x="1239" 
d="M631 223q125 0 190.5 57.5t65.5 190.5q0 240 -264 240h-140v-488h148zM645 926q266 0 411.5 -113t145.5 -345t-150.5 -350t-404.5 -118h-465v1022l-149 100q113 119 194 295h256v-491h162z" />
    <glyph glyph-name="uni0185" unicode="&#x185;" horiz-adv-x="1097" 
d="M571 197q184 0 185 180q0 90 -46 133t-157 43h-88v-356h106zM557 745q498 0 498 -372q0 -182 -126 -277.5t-327 -95.5h-428v711l-151 100q113 117 196 274h246v-340h92z" />
    <glyph glyph-name="uni0186" unicode="&#x186;" horiz-adv-x="1169" 
d="M500 1450q268 0 430 -193.5t162 -546.5t-172 -548t-443.5 -195t-453.5 178l137 177q76 -57 139 -87t147 -30q152 0 241 125t89 385t-80 384t-227.5 124t-282.5 -101l-147 174q193 154 461 154z" />
    <glyph glyph-name="uni0187" unicode="&#x187;" horiz-adv-x="1169" 
d="M1203 1735q155 0 272 -78l-89 -182q-76 43 -143 43q-111 0 -110 -134v-88l-134 -153q-137 80 -282.5 80t-233.5 -124t-88 -384t89 -385t230.5 -125t295.5 119l139 -179q-174 -178 -449.5 -178t-448.5 194.5t-173 544t174 547t428 197.5q109 0 190 -35q6 154 92 237
t241 83z" />
    <glyph glyph-name="uni0188" unicode="&#x188;" horiz-adv-x="978" 
d="M1026 1550q158 0 274 -77l-90 -183q-76 43 -141 43q-113 0 -113 -133v-213l-108 -149q-106 55 -227 55q-236 0 -236 -346t229 -346q102 0 211 82l131 -189q-156 -127 -356 -127q-242 0 -382 153.5t-140 413t136 422t353 162.5q72 0 127 -18v108q0 166 87 254t245 88z" />
    <glyph glyph-name="uni0189" unicode="&#x189;" horiz-adv-x="1357" 
d="M600 221q174 0 269.5 107.5t95.5 393.5t-103.5 380t-267.5 94h-117v-379h289v-188h-289v-408h123zM547 1417q407 1 583 -201q148 -170 148 -518q0 -188 -58 -334t-162 -222q-194 -142 -476 -142h-406v629h-145v188h145v600h371z" />
    <glyph glyph-name="uni018A" unicode="&#x18a;" horiz-adv-x="1591" 
d="M836 221q172 0 267 107.5t95 394.5t-110 385q-54 49 -114.5 68.5t-144.5 19.5h-116v-975h123zM782 1417q407 1 583 -201q148 -169 148 -501q0 -205 -58 -351q-57 -146 -161 -222q-194 -142 -479 -142h-405v1198h-58q-98 0 -98 -90q0 -49 33 -137l-187 -84
q-90 131 -90 252.5t96.5 199.5t262.5 78h413z" />
    <glyph glyph-name="uni018B" unicode="&#x18b;" horiz-adv-x="1212" 
d="M614 223h146v469h-139q-262 0 -263 -241q0 -123 65.5 -175.5t190.5 -52.5zM1063 0h-479q-248 0 -394 112t-146.5 334t147 340.5t409.5 118.5h160v281h-543v231h846v-1417z" />
    <glyph glyph-name="uni018C" unicode="&#x18c;" horiz-adv-x="1226" 
d="M588 184q121 0 205 131v465q-87 104 -187 104t-157.5 -86.5t-57.5 -262.5q0 -351 197 -351zM1083 1518v-1518h-256l-18 133q-113 -166 -311 -166t-304 153.5t-106 407.5t121 413t323 159q150 0 261 -111v320h-433v209h723z" />
    <glyph glyph-name="uni018D" unicode="&#x18d;" horiz-adv-x="1183" 
d="M590 901q-211 0 -211 -317q0 -131 39 -219.5t127 -157.5q156 70 206 144.5t50 228.5q0 321 -211 321zM471 -139q-1 -105 179 -105q102 0 208 74l135 -158q-162 -123 -376 -123t-321.5 88.5t-107.5 215.5q0 88 43 153.5t158 128.5q-311 147 -311 457q0 246 138 386
t375 140t375 -149.5t138 -374.5t-98.5 -348t-317.5 -213q-135 -55 -176 -89t-41 -83z" />
    <glyph glyph-name="uni018E" unicode="&#x18e;" horiz-adv-x="1077" 
d="M88 1417h838v-1417h-848v221h547v391h-447v217h447v369h-537v219z" />
    <glyph glyph-name="uni018F" unicode="&#x18f;" horiz-adv-x="1314" 
d="M639 190q135 0 208 98.5t81 317.5h-578q6 -416 289 -416zM635 1450q287 0 443 -184q156 -186 156.5 -550t-158 -556.5t-441.5 -192.5t-430.5 189.5t-147.5 533.5q0 63 11 129h860q-14 406 -318 406q-168 0 -334 -121l-139 166q211 180 498 180z" />
    <glyph glyph-name="uni0190" unicode="&#x190;" horiz-adv-x="1097" 
d="M590 1450q270 0 467 -184l-150 -158q-131 119 -284 119q-106 0 -155.5 -49.5t-49.5 -133.5t59.5 -135t165.5 -51h150l-37 -221h-109q-131 0 -198.5 -57.5t-67.5 -162.5t66.5 -163.5t187.5 -58.5q164 0 297 129l166 -158q-182 -199 -490 -199q-240 0 -392.5 119
t-152.5 315q0 156 94.5 245t256.5 108q-150 33 -229 116.5t-79 208.5q0 162 132.5 266.5t351.5 104.5z" />
    <glyph glyph-name="uni0191" unicode="&#x191;" horiz-adv-x="999" 
d="M451 1198v-401h426v-219h-426v-576h2v-80q0 -182 -103.5 -277.5t-275.5 -95.5t-285 86l100 183q78 -45 146 -45q115 0 115 131v1513h823l-33 -219h-489z" />
    <glyph glyph-name="florin" unicode="&#x192;" horiz-adv-x="745" 
d="M633 1333q-86 0 -119 -34t-33 -113v-101h260l-32 -204h-228v-772q0 -251 -114 -373q-59 -62 -128 -104t-171 -81l-95 211q117 55 167 120t50 208v791h-167v204h167v109q0 158 104 257t278 99t319 -65l-80 -193q-92 41 -178 41z" />
    <glyph glyph-name="uni0193" unicode="&#x193;" horiz-adv-x="1241" 
d="M1275 1735q159 0 271 -78l-88 -182q-76 43 -143 43q-111 0 -111 -134v-104l-143 -150q-160 96 -314.5 96.5t-254 -127.5t-99.5 -397t77 -389t239 -120q117 0 211 51v346h-199l-31 219h522v-698q-229 -143 -520.5 -143.5t-452.5 189t-161 543t185.5 552t443.5 198.5
q137 0 235 -47q4 160 89 246t244 86z" />
    <glyph glyph-name="uni0194" unicode="&#x194;" horiz-adv-x="1159" 
d="M645 -188q0 66 -61 202q-118 -268 0 -268q62 0 61 66zM879 -219.5q0 -102.5 -73 -167t-221 -64.5t-222 64.5t-74 179.5q0 80 31.5 164t105.5 219l-444 1241h321l283 -1042l282 1042h308l-433 -1241q72 -121 104 -207t32 -188.5z" />
    <glyph glyph-name="uni0195" unicode="&#x195;" horiz-adv-x="1789" 
d="M762 741q0 160 -117 160t-211 -149v-752h-291v1518l291 30v-585q133 156 316 155q141 0 222 -87t81 -240v-422q0 -184 139 -185q84 0 144.5 84t60.5 303.5t-54 513.5h289q57 -313 58 -573q0 -140 -46 -248t-120 -170q-151 -127 -341 -127t-305.5 100.5t-115.5 292.5v381z
" />
    <glyph glyph-name="uni0196" unicode="&#x196;" horiz-adv-x="788" 
d="M506 -33q-170 0 -273.5 95.5t-103.5 277.5v1077h301v-1095q0 -131 115 -132q69 0 145 43l103 -180q-117 -86 -287 -86z" />
    <glyph glyph-name="uni0197" unicode="&#x197;" horiz-adv-x="667" 
d="M651 848v-223h-166v-625h-303v625h-166v223h166v569h303v-569h166z" />
    <glyph glyph-name="uni0198" unicode="&#x198;" horiz-adv-x="1318" 
d="M451 1417v-1417h-301v1417h301zM1119 1450q126 0 220 -76l-84 -174q-49 29 -98 29t-80 -21.5t-76 -87.5l-219 -342l510 -778h-352l-477 756l299 465q80 127 155.5 178t201.5 51z" />
    <glyph glyph-name="uni0199" unicode="&#x199;" horiz-adv-x="1110" 
d="M748 608l376 -608h-329l-351 594l349 491h301zM578 1333q-80 0 -112 -35t-32 -112v-1186h-291v1194q-1 158 103 257t276 99t305 -65l-79 -193q-89 41 -170 41z" />
    <glyph glyph-name="uni019A" unicode="&#x19a;" horiz-adv-x="675" 
d="M455.5 -33q-117.5 0 -191.5 77t-74 218v395h-174v207h174v654l291 32v-686h170v-207h-170v-387q0 -72 58 -71q34 0 57 12l59 -207q-82 -37 -199.5 -37z" />
    <glyph glyph-name="uni019B" unicode="&#x19b;" horiz-adv-x="1064" 
d="M768 944q86 -375 154.5 -557t177.5 -326l-279 -94q-104 162 -166.5 339t-126.5 501l-219 -840l-286 68l325 971h146q-25 106 -58 172l-121 -105l-163 96l153 142q-66 29 -176 45l37 194q201 -33 311 -98l146 129l127 -139l-136 -117q93 -129 154 -381z" />
    <glyph glyph-name="uni019C" unicode="&#x19c;" horiz-adv-x="1882" 
d="M1432 1417h301v-1417h-263l-22 137q-137 -170 -324 -170q-217 0 -303 193q-82 -100 -164 -146.5t-184 -46.5q-162 0 -253 110.5t-91 291.5v1048h301v-1036q0 -88 36 -136t98 -48t110.5 35.5t105.5 113.5v1071h301v-1036q0 -88 36 -136t99.5 -48t111.5 34.5t104 116.5
v1069z" />
    <glyph glyph-name="uni019D" unicode="&#x19d;" horiz-adv-x="1368" 
d="M946 1417h273v-1417h-388l-450 1124q41 -317 41 -573v-631q0 -180 -97.5 -275.5t-261.5 -95.5t-280 86l102 175q76 -43 146 -43q119 0 119 131v1519h378l459 -1126q-41 274 -41 504v622z" />
    <glyph glyph-name="uni019E" unicode="&#x19e;" horiz-adv-x="1185" 
d="M750 1118q143 0 223 -87t80 -240v-1242l-291 33v1159q0 88 -30 124t-89 36q-115 0 -209 -151v-750h-291v1085h252l23 -137q137 170 332 170z" />
    <glyph glyph-name="uni019F" unicode="&#x19f;" horiz-adv-x="1415" 
d="M708 193q296 0 318 438h-637q23 -438 319 -438zM708 1225q-290 0 -319 -418h637q-28 418 -318 418zM710 1450q294 0 460.5 -193.5t166.5 -544.5t-168 -548t-461.5 -197t-461.5 194.5t-168 544t169 547t463 197.5z" />
    <glyph glyph-name="Ohorn" unicode="&#x1a0;" horiz-adv-x="1458" 
d="M709 193q156 0 233.5 121.5t77.5 394t-78 394.5t-233.5 122t-234.5 -123t-79 -393q1 -516 314 -516zM1436 1410q0 -99 -53.5 -162.5t-149.5 -84.5q104 -180 104 -454q0 -348 -168 -545t-461.5 -197t-461.5 194.5t-168 544t169 547t462 197.5q258 0 419 -152
q100 14 101 113q0 70 -29 141l197 31q39 -74 39 -173z" />
    <glyph glyph-name="ohorn" unicode="&#x1a1;" horiz-adv-x="1265" 
d="M598 184q217 0 217 358.5t-217 358.5t-217 -358.5t217 -358.5zM1280 1073q0 -207 -213 -246q51 -125 51 -284q0 -260 -139 -418t-382 -158t-381 152.5t-138 418.5t139 423t381 157t381 -149q94 12 94 110q0 70 -29 142l197 30q39 -74 39 -178z" />
    <glyph glyph-name="uni01A2" unicode="&#x1a2;" horiz-adv-x="1949" 
d="M709 193q156 0 233.5 121.5t77.5 394t-78 394.5t-233.5 122t-234.5 -123t-79 -393q1 -516 314 -516zM1407 1452q184 0 288.5 -96t104.5 -281v-1501h-303v1511q0 152 -131 152q-80 0 -158 -39q129 -195 129 -489q0 -348 -168 -545t-461.5 -197t-461.5 194.5t-168 544
t169 547t462 197.5q205 0 358 -107q156 109 340 109z" />
    <glyph glyph-name="uni01A3" unicode="&#x1a3;" horiz-adv-x="1679" 
d="M598 184q217 0 217 358.5t-217 358.5t-217 -358.5t217 -358.5zM1175 1118q164 0 262.5 -96t98.5 -281v-1192l-291 33v1180q0 141 -123 141q-47 0 -90 -14q86 -139 86 -346q0 -260 -139 -418t-382 -158t-381 152.5t-138 419t139 423t383 156.5q158 0 279 -74
q132 74 296 74z" />
    <glyph glyph-name="uni01A4" unicode="&#x1a4;" horiz-adv-x="1478" 
d="M848 705q133 0 201.5 58t68.5 198q0 240 -272 239h-133v-495h135zM848 1417q276 0 430 -114.5t154 -346.5t-153 -352.5t-407 -120.5h-159v-483h-303v1198h-58q-98 0 -98 -90q0 -49 33 -137l-187 -84q-90 131 -90 253t96.5 199.5t262.5 77.5h479z" />
    <glyph glyph-name="uni01A5" unicode="&#x1a5;" horiz-adv-x="1220" 
d="M616 184q213 0 213 359q0 197 -48 279q-47 82 -155 81.5t-192 -139.5v-473q69 -107 182 -107zM725 1118q408 0 408 -573q0 -256 -115 -417t-316 -161q-170 0 -268 117v-502l-291 -33v1645q0 158 103.5 257t275.5 99t305 -65l-79 -193q-88 41 -170 41t-113 -34.5
t-31 -112.5v-213q117 145 291 145z" />
    <glyph glyph-name="uni01A6" unicode="&#x1a6;" horiz-adv-x="1257" 
d="M451 963v-433h157q244 0 244 226q0 109 -64.5 158t-201.5 49h-135zM451 317v-317h-301v1417h301v-237h141q571 0 571 -424q0 -141 -67.5 -231.5t-210.5 -151.5l364 -611h-342l-303 555h-153z" />
    <glyph glyph-name="uni01A7" unicode="&#x1a7;" horiz-adv-x="1138" 
d="M596 1450q215 0 348 -106.5t133 -275.5t-103.5 -268.5t-332.5 -168.5q-154 -47 -212 -102.5t-58 -142.5t63.5 -137t167.5 -50q188 0 356 135l154 -168q-203 -199 -530 -199q-236 0 -380.5 122t-144.5 306t105.5 283.5t295 160t249 107.5t59.5 125q0 154 -186.5 154
t-331.5 -119l-146 166q207 178 494 178z" />
    <glyph glyph-name="uni01A8" unicode="&#x1a8;" horiz-adv-x="962" 
d="M500 1118q188 0 297.5 -90t109.5 -225t-77.5 -209t-234 -119t-201 -79t-44.5 -93t44 -92t114 -33q150 0 291 107l141 -160q-172 -158 -442 -158q-193 0 -322 93.5t-129 242.5t85 225t261 123q133 39 176 72t43 82q0 102 -140 102t-277 -86l-109 166q181 131 414 131z" />
    <glyph glyph-name="uni01A9" unicode="&#x1a9;" horiz-adv-x="1030" 
d="M977 1417v-223h-590l358 -428v-133l-360 -406h592v-227h-924v223l408 471l-408 500v223h924z" />
    <glyph glyph-name="uni01AA" unicode="&#x1aa;" horiz-adv-x="815" 
d="M272 1090q35 0 72 12v127q0 115 -86 114q-90 0 -90 -126.5t104 -126.5zM717.5 -451q-168.5 0 -271 95.5t-102.5 277.5v985q-55 -23 -119 -22q-137 0 -226 92t-89 239.5t97 240.5t262 93t265.5 -98t100.5 -262v-1292q0 -131 119 -131q69 0 145 43l100 -175
q-113 -86 -281.5 -86z" />
    <glyph glyph-name="uni01AB" unicode="&#x1ab;" horiz-adv-x="778" 
d="M793 -76q0 -184 -98.5 -278.5t-271.5 -94.5t-288 84l101 177q86 -45 163 -45q135 0 136 131v73q-25 -4 -35 -4q-160 2 -245 97.5t-85 275.5v541h-162v204h162v238l291 35v-273h250l-29 -204h-221v-555q1 -74 27 -107q49 -61 221 -12l84 -156v-127z" />
    <glyph glyph-name="uni01AC" unicode="&#x1ac;" horiz-adv-x="1198" 
d="M803 1182v-1182h-303v1182h-146q-98 0 -98 -84q0 -45 35 -123l-203 -90q-78 125 -78 249.5t98.5 203.5t272.5 79h811l-31 -235h-358z" />
    <glyph glyph-name="uni01AD" unicode="&#x1ad;" horiz-adv-x="778" 
d="M170 340v541h-162v204h162v103q0 166 94 264t251.5 98t275.5 -77l-91 -173q-72 41 -135 41q-104 0 -104 -131v-125h250l-29 -204h-221v-535q0 -78 26.5 -112.5t82.5 -34.5t122 39l101 -187q-121 -84 -283 -84q-340 4 -340 373z" />
    <glyph glyph-name="uni01AE" unicode="&#x1ae;" horiz-adv-x="1093" 
d="M813 -227q68 0 145 45l101 -183q-113 -86 -285 -86t-275.5 95.5t-103.5 277.5v80h2v1180h-377v235h1070l-33 -235h-359v-1278q0 -131 115 -131z" />
    <glyph glyph-name="Uhorn" unicode="&#x1af;" horiz-adv-x="1460" 
d="M1501 1399.5q0 -109.5 -79 -177t-214 -67.5v-688q0 -223 -140 -361.5t-401 -138.5t-399.5 136.5t-138.5 363.5v950h301v-936q0 -285 238 -284q240 0 239 284v936h301v-114q86 16 86 108q0 70 -28 141l196 31q39 -74 39 -183.5z" />
    <glyph glyph-name="uhorn" unicode="&#x1b0;" horiz-adv-x="1296" 
d="M1325 1063.5q0 -113.5 -77 -177t-216 -67.5v-819h-252l-14 145q-115 -178 -330 -178q-147 0 -225 89t-78 249v780h291v-743q0 -86 28.5 -122t90.5 -36q117 0 198 142v759h291v-116q86 16 86 110q0 70 -28 142l196 30q39 -74 39 -187.5z" />
    <glyph glyph-name="uni01B1" unicode="&#x1b1;" horiz-adv-x="1415" 
d="M707 -33q-289 0 -459 182.5t-170 475.5q0 369 268 571h-223v221h465v-211q-100 -104 -146.5 -233t-46.5 -348q0 -432 314 -432q152 0 231.5 109.5t79.5 323.5t-48 344t-145 236v211h467v-221h-225q268 -182 268 -569q0 -289 -170.5 -474.5t-459.5 -185.5z" />
    <glyph glyph-name="uni01B2" unicode="&#x1b2;" horiz-adv-x="1314" 
d="M913 1450q295 0 295 -322v-526q0 -295 -157.5 -465t-423.5 -170q-229 0 -363.5 132t-134.5 337v981h301v-977q0 -117 53.5 -180t151.5 -63q129 0 200.5 100t71.5 305v539q0 47 -15 66.5t-50 19.5t-62 -10l-53 198q80 35 186 35z" />
    <glyph glyph-name="uni01B3" unicode="&#x1b3;" horiz-adv-x="1271" 
d="M446 0v532l-454 885h330l282 -643l162 395q57 152 137 216.5t213 64.5t246 -78l-88 -172q-56 35 -110 35t-83.5 -25.5t-62.5 -93.5l-270 -581v-535h-302z" />
    <glyph glyph-name="uni01B4" unicode="&#x1b4;" horiz-adv-x="1060" 
d="M975 1192q80 0 164 -33l-54 -194q-27 10 -60.5 10t-53 -17.5t-33.5 -66.5l-217 -848q-57 -236 -205.5 -357t-398.5 -137l-31 209q156 20 228.5 73.5t119.5 168.5h-100l-338 1085h309l217 -897l164 719q33 150 98.5 217.5t190.5 67.5z" />
    <glyph glyph-name="uni01B5" unicode="&#x1b5;" horiz-adv-x="1103" 
d="M43 0v219l272 391h-168v203h310l258 367h-606v237h921v-221l-264 -383h174v-203h-315l-254 -366h669l-32 -244h-965z" />
    <glyph glyph-name="uni01B6" unicode="&#x1b6;" horiz-adv-x="929" 
d="M33 0v199l203 262h-142v186h287l174 225h-479v213h801v-198l-187 -240h133v-186h-278l-191 -246h533l-29 -215h-825z" />
    <glyph glyph-name="uni01B7" unicode="&#x1b7;" horiz-adv-x="1103" 
d="M1040 412.5q0 -191.5 -147.5 -318.5t-403.5 -127q-307 0 -479 205l158 154q133 -131 307 -131q121 0 187.5 61t66.5 172q0 213 -272 213h-197v176l377 377h-549v223h887v-217l-381 -377q217 -6 331.5 -112.5t114.5 -298z" />
    <glyph glyph-name="uni01B8" unicode="&#x1b8;" horiz-adv-x="1103" 
d="M600 -33q-246 0 -391.5 124t-145.5 311.5t120 300t329 120.5l-383 377v217h887v-223h-547l375 -381v-172h-197q-272 0 -272 -227q0 -100 64.5 -159.5t176.5 -59.5q187 0 320 131l158 -154q-176 -205 -494 -205z" />
    <glyph glyph-name="uni01B9" unicode="&#x1b9;" horiz-adv-x="1030" 
d="M573 -451q-242 0 -386 128t-144 326t119 308.5t334 120.5l-392 451v202h869v-221h-541l367 -438v-172h-183q-139 0 -205.5 -57.5t-66.5 -177.5t65.5 -182t180.5 -62q164 0 307 125l152 -146q-178 -205 -476 -205z" />
    <glyph glyph-name="uni01BA" unicode="&#x1ba;" horiz-adv-x="1021" 
d="M674 283q0 111 -166 110h-281v166l340 315h-520v211h862v-192l-368 -324h69q172 0 269.5 -77.5t97.5 -215.5q0 -287 -410 -350q-143 -23 -190 -44t-47 -60q0 -55 116 -109l-75 -166q-313 106 -314 308q0 111 84 174t248 90t224.5 60.5t60.5 103.5z" />
    <glyph glyph-name="uni01BB" unicode="&#x1bb;" horiz-adv-x="1048" 
d="M63 0v211q190 186 281 285h-211v200h389q123 158 123 295q0 88 -51 139q-51 52 -132 52t-140 -34t-123 -112l-176 140q176 231 460 231q213 0 337 -112q124 -111 124 -277t-108 -322h122v-200h-288q-101 -107 -275 -271h580l-33 -225h-879z" />
    <glyph glyph-name="uni01BC" unicode="&#x1bc;" horiz-adv-x="1095" 
d="M406 1206v-338q106 53 221 54q175 0 285 -122t110 -341t-145 -355t-405 -137q-260 0 -439 201l166 156q115 -133 280 -134q117 0 180 70t64 203q0 254 -207 254q-84 0 -186 -47h-203v747h836l-35 -211h-522z" />
    <glyph glyph-name="uni01BD" unicode="&#x1bd;" horiz-adv-x="968" 
d="M389 870v-190q74 31 170 31q147 0 246.5 -95.5t99.5 -265.5t-127 -276.5t-332 -106.5q-133 0 -224 41t-179 121l147 158q70 -53 121 -75t128 -22t124 43t47 123t-40 117t-108.5 37t-142.5 -33h-194v608h715l-43 -215h-408z" />
    <glyph glyph-name="uni01BE" unicode="&#x1be;" horiz-adv-x="1050" 
d="M473 -31q-260 0 -450 185l145 149q131 -117 257 -117q245 0 245 267q0 135 -60.5 209.5t-187.5 107.5l-123 27v295h-147v178h147v248l291 30v-278h205v-178h-205v-193l61 -10q319 -92 320 -438q0 -217 -136.5 -349.5t-361.5 -132.5z" />
    <glyph glyph-name="uni01BF" unicode="&#x1bf;" horiz-adv-x="1210" 
d="M829 717q0 188 -155 188q-133 0 -240 -121v-596l88 54q154 92 230.5 205.5t76.5 269.5zM766 1118q160 0 263.5 -106.5t103.5 -288.5q0 -260 -163 -419q-83 -81 -173 -138t-228 -125l-135 -68v-391l-291 -33v1536h256l17 -137q139 170 350 170z" />
    <glyph glyph-name="uni01C0" unicode="&#x1c0;" horiz-adv-x="555" 
d="M406 0h-256v1518l256 28v-1546z" />
    <glyph glyph-name="uni01C1" unicode="&#x1c1;" horiz-adv-x="954" 
d="M406 0h-256v1518l256 28v-1546zM805 0h-254v1518l254 28v-1546z" />
    <glyph glyph-name="uni01C2" unicode="&#x1c2;" horiz-adv-x="667" 
d="M651 817h-190v-133h190v-172h-190v-512h-254v512h-191v172h191v133h-191v172h191v529l254 28v-557h190v-172z" />
    <glyph glyph-name="uni01C3" unicode="&#x1c3;" horiz-adv-x="649" 
d="M325 317q73 0 124 -51t51 -123t-51 -124t-124 -52t-124 52t-51 124t51 123t124 51zM451 469h-254v1049l254 28v-1077z" />
    <glyph glyph-name="uni01C4" unicode="&#x1c4;" horiz-adv-x="2412" 
d="M567 1196h-116v-975h122q174 0 269.5 107.5t95.5 394.5t-103.5 380t-267.5 93zM2341 1417v-231l-635 -942h645l-33 -244h-964v227l647 953h-582v237h922zM520 1417q406 1 582 -201q148 -170 149 -518q0 -188 -58 -334q-57 -146 -161 -222q-194 -142 -477 -142h-405v1417
h370zM2144 1915l107 -123l-287 -254h-180l-287 254l109 123l268 -170z" />
    <glyph glyph-name="uni01C5" unicode="&#x1c5;" horiz-adv-x="2258" 
d="M2208 1085v-206l-510 -654h520l-29 -225h-825v209l510 653h-467v223h801zM567 1196h-116v-975h122q174 0 269.5 107.5t95.5 394.5t-103.5 380t-267.5 93zM520 1417q406 1 582 -201q148 -170 149 -518q0 -188 -58 -334q-57 -146 -161 -222q-194 -142 -477 -142h-405v1417
h370zM2071 1651l106 -123l-287 -268h-180l-287 268l109 123l268 -183z" />
    <glyph glyph-name="uni01C6" unicode="&#x1c6;" horiz-adv-x="2156" 
d="M588 184q121 0 205 131v486q-86 102 -187 102q-215 0 -215 -360q0 -195 50.5 -277t146.5 -82zM1260 0v209l509 653h-466v223h800v-206l-510 -654h521l-29 -225h-825zM1083 0h-256l-18 133q-113 -166 -311.5 -166t-304 154.5t-105.5 416t120 421t324 159.5q150 1 261 -110
v542l290 -32v-1518zM1786 1260h-180l-287 268l108 123l269 -183l270 183l107 -123z" />
    <glyph glyph-name="uni01C7" unicode="&#x1c7;" horiz-adv-x="1687" 
d="M1544 1417v-1206q0 -236 -113.5 -355.5t-322.5 -187.5l-80 215q131 51 173 125t42 213v1196h301zM451 1417v-1175h561l-33 -242h-829v1417h301z" />
    <glyph glyph-name="uni01C8" unicode="&#x1c8;" horiz-adv-x="1617" 
d="M1475 1085v-976q-1 -247 -117 -373q-58 -64 -126.5 -105t-170.5 -80l-96 211q119 55 169 121t50 207v995h291zM451 1417v-1175h561l-33 -242h-829v1417h301zM1329 1645q78 0 128 -48.5t50 -122t-50 -121.5t-128 -48t-127 48t-49 121.5t49 122t127 48.5z" />
    <glyph glyph-name="uni01C9" unicode="&#x1c9;" horiz-adv-x="1202" 
d="M1059 1085v-976q0 -245 -116 -373q-58 -64 -126.5 -105t-171.5 -80l-96 211q119 55 169 121t50 207v995h291zM398.5 -33q-117.5 0 -191.5 77t-74 218v1256l291 32v-1280q0 -72 59 -71q33 0 58 12l59 -207q-84 -37 -201.5 -37zM913.5 1645q77.5 0 128 -48.5t50.5 -122
t-50.5 -121.5t-128 -48t-127 48t-49.5 121.5t49.5 122t127 48.5z" />
    <glyph glyph-name="uni01CA" unicode="&#x1ca;" horiz-adv-x="2011" 
d="M1870 1417v-1206q0 -236 -114 -355.5t-322 -187.5l-80 215q131 51 173 125t42 213v1196h301zM1219 1417v-1417h-388l-450 1124q41 -317 41 -573v-551h-272v1417h378l459 -1126q-41 274 -41 504v622h273z" />
    <glyph glyph-name="uni01CB" unicode="&#x1cb;" horiz-adv-x="1943" 
d="M1800 1085v-976q0 -247 -116 -373q-58 -64 -126.5 -105t-171.5 -80l-96 211q119 55 169 121t50 207v995h291zM1219 1417v-1417h-388l-450 1124q41 -317 41 -573v-551h-272v1417h378l459 -1126q-41 274 -41 504v622h273zM1655 1645q78 0 128 -48.5t50 -122t-50 -121.5
t-128 -48t-127 48t-49 121.5t49 122t127 48.5z" />
    <glyph glyph-name="uni01CC" unicode="&#x1cc;" horiz-adv-x="1761" 
d="M1327 90v995h291v-976q0 -247 -116 -373q-58 -64 -126.5 -105t-171.5 -80l-96 211q119 55 169 121t50 207zM750 1118q143 0 223 -87t80 -240v-791h-291v741q0 88 -30 124t-89 36q-115 0 -209 -151v-750h-291v1085h252l23 -137q137 170 332 170zM1472.5 1305
q-77.5 0 -127 48t-49.5 121.5t49.5 122t127 48.5t128 -48.5t50.5 -122t-50.5 -121.5t-128 -48z" />
    <glyph glyph-name="uni01CD" unicode="&#x1cd;" horiz-adv-x="1200" 
d="M430 541h332l-166 653zM899 0l-80 317h-444l-80 -317h-313l436 1417h366l435 -1417h-320zM692 1538h-180l-287 254l109 123l268 -170l270 170l107 -123z" />
    <glyph glyph-name="uni01CE" unicode="&#x1ce;" horiz-adv-x="1120" 
d="M496 176q123 0 192 121v207h-96q-236 0 -236 -176q0 -72 36 -112t104 -40zM973 301q0 -63 18.5 -93t61.5 -44l-62 -193q-96 10 -156.5 46t-93.5 112q-109 -162 -325 -162q-162 0 -257.5 93.5t-95.5 257.5t129.5 258t370.5 94h125v53q0 100 -45 139t-155 39t-281 -57
l-66 194q203 80 402 80q430 0 430 -379v-438zM641 1260h-180l-287 268l109 123l268 -183l270 183l107 -123z" />
    <glyph glyph-name="uni01CF" unicode="&#x1cf;" horiz-adv-x="602" 
d="M451 1417v-1417h-301v1417h301zM571 1915l107 -123l-287 -254h-180l-287 254l109 123l268 -170z" />
    <glyph glyph-name="uni01D0" unicode="&#x1d0;" horiz-adv-x="577" 
d="M434 1085v-1085h-291v1085h291zM559 1651l107 -123l-287 -268h-180l-287 268l108 123l269 -183z" />
    <glyph glyph-name="uni01D1" unicode="&#x1d1;" horiz-adv-x="1415" 
d="M708.5 1225q-155.5 0 -234.5 -123t-79 -393q0 -516 314 -516q156 0 233.5 121.5t77.5 394t-78 394.5t-233.5 122zM710 1450q294 0 460.5 -193.5t166.5 -544.5t-168 -548t-461.5 -197t-461.5 194.5t-168 544t169 547t463 197.5zM979 1915l106 -123l-286 -254h-181
l-286 254l108 123l269 -170z" />
    <glyph glyph-name="uni01D2" unicode="&#x1d2;" horiz-adv-x="1196" 
d="M815 542.5q0 358.5 -217 358.5t-217 -358.5t217 -358.5t217 358.5zM600 1118q244 0 381 -152.5t137 -417.5t-139 -423t-382 -158t-381 152.5t-138 419t139 423t383 156.5zM868 1651l107 -123l-287 -268h-180l-287 268l109 123l268 -183z" />
    <glyph glyph-name="uni01D3" unicode="&#x1d3;" horiz-adv-x="1339" 
d="M1208 1417v-950q0 -223 -140 -361.5t-401 -138.5t-399.5 136.5t-138.5 363.5v950h301v-936q0 -285 238 -284q240 0 239 284v936h301zM940 1915l107 -123l-287 -254h-180l-287 254l108 123l269 -170z" />
    <glyph glyph-name="uni01D4" unicode="&#x1d4;" horiz-adv-x="1175" 
d="M1032 1085v-1085h-252l-14 145q-115 -178 -330 -178q-147 0 -225 89t-78 249v780h291v-743q0 -86 28.5 -122t90.5 -36q117 0 198 142v759h291zM854 1651l107 -123l-287 -268h-180l-287 268l108 123l269 -183z" />
    <glyph glyph-name="uni01D5" unicode="&#x1d5;" horiz-adv-x="1339" 
d="M1208 1417v-950q0 -223 -140 -361.5t-401 -138.5t-399.5 136.5t-138.5 363.5v950h301v-936q0 -285 238 -284q240 0 239 284v936h301zM902.5 1829q64.5 0 109.5 -44t45 -107.5t-45 -107.5t-109.5 -44t-109.5 44t-45 107.5t45 107.5t109.5 44zM439.5 1829q64.5 0 108.5 -44
t44 -107.5t-44 -107.5t-108.5 -44t-109.5 44t-45 107.5t45 107.5t109.5 44zM981 1907h-610v204h610v-204z" />
    <glyph glyph-name="uni01D6" unicode="&#x1d6;" horiz-adv-x="1175" 
d="M1032 1085v-1085h-252l-14 145q-115 -178 -330 -178q-147 0 -225 89t-78 249v780h291v-743q0 -86 28.5 -122t90.5 -36q117 0 198 142v759h291zM814.5 1546q64.5 0 109.5 -44t45 -107.5t-45 -107.5t-109.5 -44t-110 44t-45.5 107.5t45.5 107.5t110 44zM351.5 1546
q64.5 0 108.5 -44t44 -107.5t-44 -107.5t-108.5 -44t-109.5 44t-45 107.5t45 107.5t109.5 44zM893 1636h-610v205h610v-205z" />
    <glyph glyph-name="uni01D7" unicode="&#x1d7;" horiz-adv-x="1339" 
d="M1208 1417v-950q0 -223 -140 -361.5t-401 -138.5t-399.5 136.5t-138.5 363.5v950h301v-936q0 -285 238 -284q240 0 239 284v936h301zM907.5 1833q64.5 0 110 -44t45.5 -107.5t-45 -107.5t-110 -44t-108.5 44t-43.5 107.5t43.5 107.5t108 44zM425.5 1833q63.5 0 109 -44
t45.5 -107.5t-45.5 -107.5t-109 -44t-108.5 44t-45 107.5t45 107.5t108.5 44zM819 2204l162 -156l-311 -281l-113 101z" />
    <glyph glyph-name="uni01D8" unicode="&#x1d8;" horiz-adv-x="1175" 
d="M1032 1085v-1085h-252l-14 145q-115 -178 -330 -178q-147 0 -225 89t-78 249v780h291v-743q0 -86 28.5 -122t90.5 -36q117 0 198 142v759h291zM823.5 1544q64.5 0 110 -44t45.5 -106t-44 -106.5t-109.5 -44.5t-109.5 43t-44 106.5t43.5 107.5t108 44zM342.5 1544
q63.5 0 108.5 -44t45 -106t-44 -106.5t-110 -44.5t-110 44t-44 106.5t45.5 106.5t109 44zM735 1917l162 -156l-311 -280l-113 100z" />
    <glyph glyph-name="uni01D9" unicode="&#x1d9;" horiz-adv-x="1339" 
d="M1208 1417v-950q0 -223 -140 -361.5t-401 -138.5t-399.5 136.5t-138.5 363.5v950h301v-936q0 -285 238 -284q240 0 239 284v936h301zM910.5 1833q64.5 0 108.5 -44t44 -107.5t-44 -107.5t-108.5 -44t-109.5 44t-45 107.5t45 107.5t109.5 44zM427.5 1833q64.5 0 108.5 -44
t44 -107.5t-44 -107.5t-108.5 -44t-110 44t-45.5 107.5t45.5 107.5t110 44zM934 2212l106 -123l-286 -254h-181l-286 254l108 123l269 -170z" />
    <glyph glyph-name="uni01DA" unicode="&#x1da;" horiz-adv-x="1175" 
d="M1032 1085v-1085h-252l-14 145q-115 -178 -330 -178q-147 0 -225 89t-78 249v780h291v-743q0 -86 28.5 -122t90.5 -36q117 0 198 142v759h291zM824.5 1544q64.5 0 108.5 -44t44 -107.5t-44 -106.5t-108.5 -43t-109.5 44t-45 106.5t45 106.5t109.5 44zM342.5 1544
q63.5 0 108.5 -44t45 -106t-44 -106.5t-110 -44.5t-111 44t-45 106.5t46.5 106.5t110 44zM848 1923l106 -123l-286 -254h-181l-286 254l108 123l269 -170z" />
    <glyph glyph-name="uni01DB" unicode="&#x1db;" horiz-adv-x="1339" 
d="M1208 1417v-950q0 -223 -140 -361.5t-401 -138.5t-399.5 136.5t-138.5 363.5v950h301v-936q0 -285 238 -284q240 0 239 284v936h301zM910.5 1833q64.5 0 108.5 -44t44 -107.5t-44 -107.5t-108.5 -44t-109.5 44t-45 107.5t45 107.5t109.5 44zM427.5 1833q64.5 0 108.5 -44
t44 -107.5t-44 -107.5t-108.5 -44t-110 44t-45.5 107.5t45.5 107.5t110 44zM520 2204l264 -336l-112 -101l-312 281z" />
    <glyph glyph-name="uni01DC" unicode="&#x1dc;" horiz-adv-x="1175" 
d="M1032 1085v-1085h-252l-14 145q-115 -178 -330 -178q-147 0 -225 89t-78 249v780h291v-743q0 -86 28.5 -122t90.5 -36q117 0 198 142v759h291zM826.5 1544q64.5 0 108.5 -44t44 -107.5t-44 -106.5t-109.5 -43t-109.5 44t-44 106.5t45 106.5t109.5 44zM343.5 1544
q64.5 0 108.5 -44t44 -107.5t-44 -106.5t-110 -43t-110 44t-44 106.5t45.5 106.5t110 44zM436 1917l264 -336l-112 -100l-312 280z" />
    <glyph glyph-name="uni01DD" unicode="&#x1dd;" horiz-adv-x="1142" 
d="M563.5 176q100.5 0 154.5 63.5t62 209.5h-430v-15q2 -121 57.5 -189.5t156 -68.5zM566 1118q245 0 372 -153.5t127 -415.5t-133 -422t-363.5 -160t-362.5 146.5t-132 406.5q0 61 6 111h700q-20 276 -233 276q-147 0 -277 -92l-123 166q174 137 419 137z" />
    <glyph glyph-name="uni01DE" unicode="&#x1de;" horiz-adv-x="1200" 
d="M430 541h332l-166 653zM899 0l-80 317h-444l-80 -317h-313l436 1417h366l435 -1417h-320zM680 1677.5q0 63.5 45 107.5t110 44t109.5 -44t44.5 -107.5t-45 -107.5t-109 -44t-109.5 44t-45.5 107.5zM372.5 1526q-64.5 0 -110 44t-45.5 107.5t45 107.5t110 44t108.5 -44
t43.5 -107.5t-43.5 -107.5t-108 -44zM913 2111v-204h-610v204h610z" />
    <glyph glyph-name="uni01DF" unicode="&#x1df;" horiz-adv-x="1120" 
d="M496 176q123 0 192 121v207h-96q-236 0 -236 -176q0 -72 36 -112t104 -40zM973 301q0 -63 18.5 -93t61.5 -44l-62 -193q-96 10 -156.5 46t-93.5 112q-109 -162 -325 -162q-162 0 -257.5 93.5t-95.5 257t129.5 258t370.5 94.5h125v53q0 100 -45 139t-154.5 39t-281.5 -57
l-66 194q203 80 402 80q430 0 430 -379v-438zM625 1394.5q0 63.5 45 107.5t109.5 44t109.5 -44t45 -107.5t-45 -107.5t-109.5 -44t-109.5 44t-45 107.5zM316.5 1243q-64.5 0 -109.5 44t-45 107.5t45 107.5t109.5 44t108.5 -44t44 -107.5t-44 -107.5t-108.5 -44zM858 1841
v-205h-610v205h610z" />
    <glyph glyph-name="uni01E0" unicode="&#x1e0;" horiz-adv-x="1200" 
d="M430 541h332l-166 653zM899 0l-80 317h-444l-80 -317h-313l436 1417h366l435 -1417h-320zM424 1679.5q0 73.5 49 121.5t127 48t128 -48t50 -121.5t-50 -122t-128 -48.5t-127 48.5t-49 122zM909 2114v-205h-610v205h610z" />
    <glyph glyph-name="uni01E1" unicode="&#x1e1;" horiz-adv-x="1120" 
d="M496 176q123 0 192 121v207h-96q-236 0 -236 -176q0 -72 36 -112t104 -40zM973 301q0 -63 18.5 -93t61.5 -44l-62 -193q-96 10 -156.5 46t-93.5 112q-109 -162 -325 -162q-162 0 -257.5 93.5t-95.5 257.5t129.5 258t370.5 94h125v53q0 100 -45 139t-155 39t-281 -57
l-66 194q203 80 402 80q430 0 430 -379v-438zM377 1390.5q0 73.5 49 122t127 48.5t128 -48.5t50 -122t-50 -121.5t-128 -48t-127 48t-49 121.5zM862 1833v-205h-610v205h610z" />
    <glyph glyph-name="uni01E2" unicode="&#x1e2;" horiz-adv-x="1716" 
d="M465 541h350l-123 653zM1638 221v-221h-720l-62 317h-467l-110 -317h-320l557 1417h1045l-33 -219h-572l80 -373h506v-217h-459l84 -387h471zM1290 1810v-204h-610v204h610z" />
    <glyph glyph-name="uni01E3" unicode="&#x1e3;" horiz-adv-x="1753" 
d="M510 176q123 0 217 148q-23 78 -25 168v6h-96q-236 0 -235 -174q0 -70 35.5 -109t103.5 -39zM1395 637v12q-4 270 -197 271q-90 0 -139 -67t-62 -216h398zM1681 567q0 -20 -6 -112h-678q14 -147 80 -209q67 -62 187 -62t256 95l120 -164q-182 -147 -411 -148
q-281 0 -422 189q-133 -188 -385 -189q-166 0 -262.5 93.5t-96.5 257.5t132.5 258t377.5 94h125v51q0 100 -44 139t-156 39t-279 -57l-67 196q204 80 416 80t315 -145q125 145 335 145t336.5 -146.5t126.5 -404.5zM1182 1552v-204h-611v204h611z" />
    <glyph glyph-name="uni01E4" unicode="&#x1e4;" horiz-adv-x="1349" 
d="M1346 549v-197h-134v-241q-228 -143 -520 -143t-453 189t-161 545t188.5 552t464.5 196t473 -170l-162 -166q-138 113 -294 113t-255.5 -128t-99.5 -397t77 -389t239 -120q109 0 229 51v108h-227v197h227v90h-221l-27 195h522v-285h134z" />
    <glyph glyph-name="uni01E5" unicode="&#x1e5;" horiz-adv-x="1114" 
d="M541 924q-82 0 -130.5 -52.5t-48.5 -143.5t48.5 -144.5t132.5 -53.5q178 0 178 197t-180 197zM1071 -180q-69 -271 -567 -271q-258 0 -369.5 86t-111.5 261h260q0 -88 51 -122t201 -34q223 0 276 80h-264v139h262q-49 68 -191 68h-159q-162 0 -242 54t-80 140
q0 115 127 195q-193 104 -192 309q0 178 128 285.5t335 107.5q168 -4 276.5 29t230.5 102l72 -223q-106 -41 -313 -41q102 -45 151 -111.5t49 -166.5q0 -162 -120.5 -263.5t-325.5 -101.5q-72 0 -127 14q-41 -27 -41 -65.5t25.5 -55t99.5 -16.5h166q162 0 269.5 -70.5
t129.5 -189.5h105v-139h-111z" />
    <glyph glyph-name="Gcaron" unicode="&#x1e6;" horiz-adv-x="1312" 
d="M730.5 1450q276.5 0 473.5 -170l-162 -166q-137 113 -293.5 113t-256 -128t-99.5 -397t77 -389t239 -120q117 0 211 51v346h-199l-31 219h522v-698q-229 -143 -520.5 -143.5t-452.5 189t-161 545t188 552t464.5 196.5zM993 1915l107 -123l-287 -254h-180l-287 254
l109 123l268 -170z" />
    <glyph glyph-name="gcaron" unicode="&#x1e7;" horiz-adv-x="1114" 
d="M541 924q-82 0 -130.5 -52.5t-48.5 -143.5t48.5 -144.5t132.5 -53.5q178 0 178 197t-180 197zM1001 707q0 -162 -120.5 -263.5t-325.5 -101.5q-72 0 -127 14q-41 -27 -41 -71q0 -72 125 -72h166q182 0 292.5 -87t110.5 -224q0 -166 -142 -259.5t-418 -93.5t-387 86
t-111 261h260q0 -80 51 -114t196.5 -34t201.5 35t56 98q0 119 -170 119h-159q-162 0 -242 60.5t-80 152.5q0 123 127 203q-193 104 -192 309q0 178 128 285.5t335 107.5q168 -4 276 28.5t231 102.5l72 -223q-106 -41 -313 -41q102 -45 151 -111.5t49 -166.5zM827 1651
l107 -123l-287 -268h-180l-287 268l109 123l268 -183z" />
    <glyph glyph-name="uni01E8" unicode="&#x1e8;" horiz-adv-x="1273" 
d="M1255 1417l-473 -639l510 -778h-352l-477 756l471 661h321zM451 1417v-1417h-301v1417h301zM944 1915l107 -123l-287 -254h-180l-287 254l109 123l268 -170z" />
    <glyph glyph-name="uni01E9" unicode="&#x1e9;" horiz-adv-x="1110" 
d="M1094 1085l-346 -477l376 -608h-329l-351 594l349 491h301zM434 0h-291v1518l291 32v-1550zM870 2015l107 -123l-287 -254h-180l-287 254l109 123l268 -170z" />
    <glyph glyph-name="uni01EA" unicode="&#x1ea;" horiz-adv-x="1415" 
d="M709 193q156 0 233.5 121.5t77.5 394t-78 394.5t-233.5 122t-234.5 -123t-79 -393q1 -516 314 -516zM1337 709q0 -276 -108.5 -458.5t-302.5 -248.5v-2q-244 -94 -244 -215q0 -94 109 -94q59 0 124 14l-20 -186q-76 -14 -139 -15q-129 0 -210 62.5t-81 167.5
q0 145 137 241q-248 35 -386 225.5t-138 522.5t169 529.5t463 197.5t460.5 -193.5t166.5 -547.5z" />
    <glyph glyph-name="uni01EB" unicode="&#x1eb;" horiz-adv-x="1196" 
d="M381 542.5q0 -358.5 217 -358.5t217 358.5t-217 358.5t-217 -358.5zM657 -309q59 0 125 14l-20 -186q-76 -14 -139 -15q-129 0 -210 62.5t-81 167.5q0 147 143 246q-188 35 -292.5 182t-104.5 395t139 404.5t383 156.5t381 -152.5t137 -422.5q0 -205 -87 -348.5
t-247 -196.5q-236 -94 -235 -213q0 -94 108 -94z" />
    <glyph glyph-name="uni01EC" unicode="&#x1ec;" horiz-adv-x="1415" 
d="M709 193q156 0 233.5 121.5t77.5 394t-78 394.5t-233.5 122t-234.5 -123t-79 -393q1 -516 314 -516zM1337 709q0 -276 -108.5 -458.5t-302.5 -248.5v-2q-244 -94 -244 -215q0 -94 109 -94q59 0 124 14l-20 -186q-76 -14 -139 -15q-129 0 -210 62.5t-81 167.5
q0 145 137 241q-248 35 -386 225.5t-138 522.5t169 529.5t463 197.5t460.5 -193.5t166.5 -547.5zM1012 1810v-204h-611v204h611z" />
    <glyph glyph-name="uni01ED" unicode="&#x1ed;" horiz-adv-x="1196" 
d="M381 542.5q0 -358.5 217 -358.5t217 358.5t-217 358.5t-217 -358.5zM657 -309q59 0 125 14l-20 -186q-76 -14 -139 -15q-129 0 -210 62.5t-81 167.5q0 147 143 246q-188 35 -292.5 182t-104.5 395t139 404.5t383 156.5t381 -152.5t137 -422.5q0 -205 -87 -348.5
t-247 -196.5q-236 -94 -235 -213q0 -94 108 -94zM903 1552v-204h-610v204h610z" />
    <glyph glyph-name="uni01EE" unicode="&#x1ee;" horiz-adv-x="1103" 
d="M1040 412.5q0 -191.5 -147.5 -318.5t-403.5 -127q-307 0 -479 205l158 154q133 -131 307 -131q121 0 187.5 61t66.5 172q0 213 -272 213h-197v176l377 377h-549v223h887v-217l-381 -377q217 -6 331.5 -112.5t114.5 -298zM623 1538h-181l-286 254l108 123l268 -170
l271 170l106 -123z" />
    <glyph glyph-name="uni01EF" unicode="&#x1ef;" horiz-adv-x="1030" 
d="M987 13q0 -202 -145.5 -333t-390.5 -131q-295 0 -469 205l155 150q137 -129 299 -129q117 0 183.5 65.5t66.5 188.5t-66.5 174t-205.5 51h-185v176l367 434h-539v221h869v-202l-391 -451q452 -21 452 -419zM582 1260h-181l-286 268l108 123l269 -183l270 183l106 -123z
" />
    <glyph glyph-name="uni01F0" unicode="&#x1f0;" horiz-adv-x="575" 
d="M432 1085v-976q0 -247 -116 -373q-58 -64 -126.5 -105t-171.5 -80l-96 211q119 55 169 121t50 207v995h291zM559 1651l107 -123l-287 -268h-180l-287 268l108 123l269 -183z" />
    <glyph glyph-name="uni01F1" unicode="&#x1f1;" horiz-adv-x="2412" 
d="M567 1196h-116v-975h122q174 0 269.5 107.5t95.5 394.5t-103.5 380t-267.5 93zM2341 1417v-231l-635 -942h645l-33 -244h-964v227l647 953h-582v237h922zM520 1417q406 1 582 -201q148 -170 149 -518q0 -188 -58 -334q-57 -146 -161 -222q-194 -142 -477 -142h-405v1417
h370z" />
    <glyph glyph-name="uni01F2" unicode="&#x1f2;" horiz-adv-x="2258" 
d="M2208 1085v-206l-510 -654h520l-29 -225h-825v209l510 653h-467v223h801zM567 1196h-116v-975h122q174 0 269.5 107.5t95.5 394.5t-103.5 380t-267.5 93zM520 1417q406 1 582 -201q148 -170 149 -518q0 -188 -58 -334q-57 -146 -161 -222q-194 -142 -477 -142h-405v1417
h370z" />
    <glyph glyph-name="uni01F3" unicode="&#x1f3;" horiz-adv-x="2156" 
d="M588 184q121 0 205 131v486q-86 102 -187 102q-215 0 -215 -360q0 -195 50.5 -277t146.5 -82zM1260 0v209l509 653h-466v223h800v-206l-510 -654h521l-29 -225h-825zM1083 0h-256l-18 133q-113 -166 -311.5 -166t-304 154.5t-105.5 416t120 421t324 159.5q150 1 261 -110
v542l290 -32v-1518z" />
    <glyph glyph-name="uni01F4" unicode="&#x1f4;" horiz-adv-x="1312" 
d="M730.5 1450q276.5 0 473.5 -170l-162 -166q-137 113 -293.5 113t-256 -128t-99.5 -397t77 -389t239 -120q117 0 211 51v346h-199l-31 219h522v-698q-229 -143 -520.5 -143.5t-452.5 189t-161 545t188 552t464.5 196.5zM887 1935l112 -221l-479 -174l-74 150z" />
    <glyph glyph-name="uni01F5" unicode="&#x1f5;" horiz-adv-x="1114" 
d="M541 924q-82 0 -130.5 -52.5t-48.5 -143.5t48.5 -144.5t132.5 -53.5q178 0 178 197t-180 197zM1001 707q0 -162 -120.5 -263.5t-325.5 -101.5q-72 0 -127 14q-41 -27 -41 -71q0 -72 125 -72h166q182 0 292.5 -87t110.5 -224q0 -166 -142 -259.5t-418 -93.5t-387 86
t-111 261h260q0 -80 51 -114t196.5 -34t201.5 35t56 98q0 119 -170 119h-159q-162 0 -242 60.5t-80 152.5q0 123 127 203q-193 104 -192 309q0 178 128 285.5t335 107.5q168 -4 276 28.5t231 102.5l72 -223q-106 -41 -313 -41q102 -45 151 -111.5t49 -166.5zM709 1694
l114 -224l-471 -188l-82 150z" />
    <glyph glyph-name="uni01F6" unicode="&#x1f6;" horiz-adv-x="1955" 
d="M920 360v261h-469v-621h-301v1417h301v-559h469v559h301v-1048q0 -184 137 -185q86 0 146.5 83t60.5 303.5t-54 514.5h287q59 -305 60 -573q0 -140 -46 -248t-120 -170q-151 -127 -343 -127t-310.5 100.5t-118.5 292.5z" />
    <glyph glyph-name="uni01F7" unicode="&#x1f7;" horiz-adv-x="1218" 
d="M858 1042q0 90 -48 137.5t-132 47.5q-131 0 -227 -90v-506l106 43q301 129 301 368zM762.5 1450q181.5 0 294 -107.5t112.5 -287.5q1 -237 -167 -373q-84 -68 -172.5 -114t-217.5 -95l-161 -59v-414h-301v1417h301v-92q130 125 311.5 125z" />
    <glyph glyph-name="uni01F8" unicode="&#x1f8;" horiz-adv-x="1368" 
d="M1219 1417v-1417h-388l-450 1124q41 -317 41 -573v-551h-272v1417h378l459 -1126q-41 274 -41 504v622h273zM522 1935l441 -245l-74 -150l-479 174z" />
    <glyph glyph-name="uni01F9" unicode="&#x1f9;" horiz-adv-x="1185" 
d="M750 1118q143 0 223 -87t80 -240v-791h-291v741q0 88 -30 124t-89 36q-115 0 -209 -151v-750h-291v1085h252l23 -137q137 170 332 170zM901 1432l-82 -150l-471 188l117 224z" />
    <glyph glyph-name="Aringacute" unicode="&#x1fa;" horiz-adv-x="1200" 
d="M430 541h332l-166 653zM899 0l-80 317h-444l-80 -317h-313l436 1417h366l435 -1417h-320zM600 1841q-43 0 -69.5 -27.5t-26.5 -77.5t25.5 -78t70.5 -28t70.5 28t25.5 78t-26.5 77.5t-69.5 27.5zM600 1479q-121 0 -196.5 74.5t-75.5 182.5t75.5 182.5t196.5 74.5
q120 0 196 -75q76 -74 76 -182t-75.5 -182.5t-196.5 -74.5zM881 2175l-480 -174l-73 149l440 246z" />
    <glyph glyph-name="aringacute" unicode="&#x1fb;" horiz-adv-x="1120" 
d="M496 176q123 0 192 121v207h-96q-236 0 -236 -176q0 -72 36 -112t104 -40zM973 301q0 -63 18.5 -93t61.5 -44l-62 -193q-96 10 -156.5 46t-93.5 112q-109 -162 -325 -162q-162 0 -257.5 93.5t-95.5 257.5t129.5 258t370.5 94h125v53q0 100 -45 139t-155 39t-281 -57
l-66 194q203 80 402 80q430 0 430 -379v-438zM549 1546q-43 0 -69.5 -27.5t-26.5 -77.5t25.5 -78t70.5 -28t70.5 28t25.5 78t-26.5 77.5t-69.5 27.5zM549 1184q-121 0 -197 74t-76 182t76 183t197 75t196.5 -75t75.5 -183t-75.5 -182t-196.5 -74zM829 1880l-479 -174
l-74 149l441 246z" />
    <glyph glyph-name="AEacute" unicode="&#x1fc;" horiz-adv-x="1716" 
d="M465 541h350l-123 653zM1638 221v-221h-720l-62 317h-467l-110 -317h-320l557 1417h1045l-33 -219h-572l80 -373h506v-217h-459l84 -387h471zM1262 1714l-480 -174l-73 150l440 245z" />
    <glyph glyph-name="aeacute" unicode="&#x1fd;" horiz-adv-x="1753" 
d="M510 176q123 0 217 148q-23 78 -25 168v6h-96q-236 0 -235 -174q0 -70 35.5 -109t103.5 -39zM1395 637v12q-4 270 -197 271q-90 0 -139 -67t-62 -216h398zM1681 567q0 -20 -6 -112h-678q14 -147 80 -209q67 -62 187 -62t256 95l120 -164q-182 -147 -411 -148
q-281 0 -422 189q-133 -188 -385 -189q-166 0 -262.5 93.5t-96.5 257.5t132.5 258t377.5 94h125v51q0 100 -44 139t-156 39t-279 -57l-67 196q204 80 416 80t315 -145q125 145 335 145t336.5 -146.5t126.5 -404.5zM1145 1470l-471 -188l-82 150l438 262z" />
    <glyph glyph-name="Oslashacute" unicode="&#x1fe;" horiz-adv-x="1415" 
d="M709 193q156 0 233.5 121.5t77.5 423t-100 409.5l-283 -948q35 -6 72 -6zM709 1225q-156 0 -235 -123t-79 -416.5t99 -411.5l284 945q-32 6 -69 6zM1337 709q0 -348 -168 -545t-460 -197q-63 0 -111 8l-74 -247l-231 61l82 264q-297 178 -297 656q0 346 169 543.5
t462 197.5q61 0 108 -8l76 250l229 -62l-84 -264q299 -176 299 -657zM979 1774l-479 -175l-74 150l440 246z" />
    <glyph glyph-name="oslashacute" unicode="&#x1ff;" horiz-adv-x="1196" 
d="M834 543q0 215 -62 295l-215 -652l41 -2q236 0 236 359zM600 901q-238 0 -238 -358q0 -219 62 -295l217 651q-12 2 -41 2zM1118 543q0 -260 -139 -418t-381 -158q-29 0 -78 4l-76 -245l-217 63l82 254q-231 145 -231 500q0 262 139 418.5t383 156.5q27 0 76 -4l80 246
l217 -64l-86 -254q231 -145 231 -499zM864 1470l-471 -188l-82 150l439 262z" />
    <glyph glyph-name="uni0200" unicode="&#x200;" horiz-adv-x="1200" 
d="M430 541h332l-166 653zM899 0l-80 317h-444l-80 -317h-313l436 1417h366l435 -1417h-320zM883 1692l-158 -66l-223 354l207 99zM553 1688l-156 -72l-241 360l204 103z" />
    <glyph glyph-name="uni0201" unicode="&#x201;" horiz-adv-x="1120" 
d="M496 176q123 0 192 121v207h-96q-236 0 -236 -176q0 -72 36 -112t104 -40zM973 301q0 -63 18.5 -93t61.5 -44l-62 -193q-96 10 -156.5 46t-93.5 112q-109 -162 -325 -162q-162 0 -257.5 93.5t-95.5 257.5t129.5 258t370.5 94h125v53q0 100 -45 139t-155 39t-281 -57
l-66 194q203 80 402 80q430 0 430 -379v-438zM831 1360l-157 -66l-223 355l206 98zM502 1356l-156 -72l-242 361l205 102z" />
    <glyph glyph-name="uni0202" unicode="&#x202;" horiz-adv-x="1200" 
d="M430 541h332l-166 653zM899 0l-80 317h-444l-80 -317h-313l436 1417h366l435 -1417h-320zM599 1729q-136 0 -175 -160l-166 30q12 147 103.5 240.5t239 93.5t239.5 -93t104 -241l-166 -30q-43 160 -179 160z" />
    <glyph glyph-name="uni0203" unicode="&#x203;" horiz-adv-x="1120" 
d="M496 176q123 0 192 121v207h-96q-236 0 -236 -176q0 -72 36 -112t104 -40zM973 301q0 -63 18.5 -93t61.5 -44l-62 -193q-96 10 -156.5 46t-93.5 112q-109 -162 -325 -162q-162 0 -257.5 93.5t-95.5 257t129.5 258t370.5 94.5h125v53q0 100 -45 139t-154.5 39t-281.5 -57
l-66 194q203 80 402 80q430 0 430 -379v-438zM548 1397q-136 0 -175 -160l-166 31q12 147 103 240.5t238.5 93.5t240 -93.5t104.5 -240.5l-166 -31q-43 160 -179 160z" />
    <glyph glyph-name="uni0204" unicode="&#x204;" horiz-adv-x="1081" 
d="M451 1198v-369h446v-217h-446v-391h548v-221h-849v1417h845l-32 -219h-512zM684 2079l174 -387l-158 -66l-223 354zM336 2079l192 -391l-155 -72l-242 360z" />
    <glyph glyph-name="uni0205" unicode="&#x205;" horiz-adv-x="1132" 
d="M772 637v12q0 270 -194 271q-90 0 -139.5 -67t-61.5 -216h395zM1061 567q0 -20 -6 -112h-678q14 -147 79.5 -209t186.5 -62t256 95l121 -164q-182 -147 -425 -147t-380 153t-137 411t131 422t362.5 164t360.5 -145.5t129 -405.5zM858 1360l-158 -66l-223 355l207 98z
M528 1356l-155 -72l-242 361l205 102z" />
    <glyph glyph-name="uni0206" unicode="&#x206;" horiz-adv-x="1081" 
d="M451 1198v-369h446v-217h-446v-391h548v-221h-849v1417h845l-32 -219h-512zM575.5 1933q147.5 0 239.5 -93t105 -241l-166 -30q-43 160 -179.5 160t-175.5 -160l-166 30q12 147 103.5 240.5t239 93.5z" />
    <glyph glyph-name="uni0207" unicode="&#x207;" horiz-adv-x="1132" 
d="M772 637v12q0 270 -194 271q-90 0 -139.5 -67t-61.5 -216h395zM1061 567q0 -20 -6 -112h-678q14 -147 79.5 -209t186.5 -62t256 95l121 -164q-182 -147 -425 -147.5t-380 153t-137 412t131 422t362.5 163.5t360.5 -145.5t129 -405.5zM574 1397q-136 0 -175 -160l-166 31
q12 147 103.5 240.5t239 93.5t239.5 -93.5t105 -240.5l-166 -31q-44 160 -180 160z" />
    <glyph glyph-name="uni0208" unicode="&#x208;" horiz-adv-x="602" 
d="M451 1417v-1417h-301v1417h301zM408 2079l174 -387l-158 -66l-223 354zM59 2079l193 -391l-156 -72l-241 360z" />
    <glyph glyph-name="uni0209" unicode="&#x209;" horiz-adv-x="577" 
d="M434 1085v-1085h-291v1085h291zM395 1747l174 -387l-157 -66l-224 355zM47 1747l193 -391l-156 -72l-242 361z" />
    <glyph glyph-name="uni020A" unicode="&#x20a;" horiz-adv-x="602" 
d="M451 1417v-1417h-301v1417h301zM299 1933q147 0 239.5 -93t104.5 -241l-166 -30q-43 160 -179 160t-175 -160l-166 30q12 147 103.5 240.5t238.5 93.5z" />
    <glyph glyph-name="uni020B" unicode="&#x20b;" horiz-adv-x="577" 
d="M434 1085v-1085h-291v1085h291zM286.5 1602q147.5 0 239.5 -93.5t105 -240.5l-166 -31q-43 160 -179 160t-175 -160l-166 31q12 147 103 240.5t238.5 93.5z" />
    <glyph glyph-name="uni020C" unicode="&#x20c;" horiz-adv-x="1415" 
d="M708.5 1225q-155.5 0 -234.5 -123t-79 -393q0 -516 314 -516q156 0 233.5 121.5t77.5 394t-78 394.5t-233.5 122zM710 1450q294 0 460.5 -193.5t166.5 -544.5t-168 -548t-461.5 -197t-461.5 194.5t-168 544t169 547t463 197.5zM815 2079l174 -387l-158 -66l-223 354z
M467 2079l192 -391l-155 -72l-242 360z" />
    <glyph glyph-name="uni020D" unicode="&#x20d;" horiz-adv-x="1196" 
d="M815 542.5q0 358.5 -217 358.5t-217 -358.5t217 -358.5t217 358.5zM600 1118q244 0 381 -152.5t137 -417.5t-139 -423t-382 -158t-381 152.5t-138 419t139 423t383 156.5zM705 1747l174 -387l-158 -66l-223 355zM356 1747l193 -391l-156 -72l-241 361z" />
    <glyph glyph-name="uni020E" unicode="&#x20e;" horiz-adv-x="1415" 
d="M708.5 1225q-155.5 0 -234.5 -123t-79 -393q0 -516 314 -516q156 0 233.5 121.5t77.5 394t-78 394.5t-233.5 122zM710 1450q294 0 460.5 -193.5t166.5 -544.5t-168 -548t-461.5 -197t-461.5 194.5t-168 544t169 547t463 197.5zM706.5 1933q147.5 0 239.5 -93t105 -241
l-166 -30q-43 160 -179 160t-176 -160l-165 30q12 147 103 240.5t238.5 93.5z" />
    <glyph glyph-name="uni020F" unicode="&#x20f;" horiz-adv-x="1196" 
d="M815 542.5q0 358.5 -217 358.5t-217 -358.5t217 -358.5t217 358.5zM600 1118q244 0 381 -152.5t137 -417.5t-139 -423t-382 -158t-381 152.5t-138 419t139 423t383 156.5zM596 1602q147 0 239.5 -93.5t104.5 -240.5l-166 -31q-43 160 -179 160t-175 -160l-166 31
q12 147 103.5 240.5t238.5 93.5z" />
    <glyph glyph-name="uni0210" unicode="&#x210;" horiz-adv-x="1257" 
d="M451 1202v-434h157q244 0 244 225q0 109 -64.5 159t-201.5 50h-135zM451 555v-555h-301v1417h442q571 0 571 -424q0 -141 -67.5 -231t-210.5 -152l364 -610h-342l-303 555h-153zM907 1692l-157 -66l-224 354l207 99zM578 1688l-156 -72l-242 360l205 103z" />
    <glyph glyph-name="uni0211" unicode="&#x211;" horiz-adv-x="813" 
d="M705 1116q49 0 108 -16l-49 -281q-57 14 -96 15q-96 0 -149.5 -68t-84.5 -207v-559h-291v1085h252l27 -211q39 115 114 178.5t169 63.5zM762 1360l-158 -66l-223 355l207 98zM432 1356l-156 -72l-241 361l205 102z" />
    <glyph glyph-name="uni0212" unicode="&#x212;" horiz-adv-x="1257" 
d="M451 1202v-434h157q244 0 244 225q0 109 -64.5 159t-201.5 50h-135zM451 555v-555h-301v1417h442q571 0 571 -424q0 -141 -67.5 -231t-210.5 -152l364 -610h-342l-303 555h-153zM624 1729q-136 0 -175 -160l-166 30q12 147 103 240.5t238.5 93.5t239.5 -93t105 -241
l-166 -30q-43 160 -179 160z" />
    <glyph glyph-name="uni0213" unicode="&#x213;" horiz-adv-x="813" 
d="M705 1116q49 0 108 -16l-49 -281q-57 14 -96 15q-96 0 -149.5 -68t-84.5 -207v-559h-291v1085h252l27 -211q39 115 113.5 178.5t169.5 63.5zM478 1397q-136 0 -175 -160l-166 31q12 147 103.5 240.5t239 93.5t239.5 -93.5t104 -240.5l-166 -31q-43 160 -179 160z" />
    <glyph glyph-name="uni0214" unicode="&#x214;" horiz-adv-x="1339" 
d="M1208 1417v-950q0 -223 -140 -361.5t-401 -138.5t-399.5 136.5t-138.5 363.5v950h301v-936q0 -285 238 -284q240 0 239 284v936h301zM776 2079l174 -387l-157 -66l-224 354zM428 2079l193 -391l-156 -72l-242 360z" />
    <glyph glyph-name="uni0215" unicode="&#x215;" horiz-adv-x="1175" 
d="M1032 1085v-1085h-252l-14 145q-115 -178 -330 -178q-147 0 -225 89t-78 249v780h291v-743q0 -86 28.5 -122t90.5 -36q117 0 198 142v759h291zM692 1747l174 -387l-157 -66l-224 355zM344 1747l193 -391l-156 -72l-242 361z" />
    <glyph glyph-name="uni0216" unicode="&#x216;" horiz-adv-x="1339" 
d="M1208 1417v-950q0 -223 -140 -361.5t-401 -138.5t-399.5 136.5t-138.5 363.5v950h301v-936q0 -285 238 -284q240 0 239 284v936h301zM667.5 1933q147.5 0 239.5 -93t105 -241l-166 -30q-43 160 -179 160t-175 -160l-166 30q12 147 103 240.5t238.5 93.5z" />
    <glyph glyph-name="uni0217" unicode="&#x217;" horiz-adv-x="1175" 
d="M1032 1085v-1085h-252l-14 145q-115 -178 -330 -178q-147 0 -225 89t-78 249v780h291v-743q0 -86 28.5 -122t90.5 -36q117 0 198 142v759h291zM583.5 1602q147.5 0 239.5 -93.5t105 -240.5l-166 -31q-43 160 -179 160t-175 -160l-166 31q12 147 103 240.5t238.5 93.5z
" />
    <glyph glyph-name="Scommaaccent" unicode="&#x218;" horiz-adv-x="1157" 
d="M573.5 -143q64.5 0 108 -42t43.5 -102.5t-53 -173.5l-94 -190h-148l55 235q-61 51 -61 118.5t42.5 111t107 43.5zM582 1450q287 0 477 -178l-144 -166q-145 119 -313 119q-94 0 -150.5 -40t-56.5 -114t56.5 -116t248 -102.5t296 -159.5t104.5 -290.5t-147.5 -313.5
t-401.5 -122q-322 0 -524 199l155 170q164 -141 361 -141q111 0 177 51t66 140t-55 135t-250.5 106.5t-295 161t-99.5 271.5t139.5 280.5t356.5 109.5z" />
    <glyph glyph-name="scommaaccent" unicode="&#x219;" horiz-adv-x="980" 
d="M494.5 -143q64.5 0 107.5 -42t43 -102.5t-53 -173.5l-94 -190h-148l56 235q-61 51 -61.5 118.5t42.5 111t107.5 43.5zM521 1118q212 0 376 -131l-111 -166q-137 86 -270 86q-72 0 -110.5 -26.5t-38.5 -73.5t44 -76t199.5 -72.5t239.5 -122.5t84 -230t-134 -245t-335 -94
q-270 0 -442 158l143 160q137 -106 291 -107q82 0 130 32t48 90t-45 89t-195 72q-322 90 -321 334q0 141 117.5 232t329.5 91z" />
    <glyph glyph-name="uni021A" unicode="&#x21a;" horiz-adv-x="1093" 
d="M549.5 -143q64.5 0 107.5 -42t43 -102.5t-53 -173.5l-94 -190h-147l55 235q-61 51 -61.5 118.5t42.5 111t107.5 43.5zM698 1182v-1182h-301v1182h-377v235h1070l-33 -235h-359z" />
    <glyph glyph-name="uni021B" unicode="&#x21b;" horiz-adv-x="778" 
d="M481.5 -143q64.5 0 108 -42t43.5 -102.5t-53 -173.5l-95 -190h-147l55 235q-61 51 -61 118.5t42.5 111t107 43.5zM170 340v541h-162v204h162v238l291 35v-273h250l-29 -204h-221v-535q0 -78 26.5 -112.5t82.5 -34.5t122 39l101 -187q-121 -84 -283 -84q-340 4 -340 373z
" />
    <glyph glyph-name="uni021C" unicode="&#x21c;" horiz-adv-x="1056" 
d="M479 1450q219 0 345 -106.5t126 -274.5q0 -270 -307 -336q350 -37 350 -334q0 -217 -206.5 -380.5t-647.5 -243.5l-24 227q324 78 443.5 175t119.5 235q0 205 -268 204h-146l35 222h115q106 0 165.5 52t59.5 148q0 188 -199 189q-147 0 -297 -119l-141 158
q201 184 477 184z" />
    <glyph glyph-name="uni021D" unicode="&#x21d;" horiz-adv-x="983" 
d="M434 1118q178 0 298 -82t120 -227q0 -193 -234 -250q137 -8 212 -69.5t75 -170.5q0 -180 -202.5 -320t-577.5 -216l-31 194q268 82 388 161t120 186q0 119 -156 118h-196l16 195h103q188 0 188 145q0 131 -162 131q-129 0 -250 -77l-133 157q174 125 422 125z" />
    <glyph glyph-name="uni021E" unicode="&#x21e;" horiz-adv-x="1370" 
d="M920 0v621h-469v-621h-301v1417h301v-559h469v559h301v-1417h-301zM956 1915l107 -123l-287 -254h-180l-287 254l109 123l268 -170z" />
    <glyph glyph-name="uni021F" unicode="&#x21f;" horiz-adv-x="1185" 
d="M762 741q0 160 -117 160t-211 -149v-752h-291v1518l291 30v-585q134 155 316 155q141 0 222 -87t81 -240v-791h-291v741zM682 1638h-180l-287 254l109 123l268 -170l270 170l107 -123z" />
    <glyph glyph-name="uni0220" unicode="&#x220;" horiz-adv-x="1347" 
d="M840 1450q182 0 276 -105.5t94 -277.5v-1493h-301v1442q0 207 -168 207q-86 0 -150.5 -37t-139.5 -117v-1069h-301v1417h264l22 -143q90 90 184.5 133t219.5 43z" />
    <glyph glyph-name="uni0221" unicode="&#x221;" horiz-adv-x="1589" 
d="M1266 182q135 0 135 84q0 59 -60 60q-39 0 -65.5 -30t-63.5 -112q17 -2 54 -2zM588 184q123 0 209 135q-4 33 -4 56v426q-86 102 -187 102q-215 0 -215 -360q0 -195 50.5 -277t146.5 -82zM1373 492q101 0 170 -61.5t69 -166.5q0 -143 -106.5 -220t-276.5 -77
q-47 0 -109 10l-63 -145l-152 59l66 138q-90 53 -133 141q-123 -203 -331 -203t-313.5 154.5t-105.5 416t120 421t324 159.5q150 0 261 -110v542l290 -32v-1153q0 -55 9 -86q51 111 115.5 162t165.5 51z" />
    <glyph glyph-name="uni0222" unicode="&#x222;" horiz-adv-x="1333" 
d="M668 193q270 0 270 251q0 115 -68.5 179.5t-201.5 64.5t-203 -64.5t-70 -182.5t70 -183t203 -65zM1255 442q0 -197 -160.5 -336t-427.5 -139t-428 136.5t-161 336.5q0 129 69.5 224.5t198.5 146.5q-182 100 -182 315v291h303v-299q0 -104 46 -158.5t155 -54.5
q203 0 202 213v299h301v-291q0 -209 -186 -313q270 -100 270 -371z" />
    <glyph glyph-name="uni0223" unicode="&#x223;" horiz-adv-x="1183" 
d="M592 184q111 0 162 66.5t51 208.5q0 274 -213 274t-213 -274.5t213 -274.5zM1106 457q0 -209 -137.5 -349.5t-377 -140.5t-376.5 137.5t-137 350.5q0 291 246 391q-168 90 -168 297v375h286v-412q0 -176 151 -176t150 176v412h287v-375q0 -197 -172 -293
q248 -96 248 -393z" />
    <glyph glyph-name="uni0224" unicode="&#x224;" horiz-adv-x="1093" 
d="M1030 1417v-231l-635 -942h629v-322q0 -182 -103.5 -277.5t-274.5 -95.5t-284 86l101 183q74 -45 151 -45q121 0 121 131v96h-692v227l647 953h-581v237h921z" />
    <glyph glyph-name="uni0225" unicode="&#x225;" horiz-adv-x="919" 
d="M877 1085v-206l-510 -654h507v-303q0 -182 -102 -277.5t-272 -95.5t-283 86l100 175q80 -43 154 -43q125 0 125 131v102h-563v209l510 653h-467v223h801z" />
    <glyph glyph-name="uni0226" unicode="&#x226;" horiz-adv-x="1200" 
d="M430 541h332l-166 653zM899 0l-80 317h-444l-80 -317h-313l436 1417h366l435 -1417h-320zM600 1563q-78 0 -127 48t-49 121.5t49 122t127 48.5t128 -48.5t50 -122t-50 -121.5t-128 -48z" />
    <glyph glyph-name="uni0227" unicode="&#x227;" horiz-adv-x="1120" 
d="M496 176q123 0 192 121v207h-96q-236 0 -236 -176q0 -72 36 -112t104 -40zM973 301q0 -63 18.5 -93t61.5 -44l-62 -193q-96 10 -156.5 46t-93.5 112q-109 -162 -325 -162q-162 0 -257.5 93.5t-95.5 257.5t129.5 258t370.5 94h125v53q0 100 -45 139t-155 39t-281 -57
l-66 194q203 80 402 80q430 0 430 -379v-438zM549 1305q-78 0 -127 48t-49 121.5t49 122t127 48.5t128 -48.5t50 -122t-50 -121.5t-128 -48z" />
    <glyph glyph-name="uni0228" unicode="&#x228;" horiz-adv-x="1081" 
d="M655 -102q207 -20 207 -207q0 -92 -81 -154.5t-214 -62.5t-217 59l68 139q63 -35 131 -34q98 0 98 65q0 74 -188 74l28 223h-337v1417h845l-32 -219h-512v-369h446v-217h-446v-391h548v-221h-344v-102z" />
    <glyph glyph-name="uni0229" unicode="&#x229;" horiz-adv-x="1132" 
d="M772 637v12q0 270 -194 271q-90 0 -139.5 -67t-61.5 -216h395zM682 -102q207 -20 207 -207q0 -92 -81 -154.5t-214 -62.5t-217 59l67 139q63 -35 131 -34q98 0 99 65q0 74 -189 74l25 196q-211 31 -321.5 179.5t-110.5 393.5t131 408.5t362.5 163.5t360.5 -145.5
t129 -405.5q0 -20 -6 -112h-678q14 -147 79.5 -209t186.5 -62t256 95l121 -164q-156 -121 -338 -144v-73z" />
    <glyph glyph-name="uni022A" unicode="&#x22a;" horiz-adv-x="1415" 
d="M708.5 1225q-155.5 0 -234.5 -123t-79 -393q0 -516 314 -516q156 0 233.5 121.5t77.5 394t-78 394.5t-233.5 122zM710 1450q294 0 460.5 -193.5t166.5 -544.5t-168 -548t-461.5 -197t-461.5 194.5t-168 544t169 547t463 197.5zM941.5 1829q64.5 0 109.5 -44t45 -107.5
t-45 -107.5t-109.5 -44t-110 44t-45.5 107.5t45.5 107.5t110 44zM478.5 1829q64.5 0 108.5 -44t44 -107.5t-44 -107.5t-108.5 -44t-109.5 44t-45 107.5t45 107.5t109.5 44zM1020 1907h-610v204h610v-204z" />
    <glyph glyph-name="uni022B" unicode="&#x22b;" horiz-adv-x="1196" 
d="M815 542.5q0 358.5 -217 358.5t-217 -358.5t217 -358.5t217 358.5zM600 1118q244 0 381 -152.5t137 -417.5t-139 -423t-382 -158t-381 152.5t-138 419t139 423t383 156.5zM828.5 1546q64.5 0 109.5 -44t45 -107.5t-45 -107.5t-109.5 -44t-109.5 44t-45 107.5t45 107.5
t109.5 44zM366.5 1546q64.5 0 108 -44t43.5 -107.5t-44 -107.5t-108 -44t-109.5 44t-45.5 107.5t45.5 107.5t110 44zM907 1636h-610v205h610v-205z" />
    <glyph glyph-name="uni022C" unicode="&#x22c;" horiz-adv-x="1415" 
d="M708.5 1225q-155.5 0 -234.5 -123t-79 -393q0 -516 314 -516q156 0 233.5 121.5t77.5 394t-78 394.5t-233.5 122zM710 1450q294 0 460.5 -193.5t166.5 -544.5t-168 -548t-461.5 -197t-461.5 194.5t-168 544t169 547t463 197.5zM825 1548q-63 0 -135 47t-100 47
q-57 0 -109 -92l-149 74q41 100 106.5 163.5t140.5 63.5t145.5 -47t98.5 -47q55 0 109 90l149 -73q-90 -226 -256 -226zM1012 1915h-611v205h611v-205z" />
    <glyph glyph-name="uni022D" unicode="&#x22d;" horiz-adv-x="1196" 
d="M815 542.5q0 358.5 -217 358.5t-217 -358.5t217 -358.5t217 358.5zM600 1118q244 0 381 -152.5t137 -417.5t-139 -423t-382 -158t-381 152.5t-138 419t139 423t383 156.5zM717 1217q-63 0 -135 47t-101 47q-57 0 -108 -92l-150 73q41 100 106.5 164t140.5 64t145.5 -47.5
t99.5 -47.5q55 0 108 91l150 -74q-90 -225 -256 -225zM903 1626h-610v205h610v-205z" />
    <glyph glyph-name="uni022E" unicode="&#x22e;" horiz-adv-x="1415" 
d="M708.5 1225q-155.5 0 -234.5 -123t-79 -393q0 -516 314 -516q156 0 233.5 121.5t77.5 394t-78 394.5t-233.5 122zM710 1450q294 0 460.5 -193.5t166.5 -544.5t-168 -548t-461.5 -197t-461.5 194.5t-168 544t169 547t463 197.5zM706.5 1903q77.5 0 128 -48.5t50.5 -122
t-50.5 -121.5t-128 -48t-127 48t-49.5 121.5t49.5 122t127 48.5z" />
    <glyph glyph-name="uni022F" unicode="&#x22f;" horiz-adv-x="1196" 
d="M815 542.5q0 358.5 -217 358.5t-217 -358.5t217 -358.5t217 358.5zM600 1118q244 0 381 -152.5t137 -417.5t-139 -423t-382 -158t-381 152.5t-138 419t139 423t383 156.5zM596 1645q78 0 128 -48.5t50 -122t-50 -121.5t-128 -48t-127 48t-49 121.5t49 122t127 48.5z" />
    <glyph glyph-name="uni0230" unicode="&#x230;" horiz-adv-x="1415" 
d="M708.5 1225q-155.5 0 -234.5 -123t-79 -393q0 -516 314 -516q156 0 233.5 121.5t77.5 394t-78 394.5t-233.5 122zM710 1450q294 0 460.5 -193.5t166.5 -544.5t-168 -548t-461.5 -197t-461.5 194.5t-168 544t169 547t463 197.5zM706.5 1849q77.5 0 128 -48t50.5 -121.5
t-50.5 -122t-128 -48.5t-127 48.5t-49.5 122t49.5 121.5t127 48zM1016 1909h-610v205h610v-205z" />
    <glyph glyph-name="uni0231" unicode="&#x231;" horiz-adv-x="1196" 
d="M815 542.5q0 358.5 -217 358.5t-217 -358.5t217 -358.5t217 358.5zM600 1118q244 0 381 -152.5t137 -417.5t-139 -423t-382 -158t-381 152.5t-138 419t139 423t383 156.5zM600 1561q78 0 128 -48.5t50 -122t-50 -121.5t-128 -48t-127 48t-49 121.5t49 122t127 48.5z
M909 1628h-610v205h610v-205z" />
    <glyph glyph-name="uni0232" unicode="&#x232;" horiz-adv-x="1193" 
d="M748 0h-302v532l-454 885h330l282 -643l281 643h317l-454 -882v-535zM901 1606h-610v204h610v-204z" />
    <glyph glyph-name="uni0233" unicode="&#x233;" horiz-adv-x="1048" 
d="M1053 1085l-351 -1087q-66 -207 -206 -319.5t-379 -129.5l-31 209q156 20 228.5 73.5t119.5 168.5h-100l-338 1085h309l217 -897l230 897h301zM829 1348h-610v204h610v-204z" />
    <glyph glyph-name="uni0234" unicode="&#x234;" horiz-adv-x="929" 
d="M604 182q135 0 135 84q0 59 -59 60q-37 0 -64.5 -30t-64.5 -112q16 -2 53 -2zM713 492q102 0 169.5 -61.5t67.5 -166.5q0 -143 -105.5 -220t-275.5 -77q-47 0 -108 10l-66 -145l-149 59l65 138q-178 102 -178 346v1143l291 32v-1185q0 -55 8 -86q49 111 114 162t167 51z
" />
    <glyph glyph-name="uni0235" unicode="&#x235;" horiz-adv-x="1558" 
d="M1235 182q135 0 135 84q0 59 -59 60q-39 0 -65.5 -30t-63.5 -112q14 -2 53 -2zM1342 492q101 0 170 -61.5t69 -166.5q0 -143 -106.5 -220t-276.5 -77q-47 0 -108 10l-64 -145l-152 59l66 138q-178 102 -178 346v366q0 88 -30 124t-89 36q-115 0 -209 -151v-750h-291v1085
h252l23 -137q137 170 332 170q143 0 223 -87t80 -240v-426q0 -55 8 -86q51 111 115.5 162t165.5 51z" />
    <glyph glyph-name="uni0236" unicode="&#x236;" horiz-adv-x="964" 
d="M641 182q135 0 135 84q0 59 -59 60q-39 0 -65.5 -30t-63.5 -112q16 -2 53 -2zM748 492q101 0 170 -61.5t69 -166.5q0 -143 -105.5 -220t-277.5 -77q-59 0 -108 8l-64 -143l-149 59l63 136q-176 98 -176 348v506h-162v204h162v238l291 35v-273h250l-29 -204h-221v-516
q0 -53 6 -86q51 111 115.5 162t165.5 51z" />
    <glyph glyph-name="uni0237" unicode="&#x237;" horiz-adv-x="575" 
d="M432 1085v-976q0 -247 -116 -373q-58 -64 -126.5 -105t-171.5 -80l-96 211q119 55 169 121t50 207v995h291z" />
    <glyph glyph-name="uni0238" unicode="&#x238;" horiz-adv-x="1789" 
d="M1219 182q78 0 129 88t51 273q0 360 -170 360q-104 0 -187 -127v-457q79 -137 177 -137zM567 184q100 0 185 131v471q-80 117 -170 117t-140.5 -89t-50.5 -271q0 -359 176 -359zM1327 1118q174 0 274.5 -152.5t100.5 -414.5t-114 -423t-288 -161t-272 160l-18 -127h-224
l-18 131q-111 -164 -293 -164t-284.5 156t-102.5 415t113.5 419.5t298.5 160.5q152 0 252 -137v537l290 32v-581q111 149 285 149z" />
    <glyph glyph-name="uni0239" unicode="&#x239;" horiz-adv-x="1779" 
d="M1193 184q93 0 144.5 88t51.5 271q0 360 -166 360q-102 0 -191 -131v-463q68 -125 161 -125zM555 184q102 0 186 131v457q-76 131 -168 131t-142 -89t-50 -271q0 -359 174 -359zM1314 1118q183 0 280.5 -151.5t97.5 -412.5t-113 -424t-297 -163q-152 0 -250 146v-531
l-291 -33v564q-106 -145 -281 -145.5t-278.5 155.5t-103.5 415t116.5 419.5t305.5 160.5q158 0 264 -151l14 118h219l17 -127q117 160 300 160z" />
    <glyph glyph-name="uni023A" unicode="&#x23a;" horiz-adv-x="1200" 
d="M647 526h135l-67 256zM412 526h114l127 480l-57 217zM922 0l-84 317h-246l-125 -467l-113 27l117 440h-115l-86 -317h-288l436 1417h346l33 127l112 -26l-71 -271l381 -1247h-297z" />
    <glyph glyph-name="uni023B" unicode="&#x23b;" horiz-adv-x="1169" 
d="M395 694.5q0 -280.5 125 -409.5l248 936q-14 2 -45 2q-152 0 -240 -124t-88 -404.5zM713 -33q-76 0 -154 17l-35 -134l-112 27l39 141q-176 74 -274.5 251t-98.5 442q0 348 176 543.5t451 195.5q72 0 122 -8l27 102l113 -26l-29 -105q98 -37 195 -117l-152 -176
q-47 41 -102 68l-256 -967q43 -16 104 -16q129 0 283 119l139 -179q-174 -178 -436 -178z" />
    <glyph glyph-name="uni023C" unicode="&#x23c;" horiz-adv-x="978" 
d="M385 537q0 -193 72 -275l170 631h-11q-231 0 -231 -356zM614 201q96 0 215 75l127 -182q-156 -127 -356 -127q-37 0 -106 8l-33 -125l-109 27l35 129q-147 57 -228 194.5t-81 334.5q0 260 141 421.5t377 161.5q47 0 90 -6l31 115l106 -27l-30 -115q86 -29 163 -98
l-127 -172q-43 35 -94 55l-178 -665q37 -4 57 -4z" />
    <glyph glyph-name="uni023D" unicode="&#x23d;" horiz-adv-x="1073" 
d="M481 242h561l-32 -242h-830v629h-164v229h164v559h301v-559h170v-229h-170v-387z" />
    <glyph glyph-name="uni023E" unicode="&#x23e;" horiz-adv-x="1093" 
d="M682 1192v-160l72 160h-72zM682 0h-270v160l-140 -310l-98 46l238 530v766h-392v225h834l59 133l101 -45l-41 -88h117l-33 -225h-185l-190 -426v-766z" />
    <glyph glyph-name="uni023F" unicode="&#x23f;" horiz-adv-x="985" 
d="M757 -231q54 0 109 22l66 -178q-84 -61 -192.5 -61.5t-177 34.5t-121 97.5t-99.5 130.5q-131 188 -276 286q-14 8 -39 25l123 160q160 -106 322.5 -106.5t162.5 116.5q0 63 -44 94t-196 72q-322 90 -321 334q0 141 117.5 232t329.5 91t376 -131l-111 -166
q-137 86 -270 86q-72 0 -110.5 -26.5t-38.5 -73.5t44 -76t199.5 -72.5t239.5 -122.5t84 -230t-132 -245t-319 -94h-4q51 -35 100.5 -90t86.5 -81.5t91 -26.5z" />
    <glyph glyph-name="uni0240" unicode="&#x240;" horiz-adv-x="880" 
d="M784.5 -449q-114.5 0 -188.5 43.5t-123 105.5t-99 125.5t-136 114t-205 60.5v209l510 653h-467v223h801v-206l-572 -717q84 -29 150.5 -80t106.5 -103.5t75 -100.5q79 -109 168 -109q53 0 113 22l65 -178q-84 -62 -198.5 -62z" />
    <glyph glyph-name="uni0241" unicode="&#x241;" horiz-adv-x="1021" 
d="M303 0v670l121 35q127 35 185.5 100t58.5 181t-57.5 178.5t-159.5 62.5q-147 0 -291 -119l-150 158q203 184 475 184q227 0 361.5 -122t134.5 -308t-85 -281.5t-243 -152.5l-49 -19v-567h-301z" />
    <glyph glyph-name="uni0242" unicode="&#x242;" horiz-adv-x="937" 
d="M231 0v412l117 32q223 61 223 246q0 94 -51 150q-50 56 -154 56.5t-227 -97.5l-143 151q172 168 396 168t353 -119.5t129 -304.5q0 -279 -294 -368l-58 -17v-309h-291z" />
    <glyph glyph-name="uni0243" unicode="&#x243;" horiz-adv-x="1286" 
d="M621 223q143 0 216.5 42t73.5 159q0 213 -262 213h-170v-123h258v-158h-258v-133h142zM594 1200h-115v-358h148q229 0 229 186q0 94 -63.5 133t-198.5 39zM1225 412q0 -223 -160 -317.5t-447 -94.5h-440v356h-147v158h147v903h385q600 0 600 -362q0 -125 -74.5 -201.5
t-185.5 -103.5q322 -61 322 -338z" />
    <glyph glyph-name="uni0244" unicode="&#x244;" horiz-adv-x="1398" 
d="M936 481v547h-475v-547q0 -285 237 -284q123 0 180.5 69.5t57.5 214.5zM1362 1204v-176h-123v-561q0 -223 -140.5 -361.5t-401.5 -138.5t-399 136.5t-138 363.5v561h-123v176h123v213h301v-213h475v213h303v-213h123z" />
    <glyph glyph-name="uni0245" unicode="&#x245;" horiz-adv-x="1200" 
d="M784 1417l435 -1417h-320l-301 1194l-303 -1194h-313l436 1417h366z" />
    <glyph glyph-name="uni0246" unicode="&#x246;" horiz-adv-x="1081" 
d="M451 221h6l102 391h-108v-391zM451 1198v-369h165l99 369h-264zM999 221v-221h-483l-39 -150l-112 27l32 123h-247v1417h622l35 127l111 -26l-27 -101h104l-32 -219h-129l-99 -369h162v-217h-219l-103 -391h424z" />
    <glyph glyph-name="uni0247" unicode="&#x247;" horiz-adv-x="1132" 
d="M428 258l53 201h-123q13 -138 70 -201zM797 645q0 182 -90 244l-68 -258h158v14zM578 924q-102 0 -155.5 -69t-66.5 -224h172l78 291q-8 2 -28 2zM78 537q0 254 131 417.5t362 163.5q47 0 86 -6l31 115l103 -27l-31 -113q145 -53 223 -186t78 -334q0 -10 -6 -108h-463
l-70 -260q45 -14 113 -15q129 0 264 95l121 -164q-182 -147 -412 -148q-68 0 -143 15l-37 -132l-102 27l36 139q-139 61 -211.5 196.5t-72.5 324.5z" />
    <glyph glyph-name="uni0248" unicode="&#x248;" horiz-adv-x="677" 
d="M668 817v-229h-166v-377q0 -236 -114 -355.5t-322 -187.5l-80 215q131 51 173 125t42 213v367h-168v229h168v600h301v-600h166z" />
    <glyph glyph-name="uni0249" unicode="&#x249;" horiz-adv-x="669" 
d="M653 629v-207h-172v-313q-1 -251 -115 -373q-60 -64 -128 -105t-170 -80l-95 211q117 55 167 120t50 208v332h-172v207h172v456h291v-456h172zM336 1305q-78 0 -127 48t-49 121.5t49 122t127 48.5t128 -48.5t50 -122t-50 -121.5t-128 -48z" />
    <glyph glyph-name="uni024A" unicode="&#x24a;" horiz-adv-x="1376" 
d="M684 188q141 0 240 107v827q-92 102 -232 103q-297 0 -297 -557q0 -480 289 -480zM1302.5 -451q-171.5 0 -275 95.5t-103.5 277.5v176q-113 -131 -306 -131q-238 0 -389 186.5t-151 533t156.5 555t396.5 208.5q182 0 313 -125l14 92h269v-1513q0 -131 114 -131
q68 0 146 45l100 -183q-113 -86 -284.5 -86z" />
    <glyph glyph-name="uni024B" unicode="&#x24b;" horiz-adv-x="1216" 
d="M578 184q121 0 204 131v486q-86 102 -186 102q-215 0 -215 -360q0 -195 50.5 -277t146.5 -82zM1051.5 -451q-119.5 0 -194.5 77t-75 218v269q-106 -145 -300 -145.5t-299 154t-105 416t119.5 421t324.5 159.5q162 0 283 -133l16 100h252v-1232q0 -72 60 -72q30 0 57 10
l59 -205q-78 -37 -197.5 -37z" />
    <glyph glyph-name="uni024C" unicode="&#x24c;" horiz-adv-x="1284" 
d="M612 1202h-133v-434h156q244 0 244 225q0 109 -65 159t-202 50zM479 555v-555h-303v555h-145v213h145v649h442q573 0 574 -424q0 -139 -68.5 -229t-212.5 -154l367 -610h-344l-301 555h-154z" />
    <glyph glyph-name="uni024D" unicode="&#x24d;" horiz-adv-x="856" 
d="M745 1116q53 0 109 -16l-47 -281q-61 14 -98 15q-90 0 -143.5 -62.5t-84.5 -187.5h170v-207h-174v-377h-291v377h-170v207h170v501h252l25 -211q41 115 114.5 178.5t167.5 63.5z" />
    <glyph glyph-name="uni024E" unicode="&#x24e;" horiz-adv-x="1193" 
d="M604 756l141 321h-282zM1204 1253v-176h-176l-278 -542v-535h-304v532l-278 545h-172v176h80l-84 164h321l72 -164h438l74 164h307l-84 -164h84z" />
    <glyph glyph-name="uni024F" unicode="&#x24f;" horiz-adv-x="1087" 
d="M543 188l112 443h-219zM1067 805v-174h-141l-203 -633q-66 -207 -206 -319.5t-380 -129.5l-31 209q156 20 230 73.5t119 168.5h-101l-196 631h-140v174h86l-88 280h310l67 -280h307l72 280h299l-90 -280h86z" />
    <glyph glyph-name="uni0250" unicode="&#x250;" horiz-adv-x="1122" 
d="M625 909q-123 0 -193 -121v-206h96q236 0 236 176q0 72 -35.5 111.5t-103.5 39.5zM632.5 184q109.5 0 280.5 58l66 -195q-203 -80 -401 -80q-430 0 -431 379v438q0 63 -18 93t-61 45l61 192q190 -16 250 -160q106 164 326 164q162 0 257 -93t95 -257t-129 -258t-371 -94
h-125v-54q0 -100 45.5 -139t155 -39z" />
    <glyph glyph-name="uni0251" unicode="&#x251;" horiz-adv-x="1224" 
d="M575 184q117 0 205 131v486q-90 102 -188 102t-154.5 -89t-56.5 -271q-1 -359 194 -359zM1071 346q0 -74 18.5 -108.5t69.5 -59.5l-86 -211q-197 37 -258 166q-125 -166 -321 -166t-306 156t-110 416t120.5 419.5t327.5 159.5q166 0 275 -131l16 98h254v-739z" />
    <glyph glyph-name="uni0252" unicode="&#x252;" horiz-adv-x="1224" 
d="M632 182q99 0 155.5 89t56.5 272q0 358 -195 358q-119 0 -205 -133v-481q89 -105 188 -105zM732.5 1118q195.5 0 305 -155.5t109.5 -415.5t-121 -420t-328 -160q-166 0 -274 131l-16 -98h-254v739q0 74 -18.5 109t-69.5 59l86 211q201 -37 258 -168q127 168 322.5 168z
" />
    <glyph glyph-name="uni0253" unicode="&#x253;" horiz-adv-x="1220" 
d="M623 182q207 0 206 361q0 199 -50 279.5t-144 80.5q-117 0 -201 -139v-467q72 -115 189 -115zM733.5 1118q188.5 0 294 -151.5t105.5 -415.5t-116 -424t-303.5 -160t-295.5 139l-17 -106h-258v1194q0 158 103.5 257t275 99t305.5 -65l-79 -193q-88 41 -169.5 41
t-113 -34.5t-31.5 -112.5v-217q111 149 299.5 149z" />
    <glyph glyph-name="uni0254" unicode="&#x254;" horiz-adv-x="978" 
d="M379 -33q-207 0 -356 123l131 172q104 -76 215 -78q229 0 229 359q0 186 -54 272t-166 86t-220 -74l-125 166q147 125 375 125t360.5 -152.5t132.5 -418.5t-139 -423t-383 -157z" />
    <glyph glyph-name="uni0255" unicode="&#x255;" horiz-adv-x="1019" 
d="M649 182q137 0 137 97q0 68 -69 67q-47 0 -82 -33.5t-72 -117.5q39 -13 86 -13zM742 512q112 0 183.5 -64.5t71.5 -175.5q0 -147 -107.5 -226t-275.5 -79q-84 0 -145 17l-68 -152l-149 59l70 150q-244 141 -244 494q0 260 141 421.5t363.5 161.5t373.5 -131l-127 -174
q-100 80 -213 80q-231 0 -231 -356q0 -168 51 -256q53 123 123.5 177t182.5 54z" />
    <glyph glyph-name="uni0256" unicode="&#x256;" horiz-adv-x="1226" 
d="M588 184q121 0 205 131v486q-86 102 -187 102q-215 0 -215 -360q0 -195 50.5 -277t146.5 -82zM1168.5 -451q-168.5 0 -272 95.5t-103.5 277.5v189q-109 -143 -301.5 -143.5t-298 154t-105.5 416t120 421t324 159.5q150 0 261 -110v542l290 -32v-1620q0 -131 121 -131
q66 0 146 43l100 -175q-113 -86 -281.5 -86z" />
    <glyph glyph-name="uni0257" unicode="&#x257;" horiz-adv-x="1226" 
d="M588 184q121 0 205 131v486q-86 102 -187 102q-215 0 -215 -360q0 -195 50.5 -277t146.5 -82zM1148 1550q163 0 279 -77l-90 -183q-76 43 -141 43q-113 0 -113 -133v-1200h-256l-18 133q-113 -166 -311.5 -166t-304 154.5t-105.5 416t120 421t324 159.5q150 0 261 -110
v180q0 168 96 265t259 97z" />
    <glyph glyph-name="uni0258" unicode="&#x258;" horiz-adv-x="1132" 
d="M360 649v-12h398q-8 158 -54.5 220.5t-144.5 62.5q-199 -1 -199 -271zM572.5 1118q236.5 0 359.5 -156.5t123 -421.5t-137.5 -419t-378 -154t-426.5 148l120 164q135 -94 261.5 -94.5t187.5 60t74 210.5h-676q-6 45 -6 112q0 258 131 404.5t367.5 146.5z" />
    <glyph glyph-name="uni0259" unicode="&#x259;" horiz-adv-x="1142" 
d="M563.5 176q100.5 0 154.5 63.5t62 209.5h-430v-15q2 -121 57.5 -189.5t156 -68.5zM566 1118q245 0 372 -153.5t127 -415.5t-133 -422t-363.5 -160t-362.5 146.5t-132 406.5q0 61 6 111h700q-20 276 -233 276q-147 0 -277 -92l-123 166q174 137 419 137z" />
    <glyph glyph-name="uni025A" unicode="&#x25a;" horiz-adv-x="1665" 
d="M563.5 176q100.5 0 154.5 63.5t62 209.5h-430v-15q2 -121 57.5 -189.5t156 -68.5zM1447.5 631q-144.5 0 -224.5 67.5t-93 186.5l-2 12l-112 -63q49 -123 49 -289q0 -258 -133 -418t-363.5 -160t-362.5 146.5t-132 406.5q0 61 6 111h700q-20 276 -233 276q-147 0 -277 -92
l-123 166q174 137 408.5 137t366.5 -135l194 102h248v-127q0 -119 111 -118q61 -1 135 34l86 -165q-104 -78 -248.5 -78z" />
    <glyph glyph-name="uni025B" unicode="&#x25b;" horiz-adv-x="976" 
d="M381 326q1 -148 211 -148q112 0 250 86l125 -166q-168 -131 -426 -131q-209 0 -336 87t-127 247q0 242 287 277q-244 49 -244 245q0 137 114.5 216t327.5 79t369 -117l-121 -155q-119 68 -236 67q-74 0 -116.5 -32.5t-42.5 -93t44 -95.5t124 -35h133l-31 -194h-117
q-100 0 -144 -33.5t-44 -103.5z" />
    <glyph glyph-name="uni025C" unicode="&#x25c;" horiz-adv-x="1019" 
d="M471 1118q176 0 296 -81t120 -218q0 -182 -234 -239q145 -23 217 -85.5t72 -179.5q0 -170 -136 -259t-376 -89t-418 133l142 166q135 -88 284 -88q201 0 201 150q0 135 -211 135h-164l19 194h123q186 0 186 136q0 121 -162 120q-127 0 -248 -77l-135 157q178 125 424 125
z" />
    <glyph glyph-name="uni025D" unicode="&#x25d;" horiz-adv-x="1527" 
d="M1310.5 631q-144.5 0 -225.5 67.5t-94 186.5v12l-104 -59v-19q0 -182 -234 -239q145 -23 217 -85.5t72 -179.5q0 -170 -136 -259t-376.5 -89t-417.5 133l142 166q135 -88 284 -88q201 0 201 150q0 135 -211 135h-164l19 194h123q186 0 186 136q0 121 -162 120
q-127 0 -248 -77l-135 157q178 125 413.5 125t354.5 -119l164 86h246v-127q0 -119 112 -118q63 -1 133 34l89 -165q-104 -78 -248.5 -78z" />
    <glyph glyph-name="uni025E" unicode="&#x25e;" horiz-adv-x="1171" 
d="M608 178q190 0 191 152q0 133 -203 133h-72l17 194h32q81 0 129 34q48 33 48 95t-40 94.5t-108 32.5q-117 0 -173 -89q-56 -88 -56 -282t53 -279t182 -85zM610 -33q-260 0 -396 150.5t-136 420.5t140 425t388 155q193 0 313.5 -82t120.5 -219q0 -178 -233 -237
q143 -23 215 -85.5t72 -179.5q0 -166 -132.5 -257t-351.5 -91z" />
    <glyph glyph-name="uni025F" unicode="&#x25f;" horiz-adv-x="669" 
d="M653 629v-207h-172v-313q-1 -251 -115 -373q-60 -64 -128 -105t-170 -80l-95 211q117 55 167 120t50 208v332h-172v207h172v456h291v-456h172z" />
    <glyph glyph-name="uni0260" unicode="&#x260;" horiz-adv-x="1226" 
d="M588 225q121 0 205 131v445q-86 102 -186.5 102t-158 -85t-57.5 -255q0 -338 197 -338zM1148 1550q163 0 279 -77l-90 -183q-76 43 -141 43q-113 0 -113 -133v-1173q0 -477 -508 -478q-227 0 -380 101l88 182q127 -66 263 -65.5t191.5 53.5t55.5 170v162
q-109 -143 -300.5 -143.5t-298 151t-106.5 398.5t121 403.5t323 156.5q145 0 261 -110v180q0 168 96 265t259 97z" />
    <glyph glyph-name="uni0261" unicode="&#x261;" horiz-adv-x="1226" 
d="M588 225q121 0 205 131v445q-86 102 -186.5 102t-158 -85t-57.5 -255q0 -338 197 -338zM1083 1085v-1058q0 -477 -508 -478q-227 0 -380 101l88 182q127 -66 263 -65.5t191.5 53.5t55.5 170v162q-109 -143 -300.5 -143.5t-298 151t-106.5 398.5t121 403.5t323 156.5
q160 0 283 -133l16 100h252z" />
    <glyph glyph-name="uni0262" unicode="&#x262;" 
d="M625.5 1118q234.5 0 410.5 -145l-143 -156q-123 88 -247 88t-194.5 -91t-70.5 -278.5t56.5 -271.5t154.5 -84t180 33v221h-156l-26 197h457v-535q-188 -125 -444.5 -125t-390.5 146.5t-134 418t156.5 427t391 155.5z" />
    <glyph glyph-name="uni0263" unicode="&#x263;" horiz-adv-x="1048" 
d="M590 -200.5q0 64.5 -62 192.5q-59 -125 -59 -190.5t59 -65.5q62 -1 62 63.5zM528 -451q-282 0 -282 252q0 125 139 357l-389 927h309l223 -741l224 741h301l-379 -925q74 -121 106.5 -203t32.5 -181.5t-71.5 -163t-213.5 -63.5z" />
    <glyph glyph-name="uni0264" unicode="&#x264;" horiz-adv-x="1128" 
d="M510 203q0 -53 53 -53t53 55q0 39 -53 139q-53 -88 -53 -141zM944.5 1118q105.5 0 198.5 -61l-84 -166q-45 20 -78 20t-52.5 -17t-43.5 -65l-178 -342q66 -98 92 -161.5t26 -149.5t-66.5 -147.5t-194.5 -61.5t-195.5 61.5t-67.5 143.5t26.5 145.5t92.5 171.5l-176 340
q-25 47 -44.5 64.5t-52 17.5t-77.5 -20l-84 166q88 61 194.5 61t170 -57t116.5 -187l96 -219l99 219q55 131 116 187.5t166.5 56.5z" />
    <glyph glyph-name="uni0265" unicode="&#x265;" horiz-adv-x="1185" 
d="M752 1085h290v-1536l-290 33v543q-129 -158 -314 -158q-143 0 -224 87t-81 243v788h291v-739q0 -162 121 -162q111 0 207 152v749z" />
    <glyph glyph-name="uni0266" unicode="&#x266;" horiz-adv-x="1185" 
d="M762 741q0 160 -117 160t-211 -149v-752h-291v1194q0 158 103.5 257t275 99t305.5 -65l-79 -193q-88 41 -169.5 41t-113 -34.5t-31.5 -112.5v-223q134 155 316 155q141 0 222 -87t81 -240v-791h-291v741z" />
    <glyph glyph-name="uni0267" unicode="&#x267;" horiz-adv-x="1185" 
d="M762 741q0 160 -117 160t-211 -149v-752h-291v1194q0 158 103.5 257t275 99t305.5 -65l-79 -193q-88 41 -169.5 41t-113 -34.5t-31.5 -112.5v-223q133 156 316 155q141 0 222 -86.5t81 -240.5v-869q0 -182 -102.5 -277.5t-271.5 -95.5t-282 86l101 175q76 -43 145 -43
q119 0 119 131v843z" />
    <glyph glyph-name="uni0268" unicode="&#x268;" horiz-adv-x="667" 
d="M651 680v-207h-172v-473h-291v473h-172v207h172v405h291v-405h172zM332 1305q-78 0 -127 48t-49 121.5t49 122t127 48.5t128 -48.5t50 -122t-50 -121.5t-128 -48z" />
    <glyph glyph-name="uni0269" unicode="&#x269;" horiz-adv-x="606" 
d="M398.5 -33q-117.5 0 -191.5 77t-74 218v823h291v-815q0 -72 59 -71q27 0 58 10l59 -205q-84 -37 -201.5 -37z" />
    <glyph glyph-name="uni026A" unicode="&#x26a;" horiz-adv-x="688" 
d="M651 874h-162v-661h162v-213h-614v213h162v661h-162v211h614v-211z" />
    <glyph glyph-name="uni026B" unicode="&#x26b;" horiz-adv-x="903" 
d="M608 575h-24v-305q0 -72 59 -71q33 0 57 12l60 -207q-84 -37 -201 -37t-191.5 77t-74.5 218v436q-6 2 -31 2t-54.5 -17t-43.5 -35.5t-39 -53.5l-156 80q123 246 318 246h6v598l291 32v-749q18 -6 53 -6q61 0 131 98l156 -80q-119 -238 -316 -238z" />
    <glyph glyph-name="uni026C" unicode="&#x26c;" horiz-adv-x="845" 
d="M195 752q0 -88 122 -88v155q-33 4 -51 4q-71 1 -71 -71zM582.5 -33q-117.5 0 -191.5 77t-74 218v238q-160 4 -240.5 69.5t-80.5 176t70.5 172t179.5 61.5q35 0 71 -8v547l291 32v-882q33 2 148 20l24 -151q-80 -23 -172 -29v-238q0 -72 60 -71q32 0 57 12l59 -207
q-84 -37 -201.5 -37z" />
    <glyph glyph-name="uni026D" unicode="&#x26d;" horiz-adv-x="577" 
d="M518 -451q-170 0 -272.5 95.5t-102.5 277.5v1596l291 32v-1652q0 -131 119 -131q67 0 147 43l101 -175q-113 -86 -283 -86z" />
    <glyph glyph-name="uni026E" unicode="&#x26e;" horiz-adv-x="1425" 
d="M1384 11q0 -202 -145 -332t-399 -130t-418 158l141 168q125 -100 256 -100q262 0 262 256q0 121 -65.5 172t-206.5 51h-182v176l366 434h-569v-594q0 -72 59 -71q33 0 58 12l59 -207q-84 -37 -201.5 -37t-191.5 77t-74 218v1256l291 32v-465h899v-202l-391 -451
q219 -10 335.5 -114.5t116.5 -306.5z" />
    <glyph glyph-name="uni026F" unicode="&#x26f;" horiz-adv-x="1736" 
d="M1303 1085h290v-1085h-254l-20 137q-125 -170 -315 -170q-92 0 -160 47t-101 131q-133 -178 -323 -178q-129 0 -208 88t-79 242v788h291v-739q0 -162 106 -162q100 0 187 152v749h291v-739q0 -162 104 -162t191 152v749z" />
    <glyph glyph-name="uni0270" unicode="&#x270;" horiz-adv-x="1736" 
d="M1593 1085v-1536l-290 33v531q-121 -145 -299 -146q-92 0 -160 46t-99 130q-135 -176 -325 -176q-129 0 -208 88t-79 240v790h291v-741q0 -160 106 -160q57 0 100.5 37t88.5 115v749h291v-741q0 -160 104 -160t189 152v749h290z" />
    <glyph glyph-name="uni0271" unicode="&#x271;" horiz-adv-x="1736" 
d="M1604 -78q0 -182 -102.5 -277.5t-272.5 -95.5t-283 86l101 175q80 -43 147 -43q119 0 119 131v843q0 160 -107 160q-57 0 -100 -37t-88 -114v-750h-291v741q0 160 -104 160t-189 -151v-750h-291v1085h252l23 -135q123 168 315.5 168t259.5 -178q131 178 324 178
q129 0 208 -88t79 -239v-869z" />
    <glyph glyph-name="uni0272" unicode="&#x272;" horiz-adv-x="1185" 
d="M750 1118q143 0 223 -87t80 -240v-791h-291v741q0 88 -30 124t-89 36q-115 0 -209 -151v-828q0 -182 -102.5 -277.5t-272.5 -95.5t-282 86l100 175q80 -43 148 -43q119 0 118 131v1187h252l23 -137q137 170 332 170z" />
    <glyph glyph-name="uni0273" unicode="&#x273;" horiz-adv-x="1185" 
d="M1136.5 -451q-169.5 0 -272 95.5t-102.5 277.5v819q0 88 -30 124t-89 36q-115 0 -209 -151v-750h-291v1085h252l23 -137q137 170 332 170q143 0 223 -87t80 -240v-893q0 -131 118 -131q68 0 148 43l100 -175q-113 -86 -282.5 -86z" />
    <glyph glyph-name="uni0274" unicode="&#x274;" horiz-adv-x="1206" 
d="M1063 1085v-1085h-352l-351 827q43 -262 43 -489v-338h-260v1085h351l352 -829q-41 242 -41 416v413h258z" />
    <glyph glyph-name="uni0275" unicode="&#x275;" horiz-adv-x="1196" 
d="M598 184q201 0 221 281h-442q20 -281 221 -281zM600.5 901q-194.5 0 -221.5 -264h438q-22 264 -216.5 264zM600 1118q244 0 381 -152.5t137 -417.5t-139 -423t-382 -158t-381 152.5t-138 418.5t139 423t383 157z" />
    <glyph glyph-name="uni0276" unicode="&#x276;" horiz-adv-x="1570" 
d="M381 542.5q0 -358.5 217 -358.5t217 358.5t-217 358.5t-217 -358.5zM1511 205v-205h-729q-92 -33 -184 -33q-244 0 -382 152.5t-138 419t139 423t383 156.5q96 0 193 -33h720l-30 -202h-484q78 -100 103 -232h325v-200h-323q-20 -141 -111 -246h518z" />
    <glyph glyph-name="uni0277" unicode="&#x277;" horiz-adv-x="1564" 
d="M1044 184q156 0 156 324q0 403 -416 403q-223 0 -321 -105.5t-98 -301.5q0 -319 153 -320q63 0 96 41t33 154v235l271 37v-272q-1 -195 126 -195zM783 1118q337 0 520.5 -162.5t183.5 -461.5q0 -262 -110.5 -394.5t-289.5 -132.5q-256 0 -305 242q-33 -129 -106.5 -185.5
t-204.5 -56.5q-178 0 -285.5 130t-107.5 413t184 445.5t521 162.5z" />
    <glyph glyph-name="uni0278" unicode="&#x278;" horiz-adv-x="1339" 
d="M352 544.5q0 -316.5 195 -341.5v682q-195 -24 -195 -340.5zM791 203q199 25 198.5 342t-198.5 340v-682zM1278 545q0 -246 -128 -381t-335 -154l-2 -428l-291 -33l2 461q-209 18 -335 152.5t-126 378.5t127 380t332 156v441l291 30v-471q211 -18 338 -152t127 -380z" />
    <glyph glyph-name="uni0279" unicode="&#x279;" horiz-adv-x="815" 
d="M379 1085h291v-1085h-252l-27 211q-39 -115 -113.5 -178.5t-168.5 -63.5q-49 0 -109 17l49 280q57 -14 96 -14q96 0 149.5 67.5t84.5 204.5v561z" />
    <glyph glyph-name="uni027A" unicode="&#x27a;" horiz-adv-x="813" 
d="M670 0h-252l-27 211q-39 -115 -113.5 -178.5t-168.5 -63.5q-49 0 -109 17l49 280q57 -14 96 -14q96 0 149.5 67.5t84.5 204.5v1026l291 -32v-1518z" />
    <glyph glyph-name="uni027B" unicode="&#x27b;" horiz-adv-x="813" 
d="M754.5 -451q-168.5 0 -272 95.5t-103.5 277.5v256q-39 -98 -109.5 -152.5t-144 -54.5t-123.5 15l47 282q49 -14 98 -14q96 0 149.5 67.5t82.5 204.5v559h291v-1187q0 -131 121 -131q65 0 145 43l100 -175q-113 -86 -281.5 -86z" />
    <glyph glyph-name="uni027C" unicode="&#x27c;" horiz-adv-x="813" 
d="M705 1116q49 0 108 -16l-49 -281q-57 14 -96 15q-96 0 -149.5 -68t-84.5 -207v-977l-291 -33v1536h252l27 -211q39 115 114 178.5t169 63.5z" />
    <glyph glyph-name="uni027D" unicode="&#x27d;" horiz-adv-x="813" 
d="M553 -233q68 0 147 43l101 -175q-113 -86 -283 -86t-272.5 95.5t-102.5 277.5v1163h252l27 -211q39 115 113.5 178.5t169.5 63.5q49 0 108 -16l-49 -281q-57 14 -96 15q-96 0 -149.5 -68t-84.5 -207v-661q0 -131 119 -131z" />
    <glyph glyph-name="uni027E" unicode="&#x27e;" horiz-adv-x="790" 
d="M508 1122q170 0 283 -86l-101 -174q-80 43 -147 43q-119 0 -119 -131v-774h-291v750q0 182 102.5 277t272.5 95z" />
    <glyph glyph-name="uni027F" unicode="&#x27f;" horiz-adv-x="792" 
d="M282 1122q170 0 272.5 -95t102.5 -277v-750h-290v774q0 131 -119 131q-68 0 -148 -43l-100 174q112 86 282 86z" />
    <glyph glyph-name="uni0280" unicode="&#x280;" horiz-adv-x="1093" 
d="M424 883v-301h92q176 0 176 155q0 78 -46 112t-142 34h-80zM424 385v-385h-281v1085h367q473 0 473 -352q0 -211 -201 -299l279 -434h-313l-224 385h-100z" />
    <glyph glyph-name="uni0281" unicode="&#x281;" horiz-adv-x="1087" 
d="M504 203q96 0 142 34.5t46 116.5q0 150 -176 150h-92v-301h80zM983 360q0 -360 -473 -360h-367v1085h281v-385h115l223 385h295l-275 -426q201 -86 201 -299z" />
    <glyph glyph-name="uni0282" unicode="&#x282;" horiz-adv-x="980" 
d="M492 -33q-123 0 -211 37v-106q0 -131 135 -131q78 0 162 45l102 -177q-119 -84 -290 -84t-269 94.5t-98 278.5v201l120 137q147 -84 312 -84q84 0 132 32t48 90t-44 89t-196 72q-322 90 -321 334q0 141 117.5 232t329.5 91t376 -131l-111 -170q-133 90 -262 90
q-158 0 -157 -98q0 -49 44 -78q43 -29 199 -73t240 -122.5t84 -228.5t-128 -245t-314 -95z" />
    <glyph glyph-name="uni0283" unicode="&#x283;" horiz-adv-x="651" 
d="M536 1550q165 0 277 -77l-88 -183q-76 43 -141 43q-113 0 -113 -133v-1278q0 -182 -102.5 -277.5t-272.5 -95.5t-282 86l100 175q80 -43 147 -43q119 0 119 131v1290q0 168 95.5 265t260.5 97z" />
    <glyph glyph-name="uni0284" unicode="&#x284;" horiz-adv-x="669" 
d="M594 1333q-113 0 -113 -133v-993h168v-207h-174q-23 -182 -123 -280.5t-284 -168.5l-93 199q104 45 154.5 98.5t58.5 151.5h-174v207h176v981q0 168 96.5 265t259.5 97t279 -77l-90 -183q-75 43 -141 43z" />
    <glyph glyph-name="uni0285" unicode="&#x285;" horiz-adv-x="970" 
d="M703.5 -33q-168.5 0 -272 95.5t-103.5 277.5v428q0 133 -111 133q-66 0 -143 -41l-88 182q119 76 280.5 76t256.5 -96t95 -264v-445q0 -131 121 -131q60 0 146 43l100 -172q-113 -86 -281.5 -86z" />
    <glyph glyph-name="uni0286" unicode="&#x286;" horiz-adv-x="712" 
d="M106 -291q68 0 100 43t36 139q-37 6 -95 7q-137 0 -137 -103q0 -86 96 -86zM645 1333q-113 0 -113 -133v-115l3 -1042q0 -35 -3 -53q117 -35 213 -82l-55 -127q-98 41 -176 63q-74 -295 -397 -295q-133 0 -210 64.5t-77 180.5t85 183.5t232 67.5q41 0 95 -4v1147
q0 168 96 265t259 97t280 -77l-91 -183q-75 43 -141 43z" />
    <glyph glyph-name="uni0287" unicode="&#x287;" horiz-adv-x="778" 
d="M770 205v-205h-162v-238l-291 -34v272h-249l28 205h221v534q0 78 -26.5 113t-82.5 35t-122 -39l-100 186q121 84 282 84q340 -4 340 -373v-540h162z" />
    <glyph glyph-name="uni0288" unicode="&#x288;" horiz-adv-x="778" 
d="M543.5 -451q-168.5 0 -271 95.5t-102.5 277.5v959h-162v204h162v238l291 35v-273h250l-29 -204h-221v-983q0 -131 119 -131q69 0 145 43l100 -175q-113 -86 -281.5 -86z" />
    <glyph glyph-name="uni0289" unicode="&#x289;" horiz-adv-x="1257" 
d="M780 616h-319v-274q0 -86 29.5 -122t91.5 -36q116 1 198 142v290zM1231 805v-189h-160v-616h-252l-14 145q-119 -178 -332 -178q-147 0 -225 89t-78 249v311h-158v189h158v280h291v-280h319v280h291v-280h160z" />
    <glyph glyph-name="uni028A" unicode="&#x28a;" horiz-adv-x="1193" 
d="M597 -33q-239 0 -379 142.5t-140 357.5q0 262 205 414h-174v204h395v-192q-125 -152 -125 -399q0 -315 217 -316q221 0 221 316q0 248 -127 399v192h395v-204h-172q203 -154 203 -414q0 -215 -140 -357.5t-379 -142.5z" />
    <glyph glyph-name="uni028B" unicode="&#x28b;" horiz-adv-x="1169" 
d="M547 -33q-180 0 -297 98.5t-117 284.5v735h291v-716q0 -184 139 -185q209 0 209 338v303q0 72 -57 72q-20 0 -49 -8l-54 196q76 33 168 33q133 0 208 -76.5t75 -228.5v-291q0 -283 -145.5 -419t-370.5 -136z" />
    <glyph glyph-name="uni028C" unicode="&#x28c;" horiz-adv-x="1040" 
d="M-4 0l348 1085h346l354 -1085h-315l-215 858l-219 -858h-299z" />
    <glyph glyph-name="uni028D" unicode="&#x28d;" horiz-adv-x="1517" 
d="M16 0l232 1085h354l156 -825l155 825h351l237 -1085h-293l-133 870l-180 -870h-291l-162 870l-147 -870h-279z" />
    <glyph glyph-name="uni028E" unicode="&#x28e;" horiz-adv-x="1048" 
d="M-4 0l350 1087q68 219 206 333t380 130l26 -200q-162 -20 -234.5 -79t-115.5 -186h105l340 -1085h-310l-217 897l-229 -897h-301z" />
    <glyph glyph-name="uni028F" unicode="&#x28f;" horiz-adv-x="999" 
d="M645 0h-291v395l-372 690h315l209 -487l207 487h307l-375 -688v-397z" />
    <glyph glyph-name="uni0290" unicode="&#x290;" horiz-adv-x="929" 
d="M970.5 -451q-165.5 0 -264 95.5t-98.5 277.5v78h-575v209l510 653h-467v223h801v-206l-510 -654h520v-327q0 -131 119 -131q69 0 145 43l102 -175q-117 -86 -282.5 -86z" />
    <glyph glyph-name="uni0291" unicode="&#x291;" horiz-adv-x="1067" 
d="M838 360q-86 0 -117 -135q96 0 136 15.5t40 60.5q0 59 -59 59zM1104 289q0 -289 -418 -289q-10 -66 -10 -260h-176q0 141 12 260h-479v209l510 653h-467v223h801v-198l-519 -662h187q70 293 315 293q106 0 175 -61.5t69 -167.5z" />
    <glyph glyph-name="uni0292" unicode="&#x292;" horiz-adv-x="1030" 
d="M987 13q0 -202 -145.5 -333t-390.5 -131q-295 0 -469 205l155 150q137 -129 299 -129q117 0 183.5 65.5t66.5 188.5t-66.5 174t-205.5 51h-185v176l367 434h-539v221h869v-202l-391 -451q452 -21 452 -419z" />
    <glyph glyph-name="uni0293" unicode="&#x293;" horiz-adv-x="1030" 
d="M154 -133q0 -49 49 -70.5t174 -21.5q-41 92 -74 127t-78 35q-71 0 -71 -70zM987 23q0 -162 -88 -277t-258 -164l51 -110l-155 -60l-64 142q-53 -4 -84 -5q-213 0 -328.5 80t-115.5 226q0 115 71.5 181t185.5 66t187.5 -66.5t145.5 -232.5l4 -8q147 49 147 240
q0 125 -65.5 177t-206.5 52h-185v176l371 424h-543v221h869v-202l-391 -441q452 -22 452 -419z" />
    <glyph glyph-name="uni0294" unicode="&#x294;" horiz-adv-x="960" 
d="M616 1065q0 268 -243 268q-125 0 -256 -119l-148 150q197 186 438.5 186t377 -131t135.5 -331.5t-87.5 -300t-238.5 -154.5l-35 -15v-618h-291v721l97 29q125 39 188 112.5t63 202.5z" />
    <glyph glyph-name="uni0295" unicode="&#x295;" horiz-adv-x="960" 
d="M694 0h-291v618l-36 15q-152 55 -239 155q-87 98 -87 298t141.5 332t379.5 132t429 -186l-145 -150q-131 119 -254 119t-186.5 -71.5t-63.5 -199.5t64.5 -201t189.5 -111l98 -29v-721z" />
    <glyph glyph-name="uni0296" unicode="&#x296;" horiz-adv-x="1050" 
d="M473 -31q-260 0 -450 185l145 149q131 -117 257 -117q245 0 245 267q0 135 -60.5 209.5t-187.5 107.5l-123 27v721l291 30v-649l61 -10q319 -92 320 -438q0 -217 -136.5 -349.5t-361.5 -132.5z" />
    <glyph glyph-name="uni0297" unicode="&#x297;" horiz-adv-x="1003" 
d="M641 1118q195 0 340 -131l-123 -168q-100 74 -205 74q-245 0 -245 -554t237 -554q98 0 207 76l129 -183q-156 -127 -344 -127q-256 0 -396.5 203t-140.5 573t143.5 580.5t397.5 210.5z" />
    <glyph glyph-name="uni0298" unicode="&#x298;" horiz-adv-x="1630" 
d="M819.5 864q69.5 0 114.5 -44t45 -110.5t-45 -110.5t-114.5 -44t-115 44t-45.5 111t45.5 110.5t115 43.5zM813 1243q-211 0 -331 -133t-120 -402t121 -400.5t334 -131.5t332 131t119 400.5t-122 402.5t-333 133zM817 1450q330 0 532.5 -199.5t202.5 -536.5t-204.5 -542
t-533.5 -205t-532.5 201t-203.5 537t204.5 540.5t534.5 204.5z" />
    <glyph glyph-name="uni0299" unicode="&#x299;" horiz-adv-x="1142" 
d="M563 197q203 0 203 148.5t-184 148.5h-148v-297h129zM553 926q-68 0 -119 -8v-261h131q162 0 162 134.5t-174 134.5zM586 0h-443v1073q229 45 428 45t322 -74.5t123 -214.5q-1 -186 -228 -235q276 -31 277 -270q0 -162 -130 -243t-349 -81z" />
    <glyph glyph-name="uni029A" unicode="&#x29a;" horiz-adv-x="1173" 
d="M563 178q131 0 183.5 84t52.5 279t-55.5 283.5t-172.5 88.5q-70 0 -109.5 -32.5t-39.5 -94.5t48 -95.5t130 -33.5h31l16 -194h-72q-201 0 -200 -133q0 -152 188 -152zM561 -33q-217 0 -350 91.5t-133 256.5q0 117 71.5 179.5t217.5 85.5q-233 57 -234 237q0 137 120 219
t312 82q248 0 388.5 -155.5t140.5 -424.5t-136.5 -420t-396.5 -151z" />
    <glyph glyph-name="uni029B" unicode="&#x29b;" 
d="M1107 1550q159 0 271 -77l-88 -183q-76 43 -141 43q-113 0 -113 -133v-227l-127 -142q-135 74 -262 74t-196.5 -90t-69.5 -278.5t56.5 -272.5t154.5 -84t180 33v221h-156l-26 197h457v-535q-188 -125 -444.5 -125t-390.5 146.5t-134 417t152.5 427t373.5 156.5
q94 0 170 -28v118q0 166 87 254t246 88z" />
    <glyph glyph-name="uni029C" unicode="&#x29c;" horiz-adv-x="1204" 
d="M770 0v442h-336v-442h-291v1085h291v-423h336v423h291v-1085h-291z" />
    <glyph glyph-name="uni029D" unicode="&#x29d;" horiz-adv-x="671" 
d="M106 -291q68 0 100 43t36 139q-37 6 -95 7q-137 0 -137 -103q0 -86 96 -86zM117 -451q-133 0 -210 64.5t-77 180.5t85 183.5t232 67.5q43 0 97 -4v1044h291v-1042q0 -35 -3 -53q117 -35 213 -82l-55 -127q-98 41 -176 63q-74 -295 -397 -295zM387 1305q-78 0 -127 48
t-49 121.5t49 122t127 48.5t128 -48.5t50 -122t-50 -121.5t-128 -48z" />
    <glyph glyph-name="uni029E" unicode="&#x29e;" horiz-adv-x="1110" 
d="M676 1085h291v-1536l-291 33v1503zM16 0l346 477l-376 608h329l351 -593l-349 -492h-301z" />
    <glyph glyph-name="uni029F" unicode="&#x29f;" horiz-adv-x="915" 
d="M434 1085v-858h461l-33 -227h-719v1085h291z" />
    <glyph glyph-name="uni02A0" unicode="&#x2a0;" horiz-adv-x="1216" 
d="M578 184q121 0 204 131v486q-86 102 -186 102q-215 0 -215 -360q0 -195 50.5 -277t146.5 -82zM1138 1550q163 0 279 -77l-90 -183q-76 43 -141 43q-113 0 -113 -133v-1651l-291 33v531q-106 -145 -300 -145.5t-299 154t-105 415t118.5 421t304 160.5t281.5 -127v197
q0 168 96.5 265t259.5 97z" />
    <glyph glyph-name="uni02A1" unicode="&#x2a1;" horiz-adv-x="960" 
d="M616 1065q0 268 -243 268q-125 0 -256 -119l-148 150q197 186 438.5 186t377 -131t135.5 -331.5t-87 -300t-239 -154.5l-35 -15v-167h203v-179h-203v-272h-291v272h-137v179h137v270l97 29q125 39 188 112.5t63 202.5z" />
    <glyph glyph-name="uni02A2" unicode="&#x2a2;" horiz-adv-x="960" 
d="M592 1333q-123 0 -186.5 -71.5t-63.5 -199.5t64.5 -201t189.5 -111l98 -29v-270h137v-179h-137v-272h-291v272h-204v179h204v167l-36 15q-152 55 -239 154.5t-87 299t141.5 331.5t380 132t428.5 -186l-145 -150q-131 119 -254 119z" />
    <glyph glyph-name="uni02A3" unicode="&#x2a3;" horiz-adv-x="1976" 
d="M1083 862v-653l523 653h-523zM588 184q121 0 205 131v486q-86 102 -187 102q-215 0 -215 -360q0 -195 50.5 -277t146.5 -82zM497.5 -33q-198.5 0 -304 154.5t-105.5 416t120 421t324 159.5q150 0 261 -110v542l290 -32v-433h842v-206l-524 -654h534l-28 -225h-1080
l-18 133q-113 -166 -311.5 -166z" />
    <glyph glyph-name="uni02A4" unicode="&#x2a4;" horiz-adv-x="2054" 
d="M588 184q121 0 205 131v486q-86 102 -187 102q-215 0 -215 -360q0 -195 50.5 -277t146.5 -82zM1477 -451q-297 0 -471 205l155 150q137 -129 299 -129q119 0 184.5 65.5t65.5 188.5t-65.5 174t-206.5 51h-183v176l367 434h-539v-864h-256l-18 133q-113 -166 -311.5 -166
t-304 154.5t-105.5 416t120 421t324 159.5q150 0 261 -110v542l290 -32v-433h867v-202l-391 -451q453 -23 452 -414q0 -209 -144.5 -339t-389.5 -130z" />
    <glyph glyph-name="uni02A5" unicode="&#x2a5;" horiz-adv-x="2115" 
d="M1886 360q-88 0 -119 -135q96 0 136.5 15.5t40.5 60.5q-1 59 -58 59zM1083 862v-647l516 647h-516zM588 184q121 0 205 131v486q-86 102 -187 102q-215 0 -215 -360q0 -195 50.5 -277t146.5 -82zM2150 289q0 -289 -417 -289q-10 -78 -11 -260h-174q0 160 11 260h-732
l-18 133q-113 -166 -311 -166t-304 154.5t-106 416.5t120 421t324 159q150 0 261 -110v542l290 -32v-433h840v-198l-528 -662h196q74 293 316 293q109 0 176 -60t67 -169z" />
    <glyph glyph-name="uni02A6" unicode="&#x2a6;" horiz-adv-x="1501" 
d="M1452 336q0 -180 -164 -274.5t-483.5 -94.5t-477 120t-157.5 366v428h-162v204h162v238l291 35v-273h201l-31 -204h-170v-422q0 -147 83 -212t279 -65q348 0 348 131q0 49 -38.5 81t-185 78t-213 120t-66.5 208t109.5 226t302 92t347.5 -127l-102 -164q-127 80 -246 80
q-63 0 -100 -27.5t-37 -72.5t42 -75.5t182 -75.5q286 -91 286 -320z" />
    <glyph glyph-name="uni02A7" unicode="&#x2a7;" horiz-adv-x="1275" 
d="M614 199q82 0 191 24v658h-344v-529q0 -82 35.5 -117.5t117.5 -35.5zM1160 1550q165 0 278 -77l-88 -183q-76 43 -142 43q-113 0 -112 -133v-1278q0 -182 -102.5 -277.5t-272.5 -95.5t-283 86l101 175q80 -43 147 -43q119 0 119 131v125q-125 -55 -252 -56
q-383 2 -383 383v531h-162v204h162v238l291 35v-273h344v103q0 168 95 265t260 97z" />
    <glyph glyph-name="uni02A8" unicode="&#x2a8;" horiz-adv-x="1650" 
d="M1280 182q137 0 137 97q1 67 -77 67t-228 -115q62 -49 168 -49zM1372 512q113 0 184.5 -64.5t71.5 -175.5q0 -147 -107.5 -226t-275.5 -79q-219 0 -356 119q-209 -119 -369 -119q-350 2 -350 373v541h-162v204h162v238l291 35v-273h250l-29 -204h-221v-535
q0 -80 29.5 -113.5t104.5 -33.5t177 39q-63 121 -63 297q0 259 140 421q139 162 363 162t375 -131l-127 -174q-100 80 -213 80q-233 0 -233 -356q0 -94 18 -166q162 141 340 141z" />
    <glyph glyph-name="uni02A9" unicode="&#x2a9;" horiz-adv-x="1802" 
d="M1366 1118q143 0 223 -87t80 -240v-869q0 -182 -102.5 -277.5t-272.5 -95.5t-282 86l100 175q80 -43 148 -43q119 0 118 131v843q0 88 -29.5 124t-88.5 36q-115 0 -209 -151v-750h-291v881h-289v-881h-291v881h-172v204h172v109q0 158 103.5 257t275 99t305.5 -65
l-80 -193q-88 41 -169 41t-112.5 -34.5t-31.5 -112.5v-101h541l22 -137q137 170 332 170z" />
    <glyph glyph-name="uni02AA" unicode="&#x2aa;" horiz-adv-x="1400" 
d="M721 -33q-309 0 -448.5 120t-139.5 341v1090l291 32v-1132q0 -127 72.5 -181.5t234.5 -54.5q340 0 340 131q0 49 -39 81t-185.5 78t-213 120t-66.5 208t109.5 226t302.5 92t348 -127l-102 -164q-127 80 -246 80q-63 0 -99 -27.5t-36 -72.5t42 -76t182 -75
q286 -90 286 -320q0 -180 -162 -274.5t-471 -94.5z" />
    <glyph glyph-name="uni02AB" unicode="&#x2ab;" horiz-adv-x="1435" 
d="M395.5 -33q-114.5 0 -188.5 77t-74 218v1256l291 32v-1280q0 -72 59 -71q31 0 56 10l510 653h-467v223h800v-206l-516 -654h527l-29 -225h-778q-76 -33 -190.5 -33z" />
    <glyph glyph-name="uni02AC" unicode="&#x2ac;" horiz-adv-x="958" 
d="M897 547l-127 -547h-205l-80 397l-84 -397h-204l-136 547h166l80 -420l90 420h185l84 -422l77 422h154zM897 1366l-127 -547h-205l-80 398l-84 -398h-204l-136 547h166l80 -420l90 420h185l84 -422l77 422h154z" />
    <glyph glyph-name="uni02AD" unicode="&#x2ad;" horiz-adv-x="735" 
d="M61 0v330h613v-330h-178v174h-256v-174h-179zM61 819v330h613v-330h-178v174h-256v-174h-179z" />
    <glyph glyph-name="uni02AE" unicode="&#x2ae;" horiz-adv-x="1421" 
d="M987 1085h291v-1536l-291 33v543q-133 -158 -315 -158q-143 0 -224 87t-81 243v477q0 131 -119 131q-70 0 -146 -43l-100 174q114 86 282 86t270.5 -95t102.5 -277v-404q0 -162 121 -162q111 0 209 152v749z" />
    <glyph glyph-name="uni02AF" unicode="&#x2af;" horiz-adv-x="1421" 
d="M1360 -451q-168 0 -270.5 95.5t-102.5 277.5v203q-133 -158 -315 -158q-143 0 -224 87t-81 243v477q0 131 -119 131q-70 0 -146 -43l-100 174q113 86 281.5 86t271 -95t102.5 -277v-404q0 -162 121 -162q111 0 209 152v749h291v-1187q0 -131 119 -131q69 0 145 43
l103 -175q-117 -86 -285 -86z" />
    <glyph glyph-name="uni02B0" unicode="&#x2b0;" horiz-adv-x="636" 
d="M392 1378q183 0 183 -164v-395h-165v363q0 72 -60 71q-51 0 -121 -59v-375h-168v762l168 18v-292q72 71 163 71z" />
    <glyph glyph-name="uni02B1" unicode="&#x2b1;" horiz-adv-x="636" 
d="M392 1378q183 0 183 -164v-395h-165v363q0 72 -60 71q-51 0 -121 -59v-375h-168v600q1 78 59 127t154 49t175 -32l-48 -109q-55 16 -97 16t-58 -14t-17 -49v-100q72 71 163 71z" />
    <glyph glyph-name="uni02B2" unicode="&#x2b2;" horiz-adv-x="428" 
d="M348 1362v-488q0 -127 -57 -184t-176 -94l-54 115q66 29 93 59t26 100v492h168zM265 1653q46 0 74 -28t28 -69q0 -40 -28 -68t-74 -28t-76 28q-29 28 -29 68t29 69q30 28 76 28z" />
    <glyph glyph-name="uni02B4" unicode="&#x2b4;" horiz-adv-x="505" 
d="M276 1364h168v-545h-127l-30 115q-43 -129 -158 -129q-43 0 -68 10l27 154q24 -8 66 -8q83 0 122 155v248z" />
    <glyph glyph-name="uni02B7" unicode="&#x2b7;" horiz-adv-x="958" 
d="M897 1366l-127 -547h-205l-80 398l-84 -398h-204l-136 547h166l80 -420l90 420h185l84 -422l77 422h154z" />
    <glyph glyph-name="uni02B8" unicode="&#x2b8;" horiz-adv-x="724" 
d="M664 1366l-211 -553q-41 -109 -114 -162t-206 -67l-20 112q86 16 125 42t67 81h-51l-193 547h172l125 -440l140 440h166z" />
    <glyph glyph-name="uni02B9" unicode="&#x2b9;" horiz-adv-x="645" 
d="M104 854l166 563h273l-244 -563h-195z" />
    <glyph glyph-name="uni02BA" unicode="&#x2ba;" horiz-adv-x="1019" 
d="M479 854l166 563h273l-244 -563h-195zM104 854l166 563h273l-244 -563h-195z" />
    <glyph glyph-name="uni02BB" unicode="&#x2bb;" horiz-adv-x="464" 
d="M224 1200q-70 0 -116 45t-46 109t53 178l133 274h155l-84 -319q70 -49 70 -123t-48 -119t-117 -45z" />
    <glyph glyph-name="uni02BC" unicode="&#x2bc;" horiz-adv-x="489" 
d="M247 1563q69 0 115 -45q46 -46 48 -110q0 -64 -54 -177l-133 -275h-155l84 320q-70 49 -70 123t48 119t117 45z" />
    <glyph glyph-name="uni02BF" unicode="&#x2bf;" horiz-adv-x="395" 
d="M334 1247q-121 0 -197 75t-76 182q0 106 76 182t197 75v-151q-96 0 -96 -105q0 -51 26 -79t70 -27v-152z" />
    <glyph glyph-name="uni02C0" unicode="&#x2c0;" horiz-adv-x="585" 
d="M172 1241v203q78 4 111.5 21.5t33.5 58.5q0 66 -81 65q-59 0 -123 -28l-52 129q90 53 211 53t186.5 -55.5t65.5 -147.5q0 -160 -172 -188v-111h-180z" />
    <glyph glyph-name="circumflex" unicode="&#x2c6;" horiz-adv-x="876" 
d="M168 1278l-107 123l287 268h180l287 -268l-108 -123l-269 182z" />
    <glyph glyph-name="caron" unicode="&#x2c7;" horiz-adv-x="876" 
d="M709 1651l106 -123l-287 -268h-180l-287 268l109 123l268 -183z" />
    <glyph glyph-name="uni02C8" unicode="&#x2c8;" horiz-adv-x="380" 
d="M61 1272v522h258v-522h-258z" />
    <glyph glyph-name="uni02CA" unicode="&#x2ca;" horiz-adv-x="675" 
d="M500 1694l114 -224l-471 -188l-82 150z" />
    <glyph glyph-name="uni02CB" unicode="&#x2cb;" horiz-adv-x="675" 
d="M178 1694l436 -262l-82 -150l-471 188z" />
    <glyph glyph-name="uni02CC" unicode="&#x2cc;" horiz-adv-x="380" 
d="M61 -662v523h258v-523h-258z" />
    <glyph glyph-name="uni02CE" unicode="&#x2ce;" horiz-adv-x="675" 
d="M174 -88l440 -248l-73 -147l-480 174z" />
    <glyph glyph-name="uni02CF" unicode="&#x2cf;" horiz-adv-x="675" 
d="M502 -88l112 -221l-479 -174l-74 147z" />
    <glyph glyph-name="uni02D0" unicode="&#x2d0;" horiz-adv-x="479" 
d="M213 348h49l146 -348h-338zM213 668l-143 348h338l-146 -348h-49z" />
    <glyph glyph-name="uni02D1" unicode="&#x2d1;" horiz-adv-x="479" 
d="M213 666l-143 348h338l-146 -348h-49z" />
    <glyph glyph-name="uni02D4" unicode="&#x2d4;" horiz-adv-x="864" 
d="M758 535v-164h-652v164h232v309h186v-309h234z" />
    <glyph glyph-name="uni02D6" unicode="&#x2d6;" horiz-adv-x="985" 
d="M602 997v-284h277v-205h-277v-283h-221v283h-275v205h275v284h221z" />
    <glyph glyph-name="uni02D7" unicode="&#x2d7;" horiz-adv-x="968" 
d="M106 510v205h756v-205h-756z" />
    <glyph glyph-name="breve" unicode="&#x2d8;" horiz-adv-x="808" 
d="M403 1300q-147 0 -238 94t-104 240l166 31q39 -160 175 -160t180 160l166 -31q-12 -146 -105 -240t-240 -94z" />
    <glyph glyph-name="dotaccent" unicode="&#x2d9;" horiz-adv-x="477" 
d="M238 1645q78 -1 128 -49t50 -122t-50 -121q-50 -48 -128 -48t-127 48t-50 122t49 122t128 48z" />
    <glyph glyph-name="ring" unicode="&#x2da;" horiz-adv-x="667" 
d="M334 1610q-43 0 -70 -28q-26 -28 -26 -78t26 -78t70 -28t70 28t26 78t-26 78t-70 28zM334 1761q120 -1 196 -75t76 -182t-76 -182t-196 -75q-120 0 -197 75q-76 75 -76 182t76 182t197 75z" />
    <glyph glyph-name="ogonek" unicode="&#x2db;" horiz-adv-x="583" 
d="M276 -215q0 -94 111 -94q59 0 125 14l-20 -186q-76 -14 -140 -15q-129 0 -210 62t-81 181q0 230 416 347l45 -94q-246 -94 -246 -215z" />
    <glyph glyph-name="tilde" unicode="&#x2dc;" horiz-adv-x="872" 
d="M555 1311q-63 0 -135 47t-101 47q-57 0 -108 -92l-150 73q41 100 107 164t140 64t146 -47q71 -47 99 -47q55 0 109 90l149 -74q-90 -225 -256 -225z" />
    <glyph glyph-name="hungarumlaut" unicode="&#x2dd;" horiz-adv-x="849" 
d="M584 1747l204 -102l-241 -361l-156 72zM236 1747l206 -98l-223 -355l-158 66z" />
    <glyph glyph-name="uni02DE" unicode="&#x2de;" horiz-adv-x="931" 
d="M618 426q-143 0 -223 68t-92 186l-2 12l-240 -135v205l228 119h248v-127q0 -119 110 -119q61 0 135 35l88 -166q-109 -78 -252 -78z" />
    <glyph glyph-name="uni02E0" unicode="&#x2e0;" horiz-adv-x="729" 
d="M340 728q0 -30 28 -30t27 31q0 31 -26 86q-29 -57 -29 -87zM211 728q0 68 78 169l-217 465h174l123 -369l118 369h175l-213 -467q73 -101 73 -167q-1 -134 -156 -134t-155 134z" />
    <glyph glyph-name="uni02E1" unicode="&#x2e1;" horiz-adv-x="380" 
d="M221 801q-160 0 -160 153v627l168 16v-636q0 -27 27 -27l31 6l32 -121q-51 -18 -98 -18z" />
    <glyph glyph-name="uni02E2" unicode="&#x2e2;" horiz-adv-x="630" 
d="M96 1214q0 70 66 117t183 47q116 0 212 -69l-68 -95q-75 43 -153 43t-78 -38q0 -19 24 -31t116 -34t138 -61q44 -40 44 -115t-72 -126t-203 -51t-239 80l79 90q86 -49 177 -49t92 49q0 25 -24 39t-114 34t-135 61q-45 39 -45 109z" />
    <glyph glyph-name="uni02E3" unicode="&#x2e3;" horiz-adv-x="712" 
d="M455 1110l196 -291h-182l-117 203l-114 -203h-177l197 287l-176 256h180l96 -172l93 172h172z" />
    <glyph glyph-name="uni02E4" unicode="&#x2e4;" horiz-adv-x="669" 
d="M372 1466q-144 0 -143 -122q0 -62 35 -92t115 -52l61 -16v-365h-168v295l-32 10q-92 29 -136 78q-43 49 -43 154q0 104 83 172t215 68t249 -91l-84 -92q-84 53 -152 53z" />
    <glyph glyph-name="uni02E5" unicode="&#x2e5;" horiz-adv-x="743" 
d="M473 0v1233h-412v184h621v-1417h-209z" />
    <glyph glyph-name="uni02E6" unicode="&#x2e6;" horiz-adv-x="743" 
d="M473 1417h209v-1417h-209v926h-412v184h412v307z" />
    <glyph glyph-name="uni02E7" unicode="&#x2e7;" horiz-adv-x="743" 
d="M473 1417h209v-1417h-209v618h-412v185h412v614z" />
    <glyph glyph-name="uni02E8" unicode="&#x2e8;" horiz-adv-x="743" 
d="M473 1417h209v-1417h-209v311h-412v185h412v921z" />
    <glyph glyph-name="uni02E9" unicode="&#x2e9;" horiz-adv-x="743" 
d="M473 1417h209v-1417h-621v186h412v1231z" />
    <glyph glyph-name="uni02EE" unicode="&#x2ee;" horiz-adv-x="823" 
d="M596 1550q61 0 103 -41t42 -97t-49 -161l-117 -247h-141l76 288q-61 44 -61 110t43 107t104 41zM229 1550q61 0 105 -41t43 -97q0 -56 -49 -161l-119 -247h-141l75 288q-61 44 -61 110t43 107t104 41z" />
    <glyph glyph-name="gravecomb" unicode="&#x300;" horiz-adv-x="0" 
d="M-498 1694l437 -262l-82 -150l-471 188z" />
    <glyph glyph-name="acutecomb" unicode="&#x301;" horiz-adv-x="0" 
d="M-176 1694l115 -224l-471 -188l-82 150z" />
    <glyph glyph-name="uni0302" unicode="&#x302;" horiz-adv-x="0" 
d="M-709 1278l-106 123l287 268h180l287 -268l-109 -123l-268 182z" />
    <glyph glyph-name="tildecomb" unicode="&#x303;" horiz-adv-x="0" 
d="M-317 1311q-63 0 -135 47t-101 47q-57 0 -109 -92l-149 73q41 100 106.5 164t140.5 64t145.5 -47t99.5 -47q55 0 108 90l150 -74q-90 -225 -256 -225z" />
    <glyph glyph-name="uni0304" unicode="&#x304;" horiz-adv-x="0" 
d="M-61 1348h-611v204h611v-204z" />
    <glyph glyph-name="uni0306" unicode="&#x306;" horiz-adv-x="0" 
d="M-405.5 1300q-147.5 0 -238.5 93.5t-104 240.5l166 31q39 -160 175 -160t180 160l166 -31q-12 -147 -104.5 -240.5t-240 -93.5z" />
    <glyph glyph-name="uni0307" unicode="&#x307;" horiz-adv-x="0" 
d="M-239.5 1645q77.5 0 128 -48.5t50.5 -122t-50.5 -121.5t-128 -48t-127 48t-49.5 121.5t49.5 122t127 48.5z" />
    <glyph glyph-name="uni0308" unicode="&#x308;" horiz-adv-x="0" 
d="M-217.5 1622q64.5 0 109.5 -44t45 -107.5t-45.5 -107.5t-109.5 -44t-109.5 44t-45.5 107.5t45.5 107.5t110 44zM-680.5 1622q64.5 0 108.5 -44t44 -107.5t-44 -107.5t-108.5 -44t-110 44t-45.5 107.5t45.5 107.5t110 44z" />
    <glyph glyph-name="hookabovecomb" unicode="&#x309;" horiz-adv-x="0" 
d="M-403 1241v203q78 4 111.5 21.5t33.5 58.5q0 66 -82 65q-59 0 -123 -28l-51 129q90 53 211 53t186.5 -55.5t65.5 -147.5q0 -160 -172 -188v-111h-180z" />
    <glyph glyph-name="uni030A" unicode="&#x30a;" horiz-adv-x="0" 
d="M-334 1610q-43 0 -69.5 -28t-26.5 -78t25.5 -77.5t70.5 -27.5t70.5 27.5t25.5 77.5t-26.5 78t-69.5 28zM-334 1761q121 0 197 -74.5t76 -182.5t-76 -182.5t-197 -74.5t-196.5 75t-75.5 182t75.5 182t196.5 75z" />
    <glyph glyph-name="uni030B" unicode="&#x30b;" horiz-adv-x="0" 
d="M-266 1747l205 -102l-242 -361l-156 72zM-614 1747l206 -98l-223 -355l-157 66z" />
    <glyph glyph-name="uni030C" unicode="&#x30c;" horiz-adv-x="0" 
d="M-168 1651l107 -123l-287 -268h-180l-287 268l108 123l269 -183z" />
    <glyph glyph-name="uni030D" unicode="&#x30d;" horiz-adv-x="0" 
d="M-319 1272v522h258v-522h-258z" />
    <glyph glyph-name="uni030F" unicode="&#x30f;" horiz-adv-x="0" 
d="M-238 1747l177 -387l-158 -66l-223 355zM-586 1747l195 -391l-156 -72l-241 361z" />
    <glyph glyph-name="uni0311" unicode="&#x311;" horiz-adv-x="0" 
d="M-405.5 1602q147.5 0 239.5 -93.5t105 -240.5l-166 -29q-43 158 -179 158t-176 -158l-166 29q12 147 103.5 240.5t239 93.5z" />
    <glyph glyph-name="uni0312" unicode="&#x312;" horiz-adv-x="0" 
d="M-210.5 1184q-64.5 0 -106 43t-41.5 102t53 172l92 191h150l-56 -236q61 -51 61.5 -117.5t-44 -110.5t-109 -44z" />
    <glyph glyph-name="uni0313" unicode="&#x313;" horiz-adv-x="0" 
d="M-201.5 1702q64.5 0 107.5 -42t43 -100.5t-55 -175.5l-93 -190h-147l55 236q-63 49 -63 116t44 111.5t108.5 44.5z" />
    <glyph glyph-name="uni0316" unicode="&#x316;" horiz-adv-x="0" 
d="M-502 -88l441 -248l-74 -147l-479 174z" />
    <glyph glyph-name="uni0317" unicode="&#x317;" horiz-adv-x="0" 
d="M-174 -88l113 -221l-480 -174l-73 147z" />
    <glyph glyph-name="uni0318" unicode="&#x318;" horiz-adv-x="0" 
d="M-240 -123h179v-602h-179v219h-258v162h258v221z" />
    <glyph glyph-name="uni0319" unicode="&#x319;" horiz-adv-x="0" 
d="M-319 -123v-221h258v-162h-258v-219h-181v602h181z" />
    <glyph glyph-name="uni031A" unicode="&#x31a;" horiz-adv-x="0" 
d="M-446 1630h417v-411h-178v251h-239v160z" />
    <glyph glyph-name="uni031B" unicode="&#x31b;" horiz-adv-x="0" 
d="M-61 1063.5q0 -113.5 -77 -177t-216 -67.5l-21 148q106 8 107 112q0 70 -29 142l197 30q39 -74 39 -187.5z" />
    <glyph glyph-name="uni031C" unicode="&#x31c;" horiz-adv-x="0" 
d="M-61 -625q-121 0 -197 75t-76 182t76 181t197 74v-149q-96 0 -97 -105q0 -51 26 -78.5t71 -27.5v-152z" />
    <glyph glyph-name="uni031D" unicode="&#x31d;" horiz-adv-x="0" 
d="M-61 -489v-164h-654v164h232v309h188v-309h234z" />
    <glyph glyph-name="uni031E" unicode="&#x31e;" horiz-adv-x="0" 
d="M-61 -344h-234v-309h-188v309h-232v164h654v-164z" />
    <glyph glyph-name="uni031F" unicode="&#x31f;" horiz-adv-x="0" 
d="M-250 -162v-180h189v-168h-189v-178h-192v178h-187v168h187v180h192z" />
    <glyph glyph-name="uni0320" unicode="&#x320;" horiz-adv-x="0" 
d="M-629 -510v168h566v-168h-566z" />
    <glyph glyph-name="uni0321" unicode="&#x321;" horiz-adv-x="0" 
d="M-437 -451q-169 0 -282 86l101 175q80 -43 145 -43q121 0 121 131v104h291v-80q0 -182 -103.5 -277.5t-272.5 -95.5z" />
    <glyph glyph-name="dotbelowcomb" unicode="&#x323;" horiz-adv-x="0" 
d="M-240 -471q-78 0 -127 49t-49 122t50.5 121t127 48t127 -48t50.5 -121t-50.5 -122t-128.5 -49z" />
    <glyph glyph-name="uni0324" unicode="&#x324;" horiz-adv-x="0" 
d="M-217.5 -145q64.5 0 109.5 -44t45 -107.5t-45.5 -108t-109.5 -44.5t-109.5 44.5t-45.5 108t45.5 107.5t110 44zM-680.5 -145q64.5 0 108.5 -44t44 -107.5t-44 -108t-108.5 -44.5t-110 44.5t-45.5 108t45.5 107.5t110 44z" />
    <glyph glyph-name="uni0325" unicode="&#x325;" horiz-adv-x="0" 
d="M-334 -262q-44 0 -70 -28t-26 -78t25.5 -77.5t70.5 -27.5t70.5 27.5t25.5 77.5t-26.5 78t-69.5 28zM-334 -113q121 0 197 -73.5t76 -181.5t-76 -182.5t-197 -74.5t-196.5 75t-75.5 182t75.5 181t196.5 74z" />
    <glyph glyph-name="uni0326" unicode="&#x326;" horiz-adv-x="0" 
d="M-212.5 -143q64.5 0 108 -42t43.5 -102.5t-54 -173.5l-94 -190h-147l55 235q-61 51 -61 118.5t42.5 111t107 43.5z" />
    <glyph glyph-name="uni0327" unicode="&#x327;" horiz-adv-x="0" 
d="M-268 -102q207 -20 207 -207q0 -92 -81 -154.5t-214 -62.5t-217 59l67 139q63 -35 131 -34q98 0 99 65q0 74 -189 74l33 256h164v-135z" />
    <glyph glyph-name="uni0328" unicode="&#x328;" horiz-adv-x="0" 
d="M-420 -215q0 -94 109 -94q59 0 125 14l-21 -186q-76 -14 -139 -15q-129 0 -210 62.5t-81 180.5q0 230 416 347l45 -94q-244 -94 -244 -215z" />
    <glyph glyph-name="uni0329" unicode="&#x329;" horiz-adv-x="0" 
d="M-332 -662v523h258v-523h-258z" />
    <glyph glyph-name="uni032A" unicode="&#x32a;" horiz-adv-x="0" 
d="M-674 -510v330h613v-330h-179v174h-256v-174h-178z" />
    <glyph glyph-name="uni032B" unicode="&#x32b;" horiz-adv-x="0" 
d="M-291 -449q-133 0 -192 156q-63 -156 -195 -156q-98 0 -158.5 88.5t-68.5 231.5l123 14q23 -139 109.5 -139t109.5 139h160q23 -139 108 -139q91 0 109 139l125 -14q-8 -143 -68.5 -231.5t-161.5 -88.5z" />
    <glyph glyph-name="uni032C" unicode="&#x32c;" horiz-adv-x="0" 
d="M-168 -129l107 -125l-287 -254h-180l-287 254l108 125l269 -172z" />
    <glyph glyph-name="uni032D" unicode="&#x32d;" horiz-adv-x="0" 
d="M-709 -522l-106 123l287 268h180l287 -268l-109 -123l-268 182z" />
    <glyph glyph-name="uni032F" unicode="&#x32f;" horiz-adv-x="0" 
d="M-405.5 -96q147.5 0 239.5 -93.5t105 -240.5l-166 -31q-43 160 -179 160t-176 -160l-166 31q12 147 103.5 240.5t239 93.5z" />
    <glyph glyph-name="uni0330" unicode="&#x330;" horiz-adv-x="0" 
d="M-317 -420q-63 0 -135 47t-101 47q-57 0 -109 -92l-149 74q39 100 104.5 163.5t141.5 63.5t146.5 -47t99.5 -47q55 0 108 90l150 -74q-90 -225 -256 -225z" />
    <glyph glyph-name="uni0331" unicode="&#x331;" horiz-adv-x="0" 
d="M-61 -383h-611v205h611v-205z" />
    <glyph glyph-name="uni0332" unicode="&#x332;" horiz-adv-x="0" 
d="M-63 -383h-914v205h914v-205z" />
    <glyph glyph-name="uni0334" unicode="&#x334;" horiz-adv-x="0" 
d="M-375 483q-118 0 -201.5 62.5t-127.5 62.5t-72.5 -17.5t-44 -35.5t-37.5 -53l-158 80q121 246 318 245q98 0 197.5 -62.5t143.5 -62.5t74.5 25t65.5 74l156 -78q-117 -240 -314 -240z" />
    <glyph glyph-name="uni0335" unicode="&#x335;" horiz-adv-x="0" 
d="M-733 526v230h635v-230h-635z" />
    <glyph glyph-name="uni0336" unicode="&#x336;" horiz-adv-x="0" 
d="M-1550 526v230h1530v-230h-1530z" />
    <glyph glyph-name="uni0339" unicode="&#x339;" horiz-adv-x="0" 
d="M-334 -623v152q45 0 70.5 27.5t25.5 78.5q0 104 -96 105v149q121 0 197 -73.5t76 -181.5t-76 -182.5t-197 -74.5z" />
    <glyph glyph-name="uni033A" unicode="&#x33a;" horiz-adv-x="0" 
d="M-674 -180h178v-174h256v174h179v-328h-613v328z" />
    <glyph glyph-name="uni033B" unicode="&#x33b;" horiz-adv-x="0" 
d="M-526 -383h317v129h-317v-129zM-674 -508v379h613v-379h-613z" />
    <glyph glyph-name="uni033C" unicode="&#x33c;" horiz-adv-x="0" 
d="M-291 -117q100 0 160.5 -88t69.5 -231l-125 -15q-18 139 -109 140q-86 0 -108 -140h-160q-23 139 -111 140q-86 0 -108 -140l-123 15q8 143 68.5 231t158.5 88q133 0 195 -157q59 157 192 157z" />
    <glyph glyph-name="uni033D" unicode="&#x33d;" horiz-adv-x="0" 
d="M-258 1491l197 -262h-183l-116 182l-115 -182h-176l196 258l-176 229h180l97 -153l92 153h172z" />
    <glyph glyph-name="uni0342" unicode="&#x342;" horiz-adv-x="0" 
d="M-317 1311q-63 0 -135 47t-101 47q-57 0 -109 -92l-149 73q41 100 106.5 164t140.5 64t145.5 -47t99.5 -47q55 0 108 90l150 -74q-90 -225 -256 -225z" />
    <glyph glyph-name="uni0345" unicode="&#x345;" horiz-adv-x="0" 
d="M-282 -410q-126 0 -194.5 69t-68.5 181v76h213v-70q0 -86 84 -86q47 0 107 33l80 -127q-95 -76 -221 -76z" />
    <glyph glyph-name="uni035C" unicode="&#x35c;" horiz-adv-x="0" 
d="M0 -453q-368 0 -696 260l98 138q274 -156 597 -156t597 156l98 -138q-326 -260 -694 -260z" />
    <glyph glyph-name="uni0361" unicode="&#x361;" horiz-adv-x="0" 
d="M-3 1413q-323 0 -597 -156l-98 136q328 262 696 262t694 -260l-98 -138q-274 156 -597 156z" />
    <glyph glyph-name="uni0370" unicode="&#x370;" horiz-adv-x="1069" 
d="M1042 621h-591v-621h-301v1417h301v-559h591v-237z" />
    </font>
</defs>
</svg>
