<?xml version="1.0" encoding="UTF-8" standalone="no"?>
<svg width="140px" height="140px" viewBox="0 0 140 140" version="1.1" xmlns="http://www.w3.org/2000/svg" xmlns:xlink="http://www.w3.org/1999/xlink">
    <!-- Generator: sketchtool 39.1 (31720) - http://www.bohemiancoding.com/sketch -->
    <title>C84BBE11-CC4A-4472-A0C5-B9AF73C08CC0</title>
    <desc>Created with sketchtool.</desc>
    <defs>
        <polygon id="path-1" points="0 140 140 140 140 0 0 0"></polygon>
    </defs>
    <g id="Process" stroke="none" stroke-width="1" fill="none" fill-rule="evenodd">
        <g id="Process-detail" transform="translate(-867.000000, -622.000000)">
            <g id="print_gray" transform="translate(867.000000, 622.000000)">
                <g id="Page-1" stroke-width="1">
                    <path d="M100.657048,93.9890476 L88.0827619,93.9890476 L88.0827619,91.1319048 L100.657048,91.1319048 C102.279905,91.1319048 103.599905,89.8109524 103.599905,88.1880952 L102.579905,53.9680952 C102.578952,52.302381 101.258952,50.9814286 99.6360952,50.9814286 L40.3646667,50.9814286 C38.7418095,50.9814286 37.4227619,52.302381 37.4227619,53.9252381 L36.3999048,88.2309524 C36.4008571,89.8109524 37.7208571,91.1319048 39.3437143,91.1319048 L51.9189524,91.1319048 L51.9189524,93.9890476 L39.3437143,93.9890476 C36.145619,93.9890476 33.5437143,91.3871429 33.5437143,88.1880952 L34.565619,53.882381 C34.565619,50.7261905 37.1665714,48.1242857 40.3646667,48.1242857 L99.6360952,48.1242857 C102.83419,48.1242857 105.436095,50.7261905 105.436095,53.9252381 L106.456095,88.1452381 C106.457048,91.3871429 103.855143,93.9890476 100.657048,93.9890476" id="Fill-3" fill="#888888"></path>
                    <path d="M52.0912381,46.7224762 C52.1198095,47.4215238 52.6979048,47.9824762 53.4045714,47.9824762 L86.596,47.9824762 C87.3026667,47.9824762 87.8798095,47.4215238 87.908381,46.7224762 L86.8893333,35.599619 C86.8893333,34.8758095 86.2998095,34.2853333 85.5750476,34.2853333 L54.4255238,34.2853333 C53.7007619,34.2853333 53.1112381,34.8758095 53.1112381,35.599619 L53.1045714,35.7310476 L52.0912381,46.7224762 Z M86.596,50.839619 L53.4045714,50.839619 C51.1045714,50.839619 49.2331429,48.9681905 49.2331429,46.6681905 L49.2388571,46.5377143 L50.2550476,35.5272381 C50.2940952,33.2605714 52.1502857,31.4281905 54.4255238,31.4281905 L85.5750476,31.4281905 C87.8512381,31.4281905 89.7074286,33.2605714 89.7455238,35.5272381 L90.7664762,46.6681905 C90.7664762,48.9681905 88.896,50.839619 86.596,50.839619 L86.596,50.839619 Z" id="Fill-5" fill="#888888"></path>
                    <path d="M53.4035238,105.714286 L86.5978095,105.714286 L85.6854286,82.0828571 L54.314,82.0828571 L53.4035238,105.714286 Z M89.566381,108.571429 L50.4349524,108.571429 L51.5644762,79.2257143 L88.4349524,79.2257143 L89.566381,108.571429 Z" id="Fill-7" fill="#888888"></path>
                    <mask id="mask-2" fill="white">
                        <use xlink:href="#path-1"></use>
                    </mask>
                    <g id="Clip-10"></g>
                    <polygon id="Fill-9" fill="#888888" mask="url(#mask-2)" points="57.2447619 87.7780952 82.4828571 87.7780952 82.4828571 84.9209524 57.2447619 84.9209524"></polygon>
                    <polygon id="Fill-11" fill="#888888" mask="url(#mask-2)" points="57.2447619 95.4761905 82.4828571 95.4761905 82.4828571 92.6190476 57.2447619 92.6190476"></polygon>
                    <polygon id="Fill-12" fill="#888888" mask="url(#mask-2)" points="57.2447619 103.174286 82.4828571 103.174286 82.4828571 100.317143 57.2447619 100.317143"></polygon>
                </g>
                <path d="M70,2.85714286 C32.9771429,2.85714286 2.85714286,32.9771429 2.85714286,70 C2.85714286,107.022857 32.9771429,137.142857 70,137.142857 C107.022857,137.142857 137.142857,107.022857 137.142857,70 C137.142857,32.9771429 107.022857,2.85714286 70,2.85714286 M70,140 C31.4019048,140 0,108.598095 0,70 C0,31.4019048 31.4019048,0 70,0 C108.598095,0 140,31.4019048 140,70 C140,108.598095 108.598095,140 70,140" id="Page-1" fill="#888888"></path>
            </g>
        </g>
    </g>
</svg>