<?xml version="1.0" encoding="UTF-8" standalone="no"?>
<svg width="140px" height="140px" viewBox="0 0 140 140" version="1.1" xmlns="http://www.w3.org/2000/svg" xmlns:xlink="http://www.w3.org/1999/xlink">
    <!-- Generator: sketchtool 39.1 (31720) - http://www.bohemiancoding.com/sketch -->
    <title>1A1E8747-BB96-4D1B-A8E5-12200884E53F</title>
    <desc>Created with sketchtool.</desc>
    <defs></defs>
    <g id="Process" stroke="none" stroke-width="1" fill="none" fill-rule="evenodd">
        <g id="Process-detail" transform="translate(-1128.000000, -622.000000)" fill="#888888">
            <g id="shipping_gray" transform="translate(1128.000000, 622.000000)">
                <g id="Page-1">
                    <path d="M70,2.85714286 C32.9771429,2.85714286 2.85714286,32.9771429 2.85714286,70 C2.85714286,107.022857 32.9771429,137.142857 70,137.142857 C107.022857,137.142857 137.142857,107.022857 137.142857,70 C137.142857,32.9771429 107.022857,2.85714286 70,2.85714286 M70,140 C31.4019048,140 0,108.598095 0,70 C0,31.4019048 31.4019048,0 70,0 C108.598095,0 140,31.4019048 140,70 C140,108.598095 108.598095,140 70,140" id="Fill-1"></path>
                    <path d="M33.6919048,44.682381 C32.662381,44.682381 31.8252381,45.5195238 31.8252381,46.5490476 L31.8252381,82.0128571 C31.8252381,83.0414286 32.662381,83.8785714 33.6919048,83.8785714 L84.2061905,83.8785714 L84.2061905,46.5490476 C84.2061905,45.5195238 83.3690476,44.682381 82.3404762,44.682381 L33.6919048,44.682381 Z M85.6347619,86.7357143 L33.6919048,86.7357143 C31.0871429,86.7357143 28.9680952,84.617619 28.9680952,82.0128571 L28.9680952,46.5490476 C28.9680952,43.9442857 31.0871429,41.8252381 33.6919048,41.8252381 L82.3404762,41.8252381 C84.9442857,41.8252381 87.0633333,43.9442857 87.0633333,46.5490476 L87.0633333,85.3071429 C87.0633333,86.0957143 86.4233333,86.7357143 85.6347619,86.7357143 L85.6347619,86.7357143 Z" id="Fill-3"></path>
                    <path d="M87.0633333,83.8788571 L107.041429,83.8788571 C107.66619,83.8788571 108.174762,83.3702857 108.174762,82.7455238 L108.174762,64.9969524 C108.174762,64.1645714 107.642381,63.4312381 106.85,63.1740952 L87.0633333,56.736 L87.0633333,83.8788571 Z M107.041429,86.736 L85.6347619,86.736 C84.8461905,86.736 84.2061905,86.096 84.2061905,85.3074286 L84.2061905,54.7693333 C84.2061905,54.3112381 84.4242857,53.8817143 84.7947619,53.6131429 C85.1652381,53.3426667 85.6442857,53.2702857 86.0766667,53.4102857 L107.73381,60.456 C109.70619,61.0979048 111.031905,62.9226667 111.031905,64.9969524 L111.031905,82.7455238 C111.031905,84.9455238 109.241429,86.736 107.041429,86.736 L107.041429,86.736 Z" id="Fill-5"></path>
                    <path d="M49.0499048,87.5395238 C46.9060952,87.5395238 45.1613333,89.2842857 45.1613333,91.4280952 C45.1613333,93.5728571 46.9060952,95.317619 49.0499048,95.317619 C51.1937143,95.317619 52.9384762,93.5728571 52.9384762,91.4280952 C52.9384762,89.2842857 51.1937143,87.5395238 49.0499048,87.5395238 M49.0499048,98.1747619 C45.3308571,98.1747619 42.3041905,95.1480952 42.3041905,91.4280952 C42.3041905,87.7090476 45.3308571,84.682381 49.0499048,84.682381 C52.7689524,84.682381 55.795619,87.7090476 55.795619,91.4280952 C55.795619,95.1480952 52.7689524,98.1747619 49.0499048,98.1747619" id="Fill-7"></path>
                    <path d="M94.5689524,87.1377143 C92.4251429,87.1377143 90.680381,88.8824762 90.680381,91.0272381 C90.680381,93.1710476 92.4251429,94.9158095 94.5689524,94.9158095 C96.7137143,94.9158095 98.4584762,93.1710476 98.4584762,91.0272381 C98.4584762,88.8824762 96.7137143,87.1377143 94.5689524,87.1377143 M94.5689524,97.7729524 C90.8499048,97.7729524 87.8232381,94.7462857 87.8232381,91.0272381 C87.8232381,87.3072381 90.8499048,84.2805714 94.5689524,84.2805714 C98.2889524,84.2805714 101.315619,87.3072381 101.315619,91.0272381 C101.315619,94.7462857 98.2889524,97.7729524 94.5689524,97.7729524" id="Fill-9"></path>
                </g>
            </g>
        </g>
    </g>
</svg>